<?xml version="1.0" encoding="utf-8"?>
<svg version="1.1" xmlns:xlink="http://www.w3.org/1999/xlink" width="37px" height="37px" xmlns="http://www.w3.org/2000/svg">
  <g transform="matrix(1 0 0 1 -218 -176 )">
    <path d="M 6.317073160156251 0  L 30.682926839843752 0  C 34.20243903320313 0  37 2.7975609667968753  37 6.317073160156251  L 37 30.68292683984375  C 37 34.20243903320313  34.20243903320313 37  30.682926839843752 37  L 6.317073160156251 37  C 2.7975609667968757 37  0 34.20243903320313  0 30.68292683984375  L 0 6.317073160156251  C 0 2.797560966796876  2.7975609667968753 0  6.317073160156251 0  Z M 27.704878066406252 21.83902438671875  C 27.61463416308594 21.38780487011719  27.073170743164066 21.297560966796876  26.71219512988281 21.56829267675781  L 18.048780483398442 27.163414646484373  L 9.385365836914064 21.56829267675781  C 9.024390223632812 21.387804870117186  8.57317070703125 21.387804870117186  8.302439033203125 21.748780483398438  L 8.212195129882813 21.83902438671875  C 7.9414634199218765 22.2  8.121951226562501 22.741463419921875  8.482926839843751 22.921951226562502  L 17.597560966796877 28.78780487011719  C 17.68780487011719 28.78780487011719  17.68780487011719 28.8780487734375  17.778048773437497 28.8780487734375  L 18.13902438671875 28.8780487734375  C 18.229268290039062 28.8780487734375  18.319512193359376 28.78780487011719  18.319512193359376 28.78780487011719  L 27.434146356445314 22.921951226562502  C 27.795121969726562 22.65121951660156  27.885365873046876 22.2  27.704878066406252 21.83902438671875  Z M 27.704878066406252 18.59024390332031  C 27.61463416308594 18.139024386718745  27.073170743164066 18.04878048339843  26.71219512988281 18.319512193359373  L 18.048780483398442 23.91463416308594  L 9.385365836914064 18.319512193359373  C 9.024390223632812 18.13902438671875  8.57317070703125 18.13902438671875  8.302439033203125 18.499999999999996  L 8.212195129882813 18.59024390332031  C 7.9414634199218765 18.951219516601558  8.121951226562501 19.492682936523433  8.482926839843751 19.673170743164057  L 17.597560966796877 25.539024386718747  C 17.68780487011719 25.539024386718747  17.68780487011719 25.629268290039057  17.778048773437497 25.629268290039057  L 18.13902438671875 25.629268290039057  C 18.229268290039062 25.629268290039057  18.319512193359376 25.539024386718747  18.319512193359376 25.539024386718747  L 27.434146356445314 19.673170743164057  C 27.795121969726562 19.40243903320312  27.885365873046876 18.951219516601558  27.704878066406252 18.59024390332031  Z M 18.139024386718752 9.114634163085938  C 18.139024386718752 9.024390259765626  18.139024386718752 9.024390259765626  18.048780483398442 9.024390259765624  L 17.86829267675781 9.024390259765624  C 17.778048773437497 9.024390259765624  17.68780487011719 9.114634163085938  17.68780487011719 9.114634163085938  L 8.482926839843751 14.980487806640626  C 8.212195129882813 15.160975613281249  8.121951226562501 15.431707323242186  8.121951226562501 15.702439033203124  C 8.121951226562501 15.973170743164061  8.212195129882813 16.243902453125003  8.482926839843751 16.424390259765623  L 17.597560966796877 22.290243903320313  C 17.68780487011719 22.290243903320313  17.68780487011719 22.380487806640627  17.778048773437497 22.380487806640627  L 18.13902438671875 22.380487806640627  C 18.229268290039062 22.380487806640627  18.319512193359376 22.290243903320313  18.319512193359376 22.290243903320313  L 27.434146356445314 16.424390259765627  C 27.61463416308594 16.334146356445313  27.795121969726562 16.063414646484375  27.79512193359375 15.882926839843751  L 27.79512193359375 15.792682936523438  C 27.79512193359375 15.5219512265625  27.704878030273438 15.25121951660156  27.434146356445314 15.07073170996094  L 18.319512193359376 9.20487806640625  C 18.229268290039062 9.20487806640625  18.229268290039062 9.114634163085938  18.139024386718752 9.114634163085938  Z " fill-rule="nonzero" fill="#13227a" stroke="none" transform="matrix(1 0 0 1 218 176 )" />
  </g>
</svg>