<?xml version="1.0" encoding="utf-8"?>
<svg version="1.1" xmlns:xlink="http://www.w3.org/1999/xlink" width="13px" height="13px" xmlns="http://www.w3.org/2000/svg">
  <g transform="matrix(1 0 0 1 -123 -547 )">
    <path d="M 12.939429593373493 6.5030591114457845  C 12.939429593373493 2.9330760542168686  10.04551016566265 0.0391566265060241  6.4755271084337345 0.0391566265060241  C 2.9055440512048194 0.0391566265060241  0.011624623493975902 2.9330760542168672  0.011624623493975902 6.5030591114457845  C 0.011624623493975902 10.073042168674702  2.9055440512048194 12.966961596385541  6.4755271084337345 12.966961596385541  C 10.04551016566265 12.966961596385541  12.939429593373493 10.073042168674698  12.939429593373493 6.5030591114457845  Z M 6.024308170180723 8.031085278614457  L 6.024308170180723 2.971314947289156  C 6.024308170180723 2.72199736445783  6.22620952560241 2.5185664533132526  6.477056664156626 2.5185664533132526  C 6.726374246987951 2.5185664533132526  6.929805158132531 2.720467808734939  6.929805158132531 2.971314947289156  L 6.929805158132531 8.031085278614457  C 6.929805158132531 8.280402861445781  6.727903802710843 8.48383377259036  6.477056664156626 8.48383377259036  C 6.227739081325302 8.48383377259036  6.024308170180723 8.281932417168672  6.024308170180723 8.031085278614457  Z M 6.928275602409639 10.034803275602409  C 6.928275602409639 10.285650414156624  6.726374246987951 10.487551769578314  6.4755271084337345 10.487551769578314  C 6.22620952560241 10.487551769578314  6.02277861445783 10.285650414156624  6.02277861445783 10.034803275602409  C 6.02277861445783 9.783956137048193  6.224679969879517 9.582054781626503  6.4755271084337345 9.582054781626503  C 6.726374246987951 9.582054781626503  6.928275602409639 9.783956137048193  6.928275602409639 10.034803275602409  Z " fill-rule="nonzero" fill="#aaaaaa" stroke="none" transform="matrix(1 0 0 1 123 547 )" />
  </g>
</svg>