<?xml version="1.0" encoding="utf-8"?>
<svg version="1.1" xmlns:xlink="http://www.w3.org/1999/xlink" width="14px" height="14px" xmlns="http://www.w3.org/2000/svg">
  <g transform="matrix(1 0 0 1 -108 -485 )">
    <path d="M 13.99391 7.0000350000000005  C 13.99391 3.1373824999999997  10.862617499999999 0.006089999999999999  7 0.006089999999999999  C 3.1373824999999997 0.006089999999999999  0.006089999999999999 3.1373824999999997  0.006089999999999999 7.0000350000000005  C 0.006089999999999999 10.862635  3.1373824999999997 13.99391  7 13.99391  C 10.862617499999999 13.99391  13.99391 10.862617499999999  13.99391 7.0000350000000005  Z M 8.165622500000001 11.111782500000002  C 8.165622500000001 11.77652  7.6437550000000005 12.3153975  7 12.3153975  C 6.3562275 12.3153975  5.834342500000001 11.7765025  5.834342500000001 11.111782500000002  C 5.834342500000001 10.447062500000001  6.3562275 9.908150000000001  7 9.908150000000001  C 7.643737499999999 9.908150000000001  8.165622500000001 10.447045000000001  8.165622500000001 11.111782500000002  Z M 8.3987925 3.1679899999999996  L 7.9051 7.9823975  C 7.9051 8.647135  7.5367074999999994 9.185995000000002  7.082285 9.185995000000002  L 6.9177325 9.185995000000002  C 6.463292499999999 9.185995000000002  6.094917499999998 8.647135  6.094917499999998 7.9823975  L 5.6012249999999995 3.1679899999999996  C 5.6012249999999995 2.5032525  5.9696 1.9644274999999998  6.4240224999999995 1.9644274999999998  L 7.5759775000000005 1.9644274999999998  C 8.0304175 1.9644274999999998  8.3987925 2.5032699999999997  8.3987925 3.1679899999999996  Z " fill-rule="nonzero" fill="#7f7f7f" stroke="none" transform="matrix(1 0 0 1 108 485 )" />
  </g>
</svg>