<?xml version="1.0" encoding="utf-8"?>
<svg version="1.1" xmlns:xlink="http://www.w3.org/1999/xlink" width="11px" height="15px" xmlns="http://www.w3.org/2000/svg">
  <g transform="matrix(1 0 0 1 -130 -262 )">
    <path d="M 10.935862903225807 1.9228012048192773  C 6.218548387096774 1.9228012048192773  5.5 0.06786144578313265  5.5 0.06786144578313265  C 5.5 0.06786144578313265  4.764951612903226 1.9228012048192769  0.06413709677419345 1.9228012048192769  L 0.06413709677419345 9.535301204819275  C 0.06413709677419345 12.545783132530119  5.5 14.932138554216865  5.5 14.932138554216865  C 5.5 14.932138554216865  10.935862903225807 12.545873493975902  10.935862903225807 9.538192771084336  L 10.935862903225807 1.9228012048192773  Z M 6.982604838709675 8.228765060240965  L 7.3645887096774185 10.255030120481928  L 5.551540322580644 9.332078313253014  L 3.7757499999999986 10.330481927710844  L 4.077717741935483 8.289307228915664  L 2.598395161290321 6.878855421686748  L 4.596669354838708 6.538915662650604  L 5.45724193548387 4.669427710843375  L 6.392241935483871 6.501415662650605  L 8.404798387096772 6.756596385542172  L 6.982604838709675 8.228765060240965  Z " fill-rule="nonzero" fill="#3f3c3c" stroke="none" transform="matrix(1 0 0 1 130 262 )" />
  </g>
</svg>