<?xml version="1.0" encoding="utf-8"?>
<svg version="1.1" xmlns:xlink="http://www.w3.org/1999/xlink" width="86px" height="28px" xmlns="http://www.w3.org/2000/svg">
  <g transform="matrix(1 0 0 1 -245 -484 )">
    <path d="M 246 498  A 13 13 0 0 1 259 485 L 317 485  A 13 13 0 0 1 330 498 A 13 13 0 0 1 317 511 L 259 511  A 13 13 0 0 1 246 498 Z " fill-rule="nonzero" fill="#f59a23" stroke="none" fill-opacity="0.03529411764705882" />
    <path d="M 245.5 498  A 13.5 13.5 0 0 1 259 484.5 L 317 484.5  A 13.5 13.5 0 0 1 330.5 498 A 13.5 13.5 0 0 1 317 511.5 L 259 511.5  A 13.5 13.5 0 0 1 245.5 498 Z " stroke-width="1" stroke-dasharray="3,1" stroke="#f59a23" fill="none" stroke-opacity="0.19215686274509805" stroke-dashoffset="0.5" />
  </g>
</svg>