<?xml version="1.0" encoding="utf-8"?>
<svg version="1.1" xmlns:xlink="http://www.w3.org/1999/xlink" width="70px" height="70px" xmlns="http://www.w3.org/2000/svg">
  <defs>
    <filter x="250px" y="1027px" width="70px" height="70px" filterUnits="userSpaceOnUse" id="filter469">
      <feOffset dx="0" dy="0" in="SourceAlpha" result="shadowOffsetInner" />
      <feGaussianBlur stdDeviation="5" in="shadowOffsetInner" result="shadowGaussian" />
      <feComposite in2="shadowGaussian" operator="atop" in="SourceAlpha" result="shadowComposite" />
      <feColorMatrix type="matrix" values="0 0 0 0 0  0 0 0 0 0  0 0 0 0 0  0 0 0 0.4823529411764706 0  " in="shadowComposite" />
    </filter>
    <g id="widget470">
      <path d="M 285 1038  C 298.44 1038  309 1048.56  309 1062  C 309 1075.44  298.44 1086  285 1086  C 271.56 1086  261 1075.44  261 1062  C 261 1048.56  271.56 1038  285 1038  Z " fill-rule="nonzero" fill="#ffffff" stroke="none" fill-opacity="0" />
      <path d="M 285 1038  C 298.44 1038  309 1048.56  309 1062  C 309 1075.44  298.44 1086  285 1086  C 271.56 1086  261 1075.44  261 1062  C 261 1048.56  271.56 1038  285 1038  Z " stroke-width="2" stroke="#000000" fill="none" />
    </g>
  </defs>
  <g transform="matrix(1 0 0 1 -250 -1027 )">
    <use xlink:href="#widget470" filter="url(#filter469)" />
    <use xlink:href="#widget470" />
  </g>
</svg>