<?xml version="1.0" encoding="utf-8"?>
<svg version="1.1" xmlns:xlink="http://www.w3.org/1999/xlink" width="21px" height="28px" xmlns="http://www.w3.org/2000/svg">
  <g transform="matrix(1 0 0 1 -245 -1246 )">
    <path d="M 20.865792759051196 13.440493500771094  C 20.865792759051196 12.453491958581186  20.266541822721603 11.663890724829256  19.267790262172287 11.663890724829256  L 17.669787765293385 11.663890724829256  L 17.669787765293385 7.1236836307556715  C 17.669787765293385 3.175677461996033  14.473782771535582 0.01727252698832127  10.478776529338328 0.01727252698832127  C 6.483770287141074 0.01727252698832127  3.287765293383272 3.1756774619960337  3.287765293383272 7.1236836307556715  L 3.287765293383272 11.663890724829256  L 1.6897627965043704 11.663890724829256  C 0.6910112359550572 11.663890724829256  0.09176029962547004 12.453491958581186  0 13.440493500771094  L 0 26.074113240801942  C 0.09176029962547004 27.06111478299185  0.8907615480649204 27.850716016743775  1.6897627965043704 27.850716016743775  L 19.267790262172287 27.850716016743775  C 20.266541822721603 27.850716016743775  20.865792759051196 27.06111478299185  20.865792759051196 26.074113240801942  L 20.865792759051196 13.440493500771094  Z M 5.8845193508114875 11.663890724829256  L 5.8845193508114875 7.321083939193654  C 5.8845193508114875 4.754879929499889  8.081772784019977 2.978277153558052  10.279026217228466 2.978277153558052  C 12.87578027465668 2.978277153558052  14.673533083645449 5.149680546375854  14.673533083645449 7.321083939193654  L 14.873283395755308 11.663890724829256  L 5.8845193508114875 11.663890724829256  Z M 12.276529338327093 17.98070059484468  C 12.476279650436956 18.96770213703459  12.076779026217231 19.757303370786516  11.477528089887642 19.954703679224497  L 11.477528089887642 22.718307997356245  C 11.477528089887642 22.718307997356245  11.477528089887642 22.915708305794226  11.277777777777779 22.915708305794226  L 9.679775280898879 22.915708305794226  C 9.679775280898879 22.915708305794226  9.480024968789015 22.915708305794226  9.480024968789015 22.718307997356245  L 9.480024968789015 19.954703679224497  C 8.681023720349565 19.55990306234854  8.281523096129838 18.96770213703459  8.281523096129838 17.98070059484468  C 8.281523096129838 16.796298744216788  9.280274656679152 15.809297202026878  10.279026217228466 15.809297202026878  C 11.277777777777779 15.809297202026878  12.276529338327093 16.796298744216788  12.276529338327093 17.98070059484468  Z " fill-rule="nonzero" fill="#000000" stroke="none" transform="matrix(1 0 0 1 245 1246 )" />
  </g>
</svg>