<?xml version="1.0" encoding="utf-8"?>
<svg version="1.1" xmlns:xlink="http://www.w3.org/1999/xlink" width="27px" height="27px" xmlns="http://www.w3.org/2000/svg">
  <g transform="matrix(1 0 0 1 -231 -539 )">
    <path d="M 9.226775390625 19.6520185546875  L 9.1693740234375 22.369236328125  C 9.1693740234375 22.5797255859375  9.1693740234375 22.5797255859375  9.37986328125 22.5797255859375  L 10.85326171875 22.5797255859375  C 11.063777343749999 22.5797255859375  11.063777343749999 22.5797255859375  11.063777343749999 22.369236328125  L 11.06377734375 19.632875976562502  C 11.77808882020392 19.246180139070336  12.251976329318536 18.52817595702796  12.326712890625 17.719356445312503  C 12.332211379517737 17.66034244465972  12.334965077221652 17.6011048450559  12.334965077221652 17.541835243630295  C 12.334965077221652 16.485013025822  11.478241396592447 15.628289345192794  10.421419178784152 15.628289345192794  C 10.373970810779976 15.628289345192794  10.326538858445897 15.630054142702223  10.279221679687499 15.633580078125  C 9.11672160875704 15.633580078125  8.1743291015625 16.57597258531954  8.1743291015625 17.73847265625  C 8.090990938836022 18.53354161753545  8.510688821080736 19.29663154383247  9.226775390625 19.6520185546875  Z M 2.3954589843749994 11.21333203125  L 12.996439453125 11.194189453125  L 12.996439453125 6.984404296875  C 12.964562287624675 3.2400483579779764  15.968697691708257 0.17600242960300805  19.712953124999995 0.1339453125  C 23.384278534881958 0.1429682642433162  26.355699496186944 3.1217010084447865  26.355699496186944 6.793037506084731  C 26.355699496186944 6.856836317589238  26.354782642373934 6.920631834893333  26.352949218750002 6.984404296875  L 26.352949218750002 11.42384765625  L 23.807961914062503 11.42384765625  L 23.807961914062503 6.984404296875  C 23.861629307074868 4.663141083754735  22.033717621576503 2.7327384773819747  19.712979492187504 2.6598164062499996  C 17.363173584854056 2.721586008871433  15.484724626843404 4.63387018012596  15.4649091796875 6.984404296875  L 15.4649091796875 11.194189453124999  L 18.06732421875 11.194189453124999  C 19.040590609722745 11.187172421399406  19.864070824240653 11.911842272305702  20 12.878103515624998  L 20 25.3160859375  C 19.879738315506998 26.200833662334862  19.181677412334864 26.898894565506993  18.2969296875 27  L 2.395458984375 27  C 1.5107112595401369 26.898894565506996  0.8126503563680022 26.200833662334862  1 25.3160859375  L 1 12.897246093749999  C 0.7114706929024737 12.890828387866842  0.711433577485318 12.884410306380595  0.711433577485318 12.877992171235316  C 0.711433577485318 11.958564268461831  1.4567771590868324 11.213220686860318  2.376205061860318 11.213220686860318  C 2.3826231970056377 11.213220686860318  2.389041278491802 11.213257802277472  2.3954589843749994 11.21333203125  Z " fill-rule="nonzero" fill="#000000" stroke="none" transform="matrix(1 0 0 1 231 539 )" />
  </g>
</svg>