<?xml version="1.0" encoding="utf-8"?>
<svg version="1.1" xmlns:xlink="http://www.w3.org/1999/xlink" width="10px" height="101px" preserveAspectRatio="xMidYMin meet" viewBox="1362 687  8 101" xmlns="http://www.w3.org/2000/svg">
  <defs>
    <mask fill="white" id="clip197">
      <path d="M 1349.5 722  L 1382.5 722  L 1382.5 747  L 1349.5 747  Z M 1349.5 678  L 1382.5 678  L 1382.5 799  L 1349.5 799  Z " fill-rule="evenodd" />
    </mask>
  </defs>
  <path d="M 1366.5 722  L 1366.5 688  M 1366.5 747  L 1366.5 782  " stroke-width="1" stroke="#555555" fill="none" />
  <path d="M 1366.5 687  A 3 3 0 0 0 1363.5 690 A 3 3 0 0 0 1366.5 693 A 3 3 0 0 0 1369.5 690 A 3 3 0 0 0 1366.5 687 Z M 1360.5 776.3  L 1366.5 783  L 1372.5 776.3  L 1366.5 778.6  L 1360.5 776.3  Z " fill-rule="nonzero" fill="#555555" stroke="none" mask="url(#clip197)" />
</svg>