<?xml version="1.0" encoding="utf-8"?>
<svg version="1.1" xmlns:xlink="http://www.w3.org/1999/xlink" width="14px" height="19px" xmlns="http://www.w3.org/2000/svg">
  <g transform="matrix(1 0 0 1 -131 -249 )">
    <path d="M 13.909722222222225 6.942201967592593  C 13.907552083333332 3.1419270833333335  10.815104166666666 0.05864197530864197  7 0.05864197530864197  C 3.1848958333333335 0.05864197530864197  0.09244791666666667 3.1419270833333335  0.09244791666666667 6.942201967592593  C 0.09244791666666667 12.048177083333334  4.335069444444445 16.810546875  6.171006944444444 18.63165509259259  C 6.633246527777778 19.092086226851855  7.379774305555556 19.096667631172835  7.8506944444444455 18.645399305555557  C 9.697482638888891 16.87697723765432  13.909722222222225 12.261212384259261  13.909722222222225 6.942201967592593  Z M 9.237413194444445 6.884934413580247  C 9.237413194444445 8.188343942901234  8.234809027777779 9.246648341049383  7 9.246648341049383  C 5.765190972222222 9.246648341049383  4.762586805555555 8.188343942901234  4.762586805555555 6.884934413580247  C 4.762586805555555 5.581524884259259  5.765190972222222 4.523220486111111  7 4.523220486111111  C 8.234809027777779 4.523220486111111  9.237413194444445 5.581524884259259  9.237413194444445 6.884934413580247  Z " fill-rule="nonzero" fill="#000000" stroke="none" transform="matrix(1 0 0 1 131 249 )" />
  </g>
</svg>