<?xml version="1.0" encoding="utf-8"?>
<svg version="1.1" xmlns:xlink="http://www.w3.org/1999/xlink" width="32px" height="36px" xmlns="http://www.w3.org/2000/svg">
  <g transform="matrix(1 0 0 1 -364 -124 )">
    <path d="M 30.740479999999998 4.208914285714286  C 30.740479999999998 2.164114285714286  29.089792 0.5060571428571431  27.05408 1  L 3.7007360000000005 1  C 1.6650240000000007 0.5060571428571431  0.014336000000000695 2.164114285714286  0 4.208914285714286  L 0 32.23954285714286  C 0.014336000000000695 34.28434285714286  1.6650240000000007 35.9424  3.7007360000000005 36  L 27.05408 36  C 29.089792 35.9424  30.740479999999998 34.28434285714286  30.740479999999998 32.23954285714286  L 30.740479999999998 4.208914285714286  Z M 11.016192 25.099199999999996  L 11.016192 28.828799999999998  C 11.016192 29.50971428571428  10.46528 30.063085714285716  9.787392 30.063085714285716  L 6.074368 30.063085714285716  C 5.3964799999999995 30.063085714285716  4.845567999999999 29.509714285714285  4.845567999999999 28.828799999999998  L 4.845567999999999 25.099199999999996  C 4.845567999999999 24.418285714285712  5.3964799999999995 23.864914285714285  6.074368 23.864914285714285  L 9.787392 23.864914285714285  C 10.46528 23.864914285714285  11.016192 24.41828571428571  11.016192 25.099199999999996  Z M 11.016192 16.13622857142857  L 11.016192 19.86377142857143  C 11.016192 20.544685714285713  10.46528 21.098057142857147  9.787392 21.098057142857147  L 6.074368 21.098057142857147  C 5.3964799999999995 21.098057142857147  4.845567999999999 20.544685714285716  4.845567999999999 19.86377142857143  L 4.845567999999999 16.13622857142857  C 4.845567999999999 15.455314285714286  5.3964799999999995 14.901942857142856  6.074368 14.901942857142856  L 9.787392 14.901942857142856  C 10.46528 14.901942857142856  11.016192 15.455314285714286  11.016192 16.13622857142857  Z M 11.016192 7.171200000000001  L 11.016192 10.9008  C 11.016192 11.581714285714286  10.46528 12.135085714285715  9.787392 12.135085714285715  L 6.074368 12.135085714285715  C 5.3964799999999995 12.135085714285715  4.845567999999999 11.581714285714286  4.845567999999999 10.9008  L 4.845567999999999 7.171200000000001  C 4.845567999999999 6.490285714285715  5.3964799999999995 5.936914285714287  6.074368 5.936914285714287  L 9.787392 5.936914285714287  C 10.46528 5.936914285714287  11.016192 6.490285714285715  11.016192 7.171200000000001  Z M 26.515456 26.962971428571425  C 26.515456 27.530742857142858  26.056704 27.99154285714286  25.491456 28  L 15.376383999999998 28  C 14.811136 27.99154285714286  14.352383999999997 27.530742857142858  14.352383999999997 26.962971428571425  C 14.352383999999997 26.3952  14.811135999999998 25.934399999999997  15.376383999999998 26  L 25.491456 26  C 26.056704 25.934399999999997  26.515456 26.3952  26.515456 26.962971428571425  Z M 26.515456 18.22422857142857  C 26.515456 18.792  26.056704 19.252799999999997  25.491456 19  L 15.376383999999998 19  C 14.811136 19.252799999999997  14.352383999999997 18.792  14.352383999999997 18.22422857142857  C 14.352383999999997 17.65645714285714  14.811135999999998 17.19565714285714  15.376383999999998 17.19565714285714  L 25.491456 17.19565714285714  C 26.056704 17.19565714285714  26.515456 17.65645714285714  26.515456 18.22422857142857  Z M 26.515456 8.615314285714282  C 26.515456 9.183085714285712  26.056704 9.643885714285712  25.491456 10  L 15.376383999999998 10  C 14.811136 9.643885714285712  14.352383999999997 9.183085714285713  14.352383999999997 8.615314285714282  C 14.352383999999997 8.047542857142853  14.811135999999998 7.586742857142855  15.376383999999998 8  L 25.491456 8  C 26.056704 7.586742857142855  26.515456 8.047542857142854  26.515456 8.615314285714282  Z " fill-rule="nonzero" fill="#13227a" stroke="none" transform="matrix(1 0 0 1 364 124 )" />
  </g>
</svg>