<?xml version="1.0" encoding="utf-8"?>
<svg version="1.1" xmlns:xlink="http://www.w3.org/1999/xlink" width="17px" height="22px" xmlns="http://www.w3.org/2000/svg">
  <g transform="matrix(1 0 0 1 -880 -631 )">
    <path d="M 16.891356043041444 10.56038775060586  C 16.891356043041444 9.784886538885218  16.4062481422032 9.164485569508702  15.59773497413947 9.164485569508702  L 14.304113905237502 9.164485569508702  L 14.304113905237502 5.597179995593741  C 14.304113905237502 2.4951751487111684  11.716871767433567 0.013571271205109568  8.482819095178646 0.013571271205109568  C 5.248766422923727 0.013571271205109568  2.6615242851197918 2.4951751487111693  2.6615242851197918 5.597179995593741  L 2.6615242851197918 9.164485569508702  L 1.3679032162178237 9.164485569508702  C 0.5593900481540939 9.164485569508702  0.07428214731585671 9.784886538885218  0.07428214731585671 10.56038775060586  L 0.07428214731585671 20.486803260630097  C 0.07428214731585671 21.262304472350742  0.7210926817668403 21.882705441727254  1.3679032162178237 21.882705441727254  L 15.59773497413947 21.882705441727254  C 16.4062481422032 21.882705441727254  16.891356043041444 21.262304472350742  16.891356043041444 20.486803260630097  L 16.891356043041444 10.56038775060586  Z M 4.76365852208549 9.164485569508702  L 4.76365852208549 5.752280237937871  C 4.76365852208549 3.735977087464199  6.542387491825696 2.3400749063670405  8.3211164615659 2.3400749063670405  C 10.423250698531598 2.3400749063670405  11.878574401046315 4.046177572152457  11.878574401046315 5.752280237937871  L 12.04027703465906 9.164485569508702  L 4.76365852208549 9.164485569508702  Z M 9.938142797693361 14.127693324520822  C 10.099845431306107 14.903194536241463  9.776440164080615 15.523595505617976  9.291332263242378 15.678695747962104  L 9.291332263242378 17.850099140779907  C 9.291332263242378 17.850099140779907  9.291332263242378 18.005199383124037  9.12962962962963 18.005199383124037  L 7.836008560727663 18.005199383124037  C 7.836008560727663 18.005199383124037  7.674305927114917 18.005199383124037  7.674305927114917 17.850099140779907  L 7.674305927114917 15.678695747962104  C 7.027495392663933 15.368495263273852  6.704090125438441 14.903194536241463  6.704090125438441 14.127693324520822  C 6.704090125438441 13.197091870456049  7.5126032935021705 12.421590658735404  8.3211164615659 12.421590658735404  C 9.12962962962963 12.421590658735404  9.938142797693361 13.197091870456049  9.938142797693361 14.127693324520822  Z " fill-rule="nonzero" fill="#ffffff" stroke="none" transform="matrix(1 0 0 1 880 631 )" />
  </g>
</svg>