<?xml version="1.0" encoding="utf-8"?>
<svg version="1.1" xmlns:xlink="http://www.w3.org/1999/xlink" width="17px" height="22px" xmlns="http://www.w3.org/2000/svg">
  <g transform="matrix(1 0 0 1 -427 -631 )">
    <path d="M 16.88813921797903 10.312526039643895  C 16.88813921797903 9.173856701949934  15.94884238409745 8.250030641194103  14.791104418945311 8.250030641194103  L 4.480683298211348 8.250030641194103  C 4.384569207442434 8.250030641194103  4.3059304019325655 8.172687063215125  4.305930380088405 8.07815602823735  L 4.305930380088405 5.500036769432923  C 4.305930380088405 4.3978907832325085  4.742812620785362 3.362346230500101  5.5335695081208875 2.5824651382225037  C 6.326510811574836 1.804732504925226  7.379397021484374 1.3750459510489677  8.5 1.3750459510489677  C 9.620602978515626 1.3750459510489677  10.673489188425165 1.8047324834408511  11.466430491879114 2.5824651382225037  C 12.257187357370476 3.362346230500101  12.694069619911597 4.3978907832325085  12.694069619911597 5.500036769432923  L 12.694069619911597 5.5430054334143  C 12.694069619911597 5.899645262819094  12.986780724455183 6.187535242744311  13.349392991879114 6.187535242744311  L 13.436769440018507 6.187535242744311  C 13.799381707442437 6.187535242744311  14.092092811986022 5.899645262819094  14.092092811986022 5.5430054334143  C 14.092092811986022 4.028360371820801  13.462982367907076 2.6426212806870555  12.449415538908307 1.6350063294644164  C 11.431479899516859 0.6230945032498902  10.02690345908717 -0.00639626509289098  8.478155882504112 4.902591056541066E-05  C 5.400320430715461 0.010791191905909367  2.9079071880139797 2.4685982087499827  2.9079071880139797 5.500036769432923  L 2.9079071880139797 8.07815602823735  C 2.9079071880139797 8.172687063215125  2.8292683825041114 8.250030641194103  2.733154291735197 8.250030641194103  L 2.2088955810546875 8.250030641194103  C 1.0511576159025502 8.250030641194103  0.11186078202097062 9.173856701949934  0.11186078202097062 10.312526039643895  L 0.11186078202097062 19.93750460155021  C 0.11186078202097062 21.076173939244168  1.0511576159025502 22  2.2088955810546875 22  L 14.791104418945311 22  C 15.94884238409745 22  16.88813921797903 21.076173939244168  16.88813921797903 19.93750460155021  L 16.88813921797903 10.312526039643895  Z M 10.597034799033716 14.437516858027852  C 10.597034799033716 15.109976290352005  10.269373102127878 15.709389019689072  9.760405304276315 16.085364743588613  C 9.410899511718751 16.345325100519688  9.199011606959294 16.74493359390586  9.199011606959294 17.176768563793683  L 9.199011606959294 18.562507654927433  C 9.199011606959294 18.93848337882697  8.888825217156663 19.245709253246932  8.508737642629525 19.25000612823882  C 8.119912447317025 19.254303003230707  7.80098839304071 18.932038087823514  7.80098839304071 18.547468635424572  L 7.80098839304071 17.187510729789025  C 7.80098839304071 16.753527322405258  7.591284904399672 16.34747353801563  7.237410301449426 16.085364743588613  C 6.7306268760279595 15.709389019689072  6.4029652009662845 15.109976290352005  6.4029652009662845 14.437516858027852  C 6.4029652009662845 13.316034977332688  7.329155581825659 12.390060479080915  8.469418239874589 12.375021438093682  C 9.642447074167354 12.357833981094885  10.597034799033716 13.28810533285417  10.597034799033716 14.437516858027852  Z " fill-rule="nonzero" fill="#ffffff" stroke="none" transform="matrix(1 0 0 1 427 631 )" />
  </g>
</svg>