<svg t="1638690792680" class="icon" viewBox="0 0 1024 1024" version="1.1" xmlns="http://www.w3.org/2000/svg" p-id="2068" width="200" height="200"><path d="M281.6 224a6.4 6.4 0 0 0-6.4 6.4v563.2c0 3.5328 2.8672 6.4 6.4 6.4h192a19.2 19.2 0 0 1 0 38.4H281.6A44.8 44.8 0 0 1 236.8 793.6V230.4c0-24.7296 20.0704-44.8 44.8-44.8h460.8c24.7296 0 44.8 20.0704 44.8 44.8v256a19.2 19.2 0 0 1-38.4 0V230.4a6.4 6.4 0 0 0-6.4-6.4h-108.8V281.6a19.2 19.2 0 0 1-19.2 19.2h-204.8a19.2 19.2 0 0 1-19.2-19.2V224H281.6z m147.2 0v38.4h166.4v-38.4h-166.4z" p-id="2069" fill="#13227a"></path><path d="M364.8 448a19.2 19.2 0 0 1 19.2-19.2h243.2a19.2 19.2 0 0 1 0 38.4H384a19.2 19.2 0 0 1-19.2-19.2zM364.8 588.8a19.2 19.2 0 0 1 19.2-19.2h115.2a19.2 19.2 0 0 1 0 38.4H384a19.2 19.2 0 0 1-19.2-19.2zM690.688 678.784a64 64 0 1 0-75.776 0 108.8512 108.8512 0 0 0-70.912 102.016V819.2a19.2 19.2 0 0 0 38.4 0v-38.4a70.4 70.4 0 1 1 140.8 0V819.2a19.2 19.2 0 0 0 38.4 0v-38.4a108.8512 108.8512 0 0 0-70.912-102.016zM652.8 652.8a25.6 25.6 0 1 1 0-51.2 25.6 25.6 0 0 1 0 51.2zM833.2032 672.4608a51.2 51.2 0 1 0-36.5312 18.6368 112.64 112.64 0 0 1 41.728 87.552V806.4a19.2 19.2 0 0 0 38.4 0v-27.7504a151.04 151.04 0 0 0-43.5968-106.1888zM793.6 652.8a12.8 12.8 0 1 1 0-25.6 12.8 12.8 0 0 1 0 25.6z" p-id="2070" fill="#13227a"></path></svg>