<?xml version="1.0" encoding="utf-8"?>
<svg version="1.1" xmlns:xlink="http://www.w3.org/1999/xlink" width="21px" height="20px" xmlns="http://www.w3.org/2000/svg">
  <g transform="matrix(1 0 0 1 -557 -708 )">
    <path d="M 20.960227264959162 6  L 0.0795454467773438 6  L 0.0795454467773438 2.31150792875744  C 0.08031602545604036 1.6269497153217758  0.6363291620147339 1.0721973899278585  1.3224431895862925 1.0714285714285714  L 4.056818181818182 1.0714285714285714  L 4.056818181818182 2.559523809523809  C 4.056818181818182 2.833474580429324  4.279403890317392 3.055555559430803  4.553977276611327 3.055555559430803  C 4.828550662905266 3.055555559430803  5.051136371404475 2.833474580429324  5.051136371404475 2.559523809523809  L 5.051136371404475 1.0714285714285714  L 10.022727272727273 1.0714285714285714  L 10.022727272727273 2.559523809523809  C 10.022727272727273 2.833474580429325  10.245312981226483 3.055555559430802  10.51988636752042 3.055555559430802  C 10.794459753814357 3.055555559430802  11.017045462313565 2.833474580429324  11.017045462313565 2.559523809523809  L 11.017045462313565 1.0714285714285714  L 15.988636363636363 1.0714285714285714  L 15.988636363636362 2.559523809523809  C 15.988636363636362 2.833474580429324  16.211222072135573 3.055555559430803  16.48579545842951 3.055555559430803  C 16.760368844723445 3.055555559430803  16.98295455322266 2.833474580429324  16.98295455322266 2.559523809523809  L 16.98295455322266 1.0714285714285714  L 19.717329545454543 1.0714285714285714  C 20.403443563925197 1.072197402738743  20.9594566863051 1.626949724387627  20.960227264959162 2.311507928757441  L 20.960227264959162 6  Z M 11.017045462313565 1.071428571428571  L 11.017045462313565 0.5753968331473209  C 11.017045462313565 0.30144606224180603  10.794459753814351 0.07936508324032672  10.51988636752042 0.07936508324032672  C 10.24531298122648 0.07936508324032672  10.022727272727272 0.30144606224180603  10.022727272727272 0.5753968331473209  L 10.022727272727272 1.071428571428571  L 11.017045462313565 1.071428571428571  Z M 5.051136371404473 1.071428571428571  L 5.051136371404473 0.5753968331473209  C 5.051136371404473 0.30144606224180603  4.828550662905262 0.07936508324032714  4.5539772766113265 0.07936508324032714  C 4.279403890317391 0.07936508324032714  4.05681818181818 0.30144606224180603  4.05681818181818 0.5753968331473209  L 4.056818181818181 1.071428571428571  L 5.051136371404473 1.071428571428571  Z M 16.98295455322266 1.071428571428571  L 16.98295455322266 0.5753968331473209  C 16.98295455322266 0.30144606224180603  16.760368844723445 0.07936508324032672  16.48579545842951 0.07936508324032672  C 16.211222072135573 0.07936508324032672  15.988636363636362 0.30144606224180603  15.988636363636362 0.5753968331473209  L 15.988636363636363 1.071428571428571  L 16.98295455322266 1.071428571428571  Z M 0 7  L 21 7  L 21 18.68055554780506  C 20.9594566991451 19.365113761255135  20.403443573011657 19.91986609705066  19.717329545454543 20  L 1.3224431895862925 20  C 0.6363291529282769 19.91986610986155  0.08031601261603839 19.365113770320992  0 18.68055554780506  L 0 7  Z M 3.559659098677201 15.952380952380949  C 3.834232478535824 15.952380952380949  4.056818181818182 15.730299978584497  4.056818181818182 15.456349214099703  C 4.056818181818182 15.182398449614904  3.834232478535824 14.96031747581845  3.559659098677201 14.96031747581845  C 3.2850857188185794 14.96031747581845  3.0625000155362216 15.182398449614904  3.0625000155362216 15.456349214099703  C 3.0625000155362216 15.730299978584497  3.2850857188185794 15.952380952380949  3.559659098677201 15.952380952380949  Z M 4.056818181818182 12.480158737909228  C 4.056818181818182 12.206207973424432  3.834232478535824 11.984126999627978  3.559659098677201 11.984126999627978  C 3.2850857188185794 11.984126999627978  3.0625000155362216 12.206207973424432  3.0625000155362216 12.480158737909228  C 3.0625000155362216 12.75410950239402  3.2850857188185794 12.976190476190476  3.559659098677201 12.976190476190476  C 3.834232478535824 12.976190476190476  4.056818181818182 12.75410950239402  4.056818181818182 12.480158737909228  Z M 3.559659098677201 9.999999999999998  C 3.834232478535824 9.999999999999998  4.056818181818182 9.777919026203543  4.056818181818182 9.503968261718747  C 4.056818181818182 9.230017497233954  3.834232478535824 9.007936523437497  3.559659098677201 9.007936523437497  C 3.2850857188185794 9.007936523437497  3.0625000155362216 9.230017497233954  3.0625000155362216 9.503968261718747  C 3.0625000155362216 9.777919026203543  3.2850857188185794 9.999999999999998  3.559659098677201 9.999999999999998  Z M 6.542613644131748 15.952380952380949  C 6.817187023990371 15.952380952380949  7.039772727272726 15.730299978584494  7.039772727272726 15.456349214099703  C 7.039772727272726 15.182398449614904  6.8171870239903685 14.96031747581845  6.5426136441317455 14.96031747581845  C 6.268040264273125 14.96031747581845  6.045454560990765 15.182398449614904  6.045454560990765 15.456349214099703  C 6.045454560990765 15.730299978584497  6.268040264273125 15.952380952380949  6.5426136441317455 15.952380952380949  Z M 6.542613644131748 12.976190476190476  C 6.817187023990371 12.976190476190476  7.039772727272729 12.75410950239402  7.039772727272726 12.480158737909225  C 7.039772727272726 12.206207973424432  6.8171870239903685 11.984126999627978  6.5426136441317455 11.984126999627978  C 6.268040264273125 11.984126999627978  6.045454560990765 12.206207973424432  6.045454560990765 12.480158737909228  C 6.045454560990765 12.75410950239402  6.268040264273125 12.976190476190476  6.5426136441317455 12.976190476190476  Z M 6.542613644131748 9.999999999999998  C 6.817187023990371 9.999999999999996  7.039772727272726 9.777919026203543  7.039772727272726 9.503968261718747  C 7.039772727272726 9.230017497233954  6.8171870239903685 9.007936523437497  6.5426136441317455 9.007936523437497  C 6.268040264273125 9.007936523437497  6.045454560990765 9.230017497233954  6.045454560990765 9.503968261718747  C 6.045454560990765 9.777919026203543  6.268040264273125 9.999999999999998  6.5426136441317455 9.999999999999998  Z M 9.525568189586293 15.952380952380949  C 9.800141569444916 15.952380952380949  10.022727272727273 15.730299978584497  10.022727272727273 15.456349214099703  C 10.022727272727273 15.182398449614904  9.800141569444916 14.96031747581845  9.525568189586293 14.96031747581845  C 9.25099480972767 14.96031747581845  9.028409106445311 15.182398449614904  9.028409106445311 15.456349214099703  C 9.028409106445311 15.730299978584497  9.25099480972767 15.952380952380949  9.525568189586293 15.952380952380949  Z M 10.022727272727273 12.480158737909228  C 10.022727272727273 12.206207973424432  9.800141569444916 11.984126999627978  9.525568189586293 11.984126999627978  C 9.25099480972767 11.984126999627978  9.028409106445311 12.206207973424432  9.028409106445311 12.480158737909228  C 9.028409106445311 12.75410950239402  9.25099480972767 12.976190476190476  9.525568189586293 12.976190476190476  C 9.800141569444916 12.976190476190476  10.022727272727273 12.75410950239402  10.022727272727273 12.480158737909228  Z M 9.525568189586293 9.999999999999998  C 9.800141569444916 9.999999999999998  10.022727272727273 9.777919026203543  10.022727272727273 9.503968261718747  C 10.022727272727273 9.230017497233954  9.800141569444916 9.007936523437497  9.525568189586293 9.007936523437497  C 9.25099480972767 9.007936523437497  9.028409106445311 9.230017497233954  9.028409106445311 9.503968261718747  C 9.028409106445311 9.777919026203543  9.25099480972767 9.999999999999998  9.525568189586293 9.999999999999998  Z M 14.000000007768106 15.456349190848211  C 14.000000007768106 15.182398426363417  13.777414304485752 14.960317452566965  13.502840924627128 14.960317452566965  L 12.508522735040836 14.960317452566965  C 12.2339493487469 14.960317452566965  12.01136364024769 15.18239843156844  12.01136364024769 15.456349202473955  C 12.01136364024769 15.73029997337947  12.2339493487469 15.952380952380949  12.508522735040836 15.952380952380949  L 13.502840901322799 15.952380952380949  C 13.777414304485752 15.952380952380956  14.000000007768106 15.730299978584501  14.000000007768106 15.456349214099703  Z M 14.000000007768106 12.480158714657737  C 14.000000007768106 12.206207950172942  13.777414304485752 11.984126976376485  13.502840924627128 11.984126976376485  L 12.508522735040836 11.984126976376485  C 12.2339493487469 11.984126976376483  12.01136364024769 12.206207955377966  12.01136364024769 12.48015872628348  C 12.01136364024769 12.754109497188992  12.2339493487469 12.976190476190473  12.508522735040836 12.976190476190473  L 13.502840901322799 12.976190476190473  C 13.777414304485752 12.976190476190476  14.000000007768106 12.75410950239402  14.000000007768106 12.480158737909225  Z M 14.000000007768106 9.50396823846726  C 14.000000007768106 9.230017473982468  13.777414304485752 9.00793650018601  13.502840924627128 9.00793650018601  L 12.508522735040836 9.00793650018601  C 12.2339493487469 9.00793650018601  12.01136364024769 9.23001747918749  12.01136364024769 9.503968250093006  C 12.01136364024769 9.777919020998521  12.2339493487469 10  12.508522735040836 10  L 13.502840901322799 10  C 13.777414304485752 10  14.000000007768106 9.777919026203545  14.000000007768106 9.50396826171875  Z M 17.977272719504615 12.480158714657737  C 17.977272719504615 12.206207950172942  17.75468701622226 11.984126976376485  17.480113636363633 11.984126976376485  L 16.48579544677734 11.984126976376485  C 16.211222060483404 11.984126976376483  15.988636351984198 12.206207955377966  15.988636351984198 12.48015872628348  C 15.988636351984198 12.754109497188992  16.211222060483404 12.976190476190473  16.48579544677734 12.976190476190473  L 17.480113636363633 12.976190476190473  C 17.75468701622226 12.976190476190473  17.977272719504615 12.754109502394018  17.977272719504615 12.480158737909225  Z M 17.480113636363633 10  C 17.75468701622226 10  17.977272719504615 9.777919026203545  17.977272719504615 9.503968261718747  C 17.977272719504615 9.230017473982468  17.75468701622226 9.00793650018601  17.480113636363633 9.00793650018601  L 16.48579544677734 9.00793650018601  C 16.211222060483404 9.00793650018601  15.988636351984198 9.23001747918749  15.988636351984198 9.503968250093006  C 15.988636351984198 9.777919020998521  16.211222060483404 10  16.48579544677734 10  L 17.480113636363633 10  Z " fill-rule="nonzero" fill="#333333" stroke="none" transform="matrix(1 0 0 1 557 708 )" />
  </g>
</svg>