<?xml version="1.0" encoding="utf-8"?>
<svg version="1.1" xmlns:xlink="http://www.w3.org/1999/xlink" width="15px" height="15px" xmlns="http://www.w3.org/2000/svg">
  <g transform="matrix(1 0 0 1 -1141 -141 )">
    <path d="M 14.832798256928065 14.754350317382812  C 15.038658700619106 14.548783428955076  15.039167784492925 14.218388690185545  14.832817124852594 14.013814892578123  L 8.255088148584907 7.476428485107422  L 14.832817124852596 0.9395479980468745  C 15.038658700619106 0.7347306152343747  15.038658700619106 0.40382995605468697  14.832817124852596 0.19901257324218713  C 14.626428747788916 -0.005804809570313041  14.293446970813681 -0.005804809570313041  14.087605395047174 0.19901257324218713  L 7.509876418779481 6.735855596923828  L 0.9319023253242925 0.1989938232421875  C 0.7257590654481134 -0.005336389160156552  0.3927961379716981 -0.005336389160156552  0.18669059551886805 0.1989938232421875  C -0.019433796432783142 0.40382993774414055  -0.019433796432783142 0.7352364990234376  0.18669059551886805 0.9400538818359373  L 6.764136737175708 7.476428485107422  L 0.18616264372051877 14.013814892578123  C -0.019452664357311397 14.218388690185545  -0.019452664357311397 14.548783428955076  0.18616264372051877 14.754350317382812  C 0.39226818617334913 14.95894284667969  0.7257590654481134 14.95894284667969  0.9318834573997643 14.754350317382812  L 7.509876400353773 8.21698265991211  L 14.087586527122642 14.754350317382812  C 14.293428102889152 14.95894284667969  14.626409879864386 14.95894284667969  14.832798256928065 14.754350317382812  Z " fill-rule="nonzero" fill="#000000" stroke="none" transform="matrix(1 0 0 1 1141 141 )" />
  </g>
</svg>