<?xml version="1.0" encoding="utf-8"?>
<svg version="1.1" xmlns:xlink="http://www.w3.org/1999/xlink" width="12px" height="7px" xmlns="http://www.w3.org/2000/svg">
  <g transform="matrix(1 0 0 1 -297 -811 )">
    <path d="M 11.852446874999998 6.0933140625  C 11.852446874999998 6.480665625  11.57488125 6.79578046875  11.233696875 6.79578046875  L 0.7719281250000001 6.79578046875  C 0.43074375 6.79578046875  0.153178125 6.480665625  0.153178125 6.09333046875  L 0.153178125 1.0179421875000008  C 0.153178125 0.7279945312500008  0.35465156249999996 0.49294218750000074  0.6031781249999999 0.49294218750000074  C 0.8517046875 0.49294218750000074  1.053178125 0.7279945312500008  1.053178125 1.0179421875000008  L 1.053178125 5.745780468750001  L 10.952446875 5.745780468750001  L 10.952446875 1.0327242187499994  C 10.952446875 0.7427765625000006  11.153920312499999 0.5077242187499994  11.402446874999999 0.5077242187499994  C 11.6509734375 0.5077242187499994  11.852446874999998 0.7427765625000006  11.852446874999998 1.0327242187499994  L 11.852446874999998 6.0933140625  Z " fill-rule="nonzero" fill="#000000" stroke="none" transform="matrix(1 0 0 1 297 811 )" />
  </g>
</svg>