<?xml version="1.0" encoding="utf-8"?>
<svg version="1.1" xmlns:xlink="http://www.w3.org/1999/xlink" width="15px" height="15px" xmlns="http://www.w3.org/2000/svg">
  <g transform="matrix(1 0 0 1 -832 -463 )">
    <path d="M 8.249999999999996 0.8013698630136962  L 8.249999999999998 6.965753424657534  L 14.414383561643838 6.965753424657535  C 14.737801347026808 7.0067446354535345  14.980258666860847 7.28187158466273  14.980258666860847 7.607876712328766  C 14.980258666860847 7.933881839994807  14.737801347026808 8.209008789203999  14.414383561643834 8.249999999999998  L 8.249999999999996 8.249999999999998  L 8.249999999999996 14.414383561643838  C 8.209008789203999 14.737801347026808  7.933881839994804 14.980258666860847  7.607876712328764 14.980258666860847  C 7.281871584662728 14.980258666860847  7.006744635453534 14.737801347026808  6.965753424657532 14.414383561643834  L 6.965753424657532 8.249999999999996  L 0.8013698630136962 8.249999999999996  C 0.7743764138418837 8.253421253298738  0.7471940910232929 8.25513698630137  0.7199846942581063 8.25513698630137  C 0.36251271577173516 8.25513698630137  0.07272442028550347 7.965348690815135  0.07272442028550347 7.607876712328764  C 0.07272442028550347 7.250404733842395  0.36251271577173627 6.960616438356161  0.7199846942581063 6.960616438356161  C 0.7471940910232988 6.960616438356161  0.7743764138418779 6.96233217135879  0.8013698630136962 6.965753424657532  L 6.965753424657532 6.965753424657532  L 6.9657534246575326 0.8013698630136962  C 6.96233217135879 0.7743764138418779  6.960616438356161 0.7471940910232988  6.960616438356161 0.7199846942581063  C 6.960616438356161 0.36251271577173627  7.250404733842395 0.07272442028550347  7.607876712328764 0.07272442028550347  C 7.965348690815134 0.07272442028550347  8.25513698630137 0.36251271577173627  8.25513698630137 0.7199846942581063  C 8.25513698630137 0.7471940910233054  8.25342125329874 0.7743764138418721  8.249999999999996 0.8013698630136962  Z " fill-rule="nonzero" fill="#5a5a68" stroke="none" transform="matrix(1 0 0 1 832 463 )" />
  </g>
</svg>