<?xml version="1.0" encoding="utf-8"?>
<svg version="1.1" xmlns:xlink="http://www.w3.org/1999/xlink" width="271px" height="35px" xmlns="http://www.w3.org/2000/svg">
  <g transform="matrix(1 0 0 1 -2717 -316 )">
    <path d="M 2718 319  A 2 2 0 0 1 2720 317 L 2985 317  A 2 2 0 0 1 2987 319 L 2987 348  A 2 2 0 0 1 2985 350 L 2720 350  A 2 2 0 0 1 2718 348 L 2718 319  Z " fill-rule="nonzero" fill="#ffffff" stroke="none" />
    <path d="M 2717.5 319  A 2.5 2.5 0 0 1 2720 316.5 L 2985 316.5  A 2.5 2.5 0 0 1 2987.5 319 L 2987.5 348  A 2.5 2.5 0 0 1 2985 350.5 L 2720 350.5  A 2.5 2.5 0 0 1 2717.5 348 L 2717.5 319  Z " stroke-width="1" stroke-dasharray="3,1" stroke="#7f7f7f" fill="none" stroke-dashoffset="0.5" />
  </g>
</svg>