<?xml version="1.0" encoding="utf-8"?>
<svg version="1.1" xmlns:xlink="http://www.w3.org/1999/xlink" width="65px" height="8px" xmlns="http://www.w3.org/2000/svg">
  <g transform="matrix(1 0 0 1 -273 -383 )">
    <path d="M 8.846693250868057 4.081718750000005  C 8.84686957465278 1.932343750000007  6.873453776041669 0.18343750000000228  4.447767469618055 0.18343750000000228  C 2.0220811631944433 0.18343750000000228  0.04884168836805364 1.932187500000009  0.04884168836805364 4.081718750000005  C 0.04884168836805364 6.231093750000014  2.022257486979166 7.979687500000011  4.447767469618055 7.979687500000011  C 6.873277452256945 7.979687500000011  8.846693250868057 6.231093750000014  8.846693250868057 4.081718750000005  Z M 5.992892795138888 4.081875000000002  C 5.993069118923614 4.83671875  5.2999403211805545 5.4509374999999975  4.447767469618055 5.4509374999999975  C 3.595594618055557 5.4509374999999975  2.90264214409722 4.83671875  2.90264214409722 4.081875000000002  C 2.90264214409722 3.3267187499999977  3.5959472656249996 2.7123437500000023  4.447767469618055 2.7123437500000023  C 5.299587673611112 2.7123437500000023  5.992892795138888 3.3267187500000093  5.992892795138888 4.081875000000002  Z M 64.85294596354166 4.081718750000005  C 64.85294596354166 1.932343750000007  62.87970648871527 0.18343750000000228  60.45402018229167 0.18343750000000228  C 58.02833387586805 0.18343750000000228  56.05509440104167 1.932187500000009  56.05509440104167 4.081718750000005  C 56.05509440104167 6.231093750000014  58.02833387586805 7.979687500000011  60.45402018229167 7.979687500000011  C 62.87970648871527 7.979687500000011  64.85294596354166 6.231093750000014  64.85294596354166 4.081718750000005  Z M 61.99914550781249 4.081875000000002  C 61.999321831597214 4.83671875  61.306193033854164 5.4509374999999975  60.45402018229167 5.4509374999999975  C 59.602023654513886 5.4509374999999975  58.90889485677083 4.83671875  58.90889485677083 4.081875000000002  C 58.90889485677083 3.3267187499999977  59.602023654513886 2.7123437500000023  60.45402018229167 2.7123437500000023  C 61.30619303385418 2.7123437500000023  61.99914550781249 3.3267187500000093  61.99914550781249 4.081875000000002  Z " fill-rule="nonzero" fill="#000000" stroke="none" transform="matrix(1 0 0 1 273 383 )" />
  </g>
</svg>