<?xml version="1.0" encoding="utf-8"?>
<svg version="1.1" xmlns:xlink="http://www.w3.org/1999/xlink" width="93px" height="84px" xmlns="http://www.w3.org/2000/svg">
  <g transform="matrix(1 0 0 1 -264 -316 )">
    <path d="M 91.65061800373135 73.77172851562496  C 93.54184934701493 68.81909179687496  92.05528801305971 62.471513671874966  90.47510494402985 58.01865234375  C 88.61152635261195 52.76783203125001  85.60948577425374 47.344951171875  82.44478194962687 43.512451171875  C 79.24736473880597 39.64078125  75.78824043843284 37.649677734375004  72.16319962686566 37.59451171874999  C 72.11223375870867 37.593864133743274  72.06126522905676 37.59352233209023  72.01029617537313 37.593486328124996  C 70.8261077425373 37.593486328124996  69.73156483208955 37.804921875  68 38.129560546875  L 68 15.5728125  L 76.71993936567164 15.5728125  C 78.71473297574626 15.5728125  80.33738922574625 13.731621093749999  80.33738922574625 11.468173828125  C 80.33738922574625 9.6772265625  79.31965951492536 8.154521484375  77.90720032649253 7.595273437499997  C 76.64493353544775 3.276328124999997  73.02224230410447 0.2438378906249974  68.94481693097013 1  L 14.740362639925372 1  C 10.66347947761194 0.2438378906249974  7.0409689832089555 3.2767382812499966  5.778340718283583 7.595478515624998  C 4.366062266791046 8.154931640624996  3.34833255597015 9.677431640625  3.34833255597015 11.468173828125  C 3.34833255597015 13.731416015625  4.971169542910448 15.5728125  6.965963152985076 15.5728125  L 16 15.5728125  L 16 44.12625  L 11.47697644589552 44.12625  C 6.962890625 44.12625  3.0510202891791045 47.09947265625  1.1778626399253724 51.4098046875  C 1.165211054104477 51.435849609375005  1.1503906249999991 51.460048828125  1.1388234608208945 51.487119140625005  C 0.9814805833651759 51.859637299701276  0.8398042471959043 52.24041704062236  0.7142723880597006 52.62817382812501  C 0.7075851212686559 52.64827148437501  0.7003556436567157 52.668164062500004  0.6940298507462678 52.68846679687499  C 0.640196944903863 52.85698751290128  0.5894591364813133 53.026760560451905  0.5418493470149246 53.19767578125001  C 0.5297399720149245 53.24033203125002  0.5172691231343275 53.282783203125014  0.5057019589552231 53.32605468750001  C 0.4474310083541594 53.541540285244885  0.3941555057062529 53.75872446998848  0.3459305037313425 53.97738281250001  C 0.31076844912960633 54.136144734149646  0.2782900867460312 54.29565642149378  0.24851329291044688 54.455830078125  C 0.23658465485074537 54.52022460937501  0.22574043843283495 54.585029296875  0.21453474813432746 54.649833984375014  C 0.1886893656716409 54.80159179687501  0.16356693097014838 54.95375976562501  0.142420708955223 55.106953125000004  C 0.13085354477611852 55.189189453125  0.12181669776119318 55.272246093750006  0.11187616604477522 55.35509765625  C 0.09506763059701405 55.493525390625  0.07789762126865583 55.631953125  0.0650652985074618 55.77140624999999  C 0.054221082089551356 55.888095703125  0.047353078358208074 56.005810546875  0.03921991604477524 56.1233203125  C 0.03180970149253643 56.23242187499999  0.022230643656715534 56.34111328125  0.01717000932835733 56.450830078124994  C 0.005806336500215268 56.68316587185485  8.083197268732013E-05 56.91581256224987  0 57.148505859375014  L 0 67.24880859375  C 0 73.395205078125  3.747941930970149 78.648896484375  8.984975513059702 79.95975585937501  C 10.874580223880598 82.29169921875  13.583465485074628 83.756162109375  16.58894006529851 83.756162109375  C 19.458319729477612 83.756162109375  22.057316930970153 82.42130859374998  23.931378264925375 80  L 53.74303288246269 80  C 54.55092700559702 80.27106445312499  55.205556203358206 79.52806640624999  55.205556203358206 78.611572265625  C 55.205556203358206 77.695078125  54.55092700559702 76.95208007812501  53.74303288246269 76.95208007812501  L 51 76.95208007812501  L 51 63.7407421875  L 65.39713152985074 43.969365234375  C 65.76222014925374 43.581152343750006  68.47869636194031 40.846435546875  72.15633162313434 40.91349609375  C 74.94456040111942 40.968457031250004  77.68778568097017 42.606005859375  80.31027868470149 45.781845703125  C 83.2405666977612 49.330107421875  86.02626515858209 54.36826171874999  87.76152052238807 59.25814453125  C 89.70064715485074 64.72245117187498  90.12863222947762 69.40828125000002  88.96595149253731 72.452255859375  C 88.08973880597014 74.74625976562498  86.24658348880597 76.17134765624999  83.47028334888061 76.70865234375  C 83.47353661380598 76.700244140625  83.47606693097015 76.691630859375  83.47950093283582 76.68322265625  C 83.54348180970149 76.516083984375  83.60366721082092 76.34689453125  83.66078008395522 76.17585937499999  C 83.663671875 76.1668359375  83.66728661380597 76.158017578125  83.67017840485073 76.1487890625  C 84.10686165632241 74.83285952924136  84.330231499995 73.43817480974657  84.32950676305971 72.03205078124999  C 84.32950676305971 65.56737304687499  79.69450792910449 60.307734374999995  73.99731809701494 60.307734374999995  C 68.30012826492539 60.307734374999995  63.665129430970154 65.56716796874998  63.665129430970154 72.03205078124999  C 63.665129430970154 72.24246093749998  63.670551539179115 72.451435546875  63.68031133395523 72.65897460937498  C 63.68229944029853 72.699375  63.68609491604478 72.73957031249999  63.68844449626866 72.77997070312499  C 63.69802355410449 72.94998046874998  63.70922924440299 73.11937499999999  63.72513409514925 73.287333984375  C 63.72856809701493 73.32527343749999  63.73399020522388 73.36259765624999  63.73778568097015 73.400126953125  C 63.755497901119405 73.57177734374999  63.775378964552246 73.74240234374997  63.79959771455224 73.91200195312499  C 63.8044776119403 73.94563476562497  63.810261194029856 73.97906249999998  63.815321828358215 74.01269531249999  C 63.8415286847015 74.18619140624997  63.870446595149254 74.35886718749997  63.903340718283594 74.52949218749997  C 63.90930503731343 74.56066406249998  63.916173041044786 74.59163085937497  63.92249883395524 74.62280273437497  C 63.957019589552246 74.79527343749997  63.99425139925374 74.96630859374997  64.0354594216418 75.13549804687497  C 64.04323111007463 75.16728515624996  64.05154500932836 75.19907226562498  64.05931669776119 75.23065429687497  C 64.15014771999775 75.59409752398288  64.25667009441581 75.95225439414641  64.37849813432837 76.30382812499998  C 64.39223414179106 76.34340820312498  64.40560867537313 76.38278320312497  64.41970615671643 76.42215820312498  C 64.47248134328358 76.57022460937496  64.52850979477611 76.71665039062498  64.58652635261195 76.86164062499996  C 64.59845499067166 76.89158203124997  64.60857625932837 76.92213867187498  64.62086637126868 76.95187499999997  L 58.553165811567176 76.95187499999997  C 57.74527168843284 76.95187499999997  57.090642490671655 77.69487304687496  57.090642490671655 78.61136718749995  C 57.090642490671655 79.52786132812496  57.74527168843285 80.27085937499997  58.553165811567176 80.27085937499997  L 66.65542210820895 80.27085937499997  C 68.52948344216419 82.42089843749996  71.12866138059701 83.75595703124995  73.99786030783582 83.75595703124995  C 76.8715776585821 83.75595703124995  79.4740088619403 82.41679687499996  81.3487931436567 80.26060546874994  C 87.87411963619404 80.05142578124996  90.55354477611941 76.64446289062496  91.65061800373135 73.77172851562496  Z M 2.9252273787313428 57.51621093749997  L 2.9252273787313436 57.14830078125  C 2.9252273787313436 56.990595703124995  2.9292035914179104 56.833505859375  2.9357101212686567 56.67723632812499  C 2.9373367537313437 56.640732421874986  2.940047807835821 56.60443359374999  2.9416744402985078 56.56792968749999  C 2.948180970149255 56.44344726562498  2.956133395522388 56.31916992187498  2.9666161380597025 56.19571289062499  C 2.9693271921641804 56.164335937499985  2.9723997201492547 56.133164062499986  2.975472248134329 56.10158203124999  C 2.9880403790341292 55.96684285943113  3.0031051232936368 55.83241859133317  3.020656483208956 55.69839843749999  L 3.026982276119405 55.65123046875  C 3.1103828625672096 55.0436896335687  3.2449864580806826 54.44663520215785  3.428941231343284 53.868281249999974  L 7.498775652985075 53.868281249999974  C 8.115392681616074 53.86918534339926  8.615032927669217 54.43620758472432  8.61572994402985 55.135869140624976  L 8.615729944029848 56.249033203124974  C 8.61503254341104 56.9486281560444  8.115334209524722 57.51553282500158  7.498775652985075 57.51621093749997  L 2.9252273787313428 57.51621093749997  Z M 23.995901352611945 72.03246093749999  C 23.995901352611945 72.16740234374998  23.992467350746274 72.3015234375  23.987045242537317 72.435029296875  C 23.984695662313435 72.49163085937501  23.98035797574627 72.547822265625  23.976923973880595 72.60421875  C 23.972405550373136 72.679072265625  23.967887126865666 72.75392578125  23.961922807835823 72.828369140625  C 23.955958488805972 72.90055664062498  23.948186800373136 72.97212890624999  23.940415111940297 73.04411132812501  C 23.934450792910454 73.10009765625  23.9284864738806 73.15608398437502  23.92143773320896 73.21166015625  C 23.911137734243436 73.29340341755596  23.899750007709436 73.37496545784174  23.88727845149254 73.456318359375  C 23.867460665810615 73.58903689577329  23.84461992322796 73.7211514134775  23.81877915111941 73.852529296875  C 23.812634095149264 73.88431640625001  23.805946828358213 73.916103515625  23.799259561567172 73.947890625  C 23.779378498134328 74.0446875  23.758232276119404 74.140869140625  23.735459421641792 74.23664062499999  L 23.72045825559702 74.296318359375  C 23.694821975612467 74.40144978839473  23.66734452159477 74.50599196662873  23.638042210820903 74.6098828125  C 23.63750000000001 74.61234375000001  23.636596315298515 74.61459960937499  23.635873367537314 74.61706054687501  C 23.511039202473647 75.05253107814868  23.35508765379147 75.47571344402272  23.16957206156717 75.882392578125  C 23.15204057835821 75.920947265625  23.13541277985075 75.959912109375  23.117339085820902 75.9978515625  C 23.08968633395523 76.05650390625001  23.06022621268657 76.113720703125  23.03112756529851 76.1717578125  C 23.001667444029856 76.23041015625  22.97256879664179 76.28947265625001  22.94220499067164 76.3473046875  C 22.91798624067164 76.39303710937502  22.89268306902985 76.43794921875002  22.867741371268657 76.48347656250002  C 22.829786613805975 76.5523828125  22.791470382462688 76.621083984375  22.751708255597016 76.68855468750002  C 22.730200559701494 76.72526367187498  22.70778917910448 76.761357421875  22.685739272388062 76.79765625  C 22.640374300373136 76.8723046875  22.594286380597016 76.946337890625  22.54693330223881 77.01914062499999  C 22.527232975746273 77.04949218750001  22.50699043843284 77.079228515625  22.487109375 77.109375  C 22.41763402253855 77.213171745781  22.346042880057784 77.31512307871276  22.272393889925375 77.415146484375  C 20.9127098880597 79.26043945312499  18.870020988805972 80.43717773437498  16.58875932835821 80.43717773437498  C 13.782637593283585 80.43717773437498  11.335820895522389 78.657099609375  10.079337686567166 76.0396875  L 10.07156599813433 76.02287109374998  C 9.973057276019889 75.81553143240379  9.882306778471825 75.60356536592899  9.799556902985076 75.3875390625  C 9.778952891791047 75.333603515625  9.758168143656716 75.27925781249999  9.73846781716418 75.224912109375  C 9.718767490671642 75.170771484375  9.700332322761195 75.11601562499999  9.68153568097015 75.061259765625  C 9.657678404850747 74.99153320312499  9.634001865671644 74.92201171875  9.611951958955226 74.851669921875  C 9.60183069029851 74.819267578125  9.592613106343286 74.78666015624998  9.582853311567165 74.75405273437501  C 9.492573396301111 74.45514430154739  9.41708836087734 74.15074375761857  9.356751399253733 73.84227539062499  L 9.348256763059704 73.800029296875  C 9.331943183652008 73.71311267888419  9.316999877231249 73.62587218654875  9.303434001865675 73.53834960937498  C 9.296746735074631 73.49692382812499  9.290059468283586 73.455498046875  9.283733675373137 73.41407226562497  C 9.26418431452588 73.28099610332035  9.247611437366839 73.14737895795362  9.234031016791047 73.01334960937496  C 9.2270005991948 72.94616475892548  9.220614183154776 72.87889515781148  9.214872901119406 72.811552734375  C 9.209079933856813 72.73649160641098  9.204018989837166 72.6613600558064  9.199690998134331 72.58617187499999  C 9.196618470149255 72.53326171875  9.192822994402986 72.48035156249999  9.190654151119405 72.42744140624998  C 9.184979394410247 72.29594639872671  9.182026543924279 72.1643183256526  9.181798041044779 72.03266601562498  C 9.181798041044779 67.39790039062498  12.504646688432837 63.627333984374985  16.58875932835821 63.627333984374985  C 20.673052705223885 63.627333984374985  23.995901352611945 67.397900390625  23.995901352611945 72.03246093749999  Z M 36.06045359141791 50.33950195312497  L 36 50.339501953124994  L 36 77  L 25.965934001865676 77  C 25.979308535447768 76.91967773437499  25.990514225746274 76.88604492187498  26.003527285447767 76.85323242187499  C 26.0597364738806 76.71254882812498  26.11377681902986 76.57083984374998  26.165106110074632 76.42728515624998  C 26.18046875000001 76.38442382812498  26.195289179104485 76.34115234374997  26.21010960820897 76.29808593749999  C 26.27554529285483 76.10847787075222  26.336714456816434 75.91700954217829  26.393557602611942 75.72386718749998  C 26.440729944029854 75.56267578124998  26.48482975746269 75.40004882812498  26.526037779850753 75.23598632812498  C 26.53453241604478 75.20173828124997  26.54356926305971 75.16749023437498  26.551883162313434 75.13283203124998  C 26.592183137663774 74.96540487789909  26.629243115828704 74.79699526894049  26.663036380597024 74.62772460937498  C 26.669723647388068 74.59450195312498  26.676953125 74.56127929687497  26.683278917910453 74.52785156249996  C 26.71581156716418 74.35866210937498  26.744368003731346 74.18803710937496  26.770213386194033 74.01597656249997  C 26.77545475746269 73.98111328124996  26.781780550373135 73.94645507812498  26.7868411847015 73.91159179687497  C 26.810661321348633 73.74287547281334  26.831149973434922 73.57357525243889  26.848291744402992 73.40381835937497  C 26.852448694029857 73.36485351562497  26.857690065298513 73.32609374999996  26.861304804104485 73.28712890624998  C 26.87658402713151 73.11954716294417  26.88875633760487 72.95161942941948  26.897813666044783 72.78345703124997  C 26.900163246268665 72.74182617187498  26.90432019589553 72.70060546874996  26.906127565298515 72.65917968749997  C 26.91588736007463 72.45164062499997  26.921128731343288 72.24266601562495  26.921128731343288 72.03246093749998  C 26.921128731343288 65.56778320312496  22.286129897388065 60.30814453124996  16.58894006529851 60.30814453124996  C 10.891750233208958 60.30814453124996  6.2569321361940355 65.56757812499997  6.2569321361940355 72.03246093749998  C 6.257494859178423 72.26354526059897  6.26400416283132 72.49456167210927  6.2764517257462735 72.72521484374997  C 6.283138992537317 72.85215820312497  6.291633628731348 72.97910156249998  6.3019356343283635 73.10563476562496  C 6.306815531716422 73.16510742187498  6.3109724813432875 73.22519531249998  6.316394589552242 73.28446289062498  C 6.34546828228682 73.58805974434175  6.385080440080007 73.89023781385166  6.43513875932836 74.19029296874997  C 6.490631802392048 74.52701860576688  6.559197844033369 74.86080053588489  6.640636660447764 75.19066406249995  C 6.647685401119407 75.21875976562497  6.653649720149258 75.24726562499997  6.660698460820897 75.27536132812497  C 4.319152566707574 73.46871827786747  2.919737124697139 70.46196192121707  2.925046641791047 67.24901367187498  L 2.925046641791047 60.836015624999966  L 7.498775652985075 60.836015624999966  C 9.72762360074627 60.836015624999966  11.540957322761194 58.77867187499997  11.540957322761194 56.24964843749998  L 11.540957322761194 55.136484374999974  C 11.540957322761194 52.60725585937497  9.72780433768657 50.54970703124997  7.498775652985076 50.54970703124997  L 5.215164412313433 50.54970703124997  C 6.7778159981343284 48.64207031249997  9.005940998134328 47.44564453124997  11.476976445895524 47  L 34.94331856343283 47  C 35.559976938164716 47.446322643983514  36.05975619058485 48.013319129362586  36.06045359141791 48.71302734374998  L 36.06045359141791 50.33950195312497  Z M 20 44.12625  L 18 44.126249999999985  L 18 15.5728125  L 20 15.5728125  L 20 44.12625  Z M 29 44.126249999999985  L 27 44.126249999999985  L 27 25.133554687499988  C 26.23169114086007 24.433893268722716  26.731412234849472 23.86696276372533  27.34802938432837 23.866171874999992  L 27.491353777985086 23.866171874999992  C 28.107941571746657 23.866962990809885  28.607610852537846 24.433926440868913  29 25.133554687499988  L 29 44.126249999999985  Z M 48 65.00771484375001  L 48 76.95228515624999  L 39 76.95228515624999  L 39 65.00771484375001  L 48 65.00771484375001  Z M 38.985861707089555 58.01537109374999  L 42.796519356343296 58.01537109374999  L 42.796519356343296 61.68873046874998  L 38.985861707089555 61.68873046874998  L 38.985861707089555 58.01537109374999  Z M 38.985861707089555 54.69638671874999  L 38.985861707089555 51.99858398437499  L 44.18204874067164 51.99858398437499  C 44.79860719242721 51.999375309109396  45.298224668977966 52.56637172505943  45.29882229477613 53.26596679687499  L 45.29882229477614 53.428798828125  C 45.29812527869172 54.128347122599024  44.798565951110426 54.69527754754832  44.18204874067165 54.696181640624985  L 38.985861707089555 54.696181640624985  Z M 61 44.12337890625  L 61.50966068097016 44.12337890624999  L 60.04767957089553 46.15488281249999  L 50.800816231343305 35.76685546874999  L 54.90625583022389 31.010478515624982  C 55.16568635120669 30.701760870429432  55.31041527664262 30.29156587802285  55.31041527664262 29.864997883087863  C 55.31041527664262 28.94825913242635  54.6554594447807 28.20509553933787  53.8475304818665 28.20509553933787  C 53.461065567633554 28.20509553933787  53.090302096526734 28.37861713991699  52.816213852611945 28.68776367187499  L 42.569333022388065 40.55891601562498  C 42.31026923603556 40.86753017858426  42.1657674747894 41.2774014667324  42.1657674747894 41.703607467272455  C 42.1657674747894 42.620232956413005  42.82064238796688 43.363304732897454  43.62847153262522 43.363304732897454  C 44.01457267262674 43.363304732897454  44.385013560487046 43.19008746682156  44.65901352611941 42.88142578124999  L 48.753608908582095 38.137763671874986  L 58.18861940298507 48.737021484374985  L 48.86747318097015 61.68832031249999  L 45.72138526119403 61.68832031249999  L 45.72138526119403 57.667353515624995  C 47.18824626865672 56.97870117187499  48.223688199626864 55.338896484374985  48.223688199626864 53.42859375  L 48.223688199626864 53.26576171874999  C 48.223688199626864 50.73673828124999  46.41035447761193 48.67918945312499  44.181687266791045 48.67918945312499  L 38.984054337686565 48.67918945312499  C 38.96796875 46.165751953125  37.162225979477604 44.12604492187499  34.94313782649253 44.12604492187499  L 32 44.12604492187499  L 32 25.133349609374996  C 31.53335471082089 22.604326171874995  29.720020988805977 20.546777343749994  27.491173041044775 20.546777343749994  L 27.34784864738806 20.546777343749994  C 25.118819962686562 20.546777343749994  23.30548624067164 22.604121093749995  24 25.133349609374996  L 24 44.12604492187499  L 23 44.12604492187499  L 23 16  L 61 16  L 61 44.12337890625  Z M 65 15.5728125  L 65 39.54829101562499  C 65.34067861556238 39.859745140806545  64.87835929115387 40.202460113548796  64 40.574707031249986  L 64 15.5728125  L 65 15.5728125  Z M 76.72030083955224 13  L 62.97218400186567 13  L 6.965963152985076 12.253623046874985  C 6.583795058005011 12.253171120218381  6.274057990917405 11.901811203138623  6.273559934701493 11.468173828124987  C 6.273958575751162 11.034489641938046  6.583753828910312 10.683063719670518  6.965963152985076 11  L 58.031739738805975 11  C 58.03173969771215 10.68272460937499  58.03173971825905 10.68272460937499  58.03173967716522 10.68272460937499  C 58.8394690035677 10.68272460937499  59.49426299806075 9.939744649494582  59.49426299806075 9.023232421874988  C 59.49426299806075 8.106720194255391  58.8394690035677 7.363740234374987  58.03173967716522 7.363740234374987  C 58.03173971825905 7.363740234374987  58.03173969771215 7.363740234374987  58.03173973880596 8  L 9.049679337686566 8  C 10.179827425373134 5.077324218749988  12.346501865671643 3.563027343749988  14.740362639925372 4  L 68.94517840485075 4  C 71.33940065298509 3.563027343749988  73.5064365671642 5.077119140624986  74.63640391791044 8  L 63.03652635261196 8  C 63.03646610324033 7.363740225925126  63.03640585387334 7.363740221700196  63.03634560450126 7.363740221700196  C 62.228716096354624 7.363740221700196  61.57400302054605 8.106628364976565  61.57400302054605 9.023027331075196  C 61.57400302054605 9.93983647877341  62.228716096354624 10.68272462204978  63.03634560450126 10.68272462204978  C 63.03640585386983 10.68272462204978  63.03646610324384 10.68272461782485  63.036526352611936 11  L 76.70529967350747 11  L 76.7259036847015 10.683339843749987  C 77.10572397781804 10.687051045731906  77.41204179449178 11.037184685774152  77.41252332089553 11.468173828124987  C 77.4120254733372 11.901731250088215  77.10239835428884 12.253058150492263  76.72030083955224 13  Z M 81.40373717350748 72.03246093749998  C 81.40396162630935 72.16657185449051  81.40118943586165 72.3006676734485  81.39542327425374 72.434619140625  C 81.39307369402987 72.491220703125  81.3887360074627 72.5476171875  81.38530200559703 72.604013671875  C 81.38078358208956 72.6788671875  81.37644589552241 72.753310546875  81.37030083955226 72.82775390625  C 81.3643365205224 72.900146484375  81.35638409514925 72.971923828125  81.3487931436567 73.04390624999999  C 81.33031315749793 73.22498992319083  81.30595738429375 73.40523922370774  81.27577541977614 73.584287109375  C 81.26095499067164 73.67411132812498  81.24505013992537 73.76352539062499  81.22733791977613 73.852734375  C 81.22137360074628 73.88411132812502  81.21468633395523 73.915283203125  81.20817980410449 73.94666015625  C 81.18811800373136 74.04386718750001  81.16697178171643 74.14066406250001  81.14401819029852 74.236845703125  L 81.12955923507462 74.2940625  C 81.1036214600898 74.40015208512304  81.07584281897928 74.50565110133871  81.04623950559703 74.61049804687501  C 80.92009093521938 75.05153347248864  80.76231464415426 75.4794105472184  80.57433535447763 75.89039062500001  C 80.55824976679106 75.92525390625002  80.54306786380597 75.96114257812502  80.52680153917912 75.996005859375  C 80.49788362873136 76.0569140625  80.46733908582091 76.11679687499999  80.43715601679106 76.17708984375  C 80.40896105410448 76.23328125  80.38112756529853 76.28967773437499  80.35184818097017 76.34525390625001  C 80.32672574626868 76.393037109375  80.2999766791045 76.440205078125  80.27376982276121 76.487578125  C 80.23689948694032 76.554228515625  80.19984841417913 76.62087890624998  80.16153218283584 76.686298828125  C 80.13894006529853 76.724853515625  80.11526352611943 76.76279296874999  80.09212919776122 76.80114257812501  C 80.04811256249816 76.8738265204235  80.00304269268378 76.94568199036172  79.95693796641793 77.01667968749999  C 79.93615321828361 77.048671875  79.9148262593284 77.08045898437499  79.89349930037315 77.11224609375  C 79.82390351507891 77.21599122770505  79.75225319999767 77.31794101068824  79.67860307835822 77.418017578125  C 78.31855760261196 79.26228515624999  76.27659165111943 80.43779296875  73.99677588619404 80.43779296875  C 71.71696012126866 80.43779296875  69.67517490671642 79.262080078125  68.31531016791047 77.418017578125  C 68.29488689365672 77.39012695312499  68.27428288246271 77.36223632812501  68.25422108208959 77.33434570312502  C 68.13055175657878 77.16218103683357  68.01303793152294 76.98443960164117  67.90196478544777 76.80155273437498  C 67.87864972014926 76.763203125  67.85497318097016 76.72505859374999  67.83238106343285 76.686298828125  C 67.79435105477256 76.62091645668498  67.7571157204201 76.55494341488296  67.72068563432836 76.4883984375  C 67.69429804104479 76.44082031249998  67.66754897388061 76.39344726562499  67.64224580223882 76.34525390625001  C 67.61314715485075 76.29029296875  67.58567513992539 76.23410156250002  67.55766091417911 76.17832031249999  C 67.52729710820896 76.11761718749999  67.49639109141792 76.057529296875  67.46729244402985 75.996005859375  C 67.451026119403 75.96196289062499  67.43620569029851 75.92689453124999  67.42048157649253 75.89244140625  C 67.18734490492724 75.38245491391102  67.00099112053294 74.84664509630228  66.86435401119402 74.29344726562499  C 66.85965485074628 74.27478515624999  66.8547749533582 74.256328125  66.85025652985075 74.23746093749997  C 66.82712220149254 74.14107421874999  66.80597597947762 74.04366210937499  66.78591417910448 73.94624999999996  C 66.75195986629575 73.78442058234006  66.72272479431908 73.62136296492994  66.69825676305972 73.45734374999999  C 66.68571097132781 73.3755148295488  66.67426297395451 73.29347408776147  66.66391674440298 73.21124999999998  C 66.65704874067164 73.15587890624998  66.6510844216418 73.10009765624999  66.64512010261194 73.04431640624996  C 66.6371380025945 72.97237275208721  66.62996818278248 72.90031606297642  66.62361240671642 72.82816406249998  C 66.61728661380596 72.75413085937497  66.61312966417911 72.67927734374997  66.60861124067165 72.60442382812498  C 66.60535797574626 72.54802734374998  66.6010202891791 72.49163085937498  66.59848997201492 72.43502929687497  C 66.59266240344655 72.30094023946262  66.58964926731926 72.16671275222775  66.589453125 72.03246093749998  C 66.589453125 67.39790039062497  69.91230177238805 63.62733398437496  73.99659514925372 63.62733398437496  C 78.08088852611941 63.62733398437496  81.40373717350747 67.39790039062497  81.40373717350748 72.03246093749998  Z " fill-rule="nonzero" fill="#000000" stroke="none" transform="matrix(1 0 0 1 264 316 )" />
  </g>
</svg>