<?xml version="1.0" encoding="utf-8"?>
<svg version="1.1" xmlns:xlink="http://www.w3.org/1999/xlink" width="41px" height="50px" xmlns="http://www.w3.org/2000/svg">
  <g transform="matrix(1 0 0 1 -344 -338 )">
    <path d="M 40.86886991895988 39.0008764498658  C 38.33368869082322 36.897458421203986  35.44882726649953 35.14461003402991  32.38912577396223 33.917616109087426  L 31.952025603428172 36.459246249520696  C 34.662046899778446 37.59859770417945  37.109808093808304 39.088518800325915  39.29530918551772 40.929009657783745  L 40.86886991895988 39.0008764498658  Z M 0.04371004693329942 39.088518860237734  L 1.6172707803754622 40.929009657783745  C 3.802771872084883 39.088518860237734  6.250533066114734 37.59859776409126  8.960554362465015 36.459246249520696  C 8.523454132171171 34.70639786234663  8.348614063957552 32.953549475172544  8.261194029850742 31.02541632716641  L 8.261194029850742 30.499561805023006  L 0.04371004693329942 39.088518860237734  Z M 20.412579965893187 37.59859770417945  C 22.335820895522385 37.59859770417945  24.084221756937964 37.773882524923316  25.920042652460346 38.212094636694786  C 26.269722848647383 38.29973704706672  26.53198295096781 38.475021867810575  26.706823019181428 38.82559156921012  C 26.794243053288238 39.17616127060967  26.794243053288238 39.5267309120974  26.61940298507462 39.96494302386887  C 26.269722788887584 40.66608236675614  25.57036245627331 42.33128834355829  24.4339018933652 44.87291848399157  C 23.29744133045708 47.58983344516871  22.59808099784281 49.25503942197087  22.335820895522385 49.95617876485813  L 26.70682301918143 49.16739701159893  C 29.41684431553172 44.171779141104295  31.165245176947288 39.87730061349694  32.039445637534975 36.45924624952071  C 28.3678038464902 34.8816826830905  24.521321987231808 34.09290092983129  20.5 34.09290098974311  C 16.47867801276819 34.09290104965492  12.632196153509796 34.881682743002315  9.047974396571828 36.45924624952071  C 9.834754763292912 39.7896581432132  11.6705756588153 44.084136670820556  14.380597014925375 49.16739701159893  L 18.75159913858442 49.95617876485813  L 14.468017049032184 39.96494302386887  C 14.293176980818563 39.5267309120974  14.205756946711753 39.17616127060967  14.293176980818563 38.82559156921012  C 14.380597014925375 38.475021867810575  14.642857177005595 38.29973704706672  14.992537313432836 38.212094636694786  C 16.82835820895522 37.773882524923316  18.66417910447761 37.59859770417945  20.412579965893187 37.59859770417945  Z M 32.039445637534975 27.519719552818245  C 31.077825142840485 21.735319929064417  30.116204707905784 17.879053453316715  29.329424281424906 15.863277835026846  L 27.056503215368473 14.636283969996168  L 10.971215326201026 31.46362837902607  L 11.14605545417444 33.04119194545628  C 14.030916878498138 32.16476778182515  17.090618371035447 31.726555670053674  20.41257996589319 31.726555670053674  C 24.608742021338617 31.726555670053674  28.630063948810633 32.51533742331287  32.38912577396223 34.00525851945934  C 32.56396584217584 32.95354947517254  32.56396584217584 31.98948290116947  32.56396590193563 31.113058737538342  C 32.56396590193563 30.58720421539493  32.38912583372201 29.36021035036426  32.039445637534975 27.519719552818245  Z M 22.947761194029848 10.341805442388798  C 24.346481859258397 9.114811577358124  25.045842191872666 7.624890481211651  25.045842191872666 5.78439962375383  C 25.045842191872666 4.294478527607358  24.608741961578822 2.9798421922929395  23.647121526644124 1.9281332079179407  C 22.772921125816232 0.8764241636311301  21.723880597014926 0.26292723111579275  20.41257996589319 0.26292723111579275  C 19.188699368878265 0.26292723111579275  18.139658840076958 0.7887817532591974  17.265458439249066 1.9281332079179407  C 16.30383794455457 2.97984225220475  15.866737774020523 4.294478527607358  15.866737714260728 5.78439962375383  C 15.866737714260728 7.537248010927911  16.47867801276819 9.027169107074382  17.78997870364972 10.254163032016866  C 18.22707893394356 10.692375143788338  18.489339036263992 11.130587195648003  18.401919002157182 11.744084128163337  C 18.314498968050376 12.269938650306745  18.05223880597015 12.708150762078215  17.527718541569495 12.883435582822077  C 14.380597014925375 14.373356678968548  12.457356085296174 15.337423312883427  11.58315562470849 15.863277835026832  C 10.796375257987407 17.87905345331671  9.834754763292912 21.73531992906441  8.785714294251399 27.43207714244631  C 8.52345419193097 28.921998238592778  8.348614063957559 29.97370728287959  8.261194029850746 30.499561805022996  L 24.608742021338617 13.584574925709347  L 23.297441390216882 12.97107799319401  C 22.77292112581623 12.708150762078214  22.510661023495803 12.357581060678672  22.4232409296292 11.83172653853527  C 22.33582089552239 11.305872016391863  22.510660963736008 10.78001749424846  22.947761194029848 10.341805442388798  Z M 27.056503215368473 14.723926380368088  L 33.61300637097715 7.9754601226993795  L 31.689765441347948 6.222611735525298  L 24.608742021338617 13.584574925709347  L 27.056503215368473 14.723926380368088  Z " fill-rule="nonzero" fill="#ffffff" stroke="none" transform="matrix(1 0 0 1 344 338 )" />
  </g>
</svg>