<?xml version="1.0" encoding="utf-8"?>
<svg version="1.1" xmlns:xlink="http://www.w3.org/1999/xlink" width="100px" height="100px" xmlns="http://www.w3.org/2000/svg">
  <g transform="matrix(1 0 0 1 -314 -313 )">
    <path d="M 364 315  C 390.88 315  412 336.12  412 363  C 412 389.88  390.88 411  364 411  C 337.12 411  316 389.88  316 363  C 316 336.12  337.12 315  364 315  Z " fill-rule="nonzero" fill="#000000" stroke="none" fill-opacity="0.49019607843137253" />
    <path d="M 364 314.5  C 391.15999999999997 314.5  412.5 335.84  412.5 363  C 412.5 390.15999999999997  391.15999999999997 411.5  364 411.5  C 336.84 411.5  315.5 390.15999999999997  315.5 363  C 315.5 335.84  336.84 314.5  364 314.5  Z " stroke-width="3" stroke="#797979" fill="none" />
  </g>
</svg>