<?xml version="1.0" encoding="utf-8"?>
<svg version="1.1" xmlns:xlink="http://www.w3.org/1999/xlink" width="50px" height="50px" xmlns="http://www.w3.org/2000/svg">
  <g transform="matrix(1 0 0 1 -577 -338 )">
    <path d="M 50 7.5  C 50 3.357864376269051  46.64213562373095 0  42.5 0  C 38.35786437626905 0  35 3.357864376269051  35 7.500000000000001  C 35 14.025000000000002  42.5 22.5  42.5 22.5  C 42.5 22.5  50 14.025000000000002  50 7.5  Z M 46.25 7.500000000000001  C 46.25 9.571067811865477  44.571067811865476 11.25  42.5 11.25  C 40.428932188134524 11.25  38.75 9.571067811865477  38.75 7.500000000000001  C 38.75 5.428932188134526  40.428932188134524 3.7500000000000018  42.5 3.7500000000000018  C 44.571067811865476 3.7500000000000018  46.25 5.428932188134526  46.25 7.500000000000001  Z M 25 25  C 25 18.096440627115086  19.403559372884917 12.500000000000004  12.5 12.500000000000004  C 5.596440627115082 12.500000000000004  0 18.096440627115086  0 25  C 0 35.875  12.5 50  12.5 50  C 12.5 50  25 35.875  25 25  Z M 18.75 25  C 18.75 28.451779686442457  15.951779686442457 31.25  12.5 31.25  C 9.048220313557541 31.25  6.25 28.451779686442457  6.25 25  C 6.25 21.548220313557543  9.048220313557541 18.75  12.5 18.75  C 15.951779686442457 18.75  18.75 21.548220313557543  18.75 25  Z M 33.05 25.575000000000003  C 32.916666666666664 25.791666666666675  32.791666666666664 26.03333333333333  32.675000000000004 26.300000000000008  C 32.190972646913934 27.567199602737592  31.969820791799968 28.919628255165332  32.025 30.275000000000006  L 32.025 31  L 34.525 31  L 34.525 30.349999999999998  C 34.476568307061925 29.33015345010221  34.62947829357819 28.310753539993804  34.975 27.35  C 35.05690618349123 27.15381612874785  35.148690283093586 26.961903920488368  35.25 26.775  L 33.05 25.575000000000003  Z M 39.849999999999994 20.675000000000004  C 37.99048318013636 21.07725446826951  36.26747167101975 21.955990337918976  34.849999999999994 23.225  L 36.525 25.075000000000003  C 37.631696155130626 24.11884119128439  38.96638368952992 23.464413755062793  40.4 23.175000000000004  L 39.849999999999994 20.675000000000004  Z M 20.4 46.875  C 18.974999999999998 47.15  17.325 47.349999999999994  15.6 47.5  L 15.825 50  C 17.625 49.85  19.325 49.625  20.825 49.375  L 20.4 46.875  Z M 31.800000000000004 40.47500000000001  C 31.381221697183513 41.69942477197509  30.627740397644587 42.782012846025275  29.625 43.6  L 29.300000000000004 43.85  L 30.800000000000004 45.85  L 31.25 45.49999999999999  C 32.59086970915884 44.3939514011386  33.60258949977775 42.941225547942224  34.175000000000004 41.300000000000004  L 31.800000000000004 40.47500000000001  Z M 27.375000000000004 44.99999999999999  C 25.917890267464326 45.624518429416206  24.40202820603074 46.10188935484004  22.85 46.425  L 23.400000000000002 48.925000000000004  C 25.117425889310564 48.55416444996124  26.792704680811912 48.0096988427233  28.400000000000002 47.300000000000004  L 27.375000000000004 44.99999999999999  Z M 34.675 33.375  L 32.175 33.550000000000004  C 32.175 34.550000000000004  32.324999999999996 35.575  32.324999999999996 36.6  L 32.324999999999996 38.324999999999996  L 34.824999999999996 38.574999999999996  C 34.8580209675522 37.91708073665325  34.8580209675522 37.25791926334674  34.825 36.6  C 34.825 35.525  34.825 34.425  34.675 33.375  Z " fill-rule="nonzero" fill="#ffffff" stroke="none" transform="matrix(1 0 0 1 577 338 )" />
  </g>
</svg>