<?xml version="1.0" encoding="utf-8"?>
<svg version="1.1" xmlns:xlink="http://www.w3.org/1999/xlink" width="27px" height="25px" xmlns="http://www.w3.org/2000/svg">
  <g transform="matrix(1 0 0 1 -827 -350 )">
    <path d="M 26.881148658608492 22.626262626262626  C 26.881148658608492 23.92257536300505  25.828301886792453 24.949494949494948  24.537752432193397 24.949494949494948  L 15.571714696344342 24.949494949494948  L 15.571714696344342 23.68686868686868  L 24.537752432193397 23.68686868686868  C 25.11509433962264 23.68686868686868  25.590549454599056 23.215504655934343  25.590549454599056 22.643081202651512  L 25.590549454599056 2.441061000631309  C 25.590549454599056 1.8686868686868647  25.11509433962264 1.3973228377525226  24.537752432193397 1.3973228377525226  L 2.4622475678066036 1.3973228377525226  C 1.8849056603773562 1.3973228377525226  1.4094505454009427 1.8686868686868665  1.4094505454009427 2.441061000631309  L 1.4094505454009427 22.643081202651512  C 1.4094505454009427 23.215504655934343  1.88490566037736 23.68686868686868  2.4622475678066036 23.68686868686868  L 11.428285303655658 23.68686868686868  L 11.428285303655658 24.949494949494948  L 2.4622475678066036 24.949494949494948  C 1.1716981132075475 24.949494949494948  0.11885134139151014 23.90570746527778  0.11885134139151014 22.626262626262626  L 0.11885134139151014 2.4242424242424194  C 0.11885134139151014 1.1447975852272703  1.1716981132075475 0.11782867739898524  2.4622475678066036 0.11782867739898524  L 24.537752432193397 0.11782867739898524  C 25.828301886792453 0.11782867739898524  26.881148658608492 1.1616161616161567  26.881148658608492 2.4242424242424194  L 26.881148658608492 22.626262626262626  Z " fill-rule="nonzero" fill="#ffffff" stroke="none" transform="matrix(1 0 0 1 827 350 )" />
  </g>
</svg>