<?xml version="1.0" encoding="utf-8"?>
<svg version="1.1" xmlns:xlink="http://www.w3.org/1999/xlink" width="8px" height="21px" xmlns="http://www.w3.org/2000/svg">
  <g transform="matrix(1 0 0 1 -836 -356 )">
    <path d="M 6.658064516129035 18.638537744728918  C 6.537600806451616 19.937349397590364  5.453780241935485 20.915646178463856  4.129032258064516 20.915646178463856  C 2.804284274193547 20.915646178463856  1.7204133064516143 19.954200395331323  1.5655745967741928 18.65543815888554  L 0.25806451612903225 6.628915662650599  C 0.22363911290322433 6.375903614457829  0.29248991935483654 6.106040568524095  0.41290322580645017 5.8867305158132535  L 3.5957157258064525 0.30361445783132246  C 3.698941532258063 0.11805581701807301  3.905393145161288 0  4.129032258064516 0  C 4.3526713709677445 0  4.541935483870966 0.11810523343373135  4.645161290322581 0.30361445783132246  L 7.776360887096776 5.8698795180722865  C 7.8967741935483895 6.0891401543674695  7.9655745967741955 6.359052616716865  7.9311995967741975 6.612064664909637  L 6.658064516129035 18.638537744728918  Z M 2.425806451612901 18.5710843373494  C 2.511844758064516 19.431325301204815  3.251612903225805 20.072305628765058  4.129032258064516 20.072305628765058  C 5.006451612903227 20.072305628765058  5.746219758064516 19.431325301204815  5.8322580645161315 18.5710843373494  L 7.105393145161293 6.544611257530119  C 7.1225806451612925 6.4602574359939755  7.105393145161293 6.375903614457829  7.0537802419354865 6.291599209337348  L 4.129032258064516 1.1132035956325321  L 1.169858870967742 6.291549792921689  C 1.1354838709677435 6.359003200301206  1.1010584677419355 6.4602080195783165  1.1182963709677405 6.54456184111446  L 2.425806451612901 18.571034920933734  Z " fill-rule="nonzero" fill="#ffffff" stroke="none" transform="matrix(1 0 0 1 836 356 )" />
  </g>
</svg>