<?xml version="1.0" encoding="utf-8"?>
<svg version="1.1" xmlns:xlink="http://www.w3.org/1999/xlink" width="50px" height="50px" xmlns="http://www.w3.org/2000/svg">
  <g transform="matrix(1 0 0 1 -1054 -338 )">
    <path d="M 50 0  L 37.95414462890625 0  L 37.95414462890625 2  L 48.32451499023438 2  L 48.32451499023438 11.834215185546874  L 50 11.834215185546874  L 50 0  Z M 2 11.834215185546874  L 2 2  L 12.04585537109375 2  L 12.04585537109375 0  L 0 0  L 0 11.834215185546874  L 2 11.834215185546874  Z M 48 37.74250439453125  L 48 48  L 37.95414462890625 48  L 37.95414462890625 50  L 50 50  L 50 37.74250439453125  L 48 37.74250439453125  Z M 2 48  L 2 37.74250439453125  L 0 37.74250439453125  L 0 50  L 12.04585537109375 50  L 12.04585537109375 48  L 2 48  Z M 43.15696650390624 21.393298046874996  L 39.54144619140625 26.631393310546876  C 38.85361552734375 26.34920634765625  38.14814814453125 26.031746044921878  37.65432099609375 25.343915332031248  C 37.84832451171875 27.336860644531246  37.93650795898437 28.324514990234373  36.96649028320312 30.511463867187498  C 36.6843033203125 31.19929453125  35.6790123046875 32.39858911132812  35.18518520507812 32.8924162109375  C 34.99118168945312 33.985890624999996  34.779541455078125 34.391534375  34.197530859375 35.66137568359375  C 32.31040561523437 35.16754853515625  26.754850097656245 32.57495590820312  25.361552050781246 31.481481494140624  C 25.555555566406245 31.07583774414062  25.64373901367187 30.987654345703124  25.96119931640624 30.388007031249998  C 18.994709033203115 27.813051123046872  12.11640214843749 23.45679008789062  10.740740722656241 19.858906542968747  C 10.740740722656241 18.165784863281246  13.015872998046868 17.47795415039062  14.514991162109366 17.86596118164062  C 15.908289208984366 18.271604931640624  17.495590820312493 19.25925922851562  19.10052910156249 19.647266308593746  C 19.700176367187492 19.841269824218745  29.94708994140624 20.24691357421875  30.723104052734367 20.24691357421875  C 29.02998237304687 19.259259277343745  28.64197529296874 18.85361552734375  28.536155224609367 18.465608447265623  C 30.035273388671868 16.47266313476562  35.978835986328114 9.118165771484371  35.978835986328114 9.118165771484371  L 43.15696650390624 21.393298046874996  Z M 20.84656083984375 34.920634912109364  C 21.216931201171878 35.079365087890615  21.34038798828125 35.890652539062486  21.04056435546875 36.278659619140626  L 20.44091708984375 37.05467373046875  C 20.158730126953124 37.46031748046875  19.453262792968747 37.548500878906246  19.04761904296875 37.248677246093756  L 14.6913580078125 33.88007055664063  L 9.223985888671875 40.828924169921876  L 6.860670214843751 39.02998237304688  L 12.398589062500001 32.01058203125  L 9.61199296875 29.929453271484373  C 9.20634921875 29.64726630859375  9.1181658203125 28.941798974609373  9.417989404296875 28.536155224609374  L 10.017636669921876 27.760141113281243  C 10.299823632812501 27.354497363281244  11.005290966796876 27.266313964843746  11.410934765624999 27.566137548828117  L 20.84656083984375 34.920634912109364  Z " fill-rule="nonzero" fill="#ffffff" stroke="none" transform="matrix(1 0 0 1 1054 338 )" />
  </g>
</svg>