<?xml version="1.0" encoding="utf-8"?>
<svg version="1.1" xmlns:xlink="http://www.w3.org/1999/xlink" width="16px" height="16px" xmlns="http://www.w3.org/2000/svg">
  <g transform="matrix(1 0 0 1 -832 -355 )">
    <path d="M 15.933349609375 8.240877016129033  C 15.933349609375 11.750554435483867  13.766650390625 14.864516129032257  10.55 15.982812499999998  L 10.283349609375001 15.174193548387096  C 13.149999999999999 14.159122983870967  15.083349609374999 11.389264112903227  15.083349609374999 8.240877016129033  C 15.083349609374999 4.215070564516128  11.900000000000002 0.9290322580645146  8 0.9290322580645146  C 4.099999999999998 0.9290322580645146  0.9166503906250014 4.215070564516128  0.9166503906250014 8.240877016129033  C 0.9166503906250014 11.354838709677416  2.833349609375002 14.124747983870968  5.683349609375 15.157006048387096  L 5.416650390624998 15.965574596774193  C 2.2332323032206958 14.821940405724494  0.09981966523998409 11.723730662384172  0.09981966523998409 8.24430377282775  C 0.09981966523998409 3.7303829973951386  3.6437899938618763 0.07061782513821321  8.016650390625 0.06880040322580645  C 12.383349609375 0.06880040322580645  15.933349609375 3.733316532258065  15.933349609375 8.240877016129033  Z " fill-rule="nonzero" fill="#ffffff" stroke="none" transform="matrix(1 0 0 1 832 355 )" />
  </g>
</svg>