<?xml version="1.0" encoding="utf-8"?>
<svg version="1.1" xmlns:xlink="http://www.w3.org/1999/xlink" width="50px" height="50px" xmlns="http://www.w3.org/2000/svg">
  <g transform="matrix(1 0 0 1 -263 -171 )">
    <path d="M 49.76703689759036 25.011765813253017  C 49.76703689759036 11.281061746987957  38.636577560240966 0.15060240963855423  24.905873493975903 0.15060240963855423  C 11.175169427710843 0.15060240963855423  0.044710090361445784 11.281061746987952  0.044710090361445784 25.011765813253017  C 0.044710090361445784 38.74246987951808  11.175169427710843 49.87292921686747  24.905873493975903 49.87292921686747  C 38.636577560240966 49.87292921686747  49.76703689759036 38.74246987951807  49.76703689759036 25.011765813253017  Z M 24 30.888789533132528  L 24 11.4281344126506  C 23.170416039156628 10.469220632530115  23.946959713855424 9.686794051204817  24.911756400602407 9.686794051204817  C 25.87067018072289 9.686794051204817  26.653096762048197 10.463337725903612  26 11.4281344126506  L 26 30.888789533132528  C 26.653096762048197 31.847703313253  25.876553087349397 32.63012989457831  24.911756400602407 32.63012989457831  C 23.952842620481928 32.63012989457831  23.170416039156628 31.85358621987951  24 30.888789533132528  Z M 26.647213855421686 38.595397213855414  C 26.647213855421686 39.5601939006024  25.87067018072289 40.33673757530121  24.905873493975903 40.33673757530121  C 23.946959713855424 40.33673757530121  23.164533132530117 39.5601939006024  23.164533132530117 38.595397213855414  C 23.164533132530117 37.630600527108435  23.94107680722891 36.85405685240963  24.905873493975903 36.85405685240963  C 25.87067018072289 36.85405685240963  26.647213855421686 37.630600527108435  26.647213855421686 38.595397213855414  Z " fill-rule="nonzero" fill="#000000" stroke="none" fill-opacity="0.996078431372549" transform="matrix(1 0 0 1 263 171 )" />
  </g>
</svg>