<?xml version="1.0" encoding="utf-8"?>
<svg version="1.1" xmlns:xlink="http://www.w3.org/1999/xlink" width="20px" height="20px" xmlns="http://www.w3.org/2000/svg">
  <g transform="matrix(1 0 0 1 -437 -137 )">
    <path d="M 20 2.085267857142857  C 19.927232142857143 0.9379464285714281  18.996428571428567 0.007142857142857143  17.849107142857143 0  L 2.103571428571429 0  C 0.9540178571428576 0.007142857142857143  0.02321428571428592 0.9379464285714285  0 2.0875  L 0 17.83080357142857  C 0.02321428571428592 18.980357142857144  0.9540178571428576 19.911160714285714  2.103571428571429 20  L 17.846874999999997 20  C 18.996428571428567 19.911160714285714  19.927232142857143 18.980357142857144  20 17.83080357142857  L 20 2.085267857142857  Z M 11.795535714285714 3.9022321428571427  C 11.79330357142857 2.0227678571428576  13.317857142857143 0.5004464285714285  15.197321428571428 0.5004464285714285  C 17.076785714285712 0.5004464285714285  18.599107142857143 2.0227678571428576  18.599107142857143 3.9022321428571427  C 18.599107142857143 6.210267857142857  16.641517857142855 7.739285714285714  15.349107142857143 9.40669642857143  C 15.315624999999999 9.451339285714285  15.282142857142858 9.49375  15.248660714285712 9.538392857142856  C 15.33348214285714 9.42232142857143  14.639285714285714 8.772767857142856  14.55223214285714 8.679017857142856  C 13.313392857142857 7.341964285714285  11.795535714285714 5.859821428571429  11.795535714285714 3.9022321428571427  Z M 19.154910714285712 9.087499999999999  C 19.340178571428567 9.263839285714287  19.349107142857143 9.556249999999999  19.172767857142855 9.741517857142858  L 14.650446428571428 14.538392857142856  L 17.909375 17.732589285714287  C 18.092410714285712 17.911160714285714  18.09464285714286 18.20357142857143  17.916071428571428 18.386607142857144  C 17.824553571428567 18.478125000000002  17.706249999999997 18.525  17.585714285714285 18.525  C 17.46964285714286 18.525  17.351339285714285 18.48035714285714  17.26205357142857 18.39330357142857  L 10.527678571428574 11.792857142857143  L 4.855803571428573 17.80625  C 4.764285714285714 17.90223214285714  4.6415178571428575 17.951339285714283  4.518750000000001 17.951339285714283  C 4.404910714285713 17.951339285714283  4.291071428571429 17.90892857142857  4.201785714285714 17.826339285714287  C 4.0165178571428575 17.652232142857144  4.007589285714286 17.35982142857143  4.181696428571429 17.17232142857143  L 9.866964285714285 11.145535714285714  L 7.05 8.384374999999999  L 2.6794642857142863 13.018303571428572  C 2.5879464285714295 13.114285714285714  2.4651785714285723 13.163392857142856  2.342410714285715 13.163392857142856  C 2.2285714285714295 13.163392857142856  2.1147321428571435 13.120982142857143  2.0254464285714295 13.038392857142858  C 1.8401785714285723 12.864285714285714  1.8312500000000012 12.571874999999999  2.005357142857144 12.384375  L 6.387053571428573 7.7370535714285715  L 2.0433035714285728 3.480357142857144  C 1.8602678571428584 3.3017857142857148  1.8580357142857151 3.009375000000001  2.0366071428571435 2.8263392857142855  C 2.215178571428572 2.6433035714285715  2.5075892857142867 2.6410714285714287  2.6906250000000007 2.819642857142857  L 10.503125 10.473660714285716  L 11.909375 8.982589285714285  C 12.083482142857143 8.797321428571427  12.375892857142857 8.788392857142856  12.563392857142857 8.9625  C 12.748660714285712 9.136607142857143  12.757589285714285 9.429017857142858  12.583482142857141 9.616517857142856  L 11.166071428571428 11.118749999999999  L 13.989732142857143 13.89107142857143  L 18.50089285714286 9.107589285714287  C 18.675 8.922321428571427  18.967410714285716 8.913392857142856  19.154910714285712 9.087499999999999  Z " fill-rule="nonzero" fill="#7f7f7f" stroke="none" transform="matrix(1 0 0 1 437 137 )" />
  </g>
</svg>