<?xml version="1.0" encoding="utf-8"?>
<svg version="1.1" xmlns:xlink="http://www.w3.org/1999/xlink" width="23px" height="13px" xmlns="http://www.w3.org/2000/svg">
  <g transform="matrix(1 0 0 1 -389 -514 )">
    <path d="M 2.5327173095703124 10.723486474609377  L 15.608402001953129 10.723486474609377  L 15.608402001953124 3  L 2.5327173095703124 3  L 2.5327173095703124 10.723486474609377  Z M 21.421235913085937 4.758805541992187  L 21.421235913085937 2.7704536376953133  C 21.421235913085937 1.6769200439453138  20.526467578125 0.7822266601562511  19.433008935546876 1  L 2.532717333984375 1  C 1.4391837402343755 0.7822266601562511  0.544490356445313 1.676920068359376  0.544490356445313 2.7704536376953133  L 0.54449033203125 10.723486474609377  C 0.54449033203125 11.817020068359376  1.439183740234375 12.71183837890625  2.5327173095703124 12.71183837890625  L 19.433008911132813 12.71183837890625  C 20.526467553710937 12.71183837890625  21.421235888671877 11.817045043945313  21.421235888671877 10.723486474609377  L 21.421235888671877 8.735259497070313  C 21.96801516113281 8.735259497070313  22.415361865234374 8.28793779296875  22.415361865234374 7.741133520507814  L 22.415361865234374 5.752931518554689  C 22.415361889648437 5.206152221679687  21.968015185546875 4.758805541992187  21.421235913085937 4.758805541992187  Z M 20.427134912109373 5.752931518554687  L 20.427134912109373 7.741133520507812  L 20.427134912109373 10.723486474609377  C 20.427134912109373 11.270240771484374  19.979788208007815 11.717587475585937  19.433008935546876 11.717587475585937  L 2.532717333984375 11.717587475585937  C 1.9859380615234379 11.717587475585937  1.538591357421875 11.270240771484378  1.538591357421875 10.723486474609377  L 1.5385913330078123 2.7704536376953115  C 1.5385913330078123 2.223674365234375  1.985938037109375 1.7763276611328118  2.5327173095703124 2  L 19.433008911132813 2  C 19.97978818359375 1.7763276611328118  20.427134887695313 2.223674365234375  20.427134887695313 2.7704536376953115  L 20.427134912109373 5.752931518554687  Z " fill-rule="nonzero" fill="#272636" stroke="none" transform="matrix(1 0 0 1 389 514 )" />
  </g>
</svg>