<?xml version="1.0" encoding="utf-8"?>
<svg version="1.1" xmlns:xlink="http://www.w3.org/1999/xlink" width="14px" height="14px" xmlns="http://www.w3.org/2000/svg">
  <g transform="matrix(1 0 0 1 -192 -577 )">
    <path d="M 13.949962926136365 6.997408573774858  C 13.949962926136365 10.837089368785511  10.837407333096591 13.949644961825284  6.997599358575994 13.949644961825284  C 3.1579185635653406 13.949644961825284  0.04474293545809648 10.837089368785511  0.04474293545809648 6.997408573774858  C 0.04474293545809648 3.1576164928089487  3.1579185635653406 0.045060899769175974  6.997599358575994 0.045060899769175974  C 10.837407333096591 0.045060899769175974  13.949962926136365 3.1576164928089487  13.949962926136365 6.997408573774858  Z M 13.080738625266335 6.997392680220171  C 13.080738625266335 3.6375865411931816  10.357437300248579 0.9136492720170455  6.997599358575994 0.9136492720170455  C 3.6378886119495744 0.9136492720170455  0.9139672363281247 3.6375706321022734  0.9139672363281247 6.9973926802201705  C 0.9139672363281247 10.357103426846592  3.637888596413352 13.081024802468042  6.997599358575994 13.081024802468042  C 10.357437300248579 13.081024802468042  13.080738625266335 10.357087533291905  13.080738625266335 6.997392680220171  Z M 10.908472776100853 7.2148179842862215  C 10.908472776100853 7.694788017134232  10.519075435014205 8.083549445134944  10.039232581676137 8.083549445134944  C 9.559262548828126 8.083549445134944  9.169881085759945 7.694788032670455  9.169881085759945 7.2148179842862215  C 9.169881085759945 6.734975130948154  9.559262533291905 6.345593683416193  10.039232581676137 6.345593683416193  C 10.519091328568893 6.345593683416193  10.908472776100853 6.734975130948154  10.908472776100853 7.2148179842862215  Z M 7.866330819424717 7.2148179842862215  C 7.866330803888494 7.694788017134232  7.477585284978694 8.083549445134944  6.997599358575994 8.083549445134944  C 6.517740611683238 8.083549445134944  6.1283750577059655 7.694788032670455  6.1283750577059655 7.2148179842862215  C 6.1283750577059655 6.734975130948154  6.5177565052379265 6.345593683416193  6.997599358575994 6.345593683416193  C 7.477569391424006 6.345593683416193  7.866330819424717 6.734975130948154  7.866330819424717 7.2148179842862215  Z M 5.042218277254971 7.2148179842862215  C 5.042234186345881 7.694788017134232  4.652852723277699 8.083549445134944  4.172993976384943 8.083549445134944  C 3.6930080499822444 8.083549445134944  3.3036424804687496 7.694788032670455  3.3036424804687496 7.2148179842862215  C 3.3036424804687496 6.734975130948154  3.6930239280007093 6.345593683416193  4.172993976384943 6.345593683416193  C 4.652852723277699 6.345593683416193  5.042218277254971 6.734975130948154  5.042218277254971 7.2148179842862215  Z " fill-rule="nonzero" fill="#000000" stroke="none" transform="matrix(1 0 0 1 192 577 )" />
  </g>
</svg>