<?xml version="1.0" encoding="utf-8"?>
<svg version="1.1" xmlns:xlink="http://www.w3.org/1999/xlink" width="14px" height="14px" xmlns="http://www.w3.org/2000/svg">
  <g transform="matrix(1 0 0 1 -192 -446 )">
    <path d="M 13.989192328125 6.986960845703124  C 13.989178341796876 10.845698623046873  10.859877998046874 13.9737817734375  7.000146904296876 13.9737817734375  C 3.140094015625001 13.9737817734375  0.010807671875000757 10.845670636718749  0.010807671875000757 6.98696083203125  C 0.010807671875 3.12811113671875  3.140094015625 0  7.000146904296876 0  C 10.859891998046875 0  13.989192328125 3.12811113671875  13.989192328125 6.986960845703124  Z M 12.6787148359375 6.986974845703127  C 12.6787008359375 3.851532658203125  10.1363025859375 1.31012773828125  7.000146904296876 1.31012773828125  C 3.8640191953125003 1.31012773828125  1.3212432050781255 3.8515186718749996  1.3212432050781255 6.98697483203125  C 1.3212432050781255 8.45297088671875  1.8820809628906257 9.78499377734375  2.7951019277343754 10.7923947578125  C 3.617338457031251 10.394644435546875  3.31549309765625 10.725618039062502  4.391601498046875 10.282776273437502  C 5.492724931640624 9.830379001953126  5.753466154296875 9.672468066406251  5.753466154296875 9.672468066406251  L 5.764084949218749 8.629377285156252  C 5.764084949218749 8.629377285156252  5.351616607421875 8.31642347265625  5.223449505859376 7.334876951171877  C 4.965114656250001 7.409068652343753  4.880164255859376 7.0342487714843775  4.8647327148437505 6.795808441406252  C 4.851035998046876 6.565258751953127  4.715341996093749 5.845782564453128  5.03024049609375 5.910698541015627  C 4.96578619140625 5.430208314453126  4.91957552734375 4.996810164062502  4.942505982421876 4.767267791015627  C 5.021300566406251 3.9614701191406265  5.803468248046875 3.1195489472656264  7.008401298828126 3.0580466464843776  C 8.425696371093752 3.119381056640627  8.987233650390623 3.9607845839843776  9.066028234374999 4.766596255859376  C 9.089000662109376 4.996292519531251  9.038299033203126 5.429844574218752  8.973886701171875 5.909495375000002  C 9.28868726953125 5.8454188242187515  9.1520139375 6.563845722656253  9.1365963828125 6.794423398437502  C 9.122535912109376 7.032863742187502  9.035500919921878 7.406326525390626  8.77827133203125 7.332302714843752  C 8.649460667968752 8.313821250000002  8.236950353515626 8.624270757812502  8.236950353515626 8.624270757812502  L 8.246869626953124 9.662296970703128  C 8.246869626953124 9.662296970703128  8.507596849609374 9.809798960937504  9.608720296875 10.262392109375005  C 10.6848147109375 10.705191888671878  10.38261959765625 10.393777037109379  11.20526183984375 10.792394771484378  C 12.117891078125 9.784965804687502  12.6787148359375 8.453110804687503  12.6787148359375 6.986974845703127  Z " fill-rule="nonzero" fill="#666666" stroke="none" transform="matrix(1 0 0 1 192 446 )" />
  </g>
</svg>