<?xml version="1.0" encoding="utf-8"?>
<svg version="1.1" xmlns:xlink="http://www.w3.org/1999/xlink" width="12px" height="14px" xmlns="http://www.w3.org/2000/svg">
  <g transform="matrix(1 0 0 1 -192 -312 )">
    <path d="M 11.985629629629628 9.919397727272727  C 11.844962962962962 10.372647727272728  11.193037037037033 10.293102272727273  11.267111111111111 10.993181818181817  C 11.341185185185184 11.534090909090908  11.770888888888887 11.454545454545455  11.844962962962962 11.693181818181818  C 11.844962962962962 11.844238636363636  11.770888888888887 12.39318181818182  11.556074074074074 12.46477272727273  C 11.341259259259258 12.46477272727273  11.052370370370369 12.385227272727274  10.837555555555557 12.46477272727273  C 10.696888888888887 12.544318181818182  10.54874074074074 12.61590909090909  10.474666666666666 12.775  C 10.333925925925927 13.164693181818182  10.615333333333332 13.474920454545455  10.474666666666666 13.626056818181816  C 10.259851851851852 13.77719318181818  9.822740740740741 14.015829545454544  9.682074074074073 13.856738636363636  C 9.467259259259258 13.626056818181816  9.467259259259258 13.31575  9.030222222222221 13.31575  C 8.452370370370371 13.31575  8.452370370370371 13.936284090909089  8.163555555555556 13.936284090909089  C 7.874666666666666 13.936284090909089  7.370962962962962 13.70560227272727  7.370962962962962 13.47484090909091  C 7.445037037037037 13.164693181818182  7.585777777777777 12.934011363636364  7.296888888888889 12.623784090909092  C 6.9339259259259265 12.31355681818182  6.504296296296296 12.623784090909092  6.356148148148147 12.472647727272728  C 6.141407407407405 12.321511363636366  6.067333333333332 11.931738636363637  6.141407407407405 11.701136363636365  C 6.215481481481479 11.470454545454547  6.719185185185184 11.470454545454547  6.719185185185184 10.849920454545455  C 6.719185185185184 10.388636363636365  6.215481481481479 10.30909090909091  6.141407407407405 9.998863636363637  C 6.067333333333332 9.768181818181821  6.215481481481479 9.378329545454548  6.430222222222222 9.298784090909093  C 6.793185185185184 9.147727272727275  7.008000000000001 9.449920454545458  7.370962962962962 9.147727272727275  C 7.585777777777777 8.917125  7.511703703703703 8.376136363636366  7.511703703703703 8.217045454545456  C 7.585777777777777 7.986363636363639  7.874592592592592 7.906818181818184  8.089481481481481 7.906818181818184  C 8.51911111111111 7.906818181818184  8.378296296296297 8.447806818181819  8.956148148148147 8.527352272727274  C 9.533925925925924 8.527352272727274  9.459851851851852 8.296670454545456  9.748666666666665 7.906818181818184  C 10.111629629629627 7.906818181818184  10.40059259259259 8.057954545454546  10.467185185185185 8.217045454545456  C 10.607925925925922 8.52727272727273  10.326518518518515 8.988636363636365  10.756074074074071 9.298863636363636  C 11.11896296296296 9.529545454545456  11.47459259259259 9.219318181818185  11.696814814814815 9.298863636363636  C 11.837481481481479 9.378409090909091  11.911555555555555 9.60909090909091  11.985629629629628 9.919397727272727  Z M 9.244962962962962 12.313636363636363  C 10.911629629629632 11.923784090909091  10.689407407407408 9.052272727272728  8.667185185185183 9.442045454545454  C 6.93385185185185 9.903409090909092  7.585703703703703 12.61590909090909  9.244962962962962 12.313636363636363  Z M 8.815259259259257 3.3966704545454545  C 8.815333333333333 5.178488636363636  7.444962962962962 6.7296249999999995  5.711629629629629 6.7296249999999995  C 3.9782962962962958 6.7296249999999995  2.607925925925924 5.258034090909091  2.607925925925924 3.3966704545454545  C 2.607925925925924 1.5353068181818184  3.9782962962962958 0.06371590909090924  5.711629629629629 0.06371590909090924  C 7.444888888888887 0.06371590909090924  8.815259259259257 1.5353068181818184  8.815259259259257 3.3966704545454545  Z M 4.415333333333332 7.349999999999999  L 8.237555555555556 7.5011363636363635  C 8.237555555555556 7.5011363636363635  7.081925925925924 7.5011363636363635  7.155999999999998 8.352272727272727  C 7.230074074074073 9.282954545454544  6.074518518518519 8.582875  5.859777777777777 9.362499999999999  C 5.570888888888888 10.293102272727271  6.000444444444445 10.134011363636361  6.222666666666667 10.754545454545454  C 6.363407407407408 11.144318181818182  5.6448888888888895 11.375  5.718962962962962 12.075  C 5.859703703703703 13.005681818181818  6.585629629629629 12.53644318181818  6.800444444444443 13.085227272727273  C 6.941185185185183 13.546590909090908  6.437555555555553 13.85681818181818  5.281925925925925 13.85681818181818  C 4.3412592592592585 13.85681818181818  2.541185185185184 13.85681818181818  1.8893333333333322 13.777272727272726  C 1.8893333333333322 13.777272727272726  0.015259259259258171 13.697727272727272  0.015259259259258171 12.385227272727272  C 0.015259259259258171 12.385227272727272  -0.058814814814816166 10.444318181818181  1.0967407407407395 9.052272727272726  C 1.0967407407407395 9.052272727272726  2.326370370370369 7.349999999999999  4.415333333333332 7.349999999999999  Z " fill-rule="nonzero" fill="#555555" stroke="none" transform="matrix(1 0 0 1 192 312 )" />
  </g>
</svg>