<?xml version="1.0" encoding="utf-8"?>
<svg version="1.1" xmlns:xlink="http://www.w3.org/1999/xlink" width="15px" height="15px" xmlns="http://www.w3.org/2000/svg">
  <g transform="matrix(1 0 0 1 -106 -518 )">
    <path d="M 113.5 518  C 117.7 518  121 521.3  121 525.5  C 121 529.7  117.7 533  113.5 533  C 109.3 533  106 529.7  106 525.5  C 106 521.3  109.3 518  113.5 518  Z " fill-rule="nonzero" fill="#ffffff" stroke="none" />
    <path d="M 113.5 518.5  C 117.42 518.5  120.5 521.58  120.5 525.5  C 120.5 529.42  117.42 532.5  113.5 532.5  C 109.58 532.5  106.5 529.42  106.5 525.5  C 106.5 521.58  109.58 518.5  113.5 518.5  Z " stroke-width="1" stroke="#f59a23" fill="none" />
  </g>
</svg>