<?xml version="1.0" encoding="utf-8"?>
<svg version="1.1" xmlns:xlink="http://www.w3.org/1999/xlink" width="7px" height="6px" xmlns="http://www.w3.org/2000/svg">
  <g transform="matrix(1 0 0 1 -1283 -572 )">
    <path d="M 4.32421875 5.558593750000001  C 4.19482421875 5.680664062500001  4.028808593749999 5.741699218750001  3.8603515624999996 5.741699218750001  C 3.68212890625 5.741699218750001  3.503906249999999 5.670898437500001  3.3720703125 5.534179687500001  L 1.4384765625 3.507812500000001  C 0.759765625 2.794921875000001  0.7866210937500004 1.6645507812500004  1.4970703125 0.9858398437500004  C 1.8413085937499998 0.6562500000000004  2.31005859375 0.48291015625000044  2.76904296875 0.49267578125000044  C 3.2451171875 0.5024414062500009  3.6894531249999996 0.7001953125000004  4.01904296875 1.0444335937500004  L 6.7021484375 3.85205078125  C 6.95849609375 4.12060546875  6.94873046875 4.547851562500001  6.68017578125 4.806640625  C 6.41162109375 5.06298828125  5.984375 5.053222656250001  5.7255859375 4.784667968750001  L 3.042480468749999 1.9770507812500009  C 2.961914062499999 1.8916015625000009  2.8544921875 1.8452148437500009  2.737304687499999 1.8427734375000009  C 2.600585937499999 1.8378906250000009  2.510253906249999 1.8818359375000009  2.42724609375 1.9624023437500009  C 2.25390625 2.128417968750001  2.246582031249999 2.404296875000001  2.41259765625 2.577636718750001  L 4.346191406249999 4.60400390625  C 4.602539062499999 4.87255859375  4.5927734375 5.2998046875  4.32421875 5.558593750000001  Z " fill-rule="nonzero" fill="#ec808d" stroke="none" transform="matrix(1 0 0 1 1283 572 )" />
  </g>
</svg>