<?xml version="1.0" encoding="utf-8"?>
<svg version="1.1" xmlns:xlink="http://www.w3.org/1999/xlink" width="8px" height="7px" xmlns="http://www.w3.org/2000/svg">
  <g transform="matrix(1 0 0 1 -1286 -575 )">
    <path d="M 4.478515625 5.859375  C 4.3515625 5.98388671875  4.18310546875 6.044921875  4.0146484375 6.044921875  C 3.83642578125 6.044921875  3.658203125 5.97412109375  3.5263671875 5.834960937499998  L 0.3720703125 2.534179687500001  C 0.11572265625 2.265625000000001  0.12548828125 1.8383789062500009  0.3940429687499991 1.5820312500000009  C 0.6625976562499991 1.3256835937500009  1.0898437499999991 1.3330078125000009  1.3461914062499991 1.60400390625  L 4.50048828125 4.9072265625  C 4.7568359375 5.17578125  4.7470703125 5.60302734375  4.478515625 5.859375  Z M 7.18603515625 5.478515625  C 7.05908203125 5.60546875  6.890625 5.66650390625  6.72216796875 5.66650390625  C 6.543945312500002 5.66650390625  6.36572265625 5.595703125  6.23388671875 5.456542968749998  L 2.7255859375 1.7822265625  C 2.46923828125 1.513671875  2.4790039062499982 1.08642578125  2.7475585937499982 0.830078125  C 3.0161132812499982 0.57373046875  3.4433593749999982 0.5810546875000009  3.6997070312499982 0.85205078125  L 7.2080078125 4.5263671875  C 7.46435546875 4.794921875  7.45458984375 5.22216796875  7.18603515625 5.478515625  Z " fill-rule="nonzero" fill="#ec808d" stroke="none" transform="matrix(1 0 0 1 1286 575 )" />
  </g>
</svg>