<?xml version="1.0" encoding="utf-8"?>
<svg version="1.1" xmlns:xlink="http://www.w3.org/1999/xlink" width="9px" height="11px" xmlns="http://www.w3.org/2000/svg">
  <g transform="matrix(1 0 0 1 -1292 -579 )">
    <path d="M 8.239257812500004 10.467773437499996  C 7.90478515625 10.787597656249996  7.4677734375000036 10.963378906249996  7.00634765625 10.96337890625  C 6.52294921875 10.96337890625  6.0517578125 10.76318359375  5.71728515625 10.41162109375  L 1.1982421875 5.677734375000002  C 0.94189453125 5.409179687500002  0.95166015625 4.981933593750002  1.22021484375 4.725585937500002  C 1.48876953125 4.469238281250002  1.916015625 4.4765625  2.17236328125 4.74755859375  L 6.69140625 9.479003906250004  C 6.8525390625 9.6474609375  7.13818359375 9.654785156250004  7.306640625 9.493652343750004  C 7.4799804687500036 9.327636718750004  7.4873046875 9.051757812500004  7.3212890625000036 8.87841796875  L 0.23388671875 1.458984375  C -0.0224609375 1.1904296875  -0.0126953125 0.76318359375  0.255859375 0.5043945312499982  C 0.5244140625 0.24804687499999822  0.95166015625 0.25537109375  1.21044921875 0.5263671874999982  L 8.297851562500004 7.945800781249997  C 8.9765625 8.65869140625  8.9521484375 9.789062499999996  8.239257812500004 10.467773437499996  Z " fill-rule="nonzero" fill="#ec808d" stroke="none" transform="matrix(1 0 0 1 1292 579 )" />
  </g>
</svg>