<?xml version="1.0" encoding="utf-8"?>
<svg version="1.1" xmlns:xlink="http://www.w3.org/1999/xlink" width="25px" height="18px" xmlns="http://www.w3.org/2000/svg">
  <g transform="matrix(1 0 0 1 -1280 -575 )">
    <path d="M 5.8056640625 8.793945312499996  C 5.673828124999999 8.950195312499996  5.48583984375 9.028320312499998  5.29541015625 9.0283203125  C 5.13916015625 9.0283203125  4.98291015625 8.974609375  4.85595703125 8.86474609375  C 4.57275390625 8.62060546875  4.541015625 8.19580078125  4.78515625 7.91259765625  L 4.873046875 7.812499999999998  C 5.11962890625 7.5341796875  5.546875 7.509765625  5.8251953125 7.758789062499998  C 6.103515625 8.007812499999998  6.1279296875 8.432617187499998  5.87890625 8.710937499999998  L 5.8056640625 8.793945312499996  Z M 9.194335937500002 11.376953125  C 9.057617187500002 11.53564453125  8.869628906250002 11.61376953125  8.681640625 11.61376953125  C 8.525390625000002 11.61376953125  8.366699218750002 11.56005859375  8.23974609375 11.44775390625  C 7.958984375 11.20361328125  7.9296875 10.778808593750002  8.173828125 10.495605468750004  C 9.3115234375 9.18701171875  10.95703125 8.435058593750002  12.687988281250002 8.435058593750002  C 13.04931640625 8.435058593750002  13.41796875 8.471679687500002  13.813476562500002 8.547363281250002  C 14.179687500000002 8.618164062500002  14.4189453125 8.969726562500002  14.348144531250002 9.335937500000002  C 14.277343750000002 9.702148437500002  13.92822265625 9.94140625  13.559570312500002 9.87060546875  C 13.249511718750002 9.812011718750002  12.963867187500004 9.78271484375  12.690429687500002 9.78271484375  C 11.347656250000002 9.78271484375  10.073242187500002 10.363769531249998  9.194335937500002 11.376953125  Z M 24.2626953125 6.738281249999998  C 24.13818359375 6.848144531249998  23.984375 6.901855468749998  23.828125 6.90185546875  C 23.6376953125 6.90185546875  23.447265625 6.8212890625  23.31298828125 6.6650390625  C 20.595703125 3.46923828125  16.6357421875 1.6357421875  12.446289062499998 1.6357421875  C 11.416015625 1.6357421875  10.37841796875 1.75048828125  9.357910156249998 1.97509765625  C 8.994140625 2.058105468749999  8.635253906249998 1.8261718749999991  8.5546875 1.46240234375  C 8.47412109375 1.0986328125  8.70361328125 0.73974609375  9.0673828125 0.6591796875  C 10.18310546875 0.41259765625  11.318359375 0.2856445312499991  12.446289062499998 0.2856445312499991  C 17.03369140625 0.2856445312499991  21.36962890625 2.29248046875  24.3408203125 5.78857421875  C 24.58251953125 6.07177734375  24.54833984375 6.4990234375  24.2626953125 6.738281249999998  Z M 1.6796874999999996 6.5478515625  C 1.5478515624999996 6.70166015625  1.3598632812499996 6.77978515625  1.171875 6.77978515625  C 1.015625 6.77978515625  0.85693359375 6.72607421875  0.72998046875 6.61376953125  C 0.44921874999999994 6.36962890625  0.419921875 5.94482421875  0.6640625 5.66162109375  C 2.255859375 3.83056640625  4.3115234375 2.370605468749999  6.60888671875 1.4404296874999991  C 6.955566406249999 1.3012695312499991  7.346191406249999 1.4672851562499991  7.48779296875 1.8139648437499991  C 7.626953124999999 2.158203125  7.460937499999999 2.553710937499999  7.114257812499999 2.692871093749999  C 5.01220703125 3.54248046875  3.1323242187499996 4.87548828125  1.6796874999999996 6.5478515625  Z M 15.0244140625 15.400390625  C 15.02685546875 16.5625  14.079589843749998 17.50732421875  12.91748046875 17.50732421875  C 11.75537109375 17.50732421875  10.810546875 16.5625  10.810546875 15.400390625  C 10.810546875 14.23828125  11.75537109375 13.29345703125  12.91748046875 13.29345703125  C 14.079589843750002 13.29345703125  15.0244140625 14.238281250000004  15.0244140625 15.400390625  Z M 13.676757812500002 15.400390625  C 13.676757812500002 14.98291015625  13.337402343750002 14.64111328125  12.91748046875 14.64111328125  C 12.5 14.64111328125  12.158203125 14.98046875  12.158203125 15.400390625  C 12.158203125 15.81787109375  12.49755859375 16.15966796875  12.91748046875 16.15966796875  C 13.334960937500002 16.15966796875  13.676757812500002 15.8203125  13.676757812500002 15.400390625  Z " fill-rule="nonzero" fill="#ec808d" stroke="none" transform="matrix(1 0 0 1 1280 575 )" />
  </g>
</svg>