<?xml version="1.0" encoding="utf-8"?>
<svg version="1.1" xmlns:xlink="http://www.w3.org/1999/xlink" width="17px" height="6px" xmlns="http://www.w3.org/2000/svg">
  <g transform="matrix(1 0 0 1 -1284 -579 )">
    <path d="M 16.5517578125 4.945312499999998  C 16.42724609375 5.055175781249998  16.27099609375 5.10888671875  16.1171875 5.10888671875  C 15.9267578125 5.10888671875  15.736328125 5.0283203125  15.60205078125 4.872070312499998  C 13.88330078125 2.8481445312499982  11.375976562499998 1.6811523437499982  8.7197265625 1.6665039062499982  C 8.34619140625 1.6640624999999982  8.0458984375 1.3613281249999982  8.04833984375 0.9877929687499982  C 8.05078125 0.6166992187499982  8.35107421875 0.3164062499999982  8.72216796875 0.3164062499999982  L 8.724609375000002 0.3164062499999982  C 11.77392578125 0.3310546874999982  14.65478515625 1.6738281249999982  16.6298828125 3.9956054687499982  C 16.87158203125 4.27880859375  16.83740234375 4.7060546875  16.5517578125 4.945312499999998  Z M 1.8764648437499991 4.70849609375  C 1.7470703124999991 4.859863281250002  1.5615234374999991 4.935546874999998  1.3759765625 4.935546874999998  C 1.21728515625 4.935546874999998  1.05615234375 4.87939453125  0.9267578125 4.764648437499998  C 0.6484374999999991 4.515624999999998  0.6240234374999991 4.090820312499998  0.8706054687499991 3.8124999999999982  C 2.186523437499999 2.3354492187499982  3.900390624999999 1.2661132812499982  5.8291015625 0.71923828125  C 6.187988281249998 0.62158203125  6.5615234375 0.8266601562499982  6.66162109375 1.185546875  C 6.76416015625 1.54443359375  6.55419921875 1.91552734375  6.1953125 2.01806640625  C 4.513183593749998 2.494140625  3.01904296875 3.42431640625  1.8764648437499991 4.70849609375  Z " fill-rule="nonzero" fill="#ec808d" stroke="none" transform="matrix(1 0 0 1 1284 579 )" />
  </g>
</svg>