<?xml version="1.0" encoding="utf-8"?>
<svg version="1.1" xmlns:xlink="http://www.w3.org/1999/xlink" width="20px" height="20px" xmlns="http://www.w3.org/2000/svg">
  <g transform="matrix(1 0 0 1 -439 -182 )">
    <path d="M 19.873268482349534 19.34931394675926  L 10.525443070023147 9.998511501736111  L 19.8762455150463 0.6506860532407411  C 20.022119212962963 0.5048123553240742  20.022119212962963 0.26962818287037194  19.8762455150463 0.12375448495370497  C 19.730371817129633 -0.022119212962962032  19.495187644675926 -0.022119212962962032  19.34931394675926 0.12375448495370497  L 10.00148849826389 9.474556929976854  L 0.6506860532407411 0.12375448495370497  C 0.5048123553240742 -0.022119212962962032  0.26962818287037194 -0.022119212962962032  0.12375448495370497 0.12375448495370497  C -0.022119212962962032 0.26962818287037194  -0.022119212962962032 0.5048123553240742  0.12375448495370497 0.6506860532407411  L 9.474556929976854 9.998511501736111  L 0.12375448495370497 19.34931394675926  C -0.022119212962962032 19.495187644675923  -0.022119212962962032 19.730371817129626  0.12375448495370497 19.8762455150463  C 0.19520283564814872 19.947693865740742  0.29046730324074166 19.986395037615743  0.38573177083333465 19.986395037615743  C 0.4809962384259263 19.986395037615743  0.5762607060185192 19.950670862268524  0.6477090205439824 19.8762455150463  L 9.998511501736111 10.525443070023147  L 19.34931394675926 19.8762455150463  C 19.420762297453706 19.947693865740742  19.516026765046295 19.986395037615743  19.611291232638887 19.986395037615743  C 19.70655570023148 19.986395037615743  19.801820167824076 19.950670862268524  19.873268482349534 19.8762455150463  C 20.019142180266204 19.730371817129633  20.019142180266204 19.495187644675926  19.873268482349534 19.34931394675926  Z " fill-rule="nonzero" fill="#000000" stroke="none" transform="matrix(1 0 0 1 439 182 )" />
  </g>
</svg>