<?xml version="1.0" encoding="utf-8"?>
<svg version="1.1" xmlns:xlink="http://www.w3.org/1999/xlink" width="50px" height="50px" xmlns="http://www.w3.org/2000/svg">
  <g transform="matrix(1 0 0 1 -266 -511 )">
    <path d="M 291 512  C 304.44 512  315 522.56  315 536  C 315 549.44  304.44 560  291 560  C 277.56 560  267 549.44  267 536  C 267 522.56  277.56 512  291 512  Z " fill-rule="nonzero" fill="#ffffff" stroke="none" fill-opacity="0" />
    <path d="M 291 512  C 304.44 512  315 522.56  315 536  C 315 549.44  304.44 560  291 560  C 277.56 560  267 549.44  267 536  C 267 522.56  277.56 512  291 512  Z " stroke-width="2" stroke="#ffffff" fill="none" />
  </g>
</svg>