<?xml version="1.0" encoding="utf-8"?>
<svg version="1.1" xmlns:xlink="http://www.w3.org/1999/xlink" width="35px" height="35px" xmlns="http://www.w3.org/2000/svg">
  <g transform="matrix(1 0 0 1 -289 -1020 )">
    <path d="M 34.020803440531786 33.98168817903242  C 33.591155698721124 34.53106992189742  32.94509547798325 34.85134546517765  32.26168558210565 34.85374686600427  L 3.8763465864175326 34.85374686600427  C 2.399064876033052 34.85374686600427  1.1921120104204086 33.403955799052845  1.1355812881782203 31.55388621970471  L 0.21140773445921854 2.8954226947720323  C 0.17678338037080768 2.1071314448214298  0.4516078853530543 1.3377960802717037  0.9735349353215931 0.7619469774352368  C 1.4131458959300238 0.28240416763980813  2.0235548901948603 0.009874819473479414  2.6626653072224156 0  L 26.32099221164211 0  C 27.58447586237873 0.007800817160371135  28.746342490118582 1.0929340700157912  29.025286076176787 2.5307648806760126  L 34.573911534315485 31.18922840560869  C 34.780981243262666 32.259411338100115  34.57963377650017 33.278113102423625  34.020803440531786 33.98168817903242  Z M 4.205155425799499 31.447803946513144  C 4.207968728491886 31.527281212809505  4.219873330051117 31.606134849816947  4.240620750988154 31  L 31.540745948616614 31  L 26.02092034674813 3.1788937691521992  L 3.2934953467481116 3.1788937691521992  L 4.205155425799499 31.447803946513144  Z " fill-rule="nonzero" fill="#000000" stroke="none" transform="matrix(1 0 0 1 289 1020 )" />
  </g>
</svg>