<?xml version="1.0" encoding="utf-8"?>
<svg version="1.1" xmlns:xlink="http://www.w3.org/1999/xlink" width="81px" height="70px" xmlns="http://www.w3.org/2000/svg">
  <g transform="matrix(1 0 0 1 -243 -985 )">
    <path d="M 36.22147853337248 66.39164809917357  C 36.159293694676336 68.32884783665533  34.85592666023409 69.84686436558094  33.25828601753577 69  L 2.590219338842975 69  C 1.8516014447576359 69.84434993720852  1.1533504564741413 69.50900260565018  0.6889944204388139 68.93376762275157  C 0.08495196543189172 68.19708313077297  -0.1326609892184418 67.13044245989305  0.09120443008767898 66.00989797763734  L 12.814290117044932 2.3227625960136034  C 13.074379728031408 1.0741109894713665  14.16408021652878 0.17286941108080053  15.437606809581743 1  L 35.88472894240047 1  C 35.88562076918564 0.15313602290127457  35.88651259643528 0.15313553653945397  35.887404423749395 0.15313553653945397  C 37.244113409966644 0.15313553653945397  38.343943349788745 1.2545629054680512  38.343943349788745 2.6132424203508307  C 38.343943349788745 2.643355851096216  38.343391237483544 2.673466743606205  38.342287292025 2.7035598736023325  L 36.22147853337248 66.39164809917357  Z M 15.964988543021354 4  L 3.3631463011284977 66  L 32.86974977639804 66  C 32.89217323989662 66.44642354863186  32.90503953298139 66.36385915223583  32.90808010320091 66.28064177929024  L 34.999937232034235 4  L 15.964988543021354 4  Z M 72.83659042580864 24.03943695673311  C 72.38213012836637 24.59406843943962  71.70261719579804 24.914510988194742  70.98620076351891 25  L 47.232952020808 25  C 45.81867170029787 24.91203783179387  44.6271694818979 23.693894905201745  44.5764021873558 22.195683986387944  L 43.929883749632936 2.7035598736023307  C 43.928779837831584 2.673467201847963  43.928227742363504 2.6433567683920836  43.928227742363504 2.613243796816978  C 43.928227742363504 1.2545642819342004  45.0280576821856 0.15313691300560248  46.38476666840285 0.15313691300560248  C 46.38497888562172 0.15313691300560248  46.38519110283693 0.15313694054530014  46.38540332004867 1  L 66.83456430003777 1  C 68.10732235393392 0.17381548930631333  69.19592148434874 1.074846491158939  69.45584207744264 2.322762596013611  L 73.3546614917985 21.814886708799225  C 73.52436025178737 22.59669114799983  73.33414028903609 23.413478444336935  72.83659042580864 24.03943695673311  Z M 47.27019496245333 4  L 47.87430537903261 22  L 69.92627208121829 22  L 66.30935726895163 4  L 47.27019496245333 4  Z M 79.68521385828753 68.18673796791445  L 79.6851458967152 68  L 49.006749059025886 68  C 48.32291971808533 68.18673796791444  47.73545988673071 67.34939231891103  47.70120725426857 66.33563448711716  L 46.702512016612836 36.328605444822564  C 46.67763808113437 35.60750675741371  47.12523299660192 35.02130354885757  47.69509071275748 35  L 73.26461240844066 35  C 73.83447019255777 35.02130354885757  74.41778436799933 35.60750675741372  74.56179493979947 36.328605444822564  L 80.55858802449973 66.33570254739914  C 80.76165720266813 67.34939238697132  80.36897523765575 68.18673796791445  79.68521385828753 68.18673796791445  Z " fill-rule="nonzero" fill="#000000" stroke="none" transform="matrix(1 0 0 1 243 985 )" />
  </g>
</svg>