<?xml version="1.0" encoding="utf-8"?>
<svg version="1.1" xmlns:xlink="http://www.w3.org/1999/xlink" width="20px" height="20px" xmlns="http://www.w3.org/2000/svg">
  <g transform="matrix(1 0 0 1 -105 -1545 )">
    <path d="M 19.906814759036145 10.004706325301207  C 19.906814759036145 4.512424698795183  15.454631024096386 0.060240963855421686  9.96234939759036 0.060240963855421686  C 4.470067771084337 0.060240963855421686  0.017884036144578314 4.51242469879518  0.017884036144578314 10.004706325301207  C 0.017884036144578314 15.496987951807233  4.470067771084337 19.949171686746986  9.96234939759036 19.949171686746986  C 15.454631024096386 19.949171686746986  19.906814759036145 15.496987951807228  19.906814759036145 10.004706325301207  Z M 9.268166415662652 12.35551581325301  L 9.268166415662652 4.5712537650602405  C 9.268166415662652 4.1876882530120465  9.578783885542169 3.8747176204819267  9.964702560240964 3.8747176204819267  C 10.348268072289155 3.8747176204819267  10.661238704819278 4.185335090361445  10.661238704819278 4.5712537650602405  L 10.661238704819278 12.35551581325301  C 10.661238704819278 12.7390813253012  10.350621234939759 13.052051957831324  9.964702560240964 13.052051957831324  C 9.581137048192772 13.052051957831324  9.268166415662652 12.741434487951803  9.268166415662652 12.35551581325301  Z M 10.658885542168674 15.438158885542165  C 10.658885542168674 15.824077560240962  10.348268072289155 16.134695030120483  9.96234939759036 16.134695030120483  C 9.578783885542169 16.134695030120483  9.265813253012047 15.824077560240962  9.265813253012047 15.438158885542165  C 9.265813253012047 15.052240210843372  9.576430722891565 14.741622740963852  9.96234939759036 14.741622740963852  C 10.348268072289155 14.741622740963852  10.658885542168674 15.052240210843372  10.658885542168674 15.438158885542165  Z " fill-rule="nonzero" fill="#7f7f7f" stroke="none" transform="matrix(1 0 0 1 105 1545 )" />
  </g>
</svg>