<?xml version="1.0" encoding="utf-8"?>
<svg version="1.1" xmlns:xlink="http://www.w3.org/1999/xlink" width="1042px" height="40px" xmlns="http://www.w3.org/2000/svg">
  <g transform="matrix(1 0 0 1 -480 -281 )">
    <path d="M 1506 281  C 1506 281  1510 281.0767754318618  1510 281.0767754318618  C 1510 281.0767754318618  1522 301  1522 301  C 1522 301  1510 320.9232245681382  1510 320.9232245681382  C 1510 320.9232245681382  1506 321  1506 321  C 1506 321  483 321  483 321  C 481.32 321  480 319.68  480 318  C 480 318  480 284  480 284  C 480 282.32  481.32 281  483 281  C 483 281  1506 281  1506 281  Z " fill-rule="nonzero" fill="#006cff" stroke="none" />
  </g>
</svg>