<?xml version="1.0" encoding="utf-8"?>
<svg version="1.1" xmlns:xlink="http://www.w3.org/1999/xlink" width="22px" height="42px" xmlns="http://www.w3.org/2000/svg">
  <g transform="matrix(1 0 0 1 -476 -281 )">
    <path d="M 481.2 281  C 481.2 281  485.2 284.8181818181818  485.2 284.8181818181818  C 485.2 284.8181818181818  498 302  498 302  C 498 302  485.2 319.1818181818182  485.2 319.1818181818182  C 485.2 319.1818181818182  481.2 323  481.2 323  C 481.2 323  479 323  479 323  C 477.32 323  476 321.68  476 320  C 476 320  476 284  476 284  C 476 282.32  477.32 281  479 281  C 479 281  481.2 281  481.2 281  Z " fill-rule="nonzero" fill="#ffffff" stroke="none" />
  </g>
</svg>