<?xml version="1.0" encoding="utf-8"?>
<svg version="1.1" xmlns:xlink="http://www.w3.org/1999/xlink" width="264px" height="40px" xmlns="http://www.w3.org/2000/svg">
  <g transform="matrix(1 0 0 1 -217 -281 )">
    <path d="M 465 281  C 465 281  469 281.3030303030303  469 281.3030303030303  C 469 281.3030303030303  481 301  481 301  C 481 301  469 320.6969696969697  469 320.6969696969697  C 469 320.6969696969697  465 321  465 321  C 465 321  220 321  220 321  C 218.32 321  217 319.68  217 318  C 217 318  217 284  217 284  C 217 282.32  218.32 281  220 281  C 220 281  465 281  465 281  Z " fill-rule="nonzero" fill="#a30014" stroke="none" />
  </g>
</svg>