<?xml version="1.0" encoding="utf-8"?>
<svg version="1.1" xmlns:xlink="http://www.w3.org/1999/xlink" width="16px" height="2px" xmlns="http://www.w3.org/2000/svg">
  <g transform="matrix(1 0 0 1 -232 -444 )">
    <path d="M 2.177647569444445 1.0204296875000012  C 2.177690972222223 0.4830859375000017  1.6919270833333337 0.04585937500000057  1.0948350694444444 0.04585937500000057  C 0.49774305555555526 0.04585937500000057  0.012022569444443972 0.48304687500000226  0.012022569444443972 1.0204296875000012  C 0.012022569444443972 1.5577734375000034  0.4977864583333332 1.9949218750000028  1.0948350694444444 1.9949218750000028  C 1.6918836805555557 1.9949218750000028  2.177647569444445 1.5577734375000034  2.177647569444445 1.0204296875000012  Z M 1.475173611111111 1.0204687500000005  C 1.4752170138888896 1.2091796875  1.3046006944444442 1.3627343749999994  1.0948350694444444 1.3627343749999994  C 0.8850694444444448 1.3627343749999994  0.7144965277777773 1.2091796875  0.7144965277777773 1.0204687500000005  C 0.7144965277777773 0.8316796874999994  0.8851562499999999 0.6780859375000006  1.0948350694444444 0.6780859375000006  C 1.304513888888889 0.6780859375000006  1.475173611111111 0.8316796875000023  1.475173611111111 1.0204687500000005  Z M 15.963802083333333 1.0204296875000012  C 15.963802083333333 0.4830859375000017  15.478081597222221 0.04585937500000057  14.880989583333335 0.04585937500000057  C 14.283897569444443 0.04585937500000057  13.798177083333334 0.48304687500000226  13.798177083333334 1.0204296875000012  C 13.798177083333334 1.5577734375000034  14.283897569444443 1.9949218750000028  14.880989583333335 1.9949218750000028  C 15.478081597222221 1.9949218750000028  15.963802083333333 1.5577734375000034  15.963802083333333 1.0204296875000012  Z M 15.261328124999999 1.0204687500000005  C 15.261371527777776 1.2091796875  15.090755208333333 1.3627343749999994  14.880989583333335 1.3627343749999994  C 14.671267361111111 1.3627343749999994  14.500651041666666 1.2091796875  14.500651041666666 1.0204687500000005  C 14.500651041666666 0.8316796874999994  14.671267361111111 0.6780859375000006  14.880989583333335 0.6780859375000006  C 15.090755208333336 0.6780859375000006  15.261328124999999 0.8316796875000023  15.261328124999999 1.0204687500000005  Z " fill-rule="nonzero" fill="#ffffff" stroke="none" transform="matrix(1 0 0 1 232 444 )" />
  </g>
</svg>