<?xml version="1.0" encoding="utf-8"?>
<svg version="1.1" xmlns:xlink="http://www.w3.org/1999/xlink" width="23px" height="18px" xmlns="http://www.w3.org/2000/svg">
  <g transform="matrix(1 0 0 1 -229 -430 )">
    <path d="M 22.66628187189055 15.80822753906249  C 23.134005752487564 14.74694824218749  22.766361551616917 13.386752929687493  22.375563588308456 12.432568359374999  C 21.914678560323384 11.307392578125002  21.172238417288558 10.145346679687501  20.389569729477614 9.3240966796875  C 19.59881063432836 8.494453125000001  18.743328280472635 8.0677880859375  17.846812810945273 8.055966796874998  C 17.83420834892795 8.055828028659272  17.82160322869146 8.055754785447906  17.80899797885572 8.0557470703125  C 17.516134172885568 8.0557470703125  17.24544076492537 8.1010546875  17.001298196517414 8.1706201171875  L 17.001298196517414 3.33703125  L 18.973748445273632 3.33703125  C 19.46708449937811 3.33703125  19.86838658271144 2.9424902343749997  19.86838658271144 2.4574658203125  C 19.86838658271144 2.0736914062499996  19.61668998756219 1.7473974609374998  19.267372123756218 1.6275585937499992  C 18.95519861629353 0.7020703124999993  18.059264225746265 0.05225097656249944  17.050868703358205 0  L 3.6454660292288557 0  C 2.6372046019900495 0.05225097656249944  1.7413149098258707 0.7021582031249992  1.429052005597015 1.6276025390624995  C 1.0797788401741295 1.747485351562499  0.8280822450248758 2.0737353515625  0.8280822450248758 2.4574658203125  C 0.8280822450248758 2.9424462890624996  1.2294290267412937 3.33703125  1.7227650808457713 3.33703125  L 3.7409864738805965 3.33703125  L 3.7409864738805965 9.455625  L 2.838392024253731 9.455625  C 1.7220052083333335 9.455625  0.7545534048507463 10.092744140625  0.29129936256218886 11.01638671875  C 0.2881704757462685 11.0219677734375  0.28450520833333315 11.0271533203125  0.28164451181592015 11.0329541015625  C 0.2427317571763338 11.112779421364559  0.20769352350006237 11.194375080133364  0.17664800995024854 11.277465820312502  C 0.1749941697761192 11.281772460937502  0.1732062344527361 11.286035156250001  0.1716417910447759 11.290385742187498  C 0.15832827669665428 11.32649732419313  0.145780216549142 11.36287726295398  0.134005752487562 11.399501953125002  C 0.1310109608208953 11.408642578125004  0.1279267723880595 11.417739257812503  0.12506607587064658 11.427011718750002  C 0.11065498056070608 11.473187203981047  0.0974793186155249 11.519726672140388  0.0855527052238804 11.566582031250002  C 0.07685671322560157 11.600602443032066  0.06882443005547006 11.634783518891524  0.06146027674129332 11.669106445312499  C 0.058510183457711216 11.682905273437504  0.055828280472636604 11.6967919921875  0.05305698072139282 11.710678710937504  C 0.04666511194029829 11.743198242187502  0.04045203669154208 11.775805664062503  0.03522232587064655 11.8086328125  C 0.03236162935323361 11.826254882812501  0.030126710199004765 11.844052734375001  0.027668299129353015 11.861806640625002  C 0.023511349502487344 11.891469726562502  0.01926500310945252 11.921132812500002  0.01609141791044754 11.951015624999998  C 0.013409514925372916 11.9760205078125  0.011710976368158987 12.0012451171875  0.009699549129353016 12.02642578125  C 0.007866915422885354 12.049804687499998  0.005497901119402767 12.073095703125  0.004246346393034608 12.0966064453125  C 0.0014359756936016255 12.146392686826038  1.999070292267057E-05 12.196245549053543  0 12.246108398437503  L 0 14.410458984375001  C 0 15.727543945312501  0.9269103700248755 16.8533349609375  2.222090718283582 17.1342333984375  C 2.6894123134328356 17.633935546874998  3.359351679104478 17.9477490234375  4.102641091417911 17.9477490234375  C 4.812272621268656 17.9477490234375  5.455035370024876 17.661708984374997  5.918512904228856 17.2009423828125  L 13.29128770211443 17.2009423828125  C 13.491089474502488 17.2009423828125  13.652987018034825 17.041728515625  13.652987018034825 16.8453369140625  C 13.652987018034825 16.6489453125  13.491089474502488 16.4897314453125  13.29128770211443 16.4897314453125  L 12.654380441542287 16.4897314453125  L 12.654380441542287 13.658730468749999  L 16.173484141791043 9.422006835937498  C 16.26377487562189 9.338818359375  16.93559157338309 8.7528076171875  17.84511427238806 8.767177734375  C 18.534676228233835 8.778955078125  19.213108286691547 9.1298583984375  19.861681825248755 9.8103955078125  C 20.586376710199005 10.5707373046875  21.275312888681594 11.650341796874997  21.70446206467662 12.698173828125  C 22.184031016791046 13.869096679687496  22.289876787935327 14.873203125000002  22.00233208955224 15.5254833984375  C 21.785634328358206 16.017055664062497  21.329800217661692 16.322431640625  20.643188355099504 16.437568359375  C 20.643992925995025 16.435766601562502  20.64461870335821 16.4339208984375  20.645467972636816 16.432119140624998  C 20.66129120024876 16.3963037109375  20.676175761815923 16.360048828125  20.690300450870645 16.323398437499996  C 20.691015625000002 16.32146484375  20.69190959266169 16.3195751953125  20.69262476679104 16.31759765625  C 20.800621699950703 16.035612756266005  20.855863704299836 15.736751744945693  20.855684468283584 15.435439453124998  C 20.855684468283584 14.050151367187498  19.709394434079606 12.9230859375  18.300412002487565 12.9230859375  C 16.89142957089553 12.9230859375  15.745139536691545 14.050107421874998  15.745139536691545 15.435439453124998  C 15.745139536691545 15.480527343749998  15.746480488184082 15.525307617187499  15.748894200870648 15.569780273437496  C 15.749385883084583 15.5784375  15.750324549129354 15.587050781249998  15.750905628109454 15.595708007812497  C 15.753274642412938 15.632138671874998  15.756045942164182 15.668437499999998  15.75997939987562 15.7044287109375  C 15.760828669154229 15.712558593749998  15.762169620646766 15.720556640624997  15.763108286691542 15.7285986328125  C 15.767488728233833 15.765380859374996  15.772405550373136 15.801943359374995  15.77839513370647 15.838286132812497  C 15.779601990049752 15.845493164062495  15.78103233830846 15.852656249999997  15.782283893034826 15.859863281249996  C 15.788765158582091 15.897041015624996  15.795916899875621 15.934042968749994  15.804052005597018 15.970605468749993  C 15.805527052238805 15.977285156249994  15.807225590796023 15.983920898437495  15.808790034203984 15.990600585937495  C 15.817327425373136 16.027558593749994  15.82653529228856 16.064208984374993  15.836726523631842 16.100463867187493  C 15.838648554104477 16.10727539062499  15.840704679726368 16.114086914062494  15.842626710199006 16.120854492187494  C 15.86509029634353 16.198735183710617  15.89143453947918 16.275483084459946  15.921564054726371 16.350820312499994  C 15.9249611318408 16.359301757812496  15.928268812189055 16.367739257812495  15.931755286069652 16.376176757812495  C 15.944807213930348 16.407905273437493  15.958663712686565 16.439282226562494  15.973011893656718 16.470351562499992  C 15.9759619869403 16.476767578124996  15.97846509639304 16.483315429687494  15.981504586442789 16.48968749999999  L 14.480890469527367 16.48968749999999  C 14.281088697139305 16.48968749999999  14.119191153606968 16.64890136718749  14.119191153606968 16.84529296874999  C 14.119191153606968 17.04168457031249  14.281088697139307 17.200898437499994  14.480890469527367 17.200898437499994  L 16.48467428482587 17.200898437499994  C 16.948151819029853 17.66162109374999  17.590959266169154 17.94770507812499  18.30054609763682 17.94770507812499  C 19.011250388681592 17.94770507812499  19.65486240671642 17.66074218749999  20.118518734452735 17.19870117187499  C 21.73230915733831 17.153876953124993  22.394962686567165 16.423813476562493  22.66628187189055 15.80822753906249  Z M 0.7234433302238805 12.324902343749994  L 0.7234433302238806 12.246064453125  C 0.7234433302238806 12.2122705078125  0.7244266946517414 12.1786083984375  0.7260358364427861 12.145122070312498  C 0.7264381218905474 12.137299804687498  0.727108597636816 12.129521484374997  0.7275108830845772 12.121699218749999  C 0.7291200248756222 12.095024414062497  0.7310867537313434 12.068393554687496  0.7336792599502491 12.041938476562498  C 0.7343497356965177 12.035214843749998  0.7351096082089554 12.028535156249998  0.7358694807213932 12.021767578124997  C 0.7389777281482255 11.992894898449528  0.7427034175887488 11.964089698142823  0.7470440764925376 11.935371093749998  L 0.7486085199004979 11.925263671875  C 0.7692344713875895 11.795076350050435  0.8025235326436098 11.66713611474811  0.8480177238805972 11.543203124999994  L 1.8545359141791045 11.543203124999994  C 2.007032598679244 11.543396859299841  2.130599541251527 11.664901625298068  2.130771921641791 11.814829101562495  L 2.1307719216417906 12.053364257812493  C 2.1305994462199345 12.203277462009515  2.0070181378394474 12.32475703392891  1.8545359141791045 12.324902343749994  L 0.7234433302238805 12.324902343749994  Z M 5.934470226990051 15.435527343749998  C 5.934470226990051 15.464443359374998  5.933620957711444 15.49318359375  5.932280006218906 15.521791992187499  C 5.9316989272388065 15.533920898437502  5.930626166044776 15.545961914062499  5.929776896766169 15.558046874999999  C 5.928659437189054 15.5740869140625  5.92754197761194 15.590126953124999  5.9260669309701495 15.6060791015625  C 5.924591884328359 15.621547851562498  5.922669853855722 15.636884765624998  5.920747823383085 15.652309570312502  C 5.919272776741295 15.664306640625  5.917797730099503 15.676303710937502  5.916054493159205 15.688212890625  C 5.913507181587087 15.705729303761993  5.9106908621216885 15.723206883823229  5.90760649875622 15.740639648437499  C 5.902705325953163 15.769079334808563  5.897056540153152 15.797389588602321  5.890665811567167 15.8255419921875  C 5.889146066542291 15.832353515625002  5.887492226368161 15.8391650390625  5.885838386194032 15.8459765625  C 5.880921564054726 15.86671875  5.875691853233832 15.8873291015625  5.870059856965175 15.907851562499998  L 5.866349891169156 15.920639648437497  C 5.860009735904158 15.94316781179887  5.853214236523438 15.965569707134728  5.845967428482589 15.987832031249999  C 5.845833333333336 15.988359375000002  5.845609841417912 15.988842773437499  5.845431047885572 15.989370117187502  C 5.8145580823321925 16.08268523103186  5.775989419754879 16.173367166576295  5.730109219527364 16.260512695312503  C 5.725773476368159 16.268774414062502  5.72166122512438 16.277124023437498  5.717191386815921 16.285253906250002  C 5.710352534203981 16.297822265625005  5.703066697761194 16.310083007812498  5.695870258084578 16.322519531250002  C 5.688584421641792 16.335087890625  5.681387981965175 16.347744140625004  5.673878653606965 16.36013671875  C 5.667889070273632 16.369936523437502  5.661631296641791 16.379560546875002  5.655462919776119 16.389316406250003  C 5.646076259328359 16.40408203125  5.636600202114428 16.4188037109375  5.626766557835821 16.433261718750003  C 5.621447450248757 16.441127929687497  5.615904850746269 16.448862304687502  5.610451648009951 16.456640625000002  C 5.599232353855721 16.47263671875  5.587834266169155 16.488500976562502  5.5761232898009965 16.5041015625  C 5.571251166044777 16.51060546875  5.566244947139304 16.516977539062502  5.561328125 16.5234375  C 5.544146048584802 16.545679659810215  5.526440712272355 16.567526374009876  5.508226445895523 16.5889599609375  C 5.1719605099502495 16.984379882812497  4.6667793843283585 17.236538085937497  4.102596393034826 17.236538085937497  C 3.4086092972636823 17.236538085937497  2.803482587064677 16.855092773437498  2.4927394278606974 16.29421875  L 2.4908173973880605 16.290615234374997  C 2.466455025252231 16.24618530694367  2.4440113538156125 16.20076400698478  2.423546330845771 16.154472656249997  C 2.41845071517413 16.1429150390625  2.413310401119403 16.13126953125  2.4084382773631843 16.1196240234375  C 2.4035661536069655 16.108022460937498  2.3990069185323386 16.0962890625  2.3943582866915425 16.0845556640625  C 2.3884581001243785 16.069614257812496  2.3826026119402988 16.054716796875  2.3771494092039807 16.0396435546875  C 2.374646299751244 16.032700195312497  2.3723666822139307 16.025712890624998  2.3699529695273633 16.0187255859375  C 2.3476256786551137 15.954673778903013  2.3289573365610625 15.889445090918265  2.3140352922885574 15.823344726562498  L 2.3119344682835825 15.8142919921875  C 2.307899927139744 15.79566700261804  2.3042042707131047 15.776972611403304  2.300849269278608 15.758217773437496  C 2.2991954291044787 15.749340820312497  2.297541588930349 15.740463867187497  2.295977145522389 15.731586914062493  C 2.291142357355863 15.703070593568647  2.2870436888111536 15.67443834813292  2.28368509017413 15.645717773437491  C 2.2819463847471013 15.631321019769747  2.280366948522149 15.616906105245317  2.2789470615671648 15.602475585937501  C 2.277514392244158 15.586391058516638  2.2762627609274713 15.57029144052994  2.2751923973880603 15.554179687499998  C 2.274432524875622 15.542841796874999  2.273493858830846 15.531503906249998  2.272957478233831 15.520166015624998  C 2.2715540437788784 15.491988514012867  2.2708237689275097 15.46378249835413  2.2707672574626874 15.435571289062498  C 2.2707672574626874 14.442407226562498  3.0925470304726375 13.634428710937497  4.102596393034826 13.634428710937497  C 5.112690453980101 13.634428710937497  5.934470226990051 14.4424072265625  5.934470226990051 15.435527343749998  Z M 8.918221393034827 10.7870361328125  L 8.918221393034827 16.489863281249995  L 6.421682602611941 16.489863281249995  C 6.4249902829602 16.482788085937496  6.427761582711444 16.475581054687495  6.430979866293534 16.4685498046875  C 6.444881063432837 16.438403320312496  6.458245879975126 16.408037109374995  6.470940220771146 16.377275390624998  C 6.474739583333336 16.368090820312496  6.478404850746271 16.358818359374993  6.482070118159207 16.34958984375  C 6.498253136942592 16.30895954373262  6.513380994696537 16.267930616181065  6.527438976990051 16.226542968749996  C 6.539105254975125 16.192001953124997  6.550011660447762 16.157153320312496  6.560202891791047 16.121997070312496  C 6.562303715796021 16.114658203124993  6.56453863495025 16.107319335937497  6.56659476057214 16.099892578124994  C 6.576561421142654 16.064015330978375  6.5857267920866684 16.027927557630104  6.5940842661691565 15.991655273437495  C 6.595738106343285 15.984536132812496  6.597526041666667 15.977416992187495  6.599090485074628 15.970253906249992  C 6.607136194029851 15.933999023437496  6.614198538557215 15.897436523437493  6.62059040733831 15.860566406249994  C 6.621886660447762 15.853095703124993  6.6234511038557216 15.845668945312497  6.624702658582091 15.838198242187493  C 6.630593660118479 15.802044744174287  6.6356607461183135 15.76576612552262  6.639900108830847 15.729389648437493  C 6.640928171641792 15.721040039062494  6.6422244247512445 15.712734374999991  6.643118392412937 15.704384765624996  C 6.646897124989514 15.668474392059466  6.64990748134314 15.632489877732747  6.652147465796022 15.596455078124993  C 6.652728544776122 15.587534179687495  6.653756607587066 15.578701171874991  6.654203591417912 15.569824218749995  C 6.656617304104479 15.525351562499992  6.657913557213932 15.48057128906249  6.657913557213932 15.435527343749994  C 6.657913557213932 14.050239257812493  5.511623523009952 12.923173828124991  4.102641091417911 12.923173828124991  C 2.6936586598258714 12.923173828124991  1.5474133240049766 14.050195312499993  1.5474133240049766 15.435527343749994  C 1.5475524920548787 15.485045412985494  1.5491623198400037 15.534548929737701  1.5522407493781105 15.583974609374993  C 1.5538945895522398 15.611176757812494  1.555995413557215 15.638378906249994  1.5585432213930361 15.665493164062491  C 1.5597500777363194 15.678237304687496  1.5607781405472647 15.691113281249994  1.562119092039802 15.703813476562495  C 1.5693093601354502 15.76886994521609  1.579105915288604 15.833622388682496  1.5914859297263688 15.897919921874994  C 1.6052100156453455 15.970075415521475  1.6221672087394352 16.041600114832477  1.642307991293533 16.11228515624999  C 1.644051228233832 16.118305664062493  1.645526274875623 16.124414062499994  1.6472695118159209 16.13043457031249  C 1.068177516497572 15.743296773828742  0.7220855254627333 15.0989918402608  0.7233986318407966 14.410502929687494  L 0.7233986318407966 13.036289062499993  L 1.8545359141791045 13.036289062499993  C 2.4057563743781096 13.036289062499993  2.854215251865672 12.595429687499994  2.854215251865672 12.053496093749995  L 2.854215251865672 11.814960937499993  C 2.854215251865672 11.272983398437495  2.4058010727611947 10.832080078124994  1.854535914179105 10.832080078124994  L 1.2897718439054726 10.832080078124994  C 1.6762340640547264 10.423300781249992  2.227275730721393 10.166923828124993  2.8383920242537317 10.166923828124993  L 8.64189598880597 10.166923828124993  C 8.794402898685897 10.167069137996467  8.918004219176899 10.288568384863412  8.918176694651741 10.438505859374995  L 8.918176694651741 10.787036132812494  Z M 4.806774720149256 9.455625  L 4.464385105721395 9.455624999999998  L 4.464385105721395 3.33703125  L 4.806774720149256 3.33703125  L 4.806774720149256 9.455625  Z M 7.07517296330846 9.455624999999998  L 6.487210432213932 9.455624999999998  L 6.487210432213932 5.385761718749998  C 6.487407486449265 5.2358342718691535  6.61099442367245 5.114349163655428  6.763491138059704 5.114179687499998  L 6.798936955845774 5.114179687499998  C 6.951426410216915 5.114349212316403  7.075000533423339 5.235841380186196  7.07517296330846 5.385761718749998  L 7.07517296330846 9.455624999999998  Z M 11.93093711131841 13.930224609375001  L 11.93093711131841 16.489775390624995  L 9.641664723258708 16.489775390624995  L 9.641664723258708 13.930224609375001  L 11.93093711131841 13.930224609375001  Z M 9.641664723258708 12.431865234374998  L 10.584085432213932 12.431865234374998  L 10.584085432213932 13.219013671874995  L 9.641664723258708 13.219013671874995  L 9.641664723258708 12.431865234374998  Z M 9.641664723258708 11.720654296874997  L 9.641664723258708 11.142553710937497  L 10.926743236940299 11.142553710937497  C 11.0792254346863 11.142723280523441  11.202786746091324 11.264222512512735  11.202934546019904 11.414135742187497  L 11.202934546019904 11.4490283203125  C 11.202762165697953 11.598931526271219  11.079215235220857 11.720416617331782  10.9267432369403 11.720610351562497  L 9.641664723258708 11.720610351562497  Z M 15.212066620024878 9.455009765624999  L 14.850501399253734 9.890332031249997  L 12.563642723880601 7.664326171874998  L 13.578966495646767 6.6451025390624965  C 13.643126732018859 6.578948757949164  13.67891990712667 6.491049831004896  13.67891990712667 6.399642403518828  C 13.67891990712667 6.203198385519932  13.51694158311781 6.043949044143829  13.317131194440103 6.043949044143829  C 13.22155385005991 6.043949044143829  13.129859658280804 6.081132244267926  13.062074393656719 6.147377929687497  L 10.527899564676618 8.691196289062496  C 10.463830026116321 8.757327895410913  10.428093031399529 8.845157457156942  10.428093031399529 8.936487314415526  C 10.428093031399529 9.132907062088501  10.590051343260624 9.292136728478026  10.789837045703011 9.292136728478026  C 10.885324424413065 9.292136728478026  10.976938837539807 9.255018742890334  11.0447022699005 9.188876953124998  L 12.057344138681593 8.172377929687498  L 14.39073383084577 10.443647460937497  L 12.085504120024876 13.218925781249999  L 11.307439365671641 13.218925781249999  L 11.307439365671641 12.3572900390625  C 11.670211442786071 12.209721679687497  11.926288479477613 11.858334960937498  11.926288479477613 11.448984374999998  L 11.926288479477613 11.414091796874999  C 11.926288479477613 10.872158203124998  11.477829601990049 10.431254882812498  10.92665384017413 10.431254882812498  L 9.64121773942786 10.431254882812498  C 9.637239583333333 9.892661132812501  9.190658037935322 9.455581054687498  8.641851290422885 9.455581054687498  L 7.7985715951492525 9.455581054687498  L 7.7985715951492525 5.385717773437499  C 7.7985715951492525 4.843784179687499  7.350112717661693 4.402880859374998  6.798892257462686 4.402880859374998  L 6.763446439676617 4.402880859374998  C 6.212181281094526 4.402880859374998  5.763722403606965 4.843740234374999  5.763722403606965 5.385717773437499  L 5.763722403606965 9.455581054687498  L 5.530083955223881 9.455581054687498  L 5.530083955223881 3.33703125  L 15.211977223258707 3.33703125  L 15.211977223258707 9.455009765625  Z M 16.27789956467662 3.33703125  L 16.277899564676616 8.474633789062498  C 16.15952266836489 8.541373958744261  16.045185631145582 8.614812881474743  15.935465251865676 8.694580078124996  L 15.935465251865676 3.33703125  L 16.27789956467662 3.33703125  Z M 18.9738378420398 2.625776367187497  L 15.573765935945273 2.625776367187497  L 1.7227650808457713 2.625776367187497  C 1.6282503906894112 2.6256795257610817  1.551648750441939 2.550388114958276  1.5515255752487562 2.457465820312497  C 1.5516241638954487 2.36453349470101  1.6282401942466362 2.2892279399293964  1.7227650808457713 2.289155273437498  L 14.35193563432836 2.289155273437498  C 14.551696635290936 2.289155273437498  14.71363493500427 2.1299452820345532  14.71363493500427 1.9335498046874975  C 14.71363493500427 1.737154327340441  14.551696635290936 1.5779443359374972  14.351935619083871 1.5779443359374972  L 2.2380927394278607 1.5779443359374972  C 2.5175917288557215 1.0879980468749972  3.053435945273632 0.7635058593749974  3.6454660292288557 1  L 17.05095810012438 1  C 17.643077580845773 0.7635058593749974  18.179011194029854 1.0879541015624972  18.458465485074626 1.5779443359374972  L 15.589678560323387 1.5779443359374972  C 15.389897529205982 1.5779443332214707  15.227979241640421 1.7371346496378355  15.227979241640421 1.9335058566589707  C 15.227979241640421 2.1299649597371593  15.389897529205982 2.289155276153524  15.58963385917773 2.289155276153524  L 18.970127876243783 2.289155273437498  L 18.975223491915425 2.2892871093749974  C 19.069157542901237 2.2900823669425514  19.144913562078614 2.3651110040944614  19.145032649253732 2.457465820312497  C 19.144909525664037 2.5503709821617604  19.068335076867132 2.625655317962628  18.9738378420398 2.625776367187497  Z M 20.13210704291045 15.435527343749994  C 20.13216255274317 15.464265397390825  20.13147695725611 15.493000215738963  20.13005091728856 15.5217041015625  C 20.12946983830846 15.5338330078125  20.128397077114432 15.54591796875  20.127547807835825 15.5580029296875  C 20.12643034825871 15.57404296875  20.12535758706468 15.5899951171875  20.123837842039805 15.605947265625  C 20.12236279539801 15.6214599609375  20.12039606654229 15.6368408203125  20.118518734452735 15.652265624999998  C 20.113948415295187 15.691069269255177  20.107924944502756 15.729694119365943  20.10046058768657 15.768061523437499  C 20.096795320273632 15.787309570312496  20.092861862562188 15.806469726562499  20.088481421019903 15.8255859375  C 20.087006374378113 15.832309570312502  20.08535253420398 15.8389892578125  20.083743392412938 15.845712890625  C 20.07878187189055 15.866542968750002  20.073552161069657 15.887285156250002  20.067875466417913 15.907895507812501  L 20.064299595771143 15.92015625  C 20.057884877226506 15.942889732526366  20.051014890715308 15.96549666457258  20.043693641169156 15.987963867187503  C 20.0124956076349 16.082471458390422  19.973475664683313 16.17415940297537  19.92698616293533 16.2622265625  C 19.9230080068408 16.269697265625002  19.919253342661694 16.277387695312502  19.915230488184086 16.2848583984375  C 19.90807874689055 16.29791015625  19.900524720149257 16.3107421875  19.893060090174135 16.323662109375  C 19.886087142412936 16.335703125000002  19.879203591417916 16.3477880859375  19.871962453358215 16.359697265625  C 19.86574937810946 16.3699365234375  19.85913401741294 16.3800439453125  19.852652751865676 16.3901953125  C 19.843534281716423 16.4044775390625  19.834371113184083 16.418759765624998  19.824895055970156 16.4327783203125  C 19.819307758084584 16.4410400390625  19.813452269900505 16.449169921875  19.80773087686568 16.4573876953125  C 19.796845042338255 16.472962825805038  19.785698730448676 16.488360426506084  19.77429648631841 16.503574218749996  C 19.769156172263685 16.5104296875  19.763881763059707 16.517241210937495  19.758607353855727 16.524052734375  C 19.741395492976505 16.546283834508223  19.72367552258007 16.56813021657605  19.705460976368165 16.589575195312502  C 19.36910564365672 16.984775390624996  18.86410331156717 17.236669921875002  18.300277907338312 17.236669921875002  C 17.736452503109454 17.236669921875002  17.231494869402987 16.984731445312498  16.895184235074634 16.589575195312502  C 16.890133317786074 16.5835986328125  16.885037702114435 16.5776220703125  16.88007618159205 16.571645507812505  C 16.849491294637765 16.53475307932148  16.820428735752987 16.496665628923108  16.7929590329602 16.457475585937498  C 16.78719294154229 16.4492578125  16.781337453358212 16.441083984375  16.77575015547264 16.4327783203125  C 16.766344884513643 16.418767812146783  16.757136145910348 16.404630731760633  16.74812655472637 16.390371093749998  C 16.741600590796022 16.380175781249996  16.734985230099507 16.370024414062495  16.728727456467663 16.359697265625  C 16.721531016791047 16.347919921875  16.71473686256219 16.335878906250002  16.70780861318408 16.32392578125  C 16.70029928482587 16.310917968749997  16.69265586131841 16.2980419921875  16.68545942164179 16.2848583984375  C 16.68143656716418 16.2775634765625  16.677771299751246 16.270048828124995  16.673882540422884 16.262666015625  C 16.616225084014268 16.153383195838074  16.570137588949006 16.038566806350488  16.536345615671642 15.920024414062498  C 16.535183457711444 15.916025390624998  16.53397660136816 15.9120703125  16.532859141791047 15.908027343749996  C 16.527137748756218 15.887373046874997  16.521908037935326 15.866499023437497  16.516946517412936 15.845624999999993  C 16.508549214245186 15.810947267644298  16.50131903515418 15.776006349627846  16.49526780161692 15.740859374999998  C 16.492165078930533 15.723324606331888  16.489333853773697 15.705744447377459  16.486775108830848 15.688124999999996  C 16.485076570273634 15.676259765624994  16.48360152363184 15.664306640624996  16.48212647699005 15.652353515624991  C 16.4801524092438 15.636937018304403  16.478379227999966 15.621496299209232  16.476807369402987 15.606035156249995  C 16.475242925995023 15.590170898437494  16.47421486318408 15.574130859374995  16.473097403606968 15.558090820312495  C 16.472292832711442 15.546005859374995  16.471220071517415 15.533920898437495  16.47059429415423 15.521791992187495  C 16.469153067519038 15.493058622741989  16.468407883315514 15.46429558976309  16.468359375000002 15.435527343749994  C 16.468359375000002 14.442407226562493  17.29013914800995 13.63442871093749  18.300233208955223 13.63442871093749  C 19.310327269900498 13.63442871093749  20.132107042910448 14.442407226562493  20.13210704291045 15.435527343749994  Z " fill-rule="nonzero" fill="#ffffff" stroke="none" transform="matrix(1 0 0 1 229 430 )" />
  </g>
</svg>