<?xml version="1.0" encoding="utf-8"?>
<svg version="1.1" xmlns:xlink="http://www.w3.org/1999/xlink" width="265px" height="45px" xmlns="http://www.w3.org/2000/svg">
  <g transform="matrix(1 0 0 1 -207 -337 )">
    <path d="M 208 340  A 2 2 0 0 1 210 338 L 469 338  A 2 2 0 0 1 471 340 L 471 379  A 2 2 0 0 1 469 381 L 210 381  A 2 2 0 0 1 208 379 L 208 340  Z " fill-rule="nonzero" fill="#ffffff" stroke="none" />
    <path d="M 207.5 340  A 2.5 2.5 0 0 1 210 337.5 L 469 337.5  A 2.5 2.5 0 0 1 471.5 340 L 471.5 379  A 2.5 2.5 0 0 1 469 381.5 L 210 381.5  A 2.5 2.5 0 0 1 207.5 379 L 207.5 340  Z " stroke-width="1" stroke="#a30014" fill="none" stroke-opacity="0.996078431372549" />
  </g>
</svg>