<?xml version="1.0" encoding="utf-8"?>
<svg version="1.1" xmlns:xlink="http://www.w3.org/1999/xlink" width="297px" height="45px" xmlns="http://www.w3.org/2000/svg">
  <g transform="matrix(1 0 0 1 -481 -337 )">
    <path d="M 482 340  A 2 2 0 0 1 484 338 L 775 338  A 2 2 0 0 1 777 340 L 777 379  A 2 2 0 0 1 775 381 L 484 381  A 2 2 0 0 1 482 379 L 482 340  Z " fill-rule="nonzero" fill="#ffffff" stroke="none" />
    <path d="M 481.5 340  A 2.5 2.5 0 0 1 484 337.5 L 775 337.5  A 2.5 2.5 0 0 1 777.5 340 L 777.5 379  A 2.5 2.5 0 0 1 775 381.5 L 484 381.5  A 2.5 2.5 0 0 1 481.5 379 L 481.5 340  Z " stroke-width="1" stroke="#006cff" fill="none" stroke-opacity="0.9803921568627451" />
  </g>
</svg>