<?xml version="1.0" encoding="utf-8"?>
<svg version="1.1" xmlns:xlink="http://www.w3.org/1999/xlink" width="34px" height="42px" xmlns="http://www.w3.org/2000/svg">
  <g transform="matrix(1 0 0 1 -315 -280 )">
    <path d="M 332.2 280  C 332.2 280  336.2 282.47058823529414  336.2 282.47058823529414  C 336.2 282.47058823529414  349 301  349 301  C 349 301  336.2 319.52941176470586  336.2 319.52941176470586  C 336.2 319.52941176470586  332.2 322  332.2 322  C 332.2 322  318 322  318 322  C 316.32 322  315 320.68  315 319  C 315 319  315 283  315 283  C 315 281.32  316.32 280  318 280  C 318 280  332.2 280  332.2 280  Z " fill-rule="nonzero" fill="#ffffff" stroke="none" />
  </g>
</svg>