<?xml version="1.0" encoding="utf-8"?>
<svg version="1.1" xmlns:xlink="http://www.w3.org/1999/xlink" width="32px" height="40px" xmlns="http://www.w3.org/2000/svg">
  <g transform="matrix(1 0 0 1 -603 -281 )">
    <path d="M 619 281  C 619 281  623 283.5  623 283.5  C 623 283.5  635 301  635 301  C 635 301  623 318.5  623 318.5  C 623 318.5  619 321  619 321  C 619 321  606 321  606 321  C 604.32 321  603 319.68  603 318  C 603 318  603 284  603 284  C 603 282.32  604.32 281  606 281  C 606 281  619 281  619 281  Z " fill-rule="nonzero" fill="#006cff" stroke="none" />
  </g>
</svg>