<?xml version="1.0" encoding="utf-8"?>
<svg version="1.1" xmlns:xlink="http://www.w3.org/1999/xlink" width="34px" height="42px" xmlns="http://www.w3.org/2000/svg">
  <g transform="matrix(1 0 0 1 -910 -280 )">
    <path d="M 927.2 280  C 927.2 280  931.2 282.47058823529414  931.2 282.47058823529414  C 931.2 282.47058823529414  944 301  944 301  C 944 301  931.2 319.52941176470586  931.2 319.52941176470586  C 931.2 319.52941176470586  927.2 322  927.2 322  C 927.2 322  914 322  914 322  C 911.76 322  910 320.24  910 318  C 910 318  910 284  910 284  C 910 281.76  911.76 280  914 280  C 914 280  927.2 280  927.2 280  Z " fill-rule="nonzero" fill="#ffffff" stroke="none" />
  </g>
</svg>