<?xml version="1.0" encoding="utf-8"?>
<svg version="1.1" xmlns:xlink="http://www.w3.org/1999/xlink" width="30px" height="30px" xmlns="http://www.w3.org/2000/svg">
  <g transform="matrix(1 0 0 1 -406 -424 )">
    <path d="M 421 424  C 429.4 424  436 430.6  436 439  C 436 447.4  429.4 454  421 454  C 412.6 454  406 447.4  406 439  C 406 430.6  412.6 424  421 424  Z " fill-rule="nonzero" fill="#ffffff" stroke="none" />
    <path d="M 421 424.5  C 429.12 424.5  435.5 430.88  435.5 439  C 435.5 447.12  429.12 453.5  421 453.5  C 412.88 453.5  406.5 447.12  406.5 439  C 406.5 430.88  412.88 424.5  421 424.5  Z " stroke-width="1" stroke="#555555" fill="none" />
  </g>
</svg>