<?xml version="1.0" encoding="utf-8"?>
<svg version="1.1" xmlns:xlink="http://www.w3.org/1999/xlink" width="20px" height="20px" xmlns="http://www.w3.org/2000/svg">
  <g transform="matrix(1 0 0 1 -411 -429 )">
    <path d="M 16.0644657421875 4.906392187783531  L 14.84181333984375 6.143697925274994  C 14.7246262109375 6.262669629659056  14.71876685546875 6.45302436460503  14.828141503906249 6.5779446532168615  C 15.515639335937498 7.3631579100831495  15.9355598828125 8.396228895982965  15.9355598828125 9.530425813754857  C 15.9355598828125 10.968000586629014  15.26368701171875 12.244963565524728  14.220721542968748 13.057936895339724  C 14.095721933593751 13.155097130831525  14.060565800781252 13.331571809474463  14.140643671874999 13.468389286370515  L 14.892594433593748 14.792940939088378  C 14.957047363281248 14.905964059244672  15.080093847656249 14.965449921351045  15.2070465625 14.947604168667736  C 15.32423369140625 14.931741284003246  15.4433739453125 14.923809831756659  15.564467304687499 14.923809831756659  C 16.93360361328125 14.93372413219338  18.064459414062497 16.1075783111982  18.04688134765625 17.49558152240271  C 18.02930328125 18.875653301189313  16.9257911328125 19.99002161808776  15.564467304687499 19.99993593835316  C 14.1797060546875 20.00985023878988  13.046897128906249 18.867721868771405  13.046897128906249 17.46187288505491  C 13.046897128906249 16.706402549327468  13.373067968749998 16.028263828389704  13.88869134765625 15.562291311290172  L 12.9902566796875 13.983933345311016  C 12.91994439453125 13.860995924717997  12.779319843749999 13.799527194592809  12.6445546484375 13.835218719788106  C 12.298852617187501 13.924447503033324  11.93557251953125 13.972036176855479  11.562526816406251 13.972036176855479  C 9.44534599609375 13.972036176855479  7.679726562500001 12.4452326207361  7.275430957031251 10.4167650223219  C 7.2461341796875 10.270033244989127  7.117228339843752 10.164941577079421  6.968791308593751 10.164941596908099  L 5.17192197265625 10.164941596908099  C 5.037156777343751 10.164941596908099  4.918016523437501 10.254170380153315  4.87504791015625 10.385039252992918  C 4.5469239453125 11.398281598361928  3.60747376953125 12.12797472915948  2.500055390625 12.12797472915948  C 1.1133410156249999 12.12797472915948  -0.0097023046875 10.98188064293205  6.328124999999998E-05 9.572065923177922  C 0.00787576171875 8.172165523689195  1.14459091796875 7.037968586088623  2.5234928125 7.051848622562977  C 3.58208322265625 7.0617629229997  4.48442412109375 7.74188451195628  4.83793865234375 8.693658166857464  C 4.88286037109375 8.816595587450479  5.00004751953125 8.895910050430295  5.128953359375 8.895910050430295  L 6.966838183593751 8.895910050430295  C 7.115275214843751 8.895910050430295  7.242227949218751 8.790818382520587  7.273477832031251 8.644086605187814  C 7.677773437499999 6.6156190266022925  9.44339287109375 5.088815470482917  11.560573691406251 5.088815470482917  C 12.2207278515625 5.088815470482917  12.84767900390625 5.237530096005827  13.410177226562501 5.505216445741477  C 13.52931748046875 5.562719439829033  13.67189515625 5.538925102917957  13.76564486328125 5.443747735444971  L 15.179702890625 4.0081558107609485  C 15.273452597656252 3.9129784432879626  15.30079625 3.768229533974007  15.2422026953125 3.647274961571127  C 15.08595318359375 3.3161370533488315  14.998062832031248 2.9433590357034713  14.9980628515625 2.5527352653748037  C 14.9980628515625 1.1508519978672607  16.117199941406252 0.01467221207655283  17.498054960937502 0.01467221207655283  C 18.876956855468748 0.01467221207655283  19.998047070312495 1.1528348658860772  19.998047070312495 2.5527352653748037  C 19.998047070312495 3.954618532882347  18.878909980468748 5.0907983186730545  17.498054960937502 5.090798338501735  C 17.111337421875 5.090798338501735  16.74610419921875 5.001569555256518  16.419933359375 4.842940609468206  C 16.30079310546875 4.785437615380651  16.1582154296875 4.811214820310545  16.0644657421875 4.906392187783531  Z " fill-rule="nonzero" fill="#000000" stroke="none" transform="matrix(1 0 0 1 411 429 )" />
  </g>
</svg>