<?xml version="1.0" encoding="utf-8"?>
<svg version="1.1" xmlns:xlink="http://www.w3.org/1999/xlink" width="21px" height="18px" xmlns="http://www.w3.org/2000/svg">
  <g transform="matrix(1 0 0 1 -1386 -430 )">
    <path d="M 3.6796874999999996 0  L 17.3203125 0  C 17.7964835284167 0.08191692444596725  18.236795520862017 0.3394334986873951  18.47678571428571 0.7581818181818181  L 20.75089285714286 4.728409090909092  C 21.030032634554967 5.21530029103951  20.98612002270158 5.826892890199066  20.64040178571429 6.2672727272727276  L 12.06897321428571 17.176363636363636  C 11.687742146401058 17.66177578325159  11.110427750110603 17.944368359899265  10.5 17.944368359899265  C 9.889572249889396 17.944368359899265  9.312257853598942 17.66177578325159  8.931026785714286 17.17636363636364  L 0.35959821428571387 6.267272727272728  C 0.013879977298420243 5.826892890199067  -0.030032634554965052 5.21530029103951  0.2491071428571424 4.728409090909093  L 2.523214285714285 0.7581818181818201  C 2.7632044791379817 0.3394334986873951  3.2035164715832942 0.08191692444596688  3.6796874999999996 0  Z M 13.848214285714286 7.922448901520621  C 13.52370567095268 7.922448901520621  13.219176698728454 8.082029536024672  13.030580357142858 8.350909090909092  L 10.772544642857145 11.570454545454547  C 10.709703690101604 11.660118396924323  10.608185148974151 11.713341520769287  10.5 11.713341520769287  C 10.391814851025847 11.713341520769287  10.290296309898395 11.660118396924323  10.227455357142857 11.570454545454547  L 7.969419642857143 8.350909090909092  C 7.780823301271546 8.082029536024672  7.476294329047317 7.922448901520621  7.1517857142857135 7.922448901520621  C 6.596884412724026 7.922448901520621  6.1470480282791815 8.380464129319007  6.1470480282791815 8.945454545454545  C 6.1470480282791815 9.158645361563773  6.212463103515388 9.366509897121938  6.334151785714286 9.540000000000001  L 8.592857142857143 12.758863636363637  C 9.03281046979518 13.385953342503926  9.743110651384391 13.758117488420705  10.5 13.758117488420705  C 11.256889348615607 13.758117488420705  11.96718953020482 13.385953342503926  12.407142857142857 12.758863636363637  L 14.665848214285713 9.540000000000001  C 14.78753689648461 9.366509897121938  14.852951971720817 9.158645361563773  14.852951971720817 8.945454545454545  C 14.852951971720817 8.380464129319007  14.403115587275973 7.922448901520621  13.848214285714286 7.922448901520621  Z " fill-rule="nonzero" fill="#000000" stroke="none" transform="matrix(1 0 0 1 1386 430 )" />
  </g>
</svg>