<?xml version="1.0" encoding="utf-8"?>
<svg version="1.1" xmlns:xlink="http://www.w3.org/1999/xlink" width="400px" height="45px" xmlns="http://www.w3.org/2000/svg">
  <g transform="matrix(1 0 0 1 -787 -337 )">
    <path d="M 788 340  A 2 2 0 0 1 790 338 L 1184 338  A 2 2 0 0 1 1186 340 L 1186 379  A 2 2 0 0 1 1184 381 L 790 381  A 2 2 0 0 1 788 379 L 788 340  Z " fill-rule="nonzero" fill="#ffffff" stroke="none" />
    <path d="M 787.5 340  A 2.5 2.5 0 0 1 790 337.5 L 1184 337.5  A 2.5 2.5 0 0 1 1186.5 340 L 1186.5 379  A 2.5 2.5 0 0 1 1184 381.5 L 790 381.5  A 2.5 2.5 0 0 1 787.5 379 L 787.5 340  Z " stroke-width="1" stroke="#006cff" fill="none" stroke-opacity="0.9803921568627451" />
  </g>
</svg>