<?xml version="1.0" encoding="utf-8"?>
<svg version="1.1" xmlns:xlink="http://www.w3.org/1999/xlink" width="326px" height="45px" xmlns="http://www.w3.org/2000/svg">
  <g transform="matrix(1 0 0 1 -1193 -337 )">
    <path d="M 1194 340  A 2 2 0 0 1 1196 338 L 1516 338  A 2 2 0 0 1 1518 340 L 1518 379  A 2 2 0 0 1 1516 381 L 1196 381  A 2 2 0 0 1 1194 379 L 1194 340  Z " fill-rule="nonzero" fill="#ffffff" stroke="none" />
    <path d="M 1193.5 340  A 2.5 2.5 0 0 1 1196 337.5 L 1516 337.5  A 2.5 2.5 0 0 1 1518.5 340 L 1518.5 379  A 2.5 2.5 0 0 1 1516 381.5 L 1196 381.5  A 2.5 2.5 0 0 1 1193.5 379 L 1193.5 340  Z " stroke-width="1" stroke="#006cff" fill="none" stroke-opacity="0.9803921568627451" />
  </g>
</svg>