<?xml version="1.0" encoding="utf-8"?>
<svg version="1.1" xmlns:xlink="http://www.w3.org/1999/xlink" width="18px" height="18px" xmlns="http://www.w3.org/2000/svg">
  <g transform="matrix(1 0 0 1 -515 -430 )">
    <path d="M 14.393288352272728 3.6375541907514455  L 14.393288352272728 5  L 3.606711647727273 5  L 3.606711647727273 3.6375541907514455  L 14.393288352272728 3.6375541907514455  Z M 3.606711647727273 6.964188945086706  L 3.606711647727273 7.980265534682081  L 6.203480113636364 7.980265534682081  L 6.203480113636364 6.964188945086706  L 3.606711647727273 6.964188945086706  Z M 14.748845880681817 11.426797326589593  C 15.563831676136362 11.424765173410401  16.380814985795453 11.74178106936416  17.004039417613637 12.377845014450868  C 18.252485795454543 13.647940751445086  18.252485795454543 15.706511921965317  17.004039417613637 16.976607658959537  C 16.380814985795453 17.610639450867055  15.561834161931817 17.9296875  14.744850852272728 17.9296875  C 13.927867542613637 17.9296875  13.10888671875 17.61267160404624  12.485662286931817 16.976607658959537  C 11.357066761363637 15.828441112716764  11.249200994318183 14.03811416184971  12.160067471590908 12.765986271676299  L 7.907359730113636 8.43953215317919  L 8.614479758522727 7.720149927745666  L 9.261674360795455 8.378567557803468  L 10.701882102272728 6.913385115606936  L 11.409002130681817 7.632767341040462  L 9.968794389204545 9.097949783236995  L 10.657936789772728 9.799042630057805  L 12.09814453125 8.333860187861273  L 12.805264559659092 9.053242413294797  L 11.365056818181817 10.51842485549133  L 12.869185014204545 12.048636199421965  C 13.428488991477272 11.63407695086705  14.087668678977272 11.426797326589593  14.748845880681817 11.426797326589593  Z M 16.298916903409086 16.25722543352601  C 16.714399857954543 15.834537572254336  16.942116477272723 15.273663294797688  16.942116477272727 14.676210260115607  C 16.942116477272727 14.078757225433526  16.714399857954547 13.517882947976878  16.29891690340909 13.095195086705203  C 15.883433948863637 12.672507225433527  15.332120028409092 12.440841763005782  14.744850852272728 12.440841763005782  C 14.275435014204545 12.440841763005782  13.829989346590908 12.589188945086706  13.454456676136363 12.867593930635838  L 13.172807173295455 13.076905708092484  L 12.967063210227272 13.36343930635838  C 12.663441051136363 13.788159320809248  12.515625 14.314486994219653  12.553577769886363 14.842846820809248  C 12.591530539772728 15.377303106936413  12.819247159090908 15.879244942196532  13.190784801136363 16.25722543352601  C 13.606267755681815 16.679913294797686  14.157581676136363 16.91157875722543  14.744850852272725 16.91157875722543  C 15.332120028409086 16.91157875722543  15.883433948863633 16.679913294797686  16.298916903409086 16.25722543352601  Z M 17.948863636363637 0  L 0 0  L 0 16.322254335260116  L 9.259676846590908 16.322254335260116  L 9.259676846590908 15.30617774566474  L 1 15.30617774566474  L 1 1  L 16.95010653409091 1  L 16.95010653409091 9.189396676300579  L 17.948863636363637 9.189396676300579  L 17.948863636363637 0  Z " fill-rule="nonzero" fill="#ffffff" stroke="none" transform="matrix(1 0 0 1 515 430 )" />
  </g>
</svg>