<?xml version="1.0" encoding="utf-8"?>
<svg version="1.1" xmlns:xlink="http://www.w3.org/1999/xlink" width="18px" height="20px" xmlns="http://www.w3.org/2000/svg">
  <g transform="matrix(1 0 0 1 -725 -430 )">
    <path d="M 10.716943359375 19.98776830808081  C 10.388301082481505 19.98776830808081  10.12188387784091 19.724640204732072  10.12188387784091 19.40005523989899  L 10.12188387784091 17.05111663510101  C 10.132404844810248 16.734199376545448  10.395572598489895 16.48266314475257  10.716623757102273 16.48266314475257  C 11.037674915714652 16.48266314475257  11.300842669394298 16.734199376545448  11.311363636363637 17.05111663510101  L 11.311363636363637 19.400666824494948  C 11.311363636363637 19.725122316919194  11.044835316051136 19.987748579545457  10.716304154829547 19.987748579545457  Z M 17.85246360085227 12.939709595959595  C 17.85246360085227 13.264165088383837  17.585955255681817 13.52740293560606  17.25806329900568 13.52740293560606  L 14.87912375710227 13.52740293560606  C 14.877974552133555 13.527409511770712  14.876825330287195 13.527412799873737  14.875676106029722 13.527412799873737  C 14.547033829136224 13.527412799873737  14.28061662449563 13.264284696525003  14.28061662449563 12.939699731691919  C 14.28061662449563 12.615114766858834  14.547033829136224 12.351986663510102  14.875676106029722 12.351986663510102  C 14.876825330287195 12.351986663510102  14.877974552133555 12.351989951613124  14.87912375710227 12.351996527777779  L 17.25806329900568 12.351996527777779  C 17.58657448508523 12.351996527777779  17.85310280539773 12.615234374999996  17.85310280539773 12.939709595959595  Z M 15.72038064846039 17.294162326388893  C 15.72038064846039 17.449881252534666  15.657677286366415 17.599207345858268  15.546093749999999 17.709221117424246  C 15.434679957421354 17.819614552443493  15.283354458256564 17.881662878533117  15.125537109375001 17.881662878533117  C 14.967719760493441 17.881662878533117  14.816394261328647 17.81961455244349  14.704980468750001 17.709221117424242  L 13.02337313565341 16.048354640151516  C 12.922469925043663 15.93990218267767  12.866475392469267 15.7979837187547  12.866475392469267 15.650696410286107  C 12.866475392469267 15.326111445453027  13.132892597109858 15.062983342104289  13.461534874003357 15.062983342104289  C 13.610814521670768 15.062983342104289  13.754641352665852 15.118398566000458  13.864486416903413 15.218237058080808  L 15.546093749999999 16.879103535353536  C 15.657677286366415 16.989117306919514  15.72038064846039 17.13844340024312  15.72038064846039 17.294162326388893  Z M 7.148544034090911 0.01834753787878788  C 7.4770751953125005 0.01834753787878788  7.743603515625001 0.2815853851010101  7.743603515625001 0.6060408775252525  L 7.7436035156250025 2.9549794823232323  C 7.743610173991715 2.9561144995763162  7.743613503196023 2.957249533498497  7.743613503196023 2.9583845698022064  C 7.743613503196023 3.28296953463529  7.4771962985554286 3.5460976379840248  7.148554021661933 3.5460976379840248  C 6.8199117447684365 3.5460976379840248  6.553494540127842 3.28296953463529  6.553494540127842 2.9583845698022064  C 6.553494540127842 2.957249533498497  6.553497869332152 2.9561144995763162  6.553504527698864 2.9549794823232323  L 6.553504527698864 0.60546875  C 6.553504527698864 0.28101325757575757  6.820032848011365 0.018386994949494993  7.148564009232954 0.018386994949494993  Z M 0.012404563210227345 7.066425978535355  C 0.012404563210227345 6.741970486111111  0.2789328835227272 6.478712910353535  0.6074440696022727 6.478712910353535  L 2.985744406960228 6.478712910353535  C 3.31303559780365 6.480585788403555  3.577356237421858 6.743160129831184  3.577356237421858 7.0664161142676765  C 3.577356237421858 7.389672098704169  3.31303559780365 7.6522464401317976  2.985744406960228 7.654119318181818  L 0.6074440696022727 7.654119318181818  C 0.2790514453212895 7.653770918228627  0.013023603151371358 7.390744831474758  0.013023792613636509 7.066406250000002  Z M 2.1451267201475677 2.7119732481060606  C 2.1451267201475677 2.556254321960285  2.207830082241541 2.406928228636684  2.3194136186079555 2.296914457070707  C 2.4308025623185063 2.186708495227336  2.581995231808653 2.124779248714769  2.7396606445312504 2.124779248714769  C 2.897326057253848 2.124779248714769  3.0485187267439953 2.186708495227336  3.1599076704545457 2.2969144570707067  L 4.841534978693182 3.957761205808081  C 4.967948328427648 4.0692640440699455  5.040221621610411 4.228716059353394  5.040221621610411 4.396111033633709  C 5.040221621610411 4.720695998466791  4.773804416969818 4.983824101815527  4.44516214007632 4.983824101815527  C 4.275521862118378 4.983824101815527  4.113946092541685 4.912314722844249  4.00104092684659 4.787267203282828  L 2.319413618607954 3.1270320391414144  C 2.207830082241541 3.0170182675754376  2.1451267201475677 2.867692174251836  2.1451267201475677 2.7119732481060606  Z M 11.389466441761362 12.667889835858585  C 10.913538309134715 12.666128999848645  10.446457026569666 12.540718530099007  10.035131835937499 12.304253472222221  L 9.193998579545452 11.824909248737374  C 7.982865767045454 11.133147885101009  7.514248934659092 9.688407512626263  8.149578302556819 8.603614267676768  C 8.252389961254256 8.41025848347551  8.455281298440731 8.289154691078558  8.676408410221644 8.289154691078558  C 9.00505068711514 8.289154691078558  9.271467891755735 8.552282794427294  9.271467891755735 8.876867759260376  C 9.271467891755735 8.988202755794571  9.239448411667263 9.097247608682551  9.179137073863636 9.191307607323232  C 8.872318892045454 9.7159485479798  9.146277965198863 10.440163352272728  9.789677290482954 10.807469223484848  L 10.630171342329545 11.286813446969697  C 11.273570667613637 11.65411931818182  12.047108043323863 11.52493686868687  12.353306995738638 11.000315656565656  L 16.621495472301135 3.698192866161615  C 16.763438831676137 3.4557686237373724  16.785131835937502 3.160688920454544  16.684097567471593 2.8662405303030294  C 16.57437411221591 2.5448429608585847  16.3351318359375 2.266295770202019  16.01093528053977 2.0808080808080796  L 15.170461203835226 1.6026870265151503  C 14.846903852982953 1.4171993371212108  14.484315074573862 1.3529237689393927  14.145257013494318 1.4190340909090895  C 13.835941938920453 1.4802517361111098  13.58801047585227 1.6467803030303019  13.447325550426138 1.888573232323231  L 11.494835316051137 5.2292653093434325  C 11.386565117724192 5.4032100935272  11.194643129377944 5.509187931093244  10.987905684505883 5.509187931093244  C 10.65926340761239 5.509187931093244  10.392846202971795 5.24605982774451  10.392846202971795 4.921474862911427  C 10.392846202971795 4.8237192473125265  10.417535139301023 4.727507536966115  10.464677290482957 4.641552241161614  L 12.417147549715908 1.3008996212121213  C 12.73201571377841 0.7621922348484849  13.263214666193184 0.39488636363636365  13.912187056107959 0.2663352272727273  C 14.548591692558913 0.14650360024374706  15.207401113803408 0.25966006501802985  15.765480735085228 0.5846551452020202  L 16.605375532670458 1.0639993686868685  C 17.179960493607958 1.3914930555555558  17.60888671875 1.8983980429292928  17.81095525568182 2.490372474747475  C 18.021693004261365 3.1092960858585856  17.96590243252841 3.7471788194444446  17.651034268465914 4.285294349747474  L 13.382226562500001 11.587417140151516  C 12.974374112215909 12.285905934343432  12.207648259943184 12.66790956439394  11.389466441761364 12.66790956439394  Z " fill-rule="nonzero" fill="#000000" stroke="none" transform="matrix(1 0 0 1 725 430 )" />
  </g>
</svg>