<?xml version="1.0" encoding="utf-8"?>
<svg version="1.1" xmlns:xlink="http://www.w3.org/1999/xlink" width="10px" height="13px" xmlns="http://www.w3.org/2000/svg">
  <g transform="matrix(1 0 0 1 -727 -436 )">
    <path d="M 3.5242382812499997 12.942809664818549  C 3.057673065154 12.940499096424823  2.5999102689398685 12.80945462100863  2.196972656249999 12.562851247479836  L 1.3751562499999992 12.065338331653225  C 0.19091796874999928 11.348626512096773  -0.2672656250000003 9.847856287802419  0.3533398437499993 8.721945879536289  L 4.526660156249999 1.1424347908266106  C 5.147265625 0.01652438256048104  6.61513671875 -0.317689957157261  7.80060546875 0.3990218623991907  L 8.622421874999999 0.8965347782258045  C 9.807265625 1.613881363407256  10.264843749999999 3.1133820564516106  9.644843749999998 4.239927230342741  C 9.53896106649876 4.420379144134722  9.351350863707367 4.530308940447826  9.149267724692345 4.530308940447826  C 8.82792860950759 4.530308940447826  8.567431787192346 4.257207433181841  8.567431787192346 3.9203196511333087  C 8.567431787192346 3.8189247479835404  8.59154071516153 3.719129116602278  8.637578124999997 3.629958417338708  C 8.938164062499999 3.0854318926411266  8.6703125 2.333132245463707  8.041816406249998 1.9525390624999983  L 7.21939453125 1.4543913810483862  C 6.590292968749999 1.073163432459676  5.834550781249998 1.2078566028225783  5.534550781249998 1.7517688382056449  L 1.36060546875 9.330645161290324  C 1.0606054687500004 9.8758064516129  1.3278710937500002 10.628740864415324  1.957578125 11.008699281754033  L 2.779394531249999 11.506212197580645  C 3.0963671874999985 11.698075226814517  3.452734375 11.765442288306451  3.7818164062499986 11.696826171875  C 4.084843749999999 11.63328818044355  4.327265625 11.459833354334679  4.46484375 11.20948998235887  L 6.3739453125 7.74217489919355  C 6.475646600159353 7.545338054968726  6.672018915334636 7.422718201969407  6.885546408877952 7.422718201969407  C 7.206885524062702 7.422718201969407  7.467382346377951 7.695819709235393  7.467382346377951 8.03270749128392  C 7.467382346377951 8.145497392707275  7.437553726091606 8.25607876352977  7.381210937500001 8.352164188508066  L 5.47212890625 11.818803553427422  C 5.16302734375 12.377950163810485  4.6448437500000015 12.75919858870968  4.0096875 12.892622227822585  C 3.850038744227209 12.926014584757116  3.687638780986193 12.942825027138412  3.5248437500000005 12.94280966481855  Z " fill-rule="nonzero" fill="#000000" stroke="none" transform="matrix(1 0 0 1 727 436 )" />
  </g>
</svg>