<?xml version="1.0" encoding="utf-8"?>
<svg version="1.1" xmlns:xlink="http://www.w3.org/1999/xlink" width="17px" height="18px" xmlns="http://www.w3.org/2000/svg">
  <g transform="matrix(1 0 0 1 -622 -430 )">
    <path d="M 11.944343373493977 11.974576271186441  C 12.174889726519568 11.839191290915746  12.423538838922026 11.73682409927118  12.68292168674699 11.67050847457627  L 12.682921686746987 11.58081355932203  C 12.682921686746983 11.18830759584483  13.003346906257393 10.870118644067793  13.398611445783132 10.870118644067793  C 13.793875985308865 10.870118644067793  14.114301204819274 11.18830759584483  14.114301204819274 11.58081355932203  L 14.114301204819274 11.67050847457627  C 14.373721134237558 11.736713867846662  14.62238550429698 11.839087340967481  14.852879518072287 11.974576271186441  L 14.91729518072289 11.910610169491527  C 15.050724573984096 11.783000324321598  15.228764942746874 11.711706916619404  15.41401443753543 11.711706916619404  C 15.8094769345468 11.711706916619404  16.13006263030651 12.03005522467192  16.13006263030651 12.42275776407703  C 16.13006263030651 12.606888531670513  16.058132519644424 12.783839743313466  15.929409638554215 12.916372881355931  L 15.864993975903614 12.979627118644068  C 16.001479430469864 13.208502566095918  16.104607500515456 13.455432989337783  16.17130120481928 13.713050847457627  L 16.26142168674699 13.713050847457627  C 16.650908248984585 13.721064727354074  16.96243589350706 14.036894436350295  16.96243589350706 14.42374576271186  C 16.96243589350706 14.810597089073429  16.650908248984585 15.126426798069653  16.26142168674699 15.1344406779661  L 16.17130120481928 15.1344406779661  C 16.104551224170645 15.392039865501038  16.001426365373845 15.63896259971095  15.864993975903614 15.86786440677966  L 15.929409638554215 15.931830508474574  C 16.057119264687056 16.064197646728783  16.128414101830984 16.240428849251  16.128414101830984 16.423742647915393  C 16.128414101830984 16.8164451873205  15.807828406071268 17.134793495373017  15.412365909059902 17.134793495373017  C 15.2275633834264 17.134793495373017  15.049916929054724 17.06384283850423  14.916578313253009 16.936779661016946  L 14.85287951807229 16.872915254237284  C 14.622327780952752 17.008313692671564  14.373681638269737 17.11071389781236  14.114301204819277 17.177084745762706  L 14.114301204819274 17.266576271186434  C 14.114301204819274 17.659082234663643  13.793875985308865 17.977271186440674  13.398611445783132 17.977271186440674  C 13.003346906257393 17.977271186440674  12.682921686746987 17.65908223466364  12.68292168674699 17.266576271186434  L 12.68292168674699 17.177084745762706  C 12.423534729341508 17.110733275230974  12.174885909461217 17.008331967537185  11.944343373493977 16.872915254237284  L 11.879825301204821 16.936779661016946  C 11.746065606783265 17.066897010713014  11.566277936098704 17.139772691555482  11.379032118845227 17.139772691555482  C 10.983795858960294 17.139772691555482  10.663393564628361 16.821606504960663  10.663393564628361 16.429128623758874  C 10.663393564628361 16.24318960682521  10.73678142395065 16.0646566855871  10.86781325301205 15.931830508474574  L 10.932228915662652 15.867864406779663  C 10.795910841087393 15.63891791528617  10.692825311492761 15.392006799776935  10.626024096385542 15.1344406779661  L 10.535698795180723 15.134440677966099  C 10.146212232943121 15.126426798069653  9.834684588420648 14.81059708907343  9.834684588420648 14.42374576271186  C 9.834684588420648 14.036894436350291  10.146212232943125 13.721064727354074  10.535698795180723 13.713050847457627  L 10.626024096385542 13.713050847457627  C 10.692656755194164 13.455428815774583  10.795751892284695 13.208494688330116  10.932228915662652 12.979627118644068  L 10.867813253012049 12.915559322033896  C 10.733683055709747 12.782257400161939  10.658338616943862 12.601525901332861  10.658338616943862 12.41308474576271  C 10.658338616943862 12.020468800243208  10.978853621128453 11.702190690404867  11.374228915662654 11.702190690404867  C 11.564195202772881 11.702190690404867  11.746372489663598 11.77716723247399  11.880644578313255 11.910610169491527  L 11.944343373493977 11.974576271186441  Z M 9.125927710843373 15.389694915254243  C 9.125153064049089 16.001891543143692  9.214053552415377 16.610945071550933  9.38983734939759 17.197728813559323  L 0.9330542168674699 17.19772881355932  C 0.43032218708409625 17.19767266110039  0.022791486863761715 16.792986143234536  0.022734939759036187 16.293762711864407  L 0.022734939759036187 15.389796610169494  C 0.02232530120481932 11.39583050847458  3.28243373493976 8.15776271186441  7.304469879518071 8.157254237288138  C 9.095936097295532 8.157095745233516  10.824617773148109 8.812598509384184  12.160018072289157 9.998440677966103  C 10.273650922282542 11.149594979015232  9.124760934760705 13.191049674007742  9.125927710843373 15.389694915254243  Z M 10.946361445783134 4.090372881355932  C 10.946361445783134 6.336711864406779  9.317024096385545 8.158169491525424  7.305186746987952 8.158169491525424  C 5.293349397590362 8.158169491525424  3.6639096385542174 6.336711864406779  3.6639096385542174 4.090372881355932  C 3.6639096385542174 1.8440338983050835  5.293349397590362 0.022576271186439727  7.305186746987952 0.022576271186439727  C 9.317024096385545 0.022576271186439727  10.946361445783134 1.8440338983050835  10.946361445783134 4.090372881355932  Z M 11.967590361445785 14.424203389830508  C 11.968000000000002 15.208881355932203  12.608469879518076 15.844881355932202  13.398662650602411 15.845186440677963  C 14.189265060240963 15.845491525423727  14.83024698795181 15.209389830508474  14.830554216867469 14.424203389830508  C 14.83096385542169 13.639220338983051  14.190289156626509 13.002610169491524  13.399686746987951 13.00230508474576  L 13.398560240963855 13.00230508474576  C 12.607957831325303 13.002711864406779  11.967283132530119 13.639322033898305  11.967590361445785 14.424203389830508  Z " fill-rule="nonzero" fill="#ffffff" stroke="none" transform="matrix(1 0 0 1 622 430 )" />
  </g>
</svg>