<?xml version="1.0" encoding="utf-8"?>
<svg version="1.1" xmlns:xlink="http://www.w3.org/1999/xlink" width="13px" height="18px" xmlns="http://www.w3.org/2000/svg">
  <g transform="matrix(1 0 0 1 -322 -430 )">
    <path d="M 11.35655212402344 17.843524205202314  C 10.740631103515625 16.99306809971098  10.36572265625 15.932284140173412  10.36572265625 14.789197976878611  C 10.36572265625 13.61867774566474  10.749557495117188 12.54874909682081  11.392257690429688 11.689148302023122  C 11.25836181640625 11.597701408959539  11.1512451171875 11.497109826589597  11.070887756347656 11.405662933526013  C 10.936991882324218 11.259347904624278  10.83880157470703 11.1221775650289  10.794169616699218 10.975862536127169  C 10.740611267089841 10.829547507225433  10.713832092285156 10.683232478323701  10.713832092285156 10.52777276011561  C 10.713832092285156 10.372313041907518  10.72275848388672 10.207708634393066  10.73168487548828 10.0248148482659  C 10.758464050292968 9.741329479768789  10.847727966308593 9.521856936416189  10.999476623535156 9.366397218208096  C 11.16015167236328 9.210937500000002  11.329753112792968 9.055477781791911  11.526133728027343 8.881728684971101  C 11.62432403564453 8.799426481213874  11.704681396484371 8.680545520231217  11.776092529296873 8.534230491329481  C 11.847503662109375 8.387915462427747  11.909988403320309 8.232455744219655  11.963546752929688 8.076996026011562  C 12.026031494140625 7.903246929190753  12.07958984375 7.711208453757227  12.142094421386718 7.528294346098268  C 12.22243194580078 7.500860278179193  12.302769470214843 7.46428152095376  12.39205322265625 7.40026869580925  C 12.46346435546875 7.3454005599711  12.53487548828125 7.253953666907516  12.615213012695312 7.153362084537575  C 12.695550537109371 7.043605491329482  12.766961669921875 6.888166094653181  12.829446411132809 6.686982929913298  C 12.891931152343746 6.485799765173414  12.909783935546871 6.302905979046246  12.891931152343746 6.147446260838153  C 12.874078369140621 5.982841853323702  12.847299194335934 5.845671513728325  12.793740844726559 5.726790552745667  C 12.749108886718746 5.589620213150292  12.677697753906246 5.470718930635841  12.579507446289059 5.351858291184975  C 12.588433837890625 4.903768515173413  12.570581054687496 4.446534049855494  12.508096313476559 3.998464595375726  C 12.463464355468746 3.614387644508674  12.374200439453121 3.212021315028905  12.258137512207027 2.7822209176300614  C 12.133168029785155 2.3524205202312167  11.954640197753905 1.9683435693641655  11.731480407714843 1.6208453757225465  C 11.50832061767578 1.3007812500000033  11.26728820800781 1.0355852601156104  10.990589904785153 0.8252574060693671  C 10.713871765136716 0.6149295520231246  10.446080017089841 0.4503251445086735  10.160435485839841 0.3314441835260147  C 9.874790954589841 0.2125632225433559  9.606999206542966 0.1302610187861303  9.312428283691403 0.07537256141618821  C 9.035710144042964 0.038773482658962716  8.758992004394528 0.011359736271679553  8.491180419921871 0.011359736271679553  L 8.491180419921871 0.020504425578037937  C 8.446548461914059 0.011359736271679553  8.401916503906246 0.011359736271679553  8.366210937499996 0.011359736271679553  C 8.098419189453121 0.011359736271679553  7.821701049804685 0.038793804190754705  7.536056518554683 0.08451725072254661  C 7.250411987304685 0.1393853865606969  6.973693847656246 0.22168759031792235  6.688049316406246 0.34058887283237327  C 6.411331176757808 0.4594698338150318  6.134613037109372 0.6240742413294831  5.857894897460933 0.8344020953757258  C 5.581176757812496 1.0447299494219684  5.340164184570308 1.3099462608381531  5.117004394531245 1.6299900650289048  C 4.88491821289062 1.9683435693641649  4.70639038085937 2.3615652095375754  4.590347290039057 2.791365606936419  C 4.474304199218745 3.2120213150289048  4.38504028320312 3.614387644508674  4.340388488769526 3.998484916907517  C 4.277903747558589 4.455719382225436  4.260050964355464 4.903809158236998  4.268977355957026 5.3518786127167655  C 4.170787048339839 5.470759573699425  4.099375915527339 5.598785223988441  4.054743957519526 5.72681087427746  C 4.010111999511714 5.845691835260119  3.9744064331054627 5.982882496387286  3.956553649902338 6.147466582369944  C 3.938700866699213 6.312070989884396  3.956553649902338 6.494964776011564  4.019038391113275 6.68700325144509  C 4.081523132324213 6.888186416184972  4.144007873535151 7.043646134393066  4.233271789550776 7.153382406069365  C 4.313609313964839 7.2631389992774595  4.393946838378901 7.345420881502892  4.4653579711914 7.409454028179194  C 4.545695495605464 7.473466853323701  4.626033020019526 7.510045610549135  4.706370544433588 7.537479678468211  C 4.768855285644524 7.729518153901737  4.8224136352539 7.912411940028905  4.884918212890618 8.086140715317923  C 4.947402954101555 8.241600433526015  5.000961303710931 8.387915462427749  5.07237243652343 8.543375180635842  C 5.143783569335931 8.689690209537575  5.224121093749992 8.808571170520235  5.313385009765618 8.89087337427746  C 5.509765624999991 9.055477781791911  5.688293457031241 9.220102510838155  5.840042114257805 9.375541907514455  C 6.00071716308593 9.531001625722546  6.0900009155273365 9.750474169075149  6.10783386230468 10.033959537572256  C 6.116760253906243 10.216873645231217  6.125686645507805 10.381457731213876  6.125686645507805 10.536917449421967  C 6.125686645507805 10.692377167630061  6.098907470703125 10.83869219653179  6.04534912109375 10.985007225433526  C 5.991790771484375 11.131322254335263  5.90252685546875 11.268492593930638  5.7686309814453125 11.41480762283237  C 5.634735107421875 11.561122651734102  5.4472610473632805 11.707437680635836  5.206268310546874 11.86289739884393  C 4.902770996093749 12.064080563583813  4.554641723632812 12.219540281791904  4.152954101562499 12.329276553468208  C 3.7512664794921866 12.439012825144507  2.0016937255859366 13.05170700867052  1.6267852783203118 13.188877348265896  C 1.2518768310546868 13.31690299855491  0.9216003417968743 13.49979678468208  0.6448822021484368 13.719269328034683  C 0.3681640625 13.938741871387284  0.1985626220703125 14.277095375722544  0.12715148925781233 14.716040462427745  C 0.01110839843749982 15.475049674855493  -0.01567077636718768 15.603075325144507  0.04681396484375 16.087743858381504  C 0.1092987060546875 16.572412391618496  0.20748901367187483 16.865042449421967  0.33245849609375 16.95648934248555  C 0.4395553588867187 17.038791546242773  0.7341461181640625 17.13940345014451  1.2340240478515625 17.24911940028902  C 1.733901977539063 17.358835350433523  4.8670654296875 17.97154985549133  8.50010681152344 17.97154985549133  C 9.508789062500002 17.96240516618497  10.481765747070312 17.916681719653177  11.35655212402344 17.843524205202314  Z " fill-rule="nonzero" fill="#ffffff" stroke="none" transform="matrix(1 0 0 1 322 430 )" />
  </g>
</svg>