<?xml version="1.0" encoding="utf-8"?>
<svg version="1.1" xmlns:xlink="http://www.w3.org/1999/xlink" width="7px" height="7px" xmlns="http://www.w3.org/2000/svg">
  <g transform="matrix(1 0 0 1 -333 -441 )">
    <path d="M 6.899739583333334 3.485121783088235  C 6.899739583333334 1.5670582490808835  5.366092051630436 0.010857077205883815  3.4758265398550723 0.010857077205883815  C 1.5855213994565236 0.010857077205883815  0.051913496376813036 1.5670582490808835  0.051913496376813036 3.485121783088235  C 0.051913496376813036 5.403185317095588  1.5855610280797112 6.959386488970588  3.4758265398550723 6.959386488970588  C 5.366092051630436 6.959386488970588  6.899739583333334 5.403185317095588  6.899739583333334 3.485121783088235  Z M 3.110252490942029 5.593204273897059  C 3.110252490942029 5.7922506893382355  2.949756567028986 5.95510684742647  2.753594882246377 5.95510684742647  C 2.557433197463768 5.95510684742647  2.3969372735507246 5.7922506893382355  2.3969372735507246 5.593204273897059  C 2.3969372735507246 5.394157858455882  2.557433197463768 5.231301700367647  2.753594882246377 5.231301700367647  C 2.949756567028986 5.231301700367647  3.110252490942029 5.394157858455882  3.110252490942029 5.593204273897059  Z M 5.312633038949274 5.593204273897059  C 5.312633038949274 5.7922506893382355  5.15213711503623 5.95510684742647  4.955975430253622 5.95510684742647  C 4.759813745471012 5.95510684742647  4.599317821557969 5.7922506893382355  4.599317821557969 5.593204273897059  C 4.599317821557969 5.394157858455882  4.759813745471012 5.231301700367647  4.955975430253622 5.231301700367647  C 5.15213711503623 5.231301700367647  5.312633038949274 5.394157858455882  5.312633038949274 5.593204273897059  Z M 5.268031023550725 5.16796875  L 2.7179291213768115 5.16796875  C 2.4682489809782626 5.16796875  2.2453577898550723 4.968922334558823  2.218608469202899 4.7155905330882355  L 1.9511152626811592 2.8065544577205883  L 1.799535778985507 1.910845588235294  C 1.790619338768116 1.847512637867647  1.737120697463768 1.811322380514706  1.6925186820652192 1.811322380514706  L 1.4963569972826105 1.811322380514706  C 1.398276154891306 1.811322380514706  1.2912788722826105 1.7298943014705883  1.2912788722826105 1.6032284007352942  C 1.2912788722826105 1.4856100643382353  1.3804432744565236 1.3951344209558825  1.4963569972826105 1.3951344209558825  L 1.6925186820652192 1.3951344209558825  C 1.942159193840583 1.3951344209558825  2.1650900135869584 1.5941808363970589  2.2007557744565234 1.847512637867647  L 2.3523352581521757 2.743221507352938  L 2.619828464673915 4.670352711397059  C 2.628744904891306 4.7155905330882355  2.664410665760871 4.769875919117647  2.708992866847828 4.769875919117647  L 5.259094769021741 4.769875919117647  C 5.375008491847828 4.769875919117647  5.464172894021741 4.8603515625  5.464172894021741 4.977969898897059  C 5.473089334239132 5.077493106617647  5.375008491847828 5.16796875  5.268011209239132 5.16796875  Z M 5.78518455615942 2.453719554227942  L 5.544440670289855 3.9013298483455894  C 5.517691349637682 4.145614085477942  5.294760529891306 4.353708065257354  5.045120018115942 4.353708065257354  L 2.905174365942029 4.525611787683822  C 2.789260643115942 4.525611787683822  2.70901268115942 4.444183708639707  2.6911798007246377 4.335612936580881  C 2.682263360507246 4.290375114889704  2.700096240942029 4.236089728860292  2.726865375905798 4.190851907169115  C 2.7625509510869586 4.1456140854779395  2.816029778079711 4.109423828124998  2.8784448596014505 4.100376263786763  L 5.009474071557972 3.937520105698528  C 5.071889153079709 3.937520105698528  5.107554913949277 3.892282284007351  5.11649116847826 3.847044462316175  L 5.357235054347825 2.399434168198528  C 5.366151494565217 2.354196346507351  5.348318614130432 2.308958524816175  5.330485733695651 2.281815831801466  C 5.321569293478258 2.272768267463231  5.312652853260869 2.2637207031249984  5.285903532608695 2.2637207031249984  L 2.5753057065217386 2.2637207031249984  C 2.4772248641304344 2.2637207031249984  2.3702275815217386 2.1822926240808806  2.3702275815217386 2.0556267233455836  C 2.3702275815217386 1.9380083869485247  2.4593919836956513 1.8475327435661717  2.5753057065217386 1.8475327435661717  L 5.294819972826087 1.8475327435661717  C 5.428566576086956 1.8475327435661717  5.5533967391304335 1.9018181295955865  5.6425611413043475 2.0013413373161715  C 5.767391304347822 2.128007238051466  5.811973505434779 2.2908633961397014  5.785224184782608 2.4537195542279364  Z " fill-rule="nonzero" fill="#ffffff" stroke="none" transform="matrix(1 0 0 1 333 441 )" />
  </g>
</svg>