<?xml version="1.0" encoding="utf-8"?>
<svg version="1.1" xmlns:xlink="http://www.w3.org/1999/xlink" width="18px" height="18px" xmlns="http://www.w3.org/2000/svg">
  <g transform="matrix(1 0 0 1 -818 -430 )">
    <path d="M 8.89558383233533 14.537946428571429  C 8.89558383233533 12.581333705357142  9.956586826347305 10.865373883928571  11.539670658682635 9.932059151785714  C 11.453358907185628 9.89857700892857  11.360731661676649 9.879743303571429  11.263894086826346 9.879743303571429  L 4.062125748502994 9.879743303571429  C 2.9905969311377243 9.879743303571429  1.9801178892215567 10.268973214285714  1.2159431137724555 10.974190848214285  C 0.4370321856287429 11.694056919642854  0.009683757485030323 12.654575892857139  0.009683757485030323 13.679966517857142  L 0.009683757485030323 16.5908203125  C 0.009683757485030323 17.007254464285715  0.34861526946107824 17.344168526785715  0.7675430389221561 17.344168526785715  L 9.695546407185628 17.344168526785715  C 9.188201721556887 16.528041294642858  8.89558383233533 15.5654296875  8.89558383233533 14.537946428571429  Z M 15.215288173652695 9.1640625  L 17.147829341317365 9.1640625  C 17.566757110778443 9.1640625  17.90568862275449 8.8271484375  17.90568862275449 8.410714285714286  C 17.90568862275449 7.994280133928573  17.566757110778443 7.657366071428573  17.147829341317365 7.657366071428573  L 15.215288173652695 7.657366071428573  L 15.215288173652695 6.272042410714286  L 17.147829341317365 6.272042410714286  C 17.566757110778443 6.272042410714286  17.90568862275449 5.9351283482142865  17.90568862275449 5.518694196428571  C 17.90568862275449 5.102260044642857  17.566757110778443 4.765345982142857  17.147829341317365 4.765345982142857  L 14.45742889221557 4.765345982142857  C 14.03850112275449 4.765345982142857  13.699569610778443 5.102260044642857  13.699569610778443 5.518694196428571  L 13.699569610778443 11.22530691964286  C 12.162799401197605 11.568498883928571  11.009169161676645 12.937081473214286  11.009169161676645 14.5693359375  C 11.009169161676645 16.458984375  12.55646519461078 17.9970703125  14.45742889221557 17.9970703125  C 16.358392589820358 17.9970703125  17.90568862275449 16.458984375  17.90568862275449 14.5693359375  C 17.90568862275449 12.939174107142858  16.754163547904188 11.570591517857144  15.215288173652695 11.22530691964286  L 15.215288173652695 9.1640625  Z M 14.45742889221557 12.646205357142858  C 15.52264221556886 12.646205357142858  16.389970059880238 13.508370535714286  16.389970059880238 14.567243303571432  C 16.389970059880238 15.626116071428573  15.522642215568862 16.48828125  14.45742889221557 16.48828125  C 13.392215568862278 16.48828125  12.524887724550897 15.626116071428571  12.524887724550897 14.567243303571427  C 12.524887724550897 13.508370535714286  13.392215568862275 12.646205357142858  14.45742889221557 12.646205357142858  Z M 3.942131362275448 4.141741071428571  C 3.942131362275448 6.401785714285714  5.79257110778443 8.2412109375  8.066148952095809 8.2412109375  C 10.339726796407186 8.2412109375  12.190166541916167 6.401785714285715  12.190166541916167 4.141741071428572  C 12.190166541916167 1.8816964285714293  10.339726796407186 0.042271205357142856  8.066148952095809 0.042271205357142856  C 5.79257110778443 0.042271205357142856  3.942131362275448 1.8816964285714286  3.942131362275448 4.141741071428571  Z M 5.457849925149702 4.141741071428572  C 5.457849925149702 2.7124720982142874  6.628321482035929 1.5489676339285723  8.066148952095809 1.5489676339285714  C 9.50397642215569 1.5489676339285714  10.674447979041915 2.7124720982142856  10.674447979041915 4.141741071428572  C 10.674447979041915 5.57101004464286  9.50397642215569 6.734514508928571  8.06614895209581 6.734514508928571  C 6.628321482035929 6.734514508928571  5.457849925149702 5.571010044642858  5.457849925149702 4.141741071428572  Z " fill-rule="nonzero" fill="#ffffff" stroke="none" transform="matrix(1 0 0 1 818 430 )" />
  </g>
</svg>