<?xml version="1.0" encoding="utf-8"?>
<svg version="1.1" xmlns:xlink="http://www.w3.org/1999/xlink" width="8px" height="8px" xmlns="http://www.w3.org/2000/svg">
  <g transform="matrix(1 0 0 1 -909 -439 )">
    <path d="M 6.992775974025973 4.4487458881578945  L 6.992775974025973 3.5388774671052645  L 7.890848214285713 2.856517269736842  C 8.003124999999999 2.742763157894736  8.003124999999999 2.742763157894736  7.890848214285713 2.6290090460526314  L 7.105073051948053 1.2642475328947345  C 7.105073051948053 1.2642475328947345  6.992775974025973 1.1504934210526285  6.880580357142857 1.2642475328947345  L 5.8702313311688314 1.7192023026315768  C 5.645758928571429 1.6054276315789464  5.421205357142856 1.4916735197368407  5.196732954545454 1.2642269736842084  L 4.972159090909089 0.12693256578947248  C 4.972159090909089 0.013178453947366626  4.859963474025973 0.013178453947366626  4.747686688311687 0.013178453947366626  L 3.17609577922078 0.013178453947366626  C 3.0638189935064934 0.013178453947366626  2.9515422077922073 0.12693256578947248  2.9515422077922073 0.12693256578947248  L 2.839366883116882 1.2642475328947345  C 2.6147930194805187 1.3779194078947348  2.3903003246753234 1.4916735197368407  2.1657467532467507 1.7192023026315768  L 1.1554991883116859 1.2642269736842084  C 1.043222402597401 1.2642269736842084  0.931026785714284 1.2642269736842084  0.8187499999999976 1.3779194078947348  L 0.032954545454542794 2.7427631578947342  C 0.032954545454542794 2.7427631578947342  0.032954545454542794 2.85651726973684  0.1451501623376585 2.9702713815789448  L 1.0432224025973982 3.6526315789473673  L 1.0432224025973982 4.562520559210524  L 0.1451501623376585 5.244880756578943  C 0.03293425324675089 5.358634868421048  0.03293425324675089 5.358634868421048  0.1451501623376585 5.472327302631575  L 0.931006493506495 6.837171052631579  C 0.931006493506495 6.837171052631579  1.0432021103896107 6.950925164473685  1.155478896103897 6.837171052631579  L 2.1657264610389606 6.382236842105263  C 2.3903003246753265 6.495990953947368  2.6147930194805187 6.6097450657894745  2.8393465909090914 6.837171052631579  L 2.951521915584417 7.860731907894735  C 2.951521915584417 7.974486019736841  3.063798701298703 7.974486019736841  3.1760754870129895 7.974486019736841  L 4.747666396103899 7.974486019736841  C 4.859943181818182 7.974486019736841  4.972138798701301 7.860731907894735  4.972138798701301 7.860731907894735  L 5.084415584415587 6.837171052631576  C 5.308989448051951 6.72341694078947  5.533482142857146 6.609745065789471  5.7579342532467575 6.38223684210526  L 6.76828327922078 6.837171052631576  C 6.880560064935067 6.837171052631576  6.992755681818186 6.837171052631576  6.992755681818186 6.72341694078947  L 7.778551136363639 5.358655427631579  L 7.778551136363639 5.131147203947367  L 6.992755681818186 4.448787006578943  Z M 5.421205357142856 3.993811677631578  C 5.421205357142856 4.789946546052632  4.74770698051948 5.358634868421052  3.961891233766233 5.358634868421052  C 3.17609577922078 5.358634868421052  2.5026176948051937 4.6761924342105265  2.5026176948051937 3.993811677631578  C 2.5026176948051937 3.197697368421054  3.17611607142857 2.6290090460526314  3.961891233766233 2.6290090460526314  C 4.747666396103899 2.6290090460526314  5.421205357142856 3.3114514802631567  5.421205357142856 3.993811677631578  Z " fill-rule="nonzero" fill="#000000" stroke="none" transform="matrix(1 0 0 1 909 439 )" />
  </g>
</svg>