<?xml version="1.0" encoding="utf-8"?>
<svg version="1.1" xmlns:xlink="http://www.w3.org/1999/xlink" width="18px" height="14px" xmlns="http://www.w3.org/2000/svg">
  <g transform="matrix(1 0 0 1 -898 -432 )">
    <path d="M 17.456091832822086 4.1243133544921875  L 15.784466065950921 4.1243133544921875  C 15.702636119631904 4.1243133544921875  15.63249616564417 4.147470092773436  15.562377779907978 4.182247924804686  L 14.802549846625766 1.9244659423828119  C 14.557038439417177 0.6393096923828119  13.656909029907975 0.025613403320311257  12.534734470858897 0.025613403320311257  L 5.4272191334355835 0.025613403320311257  C 4.141341545245399 0.025613403320311257  3.3580689225460123 0.8592132568359364  3.159403757668711 1.9244659423828119  L 2.399575824386503 4.182247924804686  C 2.3293711656441713 4.147470092773436  2.2476274923312882 4.112777709960936  2.165775977760736 4.112777709960936  L 0.4941286426380368 4.112777709960936  C 0.23690567484662567 4.112777709960936  0.026485812883435426 4.321188354492187  0.026485812883435426 4.575869750976562  L 0.026485812883435426 4.981134033203124  C 0.026485812883435426 5.235836791992186  0.23690567484662567 5.444226074218749  0.4941286426380368 5.444226074218749  L 1.1253666602760732 5.548452758789062  C 0.9266583588957054 5.930474853515624  0.8097152990797543 6.382052612304687  0.8097152990797543 6.891500854492187  L 0.5759154524539875 9.55450439453125  C 0.5759154524539875 9.635552978515625  0.5759154524539875 9.705023193359377  0.587605444785276 9.786071777343752  C 0.5758938842024537 9.832363891601565  0.5758938842024537 9.878741455078126  0.5758938842024537 9.936590576171877  L 0.5758938842024537 13.13219909667969  C 0.5758938842024537 13.583776855468752  0.9499952070552145 13.954306030273441  1.4059264762269938 13.954306030273441  L 2.680135640337423 13.954306030273441  C 3.1360022047546012 13.954306030273441  3.510081959355828 13.583776855468752  3.510081959355828 13.13219909667969  L 3.510081959355828 12.10174560546875  L 10.325304351993863 12.10174560546875  C 10.07977137653374 12.10174560546875  8.969308378067483 5.513674926757814  16.83656537576687 5.536874389648439  C 17.023605253067487 5.536874389648439  17.456091832822086 5.432626342773439  17.456091832822086 5.432626342773439  C 17.713314800613496 5.432626342773439  17.92373466257669 5.224215698242189  17.92373466257669 4.969555664062501  L 17.92373466257669 4.56427001953125  C 17.92373466257669 4.321145629882813  17.713314800613496 4.1242919921875005  17.456091832822086 4.1242919921875005  Z M 3.521771951687117 4.460107421874999  L 3.7204586848159513 3.6496215820312488  L 4.269909892638037 2.1907470703124985  L 4.281621453220859 2.1560546874999984  C 4.340028278374235 1.8665954589843734  4.456928201687117 1.8086608886718731  4.643989647239264 1.5771362304687484  L 13.329567676380368 1.5771362304687484  C 13.51658598542945 1.8086608886718731  13.621817484662577 1.8665954589843734  13.68026744631902 2.1444549560546857  L 14.241365509969325 3.6496215820312488  L 14.45185007668712 4.460107421874999  C 14.405046970858898 5.062097167968749  13.68026744631902 5.525274658203124  13.084077837423314 5.525274658203124  L 4.889457917944785 5.525274658203124  C 4.281664589723927 5.525274658203124  3.5685966257668715 5.0506042480468745  3.521771951687117 4.460107421874999  Z M 5.368790740030675 9.357693481445311  C 5.368790740030675 10.040859985351561  4.807692676380368 10.596578979492186  4.10625 10.596578979492186  C 3.404915164877301 10.596578979492186  2.8437308282208598 10.040859985351561  2.8437308282208598 9.346115112304688  C 2.8437308282208598 8.651455688476561  3.4166051572085894 8.107229614257813  4.10625 8.107229614257813  C 4.79600268404908 8.107229614257813  5.368790740030675 8.663034057617187  5.368790740030675 9.357693481445311  Z M 9.740804735429448 9.681930541992186  C 9.740804735429448 9.890319824218748  9.623904812116564 10.052352905273438  9.483668040644172 10.052352905273438  L 7.110578029141105 10.052352905273438  C 6.970298121165643 10.052352905273438  6.853419766104294 9.890319824218748  6.853419766104294 9.681930541992186  L 6.853419766104294 8.63985595703125  C 6.853419766104294 8.431466674804687  6.970298121165643 8.269348144531248  7.110578029141105 8.269348144531248  L 9.483668040644172 8.269348144531248  C 9.623926380368097 8.269348144531248  9.740804735429448 8.431466674804687  9.740804735429448 8.63985595703125  L 9.740804735429448 9.681909179687498  Z " fill-rule="nonzero" fill="#000000" stroke="none" transform="matrix(1 0 0 1 898 432 )" />
  </g>
</svg>