<?xml version="1.0" encoding="utf-8"?>
<svg version="1.1" xmlns:xlink="http://www.w3.org/1999/xlink" width="17px" height="18px" xmlns="http://www.w3.org/2000/svg">
  <g transform="matrix(1 0 0 1 -1137 -430 )">
    <path d="M 16.725551791958043 13.860937500000004  C 17.02275458916084 13.708593750000004  17.02275458916084 13.279687500000003  16.725551791958043 13.1296875  L 14.974841564685315 12.24609375  L 9.311735139860142 15.103125  L 8.51532451923077 15.50625  L 7.718913898601401 15.103125  L 2.0558074737762255 12.24609375  L 0.3050972465034978 13.1296875  C 0.007894449300700145 13.279687500000001  0.007894449300700145 13.708593750000004  0.3050972465034978 13.860937500000004  L 8.334216564685317 17.91328125  C 8.447989510489512 17.971875  8.58265952797203 17.971875  8.696432473776225 17.91328125  L 16.725551791958043 13.860937500000004  Z M 0.3050972465034978 4.153125000000001  C 0.007894449300700145 4.3031250000000005  0.007894449300700145 4.7320312499999995  0.3050972465034965 4.882031250000001  L 8.334216564685315 8.934375000000001  C 8.448525332840237 8.990625  8.582123705621301 8.990625  8.696432473776223 8.934375000000001  L 16.725551791958043 4.882031250000002  C 17.02275458916084 4.732031250000002  17.02275458916084 4.303125000000001  16.725551791958043 4.153125000000001  L 8.696432473776225 0.09843750000000086  C 8.582123705621305 0.04218750000000085  8.448525332840237 0.04218750000000085  8.334216564685317 0.09843750000000086  L 0.3050972465034978 4.153125000000001  Z " fill-rule="nonzero" fill="#000000" stroke="none" transform="matrix(1 0 0 1 1137 430 )" />
  </g>
</svg>