<?xml version="1.0" encoding="utf-8"?>
<svg version="1.1" xmlns:xlink="http://www.w3.org/1999/xlink" width="20px" height="15px" xmlns="http://www.w3.org/2000/svg">
  <g transform="matrix(1 0 0 1 -976 -432 )">
    <path d="M 17.296836542968748 8.216245983805878  C 16.97590656437654 7.884471930170427  16.532659729663543 7.697048124543358  16.06947232421875 7.697263658940395  C 15.575776933593751 7.70967949994826  15.16582228515625 7.883501332264072  14.840858222656252 8.216245983805877  C 14.5158941796875 8.551473807429636  14.34716283203125 8.966163021264487  14.334664218749998 9.464038402835266  C 14.34716283203125 9.960672198365067  14.515894179687498 10.377844603683776  14.840858222656252 10.711830841266558  C 15.162220803971461 11.043331680162831  15.60555823292975 11.230633541320275  16.0688473828125 11.230633541320275  C 16.532136532695255 11.230633541320275  16.975473961653535 11.043331680162831  17.296836542968748 10.71183084126656  C 17.973996508368305 10.015957067682915  17.973996508368305 8.912119757389524  17.296836542968748 8.216245983805878  Z M 4.9532020507812495 8.73398672263038  C 4.433069847704861 8.528133448790362  3.839767874763006 8.644258843176107  3.4371197656250003 9.030725417787668  C 3.0428277226817615 9.40942316854417  2.9271805800494 9.99175237777317  3.14715185546875 10.49082879759934  C 3.447118671875 11.16500918356788  4.2620285156249995 11.480371649937915  4.968200390625 11.19356562370654  C 5.4831434179687495 10.984979421047187  5.8168565039062505 10.503244638607203  5.81435677734375 9.969363300651905  C 5.81435677734375 9.42803246585265  5.4743943945312505 8.940089753207785  4.9532020507812495 8.73398672263038  Z M 13.341024140625002 6.706479220560845  C 14.07469296875 5.9863602092818695  14.993341347656248 5.61388486263452  16.0957194140625 5.589053180618791  C 17.1980974609375 5.61388486263452  18.116745839843745 5.986360228683775  18.85041466796875 6.706479220560845  C 19.585333359375 7.429081403921771  19.9677910546875 8.332954916442468  19.99778775390625 9.418099777524834  C 19.99778775390625 10.032684111134108  19.844054765624996 10.63857734245654  19.55033724609375 11.184874540821605  C 19.124134394531247 11.880161870084853  18.46670712890625 12.66856801660803  17.58055515625 13.55630092999793  L 16.29569728515625 14.818992381519037  C 16.185046617903094 14.928210683778952  16.006392210221904 14.928210683778952  15.89574154296875 14.81899238151904  L 14.605884218749999 13.55630092999793  C 13.718482382812498 12.669809602649009  13.058555390624997 11.876437092560018  12.632352539062499 11.17618343853477  C 12.348613588811697 10.6327724595679  12.198691836655861 10.030248701616825  12.1949009375 9.418099777524834  C 12.223647753906251 8.33171333040149  12.6073553125 7.429081403921771  13.341024140625002 6.706479220560845  Z M 16.091969824218747 1.8779570829884102  L 16.09196982421875 1.8767154969474336  L 16.11696705078125 2.0319135774524004  L 16.6931533203125 3.7266764085782302  C 16.278269090640887 3.7198790053556947  15.863743437240077 3.7544020163192586  15.455790195312499 3.8297279335678813  L 14.885853261718749 2.3447928717404807  C 14.839608378906249 2.089026457729719  14.739619433593747 2.004598723354719  14.5858864453125 1.8295352855960272  L 14.505895292968747 1.7326917102131634  L 5.0256940234375005 1.7326917102131634  C 4.85571283203125 1.9387947407905641  4.731976523437501 2.012048220198676  4.6607344140625 2.2256007476200343  L 4.631987578125 2.3447928717404807  L 4.023304921875001 3.870700214714405  L 3.7795818750000003 4.818029199865482  C 3.925815703125 5.448754132605547  4.4895033398437505 5.910623557791805  5.1644286914062505 5.954079011020282  L 5.29941375 5.9565621831022355  L 11.9036831640625 5.9565621831022355  C 11.252180319778262 6.777516834310132  10.852926100178239 7.767748905082908  10.7538103515625 8.80848178807947  L 7.8641300390625 8.80848178807947  C 7.669432647000919 8.806361695923425  7.5006046640352055 8.941779642725328  7.46167455078125 9.131293770695363  L 7.454175390625 9.2033056640625  L 7.4541753906249975 10.320731723406453  C 7.457859088843502 10.513331409912167  7.600095639145316 10.675558529742249  7.791638046875001 10.70562291106167  L 7.8641300390625 10.713072427307532  L 10.9162923828125 10.713072427307532  C 11.136268046875 11.527551861289322  11.546222695312501 12.282435242911838  12.1161596484375 12.923092844577813  L 3.8045791210937505 12.923092844577813  L 3.8045791210937505 14.01817037458609  C 3.7987757038954073 14.456863331284053  3.472930795504783 14.826340193410497  3.0359141601562505 14.889762688845199  L 2.9234266015625003 14.900936943812082  L 1.5110828320312506 14.900936943812082  C 1.0546532344269672 14.903751941992763  0.6671583432368232 14.56933183901837  0.6061829492187505 14.119980294132862  L 0.6011834960937505 14.01817037458609  L 0.6011834960937505 10.618712004604719  L 0.5974339062500005 10.538009008950747  L 0.6011834960937505 10.458547599337749  L 0.6011834960937505 10.202781185326987  L 0.8586550195312501 7.364519007398592  C 0.8486561328125002 6.9312060223509935  0.9336467187499999 6.501617776024421  1.1073775000000001 6.103069161320365  L 1.20111712890625 5.90441562758692  L 0.5086937304687502 5.7963977778352636  C 0.26543313624482345 5.795747845698061  0.05632985242279144 5.624899388573525  0.008749023437500114 5.3879164748033945  L 0 5.30100556834644  L 0 4.868934169339818  C 0 4.628066768418876  0.17998009765625 4.4294132540873346  0.41745382812500004 4.388440953538907  L 0.50869373046875 4.379749870653973  L 2.3372414453125003 4.379749870653973  C 2.39598494140625 4.379749870653973  2.45347859375 4.388440953538907  2.5084725000000003 4.408306310792633  L 2.5872137890625 4.445553853218129  L 3.4146222656250003 2.030671991411424  C 3.567105390625 0.9082795879035598  4.544497265625001 0.05158628673427168  5.730616054687499 0.004406075382864049  L 13.634741660156248 0.004406075382864049  C 14.828359609375 -0.045257308050496894  15.8782434765625 0.7543231128414736  16.093219687499996 1.8779570829884102  L 16.091969824218747 1.8779570829884102  Z " fill-rule="nonzero" fill="#000000" stroke="none" transform="matrix(1 0 0 1 976 432 )" />
  </g>
</svg>