<?xml version="1.0" encoding="utf-8"?>
<svg version="1.1" xmlns:xlink="http://www.w3.org/1999/xlink" width="18px" height="15px" xmlns="http://www.w3.org/2000/svg">
  <g transform="matrix(1 0 0 1 -1057 -432 )">
    <path d="M 10.324095617529881 11.583449983848391  C 10.324095617529881 9.153198018735866  12.255697211155379 7.195493700872187  14.653545816733066 7.195493700872187  C 15.053195219123507 7.195493700872187  15.419537848605577 7.2630074297404965  15.78586454183267 7.364261871433185  C 15.619346613545819 7.026725530311187  15.38623107569721 6.722946053623343  15.053195219123507 6.520421018628189  C 15.552749003984061 6.486664154194034  15.95238247011952 6.047873371379347  15.95238247011952 5.507811995262194  C 15.95238247011952 4.934009906320663  15.519442231075695 4.495202971896197  14.953274900398407 4.495202971896197  L 13.854262948207172 4.495202971896197  L 13.121593625498008 1.6261602239689896  C 12.988366533864541 1.1535964251103692  12.655330677290836 0.7823193711639926  12.189083665338643 0.6473080650371491  C 9.416983058357603 -0.0952813612874457  6.502092638853552 -0.09528136128744642  3.72999203187251 0.6473080650371491  C 3.2970517928286855 0.7823193711639933  2.9307091633466134 1.1535964251103699  2.7974980079681275 1.6261602239689896  L 2.0981195219123507 4.4952029718962  L 1.3321434262948206 4.4952029718962  C 0.7659760956175299 4.4952029718962  0.3330358565737051 4.934009906320664  0.3330358565737051 5.507811995262195  C 0.3330358565737051 5.946602778076882  0.5994581673306772 6.317895983633036  0.9991075697211155 6.45290728975988  C 0.3996494023904382 6.790459782491656  0 7.4655163131258755  0 8.208102724238183  L 0 10.908377301604395  C 0 11.549709271024016  0.4329402390438247 12.056013782707007  0.9991075697211155 12.22478195326801  L 0.9991075697211155 12.933595348336388  C 0.9991075697211155 13.304888553892537  1.2988366533864542 13.608668030580382  1.665179282868526 13.608668030580382  L 3.663394422310757 13.608668030580382  C 4.029721115537848 13.608668030580382  4.329450199203187 13.304888553892537  4.329450199203187 12.933595348336388  L 4.329450199203187 12.258522666092388  L 10.390693227091633 12.258522666092388  C 10.357386454183267 12.022256918272852  10.324079681274902 11.8197318832777  10.324079681274902 11.583449983848391  Z M 3.9964302788844615 9.220711747604179  C 3.9964302788844615 9.963298158716485  3.3969561752988042 10.570857112092172  2.664286852589641 10.570857112092172  C 1.9316015936254975 10.570857112092172  1.3321434262948202 9.96328200710671  1.3321434262948202 9.220711747604179  C 1.3321434262948202 8.478141488101647  1.9316015936254975 7.870566383116183  2.664286852589641 7.870566383116183  C 3.3969721115537843 7.870566383116183  3.9964302788844615 8.478125336491871  3.9964302788844615 9.220711747604179  Z M 4.096318725099602 1.9636965650909872  C 5.36186454183267 1.6261602239689883  6.660701195219123 1.4573920534079892  7.992844621513944 1.4573920534079892  C 9.324988047808764 1.4573920534079892  10.623824701195218 1.6261602239689883  11.889354581673306 1.9636965650909872  L 12.62203984063745 5.507811995262195  L 3.3636494023904384 5.507811995262195  L 4.096334661354581 1.9636965650909872  Z M 17.983904382470122 11.583449983848391  C 17.983904382470122 9.72698395606762  16.485243027888448 8.208086572628405  14.653545816733066 8.208086572628405  C 12.82184860557769 8.208086572628405  11.323187250996016 9.72698395606762  11.323187250996016 11.583449983848391  C 11.323187250996016 13.439916011629158  12.821864541832669 14.958813395068374  14.653545816733066 14.958813395068374  C 16.485227091633465 14.958813395068374  17.983904382470122 13.439916011629158  17.983904382470122 11.583449983848391  Z M 12.155792828685259 11.077145472165393  C 12.155792828685259 10.80710670830193  12.388908366533865 10.570857112092172  12.655330677290836 10.570857112092172  L 15.652653386454183 10.570857112092172  L 15.253019920318724 10.030795735975019  C 15.086486055776891 9.794513836545708  15.119792828685258 9.490734359857866  15.352924302788844 9.321966189296868  C 15.586055776892431 9.153198018735868  15.885784860557768 9.186938731560247  16.05230278884462 9.423236782599332  L 17.051410358565736 10.77336599547755  C 17.151314741035854 10.942150317648325  17.18462151394422 11.144659201033704  17.084717131474097 11.3134273715947  C 16.984812749003982 11.482195542155699  16.85156972111553 11.583449983848391  16.6517609561753 11.583449983848391  L 12.655330677290836 11.583449983848391  C 12.388908366533865 11.583449983848391  12.155792828685259 11.347184236028857  12.155792828685259 11.077145472165393  Z M 17.151314741035858 12.427290836653384  C 17.151314741035858 12.697313448907074  16.918183266932274 12.933595348336382  16.6517609561753 12.933595348336382  L 13.654438247011953 12.933595348336382  L 14.05408764940239 13.439899860019379  C 14.187314741035856 13.642424895014532  14.220605577689241 13.912447507268222  14.05408764940239 14.081215677829226  C 13.95416733067729 14.216243135565847  13.78766533864542 14.283756864434151  13.654438247011953 14.283756864434151  C 13.487920318725099 14.283756864434151  13.354709163346614 14.216243135565847  13.254804780876494 14.081215677829226  L 12.255697211155379 12.73107031334123  C 12.155776892430282 12.562302142780233  12.122470119521912 12.359793259394852  12.222390438247013 12.191025088833856  C 12.322310756972112 12.022256918272852  12.455521912350598 11.920986324970386  12.655330677290838 11.920986324970386  L 16.651760956175302 11.920986324970386  C 16.918183266932274 11.920986324970386  17.151314741035858 12.157268224399694  17.151314741035858 12.427290836653384  Z " fill-rule="nonzero" fill="#000000" stroke="none" transform="matrix(1 0 0 1 1057 432 )" />
  </g>
</svg>