<?xml version="1.0" encoding="utf-8"?>
<svg version="1.1" xmlns:xlink="http://www.w3.org/1999/xlink" width="11px" height="10px" xmlns="http://www.w3.org/2000/svg">
  <g transform="matrix(1 0 0 1 -1308 -436 )">
    <path d="M 6.380105769230769 4.30720930232558  L 6.360644230769231 4.382441860465115  L 6.399673076923077 4.382441860465115  L 6.380105769230769 4.30720930232558  Z M 9.941144230769234 0.3989534883720927  L 10.482471153846154 3.139999999999999  L 10.979057692307691 4.382558139534884  L 10.979057692307691 8.090581395348835  L 10.59458653846154 8.090581395348835  L 10.59458653846154 9.973488372093023  L 8.48057692307692 9.973488372093023  L 8.48057692307692 8.090581395348835  L 2.611865384615385 8.090581395348835  L 2.611865384615385 9.973488372093023  L 0.498278846153846 9.973488372093023  L 0.498278846153846 8.090581395348835  L 0.09212499999999949 8.090581395348835  L 0.09212499999999949 4.382558139534884  L 0.5869134615384622 3.1531395348837217  L 0.5511634615384614 3.146627906976743  L 1.09185576923077 0.3989534883720927  L 1.1650480769230769 0.02965116279069715  L 9.869644230769232 0.02965116279069715  L 9.941144230769234 0.3989534883720927  Z M 9.183413461538464 0.964883720930231  L 6.883355769230768 0.964883720930231  L 1.8493749999999984 0.964883720930231  L 1.4633173076923056 2.9230232558139524  L 9.570105769230768 2.9230232558139524  L 9.183413461538464 0.964883720930231  Z M 2.3681730769230755 5.391860465116278  C 2.3682788461538453 4.9059302325581395  2.0092980769230757 4.513720930232558  1.5692980769230758 4.513720930232558  C 1.1282084605294584 4.513720930232558  0.7706346490457622 4.906825331863683  0.7706346490457622 5.39174418604651  C 0.7706346490457622 5.876663040229337  1.1282084605294584 6.269767441860463  1.5692981105842223 6.269767441860463  C 2.0092980769230757 6.269767441860463  2.3681730769230755 5.8776744186046495  2.3681730769230755 5.391860465116278  Z M 9.336778846153845 4.513720930232558  C 8.897625 4.513720930232558  8.537692307692305 4.9059302325581395  8.537692307692305 5.391860465116278  C 8.537692307692305 5.8776744186046495  8.897519230769225 6.269767441860463  9.336778846153845 6.269767441860463  C 9.77786846254746 6.269767441860463  10.135442274031158 5.876663040229337  10.135442274031158 5.39174418604651  C 10.135442274031158 4.906825331863683  9.77786846254746 4.513720930232558  9.336778812492698 4.513720930232558  Z M 7.684557692307692 5.001162790697675  L 3.332999999999999 5.001162790697673  L 3.332999999999999 6.941511627906976  L 7.684557692307692 6.941511627906976  L 7.684557692307692 5.001162790697675  Z " fill-rule="nonzero" fill="#333333" stroke="none" transform="matrix(1 0 0 1 1308 436 )" />
  </g>
</svg>