<?xml version="1.0" encoding="utf-8"?>
<svg version="1.1" xmlns:xlink="http://www.w3.org/1999/xlink" width="11px" height="19px" xmlns="http://www.w3.org/2000/svg">
  <g transform="matrix(1 0 0 1 -1300 -430 )">
    <path d="M 3.937280373831775 0.1050337078651693  C 4.819747663551401 0.1050337078651693  5.5344392523364485 0.8494494382022477  5.5344392523364485 1.7640112359550566  C 5.535056074766354 2.6786797752808984  4.821495327102803 3.4207471910112366  3.9405700934579437 3.4214943820224724  L 3.937280373831775 3.4214943820224724  C 3.055429906542056 3.4214943820224724  2.3386822429906533 2.6817752808988766  2.3386822429906533 1.7640112359550568  C 2.3386822429906533 0.8494494382022477  3.055429906542056 0.1050337078651693  3.937280373831775 0.1050337078651693  Z M 5.460214953271027 3.9592584269662927  L 10.017915887850467 4.226112359550562  C 10.017915887850467 4.227606741573035  10.017915887850467 4.230595505617978  10.020794392523365 4.230595505617978  C 11.035467289719628 4.150752808988764  11.058495327102804 4.986966292134833  10.79470093457944 5.258303370786518  C 10.528850467289722 5.53241573033708  10.277803738317756 5.624426966292135  9.812 5.573191011235956  C 9.809018691588786 5.571696629213483  9.809018691588786 5.567426966292135  9.809018691588786 5.567426966292135  L 9.805831775700936 5.567426966292135  L 6.2927196261682266 5.501033707865169  L 5.85436448598131 5.501033707865169  L 5.857859813084115 17.953185393258433  C 5.85785981891993 18.472539086818443  5.452455752019051 18.89347191011236  4.952364491817126 18.89347191011236  L 4.950925233644861 18.893471910112364  C 4.455439074410899 18.893509924403944  4.052070019960014 18.479781375122396  4.046046728971963 17.96535393258427  L 4.03885046728972 17.95926966292135  L 4.03885046728972 10.2777191011236  L 3.632364485981309 10.2777191011236  L 3.632364485981309 17.948808988764046  C 3.6320809651910273 18.471252530973764  3.2242820384232598 18.894719716222276  2.7211121495327113 18.895073033707867  C 2.217680245263596 18.89507341966563  1.81010792602801 18.472271139270784  1.8096542056074771 17.950410112359553  L 2 17.94870224719101  L 2 6.061320224719102  L 1.3918598130841124 6.061320224719102  L 1.3918598130841124 9.834421348314608  L 1.3904205607476636 9.834421348314608  C 1.3918598130841124 9.84680337078652  1.3918598130841124 9.855556179775283  1.3918598130841124 9.864735955056181  C 1.391860336736131 9.86509203106703  1.3918605985622552 9.865448107440995  1.3918605985622552 9.865804183866956  C 1.3918605985622552 10.25175743951954  1.090826658274382 10.564799208399165  0.7191121495327105 10.565387640449437  C 0.34574772303209467 10.565387770666712  0.04386179529901313 10.252081540721612  0.04369158878504699 9.865483146067417  C 0.04369158878504699 9.855449438202246  0.04513084112149552 9.846696629213483  0.04513084112149552 9.834314606741573  L 0.04225233644859827 9.834314606741573  L 0.04369158878504699 5.755719101123595  C 0.04369158878504699 5.755719101123595  -0.037112149532710165 4.006224719101123  2.258289719626168 3.9592584269662927  L 5.460214953271027 3.9592584269662927  Z " fill-rule="nonzero" fill="#000000" stroke="none" transform="matrix(1 0 0 1 1300 430 )" />
  </g>
</svg>