<?xml version="1.0" encoding="utf-8"?>
<svg version="1.1" xmlns:xlink="http://www.w3.org/1999/xlink" width="15px" height="20px" xmlns="http://www.w3.org/2000/svg">
  <g transform="matrix(1 0 0 1 -1472 -429 )">
    <path d="M 10.334735071488645 15.69766260162602  C 10.334735071488645 13.096036585365853  11.884945332211942 10.754573170731707  13.951892346509673 9.583841463414634  C 14.468629100084105 8.673272357723576  14.985365853658537 7.6326219512195115  14.985365853658537 6.461890243902437  C 14.985365853658537 2.949695121951218  12.660050462573592 0.08790650406503892  9.817998317914217 0.08790650406503892  C 6.975946173254839 0.08790650406503892  4.650630782169893 2.949695121951218  4.650630782169893 6.461890243902437  C 4.650630782169893 8.673272357723576  6.588393608074014 11.274898373983737  6.84676198486123 11.665142276422761  C 7.105130361648446 12.185467479674797  6.975946173254838 12.835873983739836  6.84676198486123 13.096036585365853  C 6.588393608074014 13.486280487804878  5.554920100925149 13.74644308943089  5.554920100925149 13.74644308943089  L 1.679394449116907 15.567581300813007  C 0.7751051303616506 15.957825203252032  0 16.86839430894309  0 17.778963414634145  L 0 18.299288617886177  C 0 19.339939024390244  0.9042893187552584 19.990345528455286  1.937762825904123 20  L 12.014129520605554 20  C 10.980656013456686 18.819613821138212  10.334735071488645 17.258638211382113  10.334735071488645 15.69766260162602  Z " fill-rule="nonzero" fill="#000000" stroke="none" transform="matrix(1 0 0 1 1472 429 )" />
  </g>
</svg>