<?xml version="1.0" encoding="utf-8"?>
<svg version="1.1" xmlns:xlink="http://www.w3.org/1999/xlink" width="8px" height="8px" xmlns="http://www.w3.org/2000/svg">
  <g transform="matrix(1 0 0 1 -1485 -441 )">
    <path d="M 7.626057425131214 6.371843161469591  L 5.223340537202842 3.9691262735412156  L 7.626057425131214 1.5664093856128436  C 8.00543377585675 1.1870330348873106  8.00543377585675 0.5547391170114224  7.626057425131214 0.30182154986106713  C 7.246681074405681 -0.07755480086446576  6.6143871565297925 -0.07755480086446576  6.36146958937944 0.30182154986106713  L 3.9587527014510653 2.7045384377894424  L 1.556035813522693 0.30182154986106713  C 1.17665946279716 -0.07755480086446576  0.544365544921272 -0.07755480086446576  0.2914479777709167 0.30182154986106713  C -0.08792837295461624 0.6811979005866015  -0.08792837295461624 1.3134918184624882  0.2914479777709167 1.5664093856128436  L 2.6941648656992916 3.9691262735412156  L 0.2914479777709167 6.371843161469591  C -0.08792837295461624 6.7512195121951235  -0.08792837295461624 7.3835134300710115  0.2914479777709167 7.636430997221364  C 0.6708243284964496 8.0158073479469  1.3031182463723379 8.0158073479469  1.556035813522693 7.636430997221364  L 3.9587527014510653 5.233714109292992  L 6.36146958937944 7.636430997221364  C 6.740845940104974 8.0158073479469  7.373139857980862 8.0158073479469  7.626057425131214 7.636430997221364  C 8.00543377585675 7.257054646495831  8.00543377585675 6.624760728619943  7.626057425131214 6.371843161469591  Z " fill-rule="nonzero" fill="#000000" stroke="none" transform="matrix(1 0 0 1 1485 441 )" />
  </g>
</svg>