<?xml version="1.0" encoding="utf-8"?>
<svg version="1.1" xmlns:xlink="http://www.w3.org/1999/xlink" width="356px" height="40px" xmlns="http://www.w3.org/2000/svg">
  <g transform="matrix(1 0 0 1 -1533 -281 )">
    <path d="M 1873 281  C 1873 281  1877 281.2247191011236  1877 281.2247191011236  C 1877 281.2247191011236  1889 301  1889 301  C 1889 301  1877 320.7752808988764  1877 320.7752808988764  C 1877 320.7752808988764  1873 321  1873 321  C 1873 321  1536 321  1536 321  C 1534.32 321  1533 319.68  1533 318  C 1533 318  1533 284  1533 284  C 1533 282.32  1534.32 281  1536 281  C 1536 281  1873 281  1873 281  Z " fill-rule="nonzero" fill="#a30014" stroke="none" />
  </g>
</svg>