<?xml version="1.0" encoding="utf-8"?>
<svg version="1.1" xmlns:xlink="http://www.w3.org/1999/xlink" width="366px" height="45px" xmlns="http://www.w3.org/2000/svg">
  <g transform="matrix(1 0 0 1 -1523 -337 )">
    <path d="M 1524 340  A 2 2 0 0 1 1526 338 L 1886 338  A 2 2 0 0 1 1888 340 L 1888 379  A 2 2 0 0 1 1886 381 L 1526 381  A 2 2 0 0 1 1524 379 L 1524 340  Z " fill-rule="nonzero" fill="#ffffff" stroke="none" />
    <path d="M 1523.5 340  A 2.5 2.5 0 0 1 1526 337.5 L 1886 337.5  A 2.5 2.5 0 0 1 1888.5 340 L 1888.5 379  A 2.5 2.5 0 0 1 1886 381.5 L 1526 381.5  A 2.5 2.5 0 0 1 1523.5 379 L 1523.5 340  Z " stroke-width="1" stroke="#a30014" fill="none" stroke-opacity="0.9803921568627451" />
  </g>
</svg>