<?xml version="1.0" encoding="utf-8"?>
<svg version="1.1" xmlns:xlink="http://www.w3.org/1999/xlink" width="18px" height="18px" xmlns="http://www.w3.org/2000/svg">
  <g transform="matrix(1 0 0 1 -1586 -430 )">
    <path d="M 18 2.4659912109374997  C 17.967041015625 1.1102783203125  16.85478515625 0.032958984375  15.534228515625001 0  L 2.4659912109374997 0  C 1.1104980468749999 0.032958984375  0.032958984375 1.1452148437500003  0 2.4659912109374997  L 0 15.534228515625001  C 0.032958984375 16.8897216796875  1.1452148437499996 17.967041015625  2.4659912109374997 18  L 15.534228515625001 18  C 16.855004882812498 17.967041015625  17.967041015625 16.85478515625  18 15.534228515625001  L 18 2.4659912109374997  Z M 11.571899414062502 15.812182617187501  C 11.571899414062502 15.916333007812499  11.502465820312501 16.020703125  11.363378906249999 16.020703125  L 6.8104248046875 16.020703125  C 6.7060546875 16.020703125  6.6019042968749995 15.916333007812499  6.6019042968749995 15.812182617187501  C 6.6019042968749995 15.7080322265625  6.7062744140624995 15.603662109375  6.8104248046875 15.603662109375  L 11.36337890625 15.603662109375  C 11.4677490234375 15.603662109375  11.571899414062502 15.7080322265625  11.571899414062502 15.812182617187501  Z M 11.6068359375 14.804296875  C 11.6068359375 15.0128173828125  11.433032226562501 15.221337890625  11.1895751953125 15.221337890625  L 7.0189453125000005 15.221337890625  C 6.7757080078125 15.221337890625  6.601904296874999 15.047534179687501  6.601904296874999 14.804296875  C 6.601904296874999 14.561059570312498  6.7757080078125 14.387255859375001  7.0189453125000005 14.387255859375001  L 11.1895751953125 14.387255859375001  C 11.433032226562501 14.387255859375001  11.6068359375 14.561059570312498  11.6068359375 14.804296875  Z M 14.560620117187499 7.5748535156250005  C 14.943164062500001 7.9573974609375  14.665209960937501 8.548022460937501  14.1440185546875 8.548022460937501  L 11.67275390625 8.548022460937501  C 11.674951171875 8.571093750000001  11.6760498046875 8.594165039062501  11.6760498046875 8.61767578125  L 11.6760498046875 13.275  C 11.641333007812499 13.692041015625003  11.328442382812497 14.0396484375  10.9114013671875 14.0396484375  L 7.435986328125 14.0396484375  C 7.0189453125000005 14.0396484375  6.671337890625 13.692041015625  6.671337890625 13.275  L 6.671337890625 8.61767578125  C 6.671337890625 8.594165039062501  6.67265625 8.571093750000001  6.674633789062499 8.548022460937501  L 4.3426757812500005 8.548022460937501  C 3.8212646484375 8.5827392578125  3.543310546875001 7.9571777343750005  3.9254150390625 7.5748535156250005  L 8.825976562500001 2.6742919921875  C 9.069213867187502 2.4310546875  9.416821289062499 2.4310546875  9.660058593750001 2.6742919921875  L 14.560620117187499 7.5748535156250005  Z " fill-rule="nonzero" fill="#ffffff" stroke="none" transform="matrix(1 0 0 1 1586 430 )" />
  </g>
</svg>