<?xml version="1.0" encoding="utf-8"?>
<svg version="1.1" xmlns:xlink="http://www.w3.org/1999/xlink" width="28px" height="20px" preserveAspectRatio="xMinYMid meet" viewBox="246 565  28 18" xmlns="http://www.w3.org/2000/svg">
  <g transform="matrix(-1 -0 -0 -1 520 1148 )">
    <path d="M 223.05355339059327 578.1464466094068  L 218.40710678118649 573.5  L 223.05355339059327 568.8535533905932  L 222.3464466094067 568.1464466094068  L 217.3464466094067 573.1464466094068  L 216.9928932188135 573.5  L 217.3464466094067 573.8535533905932  L 222.3464466094067 578.8535533905932  L 223.05355339059327 578.1464466094068  Z M 228.75355339059325 578.1464466094068  L 224.10710678118647 573.5  L 228.75355339059325 568.8535533905932  L 228.0464466094067 568.1464466094068  L 223.0464466094067 573.1464466094068  L 222.69289321881348 573.5  L 223.0464466094067 573.8535533905932  L 228.0464466094067 578.8535533905932  L 228.75355339059325 578.1464466094068  Z M 257.94644660940673 568.8535533905932  L 262.5928932188135 573.5  L 257.94644660940673 578.1464466094068  L 258.6535533905933 578.8535533905932  L 263.6535533905933 573.8535533905932  L 264.0071067811865 573.5  L 263.6535533905933 573.1464466094068  L 258.6535533905933 568.1464466094068  L 257.94644660940673 568.8535533905932  Z M 252.24644660940675 568.8535533905932  L 256.8928932188135 573.5  L 252.24644660940675 578.1464466094068  L 252.9535533905933 578.8535533905932  L 257.9535533905933 573.8535533905932  L 258.3071067811865 573.5  L 257.9535533905933 573.1464466094068  L 252.9535533905933 568.1464466094068  L 252.24644660940675 568.8535533905932  Z " fill-rule="nonzero" fill="#aaaaaa" stroke="none" />
    <path d="M 218 573.5  L 263 573.5  " stroke-width="1" stroke="#aaaaaa" fill="none" />
  </g>
</svg>