<?xml version="1.0" encoding="utf-8"?>
<svg version="1.1" xmlns:xlink="http://www.w3.org/1999/xlink" width="28px" height="20px" preserveAspectRatio="xMinYMid meet" viewBox="530 565  28 18" xmlns="http://www.w3.org/2000/svg">
  <g transform="matrix(-1 -0 -0 -1 1088 1148 )">
    <path d="M 507.05355339059327 578.1464466094068  L 502.4071067811865 573.5  L 507.05355339059327 568.8535533905932  L 506.3464466094067 568.1464466094068  L 501.3464466094067 573.1464466094068  L 500.9928932188135 573.5  L 501.3464466094067 573.8535533905932  L 506.3464466094067 578.8535533905932  L 507.05355339059327 578.1464466094068  Z M 512.7535533905932 578.1464466094068  L 508.1071067811865 573.5  L 512.7535533905932 568.8535533905932  L 512.0464466094068 568.1464466094068  L 507.0464466094067 573.1464466094068  L 506.6928932188135 573.5  L 507.0464466094067 573.8535533905932  L 512.0464466094068 578.8535533905932  L 512.7535533905932 578.1464466094068  Z M 541.9464466094067 568.8535533905932  L 546.5928932188135 573.5  L 541.9464466094067 578.1464466094068  L 542.6535533905932 578.8535533905932  L 547.6535533905932 573.8535533905932  L 548.0071067811864 573.5  L 547.6535533905932 573.1464466094068  L 542.6535533905932 568.1464466094068  L 541.9464466094067 568.8535533905932  Z M 536.2464466094067 568.8535533905932  L 540.8928932188135 573.5  L 536.2464466094067 578.1464466094068  L 536.9535533905931 578.8535533905932  L 541.9535533905931 573.8535533905932  L 542.3071067811863 573.5  L 541.9535533905931 573.1464466094068  L 536.9535533905931 568.1464466094068  L 536.2464466094067 568.8535533905932  Z " fill-rule="nonzero" fill="#aaaaaa" stroke="none" />
    <path d="M 502 573.5  L 547 573.5  " stroke-width="1" stroke="#aaaaaa" fill="none" />
  </g>
</svg>