<?xml version="1.0" encoding="utf-8"?>
<svg version="1.1" xmlns:xlink="http://www.w3.org/1999/xlink" width="26px" height="20px" preserveAspectRatio="xMinYMid meet" viewBox="598 565  26 18" xmlns="http://www.w3.org/2000/svg">
  <path d="M 613.0535533905933 578.1464466094068  L 608.4071067811865 573.5  L 613.0535533905933 568.8535533905932  L 612.3464466094068 568.1464466094068  L 607.3464466094068 573.1464466094068  L 606.9928932188136 573.5  L 607.3464466094068 573.8535533905932  L 612.3464466094068 578.8535533905932  L 613.0535533905933 578.1464466094068  Z M 618.7535533905933 578.1464466094068  L 614.1071067811865 573.5  L 618.7535533905933 568.8535533905932  L 618.0464466094069 568.1464466094068  L 613.0464466094069 573.1464466094068  L 612.6928932188137 573.5  L 613.0464466094069 573.8535533905932  L 618.0464466094069 578.8535533905932  L 618.7535533905933 578.1464466094068  Z M 647.9464466094067 568.8535533905932  L 652.5928932188135 573.5  L 647.9464466094067 578.1464466094068  L 648.6535533905932 578.8535533905932  L 653.6535533905932 573.8535533905932  L 654.0071067811864 573.5  L 653.6535533905932 573.1464466094068  L 648.6535533905932 568.1464466094068  L 647.9464466094067 568.8535533905932  Z M 642.2464466094067 568.8535533905932  L 646.8928932188135 573.5  L 642.2464466094067 578.1464466094068  L 642.9535533905931 578.8535533905932  L 647.9535533905931 573.8535533905932  L 648.3071067811863 573.5  L 647.9535533905931 573.1464466094068  L 642.9535533905931 568.1464466094068  L 642.2464466094067 568.8535533905932  Z " fill-rule="nonzero" fill="#aaaaaa" stroke="none" />
  <path d="M 608 573.5  L 653 573.5  " stroke-width="1" stroke="#aaaaaa" fill="none" />
</svg>