<?xml version="1.0" encoding="utf-8"?>
<svg version="1.1" xmlns:xlink="http://www.w3.org/1999/xlink" width="52px" height="6px" preserveAspectRatio="xMinYMid meet" viewBox="802 571  52 4" xmlns="http://www.w3.org/2000/svg">
  <path d="M 810.0535533905933 578.1464466094068  L 805.4071067811865 573.5  L 810.0535533905933 568.8535533905932  L 809.3464466094068 568.1464466094068  L 804.3464466094068 573.1464466094068  L 803.9928932188136 573.5  L 804.3464466094068 573.8535533905932  L 809.3464466094068 578.8535533905932  L 810.0535533905933 578.1464466094068  Z M 815.7535533905933 578.1464466094068  L 811.1071067811865 573.5  L 815.7535533905933 568.8535533905932  L 815.0464466094069 568.1464466094068  L 810.0464466094069 573.1464466094068  L 809.6928932188137 573.5  L 810.0464466094069 573.8535533905932  L 815.0464466094069 578.8535533905932  L 815.7535533905933 578.1464466094068  Z M 844.9464466094067 568.8535533905932  L 849.5928932188135 573.5  L 844.9464466094067 578.1464466094068  L 845.6535533905932 578.8535533905932  L 850.6535533905932 573.8535533905932  L 851.0071067811864 573.5  L 850.6535533905932 573.1464466094068  L 845.6535533905932 568.1464466094068  L 844.9464466094067 568.8535533905932  Z M 839.2464466094067 568.8535533905932  L 843.8928932188135 573.5  L 839.2464466094067 578.1464466094068  L 839.9535533905931 578.8535533905932  L 844.9535533905931 573.8535533905932  L 845.3071067811863 573.5  L 844.9535533905931 573.1464466094068  L 839.9535533905931 568.1464466094068  L 839.2464466094067 568.8535533905932  Z " fill-rule="nonzero" fill="#aaaaaa" stroke="none" />
  <path d="M 805 573.5  L 850 573.5  " stroke-width="1" stroke="#aaaaaa" fill="none" />
</svg>