<?xml version="1.0" encoding="utf-8"?>
<svg version="1.1" xmlns:xlink="http://www.w3.org/1999/xlink" width="52px" height="6px" preserveAspectRatio="xMinYMid meet" viewBox="882 571  52 4" xmlns="http://www.w3.org/2000/svg">
  <path d="M 890.0535533905933 578.1464466094068  L 885.4071067811865 573.5  L 890.0535533905933 568.8535533905932  L 889.3464466094068 568.1464466094068  L 884.3464466094068 573.1464466094068  L 883.9928932188136 573.5  L 884.3464466094068 573.8535533905932  L 889.3464466094068 578.8535533905932  L 890.0535533905933 578.1464466094068  Z M 895.7535533905933 578.1464466094068  L 891.1071067811865 573.5  L 895.7535533905933 568.8535533905932  L 895.0464466094069 568.1464466094068  L 890.0464466094069 573.1464466094068  L 889.6928932188137 573.5  L 890.0464466094069 573.8535533905932  L 895.0464466094069 578.8535533905932  L 895.7535533905933 578.1464466094068  Z M 924.9464466094067 568.8535533905932  L 929.5928932188135 573.5  L 924.9464466094067 578.1464466094068  L 925.6535533905932 578.8535533905932  L 930.6535533905932 573.8535533905932  L 931.0071067811864 573.5  L 930.6535533905932 573.1464466094068  L 925.6535533905932 568.1464466094068  L 924.9464466094067 568.8535533905932  Z M 919.2464466094067 568.8535533905932  L 923.8928932188135 573.5  L 919.2464466094067 578.1464466094068  L 919.9535533905931 578.8535533905932  L 924.9535533905931 573.8535533905932  L 925.3071067811863 573.5  L 924.9535533905931 573.1464466094068  L 919.9535533905931 568.1464466094068  L 919.2464466094067 568.8535533905932  Z " fill-rule="nonzero" fill="#aaaaaa" stroke="none" />
  <path d="M 885 573.5  L 930 573.5  " stroke-width="1" stroke="#aaaaaa" fill="none" />
</svg>