<?xml version="1.0" encoding="utf-8"?>
<svg version="1.1" xmlns:xlink="http://www.w3.org/1999/xlink" width="6px" height="11px" xmlns="http://www.w3.org/2000/svg">
  <g transform="matrix(1 0 0 1 -1713 -433 )">
    <path d="M 1.7216282894736752 1.3569940476190454  C 2.0176809210526225 1.2567336309523789  2.3322368421052557 1.2158110119047598  2.665296052631579 1.1421502976190476  C 2.675575657894737 1.140104166666666  2.665296052631579 0.8434151785714279  2.665296052631579 0.8147693452380953  L 2.665296052631579 0.4648809523809516  C 2.665296052631579 0.41781994047618976  2.655016447368421 0.3707589285714271  2.659128289473686 0.32165178571428493  C 2.6632401315789487 0.276636904761904  2.681743421052633 0.23776041666666517  2.708470394736842 0.20093005952380955  C 2.7228618421052646 0.1784226190476183  2.739309210526316 0.15796130952380877  2.7557565789473686 0.13749999999999926  C 2.7886513157894735 0.10271577380952307  2.8256578947368407 0.07202380952380878  2.8708881578947367 0.05360863095238021  C 2.961348684210526 0.016778273809523066  3.0518092105263146 0.039285714285714285  3.1237664473684195 0.10066964285714286  C 3.2018914473684195 0.16614583333333333  3.2553453947368407 0.2275297619047619  3.2635690789473673 0.3339285714285714  C 3.2738486842105248 0.4669270833333333  3.2615131578947336 0.6040178571428564  3.2635690789473673 0.7370163690476182  C 3.2656249999999982 0.8147693452380953  3.2635690789473673 0.8925223214285715  3.2635690789473673 0.9723214285714279  C 3.2635690789473673 0.9886904761904762  3.2594572368421018 1.1667038690476184  3.2635690789473673 1.1667038690476184  C 4.026315789473683 1.269010416666666  4.721217105263155 1.4572544642857135  5.202302631578945 2.079278273809524  C 5.475740131578944 2.4332589285714286  5.640213815789471 2.852715773809524  5.722450657894734 3.2885416666666667  C 5.740953947368419 3.382663690476192  5.7697368421052575 3.4849702380952396  5.7245065789473655 3.575  C 5.675164473684207 3.6752604166666667  5.590871710526313 3.7714285714285727  5.49629934210526 3.8143973214285714  C 5.362664473684208 3.87578125  5.189967105263155 3.843043154761905  5.062499999999996 3.7611979166666667  C 4.980263157894733 3.7079985119047616  4.875411184210522 3.6384300595238095  4.842516447368417 3.5463541666666667  C 4.801398026315785 3.431770833333333  4.778782894736836 3.3110491071428574  4.745888157894731 3.196465773809524  C 4.682154605263152 2.983668154761905  4.593749999999994 2.7790550595238095  4.453947368421045 2.6030877976190476  C 4.373766447368415 2.502827380952381  4.279194078947361 2.4168898809523793  4.172286184210519 2.3452752976190463  C 3.919407894736835 2.1795386904761886  3.6151315789473593 2.134523809523808  3.2779605263157823 1.9872023809523793  C 3.2779605263157823 2.7933779761904747  3.2738486842105177 3.466555059523808  3.2800164473684137 4.18065476190476  C 3.282072368421045 4.450744047619046  3.212171052631573 4.784263392857142  3.341694078947361 4.9745535714285705  C 3.4650493421052557 5.154613095238094  3.804276315789466 5.193489583333331  4.05509868421052 5.279427083333331  C 4.612253289473678 5.4656249999999975  5.134457236842099 5.700930059523807  5.51274671052631 6.175632440476188  C 6.25904605263157 7.114806547619046  5.981496710526306 8.708742559523806  4.920641447368415 9.27347470238095  C 4.507401315789468 9.494456845238092  4.01603618421052 9.566071428571425  3.5575657894736796 9.699069940476187  C 3.477384868421048 9.723623511904758  3.386924342105259 9.719531249999998  3.2759046052631517 9.731808035714282  C 3.271792763157887 9.731808035714282  3.2759046052631517 9.91800595238095  3.2759046052631517 9.936421130952377  L 3.2759046052631517 10.658705357142857  C 3.2759046052631517 10.681212797619047  3.282072368421045 10.701674107142857  3.271792763157887 10.724181547619047  C 3.2615131578947296 10.75078125  3.2306743421052557 10.769196428571428  3.21011513157894 10.787611607142857  C 3.1895559210526243 10.806026785714286  3.168996710526309 10.822395833333333  3.146381578947361 10.83876488095238  C 3.111430921052623 10.865364583333333  3.0723684210526243 10.889918154761904  3.031249999999992 10.90219494047619  C 2.953124999999993 10.926748511904766  2.8791118421052557 10.891964285714286  2.8153782894736765 10.846949404761904  C 2.792763157894728 10.830580357142857  2.7701480263157805 10.812165178571428  2.7495888157894646 10.79375  C 2.7310855263157805 10.779427083333333  2.7105263157894646 10.765104166666667  2.6940789473684106 10.74873511904762  C 2.6735197368420947 10.726227678571425  2.6735197368420947 10.703720238095235  2.675575657894728 10.675074404761903  L 2.675575657894728 10.593229166666664  C 2.675575657894728 10.537983630952377  2.6776315789473597 10.484784226190476  2.6776315789473597 10.429538690476187  C 2.679687499999991 10.32109375  2.679687499999991 10.212648809523806  2.675575657894728 10.102157738095235  C 2.6735197368420947 10.040773809523806  2.669407894736833 9.979389880952377  2.66529605263157 9.91800595238095  C 2.659128289473675 9.840252976190476  2.5501644736842 9.71748511904762  2.474095394736833 9.707254464285715  C 1.1459703947368332 9.519010416666664  0.374999999999991 8.780357142857143  0.15090460526314892 7.464694940476188  C 0.1344572368420963 7.368526785714282  0.12006578947367524 7.27235863095238  0.10773026315788577 7.178236607142855  C 0.07894736842104366 6.967485119047619  0.12006578947367524 6.734226190476187  0.31949013157893835 6.623735119047618  C 0.46957236842104366 6.5398437499999975  0.648437499999991 6.529613095238092  0.7861842105263068 6.644196428571427  C 0.9074835526315699 6.744456845238092  1.0041118421052542 6.867224702380949  1.0431743421052542 7.02068452380952  C 1.0781249999999911 7.1598214285714255  1.0904605263157805 7.305096726190473  1.1233552631578858 7.44423363095238  C 1.1891447368420962 7.720461309523808  1.2734374999999911 7.992596726190473  1.4358552631578858 8.227901785714282  C 1.528371710526307 8.362946428571425  1.6496710526315685 8.48162202380952  1.7853618421052544 8.573697916666664  C 2.0259046052631478 8.73738839285714  2.328124999999991 8.811049107142855  2.6735197368420947 8.956324404761903  L 2.6735197368420947 8.555282738095238  C 2.6735197368420947 7.691815476190476  2.669407894736832 6.828348214285715  2.6776315789473597 5.966927083333333  C 2.679687499999991 5.7970982142857155  2.6344572368420964 5.698883928571429  2.459703947368412 5.645684523809523  C 2.19654605263157 5.565885416666666  1.9436677631578845 5.457440476190475  1.6846217105263066 5.365364583333331  C 0.7162828947368332 5.0175223214285705  0.20230263157893838 4.334114583333331  0.20847039473683313 3.3990327380952348  C 0.21463815789472787 2.40052083333333  0.7409539473684106 1.678236607142854  1.7216282894736752 1.3569940476190454  Z M 4.381990131578947 6.4498139880952365  C 4.063322368421053 6.237016369047618  3.691200657894737 6.099925595238092  3.2923519736842106 5.901450892857141  L 3.2923519736842106 8.956324404761903  C 3.678865131578946 8.811049107142855  4.0550986842105265 8.73329613095238  4.357319078947367 8.54300595238095  C 5.136513157894735 8.05193452380952  5.144736842105262 6.961346726190476  4.381990131578947 6.4498139880952365  Z M 1.5160361842105265 4.141778273809524  C 1.832648026315788 4.4118675595238095  2.231496710526316 4.587834821428571  2.650904605263156 4.84360119047619  L 2.650904605263156 2.021986607142857  C 2.2623355263157894 2.0240327380952383  1.9354440789473668 2.1406622023809523  1.6496710526315788 2.361644345238095  C 1.0904605263157894 2.7933779761904765  1.0020559210526316 3.701860119047619  1.5160361842105265 4.141778273809524  Z " fill-rule="nonzero" fill="#ffffff" stroke="none" transform="matrix(1 0 0 1 1713 433 )" />
  </g>
</svg>