<?xml version="1.0" encoding="utf-8"?>
<svg version="1.1" xmlns:xlink="http://www.w3.org/1999/xlink" width="52px" height="6px" preserveAspectRatio="xMinYMid meet" viewBox="960 571  52 4" xmlns="http://www.w3.org/2000/svg">
  <path d="M 969.0535533905933 578.1464466094068  L 964.4071067811865 573.5  L 969.0535533905933 568.8535533905932  L 968.3464466094068 568.1464466094068  L 963.3464466094068 573.1464466094068  L 962.9928932188136 573.5  L 963.3464466094068 573.8535533905932  L 968.3464466094068 578.8535533905932  L 969.0535533905933 578.1464466094068  Z M 974.7535533905933 578.1464466094068  L 970.1071067811865 573.5  L 974.7535533905933 568.8535533905932  L 974.0464466094069 568.1464466094068  L 969.0464466094069 573.1464466094068  L 968.6928932188137 573.5  L 969.0464466094069 573.8535533905932  L 974.0464466094069 578.8535533905932  L 974.7535533905933 578.1464466094068  Z M 1003.9464466094067 568.8535533905932  L 1008.5928932188135 573.5  L 1003.9464466094067 578.1464466094068  L 1004.6535533905932 578.8535533905932  L 1009.6535533905932 573.8535533905932  L 1010.0071067811864 573.5  L 1009.6535533905932 573.1464466094068  L 1004.6535533905932 568.1464466094068  L 1003.9464466094067 568.8535533905932  Z M 998.2464466094067 568.8535533905932  L 1002.8928932188135 573.5  L 998.2464466094067 578.1464466094068  L 998.9535533905931 578.8535533905932  L 1003.9535533905931 573.8535533905932  L 1004.3071067811863 573.5  L 1003.9535533905931 573.1464466094068  L 998.9535533905931 568.1464466094068  L 998.2464466094067 568.8535533905932  Z " fill-rule="nonzero" fill="#aaaaaa" stroke="none" />
  <path d="M 964 573.5  L 1009 573.5  " stroke-width="1" stroke="#aaaaaa" fill="none" />
</svg>