<?xml version="1.0" encoding="utf-8"?>
<svg version="1.1" xmlns:xlink="http://www.w3.org/1999/xlink" width="28px" height="20px" preserveAspectRatio="xMinYMid meet" viewBox="1112 565  28 18" xmlns="http://www.w3.org/2000/svg">
  <path d="M 1128.0535533905934 578.1464466094068  L 1123.4071067811865 573.5  L 1128.0535533905934 568.8535533905932  L 1127.3464466094067 568.1464466094068  L 1122.3464466094067 573.1464466094068  L 1121.9928932188136 573.5  L 1122.3464466094067 573.8535533905932  L 1127.3464466094067 578.8535533905932  L 1128.0535533905934 578.1464466094068  Z M 1133.7535533905934 578.1464466094068  L 1129.1071067811868 573.5  L 1133.7535533905934 568.8535533905932  L 1133.0464466094068 568.1464466094068  L 1128.0464466094068 573.1464466094068  L 1127.6928932188134 573.5  L 1128.0464466094068 573.8535533905932  L 1133.0464466094068 578.8535533905932  L 1133.7535533905934 578.1464466094068  Z M 1162.9464466094066 568.8535533905932  L 1167.5928932188135 573.5  L 1162.9464466094066 578.1464466094068  L 1163.6535533905933 578.8535533905932  L 1168.6535533905933 573.8535533905932  L 1169.0071067811864 573.5  L 1168.6535533905933 573.1464466094068  L 1163.6535533905933 568.1464466094068  L 1162.9464466094066 568.8535533905932  Z M 1157.2464466094066 568.8535533905932  L 1161.8928932188132 573.5  L 1157.2464466094066 578.1464466094068  L 1157.9535533905932 578.8535533905932  L 1162.9535533905932 573.8535533905932  L 1163.3071067811866 573.5  L 1162.9535533905932 573.1464466094068  L 1157.9535533905932 568.1464466094068  L 1157.2464466094066 568.8535533905932  Z " fill-rule="nonzero" fill="#aaaaaa" stroke="none" />
  <path d="M 1123 573.5  L 1168 573.5  " stroke-width="1" stroke="#aaaaaa" fill="none" />
</svg>