<?xml version="1.0" encoding="utf-8"?>
<svg version="1.1" xmlns:xlink="http://www.w3.org/1999/xlink" width="19px" height="18px" xmlns="http://www.w3.org/2000/svg">
  <g transform="matrix(1 0 0 1 -1810 -430 )">
    <path d="M 12.66661191320135 9.250684558890196  C 14.380176363793554 9.83561519630066  16.28296879052477 9.407362408196569  17.57602662747471 8.143494423791822  C 18.932160456470996 6.775174539849489  19.342154404772195 4.738362498866626  18.606267830898243 2.9626802067277187  L 16.083228149044693 5.469525795629705  C 15.347341575170745 6.15890833257775  14.20146105299559 6.117127572762716  13.507625140485864 5.385964275999638  C 12.845327223999307 4.686136549097833  12.845327223999307 3.610281983860731  13.507625140485864 2.910454256958927  L 16.03066482233941 0.40360866805694184  C 14.243511714359814 -0.3171094387523791  12.193541972853806 0.07980777949043553  10.805870147834353 1.416792093571494  C 9.439223653497017 2.7746667875600695  9.039742370536871 4.821924018496692  9.786141609751878 6.587161120681839  L 8.04103916313651 8.321062653005713  L 3.6257197198927984 3.934082872427239  L 3.9305870147834354 3.3073714752017427  L 1.54421198236362 1.6883670323692084  L 0.0409008385925477 3.1924743857104003  L 1.6178006397510154 5.532196935352254  L 2.3326618829428543 5.177060476924473  L 6.779519322209733 9.564040257502947  L 1.6178006397510163 14.692628524798257  C 1.291908014178266 15.016429413364765  1.2813953488372094 15.538688911052677  1.6072879744099597 15.862489799619185  L 1.6178006397510163 15.872934989572943  L 3.1947004409094846 17.450158672590444  C 3.5205930664822347 17.773959561156946  4.0567389988761136 17.773959561156946  4.382631624448863 17.450158672590444  L 9.544350306907583 12.33201559524889  L 10.280236880781535 13.063178892011969  L 10.080496239301466 13.261637501133373  C 9.79665427509294 13.460096110254781  9.723065617705544 13.846568138543837  9.922806259185618 14.139033457249068  C 9.94383158986773 14.170369027110345  9.964856920549844 14.20170459697162  9.99639491657301 14.222594976879138  L 13.49711247514481 17.690398041526883  C 13.79146710469439 17.993308550185873  14.275049710382987 18.02464412004715  14.611455001296795 17.753069181249433  L 16.240918129160548 16.1340647384169  C 16.535272758710125 15.799818659896637  16.535272758710125 15.308894732069998  16.240918129160548 14.985093843503488  L 12.740200570588748 11.517290778855742  C 12.456358606380226 11.22482546015051  12.025339327396907 11.350167739595609  11.72047203250627 11.653078248254598  L 11.573294717731482 11.799310907607214  L 10.837408143857528 11.078592800797896  L 12.66661191320135 9.250684558890196  Z " fill-rule="nonzero" fill="#000000" stroke="none" transform="matrix(1 0 0 1 1810 430 )" />
  </g>
</svg>