<?xml version="1.0" encoding="utf-8"?>
<svg version="1.1" xmlns:xlink="http://www.w3.org/1999/xlink" width="26px" height="20px" preserveAspectRatio="xMinYMid meet" viewBox="1230 565  26 18" xmlns="http://www.w3.org/2000/svg">
  <g transform="matrix(-1 -0 -0 -1 2486 1148 )">
    <path d="M 1206.0535533905934 578.1464466094068  L 1201.4071067811865 573.5  L 1206.0535533905934 568.8535533905932  L 1205.3464466094067 568.1464466094068  L 1200.3464466094067 573.1464466094068  L 1199.9928932188136 573.5  L 1200.3464466094067 573.8535533905932  L 1205.3464466094067 578.8535533905932  L 1206.0535533905934 578.1464466094068  Z M 1211.7535533905934 578.1464466094068  L 1207.1071067811868 573.5  L 1211.7535533905934 568.8535533905932  L 1211.0464466094068 568.1464466094068  L 1206.0464466094068 573.1464466094068  L 1205.6928932188134 573.5  L 1206.0464466094068 573.8535533905932  L 1211.0464466094068 578.8535533905932  L 1211.7535533905934 578.1464466094068  Z M 1240.9464466094066 568.8535533905932  L 1245.5928932188135 573.5  L 1240.9464466094066 578.1464466094068  L 1241.6535533905933 578.8535533905932  L 1246.6535533905933 573.8535533905932  L 1247.0071067811864 573.5  L 1246.6535533905933 573.1464466094068  L 1241.6535533905933 568.1464466094068  L 1240.9464466094066 568.8535533905932  Z M 1235.2464466094066 568.8535533905932  L 1239.8928932188132 573.5  L 1235.2464466094066 578.1464466094068  L 1235.9535533905932 578.8535533905932  L 1240.9535533905932 573.8535533905932  L 1241.3071067811866 573.5  L 1240.9535533905932 573.1464466094068  L 1235.9535533905932 568.1464466094068  L 1235.2464466094066 568.8535533905932  Z " fill-rule="nonzero" fill="#aaaaaa" stroke="none" />
    <path d="M 1201 573.5  L 1246 573.5  " stroke-width="1" stroke="#aaaaaa" fill="none" />
  </g>
</svg>