<?xml version="1.0" encoding="utf-8"?>
<svg version="1.1" xmlns:xlink="http://www.w3.org/1999/xlink" width="52px" height="6px" preserveAspectRatio="xMinYMid meet" viewBox="1284 571  52 4" xmlns="http://www.w3.org/2000/svg">
  <path d="M 1292.0535533905934 578.1464466094068  L 1287.4071067811865 573.5  L 1292.0535533905934 568.8535533905932  L 1291.3464466094067 568.1464466094068  L 1286.3464466094067 573.1464466094068  L 1285.9928932188136 573.5  L 1286.3464466094067 573.8535533905932  L 1291.3464466094067 578.8535533905932  L 1292.0535533905934 578.1464466094068  Z M 1297.7535533905934 578.1464466094068  L 1293.1071067811868 573.5  L 1297.7535533905934 568.8535533905932  L 1297.0464466094068 568.1464466094068  L 1292.0464466094068 573.1464466094068  L 1291.6928932188134 573.5  L 1292.0464466094068 573.8535533905932  L 1297.0464466094068 578.8535533905932  L 1297.7535533905934 578.1464466094068  Z M 1326.9464466094066 568.8535533905932  L 1331.5928932188135 573.5  L 1326.9464466094066 578.1464466094068  L 1327.6535533905933 578.8535533905932  L 1332.6535533905933 573.8535533905932  L 1333.0071067811864 573.5  L 1332.6535533905933 573.1464466094068  L 1327.6535533905933 568.1464466094068  L 1326.9464466094066 568.8535533905932  Z M 1321.2464466094066 568.8535533905932  L 1325.8928932188132 573.5  L 1321.2464466094066 578.1464466094068  L 1321.9535533905932 578.8535533905932  L 1326.9535533905932 573.8535533905932  L 1327.3071067811866 573.5  L 1326.9535533905932 573.1464466094068  L 1321.9535533905932 568.1464466094068  L 1321.2464466094066 568.8535533905932  Z " fill-rule="nonzero" fill="#aaaaaa" stroke="none" />
  <path d="M 1287 573.5  L 1332 573.5  " stroke-width="1" stroke="#aaaaaa" fill="none" />
</svg>