<?xml version="1.0" encoding="utf-8"?>
<svg version="1.1" xmlns:xlink="http://www.w3.org/1999/xlink" width="26px" height="20px" preserveAspectRatio="xMinYMid meet" viewBox="1364 565  26 18" xmlns="http://www.w3.org/2000/svg">
  <path d="M 1379.0535533905934 578.1464466094068  L 1374.4071067811865 573.5  L 1379.0535533905934 568.8535533905932  L 1378.3464466094067 568.1464466094068  L 1373.3464466094067 573.1464466094068  L 1372.9928932188136 573.5  L 1373.3464466094067 573.8535533905932  L 1378.3464466094067 578.8535533905932  L 1379.0535533905934 578.1464466094068  Z M 1384.7535533905934 578.1464466094068  L 1380.1071067811868 573.5  L 1384.7535533905934 568.8535533905932  L 1384.0464466094068 568.1464466094068  L 1379.0464466094068 573.1464466094068  L 1378.6928932188134 573.5  L 1379.0464466094068 573.8535533905932  L 1384.0464466094068 578.8535533905932  L 1384.7535533905934 578.1464466094068  Z M 1413.9464466094066 568.8535533905932  L 1418.5928932188135 573.5  L 1413.9464466094066 578.1464466094068  L 1414.6535533905933 578.8535533905932  L 1419.6535533905933 573.8535533905932  L 1420.0071067811864 573.5  L 1419.6535533905933 573.1464466094068  L 1414.6535533905933 568.1464466094068  L 1413.9464466094066 568.8535533905932  Z M 1408.2464466094066 568.8535533905932  L 1412.8928932188132 573.5  L 1408.2464466094066 578.1464466094068  L 1408.9535533905932 578.8535533905932  L 1413.9535533905932 573.8535533905932  L 1414.3071067811866 573.5  L 1413.9535533905932 573.1464466094068  L 1408.9535533905932 568.1464466094068  L 1408.2464466094066 568.8535533905932  Z " fill-rule="nonzero" fill="#aaaaaa" stroke="none" />
  <path d="M 1374 573.5  L 1419 573.5  " stroke-width="1" stroke="#aaaaaa" fill="none" />
</svg>