<?xml version="1.0" encoding="utf-8"?>
<svg version="1.1" xmlns:xlink="http://www.w3.org/1999/xlink" width="26px" height="20px" preserveAspectRatio="xMinYMid meet" viewBox="1602 565  26 18" xmlns="http://www.w3.org/2000/svg">
  <g transform="matrix(-1 -0 -0 -1 3230 1148 )">
    <path d="M 1578.0535533905934 579.1464466094068  L 1573.4071067811865 574.5  L 1578.0535533905934 569.8535533905932  L 1577.3464466094067 569.1464466094068  L 1572.3464466094067 574.1464466094068  L 1571.9928932188136 574.5  L 1572.3464466094067 574.8535533905932  L 1577.3464466094067 579.8535533905932  L 1578.0535533905934 579.1464466094068  Z M 1583.7535533905934 579.1464466094068  L 1579.1071067811868 574.5  L 1583.7535533905934 569.8535533905932  L 1583.0464466094068 569.1464466094068  L 1578.0464466094068 574.1464466094068  L 1577.6928932188134 574.5  L 1578.0464466094068 574.8535533905932  L 1583.0464466094068 579.8535533905932  L 1583.7535533905934 579.1464466094068  Z M 1612.9464466094066 569.8535533905932  L 1617.5928932188135 574.5  L 1612.9464466094066 579.1464466094068  L 1613.6535533905933 579.8535533905932  L 1618.6535533905933 574.8535533905932  L 1619.0071067811864 574.5  L 1618.6535533905933 574.1464466094068  L 1613.6535533905933 569.1464466094068  L 1612.9464466094066 569.8535533905932  Z M 1607.2464466094066 569.8535533905932  L 1611.8928932188132 574.5  L 1607.2464466094066 579.1464466094068  L 1607.9535533905932 579.8535533905932  L 1612.9535533905932 574.8535533905932  L 1613.3071067811866 574.5  L 1612.9535533905932 574.1464466094068  L 1607.9535533905932 569.1464466094068  L 1607.2464466094066 569.8535533905932  Z " fill-rule="nonzero" fill="#aaaaaa" stroke="none" />
    <path d="M 1573 574.5  L 1618 574.5  " stroke-width="1" stroke="#aaaaaa" fill="none" />
  </g>
</svg>