<?xml version="1.0" encoding="utf-8"?>
<svg version="1.1" xmlns:xlink="http://www.w3.org/1999/xlink" width="28px" height="20px" preserveAspectRatio="xMinYMid meet" viewBox="1722 565  28 18" xmlns="http://www.w3.org/2000/svg">
  <g transform="matrix(-1 -0 -0 -1 3472 1148 )">
    <path d="M 1699.0535533905934 578.1464466094068  L 1694.4071067811865 573.5  L 1699.0535533905934 568.8535533905932  L 1698.3464466094067 568.1464466094068  L 1693.3464466094067 573.1464466094068  L 1692.9928932188136 573.5  L 1693.3464466094067 573.8535533905932  L 1698.3464466094067 578.8535533905932  L 1699.0535533905934 578.1464466094068  Z M 1704.7535533905934 578.1464466094068  L 1700.1071067811868 573.5  L 1704.7535533905934 568.8535533905932  L 1704.0464466094068 568.1464466094068  L 1699.0464466094068 573.1464466094068  L 1698.6928932188134 573.5  L 1699.0464466094068 573.8535533905932  L 1704.0464466094068 578.8535533905932  L 1704.7535533905934 578.1464466094068  Z M 1733.9464466094066 568.8535533905932  L 1738.5928932188135 573.5  L 1733.9464466094066 578.1464466094068  L 1734.6535533905933 578.8535533905932  L 1739.6535533905933 573.8535533905932  L 1740.0071067811864 573.5  L 1739.6535533905933 573.1464466094068  L 1734.6535533905933 568.1464466094068  L 1733.9464466094066 568.8535533905932  Z M 1728.2464466094066 568.8535533905932  L 1732.8928932188132 573.5  L 1728.2464466094066 578.1464466094068  L 1728.9535533905932 578.8535533905932  L 1733.9535533905932 573.8535533905932  L 1734.3071067811866 573.5  L 1733.9535533905932 573.1464466094068  L 1728.9535533905932 568.1464466094068  L 1728.2464466094066 568.8535533905932  Z " fill-rule="nonzero" fill="#aaaaaa" stroke="none" />
    <path d="M 1694 573.5  L 1739 573.5  " stroke-width="1" stroke="#aaaaaa" fill="none" />
  </g>
</svg>