<?xml version="1.0" encoding="utf-8"?>
<svg version="1.1" xmlns:xlink="http://www.w3.org/1999/xlink" width="52px" height="6px" preserveAspectRatio="xMinYMid meet" viewBox="1458 571  52 4" xmlns="http://www.w3.org/2000/svg">
  <path d="M 1467.0535533905934 578.1464466094068  L 1462.4071067811865 573.5  L 1467.0535533905934 568.8535533905932  L 1466.3464466094067 568.1464466094068  L 1461.3464466094067 573.1464466094068  L 1460.9928932188136 573.5  L 1461.3464466094067 573.8535533905932  L 1466.3464466094067 578.8535533905932  L 1467.0535533905934 578.1464466094068  Z M 1472.7535533905934 578.1464466094068  L 1468.1071067811868 573.5  L 1472.7535533905934 568.8535533905932  L 1472.0464466094068 568.1464466094068  L 1467.0464466094068 573.1464466094068  L 1466.6928932188134 573.5  L 1467.0464466094068 573.8535533905932  L 1472.0464466094068 578.8535533905932  L 1472.7535533905934 578.1464466094068  Z M 1501.9464466094066 568.8535533905932  L 1506.5928932188135 573.5  L 1501.9464466094066 578.1464466094068  L 1502.6535533905933 578.8535533905932  L 1507.6535533905933 573.8535533905932  L 1508.0071067811864 573.5  L 1507.6535533905933 573.1464466094068  L 1502.6535533905933 568.1464466094068  L 1501.9464466094066 568.8535533905932  Z M 1496.2464466094066 568.8535533905932  L 1500.8928932188132 573.5  L 1496.2464466094066 578.1464466094068  L 1496.9535533905932 578.8535533905932  L 1501.9535533905932 573.8535533905932  L 1502.3071067811866 573.5  L 1501.9535533905932 573.1464466094068  L 1496.9535533905932 568.1464466094068  L 1496.2464466094066 568.8535533905932  Z " fill-rule="nonzero" fill="#aaaaaa" stroke="none" />
  <path d="M 1462 573.5  L 1507 573.5  " stroke-width="1" stroke="#aaaaaa" fill="none" />
</svg>