<?xml version="1.0" encoding="utf-8"?>
<svg version="1.1" xmlns:xlink="http://www.w3.org/1999/xlink" width="14px" height="14px" xmlns="http://www.w3.org/2000/svg">
  <g transform="matrix(1 0 0 1 -594 -786 )">
    <path d="M 13.96865671641791 7  C 13.96865671641791 3.151317168716457  10.848682831283542 0.03134328358209  7 0.03134328358209  C 3.151317168716454 0.03134328358209  0.031343283582087766 3.151317168716457  0.031343283582087766 7.0000000000000036  C 0.031343283582087766 10.848682831283545  3.151317168716454 13.968656716417913  6.999999999999998 13.968656716417913  C 10.848682831283542 13.968656716417913  13.96865671641791 10.848682831283545  13.96865671641791 7.0000000000000036  Z M 7.0000000000000036 10.865671641791046  C 6.57300970087709 10.865671641791046  6.226865671641793 10.519527612555745  6.226865671641793 10.092537313432835  C 6.226865671641793 9.665547014309922  6.57300970087709 9.319402985074623  7.0000000000000036 9.319402985074623  C 7.426990299122913 9.319402985074623  7.77313432835821 9.665547014309922  7.77313432835821 10.092537313432835  C 7.77313432835821 10.519527612555745  7.426990299122913 10.865671641791046  7.0000000000000036 10.865671641791046  Z M 7.773134328358207 4.294029850746268  L 7.386567164179103 7.731343283582088  C 7.386567164179103 8.15970149253731  7.208955223880597 8.504477611940297  6.999999999999998 8.504477611940297  C 6.7910447761194 8.504477611940297  6.613432835820894 8.159701492537312  6.613432835820894 7.731343283582088  L 6.226865671641789 4.294029850746268  C 6.226865671641789 3.867039551623355  6.573009700877087 3.5208955223880585  6.999999999999998 3.5208955223880585  C 7.426990299122911 3.5208955223880585  7.773134328358207 3.867039551623355  7.773134328358207 4.294029850746268  Z " fill-rule="nonzero" fill="#f45b09" stroke="none" transform="matrix(1 0 0 1 594 786 )" />
  </g>
</svg>