<?xml version="1.0" encoding="utf-8"?>
<svg version="1.1" xmlns:xlink="http://www.w3.org/1999/xlink" width="12px" height="12px" xmlns="http://www.w3.org/2000/svg">
  <g transform="matrix(1 0 0 1 -1060 -576 )">
    <path d="M 11.973134328358208 6  C 11.973134328358208 2.7011290017569634  9.298870998243036 0.026865671641791426  6 0.026865671641791426  C 2.7011290017569607 0.026865671641791426  0.026865671641789518 2.7011290017569634  0.026865671641789518 6.000000000000003  C 0.026865671641789518 9.29887099824304  2.7011290017569607 11.97313432835821  5.999999999999998 11.97313432835821  C 9.298870998243036 11.97313432835821  11.973134328358208 9.29887099824304  11.973134328358208 6.000000000000003  Z M 6.000000000000003 9.313432835820896  C 5.634008315037505 9.313432835820896  5.337313432835822 9.01673795361921  5.337313432835822 8.650746268656716  C 5.337313432835822 8.28475458369422  5.634008315037505 7.988059701492535  6.000000000000003 7.988059701492535  C 6.365991684962497 7.988059701492535  6.6626865671641795 8.28475458369422  6.6626865671641795 8.650746268656716  C 6.6626865671641795 9.01673795361921  6.365991684962497 9.313432835820896  6.000000000000003 9.313432835820896  Z M 6.662686567164178 3.6805970149253726  L 6.331343283582088 6.62686567164179  C 6.331343283582088 6.994029850746267  6.179104477611941 7.289552238805969  5.999999999999998 7.289552238805969  C 5.820895522388057 7.289552238805969  5.6686567164179085 6.9940298507462675  5.6686567164179085 6.62686567164179  L 5.33731343283582 3.6805970149253726  C 5.33731343283582 3.314605329962876  5.634008315037503 3.017910447761193  5.999999999999998 3.017910447761193  C 6.365991684962496 3.017910447761193  6.662686567164178 3.314605329962876  6.662686567164178 3.6805970149253726  Z " fill-rule="nonzero" fill="#000000" stroke="none" transform="matrix(1 0 0 1 1060 576 )" />
  </g>
</svg>