<?xml version="1.0" encoding="utf-8"?>
<svg version="1.1" xmlns:xlink="http://www.w3.org/1999/xlink" width="11px" height="20px" xmlns="http://www.w3.org/2000/svg">
  <g transform="matrix(1 0 0 1 -372 -609 )">
    <path d="M 10.810996563573884 1.1846352804130436  C 10.936998854524628 1.316261422681149  11 1.467631486289481  11 1.638745471238039  C 11 1.8098594561865968  10.936998854524628 1.9612295197949288  10.810996563573884 2.0928556620630445  L 3.383161512027499 9.852216748768459  L 10.810996563573884 17.611577835473874  C 10.936998854524628 17.743203977742002  11 17.894574041350353  11 18.06568802629889  C 11 18.23680201124745  10.936998854524628 18.38817207485578  10.810996563573884 18.519798217123885  L 9.865979381443303 19.50699428413474  C 9.739977090492559 19.638620426402888  9.595074455899223 19.704433497536918  9.431271477663255 19.704433497536918  C 9.267468499427249 19.704433497536918  9.122565864833913 19.638620426402888  8.996563573883169 19.50699428413474  L 0.18900343642611617 10.306326939593475  C 0.06300114547537206 10.174700797325348  0 10.023330733717017  0 9.852216748768459  C 0 9.681102763819903  0.06300114547537206 9.52973270021157  0.18900343642611617 9.398106557943464  L 8.996563573883169 0.19743921340216883  C 9.122565864833913 0.0658130711340529  9.267468499427249 0  9.431271477663255 0  C 9.595074455899223 0  9.739977090492559 0.0658130711340529  9.865979381443303 0.19743921340216883  L 10.810996563573884 1.1846352804130436  Z " fill-rule="nonzero" fill="#ffffff" stroke="none" transform="matrix(1 0 0 1 372 609 )" />
  </g>
</svg>