<?xml version="1.0" encoding="utf-8"?>
<svg version="1.1" xmlns:xlink="http://www.w3.org/1999/xlink" width="50px" height="50px" xmlns="http://www.w3.org/2000/svg">
  <g transform="matrix(1 0 0 1 -232 -678 )">
    <path d="M 34.731190429687494 48.03474082115305  C 31.652716133018483 49.337852855634786  28.34291267286388 50.00626799683118  24.999999999999996 49.99995570577486  C 11.246253263246947 49.983153735249275  0.10554099911388025 38.82882339030318  0.10554099911388025 25.07506644635295  C 0.10554099911388025 11.309419945400883  11.264802401415015 0.15015858827878323  25.03044895809825 0.15015858827878323  C 38.796095514781484 0.15015858827878323  49.95535691708262 11.309419945400883  49.95535691708262 25.07506644635295  C 49.95535691708262 35.092208479588095  43.9585192322624 44.136082286144216  34.731190429687494 48.03474082115305  Z M 25 1.9540520428701382  C 12.3254972385672 1.9713577681842671  2.0599510032836132 12.250930074794196  2.0599510032836132 24.925444599498796  C 2.0599510032836132 37.61220621690294  12.34460339701623 47.896858568997445  25.03136506578361 47.896858568997445  C 37.718126734550985 47.896858568997445  48.00277912828362 37.61220621690294  48.00277912828362 24.925444599498796  C 48.00277912828362 15.692858884576877  42.475307640032426 7.357423405532325  33.97044409179688 3.764661849992885  C 31.132604704338966 2.5635595712099795  28.08154890093159 1.9475393983981046  25 1.953493888575521  Z " fill-rule="nonzero" fill="#ffffff" stroke="none" transform="matrix(1 0 0 1 232 678 )" />
  </g>
</svg>