<?xml version="1.0" encoding="utf-8"?>
<svg version="1.1" xmlns:xlink="http://www.w3.org/1999/xlink" width="149px" height="150px" xmlns="http://www.w3.org/2000/svg">
  <g transform="matrix(1 0 0 1 -538 -884 )">
    <path d="M 0.5085424558080868 4.960986328125003  C 1.3214754971590912 2.72900390625  2.7517144097222217 1.112109375  5.087335266729798 0.397412109375  C 24.86258187342172 0.397412109375  44.63797545770202 0.397412109375  64.4133690419823 0.397412109375  C 70.44621113478536 0.99287109375  68.99216185290405 11.576660156249998  68.99216185290405 18.4529296875  C 68.99216185290405 30.803906250000004  68.99216185290405 38.9443359375  68.99216185290405 51.190869140625004  C 68.99216185290405 58.306201171875  70.33656585385101 67.02700195312501  65.60770892518939 69.047900390625  C 62.528234493371215 70.364208984375  54.26324376578283 69.444873046875  50.27853436710859 69.444873046875  C 39.338551530934346 69.444873046875  30.44581952335859 69.444873046875  18.82386067708334 69.444873046875  C 11.552585424558085 69.444873046875  1.6242493292298033 71.174560546875  0.5085424558080868 64.881298828125  C 0.5085424558080868 44.907861328125  0.5085424558080868 24.934423828124995  0.5085424558080868 4.960986328125003  Z M 13.448743292297973 13.294042968750002  C 13.216812657828283 13.327441406250003  13.232539259785355 13.6078125  13.249735637626262 13.889355468749999  C 13.249735637626262 28.109033203124998  13.249735637626262 42.328417968749996  13.249735637626262 56.54794921875  C 27.517291074810608 56.54794921875  41.7844055792298 56.54794921875  56.05181403882575 56.54794921875  C 56.05181403882575 42.129931640624996  56.05181403882575 27.712060546874998  56.05181403882575 13.294042968750002  C 41.85083944917928 13.294042968750002  27.649717881944433 13.294042968750002  13.448743292297973 13.294042968750002  Z M 80.14070588699492 19.64326171874999  C 80.14055890940656 11.371435546875  78.31877170138888 1.553173828125  84.71949869791665 0.397412109375  C 104.49459832702019 0.397412109375  124.2701388888889 0.397412109375  144.0452385179924 0.397412109375  C 146.4653714883207 1.29228515625  148.12812894570706 2.9419921875  148.6240313289141 5.7544921874999995  C 148.6240313289141 25.198828125  148.6240313289141 44.64345703125  148.6240313289141 64.087646484375  C 148.0812430950126 66.51166992187501  146.81120975378786 68.582373046875  144.4434008049242 69.24638671875  C 140.57377485795456 70.33154296875  134.14394629892675 69.4447265625  129.51253551136364 69.4447265625  C 118.60047841698231 69.4447265625  109.65307074652776 69.4447265625  99.0531940498737 69.4447265625  C 94.45970348011362 69.4447265625  87.65243647411616 70.4091796875  83.92317412405299 69.24638671875  C 78.65902481849746 67.6048828125  80.14070588699492 57.363134765625  80.14070588699492 50.19873046874999  C 80.14070588699492 40.68222656249999  80.14070588699492 29.57358398437499  80.14070588699492 19.64326171874999  Z M 93.08090672348484 13.294042968750002  C 92.84882911142677 13.327441406250003  92.86455571338384 13.6078125  92.88160511363635 13.889355468749999  C 92.88160511363635 28.109033203124998  92.88160511363635 42.328417968749996  92.88160511363635 56.54794921875  C 107.14901357323231 56.54794921875  121.41642203282828 56.54794921875  135.68383049242425 56.54794921875  C 135.68383049242425 42.129931640624996  135.68383049242425 27.712060546874998  135.68383049242425 13.294042968750002  C 121.48300288036616 13.294042968750002  107.28188131313132 13.294042968750002  93.08090672348484 13.294042968750002  Z M 30.569721630366164 42.85751953125  C 24.023633798926767 39.447802734375  24.4544251104798 27.951416015625  32.759540719696965 26.389306640625  C 38.720657749368684 25.268115234375003  43.40850793087122 29.282373046875  43.50992246685607 34.72265625000001  C 43.64352509469697 41.89672851562501  36.29155914614899 45.837890625  30.569721630366164 42.85751953125  Z M 112.39170415088384 43.651171875  C 103.62713660037878 42.19658203125  103.3442047427399 28.074023437499992  112.39170415088384 26.389306640625  C 126.43306107954545 23.774853515625  126.16365116003789 45.937353515625006  112.39170415088384 43.651171875  Z M 68.99216185290405 131.54765625000002  C 68.99216185290405 139.26533203125  70.65962259311868 149.31108398437502  64.01520675505051 150  C 44.43911478061868 150  24.86287582859849 150  5.286489898989894 150  C 2.8484256628787823 149.255419921875  1.2015417850378736 147.722314453125  0.5086894333964599 145.238232421875  C 0.5086894333964599 125.33100585937501  0.5086894333964599 105.42333984375001  0.5086894333964599 85.51611328125001  C 1.0885160195707022 83.768408203125  2.4271878945707024 81.72963867187501  4.490165325126258 81.15117187500002  C 8.387129103535349 80.05825195312501  14.75272845643939 80.95283203125001  19.421177596275246 80.95283203125001  C 30.150688525883837 80.95283203125001  39.870463423295455 80.95283203125001  49.880519057765156 80.95283203125001  C 54.38200165719698 80.95283203125001  60.933380681818186 79.95146484375  65.01039200599747 81.15117187500002  C 70.52631392045454 82.77421875000002  68.99216185290405 92.84970703125  68.99216185290405 100.00019531250001  C 68.99216185290405 110.99223632812502  68.99216185290405 120.36884765625001  68.99216185290405 131.54765625000002  Z M 13.448743292297973 93.849462890625  C 13.216812657828283 93.882861328125  13.232539259785355 94.16308593750001  13.249735637626262 94.44477539062501  C 13.249735637626262 108.66445312500001  13.249735637626262 122.88383789062503  13.249735637626262 137.10322265625  C 27.517291074810608 137.10322265625  41.7844055792298 137.10322265625  56.05181403882575 137.10322265625  C 56.05181403882575 122.68520507812501  56.05181403882575 108.26748046875002  56.05181403882575 93.849462890625  C 41.85083944917928 93.849462890625  27.649717881944433 93.849462890625  13.448743292297973 93.849462890625  Z M 135.88283814709595 80.95283203125003  C 142.30164338699495 80.574169921875  148.2470338147096 80.66733398437499  148.62403132891413 86.30991210937499  C 148.62403132891413 91.86533203124999  148.62403132891413 97.421044921875  148.62403132891413 102.97646484375001  C 148.15958214962123 108.5982421875  148.55759745896464 115.07929687499997  148.42502367424242 121.03183593750002  C 134.29048295454544 121.03183593750002  120.1557952572601 121.03183593750002  106.02096058238638 121.03183593750002  C 106.02096058238638 117.79130859375002  106.02096058238638 114.55034179687502  106.02096058238638 111.30966796875002  C 102.03933771306816 110.847216796875  97.19539733270202 111.243603515625  92.88175209122475 111.111328125  C 92.41730291193183 123.67749023437499  92.81546519886363 137.10322265625  92.68274443655304 150  C 90.0947630602904 150  87.50663470643939 150  84.91850635258838 150  C 78.24263731060604 148.66655273437502  80.14055890940656 138.68276367187502  80.14055890940656 130.753857421875  C 80.14055890940656 119.69428710937501  80.14055890940656 110.59467773437501  80.14055890940656 100.00019531250001  C 80.14055890940656 95.37612304687502  79.2015190972222 88.44375000000001  80.33971354166667 84.72260742187503  C 81.69749250315655 80.28281250000003  87.58629655934342 80.95283203125003  93.47892203282827 80.95283203125003  C 103.44076901830806 80.95283203125003  112.31601069286616 80.95283203125003  122.34532039141412 80.95283203125003  C 122.34532039141412 89.74892578125002  122.34532039141412 98.54545898437505  122.34532039141412 107.34155273437503  C 126.79139244002523 107.34155273437503  131.23761146622473 107.34155273437503  135.68368351483585 107.34155273437503  C 135.81625729955806 98.61123046875001  135.41824199021463 89.35209960937502  135.88283814709595 80.95283203125003  Z M 26.189936474116163 112.89711914062501  C 27.03696831597222 109.64736328125  29.48370422979798 107.21748046875  33.754872948232325 106.74638671875  C 40.12003136837121 106.044140625  45.38168205492424 112.14096679687499  42.91245857007576 118.849365234375  C 39.489938446969695 128.14775390625  23.12545375631313 124.65322265625  26.189936474116163 112.89711914062501  Z M 120.35480291193181 134.523779296875  C 120.35480291193181 139.68251953125  120.35480291193181 144.841259765625  120.35480291193181 150  C 115.57685546875 150  110.7987610479798 150  106.02096058238638 150  C 106.15368134469698 144.90732421875  105.75566603535356 139.285986328125  106.22011521464647 134.523779296875  C 110.93162878787881 134.523779296875  115.64314236111112 134.523779296875  120.35480291193181 134.523779296875  Z M 133.89217369002526 134.523779296875  C 138.80298887310605 134.523779296875  143.7133631234217 134.523779296875  148.62403132891413 134.523779296875  C 148.62403132891413 137.89687500000002  148.62403132891413 141.269970703125  148.62403132891413 144.642919921875  C 148.0705137310606 147.464501953125  146.4152521306818 149.18745117187498  143.84593690814395 150  C 140.46177793560608 150  137.0773250078914 150  133.69301905776516 150  C 133.82573982007577 144.90732421875  133.42772451073233 139.285986328125  133.89217369002526 134.523779296875  Z " fill-rule="nonzero" fill="#ffffff" stroke="none" transform="matrix(1 0 0 1 538 884 )" />
  </g>
</svg>