<?xml version="1.0" encoding="utf-8"?>
<svg version="1.1" xmlns:xlink="http://www.w3.org/1999/xlink" width="22px" height="20.000000986972054px" preserveAspectRatio="xMinYMid meet" viewBox="1250 1058.999999013028  22 18.000000986972054" xmlns="http://www.w3.org/2000/svg">
  <g transform="matrix(0 1.0000000000000113 -1 0 2328.9999995065145 -193.00000049350047 )">
    <path d="M 1260.5 100  A 3 3 0 0 0 1257.5 103 A 3 3 0 0 0 1260.5 106 A 3 3 0 0 0 1263.5 103 A 3 3 0 0 0 1260.5 100 Z M 1260.5 1066  A 3 3 0 0 0 1257.5 1069 A 3 3 0 0 0 1260.5 1072 A 3 3 0 0 0 1263.5 1069 A 3 3 0 0 0 1260.5 1066 Z " fill-rule="nonzero" fill="#d9001b" stroke="none" />
    <path d="M 1260.5 101  L 1260.5 1071  " stroke-width="1" stroke="#d9001b" fill="none" />
  </g>
</svg>