<?xml version="1.0" encoding="utf-8"?>
<svg version="1.1" xmlns:xlink="http://www.w3.org/1999/xlink" width="8px" height="15px" xmlns="http://www.w3.org/2000/svg">
  <g transform="matrix(1 0 0 1 -121 -121 )">
    <path d="M 7.862542955326461 0.8884764603097826  C 7.95418098510882 0.9871960670108619  8 1.1007236147171107  8 1.2290591034285292  C 8 1.3573945921399477  7.95418098510882 1.4709221398461965  7.862542955326461 1.5696417465472834  L 2.460481099656363 7.389162561576345  L 7.862542955326461 13.208683376605407  C 7.95418098510882 13.3074029833065  8 13.420930531012765  8 13.549266019724167  C 8 13.677601508435586  7.95418098510882 13.791129056141834  7.862542955326461 13.889848662842915  L 7.175257731958766 14.630245713101054  C 7.0836197021764065 14.728965319802164  6.978235967926707 14.77832512315269  6.85910652920964 14.77832512315269  C 6.739977090492545 14.77832512315269  6.634593356242846 14.728965319802164  6.542955326460486 14.630245713101054  L 0.13745704467353903 7.7297452046951065  C 0.04581901489117968 7.631025597994012  0 7.517498050287763  0 7.389162561576345  C 0 7.2608270728649265  0.04581901489117968 7.147299525158677  0.13745704467353903 7.048579918457598  L 6.542955326460486 0.14807941005162661  C 6.634593356242846 0.04935980335053967  6.739977090492545 0  6.85910652920964 0  C 6.978235967926707 0  7.0836197021764065 0.04935980335053967  7.175257731958766 0.14807941005162661  L 7.862542955326461 0.8884764603097826  Z " fill-rule="nonzero" fill="#ffffff" stroke="none" transform="matrix(1 0 0 1 121 121 )" />
  </g>
</svg>