<?xml version="1.0" encoding="utf-8"?>
<svg version="1.1" xmlns:xlink="http://www.w3.org/1999/xlink" width="15px" height="15px" xmlns="http://www.w3.org/2000/svg">
  <g transform="matrix(1 0 0 1 -730 -256 )">
    <path d="M 14.905170641447368 7.5  C 14.905170641447368 3.3810906661184204  11.618909333881579 0.09482935855263158  7.5 0.09482935855263158  C 3.3810906661184212 0.09482935855263158  0.09482935855263193 3.3810906661184212  0.09482935855263193 7.5  C 0.09482935855263193 11.618909333881579  3.3810906661184212 14.905170641447368  7.5 14.905170641447368  C 11.618909333881579 14.905170641447368  14.905170641447368 11.618909333881579  14.905170641447368 7.5  Z M 6.736739309210525 4.593441611842105  C 6.738666735197367 4.346731085526316  6.790707236842104 4.140496504934211  6.937191611842105 3.9361893503289482  C 7.0913856907894735 3.7819952713815796  7.222450657894736 3.6798416940789473  7.471088610197369 3.6798416940789473  C 7.748637952302632 3.6586400082236845  8.004985608552632 3.7897049753289473  8.107139185855262 3.9863024259868425  C 8.224712171052632 4.1250770970394735  8.290244654605262 4.433465254934211  8.261333264802632 4.614643297697369  C 8.261333264802632 4.666683799342105  8.224712171052632 5.009765625  8.209292763157894 5.104209498355264  L 8.00498560855263 7.70237972861842  C 8.00498560855263 7.95872738486842  7.952945106907892 8.215075041118421  7.850791529605261 8.411672491776313  C 7.798751027960524 8.565866570723683  7.646484374999998 8.668020148026313  7.440249794407893 8.668020148026313  C 7.286055715460525 8.668020148026313  7.133789062499998 8.565866570723683  7.081748560855262 8.411672491776313  C 6.979594983552629 8.155324835526315  6.927554481907893 7.951017680921052  6.927554481907893 7.70237972861842  L 6.788779810855262 5.15625  C 6.736739309210525 4.695595189144736  6.736739309210525 4.849789268092105  6.736739309210525 4.593441611842105  Z M 8.265188116776317 10.506784539473685  C 8.261333264802632 10.755422491776315  8.209292763157897 10.959729646381579  8.062808388157897 11.113923725328947  C 7.908614309210527 11.268117804276315  7.704307154605263 11.31823087993421  7.550113075657895 11.31823087993421  C 7.345805921052631 11.31823087993421  7.1395713404605265 11.266190378289473  6.9873046875 11.113923725328947  C 6.833110608552631 10.959729646381579  6.73095703125 10.755422491776315  6.73095703125 10.506784539473685  C 6.73095703125 10.302477384868421  6.782997532894736 10.096242804276317  6.935264185855265 9.943976151315788  C 7.089458264802633 9.789782072368421  7.293765419407896 9.68762849506579  7.4980725740131575 9.68762849506579  C 7.70237972861842 9.68762849506579  7.908614309210527 9.789782072368421  8.060880962171053 9.943976151315788  C 8.215075041118421 10.098170230263156  8.265188116776317 10.302477384868421  8.265188116776317 10.506784539473685  Z " fill-rule="nonzero" fill="#000000" stroke="none" transform="matrix(1 0 0 1 730 256 )" />
  </g>
</svg>