<?xml version="1.0" encoding="utf-8"?>
<svg version="1.1" xmlns:xlink="http://www.w3.org/1999/xlink" width="223px" height="30px" viewBox="283 149  223 30" xmlns="http://www.w3.org/2000/svg">
  <path d="M 284 152  A 2 2 0 0 1 286 150 L 503 150  A 2 2 0 0 1 505 152 L 505 176  A 2 2 0 0 1 503 178 L 286 178  A 2 2 0 0 1 284 176 L 284 152  Z " fill-rule="nonzero" fill="#ffffff" stroke="none" />
  <path d="M 283.5 152  A 2.5 2.5 0 0 1 286 149.5 L 503 149.5  A 2.5 2.5 0 0 1 505.5 152 L 505.5 176  A 2.5 2.5 0 0 1 503 178.5 L 286 178.5  A 2.5 2.5 0 0 1 283.5 176 L 283.5 152  Z " stroke-width="1" stroke="#000000" fill="none" stroke-opacity="0.4196078431372549" />
</svg>