<?xml version="1.0" encoding="utf-8"?>
<svg version="1.1" xmlns:xlink="http://www.w3.org/1999/xlink" width="95px" height="30px" viewBox="515 149  95 30" xmlns="http://www.w3.org/2000/svg">
  <path d="M 516 152  A 2 2 0 0 1 518 150 L 607 150  A 2 2 0 0 1 609 152 L 609 176  A 2 2 0 0 1 607 178 L 518 178  A 2 2 0 0 1 516 176 L 516 152  Z " fill-rule="nonzero" fill="#f0f0f0" stroke="none" />
  <path d="M 515.5 152  A 2.5 2.5 0 0 1 518 149.5 L 607 149.5  A 2.5 2.5 0 0 1 609.5 152 L 609.5 176  A 2.5 2.5 0 0 1 607 178.5 L 518 178.5  A 2.5 2.5 0 0 1 515.5 176 L 515.5 152  Z " stroke-width="1" stroke="#000000" fill="none" stroke-opacity="0.4196078431372549" />
</svg>