<?xml version="1.0" encoding="utf-8"?>
<svg version="1.1" xmlns:xlink="http://www.w3.org/1999/xlink" width="97px" height="30px" viewBox="620 149  97 30" xmlns="http://www.w3.org/2000/svg">
  <path d="M 621 152  A 2 2 0 0 1 623 150 L 714 150  A 2 2 0 0 1 716 152 L 716 176  A 2 2 0 0 1 714 178 L 623 178  A 2 2 0 0 1 621 176 L 621 152  Z " fill-rule="nonzero" fill="#ffffff" stroke="none" />
  <path d="M 620.5 152  A 2.5 2.5 0 0 1 623 149.5 L 714 149.5  A 2.5 2.5 0 0 1 716.5 152 L 716.5 176  A 2.5 2.5 0 0 1 714 178.5 L 623 178.5  A 2.5 2.5 0 0 1 620.5 176 L 620.5 152  Z " stroke-width="1" stroke="#000000" fill="none" stroke-opacity="0.4196078431372549" />
</svg>