<?xml version="1.0" encoding="utf-8"?>
<svg version="1.1" xmlns:xlink="http://www.w3.org/1999/xlink" width="78px" height="30px" viewBox="840 149  78 30" xmlns="http://www.w3.org/2000/svg">
  <path d="M 841 152  A 2 2 0 0 1 843 150 L 915 150  A 2 2 0 0 1 917 152 L 917 176  A 2 2 0 0 1 915 178 L 843 178  A 2 2 0 0 1 841 176 L 841 152  Z " fill-rule="nonzero" fill="#f0f0f0" stroke="none" />
  <path d="M 840.5 152  A 2.5 2.5 0 0 1 843 149.5 L 915 149.5  A 2.5 2.5 0 0 1 917.5 152 L 917.5 176  A 2.5 2.5 0 0 1 915 178.5 L 843 178.5  A 2.5 2.5 0 0 1 840.5 176 L 840.5 152  Z " stroke-width="1" stroke="#000000" fill="none" stroke-opacity="0.4196078431372549" />
</svg>