<?xml version="1.0" encoding="utf-8"?>
<svg version="1.1" xmlns:xlink="http://www.w3.org/1999/xlink" width="108px" height="30px" viewBox="726 149  108 30" xmlns="http://www.w3.org/2000/svg">
  <path d="M 727 152  A 2 2 0 0 1 729 150 L 831 150  A 2 2 0 0 1 833 152 L 833 176  A 2 2 0 0 1 831 178 L 729 178  A 2 2 0 0 1 727 176 L 727 152  Z " fill-rule="nonzero" fill="#ffffff" stroke="none" />
  <path d="M 726.5 152  A 2.5 2.5 0 0 1 729 149.5 L 831 149.5  A 2.5 2.5 0 0 1 833.5 152 L 833.5 176  A 2.5 2.5 0 0 1 831 178.5 L 729 178.5  A 2.5 2.5 0 0 1 726.5 176 L 726.5 152  Z " stroke-width="1" stroke="#000000" fill="none" stroke-opacity="0.4196078431372549" />
</svg>