<?xml version="1.0" encoding="utf-8"?>
<svg version="1.1" xmlns:xlink="http://www.w3.org/1999/xlink" width="342px" height="38px" xmlns="http://www.w3.org/2000/svg">
  <g transform="matrix(1 0 0 1 -117 -612 )">
    <path d="M 118 615  A 2 2 0 0 1 120 613 L 456 613  A 2 2 0 0 1 458 615 L 458 647  A 2 2 0 0 1 456 649 L 120 649  A 2 2 0 0 1 118 647 L 118 615  Z " fill-rule="nonzero" fill="#000000" stroke="none" />
    <path d="M 117.5 615  A 2.5 2.5 0 0 1 120 612.5 L 456 612.5  A 2.5 2.5 0 0 1 458.5 615 L 458.5 647  A 2.5 2.5 0 0 1 456 649.5 L 120 649.5  A 2.5 2.5 0 0 1 117.5 647 L 117.5 615  Z " stroke-width="1" stroke="#f2f2f2" fill="none" stroke-opacity="0.3607843137254902" />
  </g>
</svg>