<?xml version="1.0" encoding="utf-8"?>
<svg version="1.1" xmlns:xlink="http://www.w3.org/1999/xlink" width="13px" height="17px" xmlns="http://www.w3.org/2000/svg">
  <g transform="matrix(1 0 0 1 -243 -622 )">
    <path d="M 5.937698407660591 0.06746031087239683  L 7.062301592339409 0.067460310872396  C 7.1628968329535585 0.067460310872396  7.211904759385849 0.1298611111111117  7.211904759385849 0.2546626885308159  L 7.211904759385849 7.609523799641929  L 12.798809518771698 7.609523799641929  C 12.898115074327253 7.609523799641929  12.94841268581814 7.671924599880643  12.948412703450519 7.796726200358073  L 12.948412703450519 9.203273799641927  C 12.948412703450519 9.328075377061632  12.898115091959632 9.38878966606988  12.798809518771698 9.388789689127604  L 7.211904759385852 9.388789689127604  L 7.211904759385852 16.745337311469182  C 7.211904759385852 16.870138888888885  7.16289681532118 16.932539689127605  7.06230159233941 16.932539689127605  L 5.937698407660591 16.932539689127605  C 5.837103167046441 16.932539689127605  5.788095240614149 16.87013888888889  5.788095240614149 16.745337311469182  L 5.786805555555556 9.388789689127604  L 0.2024801662868926 9.388789689127604  C 0.10188492567274351 9.388789689127604  0.05158731418185796 9.328075400119358  0.05158729654947929 9.203273799641927  L 0.05158729654947929 7.796726200358073  C 0.05158729654947929 7.671924622938367  0.10188490804036517 7.611210333930122  0.20119048122829855 7.611210310872396  L 5.786805555555556 7.609523799641929  L 5.786805555555556 0.2563491997612859  C 5.786805555555556 0.12986111111111212  5.838392852105036 0.06746031087239683  5.937698407660591 0.06746031087239683  Z " fill-rule="nonzero" fill="#ffffff" stroke="none" fill-opacity="0.996078431372549" transform="matrix(1 0 0 1 243 622 )" />
  </g>
</svg>