<?xml version="1.0" encoding="utf-8"?>
<svg version="1.1" xmlns:xlink="http://www.w3.org/1999/xlink" width="10px" height="10px" xmlns="http://www.w3.org/2000/svg">
  <g transform="matrix(1 0 0 1 -245 -1273 )">
    <path d="M 3.229166666666666 3.09375  L 2.010416666666666 4.322916666666667  C 2.8124999999999996 5.895833333333332  4.104166666666666 7.1875  5.677083333333332 7.989583333333333  L 6.895833333333332 6.770833333333334  C 7.041666666666665 6.624999999999998  7.270833333333332 6.572916666666666  7.458333333333332 6.635416666666667  C 8.083333333333332 6.84375  8.760416666666664 6.947916666666667  9.447916666666668 6.947916666666667  C 9.75 6.947916666666667  10 7.197916666666667  10 7.5  L 10 9.4375  C 10 9.739583333333334  9.749999999999998 9.989583333333332  9.447916666666668 9.989583333333332  C 4.229166666666666 10  0 5.770833333333334  0 0.5520833333333333  C 0 0.2500000000000002  0.2499999999999997 0  0.5520833333333333 0  L 2.4999999999999996 0  C 2.802083333333333 0  3.0520833333333326 0.23958333333333334  3.0520833333333326 0.5416666666666667  C 3.0520833333333326 1.2395833333333335  3.166666666666666 1.9062499999999996  3.3645833333333326 2.531249999999999  C 3.427083333333333 2.7291666666666665  3.385416666666666 2.9375  3.229166666666666 3.09375  Z " fill-rule="nonzero" fill="#f2f2f2" stroke="none" transform="matrix(1 0 0 1 245 1273 )" />
  </g>
</svg>