<?xml version="1.0" encoding="utf-8"?>
<svg version="1.1" xmlns:xlink="http://www.w3.org/1999/xlink" width="383px" height="132px" xmlns="http://www.w3.org/2000/svg">
  <g transform="matrix(1 0 0 1 -1602 -670 )">
    <path d="M 1603 675  A 4 4 0 0 1 1607 671 L 1980 671  A 4 4 0 0 1 1984 675 L 1984 797  A 4 4 0 0 1 1980 801 L 1607 801  A 4 4 0 0 1 1603 797 L 1603 675  Z " fill-rule="nonzero" fill="#ffffff" stroke="none" />
    <path d="M 1602.5 675  A 4.5 4.5 0 0 1 1607 670.5 L 1980 670.5  A 4.5 4.5 0 0 1 1984.5 675 L 1984.5 797  A 4.5 4.5 0 0 1 1980 801.5 L 1607 801.5  A 4.5 4.5 0 0 1 1602.5 797 L 1602.5 675  Z " stroke-width="1" stroke-dasharray="3,1" stroke="#000000" fill="none" stroke-dashoffset="0.5" />
  </g>
</svg>