<?xml version="1.0" encoding="utf-8"?>
<svg version="1.1" xmlns:xlink="http://www.w3.org/1999/xlink" width="9px" height="10px" xmlns="http://www.w3.org/2000/svg">
  <g transform="matrix(1 0 0 1 -346 -923 )">
    <path d="M 8.962470541487068 3.2005044360871016  L 8.142489581088363 3.5227902572307186  C 7.828612358566811 2.6901603536402927  7.248492763335128 1.9607078727559843  6.4405738921066815 1.4874076109541225  C 5.673497400323277 1.0255877867353727  4.8194555596713355 0.865436315658245  4.0027393622036636 0.9661464012632982  L 3.8615877357219826 0.07565241647273965  C 4.871220652613147 -0.05712176903257953  5.929605872844828 0.13646829288563853  6.8789721780711215 0.700136105801197  C 7.869191813712284 1.2880604325964098  8.582355913254311 2.1829595661569154  8.962470541487068 3.2005044360871016  Z M 1.2225102539062498 3.052599515874335  C 2.2547664399245693 1.204306225066489  4.55298311557112 0.5710347614694149  6.350288995150862 1.6391656312333778  C 8.147594874730604 2.7052685546875006  8.763407741783405 5.068671604886968  7.735489978448276 6.916964885305851  C 6.688049373653018 8.765269437749335  4.389832698006466 9.39854090134641  2.592526808324354 8.331424004737366  C 0.795220928744612 7.264307108128324  0.17941902276400865 4.900904057928856  1.2225102539062498 3.052599515874335  Z M 5.9120769564924585 2.4185506669714103  C 4.533964230872845 1.6003191801030592  2.7717819302262945 2.085888516040559  1.976133297413793 3.5030966381316486  C 1.1804737136314656 4.920304760222739  1.6526480334051723 6.732489320146278  3.0307607590247847 7.550709534990027  C 4.408873484644396 8.368929749833779  6.171066746363149 7.883360413896278  6.966715369073277 6.46615230219415  C 7.762363991783405 5.048944190492023  7.290189672009699 3.2367708922041234  5.9120769564924585 2.4185506669714103  Z M 0.829906276939655 6.564259859125665  C 1.1545856916756465 7.354866200548536  1.7176803374191807 8.047522710272606  2.49491264143319 8.508982016705453  C 3.3246440564385775 9.001615369431516  4.256043214574354 9.148404920212766  5.131974296201509 8.993548651512631  L 5.24578080549569 9.8884365234375  C 4.185083960802802 10.06789855177859  3.059913543911638 9.890993984790558  2.0565033943965516 9.289865483710107  C 1.1055704539331896 8.731459046708776  0.41267416487068953 7.877614569481382  0.020015402747844805 6.910081127410238  L 0.829906276939655 6.564259859125665  Z " fill-rule="nonzero" fill="#f2f2f2" stroke="none" transform="matrix(1 0 0 1 346 923 )" />
  </g>
</svg>