<?xml version="1.0" encoding="utf-8"?>
<svg version="1.1" xmlns:xlink="http://www.w3.org/1999/xlink" width="8px" height="12px" xmlns="http://www.w3.org/2000/svg">
  <g transform="matrix(1 0 0 1 -1950 -690 )">
    <path d="M 7.862542955326461 0.7107811682478261  C 7.95418098510882 0.7897568536086895  8 0.8805788917736885  8 0.9832472827428234  C 8 1.0859156737119582  7.95418098510882 1.176737711876957  7.862542955326461 1.2557133972378267  L 2.460481099656363 5.911330049261076  L 7.862542955326461 10.566946701284325  C 7.95418098510882 10.6459223866452  8 10.736744424810212  8 10.839412815779333  C 8 10.942081206748469  7.95418098510882 11.032903244913468  7.862542955326461 11.111878930274331  L 7.175257731958766 11.704196570480844  C 7.0836197021764065 11.783172255841732  6.978235967926707 11.822660098522151  6.85910652920964 11.822660098522151  C 6.739977090492545 11.822660098522151  6.634593356242846 11.783172255841732  6.542955326460486 11.704196570480844  L 0.13745704467353903 6.183796163756085  C 0.04581901489117968 6.10482047839521  0 6.0139984402302105  0 5.911330049261076  C 0 5.808661658291941  0.04581901489117968 5.7178396201269415  0.13745704467353903 5.6388639347660785  L 6.542955326460486 0.11846352804130131  C 6.634593356242846 0.039487842680431734  6.739977090492545 0  6.85910652920964 0  C 6.978235967926707 0  7.0836197021764065 0.039487842680431734  7.175257731958766 0.11846352804130131  L 7.862542955326461 0.7107811682478261  Z " fill-rule="nonzero" fill="#000000" stroke="none" transform="matrix(1 0 0 1 1950 690 )" />
  </g>
</svg>