<?xml version="1.0" encoding="utf-8"?>
<svg version="1.1" xmlns:xlink="http://www.w3.org/1999/xlink" width="18px" height="16px" xmlns="http://www.w3.org/2000/svg">
  <g transform="matrix(1 0 0 1 -522 -857 )">
    <path d="M 16.04921083172147 16  C 17.773642166344295 15.920171932086825  18.4787582205029 14.715203094777562  17.6167079303675 13.238220502901354  L 10.561038684719536 1.1693960885450252  C 9.698030947775626 -0.30615946701053043  8.287624758220502 -0.30615946701053043  7.4248433268858784 1.1693960885450252  L 0.3691392649903288 13.238220502901354  C -0.493642166344294 14.715289060820975  0.2122050290135396 15.92018912529551  1.9365667311411994 16  L 16.04921083172147 16  Z M 7.645508704061893 5.592159896840749  C 7.645543520309477 5.196200300881152  7.771787234042553 4.863219428325811  8.023822050290134 4.593801848269933  C 8.277371373307544 4.323060391145498  8.599717601547388 4.187663872770256  8.992845261121856 4.187663872770256  C 9.386181818181818 4.187663872770256  9.708232108317214 4.3216333548248445  9.962042553191486 4.588385987534925  C 10.214199226305608 4.855740382548894  10.34023404255319 5.190096711798841  10.34023404255319 5.592159896840749  C 10.34023404255319 5.938087255534065  9.813899419729205 8.481822480120353  9.638338491295936 10.332396303460134  L 8.370591876208895 10.332396303460134  C 8.216617021276592 8.481805286911671  7.645508704061893 5.938087255534065  7.645508704061893 5.592159896840749  Z M 10.342497098646035 12.46332258757791  C 10.342497098646035 12.827388781431337  10.210021276595745 13.137382333978078  9.944286266924564 13.393303245218137  C 9.677593810444874 13.649825918762089  9.360243713733075 13.777657425317  8.992932301740813 13.777657425317  C 8.625707930367504 13.777657425317  8.308270793036751 13.649825918762092  8.041630560928434 13.393303245218137  C 7.775721470019342 13.137382333978078  7.643558994197291 12.827388781431337  7.643558994197291 12.463322587577906  C 7.643558994197291 12.10114764667956  7.775721470019342 11.787801418439717  8.041630560928434 11.525175155813455  C 8.308270793036751 11.26246292714378  8.625707930367506 11.131106812808943  8.992932301740813 11.131106812808943  C 9.360243713733075 11.131106812808943  9.677593810444874 11.26246292714378  9.944286266924564 11.525175155813455  C 10.210021276595745 11.787801418439717  10.342497098646035 12.10114764667956  10.342497098646035 12.46332258757791  Z " fill-rule="nonzero" fill="#d9001b" stroke="none" transform="matrix(1 0 0 1 522 857 )" />
  </g>
</svg>