<?xml version="1.0" encoding="utf-8"?>
<svg version="1.1" xmlns:xlink="http://www.w3.org/1999/xlink" width="22px" height="20.000000986972054px" preserveAspectRatio="xMinYMid meet" viewBox="1236 1018.999999013028  22 18.000000986972054" xmlns="http://www.w3.org/2000/svg">
  <g transform="matrix(0 1.0000000000000113 -1 0 2274.999999506514 -219.00000049350024 )">
    <path d="M 1247.5 60  A 3 3 0 0 0 1244.5 63 A 3 3 0 0 0 1247.5 66 A 3 3 0 0 0 1250.5 63 A 3 3 0 0 0 1247.5 60 Z M 1247.5 1026  A 3 3 0 0 0 1244.5 1029 A 3 3 0 0 0 1247.5 1032 A 3 3 0 0 0 1250.5 1029 A 3 3 0 0 0 1247.5 1026 Z " fill-rule="nonzero" fill="#d9001b" stroke="none" />
    <path d="M 1247.5 61  L 1247.5 1031  " stroke-width="1" stroke="#d9001b" fill="none" />
  </g>
</svg>