<?xml version="1.0" encoding="utf-8"?>
<svg version="1.1" xmlns:xlink="http://www.w3.org/1999/xlink" width="19px" height="990px" xmlns="http://www.w3.org/2000/svg">
  <g transform="matrix(1 0 0 1 -1238 -51 )">
    <path d="M 1247.5 60  A 3 3 0 0 0 1244.5 63 A 3 3 0 0 0 1247.5 66 A 3 3 0 0 0 1250.5 63 A 3 3 0 0 0 1247.5 60 Z M 1247.5 1026  A 3 3 0 0 0 1244.5 1029 A 3 3 0 0 0 1247.5 1032 A 3 3 0 0 0 1250.5 1029 A 3 3 0 0 0 1247.5 1026 Z " fill-rule="nonzero" fill="#d9001b" stroke="none" />
    <path d="M 1247.5 61  L 1247.5 1031  " stroke-width="1" stroke="#d9001b" fill="none" />
  </g>
</svg>