<?xml version="1.0" encoding="utf-8"?>
<svg version="1.1" xmlns:xlink="http://www.w3.org/1999/xlink" width="8px" height="4px" xmlns="http://www.w3.org/2000/svg">
  <g transform="matrix(1 0 0 1 -503 -131 )">
    <path d="M 7.697111111111108 3.496375000000004  C 5.286660730748183 4.059750694496003  2.7990059359184807 4.059750694496003  0.38855555555555554 3.4963750000000005  L 0.07677777777777806 3.4232499999999995  L 0.1867777777777775 3.0916250000000005  L 0.4475555555555562 2.2948750000000047  C 0.6656666666666666 1.6306250000000038  0.8210000000000011 1.1958750000000027  1.0039999999999987 0.7588750000000015  L 1.022333333333331 0.7217500000000019  C 1.1507673443572013 0.49959678090521287  1.352349317899366 0.34389928463765074  1.5827777777777767 0.28887500000000266  C 1.9666556340252503 0.17239258019876935  2.3610974932505906 0.10558517853879223  2.758444444444442 0.089750000000004  C 3.8017777777777773 0.10062500000000263  4.896333333333331 0.13700000000000223  6.1713333333333305 0.1988750000000028  C 6.745444444444441 0.18612500000000232  7.245999999999997 0.6295000000000037  7.356999999999999 1.2356250000000024  L 7.389999999999996 1.371375000000004  C 7.450999999999997 1.616000000000005  7.523666666666663 1.8695000000000022  7.625444444444444 2.203750000000003  C 7.649777777777773 2.282125000000004  7.843555555555554 2.9060000000000024  7.896222222222219 3.0833750000000038  L 7.901888888888887 3.0998750000000044  L 7.999888888888888 3.425500000000003  L 7.697111111111108 3.496375000000004  Z " fill-rule="nonzero" fill="#000000" stroke="none" transform="matrix(1 0 0 1 503 131 )" />
  </g>
</svg>