<?xml version="1.0" encoding="utf-8"?>
<svg version="1.1" xmlns:xlink="http://www.w3.org/1999/xlink" width="8px" height="8px" xmlns="http://www.w3.org/2000/svg">
  <g transform="matrix(1 0 0 1 -497 -124 )">
    <path d="M 7.321863013698631 1.2487058823529409  L 0.7148493150684927 1.2487058823529409  C 0.352657534246575 1.2487058823529409  0.05599999999999953 1.082470588235294  0.055013698630137255 0.6347058823529416  C 0.055013698630137255 0.19070588235294145  0.3494794520547945 0.020117647058823455  0.7148493150684927 0.020117647058823455  L 7.321863013698631 0.020117647058823455  C 7.686246575342468 0.020117647058823455  7.981698630136989 0.18882352941176517  7.981698630136989 0.6347058823529416  C 7.981698630136989 1.0792941176470587  7.687232876712332 1.2487058823529409  7.321863013698631 1.2487058823529409  Z M 5.678027397260274 4.542823529411765  L 0.7148493150684927 4.542823529411765  C 0.352657534246575 4.542823529411765  0.05599999999999953 4.376588235294118  0.055013698630137255 3.928823529411766  C 0.055013698630137255 3.484823529411766  0.3494794520547945 3.3142352941176476  0.7148493150684927 3.3142352941176476  L 5.678027397260274 3.3142352941176476  C 6.042410958904109 3.3142352941176476  6.33786301369863 3.4829411764705904  6.33786301369863 3.928823529411766  C 6.33786301369863 4.373411764705883  6.043397260273973 4.542823529411765  5.678027397260274 4.542823529411765  Z M 3.4131506849315065 7.993882352941178  L 0.7148493150684927 7.993882352941178  C 0.352657534246575 7.993882352941178  0.05599999999999953 7.827647058823531  0.055013698630137255 7.379882352941178  C 0.055013698630137255 6.935882352941176  0.3494794520547945 6.76529411764706  0.7148493150684927 6.76529411764706  L 3.4131506849315065 6.76529411764706  C 3.7775342465753425 6.76529411764706  4.072986301369863 6.934000000000001  4.072986301369863 7.379882352941178  C 4.072986301369863 7.824470588235295  3.7785205479452055 7.993882352941178  3.4131506849315065 7.993882352941178  Z " fill-rule="nonzero" fill="#000000" stroke="none" transform="matrix(1 0 0 1 497 124 )" />
  </g>
</svg>