<?xml version="1.0" encoding="utf-8"?>
<svg version="1.1" xmlns:xlink="http://www.w3.org/1999/xlink" width="15px" height="15px" xmlns="http://www.w3.org/2000/svg">
  <g transform="matrix(1 0 0 1 -374 -229 )">
    <path d="M 13.050121860351563 0.93744140625  L 10.311855512695313 0.9374414062500004  C 10.052988216429409 0.9374414062500004  9.843134809570314 0.7275879993909043  9.843134809570314 0.4687207031250002  C 9.843134809570314 0.20985340685909587  10.052988216429409 0  10.311855512695313 0  L 13.050121860351563 0  C 14.12724205078125 0  14.99906255859375 0.8718205078125001  14.99906255859375 1.9489406982421875  L 14.99906255859375 4.687207045898439  C 14.99906255859375 4.9460743701022745  14.789209151734656 5.15592777696137  14.53034185546875 5.15592777696137  C 14.271474559202847 5.15592777696137  14.06162115234375 4.9460743701022745  14.06162115234375 4.68720707383637  L 14.06162115234375 1.9489406982421875  C 14.06162115234375 1.3902256054687503  13.608836953125 0.93744140625  13.050121860351563 0.93744140625  Z M 14.061621152343749 13.050121860351563  L 14.061621152343752 10.089681899414062  C 14.06162115234375 9.830814575210226  14.271474559202847 9.620961168351132  14.53034185546875 9.620961168351132  C 14.789209151734656 9.620961168351132  14.99906255859375 9.830814575210226  14.99906255859375 10.089681871476133  L 14.99906255859375 13.050121860351563  C 14.99906255859375 14.12724205078125  14.12724205078125 14.99906255859375  13.050121860351563 14.99906255859375  L 11.199612524414063 14.99906255859375  C 10.940745200210227 14.99906255859375  10.73089179335113 14.789209151734656  10.73089179335113 14.53034185546875  C 10.73089179335113 14.271474559202847  10.940745200210227 14.06162115234375  11.199612496476131 14.06162115234375  L 13.050121860351561 14.06162115234375  C 13.608836938476562 14.06162115234375  14.061621137695314 13.608836953125  14.061621152343749 13.050121860351563  Z M 1.9489406982421875 14.06162115234375  L 4.909380659179689 14.061621152343752  C 5.168247983383524 14.06162115234375  5.37810139024262 14.271474559202847  5.37810139024262 14.53034185546875  C 5.37810139024262 14.789209151734656  5.168247983383524 14.99906255859375  4.90938068711762 14.99906255859375  L 1.9489406982421875 14.99906255859375  C 0.8725704722784491 14.99906255859375  0 14.1264920863153  0 13.050121860351563  L 0 10.311855512695313  C 0 10.052988216429409  0.20985340685909587 9.843134809570314  0.4687207031250002 9.843134809570314  C 0.7275879993909043 9.843134809570314  0.9374414062500004 10.052988216429409  0.9374414062500004 10.311855512695313  L 0.93744140625 13.050121860351563  C 0.93744140625 13.608836953125  1.3902256054687503 14.06162115234375  1.9489406982421875 14.06162115234375  Z M 0.93744140625 1.9489406982421875  L 0.9374414062500004 4.687207045898439  C 0.9374414062500004 4.9460743421643425  0.7275879993909043 5.155927749023438  0.4687207031250002 5.155927749023438  C 0.20985340685909587 5.155927749023438  0 4.9460743421643425  0 4.687207045898438  L 0 1.9489406982421875  C 0 0.8718205078125001  0.8718205078125001 0  1.9489406982421875 0  L 4.687207045898439 0  C 4.9460743421643425 0  5.155927749023438 0.20985340685909587  5.155927749023438 0.4687207031250002  C 5.155927749023438 0.7275879993909043  4.9460743421643425 0.9374414062500004  4.687207045898439 0.9374414062500004  L 1.9489406982421875 0.93744140625  C 1.3902256054687503 0.93744140625  0.93744140625 1.3902256054687503  0.93744140625 1.9489406982421875  Z M 2.9829385693359383 7.265170927734376  C 4.399412534179688 9.009749384765625  5.893694150390624 9.843134809570314  7.499531279296875 9.843134809570314  C 9.105368408203125 9.843134809570314  10.599650024414064 9.009749399414062  12.016123989257814 7.265170927734375  C 10.599650024414062 5.520592456054688  9.105368408203125 4.687207045898438  7.499531279296875 4.687207045898438  C 5.893694150390624 4.687207045898438  4.399412534179688 5.520592456054688  2.9829385693359383 7.265170927734376  Z M 12.743578520507812 7.855759013671875  C 11.161177426757812 9.805637153320312  9.412849204101562 10.780576215820311  7.499531279296875 10.780576215820311  C 5.5862133544921875 10.780576215820311  3.837885131835938 9.805637153320312  2.255484038085938 7.855759013671876  C 1.9762454073588984 7.511544154210828  1.9762454073588984 7.018797701257925  2.2554840380859376 6.674582841796874  C 3.8378851318359373 4.724704702148438  5.5862133544921875 3.7497656396484373  7.499531279296875 3.7497656396484373  C 9.412849204101562 3.7497656396484373  11.161177426757812 4.724704702148438  12.743578520507812 6.674582841796876  C 13.022817151234852 7.018797701257925  13.022817151234852 7.511544154210828  12.743578520507812 7.855759013671875  Z " fill-rule="nonzero" fill="#333333" stroke="none" transform="matrix(1 0 0 1 374 229 )" />
  </g>
</svg>