<?xml version="1.0" encoding="utf-8"?>
<svg version="1.1" xmlns:xlink="http://www.w3.org/1999/xlink" width="5px" height="5px" xmlns="http://www.w3.org/2000/svg">
  <g transform="matrix(1 0 0 1 -379 -234 )">
    <path d="M 2.499461240571122 3.902892029879389  C 3.2433327815650994 3.902892029879389  3.8463598127693976 3.289285577075014  3.8463598127693976 2.5323636581688613  C 3.8463598127693976 1.7754417392627089  3.2433327815650994 1.1618352864583352  2.499461240571122 1.1618352864583352  C 1.755589699577145 1.1618352864583352  1.1525626683728456 1.7754417392627089  1.1525626683728456 2.5323636581688613  C 1.1525626683728456 3.289285577075014  1.755589699577145 3.902892029879389  2.499461240571122 3.902892029879389  Z M 4.923676646271361 2.532363649602522  C 4.923676646271361 3.8947428275885083  3.8383511177357192 4.999201192105646  2.4994612405711205 4.999314727247807  C 1.1602904163890462 4.9993147358141465  0.07484175268300111 3.894823113095712  0.07484175268300111 2.532363649602522  C 0.07484175268300111 1.169904186109333  1.1602904163890462 0.06541256339090003  2.4992591994771813 0.06541256339090003  C 3.838351117735722 0.06552610709939855  4.923676646271361 1.1699844716165373  4.923676646271361 2.532363649602522  Z " fill-rule="nonzero" fill="#333333" stroke="none" transform="matrix(1 0 0 1 379 234 )" />
  </g>
</svg>