<?xml version="1.0" encoding="utf-8"?>
<svg version="1.1" xmlns:xlink="http://www.w3.org/1999/xlink" width="50px" height="50px" xmlns="http://www.w3.org/2000/svg">
  <g transform="matrix(1 0 0 1 -260 -207 )">
    <path d="M 49.90942027216372 25  C 49.90942027216372 38.75679347826087  38.75679347826087 49.90942027216372  25 49.90942027216372  C 11.24320652173913 49.90942027216372  0.09057972783627705 38.75679347826087  0.09057972783627705 25  C 0.09057972783627705 11.243206521739129  11.24320652173913 0.09057972783627705  25 0.09057972783627705  C 38.75679347826087 0.09057972783627705  49.90942027216372 11.24320652173913  49.90942027216372 25  Z M 39.24139494522759 13.568840597401492  L 22.323369565217387 32.60190217391305  L 14.311594185207202 24.592391304347828  C 13.997216529742742 24.299451218274378  13.58348390039108 24.13656781241993  13.153777949438513 24.13656781241993  C 12.215794338992195 24.13656781241993  11.455408384221123 24.896953767191  11.455408384221123 25.834937377637317  C 11.455408384221123 26.26464334155808  11.618291799884013 26.678375982404777  11.91123190174932 26.99275364087975  L 21.18432972783628 36.26811592433762  C 21.190323218831665 36.27419956562897  21.19636202844165 36.2802383929308  21.202445652173914 36.28623190174932  L 21.216032608695652 36.297554347826086  C 21.534518585672828 36.6159093780985  21.96639968163444 36.79474836798781  22.416714285917774 36.79474836798781  C 23.01275426893823 36.79474836798781  23.56517171944441 36.48229668085452  23.872282608695656 35.97146739130434  L 41.7821558147928 15.824275380010189  C 42.058091669121204 15.513431977845066  42.210484585180026 15.112207139280615  42.210484585180026 14.696557988705838  C 42.210484585180026 13.758386800293355  41.44994656842268 12.997848783536007  40.5117753800102 12.997848783536007  C 40.02616640958509 12.997848783536007  39.5637748320588 13.20567771283862  39.24139494522759 13.568840597401492  Z " fill-rule="nonzero" fill="#fab400" stroke="none" transform="matrix(1 0 0 1 260 207 )" />
  </g>
</svg>