<?xml version="1.0" encoding="utf-8"?>
<svg version="1.1" xmlns:xlink="http://www.w3.org/1999/xlink" width="29px" height="26px" xmlns="http://www.w3.org/2000/svg">
  <g transform="matrix(1 0 0 1 -114 -131 )">
    <path d="M 22.748724412952768 25.954773745632764  C 22.691864884810013 25.954773745632764  22.649316704767397 25.954773745632764  22.61747794744318 26  L 5.657160872025924 26  C 4.5224144165039055 25.951558724767082  3.866362212579901 25.4822292337927  3.51892089510831 25.089681907511643  C 2.7564628728693186 24.227805090256215  2.816731394264915 23.05994055221273  2.8523007734818893 22.736799776785716  L 2.8523007734818893 12.738120809879659  L 5 12.738120809879659  L 5 22.85487286975932  L 4.660652555708452 22.907132674204192  C 4.63936240678267 23.08414775329969  4.635792599209872 23.63687860296972  4.894696413352273 23.925347612577642  C 4.947966856800426 23.98422654794254  5.11462832364169 24.172084433229813  5.657154435591265 24  L 22.684853933993256 24  L 22.70617626509233 24.175614644798138  C 22.766412636496806 24.17908180560947  23.340957629394538 24.186079209530277  23.698934682395244 23.8559410617236  C 23.940137432306464 23.633348391401395  24.060835321599786 23.2650082662073  24 22.764474170225153  L 24 12.731281017080745  L 25.876185181773792 12.731281017080745  L 25.876185181773792 22.760943927115683  C 25.876185181773792 24.03648001261646  25.358666967773438 24.773223345302796  24.92594919877486 25.16608586228649  C 24.145802985174008 25.874839610830744  23.15642141113281 25.954773745632764  22.748724412952768 25.954773745632764  Z M 3.7599757035688923 13.575664356075311  L 0.9693819302645598 13.575664356075311  C 0.5935236894087362 13.575664356075311  0.25306117276278417 13.34642101368401  0.12182758012251414 13.00222500727873  C -0.012988692959872282 12.658205536684784  0.08639970592151984 12.265481706133542  0.3664521961558948 12.022218354522517  L 13.763175336248224 0.3658889994177025  C 14.10362501220703 0.07042258588897578  14.61774063720703 0.06691129901009422  14.961760120738635 0.35887901057841703  L 28.54282004616477 11.91795722534938  C 28.826570976118603 12.157709258540374  28.929259045410156 12.543448333171586  28.801582387473363 12.887612798427796  C 28.67403436168324 13.231789880143635  28.34773525168679 13.468030594914596  27.971877043013137 13.478558210403728  L 24.996759924316407 13.561663271545033  C 24.98621131591797 13.561663271545033  24.97920036510121 13.561663271545033  24.96849097456499 13.561663271545033  C 24.479113078169387 13.561663271545033  24.07482507324219 13.179580509996121  24.060700253018464 12.69643274699146  C 24.046549687056103 12.206426266498449  24.440096119273786 11.796341335888977  24.94366316805753 11.782472629561338  L 25.592562916148793 11.764979151300468  L 14.373096744051846 2.2182812233113363  L 3.359244665527344 11.796328719429349  L 3.759975735751065 11.796328719429349  C 4.259940826970881 11.796328719429349  4.667650665838067 12.196062538819875  4.667650665838067 12.686069019312889  C 4.667650665838067 13.1760754998059  4.259940794788707 13.575664356075311  3.7599757035688923 13.575664356075311  Z M 11.323451182972303 25.072156919642858  C 10.901603618829903 25.072156919642858  10.557712799627131 24.735021367915373  10.557712799627131 24.321418842197204  L 10.557712799627131 18.04143075262034  C 10.557712799627131 17.906084811723602  10.593134237393468 17.349886801242235  11.12495739524148 16.818148131793475  C 11.770448150079906 16.17533377329192  12.869618789950286 15.848662786296583  14.383645320268114 15.848662786296583  C 15.876555356667257 15.848662786296583  16.961614017001065 16.178800934103258  17.607104804021663 16.832142908093942  C 18.153187850674716 17.384621586277174  18.18862859774503 17.965020489615682  18.18502664018111 18.117828367624224  L 18.18502664018111 24.29720533288043  C 18.18502664018111 24.71074483938276  17.841039338822796 25.047937102096267  17.419030992542613 25.047937102096267  C 16.997022646262426 25.047937102096267  16.65316397705078 24.7107384996118  16.65316397705078 24.29720533288043  L 16.65316397705078 18.12482577154503  C 16.649722801624645 18.093621198078413  16.61772326216264 17.954492874126554  16.426208243075283 17.805152188470494  C 16.20989759965376 17.634819291052015  15.660180413263493 17.34988049301242  14.383645352450284 17.34988049301242  C 12.901618393776632 17.34988049301242  12.373082033469458 17.714753457395187  12.217136393599075 17.87109154697205  C 12.139160371537642 17.947810692449536  12.107321614213424 18.013687031735248  12.093029543235081 18.055419220690993  C 12.089479044966264 18.0624166246118  12.089479044966264 18.06594683618012  12.089479044966264 18.06941399699146  L 12.089479044966264 24.317882322399072  C 12.089472576349433 24.735021367915373  11.745440252130683 25.072156919642858  11.323451182972303 25.072156919642858  Z " fill-rule="nonzero" fill="#272636" stroke="none" transform="matrix(1 0 0 1 114 131 )" />
  </g>
</svg>