<?xml version="1.0" encoding="utf-8"?>
<svg version="1.1" xmlns:xlink="http://www.w3.org/1999/xlink" width="15px" height="15px" xmlns="http://www.w3.org/2000/svg">
  <g transform="matrix(1 0 0 1 -119 -1034 )">
    <path d="M 2.8820053411989823 0.032286352040816396  C 1.3080456792091837 0.032435825892857144  0.03228635204081633 1.3107362085459184  0.03228635204081633 2.8876853475765305  L 0.03228635204081633 12.68001634247449  C 0.03228635204081633 13.312440210459181  0.5485690369897959 13.829769212372447  1.1796476403061227 13.829769212372447  L 1.7561682876275513 13.829769212372447  L 1.7561682876275513 14.404645647321429  C 1.7561682876275513 14.749631297831632  1.9860590720663267 14.979522082270408  2.330745774872449 14.979522082270408  L 4.054777184311225 14.979522082270408  C 4.399613360969387 14.979522082270408  4.629504145408163 14.749481823979592  4.629504145408163 14.404645647321429  L 4.629504145408163 13.829769212372447  L 10.376026387117347 13.829769212372447  L 10.376026387117347 14.404645647321429  C 10.376026387117347 14.749631297831632  10.605917171556122 14.979522082270408  10.950603874362242 14.979522082270408  L 12.674784757653063 14.979522082270408  C 13.019620934311227 14.979522082270408  13.249511718750002 14.749481823979592  13.249511718750002 14.404645647321429  L 13.249511718750002 13.829769212372447  L 13.8240892059949 13.829769212372447  C 14.456214126275512 13.829769212372447  14.973543128188778 13.311543367346937  14.973543128188778 12.67807318239796  L 14.973543128188778 2.8876853475765305  C 14.973543128188778 1.3107362085459184  13.69778380102041 0.032286352040816396  12.123973612882656 0.032286352040816396  L 2.8820053411989823 0.032286352040816396  Z M 11.525480309311225 11.53026347257653  C 10.893355389030612 11.53026347257653  10.376175860969388 11.012934470663266  10.376175860969388 10.380510602678571  C 10.376175860969388 9.74808673469388  10.893355389030612 9.230757732780614  11.525480309311225 9.230757732780614  C 12.157605229591836 9.230757732780614  12.674784757653063 9.74808673469388  12.674784757653063 10.380510602678571  C 12.674784757653063 11.012934470663266  12.157605229591836 11.53026347257653  11.525480309311225 11.53026347257653  Z M 2.33089524872449 7  L 2.33089524872449 3.6552335778061225  C 2.33089524872449 2.9274453922193877  2.925203284438776 2.331941565688776  3.651496731505102 2.331941565688776  L 11.35238958864796 2.331941565688776  C 12.079729352678571 2.331941565688776  12.674784757653063 2.928192761479592  12.674784757653063 3.6570272640306123  L 12.674784757653063 7  L 2.33089524872449 7  Z M 4.629653619260205 10.380510602678571  C 4.629653619260205 11.012934470663266  4.11247409119898 11.53026347257653  3.4803491709183674 11.53026347257653  C 2.8482242506377555 11.53026347257653  2.33089524872449 11.012934470663266  2.33089524872449 10.380510602678571  C 2.33089524872449 9.74808673469388  2.8482242506377555 9.230757732780614  3.4803491709183674 9.230757732780614  C 4.11247409119898 9.230757732780614  4.629653619260205 9.74808673469388  4.629653619260205 10.380510602678571  Z " fill-rule="nonzero" fill="#ffffff" stroke="none" transform="matrix(1 0 0 1 119 1034 )" />
  </g>
</svg>