<?xml version="1.0" encoding="utf-8"?>
<svg version="1.1" xmlns:xlink="http://www.w3.org/1999/xlink" width="184px" height="70px" xmlns="http://www.w3.org/2000/svg">
  <defs>
    <mask fill="white" id="clip111">
      <path d="M 92 70  L 0 35  L 92 0  L 149.22819692434723 21.771596656001748  L 152.37314154412752 22.96804297874428  L 184 35  L 92 70  Z " fill-rule="evenodd" />
    </mask>
  </defs>
  <g transform="matrix(1 0 0 1 -896 -1398 )">
    <path d="M 92 70  L 0 35  L 92 0  L 149.22819692434723 21.771596656001748  L 152.37314154412752 22.96804297874428  L 184 35  L 92 70  Z " fill-rule="nonzero" fill="#ffffff" stroke="none" transform="matrix(1 0 0 1 896 1398 )" />
    <path d="M 92 70  L 0 35  L 92 0  L 149.22819692434723 21.771596656001748  L 152.37314154412752 22.96804297874428  L 184 35  L 92 70  Z " stroke-width="2" stroke="#797979" fill="none" transform="matrix(1 0 0 1 896 1398 )" mask="url(#clip111)" />
  </g>
</svg>