<?xml version="1.0" encoding="utf-8"?>
<svg version="1.1" xmlns:xlink="http://www.w3.org/1999/xlink" width="30px" height="30px" xmlns="http://www.w3.org/2000/svg">
  <g transform="matrix(1 0 0 1 -112 -102 )">
    <path d="M 127 102  C 135.4 102  142 108.6  142 117  C 142 125.4  135.4 132  127 132  C 118.6 132  112 125.4  112 117  C 112 108.6  118.6 102  127 102  Z " fill-rule="nonzero" fill="#ffffff" stroke="none" />
    <path d="M 127 102.5  C 135.12 102.5  141.5 108.88  141.5 117  C 141.5 125.12  135.12 131.5  127 131.5  C 118.88 131.5  112.5 125.12  112.5 117  C 112.5 108.88  118.88 102.5  127 102.5  Z " stroke-width="1" stroke="#13227a" fill="none" />
  </g>
</svg>