<?xml version="1.0" encoding="utf-8"?>
<svg version="1.1" xmlns:xlink="http://www.w3.org/1999/xlink" width="17px" height="15px" xmlns="http://www.w3.org/2000/svg">
  <g transform="matrix(1 0 0 1 -119 -110 )">
    <path d="M 9.918789005442415 12.841880333533652  L 2.13295880771594 12.841880333533652  C 0.960818894218906 12.841880333533652  0.010611747705450909 11.885223825655595  0.010611737403440827 10.705128211388221  L 0.010611737403440657 2.1581196664663453  C 0.010611737403440657 0.9780240448649045  0.9608188869342843 0.02136752554086501  2.1329588077159407 0  L 14.867041192284056 0  C 14.867041192284056 0.02136752554086501  14.86704119228406 0.02136752554086467  14.86704119228406 0.02136752554086467  C 16.039181113065712 0.02136752554086467  16.98938826259656 0.9780240448649038  16.98938826259656 2.1581196664663453  L 16.98938826259656 10.705128211388221  C 16.98938826259656 10.782585467998796  16.985143560173807 10.859508544921875  16.977184771111304 10.934829064002406  C 16.98560358834235 11.03732987596678  16.989818373208408 11.140136749404347  16.989818373208408 11.242987409714646  C 16.989818373208408 13.308154742331197  15.326955865705148 14.982303646944208  13.275711009488258 14.982303646944208  C 11.839667415227193 14.982303646944208  10.532295805859068 14.148835830734384  9.918258426966295 12.841880333533652  Z M 13.275280898876401 13.910256403996394  C 14.740455794702466 13.910256403996394  15.928214727440306 12.7144357590454  15.928214727440306 11.239316237229566  C 15.928214727440306 9.764196715413732  14.740455794702466 8.56837607046274  13.275280898876401 8.56837607046274  C 11.81010600305034 8.56837607046274  10.622347070312498 9.764196715413732  10.622347070312498 11.239316237229566  C 10.622347070312498 12.7144357590454  11.81010600305034 13.910256403996394  13.275280898876401 13.910256403996394  Z M 4.794912600948033 6.252670935997597  C 3.4934265389884995 6.869903730906173  2.6630505351637392 8.18833447579754  2.6635455659673455 9.63675214092548  C 2.6635455659673455 9.931776046325842  2.9010973533500564 10.170940176156849  3.1941323335454697 10.170940176156849  C 3.4871673137408834 10.170940176156849  3.7247191011235947 9.931776046325842  3.7247191011235947 9.63675214092548  C 3.724719122956402 8.161632634652557  4.912478049299561 6.965812013958764  6.3776529296875 6.965812013958764  C 7.842827825513565 6.965812013958764  9.030586758251406 8.161632658909754  9.030586758251406 9.636752180725589  C 9.030586758251406 9.931776046325842  9.268138545634114 10.170940176156849  9.561173525829528 10.170940176156849  C 9.854208506024943 10.170940176156849  10.091760293407653 9.931776046325842  10.091760293407653 9.63675214092548  C 10.09225532421126 8.188334475797538  9.261879320386502 6.869903730906173  7.960393258426964 6.252670935997597  C 8.308072462628074 5.860997403224237  8.500265298564779 5.354108016422513  8.500265298564779 4.828812413680065  C 8.500265298564779 3.6487167920786243  7.550058149033935 2.6920602727545844  6.37791822825228 2.6920602727545844  C 5.2057783074706245 2.6920602727545844  4.25557115793978 3.6487167920786243  4.25557115793978 4.828812413680065  C 4.25557115793978 5.354108016422513  4.447763993876485 5.860997403224237  4.795443198077597 6.252670935997597  Z M 6.3776529296875 5.8974359036959125  C 5.7915829692966705 5.8974359036959125  5.31647939453125 5.419107644033893  5.31647939453125 4.829059833233172  C 5.31647939453125 4.239012022432452  5.7915829692966705 3.760683762770432  6.3776529296875 3.760683762770432  C 6.963722890078327 3.760683762770432  7.438826464843749 4.239012022432452  7.438826464843749 4.829059833233172  C 7.438826464843749 5.419107644033893  6.963722890078327 5.8974359036959125  6.3776529296875 5.8974359036959125  Z M 13.80586765712781 2.6923076923076925  L 10.622347070312502 2.6923076923076916  C 10.329312090117087 2.6923076923076916  10.091760302734377 2.9314718221387017  10.091760302734377 3.226495727539062  C 10.091760302734377 3.5215196329394223  10.329312090117087 3.7606837627704333  10.622347070312502 3.7606837627704333  L 13.80586765712781 3.7606837627704333  C 14.098902637323224 3.7606837627704333  14.336454424705934 3.5215196329394223  14.336454424705934 3.226495727539062  C 14.336454424705934 2.9314718221387004  14.098902637323224 2.6923076923076916  13.80586765712781 2.6923076923076916  Z M 12.744694140625 4.829059833233174  L 10.622347070312502 4.829059833233172  C 10.329312090117087 4.829059833233172  10.091760302734377 5.068223963064183  10.091760302734377 5.363247868464543  C 10.091760302734377 5.658271773864903  10.329312090117087 5.897435903695914  10.622347070312502 5.897435903695914  L 12.744694140624999 5.897435903695914  C 13.037729120820412 5.897435903695914  13.275280908203126 5.658271773864903  13.275280908203126 5.363247868464543  C 13.275280908203126 5.068223963064182  13.037729120820412 4.829059833233172  12.744694140624999 4.829059833233172  Z M 12.278308366616923 10.834935903695913  L 13.029088643346208 11.590277775691105  L 14.529588021199086 10.079059833233174  C 14.629101694677805 9.9789415339859  14.764028995687957 9.922701607601855  14.904712860998943 9.922701607601855  C 15.197807209607051 9.922701607601855  15.435407124597388 10.161914191698465  15.435407124597388 10.45699786846454  C 15.435407124597388 10.598767495271133  15.379443338571567 10.734725081397393  15.279837700798806 10.834935903695913  L 13.029088643346208 13.100961538461538  L 11.528058668363762 11.590277775691105  C 11.424540055980149 11.489617346547357  11.36607716713089 11.350938083794974  11.36607716713089 11.206042996797093  C 11.36607716713089 10.9110190965827  11.603628950337885 10.671854970955748  11.896663925382295 10.671854970955748  C 12.040582196148257 10.671854970955748  12.178326546500337 10.730714670477203  12.278308366616923 10.834935903695913  Z " fill-rule="nonzero" fill="#13227a" stroke="none" transform="matrix(1 0 0 1 119 110 )" />
  </g>
</svg>