<?xml version="1.0" encoding="utf-8"?>
<svg version="1.1" xmlns:xlink="http://www.w3.org/1999/xlink" width="31px" height="24px" xmlns="http://www.w3.org/2000/svg">
  <g transform="matrix(1 0 0 1 -234 -269 )">
    <path d="M 29.3311625558397 17.230548384821653  C 30.55538934989576 15.063105310530126  30.5231728751857 13.34856080718191  29.170080091680525 12.022215031269644  L 15.091471824122564 3.8376912419645244  L 16.154616154019457 2.802494534375242  L 16.02575019477332 2.2201963977292607  L 14.253842968210835 3.3524427947595523  L 8.68038937003105 0.11745313661707413  C 6.618533689860317 -0.3030955277365657  4.911059473123849 0.40860220494006616  3.5579666896186932 2.284896210908628  C 2.1082244215774457 4.258239875990137  1.1417295762166035 5.908084596487022  0.6906986282462403 7.234430372399297  C 0.14301822594276692 8.657825807424533  0.5940491437101596 10.113571149039439  2.0437914117514078 11.601666397244019  L 7.617245040134142 14.83665602505845  L 7.778327504293312 16.518850652145026  L 8.132708937524608 16.71295003102702  L 8.4870904009589 15.289554596001775  L 22.565698638313897 23.506428291896576  C 23.822141937283007 24.250475900834857  25.27188420532421 23.53877819848624  26.91492544243764 21.436034907046036  L 29.3311625558397 17.230548384821653  Z M 14.157193483674732 3.934740931405509  L 19.408482153536198 6.943281304076317  C 19.891729576216637 7.784378602455603  19.859513071303613 8.366676739101568  19.31183266900012 8.62547590083486  L 16.057966669483363 6.749181925194334  L 14.157193483674732 3.934740931405509  Z M 11.418791411751418 14.027908633268872  L 7.1984305970767695 13.154461428299909  C 7.359513061235942 11.181117732890371  7.907193493742379 9.369523540101152  8.841471834190191 7.752028695865914  C 9.775750174638004 6.134533881958687  11.032193473607082 4.808188106046424  12.578585226184403 3.772991428785174  L 15.413636782643785 7.072680869778951  L 11.418791411751418 14.027908633268872  Z M 14.737090390891225 16.583550434996333  C 14.769306895804274 17.16584857164231  14.318275947833875 17.489347546554953  13.351781102473062 17.489347546554953  L 8.100492462814545 14.448457267294485  L 11.483224421577455 14.707256459355822  L 14.737090390891225 16.583550434996333  Z M 20.761574937041342 20.077339254872108  C 20.632708947592256 20.91843655325138  20.407193503810035 21.371335124194694  20.020595535462775 21.33898521760505  L 14.704873885978222 18.265745062082914  L 16.090183174396387 17.359947950524308  L 20.761574937041342 20.077339254872108  Z M 25.3363171849473 12.119264720710646  L 20.664925452505294 9.401873416362811  L 20.76157493704135 7.752028695865899  L 26.077296586525897 10.82526888171606  C 26.27059555559809 11.148767856628728  26.012863606902837 11.56931649065435  25.3363171849473 12.119264720710646  Z M 28.847915133159276 13.833809254386859  C 28.847915133159276 13.833809254386859  28.815698628246277 15.936552515499068  27.333739885494985 18.49219434755457  C 26.367245040134144 20.206738850902784  25.30410071023723 21.338985247933056  24.176523370514307 21.921283354250992  L 23.048946060994314 20.659637391518068  L 27.10822441150979 13.575010062325546  C 28.074719256870626 14.060258509530499  28.654616164087123 14.157308198971503  28.847915133159276 13.833809254386859  Z M 4.849475943205725 5.447248793602152  C 4.1733003462721046 5.336430013470076  6.253143421777089 7.816025403784408  6.253143421777089 7.816025403784408  C 5.080420977413723 2.8814110060167004  4.94910421661777 5.463576924602821  4.849475943205725 5.447248793602152  Z " fill-rule="nonzero" fill="#6665e0" stroke="none" transform="matrix(1 0 0 1 234 269 )" />
  </g>
</svg>