<?xml version="1.0" encoding="utf-8"?>
<svg version="1.1" xmlns:xlink="http://www.w3.org/1999/xlink" width="43px" height="15px" xmlns="http://www.w3.org/2000/svg">
  <g transform="matrix(1 0 0 1 -639 -423 )">
    <path d="M 14.000000000000002 13.600000000000023  C 10.399999999999977 12.199999999999989  2.1135190918472517 9.676449948400489  2.1135190918472517 5.756449948400473  C 2.1135190918472517 4.270647982304638  0.35913312693514854 4.208462332301394  0.04953560371529875 2.7636738906089136  C -0.26006191950455104 1.3188854489164328  2.5083080686914627 1.9786429032004662  4.074303405572891 1.7316821465428234  C 7.73232618919019 1.1548042636801483  12.295497515041573 1  14.000000000000002 1  L 30 1  C 32.030881503109185 1  40.67852702463131 0.7816302527713788  42.46439628482983 1.7316821465428234  C 44.125605295451344 2.6154169202270623  40.40041279669765 3.867331451509699  40.40041279669765 5.756449948400473  C 40.40041279669765 7.880910938132672  35.614160050303894 10.302239257470717  34 11.200000000000045  C 32.63575403213133 11.95876396078313  31.195539010267794 13.600000000000023  29.399999999999977 13.600000000000023  L 22.799999999999955 14.899999999999977  L 14.000000000000002 13.600000000000023  Z " fill-rule="nonzero" fill="#f2f2f2" stroke="none" fill-opacity="0.3137254901960784" transform="matrix(1 0 0 1 639 423 )" />
  </g>
</svg>