<?xml version="1.0" encoding="utf-8"?>
<svg version="1.1" xmlns:xlink="http://www.w3.org/1999/xlink" width="50px" height="50px" xmlns="http://www.w3.org/2000/svg">
  <g transform="matrix(1 0 0 1 -635 -388 )">
    <path d="M 660 388  C 674 388  685 399  685 413  C 685 427  674 438  660 438  C 646 438  635 427  635 413  C 635 399  646 388  660 388  Z " fill-rule="nonzero" fill="#000000" stroke="none" />
    <path d="M 660 388.5  C 673.72 388.5  684.5 399.28  684.5 413  C 684.5 426.72  673.72 437.5  660 437.5  C 646.28 437.5  635.5 426.72  635.5 413  C 635.5 399.28  646.28 388.5  660 388.5  Z " stroke-width="1" stroke="#ffffff" fill="none" />
  </g>
</svg>