<?xml version="1.0" encoding="utf-8"?>
<svg version="1.1" xmlns:xlink="http://www.w3.org/1999/xlink" width="31px" height="4px" xmlns="http://www.w3.org/2000/svg">
  <g transform="matrix(1 0 0 1 -532 -1688 )">
    <path d="M 4.219192165798612 2.0408593750000024  C 4.219276258680557 0.9661718750000035  3.278108723958334 0.09171875000000114  2.121242947048611 0.09171875000000114  C 0.9643771701388884 0.09171875000000114  0.023293728298610195 0.9660937500000045  0.023293728298610195 2.0408593750000024  C 0.023293728298610195 3.115546875000007  0.964461263020833 3.9898437500000057  2.121242947048611 3.9898437500000057  C 3.278024631076389 3.9898437500000057  4.219192165798612 3.115546875000007  4.219192165798612 2.0408593750000024  Z M 2.8581488715277774 2.040937500000001  C 2.8582329644097237 2.418359375  2.5276638454861104 2.7254687499999988  2.121242947048611 2.7254687499999988  C 1.7148220486111119 2.7254687499999988  1.3843370225694436 2.418359375  1.3843370225694436 2.040937500000001  C 1.3843370225694436 1.6633593749999989  1.7149902343749996 1.3561718750000011  2.121242947048611 1.3561718750000011  C 2.5274956597222222 1.3561718750000011  2.8581488715277774 1.6633593750000046  2.8581488715277774 2.040937500000001  Z M 30.92986653645833 2.0408593750000024  C 30.92986653645833 0.9661718750000035  29.988783094618054 0.09171875000000114  28.831917317708335 0.09171875000000114  C 27.67505154079861 0.09171875000000114  26.733968098958336 0.9660937500000045  26.733968098958336 2.0408593750000024  C 26.733968098958336 3.115546875000007  27.67505154079861 3.9898437500000057  28.831917317708335 3.9898437500000057  C 29.988783094618054 3.9898437500000057  30.92986653645833 3.115546875000007  30.92986653645833 2.0408593750000024  Z M 29.5688232421875 2.040937500000001  C 29.56890733506944 2.418359375  29.23833821614583 2.7254687499999988  28.831917317708335 2.7254687499999988  C 28.425580512152777 2.7254687499999988  28.095011393229164 2.418359375  28.095011393229164 2.040937500000001  C 28.095011393229164 1.6633593749999989  28.425580512152777 1.3561718750000011  28.831917317708335 1.3561718750000011  C 29.238338216145838 1.3561718750000011  29.5688232421875 1.6633593750000046  29.5688232421875 2.040937500000001  Z " fill-rule="nonzero" fill="#ffffff" stroke="none" transform="matrix(1 0 0 1 532 1688 )" />
  </g>
</svg>