<?xml version="1.0" encoding="utf-8"?>
<svg version="1.1" xmlns:xlink="http://www.w3.org/1999/xlink" width="35px" height="35px" xmlns="http://www.w3.org/2000/svg">
  <g transform="matrix(1 0 0 1 -349 -1656 )">
    <path d="M 34.87265625 3.6492187499999997  C 34.87265625 1.6414062499999993  33.24374999999999 0.0125  31.235937500000002 0  L 3.681250000000001 0  C 1.6695312500000008 0.0125  0.040625000000000355 1.64140625  0 3.6531249999999997  L 0 31.20390625  C 0.040625000000000355 33.215625  1.6695312500000008 34.84453125  3.681250000000001 34.84453125  L 31.232031249999995 34.84453125  C 33.24374999999999 34.84453125  34.87265625 33.215625  34.87265625 31.20390625  L 34.87265625 3.6492187499999997  Z M 20.6421875 6.828906249999999  C 20.63828125 3.5398437500000006  23.306250000000002 0.87578125  26.5953125 0.87578125  C 29.884375 0.87578125  32.5484375 3.5398437500000006  32.5484375 6.828906249999999  C 32.5484375 10.86796875  29.122656249999995 13.54375  26.860937500000002 16.46171875  C 26.80234375 16.53984375  26.743750000000002 16.6140625  26.68515625 16.6921875  C 26.833593749999995 16.4890625  25.618750000000002 15.35234375  25.466406249999995 15.18828125  C 23.2984375 12.8484375  20.6421875 10.254687500000001  20.6421875 6.828906249999999  Z M 33.52109375 15.903125  C 33.84531249999999 16.21171875  33.8609375 16.7234375  33.55234375 17.04765625  L 25.63828125 25.4421875  L 31.341406250000002 31.032031250000003  C 31.66171875 31.34453125  31.665625000000002 31.85625  31.353125000000002 32.1765625  C 31.19296874999999 32.33671875  30.9859375 32.41875  30.775000000000002 32.41875  C 30.571875000000002 32.41875  30.364843750000002 32.340624999999996  30.20859375 32.18828125  L 18.423437500000006 20.6375  L 8.497656250000002 31.1609375  C 8.3375 31.32890625  8.12265625 31.41484375  7.9078125 31.41484375  C 7.708593749999999 31.41484375  7.509375 31.340625  7.3531249999999995 31.19609375  C 7.02890625 30.89140625  7.013281250000001 30.379687500000003  7.31796875 30.0515625  L 17.2671875 19.5046875  L 12.337499999999999 14.67265625  L 4.689062500000001 22.78203125  C 4.528906250000001 22.95  4.314062500000001 23.0359375  4.099218750000001 23.0359375  C 3.9000000000000017 23.0359375  3.7007812500000012 22.96171875  3.5445312500000012 22.8171875  C 3.2203125000000017 22.5125  3.204687500000002 22.00078125  3.5093750000000017 21.672656250000003  L 11.177343750000002 13.53984375  L 3.575781250000002 6.090625000000002  C 3.255468750000002 5.778125000000001  3.2515625000000012 5.266406250000001  3.5640625000000012 4.946093749999999  C 3.8765625000000012 4.62578125  4.388281250000002 4.621875  4.708593750000001 4.934375  L 18.38046875 18.328906250000003  L 20.84140625 15.71953125  C 21.14609375 15.395312499999998  21.6578125 15.3796875  21.9859375 15.684375  C 22.31015625 15.9890625  22.32578125 16.50078125  22.021093749999995 16.82890625  L 19.540625 19.4578125  L 24.48203125 24.309375  L 32.3765625 15.938281250000001  C 32.68125 15.6140625  33.19296875 15.5984375  33.52109375 15.903125  Z " fill-rule="nonzero" fill="#ffffff" stroke="none" transform="matrix(1 0 0 1 349 1656 )" />
  </g>
</svg>