<?xml version="1.0" encoding="utf-8"?>
<svg version="1.1" xmlns:xlink="http://www.w3.org/1999/xlink" width="39px" height="35px" xmlns="http://www.w3.org/2000/svg">
  <g transform="matrix(1 0 0 1 -710 -1487 )">
    <path d="M 36.26888197278912 23.81245529778863  C 36.26724625123916 23.346195970096954  36.013589207201335 22.917050430567908  35.60530047619048 22.68978574820241  C 35.193658497749624 22.458847195353457  34.690998304971465 22.458847195353457  34.27935632653061 22.68978574820241  C 33.8716049247758 22.917410362177908  33.61852092821374 23.346487120485193  33.61716782312925 23.81245529778863  C 33.68873224489796 24.485258343508338  34.26438180272109 25.001971102971094  34.94311193877551 25.001971102971094  C 35.62166799319728 25.001971102971094  36.197491666666664 24.485258343508338  36.26888197278912 23.81245529778863  Z M 23.223785578231293 16.12079714421381  L 23.223785578231293 16.122359788359788  L 9.86753200680272 16.122359788359788  L 12.237863911564625 5  L 33.218775136054425 5  L 34.73120465986394 11.90062912087912  C 34.949902721088435 12.863909476326143  35.8156406462585 13.553554300637634  36.806050408163266 13.553554300637634  C 37.97302054421768 13.553554300637634  38.93330707482993 12.596003629086965  38.93330707482993 11.43235819427486  C 38.93330707482993 11.309604192104192  38.922685578231295 11.186850189933523  38.90126850340136 11.066006071089403  L 37.356278061224494 3.38459191425858  C 36.97268581632653 1.5049103920770588  35.30250115646258 0.1403789852123186  33.37879387755102 0.134822920906254  L 12.074885102040817 0.134822920906254  C 10.149610714285714 0.13586467236467206  8.476814217687075 1.5024796160629492  8.097400918367347 3.38459191425858  L 5.651499761904763 15.513624949124948  C 5.6120998042232975 15.71241554196944  5.588346747195645 15.913973544557157  5.580457721088434 16.11645648487315  L 4.054620748299319 16.11645648487315  C 1.8303777551020404 16.11645648487315  0 17.941445631528964  0 20.15935175010175  L 0 26.511133462216794  C 0 28.72921320037987  1.8303777551020404 30.554202347035677  4.054620748299319 30.554202347035677  L 5.792364999999999 30.554202347035677  L 5.792364999999999 32.73443148826482  C 5.822488231292517 33.87498460181793  6.7716308843537405 34.79676817935151  7.915965102040817 34.79676817935151  C 9.060125170068025 34.79676817935151  10.009267857142857 33.87498460181793  10.039391088435373 32.73443148826482  L 10.039391088435373 30  L 22.5763974829932 30  C 22.595202721088434 30.553160561660555  22.613833843537414 30.55350783475783  22.632464999999996 30.55350783475783  C 23.79786802721088 30.55350783475783  24.756761598639454 29.597172534255872  24.756761598639454 28.43526339709673  C 24.756761598639454 27.273180606430614  23.79786806122449 26.31701892551893  22.632464999999996 26.31701892551893  C 22.613833877551016 26.31701892551893  22.59520275510204 26.317192545109215  22.5763974829932 26  L 4.248767551020408 26  L 4.248767551020408 20  L 23.223785578231293 20  C 23.242416700680277 20.350514618097954  23.261221938775517 20.35068823768824  23.2798530952381 20.35068823768824  C 24.443514897959183 20.35068823768824  25.401189591836737 19.395741961741965  25.401189591836737 18.235395434812105  C 25.401189591836737 17.074875288291956  24.443514897959187 16.120102631935964  23.2798530952381 16.120102631935964  C 23.261221972789116 16.120102631935964  23.242416734693876 16.12027625152625  23.223785578231293 16.12079714421381  Z " fill-rule="nonzero" fill="#ffffff" stroke="none" transform="matrix(1 0 0 1 710 1487 )" />
  </g>
</svg>