<?xml version="1.0" encoding="utf-8"?>
<svg version="1.1" xmlns:xlink="http://www.w3.org/1999/xlink" width="26px" height="35px" xmlns="http://www.w3.org/2000/svg">
  <g transform="matrix(1 0 0 1 -354 -1485 )">
    <path d="M 26 16.406291426706197  C 25.9999710546875 14.594772025829439  24.544245138020834 13.125048747354255  22.749978299479167 13.125048747354255  L 6.770847213541665 13.125048747354255  C 6.621889218749999 13.125048747354255  6.500014489583333 13.002002146024063  6.5000144557291675 12.851611863104875  L 6.5000144557291675 8.750058496825107  C 6.5000144557291675 6.996644427869899  7.177096265625001 5.349187184886524  8.402614390625 4.108467265353983  C 9.631517932291667 2.871165348744678  11.263285109374998 2.1875731039415394  13 2.1875731039415394  C 14.736714890625 2.1875731039415394  16.368482067708335 2.8711653145649905  17.597385609375003 4.108467265353983  C 18.822903700520833 5.349187184886524  19.499985544270835 6.996644427869899  19.499985544270835 8.750058496825107  L 19.499985544270835 8.818417734977295  C 19.499985544270835 9.385799281757649  19.953630361979172 9.843806068002314  20.51560827604167 9.843806068002314  L 20.651024638020836 9.843806068002314  C 21.21300255208334 9.843806068002314  21.66664736979167 9.385799281757649  21.66664736979167 8.818417734977295  C 21.66664736979167 6.408755136987638  20.69164953645834 4.204170219274861  19.120819690104167 2.6011464332388443  C 17.54321904427083 0.9912867097157344  15.36640096875 -0.01017587628414474  12.966145901041667 7.799576680860788E-05  C 8.196104447916667 0.017167805304855812  4.333352630208332 3.927315332102245  4.333352630208332 8.750058496825107  L 4.333352630208332 12.851611863104875  C 4.333352630208332 13.002002146024063  4.2114779010416665 13.125048747354255  4.0625199062499995 13.125048747354255  L 3.2500217005208336 13.125048747354255  C 1.4557548619791678 13.125048747354255  2.8945312500354703E-05 14.594772025829439  0 16.406291426706197  L 0 31.71875732064806  C 2.8945312500354703E-05 33.530276721524814  1.4557548619791678 35  3.2500217005208336 35  L 22.749978299479167 35  C 24.544245138020834 35  25.9999710546875 33.530276721524814  26 31.71875732064806  L 26 16.406291426706197  Z M 16.249992755208332 22.968776819589763  C 16.249992755208332 24.038598643741828  15.742181372395834 24.992209804050795  14.953381083333333 25.590353001163706  C 14.41171563541667 26.00392629628132  14.083330929687502 26.639667081213865  14.083330929687502 27.326677260580862  L 14.083330929687502 29.53126217829364  C 14.083330929687502 30.129405375406545  13.602602846354168 30.618173811983755  13.013541632812503 30.62500974947085  C 12.410938820312504 30.63184568695794  11.916669070312503 30.119151503355592  11.916669070312503 29.507336465448184  L 11.916669070312503 27.343767070118904  C 11.916669070312503 26.653338922008366  11.591669781250003 26.00734426502487  11.04323353385417 25.590353001163706  C 10.257818593749999 24.992209804050795  9.750007244791668 24.038598643741828  9.750007244791668 22.968776819589763  C 9.750007244791668 21.184601100302004  11.185420729166667 19.711459853083273  12.952604268229166 19.68753410605813  C 14.770568955729168 19.660190424469135  16.249992755208332 21.14016757499527  16.249992755208332 22.968776819589763  Z " fill-rule="nonzero" fill="#ffffff" stroke="none" transform="matrix(1 0 0 1 354 1485 )" />
  </g>
</svg>