<?xml version="1.0" encoding="utf-8"?>
<svg version="1.1" xmlns:xlink="http://www.w3.org/1999/xlink" width="45px" height="35px" xmlns="http://www.w3.org/2000/svg">
  <g transform="matrix(1 0 0 1 -527 -1660 )">
    <path d="M 44.34707322761195 30.738220214843732  C 45.26218516791045 28.674621582031232  44.542881296641795 26.029797363281233  43.7782765858209 24.1744384765625  C 42.87654500932836 21.986596679687505  41.42394472947762 19.72706298828125  39.892636427238806 18.13018798828125  C 38.345499067164184 16.5169921875  36.67172924440298 15.687365722656251  34.917677238805965 15.664379882812497  C 34.893016334859034 15.664110055726365  34.868354143091985 15.66396763837093  34.843691697761194 15.663952636718749  C 34.27069729477611 15.663952636718749  33.74107975746268 15.75205078125  33.26340951492537 15.88731689453125  L 33.26340951492537 6.4886718750000005  L 37.12255130597015 6.4886718750000005  C 38.08777402052239 6.4886718750000005  38.87293027052238 5.721508789062499  38.87293027052238 4.7784057617187505  C 38.87293027052238 4.032177734375  38.38048041044776 3.3977172851562494  37.69703241604477 3.1646972656249988  C 37.08625816231343 1.3651367187499988  35.33334305037313 0.10159912109374891  33.360395289179095 0.10159912109374891  L 7.132433535447761 0.10159912109374891  C 5.159748134328358 0.10159912109374891  3.406920475746269 1.3653076171874985  2.795971315298508 3.1647827148437493  C 2.1126107742537314 3.3978881835937482  1.6201609141791047 4.0322631835937495  1.6201609141791047 4.7784057617187505  C 1.6201609141791047 5.721423339843749  2.4054046175373136 6.4886718750000005  3.3706273320895526 6.4886718750000005  L 8 6.4886718750000005  L 8 18.385937499999997  L 5.553375699626865 18.385937499999997  C 3.369140625 18.385937499999997  1.476300139925373 19.624780273437498  0.5699335354477608 21.420751953125002  C 0.5638118003731339 21.43160400390625  0.5566406249999996 21.44168701171875  0.5510436100746263 21.45296630859375  C 0.474909959692827 21.608182208208863  0.4063568938044698 21.76684043359265  0.34561567164179063 21.928405761718754  C 0.3423798973880593 21.936779785156254  0.33888176305970114 21.945068359375004  0.33582089552238764 21.953527832031245  C 0.30977271527606276 22.023744797042202  0.2852221628135387 22.09448356685496  0.2621851679104474 22.165698242187503  C 0.2563257929104473 22.183471679687507  0.2502915111940294 22.201159667968753  0.24469449626865636 22.219189453125004  C 0.2164988750100771 22.308975118852036  0.19072040598689657 22.399468529161865  0.1673857276119399 22.490576171875002  C 0.15037183022400308 22.556726972562352  0.13465649358678927 22.62319017562241  0.12024836753731301 22.68992919921875  C 0.11447644589552194 22.716760253906255  0.10922924440298466 22.74376220703125  0.10380713619402943 22.770764160156258  C 0.09130130597014884 22.833996582031254  0.07914528917910406 22.897399902343754  0.06891324626865629 22.961230468750003  C 0.06331623134328315 22.99549560546875  0.05894356343283541 23.030102539062504  0.05413362873134285 23.064624023437503  C 0.04600046641791002 23.122302246093753  0.037692397388059275 23.179980468750003  0.03148320895522345 23.238085937499996  C 0.02623600746268614 23.28670654296875  0.022912779850745843 23.33575439453125  0.018977378731342857 23.384716796874997  C 0.015391791044775692 23.430175781249996  0.010756763059701064 23.4754638671875  0.008308069029850321 23.521179199218746  C 0.0028095176613944844 23.61798577993952  3.911224484870329E-05 23.714921900937444  0 23.811877441406253  L 0 28.020336914062504  C 0 30.581335449218752  1.8135202891791045 32.770373535156246  4.3475687966417915 33.31656494140625  C 5.261893656716418 34.2882080078125  6.572644589552239 34.898400878906244  8.026906483208956 34.898400878906244  C 9.415315998134329 34.898400878906244  10.672895289179106 34.342211914062496  11.579699160447761 33  L 26.004693330223883 33  C 26.39560984141791 33.446276855468746  26.712365904850746 33.1366943359375  26.712365904850746 32.75482177734375  C 26.712365904850746 32.37294921875  26.39560984141791 32.063366699218754  26.004693330223883 32.063366699218754  L 24.758570429104477 32.063366699218754  L 24.758570429104477 26.558642578125  L 31.64377332089552 18.320568847656247  C 31.82042910447761 18.158813476562504  33.13485307835821 17.01934814453125  34.91435401119403 17.0472900390625  C 36.26349696828359 17.0701904296875  37.59086403917911 17.75250244140625  38.859812266791046 19.075769042968748  C 40.27769356343284 20.554211425781247  41.62561217350746 22.653442382812496  42.46525186567165 24.6908935546875  C 43.40353894589552 26.967687988281245  43.61062849813433 28.920117187500004  43.04804104477612 30.188439941406248  C 42.6240671641791 31.144274902343746  41.73221781716418 31.738061523437498  40.388846781716424 31.9619384765625  C 40.390420942164184 31.95843505859375  40.3916452891791 31.954846191406247  40.393306902985074 31.9513427734375  C 40.424265391791046 31.881701660156246  40.453387360074636 31.811206054687496  40.48102262126866 31.739941406249997  C 40.482421875 31.736181640625  40.48417094216418 31.732507324218748  40.48557019589552 31.728662109374998  C 40.69686854338181 31.1803581371839  40.80495072580403 30.59923950406107  40.804600046641795 30.013354492187496  C 40.804600046641795 27.319738769531245  38.56185867537314 25.12822265625  35.80515391791045 25.12822265625  C 33.048449160447774 25.12822265625  30.805707789179106 27.319653320312494  30.805707789179106 30.013354492187496  C 30.805707789179106 30.101025390624994  30.808331389925378 30.18809814453125  30.81305387126866 30.274572753906245  C 30.814015858208965 30.29140625  30.815852378731343 30.308154296874996  30.81698927238806 30.324987792968745  C 30.821624300373138 30.395825195312494  30.827046408582092 30.466406249999995  30.834742304104477 30.536389160156247  C 30.83640391791045 30.552197265624997  30.839027518656717 30.567749023437493  30.840864039179106 30.583386230468747  C 30.849434468283583 30.654907226562493  30.85905433768657 30.72600097656249  30.87077308768657 30.796667480468745  C 30.87313432835821 30.81068115234374  30.875932835820898 30.824609374999994  30.87838152985075 30.838623046874993  C 30.89106226679105 30.910913085937494  30.905054804104477 30.98286132812499  30.920971315298512 31.053955078124986  C 30.923857276119403 31.066943359374992  30.927180503731346 31.07984619140624  30.930241371268664 31.09283447265624  C 30.94694496268657 31.16469726562499  30.964960354477615 31.23596191406249  30.984899720149258 31.30645751953124  C 30.98866021455224 31.319702148437486  30.99268306902985 31.332946777343736  30.996443563432837 31.346105957031238  C 31.040394058063427 31.497540634992866  31.091937142459265 31.64677266422767  31.15088619402986 31.793261718749992  C 31.15753264925374 31.80975341796874  31.164004197761194 31.82615966796874  31.170825559701495 31.84256591796874  C 31.19636194029851 31.904260253906234  31.223472481343283 31.965270996093736  31.251545009328364 32.02568359374999  C 31.257316930970152 32.03815917968749  31.262214319029862 32.05089111328124  31.268161147388067 32.06328124999999  L 28.33217700559702 32.06328124999999  C 27.941260494402986 32.06328124999999  27.624504430970156 32.372863769531236  27.624504430970156 32.754736328124984  C 27.624504430970156 33.13660888671873  27.941260494402993 33.44619140624999  28.33217700559702 33.44619140624999  L 32.25262360074627 33.44619140624999  C 33.15942747201493 34.34204101562498  34.41709421641791 34.89831542968748  35.805416277985074 34.89831542968748  C 37.19592467350746 34.89831542968748  38.45516557835821 34.34033203124998  39.362319263059696 33.44191894531248  C 42.51973530783582 33.35476074218749  43.81623134328358 31.935192871093733  44.34707322761195 30.738220214843732  Z M 1.4154326026119401 23.965087890624986  L 1.4154326026119404 23.811791992187498  C 1.4154326026119404 23.74608154296875  1.4173565764925373 23.680627441406248  1.4205048973880599 23.615515136718745  C 1.4212919776119404 23.600305175781244  1.4226037779850749 23.585180664062495  1.4233908582089554 23.569970703124998  C 1.4265391791044781 23.51810302734374  1.4303871268656716 23.466320800781244  1.4354594216417915 23.414880371093748  C 1.436771222014926 23.401806640624994  1.4382579291044781 23.388818359374994  1.4397446361940303 23.375659179687496  C 1.445825989855224 23.319517858096305  1.4531153822388565 23.26350774638882  1.4616079757462692 23.207666015624998  L 1.464668843283583 23.188012695312498  C 1.505023965758327 22.934870680653624  1.5701547377809755 22.686098000899104  1.6591651119402988 22.445117187499992  L 3.6284398320895526 22.445117187499992  C 3.9268029104593904 22.445493893083025  4.168564319839944 22.6817531603018  4.168901585820895 22.97327880859374  L 4.168901585820895 23.437097167968737  C 4.168564133908568 23.7285950650185  3.9267746175119624 23.96480534375066  3.6284398320895526 23.965087890624986  L 1.4154326026119401 23.965087890624986  Z M 11.61092000932836 30.013525390624995  C 11.61092000932836 30.069750976562496  11.60925839552239 30.125634765624998  11.60663479477612 30.181262207031246  C 11.605497901119405 30.204846191406254  11.603399020522389 30.228259277343746  11.601737406716417 30.251757812499996  C 11.599551072761194 30.28294677734375  11.597364738805968 30.3141357421875  11.594478777985076 30.34515380859375  C 11.59159281716418 30.375231933593746  11.587832322761194 30.405053710937498  11.584071828358208 30.435046386718753  C 11.581185867537316 30.4583740234375  11.578299906716419 30.481701660156254  11.57488922574627 30.504858398437502  C 11.569905355279083 30.53891809064832  11.564395165020695 30.572902274100723  11.55836054104478 30.60679931640625  C 11.548771289908363 30.662098706572205  11.537719317690948 30.71714642228229  11.525215718283587 30.771887207031252  C 11.522242304104482 30.785131835937502  11.51900652985075 30.79837646484375  11.515770755597018 30.811621093750002  C 11.50615088619403 30.851953124999998  11.495918843283583 30.89202880859375  11.484899720149254 30.931933593749996  L 11.477641091417913 30.956799316406247  C 11.465236439812484 31.000604078497805  11.451940897545857 31.044163319428637  11.437762360074629 31.087451171875  C 11.437500000000004 31.088476562500002  11.43706273320896 31.08941650390625  11.43671291977612 31.090441894531253  C 11.376309291519506 31.271887949228613  11.300848864737807 31.448213935009466  11.211083255597018 31.617663574218753  C 11.202600279850747 31.63372802734375  11.194554570895525 31.64996337890625  11.185809235074629 31.665771484375  C 11.172428871268659 31.690209960937505  11.158173973880599 31.71405029296875  11.144093983208956 31.738232421875  C 11.129839085820898 31.762670898437502  11.115759095149254 31.787280273437503  11.101066930970148 31.811376953125002  C 11.08934818097015 31.830432128906256  11.077104710820896 31.849145507812505  11.06503614738806 31.868115234375004  C 11.04667094216418 31.896826171875002  11.028130830223882 31.925451660156252  11.008891091417912 31.953564453125004  C 10.998484141791046 31.968859863281246  10.987639925373136 31.98389892578125  10.976970615671643 31.9990234375  C 10.955019822761194 32.030126953125  10.932719216417912 32.06097412109375  10.909806436567166 32.09130859375  C 10.90027402052239 32.103955078125004  10.890479244402988 32.116345214843754  10.880859375 32.12890625  C 10.847242268970266 32.17215489407542  10.812601393576347 32.21463461613031  10.776964785447761 32.25631103515625  C 10.119053171641792 33.02518310546874  9.13065531716418 33.515490722656246  8.026819029850747 33.515490722656246  C 6.669018190298509 33.515490722656246  5.485074626865672 32.773791503906246  4.877098880597016 31.683203125000002  L 4.873338386194031 31.676196289062496  C 4.8256728754934946 31.58980476350158  4.7817613444218505 31.501485569137074  4.741721082089553 31.411474609374995  C 4.731751399253732 31.389001464843748  4.721694263059701 31.366357421874998  4.712161847014926 31.343713378906248  C 4.702629430970149 31.32115478515625  4.693709188432836 31.298339843749993  4.684614039179105 31.275524902343747  C 4.673070195895523 31.246472167968747  4.66161380597015 31.217504882812502  4.650944496268657 31.188195800781248  C 4.646047108208956 31.174694824218747  4.6415869869402995 31.161108398437495  4.636864505597015 31.14752197265625  C 4.59318067562957 31.022976792311415  4.556655658489035 30.89614323234107  4.527460354477612 30.767614746093745  L 4.5233500466417915 30.750012207031247  C 4.515456379186456 30.71379694953508  4.508225747047379 30.677446744395315  4.501661613805972 30.640979003906242  C 4.498425839552241 30.623718261718746  4.495190065298509 30.606457519531247  4.492129197761195 30.589196777343737  C 4.482669829609296 30.53374837638348  4.474650695500084 30.47807456581401  4.468079524253732 30.422229003906235  C 4.464677709287806 30.394235316218953  4.461587507978118 30.36620631575478  4.458809468283584 30.338146972656254  C 4.456006419608135 30.30687150267124  4.453557575727661 30.27556668991933  4.451463386194031 30.244238281249995  C 4.449976679104478 30.222192382812498  4.44814015858209 30.200146484374997  4.447090718283583 30.178100585937493  C 4.444344868263022 30.123310999469464  4.44291606964078 30.06846596902192  4.4428055037313445 30.013610839843743  C 4.4428055037313445 28.082458496093743  6.050635494402986 26.511389160156245  8.026819029850747 26.511389160156245  C 10.003090018656719 26.511389160156245  11.61092000932836 28.08245849609375  11.61092000932836 30.013525390624995  Z M 17.448606576492537 20.97479248046874  L 18 20.974792480468746  L 18 32.063623046874994  L 12.564161613805974 32.063623046874994  C 12.570633162313436 32.04986572265624  12.57605527052239 32.035852050781244  12.582351912313436 32.022180175781244  C 12.60954990671642 31.963562011718743  12.6356984608209 31.90451660156249  12.660535214552242 31.844702148437495  C 12.667968750000004 31.826843261718743  12.675139925373138 31.808813476562488  12.682311100746276 31.790869140624995  C 12.713973528800723 31.711865779480092  12.743571511362791 31.63208730924096  12.771076259328359 31.551611328124988  C 12.793901585820898 31.48444824218749  12.815240205223882 31.416687011718743  12.835179570895525 31.34832763671874  C 12.839289878731345 31.33405761718749  12.843662546641795 31.31978759765624  12.847685401119403 31.305346679687492  C 12.86718538919215 31.235585365791287  12.885117636691309 31.165414695391867  12.901469216417915 31.09488525390624  C 12.904704990671645 31.081042480468742  12.908203125 31.06719970703124  12.911263992537316 31.053271484374985  C 12.927005597014926 30.982775878906242  12.940823227611942 30.911682128906236  12.953329057835823 30.839990234374987  C 12.955865205223882 30.825463867187484  12.958926072761194 30.811022949218742  12.961374766791048 30.796496582031235  C 12.972900639362242 30.726198113672226  12.982814503274962 30.65565635518287  12.991108908582092 30.584924316406237  C 12.993120335820898 30.568688964843737  12.995656483208958 30.552539062499985  12.997405550373138 30.536303710937492  C 13.00479872280557 30.466477984560072  13.01068855045397 30.396508095591454  13.015071128731346 30.326440429687487  C 13.016208022388064 30.30909423828124  13.01821944962687 30.291918945312485  13.01909398320896 30.27465820312499  C 13.023816464552242 30.188183593749986  13.0263526119403 30.10111083984373  13.0263526119403 30.013525390624988  C 13.0263526119403 27.319909667968734  10.783611240671645 25.128393554687484  8.026906483208956 25.128393554687484  C 5.27020172574627 25.128393554687484  3.0275478078358233 27.319824218749986  3.0275478078358233 30.013525390624988  C 3.02782009315085 30.10981052524957  3.030969756208703 30.206067363378864  3.0369927705223905 30.302172851562485  C 3.0402285447761215 30.355065917968737  3.0443388526119426 30.407958984374986  3.0493236940298534 30.460681152343735  C 3.0516849347014947 30.485461425781242  3.0536963619403004 30.510498046874986  3.056319962686569 30.53519287109374  C 3.0703878785258807 30.661691560142398  3.0895550516516166 30.78759908910485  3.113776819029852 30.912622070312487  C 3.1406282914800236 31.052924419069534  3.173805408403243 31.192000223285373  3.213211287313434 31.32944335937498  C 3.2166219682835844 31.341149902343737  3.2195079291044797 31.353027343749986  3.2229186100746277 31.364733886718735  C 2.0899125322778582 30.611965949111443  1.4127760280792607 29.35915080050711  1.4153451492537326 28.020422363281238  L 1.4153451492537326 25.348339843749983  L 3.6284398320895526 25.348339843749983  C 4.706914645522389 25.348339843749983  5.584334188432836 24.491113281249987  5.584334188432836 23.437353515624988  L 5.584334188432836 22.973535156249987  C 5.584334188432836 21.91968994140624  4.707002098880598 21.06237792968749  3.628439832089553 21.06237792968749  L 2.523466651119403 21.06237792968749  C 3.27958838619403 20.267529296874986  4.357713386194029 19.769018554687488  5.553375699626867 19.769018554687488  L 16.908057369402986 19.769018554687488  C 17.20644045395067 19.7693011016598  17.44826912447654 20.005549637234413  17.448606576492537 20.297094726562488  L 17.448606576492537 20.97479248046874  Z M 10 18.385937499999997  L 9 18.385937499999994  L 9 6.4886718750000005  L 10 6.4886718750000005  L 10 18.385937499999997  Z M 13.8427297108209 18.385937499999994  L 12.692368236940302 18.385937499999994  L 12.692368236940302 10.472314453124996  C 12.692753777835518 10.1807888619678  12.934554307185229 9.944567818218886  13.232917444029857 9.944238281249996  L 13.302267957089558 9.944238281249996  C 13.600616889554834 9.944567912837451  13.842392348002184 10.180802683695381  13.8427297108209 10.472314453124996  L 13.8427297108209 18.385937499999994  Z M 23.34313782649254 27.0865478515625  L 23.34313782649254 32.06345214843749  L 18.86412663246269 32.06345214843749  L 18.86412663246269 27.0865478515625  L 23.34313782649254 27.0865478515625  Z M 18.86412663246269 24.173071289062495  L 20.707993236940304 24.173071289062495  L 20.707993236940304 25.70363769531249  L 18.86412663246269 25.70363769531249  L 18.86412663246269 24.173071289062495  Z M 18.86412663246269 22.790161132812496  L 18.86412663246269 21.666076660156243  L 21.37841068097015 21.666076660156243  C 21.676745415690586 21.666406378795582  21.918495807569983 21.90265488544143  21.91878498134329 22.194152832031246  L 21.91878498134329 22.26199951171875  C 21.918447715495994 22.553477967749593  21.676725460214723 22.789698978145132  21.378410680970152 22.790075683593745  L 18.86412663246269 22.790075683593745  Z M 29 18.3847412109375  L 29.762739039179106 18.384741210937495  L 29.05532882462687 19.231201171874996  L 24.581040111940307 14.902856445312496  L 26.56754314365672 12.921032714843744  C 26.693074040906463 12.792400362678931  26.763104166117397 12.62148578250952  26.763104166117397 12.443749117953276  C 26.763104166117397 12.061774638510979  26.44619005392615 11.752123141390777  26.055256684774115 11.752123141390777  C 25.868257532725913 11.752123141390777  25.688855853158095 11.824423808298745  25.55623250932836 11.953234863281246  L 20.598064365671643 16.899548339843744  C 20.47271092066237 17.02813757441011  20.402790713607775 17.198917277805165  20.402790713607775 17.376503111363522  C 20.402790713607775 17.758430398505418  20.719665671596875 18.068043638707273  21.11055074159285 18.068043638707273  C 21.29737387385165 18.068043638707273  21.476619464751796 17.995869777842316  21.609200093283587 17.867260742187497  L 23.590455923507463 15.890734863281244  L 28.15578358208955 20.307092285156244  L 23.645551539179106 25.703466796874995  L 22.12325093283582 25.703466796874995  L 22.12325093283582 24.02806396484375  C 22.833022388059703 23.741125488281245  23.334042677238806 23.057873535156244  23.334042677238806 22.261914062499997  L 23.334042677238806 22.1940673828125  C 23.334042677238806 21.140307617187496  22.456623134328357 20.282995605468745  21.37823577425373 20.282995605468745  L 18.863252098880597 20.282995605468745  C 18.85546875 19.23572998046875  17.981722248134325 18.385852050781246  16.907969916044774 18.385852050781246  L 15.258074860074625 18.385852050781246  L 15.258074860074625 10.472229003906248  C 15.258074860074625 9.418469238281249  14.380655317164182 8.561157226562496  13.302180503731343 8.561157226562496  L 13.232829990671641 8.561157226562496  C 12.154267723880594 8.561157226562496  11.276848180970148 9.418383789062498  11.276848180970148 10.472229003906248  L 11.276848180970148 18.385852050781246  L 11 18.385852050781246  L 11 7  L 29 7  L 29 18.3847412109375  Z M 31.848064365671647 6.4886718750000005  L 31.848064365671636 16.478454589843743  C 31.616457394626956 16.60822714200273  31.392754495719615 16.751025047311998  31 16.906127929687493  L 31 6.4886718750000005  L 31.848064365671647 6.4886718750000005  Z M 37.122726212686565 5.105676269531244  L 30.470411613805968 5.105676269531244  L 3.3706273320895526 5.105676269531244  C 3.185707286131457 5.105487966757658  3.0358345117342282 4.95908800130776  3.035593516791045 4.778405761718744  C 3.03578640762153 4.597704017474186  3.1856873365695058 4.451276549862715  3.3706273320895526 5  L 28.07987406716418 5  C 28.07987404728007 4.451135253906246  28.079874057222117 4.451135253906246  28.07987403733801 4.451135253906246  C 28.47071080817792 4.451135253906246  28.787546611964878 4.141560270622742  28.787546611964878 3.759680175781245  C 28.787546611964878 3.3778000809397466  28.47071080817792 3.0682250976562444  28.07987403733801 3.0682250976562444  C 28.079874057222117 3.0682250976562444  28.07987404728007 3.0682250976562444  28.079874067164177 3  L 4.378877098880596 3  C 4.9257229477611935 2.115551757812495  5.974113805970149 1.484594726562495  7.132433535447761 2  L 33.36057019589553 2  C 34.51906483208956 1.484594726562495  35.56763059701493 2.1154663085937444  36.11438899253731 3.0682250976562444  L 30.501545009328368 3.0682250976562444  C 30.11066907888127 3.068225092375082  29.793872429296478 3.3777618187402356  29.793872429296478 3.759594721281332  C 29.793872429296478 4.141598532822255  30.11066907888127 4.451135259187408  30.501457550565124 4.451135259187408  L 37.11546758395523 4.451135253906246  L 37.125437266791046 4.451391601562495  C 37.30922127958937 4.452937935721628  37.4574395779799 4.598826952405897  37.45767257462687 4.778405761718744  C 37.457431680647026 4.9590546875367565  37.30761210691396 5.105440896038442  37.122726212686565 5.105676269531244  Z M 39.38890508395523 30.013525390624988  C 39.38901369014969 30.069404939371047  39.387672307675 30.12527819727021  39.38488222947762 30.18109130859375  C 39.3837453358209 30.204675292968748  39.38164645522389 30.228173828124998  39.379984841417915 30.251672363281248  C 39.37779850746269 30.282861328125  39.37569962686568 30.313879394531252  39.37272621268658 30.3448974609375  C 39.369840251865675 30.37506103515625  39.36599230410448 30.40496826171875  39.362319263059696 30.434960937499998  C 39.35337733427319 30.510412467996176  39.341592282722786 30.585516343211555  39.32698810634329 30.660119628906248  C 39.31981693097015 30.697546386718745  39.31212103544776 30.73480224609375  39.303550606343286 30.77197265625  C 39.300664645522396 30.785046386718754  39.29742887126866 30.79803466796875  39.29428055037314 30.8111083984375  C 39.28457322761194 30.851611328125003  39.2743411847015 30.891943359375002  39.26323460820896 30.932019042968754  L 39.25623833955223 30.955859375  C 39.24368780326925 31.000063368801268  39.23024652531256 31.044021292224464  39.215922341417915 31.087707519531254  C 39.15488271059002 31.271472280203604  39.078539343945614 31.449754394674333  38.98758162313434 31.620996093750005  C 38.97979827425374 31.635522460937505  38.972452192164184 31.650476074218755  38.964581389925385 31.66500244140625  C 38.95058885261194 31.690380859375004  38.935809235074636 31.71533203125  38.92120452425374 31.7404541015625  C 38.90756180037314 31.7638671875  38.89409398320897 31.787365722656247  38.87992653917912 31.810522460937502  C 38.86777052238807 31.830432128906246  38.854827425373145 31.850085449218753  38.84214668843285 31.869824218750004  C 38.82430620335822 31.897595214843754  38.806378264925385 31.925366210937494  38.78783815298509 31.95262451171875  C 38.77690648320897 31.96868896484375  38.7654500932836 31.9844970703125  38.75425606343285 32.00047607421875  C 38.73295769153137 32.030761050176466  38.71114969000828 32.06070082931738  38.688840951492544 32.090283203125  C 38.678783815298516 32.10361328125  38.668464319029866 32.11685791015624  38.6581448227612 32.130102539062506  C 38.62446944278012 32.173329678210436  38.589799935482745 32.215808754453434  38.554162779850756 32.25750732421875  C 37.89607625932837 33.0259521484375  36.9080282182836 33.5157470703125  35.80489155783583 33.5157470703125  C 34.701754897388064 33.5157470703125  33.7137943097015 33.025866699218746  33.05579524253732 32.25750732421875  C 33.04591301305971 32.24588623046875  33.035943330223894 32.234265136718754  33.0262360074627 32.22264404296876  C 32.9663960112478 32.15090876534732  32.90953448299497 32.07684983401715  32.85578941231344 32.00064697265624  C 32.84450792910448 31.98466796875  32.83305153917911 31.968774414062498  32.82211986940299 31.95262451171875  C 32.8037182523093 31.925381856952075  32.785701155041984 31.897893089534563  32.76807369402985 31.870166015625  C 32.75530550373135 31.850341796874993  32.742362406716424 31.830603027343745  32.730118936567166 31.810522460937502  C 32.71603894589553 31.787622070312498  32.70274603544777 31.764208984375006  32.68919076492538 31.740966796875  C 32.67449860074627 31.715673828124995  32.659544076492544 31.69063720703125  32.6454640858209 31.66500244140625  C 32.63759328358209 31.650817871093743  32.63042210820896 31.636206054687495  32.62281366604478 31.621850585937498  C 32.51000559915835 31.40935621412959  32.4198344131611 31.186102123459285  32.35371968283582 30.955603027343745  C 32.351445895522396 30.947827148437497  32.34908465485074 30.940136718749997  32.34689832089553 30.932275390624994  C 32.33570429104478 30.892114257812494  32.32547224813433 30.851525878906244  32.31576492537314 30.810937499999987  C 32.299335419175364 30.743508575975024  32.285189416606 30.675567902054144  32.2733500466418 30.607226562499996  C 32.26727950225539 30.57313117897867  32.261740148687664 30.538947536567278  32.25673390858209 30.504687499999992  C 32.25341068097015 30.481616210937492  32.25052472014926 30.458374023437493  32.24763875932835 30.435131835937483  C 32.2437764528683 30.405155313369672  32.240307185217326 30.37513169290684  32.23723180970149 30.34506835937499  C 32.23417094216418 30.31422119140624  32.23215951492538 30.28303222656249  32.229973180970156 30.25184326171874  C 32.22839902052238 30.22834472656249  32.22630013992538 30.20484619140624  32.225075792910445 30.18126220703124  C 32.22225600166769 30.125391766442757  32.22079803257383 30.069463646761562  32.220703125 30.013525390624988  C 32.220703125 28.082458496093736  33.82853311567164 26.51138916015623  35.80480410447761 26.51138916015623  C 37.78107509328358 26.51138916015623  39.38890508395522 28.082458496093736  39.38890508395523 30.013525390624988  Z " fill-rule="nonzero" fill="#ffffff" stroke="none" transform="matrix(1 0 0 1 527 1660 )" />
  </g>
</svg>