<?xml version="1.0" encoding="utf-8"?>
<svg version="1.1" xmlns:xlink="http://www.w3.org/1999/xlink" width="17px" height="8px" xmlns="http://www.w3.org/2000/svg">
  <g transform="matrix(1 0 0 1 -541 -1503 )">
    <path d="M 8.398809523809522 4.018604651162789  C 8.398809523809522 6.381395348837206  6.597619047619046 7.9255813953488365  4.270238095238097 7.9255813953488365  C 1.9630952380952387 7.9255813953488365  0.18214285714285686 6.269767441860463  0.18214285714285686 4.018604651162789  C 0.18214285714285686 1.934883720930231  1.8011904761904745 0.07441860465116384  4.270238095238094 0.07441860465116384  C 6.61785714285714 0.07441860465116384  8.398809523809522 1.7674418604651163  8.398809523809522 4.018604651162789  Z M 6.941666666666666 4.018604651162789  C 6.941666666666666 2.493023255813952  5.767857142857143 1.3581395348837204  4.270238095238097 1.3581395348837204  C 2.711904761904763 1.3581395348837204  1.639285714285716 2.567441860465113  1.639285714285716 4.018604651162789  C 1.639285714285716 5.54418604651163  2.813095238095239 6.641860465116277  4.270238095238097 6.641860465116277  C 5.767857142857143 6.641860465116277  6.941666666666666 5.54418604651163  6.941666666666666 4.018604651162789  Z M 15.603571428571428 7.68372093023256  L 15.603571428571428 7.702325581395344  L 15.603571428571428 3.2186046511627877  C 15.603571428571428 2.046511627906974  14.875 1.358139534883715  13.701190476190474 1.358139534883715  C 12.507142857142856 1.358139534883715  11.778571428571427 2.1209302325581327  11.778571428571427 3.2186046511627877  L 11.778571428571427 7.702325581395344  L 10.361904761904759 7.702325581395344  L 10.361904761904759 0.18604651162790697  L 11.778571428571427 0.18604651162790697  L 11.778571428571427 1.1162790697674418  C 12.345238095238095 0.4651162790697701  13.073809523809523 0.055813953488371565  14.085714285714285 0.055813953488371565  C 15.80595238095238 0.055813953488371565  17 1.1906976744186057  17 3.199999999999998  L 17 7.68372093023256  L 15.603571428571428 7.68372093023256  Z " fill-rule="nonzero" fill="#ffffff" stroke="none" transform="matrix(1 0 0 1 541 1503 )" />
  </g>
</svg>