<?xml version="1.0" encoding="utf-8"?>
<svg version="1.1" xmlns:xlink="http://www.w3.org/1999/xlink" width="11px" height="11px" xmlns="http://www.w3.org/2000/svg">
  <g transform="matrix(1 0 0 1 -911 -1500 )">
    <path d="M 8.102040836256377 0.6734693877550988  L 8.061224469866067 0.6020408123405593  L 3.204081648596937 5.489795930325258  C 3.0784525575897654 5.479242426524417  2.952159723181917 5.479242426524417  2.8265306321747454 5.489795930325258  C 1.3162199478362324 5.489795930258991  0.09185579609685947 6.714160081998364  0.09185579609685947 8.224489803824044  C 0.09185579609685947 9.734819525649723  1.3162199478362324 10.959183677389092  2.8265496696619117 10.959183677389092  C 4.336879391487588 10.959183677389092  5.561243543226963 9.734819525649723  5.561243543226963 8.224489803824044  C 5.561243543226963 8.221088438407644  5.561237197386864 8.217687075953464  5.561224505739798 8.214285734215562  C 5.571072259176414 8.098849109216859  5.571072259176414 7.982783551816298  5.561224505739798 7.867346926817602  L 10.428571440529335 2.999999992028061  C 10.737088580714111 2.6914828518432876  10.910411705312303 2.273043813765451  10.910411705312303 1.836734689891583  C 10.910411705312303 0.9281679734202308  10.173872854864207 0.19162912297213447  9.265306138392859 0.19162912297213447  C 8.828997014518993 0.19162912297213447  8.41055797644115 0.3649522475703258  8.102040836256377 0.6734693877550988  Z " fill-rule="nonzero" fill="#ffffff" stroke="none" transform="matrix(1 0 0 1 911 1500 )" />
  </g>
</svg>