<?xml version="1.0" encoding="utf-8"?>
<svg version="1.1" xmlns:xlink="http://www.w3.org/1999/xlink" width="44px" height="35px" xmlns="http://www.w3.org/2000/svg">
  <g transform="matrix(1 0 0 1 -893 -1485 )">
    <path d="M 22.01687548708883 0.11931171407785891  C 22.011250324105866 0.11931171407785891  22.005625161317475 0.1193138661074074  22 0.11931817016601562  C 9.904460805390972 0.1341189555292146  0.10697579434352247 9.887932571461434  0.10697579434352247 21.91475621883686  C 0.10697579434352247 26.279377218242104  1.4248732940846585 30.543468903558857  3.88999999609375 34.154829553222655  C 4.171848491490682 34.55928794555634  4.635126362131408 34.800755405249554  5.130000003906249 34.80113638305664  C 5.440263763948848 34.809099620855655  5.745007118157618 34.71854434059877  6.000000015624998 34.54261361694335  C 6.412938922732261 34.26757567038264  6.660765416254069 33.80591613564332  6.660765416254069 33.311717585242796  C 6.660765416254069 33.01285892837097  6.569864473848579 32.72098713408433  6.400000019531249 32.474431829833975  C 4.429746341905092 29.5823427850704  3.31105212590985 26.200559805075443  3.169999980468749 22.710227276611324  L 5.6099999999999985 22.710227276611324  C 6.4527687583118745 22.644236510225387  7.102819093479802 21.94497807758988  7.102819093479802 21.10440341491699  C 7.102819093479802 20.263828752244102  6.452768758311875 19.564570319608585  5.6099999999999985 19.498579553222648  L 3.2799999804687503 19.498579553222648  C 3.700396676388847 16.225396543026555  4.983772792256442 13.120944391795412  7.0000000039062495 10.5  L 8.399999996093749 11.892045446777342  C 8.694699024065056 12.14650518698336  9.07188418569783 12.286618505931742  9.462190972726859 12.286618505931742  C 10.356892263138018 12.286618505931742  11.082190964914359 11.565440819506405  11.082190964914359 10.675823059154398  C 11.082190964914359 10.290159985502566  10.943029939601953 9.91729667477264  10.69000001953125 9.625  L 9.20000000390625 8.123579553222656  C 12.301382254447233 5.250295014784648  16.28541140541912 3.4990162127467195  20.509999984374996 3.1519886169433597  C 20.450258861674584 3.314449428695591  20.419792540484778 3.486111030785461  20.42000000390625 3.6590908935546875  L 20.42000000390625 6.194602276611328  C 20.486367860385805 7.032582576069167  21.18962205549353 7.678939443423653  22.035000001953126 7.678939443423653  C 22.880377948412722 7.678939443423653  23.583632143520443 7.032582576069167  23.65 6.194602276611328  L 23.65 3.6789772766113287  C 23.645312227644524 3.506455256373649  23.61498398504698 3.3355716541024774  23.56000001953124 3.171875  C 27.752311459949233 3.5110586033804547  31.70951652266622 5.236874814483492  34.799999996093746 8.07386361694336  L 33.240000019531244 9.625  C 32.986970178595904 9.917296654498609  32.84780920132607 10.290159905285822  32.84780920132607 10.67582291224019  C 32.84780920132607 11.565440672592194  33.57310790310241 12.286618359017533  34.467809193513574 12.286618359017533  C 34.858115902974454 12.286618359017533  35.235300994997786 12.14650509565242  35.529999999999994 11.892045446777342  L 36.999999996093756 10.440340893554687  C 39.053583224860716 13.069404334324505  40.3621800771335 16.1969987000358  40.78999998046875 19.49857955322266  L 38.39 19.498579553222655  C 37.54723124168811 19.56457031960858  36.89718090652018 20.263828752244095  36.89718090652018 21.104403414916995  C 36.89718090652018 21.94497807758988  37.54723124168811 22.644236510225404  38.39 22.710227276611327  L 40.92 22.710227276611324  C 40.78597842440023 26.13591861936671  39.70658400764783 29.45890131916847  37.80000000390625 32.31534089355468  C 37.63665983443489 32.55993742482221  37.54953340051439 32.84701785866891  37.54953340051439 33.140625  C 37.54953340051439 33.964601384046105  38.22131517947363 34.63256622107943  39.04999999999999 34.63256622107943  C 39.552668535737126 34.63256622107943  40.02194322851288 34.38228997017196  40.299999996093746 33.96590910644531  C 42.67849480601169 30.395371359661652  43.94687548318258 26.207450756350646  43.94687548318258 21.92470943746653  C 43.94687548318258 9.881920810843864  34.12848004872076 0.11931171407785891  22.01687548708883 0.11931171407785891  Z " fill-rule="nonzero" fill="#ffffff" stroke="none" transform="matrix(1 0 0 1 893 1485 )" />
  </g>
</svg>