<?xml version="1.0" encoding="utf-8"?>
<svg version="1.1" xmlns:xlink="http://www.w3.org/1999/xlink" width="35px" height="35px" xmlns="http://www.w3.org/2000/svg">
  <g transform="matrix(1 0 0 1 -714 -1656 )">
    <path d="M 35 17.5  C 35 27.164983122038887  27.164983122038887 35  17.5 35  C 7.835016877961115 35  0 27.164983122038887  0 17.5  C 0 7.835016877961115  7.835016877961115 0  17.5 0  C 27.164983122038887 0  35 7.835016877961115  35 17.5  Z M 33.90624999999999 17.5  C 33.90624999999999 8.439078323088548  26.560921676911452 1.093750000000002  17.5 1.09375  C 8.439078323088541 1.0937499999999996  1.093749999999996 8.439078323088545  1.093749999999996 17.5  C 1.093749999999996 26.560921676911455  8.439078323088541 33.90624999999999  17.499999999999993 33.90624999999999  C 26.560921676911445 33.90624999999999  33.90624999999999 26.560921676911455  33.90624999999999 17.5  Z M 17.5 24.0625  C 17.197969277436286 24.0625  16.953125 23.817655722563718  16.953125 23.515625  C 16.953125 23.213594277436282  17.197969277436286 22.96875  17.5 22.96875  C 20.520307225637147 22.968749999999996  22.968749999999996 20.520307225637147  22.968749999999996 17.499999999999996  C 22.968749999999996 14.479692774362846  20.520307225637147 12.031249999999998  17.499999999999996 12.031249999999998  C 14.479692774362846 12.031249999999998  12.031249999999998 14.479692774362846  12.031249999999998 17.499999999999996  L 14.21875 17.5  L 11.484375 20.78125  L 8.75 17.5  L 10.9375 17.5  C 10.9375 13.875631329235416  13.875631329235416 10.9375  17.5 10.9375  C 21.124368670764582 10.9375  24.0625 13.875631329235416  24.0625 17.5  C 24.0625 21.124368670764582  21.124368670764582 24.0625  17.5 24.0625  Z " fill-rule="nonzero" fill="#ffffff" stroke="none" transform="matrix(1 0 0 1 714 1656 )" />
  </g>
</svg>