<?xml version="1.0" encoding="utf-8"?>
<svg version="1.1" xmlns:xlink="http://www.w3.org/1999/xlink" width="17px" height="20px" xmlns="http://www.w3.org/2000/svg">
  <g transform="matrix(1 0 0 1 -737 -1502 )">
    <path d="M 10.503279541520747 16.653261381475662  L 10.50170315984382 16.65168903146543  C 14.296042223161457 15.756675209883289  16.99812728333938 12.349577878643101  16.99812728333938 8.4606441198553  C 16.99812728333938 3.8430156985871284  13.188725055347593 0.04353091939116854  8.559256561204368 0.04353091939116854  C 3.929963247192372 0.04353091939116854  0.12056101920058236 3.8430156985871284  0.12056101920058236 8.4606441198553  C 0.12056101920058236 12.349577878643101  2.8226460793785004 15.756675209883289  6.6169851426961355 16.65168903146543  C 6.934011235087524 16.727847149551096  7.156788808558759 17.011630621987862  7.154879944048624 17.336882124087097  C 7.153303562371699 17.727173128114128  6.830846928712315 18.04740744659068  6.439555178521112 18.04740744659068  L 3.809457998228874 18.04740744659068  C 3.3260357666143348 18.04740744659068  2.928088197882703 18.443638420585632  2.92721243408606 18.925824278206264  L 2.92721243408606 18.983826359975428  C 2.928088197882703 19.466012217596074  3.3260357666143348 19.86241792369122  3.809457998228874 19.86241792369122  L 3.821368399549167 19.862243191591013  L 13.29276593809121 19.862243191591013  L 13.304676339411499 19.86241792369122  C 13.788098571026042 19.86241792369122  14.186046139757675 19.466012217596074  14.186921903554317 18.983826359975428  L 14.186921903554317 18.925824278206264  C 14.186046139757675 18.443638420585632  13.788098571026037 18.04740744659068  13.304676339411499 18.04740744659068  L 10.673878541238976 18.04740744659068  C 10.284863756390122 18.04740744659068  9.964684122287956 17.728046652105654  9.964684088073097 17.34002682410757  C 9.965302279119763 17.01507318653554  10.18722527639324 16.73209819208076  10.503279541520747 16.653261381475662  Z M 8.560132325001005 12.32494447477988  L 8.564511178199092 12.32494447477988  C 6.598243811133926 12.273057095078833  5.009080793382448 10.645330387004297  5.009080759167574 8.683218312743158  C 5.009080759167574 6.68476759265579  6.657795783520513 5.040269230769231  8.66137077043836 5.040269230769231  C 10.665120903272552 5.040269230769231  12.31383592762549 6.68476759265579  12.313835893410616 8.683218312743158  C 12.286512035583458 10.689705514981911  10.624135082316954 12.32546860282575  8.612503075312967 12.32546860282575  C 8.594987765165243 12.32546860282575  8.577647635148736 12.325293904852908  8.560132325001005 12.32494447477988  Z " fill-rule="nonzero" fill="#ffffff" stroke="none" transform="matrix(1 0 0 1 737 1502 )" />
  </g>
</svg>