<?xml version="1.0" encoding="utf-8"?>
<svg version="1.1" xmlns:xlink="http://www.w3.org/1999/xlink" width="35px" height="30px" xmlns="http://www.w3.org/2000/svg">
  <g transform="matrix(1 0 0 1 -532 -1490 )">
    <path d="M 29.750000000000004 24.88235294117647  C 36.57102272727273 18.19607843137255  36.61079545454545 7.352941176470588  29.849431818181817 0.6274509803921574  L 29.829545454545457 0.6078431372549022  C 29.809659090909097 0.5882352941176471  29.78977272727273 0.5490196078431366  29.750000000000004 0.5294117647058829  C 29.272727272727273 0.03921568627450897  28.47727272727273 0.03921568627450897  27.98011363636364 0.5294117647058829  C 27.482954545454547 1.0000000000000002  27.482954545454547 1.7843137254901964  27.960227272727277 2.2745098039215677  L 28.03977272727273 2.3529411764705883  L 28.059659090909097 2.3725490196078423  C 33.846590909090914 8.11764705882353  33.826704545454554 17.41176470588235  27.98011363636364 23.117647058823525  C 22.13352272727273 28.8235294117647  12.72727272727273 28.80392156862745  6.94034090909091 23.03921568627451  C 1.1732954545454564 17.313725490196074  1.1732954545454564 8.058823529411764  6.960227272727274 2.3333333333333304  C 6.960227272727274 2.3333333333333304  6.9801136363636385 2.3333333333333304  6.9801136363636385 2.313725490196075  C 7.477272727272728 1.8431372549019578  7.477272727272728 1.0588235294117616  7.000000000000003 0.5686274509803905  C 6.522727272727274 0.07843137254901794  5.727272727272729 0.07843137254901654  5.2301136363636385 0.5686274509803905  L 5.210227272727275 0.5882352941176442  C -1.5710227272727273 7.294117647058824  -1.590909090909091 18.098039215686274  5.150568181818182 24.803921568627448  C 11.91193181818182 31.529411764705877  22.928977272727273 31.568627450980394  29.750000000000004 24.88235294117647  Z " fill-rule="nonzero" fill="#ffffff" stroke="none" transform="matrix(1 0 0 1 532 1490 )" />
  </g>
</svg>