<?xml version="1.0" encoding="utf-8"?>
<svg version="1.1" xmlns:xlink="http://www.w3.org/1999/xlink" width="42px" height="35px" xmlns="http://www.w3.org/2000/svg">
  <g transform="matrix(1 0 0 1 -402 -2170 )">
    <path d="M 41.317283698694034 10.972832737198793  C 41.949005946828365 10.3353609751506  41.949005946828365 9.29732798381024  41.31728369869403 8.655326383659638  C 30.04125174906716 -2.7225974209337354  11.753221198694028 -2.7225974209337354  0.4771892490671642 8.655326383659638  C -0.15906308302238806 9.29732798381024  -0.15906308302238806 10.335402155496988  0.4771892490671642 10.972832737198793  C 1.1134415811567164 11.61479315700301  2.1421787546641786 11.61479315700301  2.7739010027985076 10.972832737198793  C 12.781999183768658 0.8742587537650595  29.012473763992542 0.8742587537650595  39.02057194496269 10.972832737198793  C 39.656824277052245 11.61479315700301  40.68556145055971 11.61479315700301  41.317283698694034 10.972832737198793  Z M 6.600271105410443 15.70334266754518  C 5.964018773320891 16.345344267695783  5.964018773320891 17.38341843938253  6.600271105410443 18.02084902108434  C 7.236523437499995 18.662850621234938  8.265260611007458 18.662850621234938  8.896982859141787 18.02084902108434  C 15.520945079291039 11.337031720632528  26.264508512126866 11.337031720632528  32.88847073227612 18.02084902108434  C 33.524682252798506 18.662850621234938  34.55346023787314 18.662850621234938  35.18518248600746 18.02084902108434  C 35.82143481809702 17.378847420933734  35.82143481809702 16.340773249246986  35.18518248600746 15.703383847891567  C 27.29328649720149 7.740175545933736  14.496656366604476 7.740175545933736  6.600271105410443 15.703383847891567  Z M 29.22906075093283 23.29778096762048  C 29.179393073694026 23.256765342620483  29.13429629197761 23.220361916415666  29.08915869869403 23.17938747176205  L 29.098178055037312 23.170286615210838  C 24.585969566231338 18.61730515813253  17.271679687499997 18.61730515813253  12.763960471082086 23.170286615210838  C 12.127708138992535 23.81228821536144  12.127708138992535 24.85032120670181  12.763960471082086 25.48775178840361  C 13.400212803171637 26.129753388554217  14.428949976679103 26.129753388554217  15.060672224813427 25.48775178840361  C 18.304946944962683 22.214161332831324  23.56172166511194 22.214161332831324  26.801466301305965 25.48775178840361  L 26.81048565764924 25.478650931852403  C 26.848567542510715 25.526413077220855  26.88923710480073 25.572014391290047  26.932308185634323 25.61524614081325  C 27.568560517723874 26.25720656061747  28.597338502798504 26.25720656061747  29.22906075093283 25.61524614081325  C 29.865272271455222 24.973244540662648  29.865272271455222 23.9351703689759  29.22906075093283 23.29778096762048  Z M 20.940109025186565 29.986086925828314  C 19.594388409514924 29.986086925828314  18.503495219216415 31.086837584713855  18.503495219216422 32.44471832643072  C 18.503495219216422 33.80259906814759  19.594388409514927 34.903349727033124  20.940109025186565 34.903349727033124  C 22.285788829291043 34.903349727033124  23.37668201958955 33.802599068147586  23.37668201958955 32.44471832643072  C 23.37668201958955 31.086878765060245  22.285788829291043 29.986086925828314  20.940109025186565 29.986086925828314  Z " fill-rule="nonzero" fill="#ffffff" stroke="none" transform="matrix(1 0 0 1 402 2170 )" />
  </g>
</svg>