<?xml version="1.0" encoding="utf-8"?>
<svg version="1.1" xmlns:xlink="http://www.w3.org/1999/xlink" width="11px" height="10px" xmlns="http://www.w3.org/2000/svg">
  <defs>
    <mask fill="white" id="clip628">
      <path d="M 8.144342105263158 1.3766833333333337  C 9.570463157894736 2.25355  10.488905263157895 4.469577777777777  10.488905263157895 5.555555555555555  C 10.488905263157895 6.641555555555556  9.570463157894736 7.746444444444444  8.144342105263158 8.623333333333333  C 6.7422473684210535 9.485388888888888  3.88768947368421 10  2.6953473684210523 10  C 2.1179052631578954 10  1.6958526315789473 9.879166666666666  1.3788789473684213 9.6905  C 1.0619631578947373 9.501888888888889  0.8107578947368418 9.22211111111111  0.6142631578947368 8.843444444444444  C 0.2087105263157895 8.061944444444444  0.06785263157894761 6.924333333333333  0.06785263157894761 5.555555555555555  C 0.06785263157894761 4.186772222222223  0.2087105263157895 1.938038888888889  0.6142631578947368 1.1565666666666665  C 0.8107578947368418 0.7778722222222223  1.0619631578947373 0.4981000000000001  1.3788789473684213 0.3094944444444445  C 1.6958526315789473 0.12082777777777788  2.1179052631578954 0  2.6953473684210523 0  C 3.88768947368421 0  6.7422473684210535 0.5146055555555554  8.144342105263158 1.3766833333333337  Z " fill-rule="evenodd" />
    </mask>
  </defs>
  <g transform="matrix(1 0 0 1 -31 -76 )">
    <path d="M 8.144342105263158 1.3766833333333337  C 9.570463157894736 2.25355  10.488905263157895 4.469577777777777  10.488905263157895 5.555555555555555  C 10.488905263157895 6.641555555555556  9.570463157894736 7.746444444444444  8.144342105263158 8.623333333333333  C 6.7422473684210535 9.485388888888888  3.88768947368421 10  2.6953473684210523 10  C 2.1179052631578954 10  1.6958526315789473 9.879166666666666  1.3788789473684213 9.6905  C 1.0619631578947373 9.501888888888889  0.8107578947368418 9.22211111111111  0.6142631578947368 8.843444444444444  C 0.2087105263157895 8.061944444444444  0.06785263157894761 6.924333333333333  0.06785263157894761 5.555555555555555  C 0.06785263157894761 4.186772222222223  0.2087105263157895 1.938038888888889  0.6142631578947368 1.1565666666666665  C 0.8107578947368418 0.7778722222222223  1.0619631578947373 0.4981000000000001  1.3788789473684213 0.3094944444444445  C 1.6958526315789473 0.12082777777777788  2.1179052631578954 0  2.6953473684210523 0  C 3.88768947368421 0  6.7422473684210535 0.5146055555555554  8.144342105263158 1.3766833333333337  Z " fill-rule="nonzero" fill="#ffffff" stroke="none" transform="matrix(1 0 0 1 31 76 )" />
    <path d="M 8.144342105263158 1.3766833333333337  C 9.570463157894736 2.25355  10.488905263157895 4.469577777777777  10.488905263157895 5.555555555555555  C 10.488905263157895 6.641555555555556  9.570463157894736 7.746444444444444  8.144342105263158 8.623333333333333  C 6.7422473684210535 9.485388888888888  3.88768947368421 10  2.6953473684210523 10  C 2.1179052631578954 10  1.6958526315789473 9.879166666666666  1.3788789473684213 9.6905  C 1.0619631578947373 9.501888888888889  0.8107578947368418 9.22211111111111  0.6142631578947368 8.843444444444444  C 0.2087105263157895 8.061944444444444  0.06785263157894761 6.924333333333333  0.06785263157894761 5.555555555555555  C 0.06785263157894761 4.186772222222223  0.2087105263157895 1.938038888888889  0.6142631578947368 1.1565666666666665  C 0.8107578947368418 0.7778722222222223  1.0619631578947373 0.4981000000000001  1.3788789473684213 0.3094944444444445  C 1.6958526315789473 0.12082777777777788  2.1179052631578954 0  2.6953473684210523 0  C 3.88768947368421 0  6.7422473684210535 0.5146055555555554  8.144342105263158 1.3766833333333337  Z " stroke-width="4" stroke="#ffffff" fill="none" transform="matrix(1 0 0 1 31 76 )" mask="url(#clip628)" />
  </g>
</svg>