<?xml version="1.0" encoding="utf-8"?>
<svg version="1.1" xmlns:xlink="http://www.w3.org/1999/xlink" width="21px" height="20px" xmlns="http://www.w3.org/2000/svg">
  <g transform="matrix(1 0 0 1 -26 -529 )">
    <path d="M 19.129310344827587 8.928048780487806  L 19.129310344827587 8.926829268292684  L 16.079482758620692 2.8987804878048786  C 15.680946655679534 2.1110892823318803  14.879130665815795 1.6155499780055909  14.003620689655175 1.6158536585365855  L 7.060344827586207 1.6158536585365855  C 6.191379310344827 1.6158536585365855  5.394827586206896 2.1036585365853657  4.994137931034482 2.881707317073171  L 1.8803448275862062 8.909756097560976  C 1.5272640588044761 9.59280413866317  1.5272640588044757 10.40719586133683  1.8803448275862062 11.090243902439026  L 4.994137931034482 17.11829268292683  C 5.395704782798834 17.89624597487339  6.192007098411489 18.38409750668354  7.060344827586207 18.384146341463413  L 14.003620689655174 18.384146341463413  C 14.879827586206897 18.384146341463413  15.681206896551725 17.8890243902439  16.07948275862069 17.101219512195126  L 19.129310344827587 11.071951219512195  C 19.469917340031145 10.398754766637895  19.469917340031145 9.601245233362105  19.129310344827587 8.928048780487806  Z M 20.47258620689655 11.765853658536587  L 17.422758620689656 17.79512195121951  C 16.766320390294368 19.092553052287602  15.44569946546948 19.90884641189487  14.003620689655175 19.908536585365855  L 7.060344827586207 19.908536585365855  C 5.629986993099775 19.90833358347732  4.3183414905494475 19.104660214170586  3.6568965517241376 17.823170731707318  L 0.5431034482758617 11.795121951219512  C -0.03793678321415405 10.670382178080398  -0.03793678321415405 9.3296178219196  0.5431034482758621 8.204878048780488  L 3.6568965517241376 2.1756097560975602  C 4.31866950224853 0.8945928514633039  5.630249884449375 0.09142934388606813  7.060344827586207 0.09146341463414634  L 14.003620689655174 0.09146341463414634  C 15.445862068965516 0.09146341463414634  16.766206896551726 0.9085365853658536  17.422758620689653 2.2048780487804875  L 20.47258620689655 8.234146341463415  C 21.033793103448275 9.343902439024388  21.033793103448275 10.65731707317073  20.47258620689655 11.765853658536587  Z " fill-rule="nonzero" fill="#ffffff" stroke="none" transform="matrix(1 0 0 1 26 529 )" />
  </g>
</svg>