<?xml version="1.0" encoding="utf-8"?>
<svg version="1.1" xmlns:xlink="http://www.w3.org/1999/xlink" width="9px" height="9px" xmlns="http://www.w3.org/2000/svg">
  <g transform="matrix(1 0 0 1 -32 -534 )">
    <path d="M 4.499999934304002 8.908783783783784  C 2.065095885218917 8.908783783783784  0.09121615052021839 6.934904049085087  0.09121615052021839 4.5  C 0.09121615052021839 2.065095950914917  2.065095885218917 0.09121621621621707  4.499999934304002 0.09121621621621707  C 6.934903983389087 0.09121621621621707  8.908783718087786 2.065095950914917  8.908783718087786 4.5  C 8.908783718087786 6.934904049085087  6.934903983389087 8.908783783783784  4.499999934304002 8.908783783783784  Z M 4.50000006087087 7.388513513513513  C 6.095282024064545 7.388513513513513  7.388513574384384 6.095281963193678  7.388513574384384 4.5  C 7.388513574384384 2.9047180368063237  6.095282024064545 1.6114864864864864  4.50000006087087 1.6114864864864864  C 2.9047180976771942 1.6114864864864864  1.6114865473573572 2.9047180368063237  1.6114865473573572 4.5  C 1.6114865473573572 6.095281963193678  2.9047180976771942 7.388513513513513  4.50000006087087 7.388513513513513  Z " fill-rule="nonzero" fill="#ffffff" stroke="none" transform="matrix(1 0 0 1 32 534 )" />
  </g>
</svg>