<?xml version="1.0" encoding="utf-8"?>
<svg version="1.1" xmlns:xlink="http://www.w3.org/1999/xlink" width="219px" height="30px" viewBox="297 149  219 30" xmlns="http://www.w3.org/2000/svg">
  <path d="M 298 152  A 2 2 0 0 1 300 150 L 513 150  A 2 2 0 0 1 515 152 L 515 176  A 2 2 0 0 1 513 178 L 300 178  A 2 2 0 0 1 298 176 L 298 152  Z " fill-rule="nonzero" fill="#ffffff" stroke="none" />
  <path d="M 297.5 152  A 2.5 2.5 0 0 1 300 149.5 L 513 149.5  A 2.5 2.5 0 0 1 515.5 152 L 515.5 176  A 2.5 2.5 0 0 1 513 178.5 L 300 178.5  A 2.5 2.5 0 0 1 297.5 176 L 297.5 152  Z " stroke-width="1" stroke="#000000" fill="none" stroke-opacity="0.4196078431372549" />
</svg>