<?xml version="1.0" encoding="utf-8"?>
<svg version="1.1" xmlns:xlink="http://www.w3.org/1999/xlink" width="111px" height="30px" viewBox="745 149  111 30" xmlns="http://www.w3.org/2000/svg">
  <path d="M 746 152  A 2 2 0 0 1 748 150 L 853 150  A 2 2 0 0 1 855 152 L 855 176  A 2 2 0 0 1 853 178 L 748 178  A 2 2 0 0 1 746 176 L 746 152  Z " fill-rule="nonzero" fill="#ffffff" stroke="none" />
  <path d="M 745.5 152  A 2.5 2.5 0 0 1 748 149.5 L 853 149.5  A 2.5 2.5 0 0 1 855.5 152 L 855.5 176  A 2.5 2.5 0 0 1 853 178.5 L 748 178.5  A 2.5 2.5 0 0 1 745.5 176 L 745.5 152  Z " stroke-width="1" stroke="#000000" fill="none" stroke-opacity="0.4196078431372549" />
</svg>