<?xml version="1.0" encoding="utf-8"?>
<svg version="1.1" xmlns:xlink="http://www.w3.org/1999/xlink" width="196px" height="30px" viewBox="536 149  196 30" xmlns="http://www.w3.org/2000/svg">
  <path d="M 537 152  A 2 2 0 0 1 539 150 L 729 150  A 2 2 0 0 1 731 152 L 731 176  A 2 2 0 0 1 729 178 L 539 178  A 2 2 0 0 1 537 176 L 537 152  Z " fill-rule="nonzero" fill="#f0f0f0" stroke="none" />
  <path d="M 536.5 152  A 2.5 2.5 0 0 1 539 149.5 L 729 149.5  A 2.5 2.5 0 0 1 731.5 152 L 731.5 176  A 2.5 2.5 0 0 1 729 178.5 L 539 178.5  A 2.5 2.5 0 0 1 536.5 176 L 536.5 152  Z " stroke-width="1" stroke="#000000" fill="none" stroke-opacity="0.4196078431372549" />
</svg>