<?xml version="1.0" encoding="utf-8"?>
<svg version="1.1" xmlns:xlink="http://www.w3.org/1999/xlink" width="5px" height="9px" xmlns="http://www.w3.org/2000/svg">
  <g transform="matrix(1 0 0 1 -927 -274 )">
    <path d="M 4.79475881261595 0.10908329951298866  C 4.897572665429807 0.21751978490259558  4.948979591836725 0.3459314123376629  4.948979591836725 0.4943181818181905  L 4.948979591836725 8.16477272727273  C 4.948979591836725 8.313159496753247  4.897572665429807 8.441571124188314  4.79475881261595 8.550007609577921  C 4.691944959802095 8.658444094967539  4.570191713048855 8.712662337662337  4.4294990723562115 8.712662337662337  C 4.288806431663568 8.712662337662337  4.167053184910329 8.658444094967539  4.064239332096473 8.550007609577921  L 0.427875695732843 4.714780336850652  C 0.32506184291898643 4.606343851461045  0.27365491651206764 4.477932224025977  0.27365491651206764 4.32954545454546  C 0.27365491651206764 4.181158685064943  0.32506184291898643 4.052747057629876  0.427875695732843 3.9443105722402687  L 4.064239332096473 0.10908329951298866  C 4.167053184910329 0.0006468141233817448  4.288806431663568 -0.05357142857142705  4.4294990723562115 -0.05357142857142705  C 4.570191713048855 -0.05357142857142705  4.691944959802095 0.0006468141233817448  4.79475881261595 0.10908329951298866  Z " fill-rule="nonzero" fill="#555555" stroke="none" transform="matrix(1 0 0 1 927 274 )" />
  </g>
</svg>