<?xml version="1.0" encoding="utf-8"?>
<svg version="1.1" xmlns:xlink="http://www.w3.org/1999/xlink" width="32px" height="38px" xmlns="http://www.w3.org/2000/svg">
  <g transform="matrix(1 0 0 1 -10 -6 )">
    <path d="M 3.618452710176997 15.80292119565216  L 3.6162022953539803 15.805120584239132  L 5.84636338495575 15.805120584239132  C 5.85352383475483 15.805223157766802  5.860684957536045 15.805274446596329  5.867846176462351 15.805274446596329  C 6.677398290218482 15.805274446596329  7.3336699458207555 15.16388319085227  7.3336699458207555 14.372686980563726  C 7.3336699458207555 14.36568813616678  7.333617467080572 14.358689385734383  7.333512513827432 14.351691293025363  C 7.330878667012662 13.642753690149712  6.742096907417022 13.069407632686126  6.016707034820165 13.069407632686126  C 5.960124899966075 13.069407632686126  5.903601589977879 13.072971851432266  5.847488592367259 13.080078125  L 3.6162022953539803 13.080078125  C 3.6154697782783454 13.08007767919854  3.614737261086988 13.0800774562978  3.614004743869329 13.0800774562978  C 1.6649777720405274 13.0800774562978  0.08497923225428514 14.624250877252985  0.08497923225428514 16.529085325410122  C 0.08497923225428514 16.529818677893864  0.08497947157661387 16.53055203036473  0.08497995022123817 16.53128538269927  C 0.08373776577901515 16.568036379972956  0.08311654655794315 16.604804917213134  0.08311654655794315 16.64157596074836  C 0.08311654655794315 18.48651468380743  1.6134335204286145 19.982133025965744  3.5011751748765274 19.982133025965744  C 3.539525694422714 19.982133025965744  3.5778734981049096 19.981502223125382  3.6162022953539803 19.980240885416663  C 4.014791620183249 20.006727755627864  4.33211288541592 20.31685403191066  4.359214256084071 20.706405683876802  C 4.33211288541592 21.09595733584295  4.014791620183249 21.406083612125737  3.6162022953539803 21.432570482336946  L 1.5720754977876086 21.432570482336946  C 1.5649151197888285 21.432467910866702  1.5577540688276235 21.43241662306597  1.5505929217247547 21.43241662306597  C 0.741040807968617 21.43241662306597  0.08476915236634726 22.07380787881003  0.08476915236634726 22.86500408909858  C 0.08476915236634726 22.873102781626354  0.08483942084427892 22.88120132856385  0.08497995022124011 22.88929885643115  C 0.08497995022124011 23.7972797780797  0.8291171183628326 23.98454200634057  1.5720754977876106 23.98454200634057  L 3.802236587389385 23.98454200634057  C 3.8029896162970496 23.984542477458113  3.8037426453309826 23.984542713016914  3.8044956743929386 23.984542713016914  C 5.7535226462217395 23.984542713016914  7.333521186007984 22.440369292061725  7.333521186007984 20.535534843904586  C 7.333521186007984 20.532986108109935  7.3335182952793545 20.530437373100256  7.333512513827432 20.527888643568826  C 7.334806048135145 20.490386412628794  7.335452953007479 20.452865542839607  7.335452953007479 20.415342009709715  C 7.335452953007479 18.570403286650645  5.805135979136806 17.074784944492325  3.917394324688895 17.074784944492325  C 3.87900023841057 17.074784944492325  3.840608877262962 17.07541718134862  3.802236587389385 17.07668138586956  C 3.4034438711082156 17.05025711659363  3.085768931103019 16.740277003828382  3.0580994192477924 16.35056895380434  C 3.054519725323983 16.327072537573734  3.0527225295714455 16.30334960203991  3.0527225295714455 16.279594154879767  C 3.0527225295714455 16.01343270723253  3.27349483817647 15.797666222361649  3.545831282336932 15.797666222361649  C 3.5701378604165988 15.797666222361649  3.5944111725939956 15.799422668233872  3.618452710176997 15.80292119565216  Z M 13.675606823586241 13.079924262642798  C 13.668445604659995 13.079924262642798  13.661284481878663 13.079975551472325  13.654124032079647 13.080078125  L 9.378764518805307 13.080078125  C 8.65237591739948 13.087991774776421  8.067779989552639 13.665736873189012  8.067779989552639 14.375699339229365  C 8.067779989552639 14.428449339665972  8.0710760213918 14.481150115361322  8.077649681969026 14.533507416213764  C 8.073870547912719 14.573947216858  8.071978039323078 14.614534259949954  8.071978039323078 14.655142375089492  C 8.071978039323078 15.39373099293315  8.684613399222584 15.992475368748911  9.440337414323078 15.992475368748911  C 9.481871202899578 15.992475368748911  9.52338345614839 15.99062723476279  9.564745229535399 15.986936707427535  L 10.307757190265487 15.986936707427535  L 10.307757190265487 22.887099467844205  C 10.307652237012341 22.8940975605534  10.307599758272161 22.901096310985444  10.307599758272161 22.90809515538256  C 10.307599758272161 23.699291365671108  10.96387141387443 24.340682621415166  11.773423527630571 24.340682621415166  C 11.780584746556697 24.340682621415166  11.787745869338265 24.34063133258564  11.794906319137164 24.34052875905797  C 11.836285962716445 24.344222497782027  11.877816282755884 24.346072242465233  11.919368166291862 24.346072242465233  C 12.675092181392362 24.346072242465233  13.287727541291865 23.74732786664947  13.287727541291865 23.008739248805814  C 13.287727541291865 22.968129518776866  13.285834882178067 22.927540863310508  13.28205544800885 22.887099467844205  L 13.28205544800885 15.986936707427535  L 13.654124032079647 15.986936707427533  C 13.661284481878726 15.987039280955203  13.66844560465994 15.987090569784728  13.675606823586241 15.987090569784728  C 14.485158937342382 15.987090569784728  15.141430592944648 15.345699314040672  15.141430592944648 14.554503103752118  C 15.141430592944648 14.547504259355177  15.141378114204464 14.540505508922791  15.141273160951323 14.53350741621377  C 15.141378114204464 14.52650932350457  15.141430592944648 14.519510573072527  15.141430592944648 14.512511728675408  C 15.141430592944648 13.721315518386861  14.485158937342382 13.079924262642798  13.675606823586241 13.079924262642798  Z M 19.22947317477876 13.080078124999991  L 19.23059838219027 13.080078125  C 17.307646570700857 13.143022856499652  15.763751920511538 14.651933907994533  15.699376037057526 16.531285382699274  L 15.699376037057526 20.52788864356884  C 15.763751920511538 22.40724011827358  17.307646570700857 23.916151169768465  19.23059838219027 23.979095901268106  C 21.153334159732943 23.915644562255874  22.69695088641011 22.407028027838564  22.761874308628318 20.527888643568836  L 22.761874308628318 16.531285382699274  C 22.761874787668905 16.53055172709194  22.761875027189205 16.529818071359365  22.761875027189205 16.529084415602647  C 22.761875027189205 14.624249967445515  21.18187648740297 13.080076546490325  19.23284951557417 13.080076546490325  C 19.231724068448788 13.080076546490325  19.230598621389056 13.080077072660277  19.22947317477876 13.080078124999991  Z M 19.972485135508844 16.531285382699274  L 19.972485135508844 20.527888643568836  C 19.972485135508844 20.92922759923555  19.639587457956758 21.25457710597825  19.22893736172566 21.25457710597825  C 18.818287265494572 21.25457710597825  18.48538958794247 20.929227599235542  18.48538958794247 20.527888643568836  L 18.48538958794247 16.531285382699274  C 18.485389587942468 16.129946427032557  18.818287265494565 15.804596920289848  19.22893736172566 15.804596920289848  C 19.639587457956758 15.804596920289848  19.972485135508844 16.129946427032557  19.972485135508844 16.531285382699274  Z M 27.56626818892536 13.0764555958853  C 27.51354946822231 13.0764555958853  27.46083799147712 13.077663437386885  27.408177198561948 13.080078125  L 25.178069690265485 13.080078125  C 25.17090924046652 13.07997555147233  25.16374811768507 13.079924262642798  25.156586898758878 13.079924262642798  C 24.34703478500274 13.079924262642798  23.690763129400477 13.721315518386861  23.690763129400477 14.512511728675408  C 23.690763129400477 14.519510573072584  23.69081560814066 14.526509323504513  23.690920561393803 14.53350741621377  L 23.690920561393803 22.528965692934783  C 23.69081613115913 22.53594632994014  23.690763913949194 22.54292761975847  23.690763913949194 22.54990900283974  C 23.690763913949194 23.34110521312829  24.34703556955146 23.982496468872352  25.156587683307595 23.982496468872352  C 25.163748640685863 23.982496468872352  25.170909501930172 23.982445183789178  25.178069690265485 23.98234261775362  C 25.219429831890842 23.98603285192181  25.260940435434893 23.987880838867905  25.30247257173568 23.987880838867905  C 26.058196586836175 23.987880838867905  26.67083194673568 23.389136463052147  26.67083194673568 22.650547845208486  C 26.67083194673568 22.609957414662972  26.668941086138826 22.56938802863739  26.66516523783186 22.528965692934783  L 26.66516523783186 19.801723845108693  L 27.408177198561948 19.801723845108697  C 27.408927564817525 19.80172431290046  27.409677931192938 19.801724546796358  27.41042829760117 19.801724546796358  C 29.359455269429976 19.801724546796358  30.939453809216218 18.257551125841175  30.939453809216218 16.35271667768404  C 30.939453809216218 16.352000769675872  30.939453581144136 16.35128486167372  30.939453125 16.350568953804345  C 30.92670717677806 14.538696313918326  29.42022043554962 13.0764555958853  27.56626818892536 13.0764555958853  Z M 28.151189159292034 16.35056895380434  C 28.12406217298839 16.74010017485217  27.806747573731805 17.050197572435906  27.408177198561948 17.076681385869563  L 26.66516523783186 17.076681385869563  L 26.66516523783186 15.62330446105072  L 27.408177198561948 15.62330446105072  C 27.807164822410584 15.649855170943878  28.124626262981952 15.96058830277545  28.151189159292034 16.35056895380434  Z M 29.81906803097345 7.178175951086959  C 27.492109143607152 3.6588982767559455  23.795866453287864 1.2206668865411645  19.585949599004426 0.4278858129528978  C 14.822926805380739 -0.4781870707534681  9.897852636694141 0.8014634698400598  6.224058006084074 3.8996206974637677  L 4.561644427544248 2.042289402173909  C 4.503152002867291 1.9778312852663245  4.419217061999652 1.9409380184234475  4.33106245067083 1.9409380184234475  C 4.184221664128367 1.9409380184234475  4.057773014347912 2.0421863213643414  4.02888550884956 2.182893172554346  L 2.82791413163717 8.365269757699274  C 2.8245198136822216 8.383341400519527  2.822812130502645 8.401677020856239  2.822812130502645 8.420050619207437  C 2.822812130502645 8.587619827907655  2.9618053670621927 8.723461511417582  3.133262213467246 8.723461511417582  C 3.137607661336118 8.723461511417582  3.1419526302546923 8.723372343638603  3.146294247787613 8.723194067028984  L 9.5790514380531 8.424496150362318  C 9.742940230229774 8.417108826658  9.8719272512168 8.28509835251502  9.8719272512168 8.124755334077868  C 9.8719272512168 8.052340734998479  9.84513189156222 7.982369009557488  9.796484375 7.927748528079708  L 8.142215154867257 6.067851279438404  C 8.530603422799434 5.742161703317734  8.937967717314436 5.438731428640943  9.362261476769914 5.15908486186594  C 15.256430486894617 1.2689748203643523  23.261217782458544 2.7843305369301965  27.24287887168141 8.543996263586957  C 27.361454300331854 8.719004755434781  27.480887029867255 8.893280117753624  27.587942477876105 9.07373471467391  L 29.81906803097345 7.178175951086959  Z M 14.09552682522124 36.829809216485515  C 18.91161061054505 37.40897353481486  23.73335393040322 35.7966956366629  27.177081028761066 32.455644248188406  L 28.968036158738936 34.195098788496374  C 29.025646929072938 34.25028464586544  29.10310012974984 34.281195401946974  29.183768774971345 34.281195401946974  C 29.338739553842252 34.281195401946974  29.469609698996887 34.16873166994712  29.489435840707966 34.01851930480072  L 30.246218196902664 27.769323199728255  C 30.247508185274153 27.758088570886464  30.248154691728576 27.746792259334057  30.248154691728576 27.7354871123645  C 30.248154691728576 27.567917903664277  30.109161455169023 27.432076220154357  29.937704608763973 27.432076220154357  C 29.926137180221552 27.432076220154357  29.914578792079716 27.43270806762653  29.903083517699116 27.433968806612317  L 23.507297428097345 28.170502151268114  C 23.352523221456966 28.18812180624014  23.235798831824305 28.316258896038885  23.235798831824305 28.46854645991993  C 23.235798831824305 28.548198016407667  23.268203037426765 28.62458126706088  23.325871128318582 28.68086503623188  L 25.108842643805318 30.42340919384058  C 24.744647535880226 30.774800203131758  24.359932453425063 31.10527940328906  23.95663025442478 31.413186424365936  C 18.354468652583883 35.69568797142925  10.260985127584119 34.729749142656225  5.8779227737831805 29.255533854166657  C 5.7471843888274305 29.089008718297094  5.615642284292033 28.923269078351442  5.495995229535396 28.750564707880425  L 3.405520602876104 30.793639605978257  C 5.977999263883998 34.14571384016704  9.839272704829389 36.32602160784111  14.095526825221237 36.82986158288043  Z " fill-rule="nonzero" fill="#ffffff" stroke="none" transform="matrix(1 0 0 1 10 6 )" />
  </g>
</svg>