<?xml version="1.0" encoding="utf-8"?>
<svg version="1.1" xmlns:xlink="http://www.w3.org/1999/xlink" width="50px" height="50px" xmlns="http://www.w3.org/2000/svg">
  <g transform="matrix(1 0 0 1 -1719 -1618 )">
    <path d="M 50 25  C 50 38.783349609375  38.783349609375 50  25 50  C 11.216650390625 50  0 38.783349609375  0 25  C 0 11.216650390624999  11.216650390625 0  25 0  C 38.783349609375 0  50 11.216650390625  50 25  Z M 47.61669921875 25  C 47.61669921875 12.533398437499999  37.4666015625 2.38330078125  25 2.3833007812499973  C 12.533349609375 2.38330078125  2.38330078125 12.5333984375  2.38330078125 25  C 2.38330078125 37.4666015625  12.5333984375 47.61669921875  25 47.61669921875  C 37.4666015625 47.61669921875  47.61669921875 37.4666015625  47.61669921875 25  Z " fill-rule="nonzero" fill="#000000" stroke="none" transform="matrix(1 0 0 1 1719 1618 )" />
  </g>
</svg>