<?xml version="1.0" encoding="utf-8"?>
<svg version="1.1" xmlns:xlink="http://www.w3.org/1999/xlink" width="22px" height="23px" xmlns="http://www.w3.org/2000/svg">
  <g transform="matrix(1 0 0 1 -1733 -1633 )">
    <path d="M 12.016650390625006 22.216312934027773  C 12.033349609375005 22.233333333333334  11.716650390625006 22.965909288194442  11.016650390625 22.965909288194442  C 10.3 22.965909288194442  10 22.233333333333334  9.983349609375 22.199242621527777  C 9.983349609375 22.182222222222215  9.966650390625002 22.165201822916668  9.966650390625002 22.14813151041667  L 8.600000000000005 9.66  C 8.600000000000005 9.608888888888886  8.600000000000005 9.574798177083334  8.616650390625004 9.540707465277777  L 10.783349609375005 5.451818576388888  C 10.816650390625007 5.383687065972222  10.883349609375006 5.33257595486111  10.966650390625006 5.33257595486111  C 11.049951171875009 5.33257595486111  11.116650390625004 5.383687065972222  11.150000000000006 5.451868489583332  L 13.300000000000008 9.540757378472222  C 13.316650390625009 9.574798177083334  13.333349609375006 9.625909288194443  13.316650390625009 9.66  L 12.033349609375005 22.14813151041667  C 12.033349609375005 22.165201822916668  12.033349609375005 22.182222222222215  12.016650390625006 22.216312934027773  Z M 10.383349609375 22.06297960069444  C 10.433349609375 22.165201822916668  10.633349609375 22.539999999999996  11.016650390625 22.539999999999996  C 11.399951171875003 22.539999999999996  11.600000000000001 22.16515190972222  11.650000000000002 22.06297960069444  L 12.933349609375 9.677020399305555  L 11 5.9970703125  L 9.05 9.677070312500001  L 10.383349609375003 22.06302951388889  Z M 0.7833007812500004 1.754798177083332  C 0.41660156250000036 1.754798177083332  0.16665039062499964 1.4652018229166632  0.16665039062499964 0.9881315104166635  C 0.16665039062499964 0.5111111111111074  0.41665039062499964 0.22146484374999673  0.7833496093749996 0.22146484374999673  C 1.1500488281249979 0.22146484374999673  1.4000000000000004 0.5111111111111074  1.4000000000000004 0.9881315104166635  C 1.4000000000000004 1.4651519097222192  1.1500000000000004 1.754798177083332  0.7833007812500004 1.754798177083332  Z M 0.7833496093749996 1.5844444444444417  C 1.0333496093749996 1.5844444444444417  1.2166503906250004 1.3629796006944412  1.2166503906250004 0.9881315104166635  C 1.2166503906250004 0.6133333333333293  1.049999999999999 0.391868489583329  0.7833496093749996 0.391868489583329  C 0.5166992187499986 0.391868489583329  0.34999999999999964 0.6133333333333293  0.34999999999999964 0.9881315104166635  C 0.34999999999999964 1.3629796006944412  0.5166503906249993 1.5844444444444417  0.7833496093749996 1.5844444444444417  Z M 1.6999999999999993 0.2555555555555519  L 2.5333496093750014 0.2555555555555519  L 2.5333496093750014 0.40888888888888564  L 1.8833007812500018 0.40888888888888564  L 1.8833007812500018 0.90297960069444  L 2.4333007812500007 0.90297960069444  L 2.4333007812500007 1.0563129340277737  L 1.8833007812500018 1.0563129340277737  L 1.8833007812500018 1.7207573784722185  L 1.6999511718750018 1.7207573784722185  L 1.6999511718750018 0.2555555555555537  Z M 2.8000000000000007 1.7207573784722185  L 2.8000000000000007 0.2555555555555519  L 3.633349609375003 0.2555555555555519  L 3.633349609375003 0.40888888888888564  L 2.9833496093750007 0.40888888888888564  L 2.9833496093750007 0.90297960069444  L 3.5333496093750014 0.90297960069444  L 3.5333496093750014 1.0563129340277737  L 2.9833496093750007 1.0563129340277737  L 2.9833496093750007 1.7207573784722185  L 2.8000000000000007 1.7207573784722185  Z M 9.333349609375002 1.2777777777777777  L 8.8 1.2777777777777777  L 8.66669921875 1.7207573784722223  L 8.483349609375 1.7207573784722223  L 8.966650390625002 0.2555555555555537  L 9.166650390625001 0.2555555555555537  L 9.650000000000002 1.7207573784722223  L 9.450000000000003 1.7207573784722223  L 9.333300781250003 1.2777777777777777  Z M 8.850000000000001 1.124444444444444  L 9.283349609375001 1.124444444444444  L 9.216650390625002 0.9029796006944437  L 9.066650390625 0.40888888888888747  L 8.916650390625001 0.9029796006944437  L 8.850000000000001 1.124444444444444  Z M 10.350000000000001 1.7548480902777772  C 10.05 1.7548480902777772  9.833349609375002 1.6014648437499999  9.833349609375002 1.124444444444444  L 9.833349609375002 0.2555555555555537  L 10.016650390625003 0.2555555555555537  L 10.016650390625003 1.124444444444444  C 10.016650390625003 1.4822222222222217  10.166650390625001 1.584444444444445  10.350000000000001 1.584444444444445  C 10.55 1.584444444444445  10.700000000000003 1.4822222222222217  10.700000000000003 1.124444444444444  L 10.700000000000003 0.2555555555555537  L 10.866650390625004 0.2555555555555537  L 10.866650390625004 1.124444444444444  C 10.866650390625004 1.6014648437499999  10.650000000000002 1.7548480902777772  10.350000000000001 1.7548480902777772  Z M 11.55 1.7207573784722223  L 11.55 0.40888888888888747  L 11.116650390625 0.40888888888888747  L 11.116650390625 0.2555555555555537  L 12.166650390625001 0.2555555555555537  L 12.166650390625001 0.40888888888888747  L 11.733349609375 0.40888888888888747  L 11.733349609375 1.7207573784722223  L 11.55 1.7207573784722223  Z M 12.283349609375 0.9881315104166669  C 12.283349609375 0.5111111111111112  12.533349609375003 0.22146484374999856  12.900000000000002 0.22146484374999856  C 13.266650390625003 0.22146484374999856  13.516699218750002 0.5111111111111112  13.516699218750002 0.9881315104166669  C 13.516699218750002 1.465151909722223  13.266699218750002 1.7547981770833336  12.900000000000002 1.7547981770833336  C 12.549999999999999 1.7547981770833336  12.283300781250002 1.4652018229166668  12.283300781250002 0.9881315104166669  Z M 12.900000000000002 1.584444444444445  C 13.166650390625001 1.584444444444445  13.333349609375002 1.3629796006944448  13.333349609375002 0.9881315104166669  C 13.333349609375002 0.613333333333333  13.166650390625001 0.3918684895833326  12.900000000000002 0.3918684895833326  C 12.633349609375003 0.3918684895833326  12.466650390625002 0.613333333333333  12.466650390625002 0.9881315104166669  C 12.466650390625002 1.3629796006944448  12.633349609375003 1.584444444444445  12.900000000000002 1.584444444444445  Z M 19.88330078125 1.7547981770833336  C 19.5166015625 1.7547981770833336  19.266650390625003 1.4652018229166668  19.266650390625003 0.9881315104166669  C 19.266650390625003 0.5111111111111112  19.516650390625003 0.22146484374999856  19.883349609375003 0.22146484374999856  C 20.250048828125003 0.22146484374999856  20.5 0.5111111111111112  20.5 0.9881315104166669  C 20.5 1.465151909722223  20.25 1.7547981770833336  19.88330078125 1.7547981770833336  Z M 19.883349609375003 1.584444444444445  C 20.133349609375003 1.584444444444445  20.316650390625 1.3629796006944448  20.316650390625 0.9881315104166669  C 20.316650390625 0.613333333333333  20.150000000000006 0.3918684895833326  19.883349609375003 0.3918684895833326  C 19.61669921875 0.3918684895833326  19.450000000000003 0.613333333333333  19.450000000000003 0.9881315104166669  C 19.450000000000003 1.3629796006944448  19.616650390625004 1.584444444444445  19.883349609375003 1.584444444444445  Z M 20.833349609375006 0.2555555555555537  L 20.800000000000004 0.2555555555555537  L 21 0.2555555555555537  L 21.516650390625003 1.175555555555556  L 21.666650390625 1.4822222222222217  L 21.683349609375 1.4822222222222217  C 21.666650390625 1.3459592013888881  21.666650390625 1.175555555555556  21.666650390625 1.0222222222222224  L 21.666650390625 0.2555555555555537  L 21.833349609375006 0.2555555555555537  L 21.833349609375006 1.7207573784722223  L 21.650000000000006 1.7207573784722223  L 21.133349609375003 0.7836870659722215  L 20.983349609375004 0.4770203993055559  C 20.983349609375004 0.6303537326388878  21 0.7836870659722215  21 0.9370203993055553  L 21 1.7036870659722239  L 20.833349609375006 1.7036870659722239  L 20.833349609375006 0.2555555555555537  Z " fill-rule="nonzero" fill="#000000" stroke="none" transform="matrix(1 0 0 1 1733 1633 )" />
  </g>
</svg>