<?xml version="1.0" encoding="utf-8"?>
<svg version="1.1" xmlns:xlink="http://www.w3.org/1999/xlink" width="20px" height="14px" xmlns="http://www.w3.org/2000/svg">
  <g transform="matrix(1 0 0 1 -144 -384 )">
    <path d="M 0 1.1809033772363162  C 0.08681160775777784 0.5595812566885764  0.580956573807839 0.05590015971474185  1.190515280713539 0  L 18.849773993078884 0  C 18.849773993078884 0.05590015971474185  18.849773993248935 0.05590015971474185  18.849773993248935 0.05590015971474185  C 19.459332700154636 0.05590015971474185  19.953477666204694 0.5595812566885764  19.953477666204694 1.1809033772363162  C 19.953477666204694 1.1809033772363162  19.953477666204694 1.1809033772363162  20 1.1809033772363153  L 20 12.852811722319208  C 19.953477666204694 12.852811722319208  19.953477666204694 12.852811722319208  19.953477666204694 12.852811722319208  C 19.953477666204694 13.474133842866946  19.459332700154636 13.977814939840783  18.849773993248935 13.977814939840783  C 18.849765510202882 13.977814939840783  18.84978247612493 13.977814939840783  18.849773993078884 14  L 1.1905152807135395 14  C 0.580956573807841 13.977814939840783  0.08681160775777784 13.474133842866946  0 12.852811722319208  L 0 1.1809033772363162  Z M 7.222255834063141 11.485932822444255  L 8.099700244875054 11.485932822617588  L 5.759848468425572 5.223039924104544  L 4.909996638239621 5.223039924104544  L 2.570144861620087 11.485932822617588  L 3.4464855722679006 11.485932822617588  L 4.038070743552899 9.771427919498818  L 6.596455851068352 9.771427919498818  L 7.222255834063141 11.485932822444255  Z M 6.349226224587836 9.063800899800666  L 6.350329939376419 9.063800899800666  L 4.287507770701721 9.063800899800666  L 5.207996638749778 6.4605434619222715  C 5.24441886541225 6.359293169409057  5.2775299764477825 6.213042751550718  5.3073299723665315 6.0240422083224985  L 5.3271966361989955 6.0240422083224985  C 5.36030774740458 6.231042793126075  5.393418858610165 6.377293210984412  5.422115154024709 6.4605434619222715  L 6.349226224587836 9.063800899800666  Z M 8.554426155886778 8.477674228379701  L 8.55552987033526 8.478799228367318  C 8.55552987033526 9.491302125592739  8.72660394231832 10.264179326226648  9.068752072510225 10.795180844507174  C 9.410900216646402 11.326182362787703  9.89432242290262 11.591683114561278  10.51901869144893 11.59168311473461  C 11.18013718648766 11.59168311473461  11.6933594026069 11.311557321001867  12.059789012082206 10.752430719137294  C 12.426218635841888 10.193304117272715  12.609433440749589 9.385551819435674  12.609433440919641 8.328048796518468  C 12.609433440919641 6.188292681796233  11.958248277797146 5.118414631628473  10.65808535273061 5.118414617588432  C 9.974892779076786 5.118414617588432  9.4550483461581 5.401915425324073  9.095240966916359 5.968917055182063  C 8.735433573730347 6.537043684854339  8.554426169831052 7.372921066622097  8.554426155886778 8.477674228379701  Z M 10.589655729481088 10.935806248387374  C 9.761877978250334 10.935806248387374  9.349092810196325 10.104428866570094  9.349092810026274 8.441674116975573  C 9.349092810026274 6.665294047270611  9.770707609832414 5.7776665119786035  10.613937209104591 5.7776665119786035  C 11.4130186649208 5.7776665119786035  11.811455685267536 6.65179400512573  11.811455685437588 8.401174005447634  C 11.811455685437588 10.090928838811921  11.404189033508773 10.935806248387374  10.589655729481088 10.935806248387374  Z M 13.858826005730755 5.968917055182063  C 13.499018612544742 6.537043684854339  13.319114908979602 7.372921066622097  13.319114909149654 8.477674228553033  C 13.319114909149654 9.491302125766072  13.490188981132716 10.264179326226648  13.83233711132462 10.795180844507174  C 14.174485255460796 11.326182362787703  14.657907461717015 11.591683114561278  15.282603730263325 11.59168311473461  C 15.943722225302055 11.59168311473461  16.456944441421292 11.311557321001867  16.82337405106665 10.752430719137294  C 17.189803674826337 10.193304117272715  17.373018479734036 9.385551819435674  17.373018479734036 8.328048796518468  C 17.373018479734036 6.188292681796233  16.721833316611537 5.118414631628473  15.421670391545009 5.118414617588432  C 14.739581518225336 5.118414617588432  14.218633384972495 5.401915425324073  13.858826005730755 5.968917055182063  Z M 15.354344468799688 10.935806248387374  C 14.526566717568933 10.935806248387374  14.112677834726345 10.104428866570094  14.112677849010723 8.441674116975573  C 14.112677849010723 6.665294047270611  14.53429264881686 5.7776665119786035  15.37752224791899 5.7776665119786035  C 16.176603703735193 5.7776665119786035  16.57504072408193 6.65179400512573  16.57504072425198 8.401174005447634  C 16.57504072425198 10.090928838811921  16.167774072323166 10.935806248387374  15.354344468799688 10.935806248387374  Z M 17.470144412512436 2.587157388651586  L 2.570144861620087 2.587157388651586  L 2.570144861620087 4  L 17.470144412512436 4  L 17.470144412512436 2.587157388651586  Z " fill-rule="nonzero" fill="#7f7f7f" stroke="none" transform="matrix(1 0 0 1 144 384 )" />
  </g>
</svg>