<?xml version="1.0" encoding="utf-8"?>
<svg version="1.1" xmlns:xlink="http://www.w3.org/1999/xlink" width="18px" height="14px" xmlns="http://www.w3.org/2000/svg">
  <g transform="matrix(1 0 0 1 -144 -1089 )">
    <path d="M 0 0  L 1.4136125654450262 0  L 1.4136125654450262 13.81578947368421  L 0 13.81578947368421  L 0 0  Z M 2.473821989528796 0  L 5 0  L 5 13.81578947368421  L 2.473821989528796 13.81578947368421  L 2.473821989528796 0  Z M 6.18455497382199 0  L 7.598167539267015 0  L 7.598167539267015 6.907894736842105  L 6.18455497382199 6.907894736842105  L 6.18455497382199 0  Z M 8.952879581151834 0  L 11.30890052356021 0  L 11.30890052356021 6.907894736842105  L 8.952879581151834 6.907894736842105  L 8.952879581151834 0  Z M 12.663612565445026 0  L 14.077225130890053 0  L 14.077225130890053 6.907894736842105  L 12.663612565445026 6.907894736842105  L 12.663612565445026 0  Z M 15.43193717277487 0  L 17.787958115183244 0  L 17.787958115183244 6.907894736842105  L 15.43193717277487 6.907894736842105  L 15.43193717277487 0  Z M 12.706020942408376 12.779605263157894  L 13.667277486910992 12.779605263157894  L 13.667277486910992 13.81578947368421  L 10.020157068062828 13.81578947368421  L 10.020157068062828 13.111184210526314  C 11.334816753926702 11.94375  12.218324607329844 11.011184210526318  12.218324607329844 10.26513157894737  C 12.218324607329844 9.795394736842107  11.956806282722512 9.539802631578947  11.532722513089004 9.539802631578947  C 11.172251308900524 9.539802631578947  10.896596858638741 9.774671052631579  10.642146596858638 10.03717105263158  L 9.956544502617799 9.374013157894737  C 10.472513089005234 8.835197368421051  10.953141361256543 8.579605263157895  11.702356020942407 8.579605263157895  C 12.720157068062825 8.579605263157895  13.426963350785336 9.21513157894737  13.426963350785336 10.196052631578947  C 13.426963350785336 11.080263157894738  12.649476439790572 12.054276315789474  11.84371727748691 12.848684210526315  C 12.10523560209424 12.814144736842106  12.46570680628272 12.779605263157894  12.706020942408376 12.779605263157894  Z M 16.932722513089 11.163157894736841  C 17.512303664921465 11.335855263157894  17.943455497382196 11.750328947368418  17.943455497382196 12.413486842105264  C 17.943455497382196 13.373684210526315  17.045811518324605 13.912499999999998  15.999738219895285 13.912499999999998  C 15.165706806282719 13.912499999999998  14.579057591623036 13.629276315789474  14.197382198952878 13.194078947368421  L 14.776963350785339 12.420394736842105  C 15.09502617801047 12.710526315789474  15.462565445026177 12.917763157894736  15.872513089005235 12.917763157894736  C 16.360209424083767 12.917763157894736  16.678272251308897 12.717434210526315  16.678272251308897 12.33059210526316  C 16.678272251308897 11.888486842105262  16.437958115183243 11.625986842105261  15.335340314136122 11.625986842105261  L 15.335340314136122 10.755592105263156  C 16.232984293193716 10.755592105263156  16.51570680628272 10.493092105263155  16.51570680628272 10.08552631578947  C 16.51570680628272 9.733223684210525  16.303664921465966 9.539802631578944  15.914921465968584 9.539802631578944  C 15.561518324607327 9.539802631578944  15.292931937172774 9.69177631578947  14.974869109947642 9.968092105263155  L 14.33874345549738 9.215131578947366  C 14.826439790575915 8.814473684210522  15.349476439790577 8.579605263157893  15.971465968586385 8.579605263157893  C 17.059947643979058 8.579605263157893  17.77382198952879 9.076973684210525  17.77382198952879 9.995723684210523  C 17.77382198952879 10.506907894736841  17.49109947643979 10.907565789473683  16.932722513089 11.12861842105263  L 16.932722513089 11.163157894736841  Z M 9.29214659685864 12.821052631578947  L 9.29214659685864 13.81578947368421  L 5.970157068062827 13.81578947368421  L 5.970157068062827 12.821052631578947  L 7.086910994764398 12.821052631578947  L 7.086910994764398 9.899013157894736  L 6.118586387434554 9.899013157894736  L 6.118586387434554 9.139144736842104  C 6.684031413612566 9.035526315789474  7.051570680628273 8.897368421052631  7.41910994764398 8.66940789473684  L 8.345026178010471 8.66940789473684  L 8.345026178010471 12.821052631578947  L 9.29214659685864 12.821052631578947  Z " fill-rule="nonzero" fill="#555555" stroke="none" transform="matrix(1 0 0 1 144 1089 )" />
  </g>
</svg>