<?xml version="1.0" encoding="utf-8"?>
<svg version="1.1" xmlns:xlink="http://www.w3.org/1999/xlink" width="395px" height="687px" xmlns="http://www.w3.org/2000/svg">
  <defs>
    <filter x="93px" y="93px" width="395px" height="687px" filterUnits="userSpaceOnUse" id="filter200">
      <feOffset dx="0" dy="0" in="SourceAlpha" result="shadowOffsetInner" />
      <feGaussianBlur stdDeviation="5" in="shadowOffsetInner" result="shadowGaussian" />
      <feComposite in2="shadowGaussian" operator="atop" in="SourceAlpha" result="shadowComposite" />
      <feColorMatrix type="matrix" values="0 0 0 0 0  0 0 0 0 0  0 0 0 0 0  0 0 0 0.34901960784313724 0  " in="shadowComposite" />
    </filter>
    <g id="widget201">
      <path d="M 104.5 106  A 1.5 1.5 0 0 1 106 104.5 L 475 104.5  A 1.5 1.5 0 0 1 476.5 106 L 476.5 767  A 1.5 1.5 0 0 1 475 768.5 L 106 768.5  A 1.5 1.5 0 0 1 104.5 767 L 104.5 106  Z " fill-rule="nonzero" fill="#000000" stroke="none" fill-opacity="0.9921568627450981" />
      <path d="M 104 106  A 2 2 0 0 1 106 104 L 475 104  A 2 2 0 0 1 477 106 L 477 767  A 2 2 0 0 1 475 769 L 106 769  A 2 2 0 0 1 104 767 L 104 106  Z " stroke-width="2" stroke="#000000" fill="none" />
    </g>
  </defs>
  <g transform="matrix(1 0 0 1 -93 -93 )">
    <use xlink:href="#widget201" filter="url(#filter200)" />
    <use xlink:href="#widget201" />
  </g>
</svg>