<?xml version="1.0" encoding="utf-8"?>
<svg version="1.1" xmlns:xlink="http://www.w3.org/1999/xlink" width="27px" height="27px" xmlns="http://www.w3.org/2000/svg">
  <g transform="matrix(1 0 0 1 -275 -166 )">
    <path d="M 6.512727272727274 1.1853658536585365  L 6.512727272727274 3.4902439024390244  C 6.512727272727274 3.797560975609757  6.414545454545455 4.039024390243903  6.218181818181819 4.214634146341464  C 6.021818181818182 4.390243902439025  5.781818181818183 4.478048780487805  5.49818181818182 4.478048780487805  C 5.236363636363638 4.478048780487805  5.012727272727274 4.384756097560976  4.827272727272728 4.198170731707317  C 4.641818181818183 4.011585365853658  4.549090909090911 3.753658536585366  4.54909090909091 3.424390243902439  L 4.5163636363636375 1.152439024390244  C 4.5163636363636375 0.7792682926829266  4.614545454545455 0.49939024390243897  4.810909090909092 0.31280487804878054  C 5.007272727272729 0.12621951219512223  5.236363636363638 0.032926829268293004  5.49818181818182 0.03292682926829271  C 5.781818181818183 0.03292682926829271  6.021818181818182 0.13170731707317085  6.218181818181819 0.32926829268292696  C 6.414545454545455 0.5268292682926831  6.512727272727274 0.8121951219512196  6.512727272727274 1.1853658536585365  Z M 26.96727272727273 6.1573170731707325  L 26.96727272727273 10  L 0 10  L 0 6.223170731707318  C 0 5.564634146341464  0.1854545454545477 5.026829268292684  0.5563636363636384 4.609756097560977  C 0.9272727272727299 4.19268292682927  1.4400000000000026 3.9841463414634157  2.0945454545454574 4  L 24.774545454545454 4  C 25.58181818181819 3.9841463414634157  26.14909090909091 4.187195121951222  26.47636363636364 4.593292682926831  C 26.80363636363637 4.9993902439024405  26.967272727272732 5.520731707317074  26.96727272727273 6.1573170731707325  Z M 27 12  L 27 22.78536585365854  C 26.967272727272732 23.48780487804878  26.901818181818186 24.0969512195122  26.77090909090909 24.61280487804878  C 26.64 25.128658536585366  26.421818181818185 25.556707317073172  26.116363636363637 25.896951219512196  C 25.810909090909092 26.23719512195122  25.401818181818182 26.48963414634147  24.889090909090907 26.654268292682925  C 24.376363636363642 26.81890243902439  23.738181818181822 26.901219512195123  22.974545454545456 27  L 4.025454545454548 27  C 2.4763636363636383 26.901219512195123  1.4181818181818207 26.539024390243902  0.8509090909090932 25.814634146341458  C 0.28363636363636613 25.09024390243902  0 23.992682926829268  0 22.52195121951219  L 0 12  L 27 12  Z M 14.563636363636364 18.735365853658536  C 14.41090909090909 18.58170731707317  14.225454545454546 18.504878048780487  14.007272727272728 18.504878048780487  C 13.78909090909091 18.504878048780487  13.603636363636364 18.58170731707317  13.450909090909093 18.735365853658536  C 13.29818181818182 18.889024390243904  13.221818181818183 19.075609756097563  13.22181818181818 19.29512195121951  C 13.221818181818183 19.514634146341468  13.29818181818182 19.70121951219512  13.450909090909093 19.85487804878049  C 13.603636363636364 20.008536585365853  13.78909090909091 20.085365853658537  14.007272727272728 20.085365853658537  C 14.225454545454546 20.085365853658537  14.41090909090909 20.008536585365853  14.563636363636364 19.85487804878049  C 14.716363636363639 19.70121951219512  14.792727272727275 19.514634146341468  14.792727272727275 19.29512195121951  C 14.792727272727275 19.075609756097563  14.716363636363639 18.889024390243904  14.563636363636364 18.735365853658536  Z M 14.612727272727268 16.562195121951227  C 14.710909090909087 16.715853658536595  14.847272727272724 16.792682926829276  15.021818181818183 16.79268292682927  L 17.509090909090908 16.79268292682927  C 17.85818181818182 16.792682926829276  18.092727272727274 16.95731707317073  18.212727272727275 17.28658536585366  C 18.332727272727276 17.61585365853659  18.185454545454547 17.98902439024391  17.770909090909093 18.40609756097561  C 17.356363636363636 18.801219512195125  16.985454545454544 19.19634146341464  16.658181818181816 19.591463414634152  C 16.330909090909092 19.98658536585366  16.058181818181815 20.447560975609758  15.839999999999996 20.974390243902445  C 15.665454545454544 21.435365853658542  15.578181818181816 21.852439024390254  15.578181818181816 22.225609756097565  C 15.578181818181816 22.598780487804884  15.589090909090908 22.86219512195123  15.61090909090909 23.015853658536592  C 15.676363636363632 23.4548780487805  15.94909090909091 23.674390243902444  16.429090909090906 23.674390243902444  C 16.60363636363636 23.674390243902444  16.729090909090907 23.60304878048781  16.80545454545454 23.460365853658544  C 16.881818181818176 23.317682926829274  16.919999999999998 23.158536585365866  16.919999999999995 22.9829268292683  C 16.919999999999998 22.895121951219526  16.925454545454542 22.74695121951221  16.93636363636363 22.538414634146353  C 16.947272727272725 22.329878048780504  16.979999999999993 22.104878048780503  17.03454545454545 21.863414634146352  C 17.089090909090906 21.62195121951221  17.17090909090909 21.36951219512196  17.27999999999999 21.106097560975623  C 17.3890909090909 20.84268292682928  17.53090909090908 20.61219512195123  17.70545454545454 20.414634146341474  C 18.054545454545448 20.019512195121962  18.44727272727272 19.613414634146356  18.883636363636356 19.196341463414644  C 19.319999999999997 18.77926829268294  19.614545454545446 18.351219512195133  19.76727272727272 17.91219512195123  C 19.832727272727272 17.692682926829278  19.859999999999996 17.44573170731708  19.8490909090909 17.171341463414645  C 19.838181818181813 16.896951219512204  19.77818181818181 16.644512195121962  19.669090909090905 16.41402439024391  C 19.56 16.18353658536586  19.401818181818182 15.985975609756105  19.19454545454545 15.821341463414642  C 18.987272727272725 15.656707317073185  18.741818181818175 15.563414634146353  18.458181818181814 15.541463414634155  C 18.240000000000002 15.519512195121962  17.978181818181817 15.508536585365864  17.672727272727265 15.508536585365864  L 16.690909090909088 15.508536585365864  C 16.36363636363636 15.508536585365864  16.06363636363636 15.514024390243911  15.790909090909087 15.525000000000007  C 15.518181818181816 15.535975609756107  15.316363636363633 15.541463414634155  15.185454545454542 15.541463414634155  C 14.945454545454545 15.541463414634155  14.77090909090909 15.612804878048792  14.661818181818177 15.75548780487806  C 14.552727272727271 15.898170731707328  14.487272727272725 16.02439024390245  14.465454545454543 16.134146341463424  C 14.465454545454543 16.265853658536596  14.514545454545448 16.408536585365866  14.612727272727268 16.562195121951227  Z M 8.214545454545455 17.039634146341463  C 8.345454545454547 16.896951219512196  8.530909090909091 16.770731707317072  8.77090909090909 16.660975609756097  C 8.88 16.61707317073171  9.01090909090909 16.595121951219515  9.163636363636364 16.595121951219515  C 9.316363636363636 16.595121951219515  9.46909090909091 16.62256097560976  9.621818181818181 16.677439024390242  C 9.774545454545457 16.73231707317073  9.916363636363638 16.820121951219512  10.047272727272727 16.940853658536586  C 10.178181818181821 17.06158536585366  10.276363636363637 17.220731707317075  10.341818181818182 17.418292682926825  C 10.407272727272728 17.72560975609756  10.358181818181821 18.021951219512196  10.194545454545453 18.30731707317073  C 10.030909090909093 18.59268292682927  9.861818181818183 18.779268292682925  9.687272727272727 18.867073170731707  C 9.49090909090909 18.97682926829268  9.403636363636364 19.130487804878047  9.425454545454544 19.328048780487805  C 9.447272727272729 19.52560975609756  9.534545454545455 19.668292682926833  9.687272727272727 19.756097560975608  C 9.818181818181818 19.84390243902439  9.96 19.931707317073172  10.112727272727271 20.01951219512195  C 10.26545454545455 20.107317073170734  10.396363636363638 20.304878048780488  10.505454545454546 20.612195121951224  C 10.52727272727273 20.743902439024392  10.532727272727275 20.903048780487804  10.521818181818183 21.08963414634146  C 10.510909090909092 21.276219512195123  10.461818181818185 21.457317073170728  10.374545454545455 21.63292682926829  C 10.28727272727273 21.808536585365854  10.167272727272728 21.967682926829266  10.014545454545454 22.110365853658536  C 9.861818181818183 22.2530487804878  9.665454545454548 22.346341463414632  9.425454545454544 22.39024390243902  C 8.967272727272727 22.4780487804878  8.607272727272726 22.412195121951214  8.345454545454546 22.19268292682926  C 8.083636363636362 21.973170731707313  7.93090909090909 21.786585365853654  7.887272727272726 21.63292682926829  C 7.82181818181818 21.457317073170728  7.712727272727273 21.3420731707317  7.559999999999998 21.287195121951218  C 7.4072727272727255 21.23231707317073  7.265454545454543 21.226829268292686  7.134545454545453 21.270731707317072  C 6.938181818181815 21.31463414634146  6.812727272727269 21.435365853658535  6.758181818181815 21.63292682926829  C 6.703636363636361 21.830487804878047  6.6981818181818165 21.984146341463415  6.741818181818179 22.09390243902439  C 6.785454545454544 22.203658536585365  6.889090909090909 22.390243902439025  7.05272727272727 22.653658536585365  C 7.216363636363635 22.917073170731708  7.527272727272725 23.169512195121953  7.9854545454545445 23.410975609756093  C 8.203636363636363 23.54268292682927  8.49818181818182 23.625  8.869090909090907 23.65792682926829  C 9.24 23.690853658536582  9.610909090909091 23.668902439024393  9.981818181818182 23.592073170731705  C 10.352727272727275 23.515243902439025  10.70727272727273 23.356097560975613  11.045454545454547 23.114634146341462  C 11.383636363636363 22.87317073170732  11.639999999999999 22.532926829268295  11.814545454545456 22.09390243902439  C 11.967272727272727 21.72073170731707  12.032727272727271 21.374999999999996  12.010909090909092 21.056707317073172  C 11.989090909090908 20.73841463414634  11.92909090909091 20.464024390243907  11.83090909090909 20.233536585365854  C 11.732727272727274 20.003048780487802  11.623636363636365 19.821951219512194  11.503636363636362 19.690243902439025  C 11.383636363636363 19.558536585365857  11.312727272727274 19.470731707317075  11.290909090909091 19.426829268292682  C 11.181818181818183 19.317073170731707  11.132727272727273 19.201829268292688  11.143636363636363 19.08109756097561  C 11.154545454545456 18.96036585365854  11.214545454545455 18.845121951219515  11.323636363636364 18.73536585365854  C 11.454545454545457 18.537804878048785  11.552727272727275 18.340243902439028  11.618181818181817 18.142682926829274  C 11.683636363636364 17.945121951219512  11.705454545454547 17.692682926829267  11.683636363636364 17.385365853658538  C 11.683636363636364 17.23170731707317  11.656363636363636 17.050609756097565  11.601818181818183 16.84207317073171  C 11.547272727272727 16.633536585365857  11.443636363636363 16.435975609756103  11.290909090909091 16.249390243902443  C 11.138181818181819 16.06280487804878  10.936363636363637 15.892682926829272  10.685454545454546 15.739024390243907  C 10.434545454545457 15.585365853658544  10.101818181818183 15.475609756097569  9.687272727272727 15.40975609756098  C 9.272727272727275 15.343902439024392  8.90727272727273 15.360365853658537  8.59090909090909 15.45914634146342  C 8.274545454545457 15.557926829268297  8.001818181818182 15.689634146341472  7.772727272727273 15.85426829268293  C 7.543636363636364 16.01890243902439  7.363636363636364 16.194512195121945  7.232727272727272 16.38109756097561  C 7.1018181818181825 16.567682926829274  7.014545454545455 16.704878048780497  6.970909090909089 16.79268292682927  C 6.883636363636363 16.99024390243903  6.872727272727274 17.193292682926835  6.938181818181818 17.401829268292683  C 7.003636363636366 17.61036585365854  7.123636363636365 17.736585365853657  7.298181818181819 17.780487804878046  C 7.472727272727273 17.82439024390244  7.6090909090909085 17.802439024390242  7.707272727272727 17.71463414634146  C 7.8054545454545465 17.62682926829268  7.88727272727273 17.5280487804878  7.952727272727275 17.418292682926825  C 7.996363636363637 17.308536585365854  8.083636363636366 17.18231707317073  8.214545454545455 17.039634146341463  Z M 22.418181818181818 1.0865853658536588  L 22.418181818181818 3.457317073170732  C 22.41818181818182 3.764634146341465  22.32545454545455 4.011585365853659  22.14 4.198170731707317  C 21.954545454545457 4.384756097560976  21.730909090909098 4.478048780487805  21.469090909090912 4.478048780487805  C 21.185454545454547 4.478048780487805  20.950909090909093 4.390243902439025  20.76545454545455 4.214634146341464  C 20.580000000000005 4.0390243902439025  20.48727272727273 3.786585365853659  20.48727272727273 3.457317073170732  L 20.48727272727273 1.0207317073170734  C 20.48727272727273 0.6475609756097565  20.580000000000005 0.3896341463414638  20.76545454545455 0.24695121951219542  C 20.950909090909093 0.10426829268292734  21.185454545454547 0.03292682926829315  21.469090909090912 0.032926829268293004  C 21.730909090909098 0.03292682926829315  21.954545454545457 0.1152439024390247  22.14 0.27987804878048816  C 22.32545454545455 0.44451219512195145  22.41818181818182 0.7134146341463419  22.418181818181818 1.0865853658536588  Z " fill-rule="nonzero" fill="#13227a" stroke="none" transform="matrix(1 0 0 1 275 166 )" />
  </g>
</svg>