<?xml version="1.0" encoding="utf-8"?>
<svg version="1.1" xmlns:xlink="http://www.w3.org/1999/xlink" width="1838px" height="971px" xmlns="http://www.w3.org/2000/svg">
  <defs>
    <filter x="1162px" y="90px" width="1838px" height="971px" filterUnits="userSpaceOnUse" id="filter17">
      <feOffset dx="0" dy="0" in="SourceAlpha" result="shadowOffsetInner" />
      <feGaussianBlur stdDeviation="5" in="shadowOffsetInner" result="shadowGaussian" />
      <feComposite in2="shadowGaussian" operator="atop" in="SourceAlpha" result="shadowComposite" />
      <feColorMatrix type="matrix" values="0 0 0 0 0  0 0 0 0 0  0 0 0 0 0  0 0 0 0.34901960784313724 0  " in="shadowComposite" />
    </filter>
    <g id="widget18">
      <path d="M 1174.5 105  A 2.5 2.5 0 0 1 1177 102.5 L 2985 102.5  A 2.5 2.5 0 0 1 2987.5 105 L 2987.5 1046  A 2.5 2.5 0 0 1 2985 1048.5 L 1177 1048.5  A 2.5 2.5 0 0 1 1174.5 1046 L 1174.5 105  Z " fill-rule="nonzero" fill="#ffffff" stroke="none" fill-opacity="0" />
      <path d="M 1173.5 105  A 3.5 3.5 0 0 1 1177 101.5 L 2985 101.5  A 3.5 3.5 0 0 1 2988.5 105 L 2988.5 1046  A 3.5 3.5 0 0 1 2985 1049.5 L 1177 1049.5  A 3.5 3.5 0 0 1 1173.5 1046 L 1173.5 105  Z " stroke-width="3" stroke="#000000" fill="none" />
    </g>
  </defs>
  <g transform="matrix(1 0 0 1 -1162 -90 )">
    <use xlink:href="#widget18" filter="url(#filter17)" />
    <use xlink:href="#widget18" />
  </g>
</svg>