<?xml version="1.0" encoding="utf-8"?>
<svg version="1.1" xmlns:xlink="http://www.w3.org/1999/xlink" width="25px" height="18px" xmlns="http://www.w3.org/2000/svg">
  <g transform="matrix(1 0 0 1 -19 -109 )">
    <path d="M 7.5 9  L 8.75 7.714285714285715  L 13.750000000000002 12.857142857142858  L 8.75 18  L 0 9  L 8.75 0  L 10.9375 2.25  L 9.6875 3.535714285714285  L 8.75 2.571428571428572  L 2.5 9  L 8.75 15.42857142857143  L 11.263020833333332 12.843750000000002  L 7.5 9  Z M 11.25 5.142857142857142  L 16.25 0  L 25 9  L 16.25 18  L 14.0625 15.75  L 15.312500000000002 14.464285714285715  L 16.25 15.42857142857143  L 22.5 9  L 16.25 2.571428571428572  L 13.736979166666666 5.156250000000001  L 17.5 9  L 16.25 10.285714285714285  L 11.25 5.142857142857142  Z " fill-rule="nonzero" fill="#ffffff" stroke="none" transform="matrix(1 0 0 1 19 109 )" />
  </g>
</svg>