<?xml version="1.0" encoding="utf-8"?>
<svg version="1.1" xmlns:xlink="http://www.w3.org/1999/xlink" width="17px" height="9px" xmlns="http://www.w3.org/2000/svg">
  <g transform="matrix(1 0 0 1 -19 -38 )">
    <path d="M 16.980898876404495 8.3671875  C 16.985674157303368 8.681250000000002  16.727808988764046 8.9296875  16.4126404494382 8.9296875  C 16.09747191011236 8.9296875  15.839606741573034 8.676562500000001  15.839606741573034 8.367187499999996  C 15.839606741573034 4.406249999999997  12.558988764044944 1.1859374999999979  8.523876404494382 1.1859374999999979  C 4.488764044943819 1.1859374999999979  1.2033707865168541 4.40625  1.2033707865168541 8.3671875  C 1.2033707865168541 8.676562500000001  0.9455056179775283 8.9296875  0.6303370786516855 8.9296875  C 0.31516853932584277 8.9296875  0.05730337078651699 8.676562500000001  0.05730337078651699 8.3671875  C 0.05730337078651699 3.7875000000000005  3.853651685393259 0.0609374999999992  8.519101123595506 0.0609374999999992  C 13.184550561797751 0.0609374999999992  16.980898876404495 3.787499999999998  16.980898876404495 8.3671875  Z " fill-rule="nonzero" fill="#aaaaaa" stroke="none" transform="matrix(1 0 0 1 19 38 )" />
  </g>
</svg>