<?xml version="1.0" encoding="utf-8"?>
<svg version="1.1" xmlns:xlink="http://www.w3.org/1999/xlink" width="6px" height="10px" xmlns="http://www.w3.org/2000/svg">
  <g transform="matrix(1 0 0 1 -1061 -23 )">
    <path d="M 5.896907216494846 0.5923176402065218  C 5.965635738831615 0.6581307113405745  6 0.7338157431447405  6 0.8193727356190195  C 6 0.9049297280932984  5.965635738831615 0.9806147598974644  5.896907216494846 1.0464278310315223  L 1.8453608247422721 4.9261083743842295  L 5.896907216494846 8.805788917736937  C 5.965635738831615 8.871601988871001  6 8.947287020675176  6 9.032844013149445  C 6 9.118401005623724  5.965635738831615 9.19408603742789  5.896907216494846 9.259899108561942  L 5.381443298969074 9.75349714206737  C 5.312714776632305 9.819310213201444  5.233676975945031 9.852216748768459  5.14432989690723 9.852216748768459  C 5.0549828178694085 9.852216748768459  4.975945017182134 9.819310213201444  4.907216494845365 9.75349714206737  L 0.10309278350515427 5.153163469796738  C 0.03436426116838476 5.087350398662674  0 5.011665366858509  0 4.9261083743842295  C 0 4.840551381909951  0.03436426116838476 4.764866350105785  0.10309278350515427 4.699053278971732  L 4.907216494845365 0.09871960670108441  C 4.975945017182134 0.03290653556702645  5.0549828178694085 0  5.14432989690723 0  C 5.233676975945031 0  5.312714776632305 0.03290653556702645  5.381443298969074 0.09871960670108441  L 5.896907216494846 0.5923176402065218  Z " fill-rule="nonzero" fill="#666666" stroke="none" transform="matrix(1 0 0 1 1061 23 )" />
  </g>
</svg>