<?xml version="1.0" encoding="utf-8"?>
<svg version="1.1" xmlns:xlink="http://www.w3.org/1999/xlink" width="21px" height="20px" xmlns="http://www.w3.org/2000/svg">
  <g transform="matrix(1 0 0 1 -867 -16 )">
    <path d="M 20.341667355153422 10  C 20.341667355153422 4.482610302439024  15.796952318804092 0.009756097560975027  10.190290486546028 0.009756097560975027  C 4.583910632572778 0.009756097560975027  0.038913617938631205 4.482610302439024  0.038913617938631205 10  C 0.038913617938631205 15.517389697560978  4.583910632572778 19.990243902439026  10.190290486546028 19.990243902439026  C 15.796670340519277 19.990243902439026  20.341667355153422 15.517389697560978  20.341667355153422 10  Z M 10.190572464830844 19.05782113170732  C 7.988005662627853 19.057543629268295  5.964215888591662 18.291347414634153  4.37834523115657 17.016758809756098  C 4.540203304484658 13.995820058536586  7.081149322423288 11.585118692682926  10.190572464830844 11.585118692682926  C 13.299713609126673 11.585118692682926  15.840659646892213 13.99582003902439  16.00251770039339 17.017036312195128  C 14.416647042958301 18.291624936585368  12.393139267033833 19.05782113170732  10.190572464830844 19.05782113170732  Z M 10.190290486546028 10.463158809756097  C 8.800679788512982 10.463158809756097  7.6699291808025185 9.350634146341465  7.6699291808025185 7.9828032585365865  C 7.6699291808025185 6.614972370731707  8.800679768686075 5.502447707317073  10.190290486546028 5.502447687804878  C 11.579901204405981 5.502447668292683  12.710651772462631 6.615249853658537  12.710651772462631 7.9828032585365865  C 12.710651772462631 9.350356663414633  11.579901184579073 10.463158809756097  10.190290486546028 10.463158809756097  Z M 19.393923529189617 10  C 19.393923529189617 12.406816253658539  18.433208503855234 14.595789697560974  16.87187033391031 16.21948183414634  C 16.436489061526355 13.652266653658538  14.50631754523997 11.577903512195121  11.994133748544455 10.894126829268293  C 12.9909425693155 10.294712195121951  13.658677576711252 9.21687588292683  13.658677576711252 7.983080760975612  C 13.658677576711252 6.097977229268294  12.105798894099134 4.570024936585368  10.190572464830844 4.570024936585368  C 8.275064037450827 4.570024936585368  6.722467352950433 6.098254751219514  6.722467352950433 7.983080760975612  C 6.722467352950433 9.21687588292683  7.390202360346186 10.294712195121951  8.387011181117233 10.894404331707321  C 5.874827384421716 11.578181034146343  3.944655868135327 13.652544175609759  3.509274595751378 16.219759356097565  C 1.9473724692368215 14.595512195121952  0.9866574439024391 12.406816253658539  0.9866574439024391 10  C 0.9866574439024391 5.005710575609756  5.115448006923683 0.9424563707317064  10.190290486546028 0.9424563707317064  C 15.265132966168373 0.9424563707317064  19.393923529189617 5.005710575609756  19.393923529189617 10  Z " fill-rule="nonzero" fill="#231815" stroke="none" transform="matrix(1 0 0 1 867 16 )" />
  </g>
</svg>