<?xml version="1.0" encoding="utf-8"?>
<svg version="1.1" xmlns:xlink="http://www.w3.org/1999/xlink" width="18px" height="18px" xmlns="http://www.w3.org/2000/svg">
  <g transform="matrix(1 0 0 1 -18 -69 )">
    <path d="M 17.983300781249998 9.170348011363638  C 17.983300781249998 6.8255859375000005  17.048512445494186 4.6213290127840905  15.351651071947673 2.96305264559659  C 15.076798691860464 2.6944469105113638  14.63131586119186 2.6944469105113638  14.356095566860464 2.96305264559659  C 14.080875272529068 3.232377485795454  14.080875272529068 3.6677157315340905  14.356095566860464 3.9363414417613636  C 17.309220566860464 6.822689541903409  17.309220566860464 11.518745561079546  14.356095566860464 14.40511363636364  C 11.403726835029069 17.29074263139205  6.597724382267441 17.29074263139205  3.643883993459301 14.40511363636364  C 0.6907794331395332 11.518745561079546  0.6907794331395332 6.822689541903411  3.643883993459301 3.9363414417613654  C 3.9191247274709293 3.667735706676138  3.9191247274709293 3.2323974609375017  3.643883993459301 2.9630526455965924  C 3.3686636991279055 2.694446910511365  2.9232217478197664 2.694446910511365  2.648348928052324 2.9630526455965924  C 0.9515079941860467 4.6213290127840905  0.01667877906976733 6.8255859375000005  0.01667877906976733 9.170348011363638  C 0.01667877906976733 11.515110085227274  0.9515079941860467 13.720086115056818  2.648348928052325 15.37764337713068  C 4.399191497093024 17.08981267755682  6.699391351744184 17.94514825994318  8.999979560319767 17.94514825994318  C 11.30056776889535 17.94514825994318  13.60074718386628 17.089812677556818  15.351651071947673 15.37764337713068  C 17.048512445494186 13.720106090198863  17.983300781249998 11.515110085227274  17.983300781249998 9.170348011363638  Z M 8.295689498546512 11.586421342329546  C 8.295689498546512 11.96642844460227  8.610787609011629 12.275084339488638  8.999979560319767 12.275084339488638  C 9.389171511627909 12.275084339488638  9.704269622093024 11.96642844460227  9.704269622093024 11.586421342329546  L 9.704269622093024 0.7427756569602273  C 9.704269622093024 0.3627885298295456  9.389171511627907 0.054871715198863594  8.999979560319767 0.054871715198863594  C 8.61078760901163 0.054871715198863594  8.295689498546512 0.3627885298295456  8.295689498546512 0.7427756569602273  L 8.295689498546512 11.586421342329546  Z " fill-rule="nonzero" fill="#aaaaaa" stroke="none" transform="matrix(1 0 0 1 18 69 )" />
  </g>
</svg>