<?xml version="1.0" encoding="utf-8"?>
<svg version="1.1" xmlns:xlink="http://www.w3.org/1999/xlink" width="10px" height="10px" xmlns="http://www.w3.org/2000/svg">
  <g transform="matrix(1 0 0 1 -23 -29 )">
    <path d="M 9.976851851851853 5.00462962962963  C 9.976851851851853 7.7361111111111125  7.754629629629629 9.967592592592593  5.018518518518519 9.967592592592593  C 2.282407407407408 9.967592592592593  0.06018518518518506 7.740740740740741  0.06018518518518506 5.0092592592592595  C 0.06018518518518506 2.277777777777778  2.287037037037036 0.046296296296296294  5.018518518518519 0.046296296296296294  C 7.754629629629629 0.046296296296296294  9.976851851851853 2.273148148148148  9.976851851851853 5.00462962962963  Z M 8.86574074074074 5.00462962962963  C 8.86574074074074 2.8842592592592595  7.143518518518519 1.1574074074074074  5.018518518518519 1.1574074074074077  C 2.898148148148148 1.1574074074074077  1.171296296296296 2.8842592592592595  1.171296296296296 5.00462962962963  C 1.171296296296296 7.125  2.898148148148148 8.851851851851851  5.018518518518519 8.851851851851851  C 7.13888888888889 8.851851851851851  8.86574074074074 7.125  8.86574074074074 5.00462962962963  Z " fill-rule="nonzero" fill="#aaaaaa" stroke="none" transform="matrix(1 0 0 1 23 29 )" />
  </g>
</svg>