<?xml version="1.0" encoding="utf-8"?>
<svg version="1.1" xmlns:xlink="http://www.w3.org/1999/xlink" width="45px" height="5px" xmlns="http://www.w3.org/2000/svg">
  <g transform="matrix(1 0 0 1 -270 -356 )">
    <path d="M 6.124633789062501 2.551074218750003  C 6.124755859375002 1.2077148437500043  4.758544921875001 0.11464843750000142  3.0792236328125 0.11464843750000142  C 1.3999023437499991 0.11464843750000142  0.03381347656249867 1.2076171875000057  0.03381347656249867 2.551074218750003  C 0.03381347656249867 3.8944335937500085  1.4000244140624996 4.987304687500007  3.0792236328125 4.987304687500007  C 4.7584228515625 4.987304687500007  6.124633789062501 3.8944335937500085  6.124633789062501 2.551074218750003  Z M 4.148925781249999 2.5511718750000014  C 4.149047851562502 3.02294921875  3.669189453124999 3.4068359374999986  3.0792236328125 3.4068359374999986  C 2.489257812500001 3.4068359374999986  2.0095214843749987 3.02294921875  2.0095214843749987 2.5511718750000014  C 2.0095214843749987 2.0791992187499986  2.4895019531249996 1.6952148437500014  3.0792236328125 1.6952148437500014  C 3.6689453125000004 1.6952148437500014  4.148925781249999 2.0791992187500057  4.148925781249999 2.5511718750000014  Z M 44.898193359375 2.551074218750003  C 44.898193359375 1.2077148437500043  43.5321044921875 0.11464843750000142  41.85278320312501 0.11464843750000142  C 40.1734619140625 0.11464843750000142  38.807373046875 1.2076171875000057  38.807373046875 2.551074218750003  C 38.807373046875 3.8944335937500085  40.1734619140625 4.987304687500007  41.85278320312501 4.987304687500007  C 43.5321044921875 4.987304687500007  44.898193359375 3.8944335937500085  44.898193359375 2.551074218750003  Z M 42.92248535156249 2.5511718750000014  C 42.92260742187499 3.02294921875  42.4427490234375 3.4068359374999986  41.85278320312501 3.4068359374999986  C 41.262939453125 3.4068359374999986  40.7830810546875 3.02294921875  40.7830810546875 2.5511718750000014  C 40.7830810546875 2.0791992187499986  41.262939453125 1.6952148437500014  41.85278320312501 1.6952148437500014  C 42.44274902343751 1.6952148437500014  42.92248535156249 2.0791992187500057  42.92248535156249 2.5511718750000014  Z " fill-rule="nonzero" fill="#000000" stroke="none" transform="matrix(1 0 0 1 270 356 )" />
  </g>
</svg>