<?xml version="1.0" encoding="utf-8"?>
<svg version="1.1" xmlns:xlink="http://www.w3.org/1999/xlink" width="20px" height="20px" xmlns="http://www.w3.org/2000/svg">
  <g transform="matrix(1 0 0 1 -201 -714 )">
    <path d="M 19.310635653409093 14.636896306818182  C 18.95908365977568 14.636896306818182  18.674094460227273 14.921885506366584  18.674094460227273 15.273437499999998  L 18.674094460227273 17.797851562499996  C 18.67348402490431 18.273551870209022  18.288199694210206 18.659133947681102  17.8125 18.660111860795453  L 15.287420099431818 18.660111860795453  C 14.935868105798404 18.660111860795453  14.65087890625 18.94510106034386  14.65087890625 19.296653053977273  C 14.65087890625 19.648205047610688  14.935868105798404 19.933194247159093  15.287420099431818 19.933194247159093  L 17.812499999999996 19.933194247159093  C 18.991432681602994 19.931970906250783  19.946841289773506 18.976562298080275  19.94806463068182 17.797629616477273  L 19.94806463068182 15.2734375  C 19.948064630682126 14.921884887269988  19.663075431133727 14.636895687721584  19.311523437500306 14.636895687721584  Z M 19.947842684659093 2.178622159090909  C 19.94649752140869 0.9998266473001403  18.991295365615883 0.0445252084644335  17.8125 0.04305752840909091  L 15.287420099431818 0.04305752840909091  C 14.935868105798404 0.04305752840909091  14.65087890625 0.3280467279574941  14.65087890625 0.6795987215909092  C 14.65087890625 1.0311507152243244  14.935868105798404 1.3161399147727273  15.287420099431818 1.3161399147727273  L 17.812499999999996 1.3161399147727273  C 18.28845974069487 1.3167512960565313  18.67414891701165 1.702440472373312  18.674760298295453 2.1784002130681817  L 18.674760298295453 4.70303622159091  C 18.674760298295453 5.0545882152243236  18.95974949784386 5.339577414772728  19.311301491477273 5.339577414772728  C 19.662853485110688 5.339577414772728  19.947842684659093 5.0545882152243236  19.947842684659093 4.70303622159091  L 19.947842684659093 2.178622159090909  Z M 0.05681818181818182 4.703036221590908  C 0.0570632548429064 5.0545015331433945  0.342115945421225 5.339256155380222  0.6935813210227272 5.339133522727273  C 1.045133314656142 5.339133522727273  1.330122514204545 5.054144323178871  1.3301225142045456 4.702592329545455  L 1.330122514204545 2.178622159090909  C 1.3307338954883507 1.7026624183960397  1.7164230718051305 1.31697324207926  2.1923828125 1.3163618607954544  L 4.717684659090909 1.316361860795455  C 5.069236652724324 1.316361860795455  5.354225852272727 1.031372661247052  5.354225852272727 0.6798206676136364  C 5.354225852272727 0.3282686739802216  5.069236652724324 0.043279474431818586  4.717684659090909 0.043279474431818586  L 2.1926047585227266 0.04327947443181818  C 1.0137225742296865 0.044502356655368065  0.05828610292023245 0.9997402544490143  0.05681818181818182 2.178622159090909  L 0.05681818181818182 4.703036221590908  Z M 4.717684659090909 18.660111860795453  L 2.1926047585227266 18.660111860795453  C 1.716594386236972 18.659622515383532  1.3308338056391935 18.273861934785756  1.3303444602272727 17.7978515625  L 1.3303444602272732 15.2734375  C 1.3303444602272732 14.921885506366586  1.0453552606788699 14.636896306818182  0.6938032670454546 14.636896306818182  C 0.34225127341203976 14.636896306818182  0.05726207386363657 14.921885506366586  0.05726207386363657 15.2734375  L 0.05726207386363636 17.7978515625  C 0.05848541477194733 18.976784244103  1.013894022942454 19.93219285227351  2.1928267045454546 19.93341619318182  L 4.717684659090909 19.93341619318182  C 5.069236614783512 19.93341619318182  5.354225814331915 19.648426993633414  5.354225814331915 19.296875  C 5.354225814331915 18.945323006366582  5.069236614783512 18.66033380681818  4.717684621150099 18.66033380681818  Z M 9.384543678977273 10.346457741477275  C 9.206986860795457 10.082785866477275  8.937100497159093 9.86683238636364  8.575328480113637 9.700150923295453  C 8.331187855113637 9.589177911931818  7.900612571022727 9.464666193181818  7.259188565340909 9.319513494318182  C 6.475497159090909 9.141956676136363  6.238236860795454 9.005237926136363  6.1638849431818175 8.938654119318182  C 6.044699928977273 8.831898082386363  5.986328125 8.698952414772727  5.986328125 8.532270951704547  C 5.986328125 8.336736505681818  6.072887073863634 8.17227450284091  6.2506658380681825 8.02978515625  C 6.435990767045454 7.881303267045454  6.7473810369318175 7.806063565340909  7.176846590909091 7.806063565340909  C 7.587002840909091 7.806063565340909  7.896839488636363 7.889737215909091  8.097700639204547 8.054421164772727  C 8.298561789772727 8.219105113636365  8.411976207386365 8.459028764204547  8.447709517045453 8.790172230113637  L 8.463023792613637 8.93155184659091  L 9.48397549715909 8.854758522727273  L 9.47842684659091 8.713156960227273  C 9.468260677745768 8.360279484945806  9.360723988122011 8.017083821203705  9.167702414772727 7.7215021306818175  C 8.975053267045453 7.428089488636363  8.69717684659091 7.203480113636366  8.342063210227273 7.053666548295457  C 7.996049360795454 6.907848011363638  7.592995383522727 6.833718039772727  7.1435546875 6.833718039772727  C 6.734508167613637 6.833718039772727  6.356534090909091 6.904296875000001  6.0198419744318175 7.043235085227273  C 5.673384232954546 7.186390269886363  5.405051491477274 7.40079012784091  5.2228338068181825 7.6799982244318175  C 5.0443596447041195 7.947627220786391  4.949065635104523 8.262082007730925  4.948952414772727 8.583762428977273  C 4.946002887965015 8.86753341167859  5.024826663847608 9.146151958688813  5.176003196022728 9.38631924715909  C 5.325594815340909 9.623135653409093  5.553311434659092 9.82266512784091  5.852272727272727 9.979359019886365  C 6.0797674005681825 10.100097656250002  6.458407315340909 10.223499644886365  7.0099431818181825 10.355557528409092  C 7.535511363636363 10.481844815340914  7.877530184659091 10.575284090909092  8.027787642045453 10.633655894886365  C 8.24462890625 10.71621981534091  8.39932528409091 10.815873579545457  8.487881747159093 10.92973188920455  C 8.57393550220064 11.040538746016198  8.619093263712521 11.177658407273633  8.615722656249998 11.317915482954549  C 8.616075852428605 11.466530777099715  8.568003376385088 11.611215684737983  8.478781960227273 11.730069247159093  C 8.386452414772727 11.858132102272732  8.23974609375 11.961780894886369  8.042658025568182 12.038352272727275  C 7.835804332386363 12.118696732954549  7.591885653409091 12.159312855113642  7.318004261363637 12.159312855113642  C 7.009055397727273 12.159312855113642  6.728293678977273 12.105379971590915  6.48370916193182 11.99884588068182  C 6.246448863636366 11.895640980113642  6.070667613636363 11.761141690340914  5.961470170454547 11.599343039772732  C 5.85049715909091 11.433327414772732  5.776811079545457 11.214044744318185  5.74551669034091 10.947931463068185  L 5.728870738636366 10.806551846590914  L 4.723011363636365 10.89533025568182  L 4.726784446022728 11.033602627840914  C 4.73810369318182 11.448419744318185  4.853515625000002 11.825949928977277  5.0703568892045485 12.155983664772732  C 5.2871981534090935 12.486017400568185  5.591264204545458 12.738591974431824  5.972345525568183 12.902832031250004  C 6.344992897727274 13.06352095170455  6.80996981534091 13.144975142045459  7.353959517045457 13.144975142045459  C 7.788529829545457 13.144975142045459  8.18625710227273 13.063742897727277  8.536265980113637 12.903497869318185  C 8.89248934659091 12.74036754261364  9.170365767045457 12.507324218750002  9.362349076704547 12.210804332386367  C 9.54986692169387 11.92778090934734  9.650190002694218 11.595943026038494  9.650878906250002 11.256436434659093  C 9.650878906250002 10.915971235795457  9.562100497159093 10.610129616477275  9.384543678977273 10.346457741477275  Z M 15.280095880681818 13.043989701704547  L 15.280095880681818 6.932484019886363  L 14.248268821022727 6.932484019886363  L 14.248268821022727 11.163441051136365  L 11.417791193181818 6.932484019886363  L 10.40283203125 6.932484019886363  L 10.40283203125 13.043989701704549  L 11.434659090909092 13.043989701704549  L 11.434659090909092 8.80948153409091  L 14.26513671875 13.043989701704547  L 15.280095880681818 13.043989701704547  Z " fill-rule="nonzero" fill="#ffffff" stroke="none" transform="matrix(1 0 0 1 201 714 )" />
  </g>
</svg>