<?xml version="1.0" encoding="utf-8"?>
<svg version="1.1" xmlns:xlink="http://www.w3.org/1999/xlink" width="13px" height="12px" xmlns="http://www.w3.org/2000/svg">
  <defs>
    <mask fill="white" id="clip24">
      <path d="M 9.625131578947368 1.6520200000000003  C 11.310547368421052 2.7042600000000006  12.395978947368421 5.3634933333333334  12.395978947368421 6.666666666666667  C 12.395978947368421 7.969866666666667  11.310547368421052 9.295733333333335  9.625131578947368 10.347999999999999  C 7.96811052631579 11.382466666666666  4.594542105263157 12  3.1854105263157892 12  C 2.5029789473684216 12  2.0041894736842103 11.854999999999999  1.6295842105263159 11.6286  C 1.255047368421053 11.402266666666668  0.9581684210526311 11.066533333333332  0.7259473684210527 10.612133333333333  C 0.24665789473684216 9.674333333333333  0.08018947368421081 8.3092  0.08018947368421081 6.666666666666667  C 0.08018947368421081 5.0241266666666675  0.24665789473684216 2.325646666666667  0.7259473684210527 1.3878799999999998  C 0.9581684210526311 0.9334466666666668  1.255047368421053 0.59772  1.6295842105263159 0.3713933333333334  C 2.0041894736842103 0.14499333333333345  2.5029789473684216 0  3.1854105263157892 0  C 4.594542105263157 0  7.96811052631579 0.6175266666666666  9.625131578947368 1.6520200000000003  Z " fill-rule="evenodd" />
    </mask>
  </defs>
  <g transform="matrix(1 0 0 1 -138 -2369 )">
    <path d="M 9.625131578947368 1.6520200000000003  C 11.310547368421052 2.7042600000000006  12.395978947368421 5.3634933333333334  12.395978947368421 6.666666666666667  C 12.395978947368421 7.969866666666667  11.310547368421052 9.295733333333335  9.625131578947368 10.347999999999999  C 7.96811052631579 11.382466666666666  4.594542105263157 12  3.1854105263157892 12  C 2.5029789473684216 12  2.0041894736842103 11.854999999999999  1.6295842105263159 11.6286  C 1.255047368421053 11.402266666666668  0.9581684210526311 11.066533333333332  0.7259473684210527 10.612133333333333  C 0.24665789473684216 9.674333333333333  0.08018947368421081 8.3092  0.08018947368421081 6.666666666666667  C 0.08018947368421081 5.0241266666666675  0.24665789473684216 2.325646666666667  0.7259473684210527 1.3878799999999998  C 0.9581684210526311 0.9334466666666668  1.255047368421053 0.59772  1.6295842105263159 0.3713933333333334  C 2.0041894736842103 0.14499333333333345  2.5029789473684216 0  3.1854105263157892 0  C 4.594542105263157 0  7.96811052631579 0.6175266666666666  9.625131578947368 1.6520200000000003  Z " fill-rule="nonzero" fill="#ffffff" stroke="none" transform="matrix(1 0 0 1 138 2369 )" />
    <path d="M 9.625131578947368 1.6520200000000003  C 11.310547368421052 2.7042600000000006  12.395978947368421 5.3634933333333334  12.395978947368421 6.666666666666667  C 12.395978947368421 7.969866666666667  11.310547368421052 9.295733333333335  9.625131578947368 10.347999999999999  C 7.96811052631579 11.382466666666666  4.594542105263157 12  3.1854105263157892 12  C 2.5029789473684216 12  2.0041894736842103 11.854999999999999  1.6295842105263159 11.6286  C 1.255047368421053 11.402266666666668  0.9581684210526311 11.066533333333332  0.7259473684210527 10.612133333333333  C 0.24665789473684216 9.674333333333333  0.08018947368421081 8.3092  0.08018947368421081 6.666666666666667  C 0.08018947368421081 5.0241266666666675  0.24665789473684216 2.325646666666667  0.7259473684210527 1.3878799999999998  C 0.9581684210526311 0.9334466666666668  1.255047368421053 0.59772  1.6295842105263159 0.3713933333333334  C 2.0041894736842103 0.14499333333333345  2.5029789473684216 0  3.1854105263157892 0  C 4.594542105263157 0  7.96811052631579 0.6175266666666666  9.625131578947368 1.6520200000000003  Z " stroke-width="4" stroke="#ffffff" fill="none" transform="matrix(1 0 0 1 138 2369 )" mask="url(#clip24)" />
  </g>
</svg>