<?xml version="1.0" encoding="utf-8"?>
<svg version="1.1" xmlns:xlink="http://www.w3.org/1999/xlink" width="20px" height="22px" xmlns="http://www.w3.org/2000/svg">
  <g transform="matrix(1 0 0 1 -130 -2578 )">
    <path d="M 0 9.742873684210528  C 0 20.114310526315787  0 22  10 22  C 20 22  20 20.114310526315787  20 9.742873684210528  C 20 5.342873684210526  12.5 0  10 0  C 7.5 0  0 5.657126315789474  0 9.742873684210528  Z M 9.411764705882353 14.93053157894737  C 9.411764705882353 14.291026315789473  9.938470588235294 13.772636842105264  10.588235294117647 13.772636842105264  C 11.238000000000001 13.772636842105264  11.764705882352942 14.291026315789473  11.764705882352942 14.93053157894737  L 11.764705882352942 18.40421578947368  C 11.764705882352942 19.043663157894738  11.238000000000001 19.562110526315788  10.588235294117647 19.562110526315788  C 9.938470588235294 19.562110526315788  9.411764705882353 19.043663157894738  9.411764705882353 18.40421578947368  L 9.411764705882353 14.93053157894737  Z " fill-rule="nonzero" fill="#ffffff" stroke="none" transform="matrix(1 0 0 1 130 2578 )" />
  </g>
</svg>