<?xml version="1.0" encoding="utf-8"?>
<svg version="1.1" xmlns:xlink="http://www.w3.org/1999/xlink" width="395px" height="695px" xmlns="http://www.w3.org/2000/svg">
  <defs>
    <filter x="92px" y="897px" width="395px" height="695px" filterUnits="userSpaceOnUse" id="filter19">
      <feOffset dx="0" dy="0" in="SourceAlpha" result="shadowOffsetInner" />
      <feGaussianBlur stdDeviation="5" in="shadowOffsetInner" result="shadowGaussian" />
      <feComposite in2="shadowGaussian" operator="atop" in="SourceAlpha" result="shadowComposite" />
      <feColorMatrix type="matrix" values="0 0 0 0 0  0 0 0 0 0  0 0 0 0 0  0 0 0 0.34901960784313724 0  " in="shadowComposite" />
    </filter>
    <g id="widget20">
      <path d="M 103.5 910  A 1.5 1.5 0 0 1 105 908.5 L 474 908.5  A 1.5 1.5 0 0 1 475.5 910 L 475.5 1579  A 1.5 1.5 0 0 1 474 1580.5 L 105 1580.5  A 1.5 1.5 0 0 1 103.5 1579 L 103.5 910  Z " fill-rule="nonzero" fill="#ffffff" stroke="none" fill-opacity="0.996078431372549" />
      <path d="M 103 910  A 2 2 0 0 1 105 908 L 474 908  A 2 2 0 0 1 476 910 L 476 1579  A 2 2 0 0 1 474 1581 L 105 1581  A 2 2 0 0 1 103 1579 L 103 910  Z " stroke-width="2" stroke="#000000" fill="none" />
    </g>
  </defs>
  <g transform="matrix(1 0 0 1 -92 -897 )">
    <use xlink:href="#widget20" filter="url(#filter19)" />
    <use xlink:href="#widget20" />
  </g>
</svg>