<?xml version="1.0" encoding="utf-8"?>
<svg version="1.1" xmlns:xlink="http://www.w3.org/1999/xlink" width="20px" height="20px" xmlns="http://www.w3.org/2000/svg">
  <g transform="matrix(1 0 0 1 -437 -947 )">
    <path d="M 447 947  C 452.6 947  457 951.4  457 957  C 457 962.6  452.6 967  447 967  C 441.4 967  437 962.6  437 957  C 437 951.4  441.4 947  447 947  Z " fill-rule="nonzero" fill="#ffffff" stroke="none" fill-opacity="0" />
    <path d="M 447 947.5  C 452.32 947.5  456.5 951.68  456.5 957  C 456.5 962.32  452.32 966.5  447 966.5  C 441.68 966.5  437.5 962.32  437.5 957  C 437.5 951.68  441.68 947.5  447 947.5  Z " stroke-width="1" stroke="#000000" fill="none" />
  </g>
</svg>