<?xml version="1.0" encoding="utf-8"?>
<svg version="1.1" xmlns:xlink="http://www.w3.org/1999/xlink" width="19px" height="17px" xmlns="http://www.w3.org/2000/svg">
  <g transform="matrix(1 0 0 1 -157 -1390 )">
    <path d="M 5.4888888888888925 15.331272989962747  C 5.024820997836729 16.304687066144233  4.0108101234773255 16.927836714965792  2.8956104226948307 16.924944819691635  C 2.77186949192725 16.925072262943676  2.648248407681072 16.91755118459176  2.5255144109278556 16.902428263400253  C 1.1299868915002111 16.739474573629845  0.07578835166934074 15.609864435887612  0.05994513286072554 14.260485643884518  L 0.05994513286072554 9.469462842766973  C 0.05994513286072554 8.456217809654387  0.6880658359857257 7.4679911773075345  1.7514403368537814 6.8125092003828644  L 3.0233196108217597 3.3424576870343543  C 3.031653948166178 3.306889322539674  3.0420961712194448 3.271806525089464  3.054595346257717 3.23738041701159  C 3.063832029076974 3.185866030152191  3.0814207510161236 3.1360591045281585  3.106721533805941 3.0897719008692053  L 3.127572008825231 3.0497424552462737  C 3.544581623746142 2.254157473613411  4.2769547248746145 0.9131714520384937  6.166529487364968 0.9131714520384937  L 10.357475997058259 0.9131714520384937  C 10.645318378354728 0.913229374151717  10.878628737115378 1.1372347551204671  10.878628737115378 1.4135393684033533  C 10.878628737115378 1.689843981686241  10.645318378354728 1.9138493626549895  10.357475997058257 1.9139072847682128  L 6.166529487364968 1.9139072847682128  C 4.920713295717591 1.9139072847682128  4.438545940634644 2.7770419352752493  4.055418376253858 3.480058869257037  L 4.037174216338734 3.537601182222683  C 4.032616792475542 3.56480972615044  4.025641165304257 3.5915938077205296  4.016323741319444 3.6176600514797204  L 2.6740740740740736 7.310375283267799  C 2.6334103319797384 7.421661938029608  2.5531037349677472 7.515584772982543  2.4473250952449845 7.575570269815812  C 2.131961586130401 7.755702720146937  1.102469135802469 8.421192052980134  1.102469135802469 9.469462842766973  L 1.102469135802469 14.260485643884518  C 1.1179701331705652 15.109221935993064  1.7874024298243005 15.815009843750703  2.666255151668596 15.909197942104722  C 3.542196836225422 16.02620089253852  4.375922630329704 15.511793715877912  4.628806576726466 14.698307569329474  C 4.690778709753403 14.481842031417914  4.895355173951461 14.331491440265836  5.129218114631557 14.330537157233032  L 13.91769546561535 14.295511400558777  C 14.154539775361247 14.297679187293344  14.360088278423609 14.45285478445984  14.418107003520447 14.673289190552566  C 14.64509488443856 15.509086111754407  15.490102090580478 16.0476891917936  16.380658428578318 15.924208986961919  C 17.264049464512357 15.83861714617337  17.938283837664407 15.127766370159181  17.944444444444443 14.27549668874172  L 17.944444444444443 9.469462842766973  C 17.944444444444443 8.433701253362996  16.935802469135798 7.755702720146937  16.6282578824267 7.57056660285596  C 16.529147621709072 7.512612465667962  16.453018822133192 7.4245675440669245  16.411934164014273 7.320382639176323  L 15.272976685474536 4.215599715438742  C 15.25366727010769 4.162521003967813  15.243805800605402 4.106700283410933  15.243805800605402 4.050478298970408  C 15.243805800605402 3.773866873385301  15.477407266446333 3.549629007604218  15.76556927806713 3.549629007604218  C 15.987424929163288 3.549629007604218  16.185019869678598 3.684300398257137  16.258161870659723 3.88535688250207  L 17.32674897882909 6.817512867342714  C 18.369272981770838 7.490507711610099  18.979149524980713 8.471228832522764  18.979149524980713 9.466960998292633  L 18.979149524980713 14.260485643884518  C 18.978430413754047 15.615465281296839  17.91656435271451 16.753291432779765  16.513580246913584 16.902428263400243  C 15.262891802918352 17.059776136821753  14.05389492834124 16.406656301488493  13.544993138744216 15.29874907776283  L 5.4888888888888925 15.331272989962747  Z M 15.640466382137344 2.7695364238410605  L 15.640466382137344 2.7720382683153972  C 15.410481013671545 2.771259088440212  15.208205993517678 2.6258879082754776  15.142661182243437 2.4142752121274818  C 15.100840330489367 2.285542111011755  15.044926905333032 2.1614251206958746  14.975857336275077 2.044002933567881  C 14.505943258728955 1.2474753761803412  13.508681286238373 0.8890194943624179  12.609327848910109 1.1933774834437088  C 12.558617252985867 1.2087249024894318  12.505758919202762 1.2165341438350976  12.452587593347468 1.2165341438350976  C 12.16470253294323 1.2165341438350976  11.931325580423087 0.9925117920607938  11.931325580423087 0.7161662164758262  C 11.931325580423087 0.510172435824286  12.062840224017943 0.3252287774462544  12.262688604359568 0.2501839636796357  C 12.584115486712436 0.14144849445223884  12.922444092302172 0.08589630586689768  13.26324709897221 0.08589630586689768  C 14.582093613218758 0.08589630586689768  15.74737548399559 0.9099611498137585  16.13827160493827 2.1190581358650666  C 16.154184922564262 2.167630889079104  16.16228143602487 2.2182506885711986  16.16228143602487 2.269168778100846  C 16.16228143602487 2.5455143536858142  15.928904483504727 2.769536705460117  15.641019423100484 2.769536705460117  Z " fill-rule="nonzero" fill="#ffffff" stroke="none" transform="matrix(1 0 0 1 157 1390 )" />
  </g>
</svg>