<?xml version="1.0" encoding="utf-8"?>
<svg version="1.1" xmlns:xlink="http://www.w3.org/1999/xlink" width="7px" height="4px" xmlns="http://www.w3.org/2000/svg">
  <g transform="matrix(1 0 0 1 -168 -1389 )">
    <path d="M 6.406779661016949 3.9375375422297294  L 6.409416201006357 3.935135135135135  C 6.178209096578831 3.9350303683867383  5.974044111729807 3.7976959965972683  5.90583803628178 3.596396389358107  C 5.821666683901413 3.3509297176502075  5.709437911298353 3.1141960392582853  5.570998106461864 2.8900900971283785  C 4.623851400502562 1.366329802318652  2.6144483128349787 0.6800986414559955  0.8015065810381325 1.2612612542229726  C 0.7402911301111726 1.2830815285533743  0.6751379323534599 1.2942802828662914  0.6094052773704133 1.2942802828662914  C 0.3181816747848592 1.2942802828662914  0.08209829908651503 1.07916184014502  0.08209829908651503 0.8137997930014257  C 0.08209829908651503 0.6040944388141601  0.23135553788632437 0.4186126055865039  0.45084745762712 0.3555555532094597  C 0.987969320416172 0.18219334139356602  1.5536151419368822 0.09360569550961954  2.123437816896528 0.09360569550961954  C 4.321372506228966 0.09360569550961954  6.262587872172132 1.3991150093867881  6.910357825741522 3.3129129222972966  C 6.92645568674765 3.359555120932074  6.934646093763115 3.408163004705098  6.934646093763115 3.4570573227907944  C 6.934646093763115 3.722419369934388  6.698562718064777 3.937537812655659  6.407339115479219 3.937537812655659  Z " fill-rule="nonzero" fill="#ffffff" stroke="none" transform="matrix(1 0 0 1 168 1389 )" />
  </g>
</svg>