<?xml version="1.0" encoding="utf-8"?>
<svg version="1.1" xmlns:xlink="http://www.w3.org/1999/xlink" width="9px" height="5px" xmlns="http://www.w3.org/2000/svg">
  <g transform="matrix(1 0 0 1 -168 -1387 )">
    <path d="M 8.99819196217269 4.527189690626803  C 8.99819196217269 4.787666474865045  8.769694848781022 4.9990816438538115  8.48717947716346 5  C 8.262324224590412 4.999896895953384  8.063768179646683 4.864754031875435  7.997435899939907 4.666666659740692  C 7.877249344572405 4.310803533798364  7.716523949431053 3.9676764388144936  7.5179487079326925 3.6430260139627664  C 6.162461740952289 1.4351625021282328  3.28641212108226 0.4394144880035692  0.6897435847355765 1.2789598154920205  C 0.6398542482429488 1.2934620477917504  0.5878519599725087 1.3008412317871612  0.5355417490511599 1.3008412317871612  C 0.25231879488828596 1.3008412317871612  0.022721226214619934 1.0891555301731444  0.022721226214619934 0.8280279837818421  C 0.022721226214619934 0.6333780746997388  0.15210603365481692 0.4586190714517161  0.34871795372596204 0.38770686502659524  C 3.415906949507482 -0.6039882617258847  6.8129178007238185 0.5744948985075303  8.410256407752403 3.1843971700465423  C 8.644850399389295 3.5675126113908666  8.834797652015943 3.9724481346337885  8.976923076923079 4.392434985871011  C 8.991028052154872 4.436171686458712  8.99819196217269 4.481560552307507  8.99819196217269 4.527189690626803  Z " fill-rule="nonzero" fill="#ffffff" stroke="none" transform="matrix(1 0 0 1 168 1387 )" />
  </g>
</svg>