<?xml version="1.0" encoding="utf-8"?>
<svg version="1.1" xmlns:xlink="http://www.w3.org/1999/xlink" width="25px" height="30px" xmlns="http://www.w3.org/2000/svg">
  <g transform="matrix(1 0 0 1 -369 -1529 )">
    <path d="M 19.999999999999563 8.287292817679559  C 19.999999999999563 12.843646408839781  16.665833333333087 16.574585635359117  12.5 16.574585635359117  C 8.33416666666691 16.574585635359117  5.00000000000044 12.843646408839781  5.00000000000044 8.287292817679559  C 5.00000000000044 3.7309392265193377  8.334166666666912 0  12.5 0  C 16.665833333333087 0  19.999999999999563 3.7309392265193377  19.999999999999563 8.287292817679559  Z M 6.666666666667006 8.287292817679559  C 6.666666666667006 11.969337016574583  9.301666666666854 14.917127071823204  12.5 14.917127071823204  C 15.698333333333148 14.917127071823204  18.333333333332995 11.969337016574583  18.333333333332995 8.287292817679559  C 18.333333333332995 4.605248618784532  15.698333333333148 1.6574585635359111  12.5 1.6574585635359111  C 9.30166666666685 1.6574585635359111  6.666666666667006 4.60524861878453  6.666666666667006 8.287292817679559  Z M 5.839166666667057 29.834254143646408  C 2.615833333333911 29.834254143646408  0 27.233701657458564  0 24.03314917127072  C 0 20.829284462306827  2.6116722926535525 18.23204129834182  5.833333333332991 18.23204129834182  C 5.835277778143593 18.23204129834182  5.837222222828677 18.23204226519301  5.8391666666670545 18  L 19.160833333332942 18  C 22.38416666666609 18.23204419889503  24.99999999999927 20.832596685082873  24.99999999999927 24.03314917127072  C 25 27.23701388023461  22.388327707346445 29.834257044199617  19.166666666667005 29.834257044199617  C 19.16472222185813 29.834257044199617  19.162777777169595 29.834256077348428  19.160833333332945 29.834254143646408  L 5.839166666667057 29.834254143646408  Z M 1.6666666666672996 24.03314917127072  C 1.6666666666672996 26.317955801104972  3.536666666667189 28.1767955801105  5.8391666666670545 28  L 19.160833333332942 28  C 19.16277777658716 28.176798287293813  19.1647222215085 28.17679964088597  19.166666666668277 28.17679964088597  C 21.467853124296447 28.17679964088597  23.3333333333347 26.321625952339534  23.3333333333347 24.03315323204619  C 23.3333333333327 21.748342541436465  21.463333333332805 19.88950276243094  19.160833333332942 19.88950276243094  L 5.839166666667057 19.88950276243094  C 5.837222223412843 19.88950005524762  5.835277778491496 19.889498701655466  5.833333333331724 19.889498701655466  C 3.5321468757035506 19.889498701655466  1.6666666666652994 21.744672390201902  1.6666666666652994 24.033145110495244  Z " fill-rule="nonzero" fill="#7f7f7f" stroke="none" transform="matrix(1 0 0 1 369 1529 )" />
  </g>
</svg>