<?xml version="1.0" encoding="utf-8"?>
<svg version="1.1" xmlns:xlink="http://www.w3.org/1999/xlink" width="14px" height="14px" xmlns="http://www.w3.org/2000/svg">
  <g transform="matrix(1 0 0 1 -788 -1105 )">
    <path d="M 4.149644738525778 12.780738403522637  C 4.149644738525778 12.780738403522637  4.120910080704 12.751834718301906  4.092175422882222 12.751834702495202  L 1.276178296348677 12.751834702495202  L 1.276178296348677 9.890369201761319  C 1.276178296348677 9.861465516540589  1.2474436385268992 9.861465516540589  1.218708964990852 9.861465500733884  L 0.06932238497715805 9.861465500733884  C 0.04058772715538036 9.861465500733884  0.01185305361933306 9.890369185954613  0.01185305361933306 9.890369201761319  L 0.01185305361933306 13.358812234390877  C 0.01185305361933306 13.705656536073162  0.29919969469418894 13.965789766286553  0.6440156671268702 13.965789766286553  L 4.092175422882222 13.965789766286553  C 4.120910080704 13.965789766286553  4.149644754240048 13.936886081065824  4.149644738525778 13.936886081065824  L 4.149644738525778 12.780738403522637  Z M 13.91943069221358 0.6411877656091229  C 13.91943069221358 0.3232471491475668  13.632084051138726 0.03421023371344717  13.287268078706042 0.03421023371344702  L 9.83910832295069 0.03421023371344702  C 9.81037366512891 0.03421023371344702  9.781638991592864 0.06311391893417634  9.781638991592864 0.06311391893417634  L 9.781638991592864 1.2192615964773625  C 9.781638991592864 1.2481652816980917  9.810373649414643 1.2481652816980917  9.83910832295069 1.2481652975047985  L 12.655105449484235 1.2481652975047985  L 12.655105449484235 4.109630798238681  C 12.655105449484235 4.13853448345941  12.683840107306013 4.13853448345941  12.71257478084206 4.138534499266118  L 13.861961360855755 4.138534499266118  C 13.890696018677533 4.138534499266118  13.91943069221358 4.109630814045388  13.91943069221358 4.109630798238681  L 13.91943069221358 0.6411877656091229  Z M 13.919430692213577 9.890369201761319  C 13.919430692213577 9.890369201761319  13.890696034391798 9.861465516540589  13.861961360855755 9.861465500733885  L 12.71257478084206 9.861465500733885  C 12.683840123020282 9.861465500733885  12.655105449484235 9.890369185954613  12.655105449484235 9.89036920176132  L 12.655105449484235 12.751834702495202  L 9.83910832295069 12.751834702495202  C 9.81037366512891 12.751834702495202  9.781638991592864 12.780738387715932  9.781638991592864 12.780738403522639  L 9.781638991592864 13.936886081065825  C 9.781638991592864 13.965789766286555  9.810373649414643 13.965789766286555  9.83910832295069 13.965789766286555  L 13.287268078706042 13.965789766286555  C 13.632084051138722 13.965789766286555  13.919430692213577 13.676752850852434  13.919430692213577 13.358812234390879  L 13.919430692213577 9.890369201761319  Z M 0.01185305361933306 4.138534499266118  C 0.040587711441110744 4.138534499266118  0.040587711441110744 4.167438184486848  0.06932238497715805 4.167438184486848  L 1.218708964990852 4.167438184486848  C 1.2474436228126302 4.167438184486848  1.276178296348677 4.138534499266118  1.276178296348677 4.138534499266118  L 1.276178296348677 1.2770689827255277  L 4.092175422882222 1.2770689827255277  C 4.120910080704 1.2770689827255277  4.149644754240048 1.2481652975047985  4.149644738525778 1.2481652975047985  L 4.149644738525778 0.09201761996161215  C 4.149644738525778 0.06311393474088284  4.120910080704 0.06311393474088284  4.092175422882222 0.06311391893417634  L 0.6440156671268704 0.06311391893417634  C 0.2991996946941892 0.06311391893417649  0.01185305361933306 0.3521508343682964  0.01185305361933306 0.6700914508298523  L 0.01185305361933306 4.138534499266118  Z M 6.304744593730006 3.531556967370442  C 6.304744593730006 3.5026532821497116  6.276009935908229 3.5026532821497116  6.2760099201939585 3.502653266343006  L 4.638134047210157 3.502653266343006  C 4.609399389388378 3.502653266343006  4.609399389388378 3.502653266343006  4.609399373674108 3.531556967370442  L 2.3968302028263238 10.497346733656995  L 2.3968302028263238 10.526250418877725  L 2.425564876362371 10.55515411990516  L 3.833563439629144 10.55515411990516  C 3.862298097450922 10.55515411990516  3.862298097450922 10.55515411990516  3.862298097450922 10.526250418877725  L 4.350787390421031 8.763125209438861  L 6.50588724562526 8.763125209438861  L 6.99437653859537 10.526250418877725  C 6.99437653859537 10.555154104098454  7.0231111964171475 10.555154104098454  7.0231111964171475 10.55515411990516  L 8.488579091041746 10.55515411990516  C 8.488579091041746 10.55515411990516  8.517313748863522 10.55515411990516  8.517313764577793 10.526250418877725  L 8.517313764577793 10.497346733656995  L 6.304744593730006 3.531556967370442  Z M 4.8680113569271874 6.884385227503669  C 5.040419351000663 6.190696624139099  5.2415620028959165 5.410296933498928  5.4139699812551205 4.687704644913628  C 5.500173970434724 4.976741560347747  5.557643301792549 5.265778491588574  5.643847306686422 5.554815407022693  C 5.758785969402071 5.988370780173874  5.873724616403454 6.45082985435249  5.988663279119103 6.884385227503669  L 6.189805931014357 7.578073846674947  L 4.666868705031935 7.578073846674947  L 4.8680113569271874 6.884385227503669  Z M 10.672413604067751 10.526250418877725  C 10.701148261889529 10.526250418877725  10.729882935425575 10.526250418877725  10.729882935425575 10.497346733656995  L 10.729882935425575 3.531556967370442  C 10.729882935425575 3.5026532821497116  10.701148277603798 3.5026532821497116  10.672413604067751 3.502653266343006  L 9.293149698622756 3.502653266343006  C 9.264415040800978 3.502653266343006  9.235680367264932 3.5315569515637346  9.235680367264932 3.531556967370442  L 9.235680367264932 10.497346733656995  C 9.235680367264932 10.526250418877725  9.264415025086707 10.526250418877725  9.293149698622756 10.526250418877725  L 10.672413604067751 10.526250418877725  Z " fill-rule="nonzero" fill="#faa900" stroke="none" transform="matrix(1 0 0 1 788 1105 )" />
  </g>
</svg>