<?xml version="1.0" encoding="utf-8"?>
<svg version="1.1" xmlns:xlink="http://www.w3.org/1999/xlink" width="70px" height="70px" xmlns="http://www.w3.org/2000/svg">
  <g transform="matrix(1 0 0 1 -948 -989 )">
    <path d="M 983 991  C 1001.48 991  1016 1005.52  1016 1024  C 1016 1042.48  1001.48 1057  983 1057  C 964.52 1057  950 1042.48  950 1024  C 950 1005.52  964.52 991  983 991  Z " fill-rule="nonzero" fill="#ffffff" stroke="none" />
    <path d="M 983 990.5  C 1001.76 990.5  1016.5 1005.24  1016.5 1024  C 1016.5 1042.76  1001.76 1057.5  983 1057.5  C 964.24 1057.5  949.5 1042.76  949.5 1024  C 949.5 1005.24  964.24 990.5  983 990.5  Z " stroke-width="3" stroke="#797979" fill="none" />
  </g>
</svg>