<?xml version="1.0" encoding="utf-8"?>
<svg version="1.1" xmlns:xlink="http://www.w3.org/1999/xlink" width="15px" height="15px" xmlns="http://www.w3.org/2000/svg">
  <g transform="matrix(1 0 0 1 -948 -1134 )">
    <path d="M 14.250000036621087 8.05538085937504  L 14.250000036621087 12.373125000000014  C 14.250412760172054 13.40913322086427  13.411008193482589 14.249377233147953  12.37500012817382 14.250000000000004  L 2.6250006042480165 14.250000000000004  C 1.5894667488784557 14.250000000000004  0.750000695800747 13.410533905932747  0.750000695800747 12.375000000000014  L 0.750000695800747 2.625000000000071  C 0.750000695800747 1.5888720703125765  1.5877447955202733 0.7500000000000813  2.623125604339569 0.7500000000000813  L 5.58675338931868 0.7500000000000813  C 5.793860152490059 0.7500000000000815  5.9617533631056014 0.5821067811866297  5.9617533631056014 0.3750000000000834  C 5.9617533631056014 0.16789321881353708  5.793860152490059 0  5.586753381416147 0  L 2.623125604339569 0  C 1.1744130705559854 0  0 1.1744130656000933  0 2.623124999999985  C 0 2.623750000059912  0 2.6243750000998105  0 2.625000000000071  L 0 12.375000000000014  C 0 13.824747468305839  1.1752532067306314 15  2.625000604248016 15  L 12.37500012817382 15  C 13.824375057403557 15  14.999999999999995 13.823994140625008  14.999999999999995 12.373125000000014  L 15 8.05538085937504  C 15 7.848274078188493  14.83210678938446 7.680380859375039  14.625000018310544 7.680380859375039  C 14.417893247236632 7.680380859375039  14.250000036621092 7.848274078188491  14.250000036621092 8.05538085937504  Z " fill-rule="nonzero" fill="#000000" stroke="none" transform="matrix(1 0 0 1 948 1134 )" />
  </g>
</svg>