<?xml version="1.0" encoding="utf-8"?>
<svg version="1.1" xmlns:xlink="http://www.w3.org/1999/xlink" width="15px" height="15px" xmlns="http://www.w3.org/2000/svg">
  <g transform="matrix(1 0 0 1 -948 -1092 )">
    <path d="M 14.442670715332032 13.520645263671872  C 14.446162653142755 13.525619185014206  14.449620549982242 13.530615789240056  14.453027327104047 13.53561239346591  C 14.48947988059304 13.403088600852275  14.509409562544388 13.259981090198862  14.509409562544388 13.110741366299719  L 14.50940954589844 1.889258633700284  C 14.50940954589844 1.2032464710582382  14.092743180708453 0.6491675914417608  13.578745089444247 0.6491675914417608  L 1.421237881747159 0.6491675914417608  C 0.9101185080788353 0.6491675914417608  0.49057342529296866 1.2043820578835223  0.49057342529296866 1.889258633700284  L 0.49057342529296866 13.110718661221593  C 0.49057342529296866 13.566500554865057  0.6745055320046164 13.96404918323864  0.9487003118341619 14.179562167080968  C 0.9812861772017045 14.12291874556108  1.0218609341708098 14.063958718039773  1.0706290116743609 14.003318026455966  L 3.778798561789772 10.636101007634943  C 4.155111611106179 10.168213689630681  4.742082957874644 10.191970303622158  5.094889210094106 10.696401034268465  L 5.238485029740767 10.901716375177553  L 3.2031206776012073 13.432432350852272  C 2.969211081764915 13.723280606356536  2.9235431795987217 13.97547325550426  3.0463406150124293 14.12032958984375  C 3.0744636008522725 14.075450927734375  3.1074582741477275 14.029232266512786  3.1454609153053985 13.981991566051134  L 8.680679626464844 7.099771351207385  C 9.056243175159802 6.632815229936079  9.644117331764914 6.659524391867897  9.994181113503197 7.160071377840909  L 14.442670715332032 13.520645263671872  Z M 0 13.071813232421876  L 0 1.9281867897727272  C 0.07825068803267039 0.9064931418678978  0.6971606056906962 0.07825923295454568  1.4680129727450284 0  L 13.531952952991833 0  C 14.299500732421876 0.07825921075994315  14.921715237704191 0.9081056685014205  15 1.928186767578124  L 15 13.071813210227269  C 14.921715237704191 14.093484153053977  14.302805320046167 14.921740767045451  13.531952952991833 15  L 1.4680129893909801 15  C 0.7004652099609378 14.921740789240058  0.07825070467862213 14.09189433149858  0 13.071813232421876  Z M 2.552169966264205 3.7891296164772728  C 2.552169966264205 4.577390625  3.0136695723100146 5.216389204545454  3.5829597223455254 5.216389204545454  C 4.152249872381038 5.216389204545454  4.613749478426846 4.577390625  4.613749478426846 3.7891296164772728  C 4.613749478426846 3.0008686079545455  4.152249872381038 2.3618700284090917  3.5829597223455254 2.3618700284090917  C 3.013669572310014 2.3618700284090917  2.552169966264205 3.000868607954546  2.552169966264205 3.7891296164772728  Z " fill-rule="nonzero" fill="#272636" stroke="none" transform="matrix(1 0 0 1 948 1092 )" />
  </g>
</svg>