<?xml version="1.0" encoding="utf-8"?>
<svg version="1.1" xmlns:xlink="http://www.w3.org/1999/xlink" width="8px" height="14px" xmlns="http://www.w3.org/2000/svg">
  <g transform="matrix(1 0 0 1 -1272 -1092 )">
    <path d="M 7.862542955326461 0.8292446962891304  C 7.95418098510882 0.9213829958768045  8 1.0273420404026368  8 1.1471218298666273  C 8 1.2669016193306177  7.95418098510882 1.37286066385645  7.862542955326461 1.4649989634441312  L 2.460481099656363 6.896551724137922  L 7.862542955326461 12.328104484831712  C 7.95418098510882 12.4202427844194  8 12.526201828945247  8 12.645981618409223  C 8 12.765761407873214  7.95418098510882 12.871720452399046  7.862542955326461 12.96385875198672  L 7.175257731958766 13.654895998894318  C 7.0836197021764065 13.74703429848202  6.978235967926707 13.793103448275843  6.85910652920964 13.793103448275843  C 6.739977090492545 13.793103448275843  6.634593356242846 13.74703429848202  6.542955326460486 13.654895998894318  L 0.13745704467353903 7.214428857715433  C 0.04581901489117968 7.1222905581277445  0 7.016331513601912  0 6.896551724137922  C 0 6.776771934673931  0.04581901489117968 6.670812890148099  0.13745704467353903 6.578674590560425  L 6.542955326460486 0.1382074493815182  C 6.634593356242846 0.04606914979383703  6.739977090492545 0  6.85910652920964 0  C 6.978235967926707 0  7.0836197021764065 0.04606914979383703  7.175257731958766 0.1382074493815182  L 7.862542955326461 0.8292446962891304  Z " fill-rule="nonzero" fill="#666666" stroke="none" transform="matrix(1 0 0 1 1272 1092 )" />
  </g>
</svg>