<?xml version="1.0" encoding="utf-8"?>
<svg version="1.1" xmlns:xlink="http://www.w3.org/1999/xlink" width="40px" height="40px" xmlns="http://www.w3.org/2000/svg">
  <g transform="matrix(1 0 0 1 -777 -2756 )">
    <path d="M 40 20  L 36.36363636363636 20  C 36.36363636363636 25.418121212121214  34.80672727272727 29.45066666666667  32.128727272727275 32.128727272727275  C 29.45066666666667 34.80672727272727  25.418121212121214 36.36363636363636  20 36.36363636363636  L 20 40  C 26.11109090909091 40  31.169454545454546 38.23054545454546  34.7 34.7  C 38.23054545454546 31.169454545454546  40 26.11109090909091  40 20  Z M 20 40  L 20 36.36363636363636  C 14.581878787878786 36.36363636363636  10.549333333333337 34.80672727272727  7.8712727272727285 32.128727272727275  C 5.193248484848486 29.45066666666667  3.6363636363636376 25.418121212121214  3.6363636363636376 20  L 0 20  C 0 26.11109090909091  1.769436363636365 31.169454545454546  5.300000000000001 34.7  C 8.830545454545454 38.23054545454546  13.88890909090909 40  20 40  Z M 0 20  L 3.6363636363636376 20  C 3.6363636363636376 14.581878787878786  5.193248484848486 10.549333333333337  7.8712727272727285 7.8712727272727285  C 10.549333333333337 5.193248484848486  14.581878787878786 3.6363636363636376  20 3.6363636363636376  L 20 0  C 13.88890909090909 0  8.830545454545454 1.769436363636365  5.300000000000001 5.300000000000001  C 1.769436363636365 8.830545454545454  0 13.88890909090909  0 20  Z M 20 0  L 20 3.6363636363636376  C 25.418121212121214 3.6363636363636376  29.45066666666667 5.193248484848486  32.128727272727275 7.8712727272727285  C 34.80672727272727 10.549333333333337  36.36363636363636 14.581878787878786  36.36363636363636 20  L 40 20  C 40 13.88890909090909  38.23054545454546 8.830545454545454  34.7 5.300000000000001  C 31.169454545454546 1.769436363636365  26.11109090909091 0  20 0  Z " fill-rule="nonzero" fill="#ffffff" stroke="none" transform="matrix(1 0 0 1 777 2756 )" />
  </g>
</svg>