<?xml version="1.0" encoding="utf-8"?>
<svg version="1.1" xmlns:xlink="http://www.w3.org/1999/xlink" width="20px" height="22px" xmlns="http://www.w3.org/2000/svg">
  <g transform="matrix(1 0 0 1 -131 -2744 )">
    <path d="M 19.916601203304598 7.041109759391624  L 18.094421291307473 7.750138565907581  C 17.396916352370692 5.918352778008645  16.107761696300283 4.313557320063166  14.312386426903736 3.27229674409907  C 12.607772000718393 2.2562931308178196  10.709901243714079 1.9039598944481388  8.894976360452585 2.125522082779256  L 8.581306079382184 0.16643531624002725  C 10.82493478358477 -0.12566789187167496  13.176901939655172 0.30023024434840473  15.286604840158047 1.5402994327626336  C 17.48709291936063 2.8337329517121015  19.071902029454023 4.802511045545214  19.916601203304598 7.041109759391624  Z M 2.7166894531249994 6.7157189349235376  C 5.010592088721265 2.649473695146276  10.117740256824712 1.2562764752327127  14.111753322557473 3.606164388713431  C 18.10576638829023 5.951590820312501  19.474239426185346 11.15107753075133  17.189977729885058 15.217322747672872  C 14.862331941451153 19.283592763048535  9.755183773347703 20.676789982962102  5.761170685165231 18.329132810422205  C 1.7671576194324712 15.981475637882312  0.39870893947557473 10.781988927443484  2.7166894531249994 6.7157189349235376  Z M 13.137948792205464 5.320811467337102  C 10.075476068606324 3.52070219622673  6.159515400502876 4.58895473528923  4.391407327586207 7.706812603889627  C 2.6232749191810347 10.824670472490025  3.6725511853448274 14.81147650432181  6.735023908943965 16.61156097697806  C 9.797496632543103 18.41164544963431  13.713481658584774 17.34339291057181  15.481589709051725 14.225535064827131  C 17.24969775951868 11.10767721908245  16.200421493354888 7.120895962849072  13.137948792205464 5.320811467337102  Z M 1.8442361709770112 14.441371690076464  C 2.5657459815014367 16.18070564120678  3.817067416487068 17.70454996259973  5.544250314295978 18.719760436751994  C 7.388097903196838 19.803553812749335  9.45787381016523 20.126490824468085  11.404387324892243 19.78580703332779  L 11.65729067887931 21.7545603515625  C 9.300186579561782 22.1493768139129  6.799807875359195 21.760186766539228  4.570007543103448 20.437704064162237  C 2.4568232309626437 19.20920990275931  0.9170536997126434 17.33075205285904  0.044478672772988455 15.202178480302523  L 1.8442361709770112 14.441371690076464  Z " fill-rule="nonzero" fill="#f2f2f2" stroke="none" transform="matrix(1 0 0 1 131 2744 )" />
  </g>
</svg>