<?xml version="1.0" encoding="utf-8"?>
<svg version="1.1" xmlns:xlink="http://www.w3.org/1999/xlink" width="20px" height="21px" xmlns="http://www.w3.org/2000/svg">
  <g transform="matrix(1 0 0 1 -131 -2744 )">
    <path d="M 17.605322924107142 7.229037516891893  C 18.13961107142857 8.449149932432432  18.373713147321425 9.788876525548986  18.275870044642858 11.127905830869931  C 17.804664308035715 10.976987641469593  17.27117495535714 10.895577877956079  16.73424828125 10.895577900126689  C 13.879975044642856 10.895577900126689  11.566114218749998 13.212630237542228  11.566114218749998 16.02876808277027  C 11.566114218749998 16.915114963048985  11.792300714285712 17.748951822212838  12.190426741071427 18.476518416385137  C 10.732632455357143 18.873541219383444  9.166828303571426 18.87782087837838  7.6680038169642835 18.4421849461571  C 8.054607477678573 17.7227208667652  8.274040334821429 16.90126615920608  8.274040334821429 16.02876808277027  C 8.274040334821429 13.212630215371622  5.960179508928571 10.895577877956079  3.1059062723214277 10.895577900126689  C 2.6221857142857137 10.895577900126689  2.1540541964285707 10.96179243876689  1.7100082812499993 11.085229427787162  C 1.620395424107142 9.79546430004223  1.834696495535714 8.473433399493242  2.382637165178571 7.229037516891893  L 17.605322924107142 7.229037516891893  Z M 11.28490611607143 11.950298199957771  L 9.71525310267857 7.799098102829392  L 8.580568571428572 7.799098102829392  L 7.029845133928571 11.950298199957771  L 8.051049107142857 11.950298199957771  L 8.353631651785715 11.048683995988176  L 9.942190022321428 11.048683995988176  L 10.244772566964286 11.950298199957771  L 11.28490611607143 11.950298199957771  Z M 12.64880296875 11.950298199957771  L 12.64880296875 7.799098102829392  L 11.684315066964285 7.799098102829392  L 11.684315066964285 11.950298199957771  L 12.64880296875 11.950298199957771  Z M 8.561663214285712 10.334894062500002  L 9.034442388392854 8.926115868876689  C 9.084671093749998 8.775846834881758  9.116284910714283 8.650823006756758  9.128993370535714 8.550443272804054  L 9.14792294642857 8.550443272804054  C 9.173025200892855 8.663157070312502  9.204639017857142 8.782314400337837  9.259249107142857 8.907338250633446  L 9.77199339285714 10.334894062500002  L 8.561663214285712 10.334894062500002  Z M 18.532605290178573 7.968120722128377  C 18.069484553571428 7.702541246832769  17.910810267857144 7.1143521758868244  18.17819640625 6.675807038640204  C 18.445558348214284 6.194393146114864  19.037748683035716 6.036790983952702  19.50086941964286 6.30237045924831  C 19.96396595982143 6.56792590160473  20.122640245535713 7.156114950380068  19.855278303571428 7.637528842905406  C 19.587892165178573 8.076074002322635  18.995701808035715 8.233676164484796  18.532605290178573 7.968120722128377  Z M 11.10030654017857 20.879957419763517  C 10.63718580357143 20.604664557643584  10.493543816964287 20.00955109586149  10.745897656250001 19.549559531250004  C 11.013283794642856 19.089592021748313  11.605449933035715 18.93198985958615  12.068570691964286 19.19754530194257  C 12.531691428571428 19.463124777238175  12.690365714285715 20.051313848184122  12.422979575892859 20.511281357685814  C 12.155593437500002 20.97127290012669  11.563427299107145 21.12887506228885  11.10030654017857 20.879957419763517  Z M 8.183096138392857 1.8388511877111486  C 7.719975401785714 1.5732957453547294  7.561301116071428 0.9851066965793915  7.828687254464285 0.5251151541385135  C 8.096073392857143 0.07358675358952697  8.68823953125 -0.09243046241554055  9.151360267857143 0.1731009248310811  C 9.614481004464285 0.4386804001266891  9.773155290178572 1.0353085800253377  9.505769151785714 1.486836958403716  C 9.238383013392856 1.9468285008445942  8.646216875 2.104430663006757  8.183096138392857 1.8388511877111486  Z M 0.5668756250000003 15.11443511085304  C 0.10375488839285733 14.848855635557435  -0.05491939732142827 14.260666564611487  0.2124667410714285 13.800699077280406  C 0.48290292410714286 13.340707534839527  1.0720190178571425 13.183105372677366  1.5351397767857142 13.448684847972972  C 1.9982605133928573 13.714240290329391  2.156934799107143 14.302429339104727  1.8895486607142862 14.762420881545609  C 1.6221867187500005 15.222388391047295  1.0299963839285717 15.383236352407094  0.5668756250000003 15.11443511085304  Z " fill-rule="nonzero" fill="#f2f2f2" stroke="none" transform="matrix(1 0 0 1 131 2744 )" />
  </g>
</svg>