<?xml version="1.0" encoding="utf-8"?>
<svg version="1.1" xmlns:xlink="http://www.w3.org/1999/xlink" width="7px" height="7px" xmlns="http://www.w3.org/2000/svg">
  <g transform="matrix(1 0 0 1 -330 -1387 )">
    <path d="M 0 6.540404033499054  C 0 6.784785360440341  0.1979797910748106 6.982765151515152  0.4423611180160985 6.982765151515152  C 0.687184357244318 6.982765151515152  0.8851641483191286 6.785227272727273  0.8851641483191286 6.540404033499054  L 0.8851641483191286 3.4911616092566287  C 0.8851641483191286 2.0540403971354166  2.0544823301373105 0.8847222153172349  3.491603542258523 0.8847222153172349  L 6.540404033499054 0.8847222153172349  C 6.784343427438448 0.8847222153172349  6.982765151515152 0.6867424242424244  6.982765151515152 0.4423610973011365  C 6.982765151515152 0.1979797910748107  6.784785360440341 0  6.540404033499054 0  L 3.491603542258523 0  C 1.5661616092566288 0  0 1.5661616092566288  0 3.491603542258523  L 0 6.540404033499054  Z " fill-rule="nonzero" fill="#ffffff" stroke="none" transform="matrix(1 0 0 1 330 1387 )" />
  </g>
</svg>