<?xml version="1.0" encoding="utf-8"?>
<svg version="1.1" xmlns:xlink="http://www.w3.org/1999/xlink" width="6px" height="7px" xmlns="http://www.w3.org/2000/svg">
  <g transform="matrix(1 0 0 1 -344 -1387 )">
    <path d="M 5.999999999999997 3.4916035422585234  C 6 1.5661616092566288  4.570564509828628 0  2.8145161353326613 0  L 0.4959677419354839 0  C 0.27217741935483875 0  0.09193548387096939 0.1979797910748106  0.09193548387096939 0.44280303030303025  C 0.09193548387096939 0.6867424242424243  0.27217741935483875 0.8851641483191286  0.4959677419354839 0.8851641483191286  L 2.8145161353326613 0.8851641483191286  C 4.125806457913308 0.8851641483191286  5.192338722278228 2.054924242424242  5.192338722278228 3.491603542258523  L 5.192338703377015 6.540404033499054  C 5.192338703377015 6.784785339725378  5.3729838583669345 6.982765151515152  5.595967741935483 6.982765151515152  C 5.819758064516128 6.982765151515152  5.999999999999997 6.785227272727273  5.999999999999997 6.540845966500948  L 5.999999999999997 3.4916035422585234  Z " fill-rule="nonzero" fill="#ffffff" stroke="none" transform="matrix(1 0 0 1 344 1387 )" />
  </g>
</svg>