<?xml version="1.0" encoding="utf-8"?>
<svg version="1.1" xmlns:xlink="http://www.w3.org/1999/xlink" width="7px" height="7px" xmlns="http://www.w3.org/2000/svg">
  <g transform="matrix(1 0 0 1 -330 -1400 )">
    <path d="M 6.98232323922822 6.556755057410037  C 6.98232323922822 6.311931818181817  6.784343427438448 6.11439393939394  6.53996212121212 6.11439393939394  L 3.4911616092566287 6.11439393939394  C 2.0540403971354166 6.11439393939394  0.8847222153172347 4.945075757575758  0.8847222153172347 3.5079545454545475  L 0.8847222153172347 0.45959596650094725  C 0.8847222153172347 0.21388890269886368  0.6867424242424243 0.01679293619791579  0.4423610973011364 0.01679293619791579  C 0.19797977035984854 0.01679293619791579  0 0.2143308149857958  0 0.45959596650094725  L 0 3.508838390743372  C 0 5.433396457741477  1.5661616092566288 7  3.491603542258523 7  L 6.540845966500947 7  C 6.785227272727273 7  6.983207084517046 6.802020208925191  6.98232323922822 6.556755057410037  Z " fill-rule="nonzero" fill="#ffffff" stroke="none" transform="matrix(1 0 0 1 330 1400 )" />
  </g>
</svg>