<?xml version="1.0" encoding="utf-8"?>
<svg version="1.1" xmlns:xlink="http://www.w3.org/1999/xlink" width="6px" height="7px" xmlns="http://www.w3.org/2000/svg">
  <g transform="matrix(1 0 0 1 -344 -1400 )">
    <path d="M 6 0.4595959651408739  C 6 0.21433081435153079  5.81975806451613 0.01679293614822078  5.595967741935485 0.01679293614822078  C 5.372983877268146 0.01679293614822078  5.1923387033770165 0.21388890206590644  5.1923387033770165 0.4595959651408739  L 5.192338703377015 3.5088383803597347  C 5.192338703377015 4.945959588228103  4.125403219506048 6.1148358543003205  2.8145161164314514 6.1148358543003205  L 0.49596772303427333 6.1148358543003205  C 0.27217740045362815 6.1148358543003205  0.09193546496975882 6.312815644789252  0.09193546496975882 6.557196971007347  C 0.09193546496975882 6.802020209511065  0.27217740045362815 7  0.49596772303427333 7  L 2.8145161164314514 7  C 4.570564509828626 7  5.99999998109879 5.433396462377499  5.99999998109879 3.507954555788489  L 6 0.4595959651408739  Z " fill-rule="nonzero" fill="#ffffff" stroke="none" transform="matrix(1 0 0 1 344 1400 )" />
  </g>
</svg>