<?xml version="1.0" encoding="utf-8"?>
<svg version="1.1" xmlns:xlink="http://www.w3.org/1999/xlink" width="11px" height="9px" xmlns="http://www.w3.org/2000/svg">
  <g transform="matrix(1 0 0 1 -567 -1393 )">
    <path d="M 10.780000000000001 3.97840909090909  C 10.706666666666669 3.794318181818181  10.455238095238096 3.589772727272727  10.455238095238096 3.589772727272727  L 9.407619047619047 0.848863636363636  C 9.187619047619046 0.32727272727272616  8.548571428571428 0.06136363636363578  8.276190476190473 0.06136363636363578  L 2.776190476190476 0.06136363636363578  C 2.4933333333333327 0.06136363636363578  1.8542857142857145 0.33749999999999974  1.644761904761905 0.848863636363636  L 0.5971428571428574 3.589772727272727  C 0.5971428571428574 3.589772727272727  0.3457142857142854 3.794318181818181  0.2514285714285713 3.97840909090909  C 0.15714285714285714 4.1625000000000005  0.05238095238095239 4.31590909090909  0.05238095238095239 5.532954545454546  C 0.05238095238095239 6.71931818181818  0.29333333333333306 7.138636363636362  0.5866666666666668 7.28181818181818  L 0.8171428571428576 7.404545454545454  L 0.8171428571428576 8.498863636363636  C 0.8171428571428576 8.85681818181818  0.9009523809523818 8.959090909090909  1.2466666666666673 8.959090909090909  L 2.0219047619047616 8.959090909090909  C 2.3676190476190486 8.959090909090909  2.5980952380952393 8.959090909090909  2.5980952380952393 8.601136363636362  L 2.5980952380952393 7.5375  L 8.433333333333335 7.5375  L 8.433333333333335 8.601136363636362  C 8.433333333333335 8.959090909090909  8.663809523809526 8.959090909090909  9.00952380952381 8.959090909090909  L 9.784761904761906 8.959090909090909  C 10.130476190476191 8.959090909090909  10.214285714285715 8.85681818181818  10.214285714285715 8.498863636363636  L 10.214285714285715 7.404545454545454  L 10.444761904761906 7.28181818181818  C 10.738095238095237 7.138636363636362  10.979047619047622 6.71931818181818  10.979047619047622 5.532954545454546  C 10.979047619047622 4.31590909090909  10.874285714285715 4.1625000000000005  10.780000000000001 3.97840909090909  Z M 2.1057142857142868 3.436363636363637  C 2.1057142857142868 3.436363636363637  1.9380952380952383 3.456818181818183  1.9904761904761905 3.272727272727273  C 2.032380952380953 3.119318181818183  2.325714285714286 1.902272727272728  2.451428571428572 1.4829545454545454  C 2.503809523809524 1.339772727272727  2.849523809523811 0.9102272727272719  3.2476190476190476 0.9306818181818175  L 7.804761904761906 0.9306818181818175  C 8.202857142857143 0.9102272727272719  8.548571428571428 1.339772727272727  8.600952380952384 1.4829545454545454  C 8.726666666666668 1.902272727272728  9.020000000000001 3.1193181818181808  9.061904761904765 3.272727272727273  C 9.114285714285716 3.456818181818183  8.94666666666667 3.436363636363637  8.94666666666667 3.436363636363637  L 2.1057142857142868 3.436363636363637  Z M 2.933333333333333 5.420454545454546  C 2.933333333333333 5.870454545454546  2.5561904761904755 6.238636363636364  2.095238095238095 6.238636363636364  C 1.6342857142857143 6.238636363636364  1.2571428571428578 5.870454545454546  1.2571428571428578 5.420454545454546  C 1.2571428571428578 4.970454545454546  1.6342857142857152 4.602272727272727  2.095238095238095 4.602272727272727  C 2.5561904761904755 4.602272727272727  2.933333333333333 4.970454545454546  2.933333333333333 5.420454545454546  Z M 9.816190476190474 5.420454545454546  C 9.816190476190474 5.870454545454546  9.439047619047619 6.238636363636364  8.978095238095237 6.238636363636364  C 8.517142857142856 6.238636363636364  8.139999999999999 5.870454545454546  8.139999999999999 5.420454545454546  C 8.139999999999999 4.970454545454546  8.517142857142856 4.602272727272727  8.978095238095237 4.602272727272727  C 9.439047619047619 4.602272727272727  9.816190476190474 4.970454545454546  9.816190476190474 5.420454545454546  Z " fill-rule="nonzero" fill="#ffffff" stroke="none" transform="matrix(1 0 0 1 567 1393 )" />
  </g>
</svg>