<?xml version="1.0" encoding="utf-8"?>
<svg version="1.1" xmlns:xlink="http://www.w3.org/1999/xlink" width="19px" height="20px" xmlns="http://www.w3.org/2000/svg">
  <g transform="matrix(1 0 0 1 -563 -1386 )">
    <path d="M 18.95777777777778 8.505154639175258  C 18.95777777777778 7.979381443298968  18.72555555555555 7.453608247422681  18.31388888888889 7.051546391752577  C 17.90222222222222 6.68041237113402  17.35333333333333 6.463917525773195  16.793888888888887 6.463917525773195  L 16.044444444444444 6.463917525773195  L 16.044444444444444 6.226804123711339  C 16.044444444444444 4.567010309278349  15.368888888888888 2.9999999999999987  14.123333333333335 1.8247422680412362  C 12.867222222222223 0.6494845360824741  11.220555555555555 0  9.47888888888889 0  C 7.768888888888888 0  6.15388888888889 0.6391752577319588  4.91888888888889 1.7938144329896906  L 4.855555555555556 1.845360824742268  C 3.620555555555556 2.979381443298969  2.9238888888888894 4.577319587628866  2.9238888888888894 6.22680412371134  L 2.9238888888888894 6.463917525773196  L 2.163888888888889 6.463917525773196  C 1.6677777777777785 6.463917525773196  1.1611111111111114 6.63917525773196  0.7811111111111116 6.948453608247424  L 0.6438888888888891 7.082474226804124  C 0.2533333333333335 7.443298969072166  0.021111111111111414 7.958762886597938  0.021111111111111414 8.50515463917526  L 0.021111111111111414 17.948453608247426  C 0.021111111111111414 18.50515463917526  0.24277777777777823 19.010309278350515  0.6438888888888891 19.371134020618555  C 1.0450000000000004 19.773195876288657  1.6044444444444446 20  2.163888888888889 20  L 16.793888888888887 20  C 17.33222222222222 20  17.838888888888885 19.804123711340203  18.261111111111106 19.443298969072163  L 18.324444444444445 19.38144329896907  C 18.714999999999996 19.010309278350512  18.95777777777778 18.47422680412371  18.95777777777778 17.94845360824742  L 18.95777777777778 8.505154639175258  Z M 17.828333333333333 17.938144329896907  C 17.838888888888885 18.24742268041237  17.71222222222222 18.51546391752577  17.490555555555552 18.680412371134018  C 17.31111111111111 18.85567010309278  17.06833333333333 18.948453608247423  16.793888888888887 19  L 2.174444444444444 19  C 1.8788888888888886 18.948453608247423  1.6150000000000002 18.835051546391753  1.4355555555555553 18.639175257731956  C 1.256111111111111 18.45360824742268  1.161111111111111 18.216494845360824  1.1505555555555556 17.95876288659794  L 1.1505555555555556 8.536082474226804  C 1.1505555555555556 8.309278350515463  1.2455555555555557 8.082474226804123  1.4144444444444444 7.886597938144329  L 1.4566666666666663 7.845360824742268  C 1.6466666666666667 7.659793814432989  1.9105555555555551 7.556701030927835  2.174444444444444 7.556701030927835  L 4.053333333333333 7.556701030927835  L 4.053333333333333 6.216494845360825  C 4.053333333333333 4.845360824742268  4.633888888888889 3.515463917525772  5.647222222222222 2.56701030927835  L 5.7 2.5154639175257727  C 6.723888888888889 1.5773195876288653  8.106666666666666 1.0515463917525767  9.489444444444445 1.0515463917525767  C 10.946111111111112 1.0515463917525767  12.307777777777778 1.5876288659793805  13.331666666666669 2.56701030927835  C 14.355555555555554 3.515463917525772  14.93611111111111 4.845360824742268  14.93611111111111 6.2061855670103085  L 14.93611111111111 7.525773195876289  L 16.793888888888887 7.525773195876289  C 17.047222222222224 7.525773195876289  17.321666666666665 7.628865979381443  17.501111111111108 7.7938144329896915  C 17.648888888888887 7.917525773195877  17.828333333333333 8.144329896907216  17.828333333333333 8.515463917525775  L 17.828333333333333 17.938144329896907  Z " fill-rule="nonzero" fill="#ffffff" stroke="none" transform="matrix(1 0 0 1 563 1386 )" />
  </g>
</svg>