<?xml version="1.0" encoding="utf-8"?>
<svg version="1.1" xmlns:xlink="http://www.w3.org/1999/xlink" width="19px" height="20px" xmlns="http://www.w3.org/2000/svg">
  <g transform="matrix(1 0 0 1 -734 -1387 )">
    <path d="M 15.07855734375 3.1667514991554038  L 15.205965270182292 3.258028758445946  C 15.775977083333332 3.693326076858108  16.07589185655382 3.9487102829391896  16.520895503472225 4.442980447635135  C 17.042774210069442 5.022651773648649  17.4124061187066 5.4674836148648644  17.85070700846354 6.269584987331082  C 18.76890460394965 7.949908614864865  18.95425154188368 9.161246241554053  18.954044677734373 10.747283910472973  C 18.954044677734373 12.118349683277028  18.63546972330729 13.501916258445947  18.126541425781248 14.70234921875  C 17.671414650607637 15.77586693412162  16.85770311848958 16.90588559966216  16.02602097981771 17.635920038006752  C 15.087839181857639 18.45943526182432  14.351678491753473 18.91258686655405  13.189105394965276 19.36367618243243  C 12.040779143880206 19.809242546452705  10.83739633138021 19.96843391047297  9.449728548177083 19.95048074324324  C 8.042159316406249 19.932259184966217  6.78271316514757 19.717372022804053  5.727784448784722 19.278924788851352  C 4.776155718315972 18.88341826435811  3.7004014887152774 18.29015846706081  2.808587463107639 17.430496769425677  C 1.902581740451389 16.55716184543919  1.3578363606770836 15.826647170608108  0.8730987369791667 14.744724915540537  C 0.3338286599392363 13.541085536317564  0.04650573676215295 12.01951541385135  0.05502903862847234 10.69528893581081  C 0.05502903862847234 9.914446051520267  0.1381931065538196 9.198197846283781  0.30763818250868086 8.473121368243241  C 0.4835515874565974 7.7203453124999974  0.7213897981770835 7.004097107263512  1.0937662749565975 6.311960684121619  C 1.4825273036024307 5.589384374999996  1.851510993923611 5.001407411317564  2.307437702907986 4.4333046663851325  C 2.7867413802083334 3.8360615498310775  3.115811834852431 3.4531971072635104  3.632973774956597 3.093017778716213  C 4.0102049207899295 2.830288450168916  4.393283761935763 2.8967476562499965  4.606048631727431 3.0443139780405373  C 4.696839521484375 3.107284269425672  4.789933645833334 3.183207390202699  4.872683985460069 3.3173971072635107  C 5.070029724392361 3.637418391047294  4.865788115234375 3.945969995777024  4.734752974175347 4.129598036317564  C 4.587374637586805 4.336123078547295  4.257890434027778 4.679083741554051  3.9361020138888883 5.042144594594591  C 3.148705090060764 5.930565266047294  2.799443548177084 6.434991469594591  2.390160437282985 7.3007128800675645  C 1.7557412836371524 8.642610029560808  1.6171344900173612 9.74409571368243  1.604032365451389 10.817895967060807  C 1.5902406456163194 11.947914632601348  1.8100944574652773 12.921934206081076  2.169492919921875 13.784194932432428  C 2.868719370659722 15.485466279560809  4.124083181423611 16.83408703547297  5.782923764105902 17.55564632601351  C 6.630425010850694 17.93245105574324  8.129323012152778 18.343650717905405  9.534285598958332 18.360784628378376  C 10.692790147569443 18.37490986064189  12.130287409939237 18.12172918074324  12.968437856987848 17.76752483108108  C 13.915460159505209 17.367300464527023  14.972830013020832 16.56688000422297  15.588851018880208 15.775866934121618  C 16.063300006510417 15.166645629222973  16.664605248480903 14.278592208614862  16.9168282280816 13.544136592060807  C 17.223266478949654 12.651817356418917  17.42825281141493 11.693180152027026  17.423163672960072 10.747283910472971  C 17.423163672960072 9.598337436655404  17.185380610894097 8.458063872466214  16.66203998046875 7.435283973817565  C 16.2462609765625 6.622715815033782  15.703777433810766 5.859953209459458  14.916477035590278 5.153861064189188  C 14.640683995225695 4.906514104729728  14.425340065104168 4.7301464527027015  14.116391736111112 4.486217778716214  C 13.906274867621528 4.320316913006755  13.372976616753474 3.95776454814189  13.520092899305558 3.486928167229728  C 13.622565387369791 3.1589684966216196  13.897448175998264 2.952838978040538  14.177502856987845 2.9124972972972945  C 14.578621266276045 2.854725084459457  14.766423133680554 2.9637436444256733  15.07855734375 3.1667514991554038  Z M 9.446942623697916 10.25288663429054  L 9.36878494032118 10.252900760135136  C 9.189492561848958 10.23877552787162  9.16190912217882 10.243479222972972  8.941241604817709 10.111648416385135  C 8.713816119791666 9.975777808277027  8.573457784288195 9.664358783783785  8.600779190538194 9.368929539695946  L 8.600779190538194 0.9742469172297298  C 8.600779190538194 0.5904078336148647  8.608750799696178 0.4924917229729726  8.786084751519097 0.30520525760135125  C 8.896418510199652 0.18867208614864853  9.012103461371527 0.06487854729729728  9.323961845703124 0.06154497466216213  C 9.65496314236111 0.05801366131756757  9.765296901041665 0.14276507601351335  9.899766205512151 0.2663608741554054  C 10.099884076605901 0.45029966216216216  10.120433743489581 0.6371482474662161  10.11370336046007 0.9742469172297298  L 10.11370336046007 9.368915413851353  C 10.103194067925346 9.69142274070946  10.120433722873264 9.853862922297298  9.879078615451387 10.07632122043919  C 9.799003882378472 10.150125570101352  9.713577956814236 10.238761402027027  9.446942623697916 10.25288663429054  Z " fill-rule="nonzero" fill="#ffffff" stroke="none" transform="matrix(1 0 0 1 734 1387 )" />
  </g>
</svg>