<?xml version="1.0" encoding="utf-8"?>
<svg version="1.1" xmlns:xlink="http://www.w3.org/1999/xlink" width="14px" height="14px" xmlns="http://www.w3.org/2000/svg">
  <g transform="matrix(1 0 0 1 -482 -2326 )">
    <path d="M 0.20163043478260914 0.3626811594202901  L 0.2751811594202897 0.2751811594202897  C 0.5227807029348458 0.027656379680250125  0.9241395869202271 0.027656379680250125  1.1717391304347822 0.2751811594202897  L 6.998731884057971 6.102173913043477  L 12.828260869565216 0.2751811594202897  C 13.044763318519863 0.0584268128457731  13.385278762717439 0.02747086337326448  13.637318840579711 0.20163043478260914  L 13.72608695652174 0.2751811594202897  C 13.973611736261779 0.5227807029348465  13.973611736261779 0.9241395869202262  13.72608695652174 1.1717391304347822  L 7.895289855072463 6.998731884057971  L 13.72355072463768 12.828260869565216  C 13.940305071212197 13.044763318519863  13.971261020684707 13.385278762717439  13.797101449275363 13.637318840579711  L 13.72355072463768 13.72608695652174  C 13.475951181123126 13.973611736261779  13.074592297137743 13.973611736261779  12.826992753623188 13.72608695652174  L 7 7.895289855072463  L 1.1730072463768115 13.72355072463768  C 0.9565047974221654 13.9403050712122  0.6159893532245893 13.971261020684707  0.3639492753623194 13.797101449275363  L 0.2751811594202904 13.72355072463768  C 0.027656379680250125 13.475951181123126  0.027656379680250125 13.074592297137743  0.2751811594202904 12.826992753623188  L 6.1034420289855085 7  L 0.2751811594202897 1.1717391304347822  C 0.0584268128457713 0.9552366814801361  0.02747086337326448 0.6147212372825599  0.20163043478260914 0.3626811594202901  Z " fill-rule="nonzero" fill="#faa900" stroke="none" transform="matrix(1 0 0 1 482 2326 )" />
  </g>
</svg>