<?xml version="1.0" encoding="utf-8"?>
<svg version="1.1" xmlns:xlink="http://www.w3.org/1999/xlink" width="17px" height="34px" xmlns="http://www.w3.org/2000/svg">
  <g transform="matrix(1 0 0 1 -562 -1209 )">
    <path d="M 11.913750000000002 2.6814306358381503  C 11.471250000000005 3.622326589595376  11.657500000000004 3.8606213872832362  12.7 3.845881502890173  C 14.813749999999999 3.81885838150289  16.386249999999997 2.583164739884393  16.928749999999997 0.5478323699421963  C 17.042500000000004 0.0982658959537569  16.87125 -0.04176300578034713  16.4575 0.013511560693641289  C 15.157500000000002 0.19653179190751413  13.9 0.5330924855491326  12.88625 1.3892341040462426  C 12.47576678457809 1.7502608684710972  12.144810857083238 2.190014186398937  11.913750000000002 2.6814306358381503  Z M 3.7424999999999984 26.30700867052023  C 4.142500000000001 26.391763005780348  4.57125 26.321748554913288  4.986250000000001 26.307008670520233  C 4.942500000000002 25.843930635838156  4.88625 25.394364161849712  4.842500000000001 24.93128612716763  C 4.842500000000001 24.889523121387285  4.8 24.847760115606935  4.77125 24.804768786127166  C 4.057500000000002 23.44378612716763  2.186250000000001 22.4746387283237  0.3574999999999988 22.6146676300578  C 0.3574999999999988 22.76943641618497  0.32874999999999943 22.89595375722543  0.3574999999999988 22.994219653179194  C 0.9862499999999997 24.594725433526012  1.9424999999999997 25.885693641618495  3.7424999999999984 26.30700867052023  Z M 1.0137500000000004 15.10469653179191  C 1.1424999999999996 16.25563583815029  1.7999999999999985 17.111777456647403  2.842500000000001 17.67434971098266  C 3.3137500000000015 17.926156069364165  3.6 17.870881502890178  3.842500000000001 17.323049132947983  C 4.686250000000005 15.414234104046248  3.0712500000000005 13.350650289017345  1 12.761054913294803  C 1 13.602456647398848  0.9287500000000009 14.360332369942201  1.0137500000000004 15.10469653179191  Z M 0.11375000000000171 17.786127167630056  C -0.2712499999999977 19.55491329479769  1.571250000000002 22.053323699421966  3.3712500000000003 22.208092485549134  C 3.5137500000000017 22.221604046242778  3.77125 21.983309248554917  3.8000000000000003 21.82854046242775  C 4.013749999999999 20.705852601156067  3.7862500000000012 19.653179190751448  2.8575000000000017 18.937066473988445  C 2.1000000000000014 18.36221098265896  1.1862500000000011 17.95440751445087  0.3575000000000017 17.477817919075147  L 0.20000000000000284 17.67434971098266  C 0.17125000000000198 17.716112716763007  0.11375000000000171 17.74436416184971  0.11375000000000171 17.786127167630056  Z M 6.52875 30.434176300578038  C 7.486250000000001 30.448916184971104  7.6575000000000015 30.125867052023125  7.186250000000001 29.31148843930636  C 6.242499999999998 27.62622832369943  4.57125 27.374421965317925  2.986250000000001 27.206141618497117  C 2.0137500000000004 27.177890173410407  1.728750000000001 27.40267341040463  2.0425 27.851011560693642  C 3.1425000000000014 29.367991329479768  4.542500000000001 30.405924855491335  6.52875 30.434176300578038  Z M 4.713750000000002 31.851661849710986  C 5.671250000000001 33.38215317919075  8.82875 34.44956647398845  10.428749999999999 33.77521676300579  C 10.78625 33.620447976878616  10.799999999999999 33.41040462427746  10.62875 33.10209537572255  C 9.72875 31.501589595375727  6.300000000000001 30.728973988439314  4.7425000000000015 31.781647398843937  C 4.7287500000000025 31.796387283237006  4.7287500000000025 31.824638728323706  4.713750000000002 31.851661849710986  Z " fill-rule="nonzero" fill="#faa900" stroke="none" transform="matrix(1 0 0 1 562 1209 )" />
  </g>
</svg>