<?xml version="1.0" encoding="utf-8"?>
<svg version="1.1" xmlns:xlink="http://www.w3.org/1999/xlink" width="18px" height="40px" xmlns="http://www.w3.org/2000/svg">
  <g transform="matrix(1 0 0 1 -565 -1209 )">
    <path d="M 7.36811797752809 5.571608040201005  L 7.36811797752809 5.57035175879397  C 9.072050561797752 4.321608040201005  9.303370786516854 2.1394472361809047  7.685393258426966 0.18844221105527637  C 7.1507022471910116 0.992462311557789  6.6311797752809 1.6670854271356785  6.226685393258426 2.42713567839196  C 5.7058988764044924 3.3894472361809047  5.764044943820225 4.380653266331659  6.327808988764044 5.341708542713568  C 6.616011235955058 5.816582914572864  6.876404494382022 5.930904522613066  7.36811797752809 5.571608040201005  Z M 0.34634831460674276 9.518844221105528  C -0.15926966292134717 10.997487437185928  0.26039325842696803 12.576633165829145  1.329775280898877 13.424623115577887  C 1.748174157303373 13.755025125628142  2.0224719101123627 13.726130653266333  2.3410112359550594 13.280150753768842  C 3.1500000000000035 12.118090452261306  3.222050561797754 10.85427135678392  2.442134831460678 9.690954773869347  C 2.0654494382022484 9.131909547738694  1.5889044943820232 8.657035175879397  1.1553370786516868 8.140703517587939  L 0.8962078651685405 8.140703517587939  C 0.7078651685393287 8.600502512562812  0.5056179775280928 9.045226130653267  0.34634831460674276 9.518844221105528  Z M 7.48314606741573 6.3178391959799  C 9.188342696629215 7.451005025125629  12.467275280898878 6.633165829145728  13.521488764044946 4.350502512562814  C 11.224719101123595 3.4886934673366836  8.105056179775282 4.522613065326634  7.48314606741573 6.3178391959799  Z M 3.5254213483146075 9.28894472361809  C 3.8136235955056184 9.64824120603015  4.074016853932586 9.662060301507537  4.4355337078651695 9.375628140703519  C 6.110393258426968 8.040201005025127  6.154634831460675 5.498743718592967  4.305337078651687 3.933417085427136  C 3.8578651685393295 4.824120603015075  3.3231741573033746 5.59924623115578  3.0627808988764067 6.445979899497488  C 2.773314606741577 7.408291457286432  2.817556179775282 8.428391959798997  3.5254213483146075 9.28894472361809  Z M 17.45140449438203 38.67964824120603  C 15.602106741573037 37.1143216080402  12.395224719101128 37.60175879396985  10.936516853932588 39.23869346733668  C 12.813623595505621 40.31532663316583  16.208848314606744 40.34422110552764  17.45140449438203 38.67964824120603  Z M 12.582303370786521 36.77010050251256  C 11.18174157303371 35.118090452261306  7.440168539325848 34.83165829145729  6.082584269662925 36.22361809045227  C 8.017837078651688 37.78894472361809  11.311938202247195 38.07663316582915  12.582303370786521 36.77010050251256  Z M 3.091853932584271 26.26005025125629  C 3.294101123595507 26.575376884422116  3.4672752808988787 26.59045226130654  3.799719101123597 26.41834170854272  C 5.60477528089888 25.427135678391963  6.067415730337082 22.957286432160814  4.723735955056183 21.30653266331659  C 3.9299157303370795 21.822864321608048  2.961657303370789 23.115577889447245  2.817556179775282 23.93341708542714  C 2.672191011235956 24.72361809045227  2.6001404494382028 25.52763819095478  3.091853932584271 26.26005025125629  Z M 7.136797752808993 30.940954773869358  C 7.150702247191014 31.91708542713569  7.62724719101124 32.73492462311559  8.49438202247191 33.29522613065327  C 8.970926966292135 33.59673366834171  9.27429775280899 33.51005025125629  9.534691011235957 33.00753768844222  C 10.386657303370788 31.39949748743719  9.462640449438204 29.14572864321609  7.483146067415734 28.355527638190956  C 7.352949438202251 29.232412060301517  7.136797752808993 30.09296482412061  7.136797752808993 30.940954773869358  Z M 5.2154494382022465 29.878140703517598  C 5.678089887640447 30.466080402010057  5.937219101123593 30.45226130653267  6.413764044943822 29.86306532663317  C 7.584269662921348 28.38442211055277  7.266994382022474 26.144472361809047  5.649016853932583 24.910804020100507  C 5.475842696629211 25.19723618090453  5.273595505617975 25.469849246231163  5.128230337078649 25.7713567839196  C 4.521488764044942 27.149497487437188  4.146067415730338 28.5427135678392  5.2154494382022465 29.878140703517598  Z M 17.191011235955056 35.34798994974875  C 16.309971910112363 34.35804020100503  15.125561797752809 33.956030150753776  13.767977528089885 33.65452261306533  C 13.853932584269662 33.99874371859297  13.912078651685391 34.25753768844222  13.970224719101122 34.501256281407045  C 14.229353932584267 35.979899497487445  15.847331460674155 37.58793969849247  17.321207865168535 37.903266331658294  C 17.826825842696625 38.00376884422111  17.89887640449438 37.8178391959799  17.927949438202244 37.400753768844226  C 17.98609550561797 36.59673366834171  17.711797752808987 35.93718592964825  17.191011235955056 35.34798994974875  Z M 10.21348314606741 31.945979899497495  C 10.14143258426966 33.78266331658292  11.426966292134829 35.57788944723619  13.087921348314602 36.06658291457287  C 13.52148876404494 35.276381909547744  13.767977528089885 34.54396984924624  13.305337078651684 33.66834170854273  C 12.74157303370786 32.59170854271358  11.8314606741573 31.959798994974882  10.8063202247191 31.45728643216081  C 10.31460674157303 31.21356783919599  10.228651685393253 31.54396984924624  10.21348314606741 31.945979899497495  Z M 7.4692415730337025 11.256281407035186  C 7.5412921348314566 11.097989949748753  7.584269662921343 10.811557788944732  7.498314606741568 10.739949748743726  C 7.368117977528086 10.624371859296492  7.078651685393253 10.552763819095487  6.919382022471906 10.610552763819104  C 6.110393258426962 10.896984924623123  5.301404494382018 11.213567839195989  4.507584269662917 11.557788944723626  C 3.7567415730337057 11.902010050251267  3.222050561797751 12.49120603015076  2.903511235955051 13.266331658291467  C 2.759410112359547 13.639447236180914  2.759410112359547 13.998743718592973  3.2650280898876374 14.084170854271365  C 3.943820224719098 13.940954773869354  4.622612359550557 13.883165829145735  5.244522471910108 13.639447236180914  C 6.341713483146065 13.208542713567846  6.992696629213482 12.30402010050252  7.4692415730337025 11.256281407035186  Z M 1.993398876404492 18.018844221105535  C 2.341011235955054 17.97613065326634  2.701264044943818 17.947236180904532  3.0627808988764014 17.903266331658298  C 3.10575842696629 17.903266331658298  3.163904494382019 17.889447236180914  3.2068820224719077 17.875628140703522  C 4.507584269662917 17.53015075376885  5.70589887640449 16.008793969849254  5.7501404494382005 14.644472361809054  C 5.764044943820222 14.012562814070362  5.619943820224716 13.912060301507548  5.027106741573032 14.184673366834183  C 4.912078651685392 14.242462311557798  4.795786516853931 14.27135678391961  4.694662921348312 14.329145728643226  C 3.640449438202247 14.860552763819106  2.6001404494381997 15.434673366834183  2.1096910112359533 16.554020100502523  C 1.9213483146067416 16.98492462311559  2.022471910112357 17.53015075376885  1.993398876404492 18.018844221105535  Z M 4.709831460674153 17.630653266331667  C 2.195646067415725 19.109296482412066  1.415730337078649 20.560301507537694  2.0654494382022426 22.340452261306538  C 4.262359550561793 21.996231155778897  5.330477528089882 20.12939698492463  4.709831460674153 17.630653266331667  Z M 10.3436797752809 7.623115577889447  C 8.72570224719101 7.292713567839196  5.200280898876409 8.168341708542714  4.853932584269662 9.962311557788944  C 6.992696629213484 10.723618090452263  9.635814606741572 9.60427135678392  10.3436797752809 7.623115577889447  Z " fill-rule="nonzero" fill="#faa900" stroke="none" transform="matrix(1 0 0 1 565 1209 )" />
  </g>
</svg>