<?xml version="1.0" encoding="utf-8"?>
<svg version="1.1" xmlns:xlink="http://www.w3.org/1999/xlink" width="17px" height="34px" xmlns="http://www.w3.org/2000/svg">
  <g transform="matrix(1 0 0 1 -813 -1209 )">
    <path d="M 4.298750000000001 3.845881502890173  L 4.3 3.845881502890173  C 2.184999999999999 3.81885838150289  0.6124999999999999 2.583164739884393  0.06999999999999887 0.5478323699421963  C -0.04375 0.0982658959537569  0.12749999999999773 -0.04176300578034713  0.5412499999999993 0.013511560693641289  C 1.8412500000000023 0.19653179190751413  3.098749999999998 0.5330924855491326  4.113750000000001 1.3892341040462426  C 4.513750000000002 1.7270231213872826  4.856249999999999 2.203612716763005  5.084999999999999 2.6814306358381503  C 5.527499999999998 3.622326589595376  5.34125 3.8606213872832362  4.298750000000001 3.845881502890173  Z M 12.01375 26.30700867052023  L 12.012500000000003 26.307008670520233  C 12.056250000000002 25.843930635838156  12.1125 25.394364161849712  12.15625 24.93128612716763  C 12.15625 24.889523121387285  12.198749999999997 24.847760115606935  12.227499999999997 24.804768786127166  C 12.941250000000002 23.44378612716763  14.813749999999999 22.4746387283237  16.641249999999996 22.6146676300578  C 16.641249999999996 22.76943641618497  16.669999999999998 22.89595375722543  16.641249999999996 22.994219653179194  C 16.013749999999998 24.594725433526012  15.056249999999993 25.885693641618495  13.25625 26.30700867052023  C 12.85625 26.391763005780348  12.427499999999997 26.321748554913288  12.01375 26.30700867052023  Z M 15.985000000000003 15.10469653179191  C 15.856250000000001 16.25563583815029  15.198750000000002 17.111777456647403  14.15625 17.67434971098266  C 13.685000000000002 17.926156069364165  13.398750000000001 17.870881502890178  13.15625 17.323049132947983  C 12.313750000000002 15.414234104046248  13.927500000000004 13.350650289017345  15.998750000000001 12.761054913294803  C 15.998750000000001 13.602456647398848  16.069999999999997 14.360332369942201  15.985000000000003 15.10469653179191  Z M 16.88500000000001 17.786127167630056  C 17.270000000000003 19.55491329479769  15.427500000000004 22.053323699421966  13.627500000000005 22.208092485549134  C 13.485000000000001 22.221604046242778  13.227500000000003 21.983309248554917  13.198750000000008 21.82854046242775  C 12.985000000000001 20.705852601156067  13.213750000000005 19.653179190751448  14.141250000000008 18.937066473988445  C 14.898750000000007 18.36221098265896  15.813750000000004 17.95440751445087  16.641250000000007 17.477817919075147  L 16.79875000000001 17.67434971098266  C 16.82750000000001 17.716112716763007  16.88500000000001 17.74436416184971  16.88500000000001 17.786127167630056  Z M 10.470000000000006 30.434176300578038  C 9.513750000000005 30.448916184971104  9.341250000000006 30.125867052023125  9.813750000000002 29.31148843930636  C 10.756250000000003 27.62622832369943  12.427500000000002 27.374421965317925  14.013749999999998 27.206141618497117  C 14.985000000000001 27.177890173410407  15.27 27.40267341040463  14.956249999999999 27.851011560693642  C 13.856250000000006 29.367991329479768  12.456249999999999 30.405924855491335  10.470000000000006 30.434176300578038  Z M 12.285000000000002 31.851661849710986  C 11.3275 33.38215317919075  8.170000000000005 34.44956647398845  6.570000000000002 33.77521676300579  C 6.213750000000001 33.620447976878616  6.19875 33.41040462427746  6.370000000000002 33.10209537572255  C 7.270000000000001 31.501589595375727  10.69875 30.728973988439314  12.256250000000003 31.781647398843937  C 12.270000000000003 31.796387283237006  12.270000000000003 31.824638728323706  12.285000000000002 31.851661849710986  Z " fill-rule="nonzero" fill="#faa900" stroke="none" transform="matrix(1 0 0 1 813 1209 )" />
  </g>
</svg>