<?xml version="1.0" encoding="utf-8"?>
<svg version="1.1" xmlns:xlink="http://www.w3.org/1999/xlink" width="18px" height="40px" xmlns="http://www.w3.org/2000/svg">
  <g transform="matrix(1 0 0 1 -809 -1209 )">
    <path d="M 10.631882022471911 5.571608040201005  L 10.63061797752809 5.57035175879397  C 8.926685393258426 4.321608040201005  8.696629213483146 2.1394472361809047  10.314606741573034 0.18844221105527637  C 10.849297752808985 0.992462311557789  11.3688202247191 1.6670854271356785  11.773314606741573 2.42713567839196  C 12.294101123595505 3.3894472361809047  12.235955056179776 4.380653266331659  11.672191011235958 5.341708542713568  C 11.383988764044942 5.816582914572864  11.123595505617978 5.930904522613066  10.631882022471911 5.571608040201005  Z M 17.652387640449433 9.518844221105528  C 18.158005617977523 10.997487437185928  17.73834269662921 12.576633165829145  16.67022471910112 13.424623115577887  C 16.25056179775281 13.755025125628142  15.97626404494382 13.726130653266333  15.658988764044942 13.280150753768842  C 14.849999999999998 12.118090452261306  14.776685393258424 10.85427135678392  15.557865168539324 9.690954773869347  C 15.933286516853933 9.131909547738694  16.409831460674155 8.657035175879397  16.843398876404493 8.140703517587939  L 17.102528089887635 8.140703517587939  C 17.29087078651685 8.600502512562812  17.493117977528083 9.045226130653267  17.652387640449433 9.518844221105528  Z M 10.515589887640447 6.3178391959799  C 8.810393258426963 7.451005025125629  5.5314606741573025 6.633165829145728  4.477247191011234 4.350502512562814  C 6.774016853932583 3.4886934673366836  9.894943820224716 4.522613065326634  10.515589887640447 6.3178391959799  Z M 14.473314606741575 9.28894472361809  C 14.185112359550558 9.64824120603015  13.924719101123596 9.662060301507537  13.563202247191008 9.375628140703519  C 11.888342696629211 8.040201005025127  11.844101123595502 5.498743718592967  13.69339887640449 3.933417085427136  C 14.142134831460673 4.824120603015075  14.675561797752808 5.59924623115578  14.935955056179774 6.445979899497488  C 15.225421348314605 7.408291457286432  15.181179775280896 8.428391959798997  14.473314606741575 9.28894472361809  Z M 0.5473314606741524 38.67964824120603  C 2.396629213483142 37.1143216080402  5.603511235955052 37.60175879396985  7.063483146067412 39.23869346733668  C 5.185112359550557 40.31532663316583  1.7898876404494342 40.34422110552764  0.5473314606741524 38.67964824120603  Z M 5.416432584269657 36.77010050251256  C 6.816994382022468 35.118090452261306  10.558567415730334 34.83165829145729  11.917415730337074 36.22361809045227  C 9.98089887640449 37.78894472361809  6.686797752808986 38.07663316582915  5.416432584269657 36.77010050251256  Z M 14.906882022471905 26.26005025125629  C 14.704634831460668 26.575376884422116  14.531460674157296 26.59045226130654  14.19901685393258 26.41834170854272  C 12.393960674157299 25.427135678391963  11.931320224719096 22.957286432160814  13.274999999999995 21.30653266331659  C 14.068820224719095 21.822864321608048  15.037078651685386 23.115577889447245  15.181179775280894 23.93341708542714  C 15.326544943820217 24.72361809045227  15.39859550561797 25.52763819095478  14.906882022471905 26.26005025125629  Z M 10.861938202247186 30.940954773869358  C 10.848033707865165 31.91708542713569  10.371488764044937 32.73492462311559  9.504353932584266 33.29522613065327  C 9.02780898876404 33.59673366834171  8.724438202247189 33.51005025125629  8.46404494382022 33.00753768844222  C 7.612078651685389 31.39949748743719  8.536095505617974 29.14572864321609  10.515589887640445 28.355527638190956  C 10.645786516853928 29.232412060301517  10.861938202247186 30.09296482412061  10.861938202247186 30.940954773869358  Z M 12.783286516853925 29.878140703517598  C 12.321910112359548 30.466080402010057  12.061516853932575 30.45226130653267  11.584971910112355 29.86306532663317  C 10.414466292134827 28.38442211055277  10.731741573033702 26.144472361809047  12.34971910112359 24.910804020100507  C 12.524157303370783 25.19723618090453  12.726404494382017 25.469849246231163  12.870505617977525 25.7713567839196  C 13.477247191011232 27.149497487437188  13.852668539325839 28.5427135678392  12.783286516853925 29.878140703517598  Z M 0.8077247191011161 35.34798994974875  C 1.688764044943812 34.35804020100503  2.873174157303363 33.956030150753776  4.232022471910106 33.65452261306533  C 4.1448033707865095 33.99874371859297  4.08665730337078 34.25753768844222  4.02977528089887 34.501256281407045  C 3.769382022471905 35.979899497487445  2.1514044943820156 37.58793969849247  0.6775280898876336 37.903266331658294  C 0.17191011235954223 38.00376884422111  0.09985955056179029 37.8178391959799  0.07078651685392426 37.400753768844226  C 0.012640449438193625 36.59673366834171  0.28820224719100346 35.93718592964825  0.8077247191011161 35.34798994974875  Z M 7.785252808988759 31.945979899497495  C 7.85730337078651 33.78266331658292  6.571769662921341 35.57788944723619  4.9108146067415674 36.06658291457287  C 4.477247191011231 35.276381909547744  4.232022471910106 34.54396984924624  4.693398876404489 33.66834170854273  C 5.25716292134831 32.59170854271358  6.167275280898871 31.959798994974882  7.192415730337072 31.45728643216081  C 7.684129213483139 31.21356783919599  7.771348314606735 31.54396984924624  7.785252808988759 31.945979899497495  Z M 10.529494382022467 11.256281407035186  C 10.457443820224713 11.097989949748753  10.414466292134822 10.811557788944732  10.501685393258423 10.739949748743726  C 10.630617977528086 10.624371859296492  10.920084269662915 10.552763819095487  11.079353932584267 10.610552763819104  C 11.888342696629211 10.896984924623123  12.697331460674155 11.213567839195989  13.491151685393255 11.557788944723626  C 14.243258426966287 11.902010050251267  14.776685393258424 12.49120603015076  15.095224719101118 13.266331658291467  C 15.239325842696624 13.639447236180914  15.239325842696624 13.998743718592973  14.733707865168533 14.084170854271365  C 14.054915730337074 13.940954773869354  13.376123595505609 13.883165829145735  12.754213483146062 13.639447236180914  C 11.657022471910109 13.208542713567846  11.007303370786511 12.30402010050252  10.529494382022467 11.256281407035186  Z M 16.005337078651678 18.018844221105535  C 15.658988764044937 17.97613065326634  15.297471910112355 17.947236180904532  14.935955056179768 17.903266331658298  C 14.886839212239689 17.90094505025013  14.83831186592469 17.891637641463035  14.791853932584262 17.875628140703522  C 13.491151685393254 17.53015075376885  12.292837078651676 16.008793969849254  12.248595505617969 14.644472361809054  C 12.234691011235947 14.012562814070362  12.378792134831455 13.912060301507548  12.971629213483139 14.184673366834183  C 13.08665730337078 14.242462311557798  13.202949438202237 14.27135678391961  13.30407303370786 14.329145728643226  C 14.358286516853926 14.860552763819106  15.39859550561797 15.434673366834183  15.889044943820219 16.554020100502523  C 16.077387640449434 16.98492462311559  15.976264044943814 17.53015075376885  16.005337078651678 18.018844221105535  Z M 13.288904494382018 17.630653266331667  C 15.803089887640446 19.109296482412066  16.583005617977523 20.560301507537694  15.93328651685393 22.340452261306538  C 13.7376404494382 21.996231155778897  12.668258426966283 20.12939698492463  13.288904494382018 17.630653266331667  Z M 7.655056179775283 7.623115577889447  C 9.273033707865167 7.292713567839196  12.798455056179776 8.168341708542714  13.144803370786518 9.962311557788944  C 11.007303370786518 10.723618090452263  8.362921348314607 9.60427135678392  7.655056179775283 7.623115577889447  Z " fill-rule="nonzero" fill="#faa900" stroke="none" transform="matrix(1 0 0 1 809 1209 )" />
  </g>
</svg>