<?xml version="1.0" encoding="utf-8"?>
<svg version="1.1" xmlns:xlink="http://www.w3.org/1999/xlink" width="395px" height="695px" xmlns="http://www.w3.org/2000/svg">
  <defs>
    <filter x="90px" y="135px" width="395px" height="695px" filterUnits="userSpaceOnUse" id="filter26">
      <feOffset dx="0" dy="0" in="SourceAlpha" result="shadowOffsetInner" />
      <feGaussianBlur stdDeviation="5" in="shadowOffsetInner" result="shadowGaussian" />
      <feComposite in2="shadowGaussian" operator="atop" in="SourceAlpha" result="shadowComposite" />
      <feColorMatrix type="matrix" values="0 0 0 0 0  0 0 0 0 0  0 0 0 0 0  0 0 0 0.34901960784313724 0  " in="shadowComposite" />
    </filter>
    <g id="widget27">
      <path d="M 101.5 148  A 1.5 1.5 0 0 1 103 146.5 L 472 146.5  A 1.5 1.5 0 0 1 473.5 148 L 473.5 817  A 1.5 1.5 0 0 1 472 818.5 L 103 818.5  A 1.5 1.5 0 0 1 101.5 817 L 101.5 148  Z " fill-rule="nonzero" fill="#000000" stroke="none" fill-opacity="0.996078431372549" />
      <path d="M 101 148  A 2 2 0 0 1 103 146 L 472 146  A 2 2 0 0 1 474 148 L 474 817  A 2 2 0 0 1 472 819 L 103 819  A 2 2 0 0 1 101 817 L 101 148  Z " stroke-width="2" stroke="#000000" fill="none" />
    </g>
  </defs>
  <g transform="matrix(1 0 0 1 -90 -135 )">
    <use xlink:href="#widget27" filter="url(#filter26)" />
    <use xlink:href="#widget27" />
  </g>
</svg>