<?xml version="1.0" encoding="utf-8"?>
<svg version="1.1" xmlns:xlink="http://www.w3.org/1999/xlink" width="28px" height="33px" xmlns="http://www.w3.org/2000/svg">
  <g transform="matrix(1 0 0 1 -124 -262 )">
    <path d="M 17.972697649336283 30.340692872270324  C 18.230766364767703 28.984891723926957  19.637657231747788 28.003104643966488  21.327591191924782 28.003104643966488  C 21.43581354397124 28.003104643966488  21.55236073700221 28.009783463149475  21.66058313744469 28.016462282332455  L 21.469112762721245 27.77602463643637  L 4.070285073285401 27.77602463643637  C 3.4708996197455777 27.77602463643637  2.9630869330752234 27.368616394484196  3 26.88774110269202  L 3 3.7322601244823037  C 2.9630869330752234 3.2513848326901353  3.4708996197455777 2.843976590737951  4.070285073285401 3  L 23.841680199115043 3  C 24.441065652654867 2.8439766295651356  24.948878339325223 3.251384871517319  25 3.732260124482305  L 25 21.52464588196536  C 25.473340562776553 21.27085059770332  26.081050808904866 21.130595278379143  26.697085896017704 21.130595278379143  C 26.88855627074115 21.130595278379143  27.08002659706859 21.143952916745107  27.263172130807522 21.163989413121236  C 27.43799287195797 20.96362472115022  27.654437624446903 20.796654125094125  27.895856754701335 20.63636234822101  L 27.895856754701335 3.4383918862951814  C 27.887531962112835 1.641788361257531  26.081050808904873 0.19248366669804215  23.841680199115043 0.18580488634224443  L 4.0702850732853975 0.18580488634224443  C 1.8309144150995578 0.18580488634224443  0.02443326189159208 1.6417884000847145  0 3.4383918862951814  L 0 29.552591703925078  C 0.024433261891592957 31.34919522896272  1.8309144150995578 32.798499923522215  4.0702850732853975 32.805178703878006  L 18.880100622234515 32.805178703878006  C 18.164167975663716 32.143975177663776  17.79787690818584 31.24901282473644  17.972697649336283 30.340692872270324  Z " fill-rule="nonzero" fill="#ffffff" stroke="none" transform="matrix(1 0 0 1 124 262 )" />
  </g>
</svg>