<?xml version="1.0" encoding="utf-8"?>
<svg version="1.1" xmlns:xlink="http://www.w3.org/1999/xlink" width="18px" height="15px" xmlns="http://www.w3.org/2000/svg">
  <g transform="matrix(1 0 0 1 -129 -268 )">
    <path d="M 13.808150877637988 8.012094726562504  L 11.428471068384741 6.3793045703125015  C 11.404909897524352 6.224760625000002  11.342080062905847 6.090374609375002  11.23998161018669 5.976146484374999  L 11.946817146915588 2.2066185156250016  C 11.970378317775976 2.0655132031250005  11.86827986505682 1.9311271484375012  11.703351577719156 1.897530664062502  L 11.695497854099026 1.897530664062502  C 11.530569566761365 1.8639341406250012  11.373494957386365 1.9445657812500015  11.326372615665585 2.085671093750001  L 10.030507350852272 5.7409709375  C 9.70850445413961 5.875356953125  9.488600055803573 6.157567617187501  9.488600101461039 6.486813359375  C 9.488600101461039 6.943725859375001  9.928408898133119 7.320006718749999  10.462462469561688 7.320006718749999  C 10.564560922280846 7.320006718749999  10.658805697037335 7.306568125000001  10.745196702516234 7.279690898437502  L 13.446879362824678 8.4824458203125  C 13.596100202922077 8.549638828125  13.77673598315747 8.509323007812503  13.870980712256499 8.388375625000004  L 13.878834435876627 8.381656289062503  C 13.97307916497565 8.260708867187503  13.941664270495131 8.099445625000001  13.808150877637988 8.012094726562504  Z M 10.462462469561688 6.8899714453125025  C 10.203289407467532 6.8899714453125025  9.983385009131496 6.701831015625001  9.983385009131496 6.480094062500001  C 9.983385009131496 6.251637812500002  10.203289407467532 6.070216679687502  10.462462469561688 6.070216679687502  C 10.729489255275977 6.070216679687502  10.941539929991887 6.258357109375002  10.941539884334416 6.480094062500001  C 10.941539884334416 6.7085503125  10.729489209618507 6.8899714453125025  10.462462469561688 6.8899714453125025  Z M 10.470316193181823 0.1975474609375027  C 14.514986460024357 0.1975474609375027  17.805698757102277 3.0129346484375024  17.805698757102277 6.480094062500001  C 17.805698757102277 9.275323359375  15.6616308390828 11.647236679687504  12.708628840300328 12.460272148437502  L 12.708628840300328 11.566605078125002  C 15.104016096793833 10.787166132812501  16.816128941761367 8.804972304687501  16.816128941761367 6.480094062500001  C 16.816128941761367 3.483285742187502  13.965225441355525 1.044179414062502  10.462462469561697 1.044179414062502  C 6.959699497767862 1.044179414062502  4.108795997362021 3.483285742187502  4.108795951704553 6.480094062500001  C 4.108795951704553 6.782462617187503  4.140210846185074 7.078111875000002  4.1951869571834495 7.3603225390625  L 3.197763418222409 7.3603225390625  C 3.150641030844164 7.071392578125  3.127079859983772 6.7757433203125  3.127079859983772 6.480094062500001  C 3.127079859983772 3.019653945312501  6.4177921570616965 0.1975474609375027  10.470316193181823 0.1975474609375027  Z M 9.480746377840907 9.033428515624998  L 11.742620241477276 10.955148671875003  C 11.883987357954549 11.076096093750001  11.970378363433444 11.244078632812503  11.970378363433444 11.418780429687502  L 11.970378363433444 11.7749033984375  L 0.07197940848214311 11.7749033984375  L 0.07197940848214311 8.4824458203125  C 0.07197940848214311 8.206954453124998  0.33115247057629893 7.9919368359375005  0.6453015980113629 7.9919368359375005  L 7.226726237824677 7.9919368359375005  C 7.5487291345373375 7.9919368359375005  7.8079021509740265 8.2136737890625  7.8079021509740265 8.4824458203125  L 7.8079021509740265 8.8452880859375  L 8.946692806412338 8.8452880859375  C 9.143036033887984 8.8452880859375  9.339379261363636 8.912481093750001  9.480746377840907 9.033428515624998  Z M 8.577567567978903 11.015622382812504  L 10.760904149756499 11.015622382812504  C 10.839441431615267 11.015622382812504  10.87871009537338 10.928271484375003  10.823733984375005 10.887955664062503  L 9.056645028409093 9.443305898437504  C 9.040937581168835 9.429867304687505  9.017376364650978 9.423148007812502  8.993815193790589 9.423148007812502  L 8.577567567978903 9.423148007812502  C 8.530445180600656 9.423148007812502  8.491176562500007 9.456744531250004  8.491176562500007 9.497060312500002  L 8.491176562500007 10.941710078125006  C 8.491176562500007 10.982025898437504  8.530445226258122 11.015622382812504  8.577567567978903 11.015622382812504  Z M 11.970378363433444 13.138921562499998  L 11.970378363433447 12  L 0.07197940848214311 12  L 0.07197940848214311 13.138921562499998  C 0.07197940848214311 13.407693593750004  0.33115247057629893 13.629430546875003  0.6453015980113629 13.629430546875003  L 1.4149670150162332 13.629430546875003  C 1.5249192370129871 12.9776583203125  2.184632432021104 12.473710742187505  2.977859019886363 12.473710742187505  C 3.7710856077516226 12.473710742187505  4.430798802759739 12.977658320312507  4.540751024756495 13.629430546875003  L 7.658681310876623 13.629430546875003  C 7.768633532873379 12.9776583203125  8.428346727881497 12.473710742187505  9.221573315746754 12.473710742187505  C 10.014799903612014 12.473710742187505  10.674513098620132 12.977658320312507  10.784465320616887 13.629430546875003  L 11.397056173904222 13.629430546875003  C 11.711205301339287 13.629430546875003  11.970378363433444 13.407693593750004  11.970378363433444 13.138921562499998  Z M 8.027806549310068 13.824290273437503  C 8.027806549310068 13.259868984375005  8.561860120738642 12.802956484375002  9.221573315746758 12.802956484375002  C 9.881286510754876 12.802956484375002  10.415340082183445 13.259868984375002  10.415340082183445 13.824290273437503  C 10.415340082183445 14.388711562500001  9.881286510754876 14.845624062500006  9.221573315746758 14.845624062500006  C 8.561860120738642 14.845624062500006  8.027806549310068 14.388711562500006  8.027806549310068 13.824290273437503  Z M 9.81845667613637 13.824290273437498  C 9.81845667613637 14.1065009375  9.551429890422085 14.3349571484375  9.221573315746758 14.3349571484375  C 8.891716695413965 14.3349571484375  8.624689955357146 14.106500898437499  8.624689955357146 13.824290273437498  C 8.624689955357146 13.542079609374998  8.89171674107143 13.313623398437498  9.221573315746758 13.313623398437498  C 9.55142993607955 13.313623398437498  9.81845667613637 13.5420796484375  9.81845667613637 13.824290273437498  Z M 1.7840922534496748 13.824290273437503  C 1.7840922534496748 13.259868984375005  2.3181458248782465 12.802956484375002  2.977859019886363 12.802956484375002  C 3.63757221489448 12.802956484375002  4.171625786323051 13.259868984375002  4.171625786323051 13.824290273437503  C 4.171625786323051 14.388711562500001  3.63757221489448 14.845624062500006  2.977859019886363 14.845624062500006  C 2.3181458248782465 14.845624062500006  1.7840922534496748 14.388711562500006  1.7840922534496748 13.824290273437503  Z M 3.574742425933441 13.824290273437498  C 3.574742425933441 14.1065009375  3.3077156402191568 14.3349571484375  2.977859019886363 14.3349571484375  C 2.6480023995535698 14.3349571484375  2.380975659496753 14.106500898437499  2.380975659496753 13.824290273437498  C 2.380975659496753 13.542079609374998  2.6480024452110396 13.313623398437498  2.977859019886363 13.313623398437498  C 3.3077156402191568 13.313623398437498  3.574742380275975 13.5420796484375  3.574742425933441 13.824290273437498  Z " fill-rule="nonzero" fill="#ffffff" stroke="none" transform="matrix(1 0 0 1 129 268 )" />
  </g>
</svg>