<?xml version="1.0" encoding="utf-8"?>
<svg version="1.1" xmlns:xlink="http://www.w3.org/1999/xlink" width="40px" height="35px" xmlns="http://www.w3.org/2000/svg">
  <g transform="matrix(1 0 0 1 -220 -261 )">
    <path d="M 38.166232638888886 12.125412632042256  L 38.166232638888886 4.452024647887324  C 38.166232638888886 3.5564205545774676  38.08624751984127 2.0536696742957745  37.5491691468254 2.0536696742957745  L 35.634052579365076 2.0536696742957745  C 35.097098214285715 2.0536696742957745  35.01674107142857 3.5564205545774676  35.01674107142857 4.452024647887324  L 35.01674107142857 12.075346610915496  L 32.41846478174603 12.075346610915496  L 32.41846478174603 10.961955325704226  C 32.41846478174603 9.451983384683098  32.152467757936506 9.277426276408454  31.952070932539677 9.277426276408454  L 30.994729662698404 9.277426276408454  C 30.794828869047606 9.277426276408454  30.528645833333318 9.451983384683098  30.528645833333318 10.961955325704226  L 30.528645833333318 12.075346610915496  L 28.324032738095237 12.075346610915496  L 28.324032738095237 4.398685079225351  C 28.324032738095237 2.171132262323937  27.73164682539683 0.4913209727112704  26.94593253968254 0.4913209727112704  L 20.21106150793651 0.4913209727112704  C 19.42534722222222 0.4913209727112704  18.83271329365079 2.171132262323944  18.83271329365079 4.398685079225351  L 18.83271329365079 9.080820862676056  L 16.431671626984127 9.080820862676056  C 15.671502976190476 9.080820862676056  15.053013392857142 10.371465118838026  15 11.957691461267604  L 15 22.617517605633797  L 13.37723214285714 22.617517605633797  C 13.302641369047619 22.617517605633797  13.237723214285712 22.625508912852105  13.179687500000004 22.638891945422532  L 13.179687500000004 12.03028719190141  C 13.179687500000004 10.44983769806338  12.37152777777778 9.163718639964786  11.378100198412701 9.163718639964786  L 1.9630456349206349 9.163718639964786  C 0.9694940476190467 9.163718639964786  0.16170634920634877 10.450030259683096  0.16170634920634877 12.030383472711266  L 0.16170634920634877 27.048553036971832  C 0.16170634920634877 28.629483934859156  0.9694940476190467 29.915795554577464  1.9629216269841288 29.915795554577464  L 11.378100198412701 29.915795554577464  C 12.371589781746037 29.915795554577464  13.179687500000004 28.629483934859156  13.179687500000004 27.048553036971832  L 13.179687500000004 24.57827629841549  C 13.237661210317464 24.591755611795772  13.302641369047619 24.599650638204217  13.37723214285714 24.599650638204217  L 15.053013392857142 24.599650638204217  L 15.053013392857142 27.038828675176045  C 15.053013392857142 28.62515129841549  15.671502976190476 29.915699273767594  16.431671626984127 29.915699273767594  L 17.291480654761905 29.915699273767594  C 17.455543154761905 29.915699273767594  17.592075892857142 29.71736080545774  17.605406746031747 29.4593282350352  C 17.766927083333332 26.299680897887313  19.47172619047619 23.82401243397887  21.486669146825395 23.82401243397887  C 23.501984126984127 23.82401243397887  25.206783234126988 26.299680897887313  25.367931547619044 29.4593282350352  C 25.380952380952383 29.717360805457734  25.51754712301587 29.915699273767594  25.681919642857135 29.915699273767594  L 28.999751984126977 29.915699273767594  C 29.164062499999993 29.915699273767594  29.300657242063487 29.71736080545774  29.313678075396822 29.4593282350352  C 29.475012400793645 26.29919949383802  31.22575644841269 23.823434749119716  33.29867311507936 23.823434749119716  L 33.346292162698404 23.823916153169012  C 35.380022321428555 23.860984264964788  36.97557043650794 26.230936399647884  37.140438988095234 29.45952079665493  C 37.15345982142856 29.71736080545774  37.290054563492056 29.915891835387324  37.45442708333333 29.915891835387324  L 37.74993799603174 29.915891835387324  C 38.9056919642857 29.915891835387324  39.84616815476189 28.786517935739436  39.84616815476189 27.39814865757042  L 39.84616815476189 14.592800946302816  C 39.84616815476189 13.376004071302821  39.123325892857125 12.35812334947183  38.16629464285714 12.12560519366197  Z M 2.5683903769841265 20.89486135563381  C 2.4228050595238098 20.221088248239436  2.9476066468253954 19.60181007922536  2.9476066468253954 19.60181007922536  C 2.9476066468253954 19.60181007922536  2.640997023809523 18.873253191021135  2.9424603174603163 18.206893705985927  C 3.3009672619047614 17.415272887323958  4.122147817460318 17.626801826584526  4.626178075396824 18.003259793133815  C 5.22904265873016 18.449617627640855  5.696862599206346 19.280617297535233  5.660528273809523 19.578413842429594  C 5.618861607142857 19.970276738556354  5.010726686507936 19.829225352112694  4.979600694444444 20.009559308978886  C 4.922557043650791 20.370034661091566  5.551277281746031 20.542377310739447  5.5461309523809526 20.840462698063387  C 5.540984623015871 21.15376045334508  4.802951388888887 21.48294454225353  4.210565476190474 21.741651078345086  C 3.534846230158728 22.031745158450722  2.7397073412698383 21.710456095950715  2.568266369047616 20.894957636443674  Z M 6.455605158730158 25.276119608274655  C 6.0866815476190474 26.16190305897888  5.343563988095237 26.467402068661983  4.96937003968254 26.34233329665493  C 4.589905753968255 26.216494278169012  4.58482142857143 25.323104643485912  4.58482142857143 25.323104643485912  C 4.58482142857143 25.323104643485912  4.169022817460317 25.644393705985916  3.8882688492063493 25.28391835387323  C 3.607886904761907 24.923443001760557  3.5921999007936507 24.123734595070424  3.7480158730158726 23.387186399647877  C 3.90922619047619 22.635040713028157  4.371589781746032 22.07073888644365  4.652343750000002 21.866719850352098  C 4.938182043650795 21.663085937499986  5.7020709325396846 21.45146071742957  5.80078125 21.65519091109154  C 5.899615575396826 21.858824823943653  5.7176959325396846 22.48609430017604  5.831969246031745 22.55637929137323  C 5.967137896825396 22.642839458626753  6.367311507936508 22.03906249999998  6.434833829365079 22.023561289612665  C 6.502542162698413 22.00026133362675  6.596168154761904 22.086143816021117  6.663628472222221 22.54858054577463  C 6.731336805555555 23.00341109154929  6.824838789682541 24.398423745598574  6.455667162698413 25.276023327464774  Z M 6.611483134920634 18.8339706205986  C 6.346602182539682 18.93573943661973  6.2841021825396846 18.02646346830987  6.159474206349204 18.089045994718322  C 6.039806547619046 18.144118617957762  6.050347222222222 18.732201804577468  5.94642857142857 18.81018926056339  C 5.842509920634921 18.888561839788743  5.249813988095236 18.293161311619727  4.880828373015874 17.57201804577466  C 4.465401785714287 16.757097271126767  4.376736111111113 15.887103873239447  4.803075396825397 15.291125660211277  C 5.151351686507938 14.797493948063385  5.681299603174603 14.93873789612677  5.681299603174603 14.93873789612677  C 5.681299603174603 14.93873789612677  6.086619543650792 13.872909330985925  6.6169394841269815 14.069033340669021  C 7.256200396825394 14.30395851672536  7.567708333333332 15.236534441021133  7.552145337301587 16.051455215669023  C 7.547185019841269 16.968722491197187  6.876674107142855 18.732201804577468  6.6115451388888875 18.8339706205986  Z M 10.010540674603174 23.998858384683107  C 9.740203373015873 24.688517825704235  9.007316468253968 24.437898877640848  9.007316468253968 24.437898877640848  C 9.007316468253968 24.437898877640848  9.080109126984123 25.09578565140845  8.539558531746032 25.46425231073944  C 7.999131944444445 25.832815250880277  7.204117063492062 24.56306393045774  6.990885416666668 23.724265514964788  C 6.7777157738095255 22.893843529929576  6.933841765873017 21.545430787852112  7.042782738095239 21.475145796654925  C 7.152095734126983 21.412563270246476  7.442956349206349 21.898107394366196  7.552021329365081 21.796338578345065  C 7.666418650793654 21.702464788732392  7.30276537698413 21.130364216549296  7.531312003968256 20.894957636443667  C 7.75496031746032 20.66003246038732  9.251612103174603 21.145769146126767  9.7296626984127 21.7571522887324  C 10.10391865079365 22.243081536091562  10.285838293650798 23.324796434859163  10.010540674603174 23.998762103873247  Z M 9.563492063492063 20.346638424295783  C 8.976314484126984 20.691323723591562  7.593874007936506 20.479698503521128  7.422495039682538 20.16630446742958  C 7.25099206349206 19.845015404929583  7.8121279761904745 19.41386993838028  7.723834325396826 19.272818551936624  C 7.63529265873016 19.131478323063387  7.27170138888889 19.37468364876761  7.178075396825394 19.264923525528175  C 7.084635416666663 19.15516340228874  7.3861607142857135 18.167322293133807  7.7029389880952355 17.399771676936627  C 8.061693948412694 16.529681998239447  8.622829861111107 15.573613556338032  9.39205109126984 16.153224031690147  C 9.828559027777779 16.482504401408455  9.641555059523807 17.33651518485916  9.641555059523807 17.33651518485916  C 9.641555059523807 17.33651518485916  10.384548611111109 17.540630501760575  10.46769593253968 18.324356294014088  C 10.56132192460317 19.265019806338035  10.088231646825394 20.04075429137325  9.563430059523807 20.346638424295783  Z M 25.80394345238095 10.480262433978877  C 25.80394345238095 10.731940470950711  25.67404513888889 10.936440911091559  25.514508928571423 10.936440911091559  L 21.68452380952381 10.936440911091559  C 21.524801587301585 10.936440911091559  21.394779265873012 10.731940470950711  21.394779265873012 10.480262433978877  L 21.394779265873012 4.454527948943667  C 21.394779265873012 4.202849911971842  21.524801587301585 3.9984457526408534  21.684585813492063 3.9984457526408534  L 25.514446924603178 3.9984457526408534  C 25.673983134920636 3.9984457526408534  25.803881448412696 4.2029461927817  25.803881448412696 4.454527948943667  L 25.803881448412696 10.480262433978877  Z M 33.231894841269835 24.58819322183098  C 31.40848214285714 24.58819322183098  29.92485119047619 26.922328895246483  29.92485119047619 29.79178587147887  C 29.92485119047619 32.66066516285212  31.40848214285714 34.99499339788733  33.231894841269835 34.99499339788733  C 35.05561755952381 34.99499339788733  36.538938492063494 32.66076144366197  36.538938492063494 29.79178587147887  C 36.538938492063494 26.922328895246483  35.05561755952381 24.58809694102112  33.231894841269835 24.58809694102112  Z M 21.473648313492063 24.58819322183098  C 19.650235615079367 24.58819322183098  18.16685267857143 26.922328895246483  18.16685267857143 29.79178587147887  C 18.16685267857143 32.66066516285212  19.650235615079367 34.99499339788733  21.473648313492063 34.99499339788733  C 23.297309027777786 34.99499339788733  24.780691964285715 32.66076144366197  24.780691964285715 29.79178587147887  C 24.780691964285715 26.922328895246483  23.297309027777786 24.58809694102112  21.473648313492063 24.58809694102112  Z " fill-rule="nonzero" fill="#ffffff" stroke="none" transform="matrix(1 0 0 1 220 261 )" />
  </g>
</svg>