<?xml version="1.0" encoding="utf-8"?>
<svg version="1.1" xmlns:xlink="http://www.w3.org/1999/xlink" width="32px" height="9px" xmlns="http://www.w3.org/2000/svg">
  <g transform="matrix(1 0 0 1 -319 -287 )">
    <path d="M 6.913580246913579 4.527777783203128  C 6.913580246913579 2.8611111328125034  6.255144020061728 1.4722222167968795  5.377229089506173 0.6388888671874966  C 4.71879286265432 0.3611110839843761  4.279835416666667 0.08333330078124845  3.621399189814814 0.08333334960937577  C 2.962962962962963 0.08333334960937577  2.5240055169753077 0.3611111328124963  1.8655692901234566 0.6388888671874966  C 0.7681756172839503 1.4722222167968795  0.10973939043209827 2.861111083984376  0.10973935185185162 4.25  C 0.10973935185185162 5.083333349609376  0.32921809413580255 5.638888867187497  0.5486968364197532 6.4722222167968795  C 0.7681755787037038 7.027777783203128  1.2071330632716049 7.583333349609376  1.8655692901234566 8.138888867187504  C 2.962962962962963 8.97222221679688  4.279835416666667 8.97222221679688  5.157750347222222 8.138888867187504  C 6.255144020061728 7.305555517578121  6.913580246913579 5.916666650390624  6.913580246913579 4.527777783203128  Z M 31.714677623456794 2.5833333496093616  C 31.49519888117284 2.0277777832031134  31.275720138888886 1.7499999999999858  31.056241435185182 1.1944444335937519  C 30.836762692901235 0.9166666503906242  30.39780520833333 0.3611110839843761  29.95884772376543 0.3611111328124963  C 29.519890239197533 0.08333334960937577  29.080932754629632 0.08333334960937577  28.641975308641975 0.08333334960937577  C 27.764060339506177 0.08333334960937577  26.886145408950618 0.6388889160156239  26.227709182098767 1.1944444335937447  C 25.569272955246916 2.0277777832031205  25.349794212962966 3.1388888671874966  25.349794251543216 4.249999999999993  C 25.349794251543216 5.361111132812489  25.788751736111116 6.472222216796872  26.227709182098767 7.305555566406241  C 26.886145408950625 8.138888916015617  27.764060339506177 8.416666699218737  28.641975308641975 8.416666650390617  C 29.080932793209882 8.416666650390617  29.51989027777778 8.416666650390617  29.95884772376543 8.13888886718749  C 30.397805208333338 7.861111083984362  30.836762692901235 7.583333300781241  31.056241435185182 7.305555566406234  C 31.275720177469136 7.027777783203113  31.71467766203704 6.472222216796858  31.714677623456794 5.91666665039061  C 31.934156365740744 5.361111083984362  31.934156365740744 4.805555517578114  31.934156365740744 4.249999999999986  C 31.934156365740744 3.6944444335937376  31.934156365740744 3.1388888671874895  31.714677623456794 2.5833333496093616  Z " fill-rule="nonzero" fill="#ffffff" stroke="none" transform="matrix(1 0 0 1 319 287 )" />
  </g>
</svg>