<?xml version="1.0" encoding="utf-8"?>
<svg version="1.1" xmlns:xlink="http://www.w3.org/1999/xlink" width="40px" height="32px" xmlns="http://www.w3.org/2000/svg">
  <g transform="matrix(1 0 0 1 -316 -261 )">
    <path d="M 39.99999999999999 7.139329811507934  L 40 6.857142857142857  L 40 3.4708994543650804  L 39.7777777734375 3.4708994543650804  C 38.888888867187504 2.9065255456349197  35.11111109375 2.6243385912698414  31.111111093749997 2.6243386408730167  L 27.3333333203125 2.6243386408730167  C 22.2222222265625 2.6243386408730167  17.555555546875002 2.906525595238095  17.555555546875002 2.906525595238095  C 6.222222226562501 5.728395039682538  0.8888889062499999 24.070546726190475  0.8888889062499999 24.070546726190475  C 0.8888889062499999 24.070546726190475  0.44444445312499997 24.070546726190475  0.22222222656249999 25.19929454365079  C -0.44444445312499997 28.30335099206349  1.555555546875 30.843033531746027  1.555555546875 30.843033531746027  L 3.11111109375 30.843033531746027  L 3.11111109375 30.560846577380946  C 3.11111109375 29.99647266865079  2.8888888671874997 29.99647266865079  2.8888889062499996 29.714285714285708  C 2.8888889062499996 27.45679012896825  4.2222222265625 25.481481498015867  5.999999999999998 24.91710758928571  C 8.444444453124998 24.352733680555552  10.666666679687498 26.61022926587301  10.666666679687498 29.714285714285708  C 10.666666679687498 30.278659623015873  10.666666679687498 29.99647266865079  10.444444453124998 30.84303353174602  L 25.777777773437496 30.84303353174602  L 26.88888890625 31.68959434523809  C 27.333333359374997 31.68959434523809  27.999999999999993 31.971781299603172  28.44444445312499 31.971781299603172  C 27.999999999999993 31.125220436507934  27.999999999999993 30.278659623015873  27.999999999999993 29.432098759920624  C 27.999999999999993 28.021164037698405  28.44444445312499 26.892416220238086  29.111111093749994 26.045855357142855  C 29.777777773437492 25.199294494047606  30.888888867187493 24.63492063492063  31.777777773437492 24.63492063492063  C 32.88888886718749 24.63492063492063  33.77777777343749 25.19929454365079  34.666666679687495 26.045855357142855  C 35.333333359375 26.892416220238093  35.77777777343749 28.303350942460312  35.77777777343749 29.432098759920624  C 35.77777777343749 30.278659623015873  35.55555554687499 31.125220436507934  35.33333332031249 31.971781299603172  C 35.77777777343749 31.971781299603172  36 31.68959434523809  36.44444445312499 31.68959434523809  C 38.88888890624999 30.560846527777777  39.11111113281249 25.76366840277777  39.11111109374998 25.19929454365079  L 39.55555554687499 18.42680773809524  L 38.666666679687495 16.733686061507935  L 39.33333332031249 7.139329811507934  L 39.99999999999999 7.139329811507934  Z M 6.222222226562501 17.015873015873012  L 8.2222222265625 18.42680773809524  L 8.2222222265625 19.837742509920634  C 8.2222222265625 21.248677232142853  7.555555546875 22.377425049603172  6.6666666796875 22.94179895833333  C 6.444444453125001 23.22398591269841  6.444444453125001 22.94179895833333  6.222222226562501 22.94179895833333  L 5.7777777734375 22.94179895833333  C 4.8888888671875 22.37742504960317  4.222222226562501 21.248677281746026  4.222222226562501 19.837742509920634  L 4.222222226562501 18.42680773809524  L 4.4444444531250005 18.14462083333333  L 6.222222226562501 17.015873015873012  C 6.222222226562501 17.015873015873012  6.444444453125 17.015873015873012  6.222222226562501 17.015873015873012  Z M 37.111111093750004 8  L 36 20.11992946428571  L 36 20.402116418650795  L 35.111111093750004 20.402116418650795  C 35.333333320312505 19.555555555555554  36 15.322751339285714  35.777777773437506 14.476190476190473  L 33.333333320312505 14.476190476190473  C 33.333333320312505 15.604938293650793  33.11111109375 16.733686061507935  32.444444453125 17.86243387896825  C 32 18.991181696428566  31.111111132812503 19.837742509920634  30.444444453125005 20.402116418650795  L 26.444444453125 20.684303373015872  L 26.444444453125 21.24867723214286  C 26 23.788359771825398  25.555555546875006 24.917107589285717  25.333333320312505 25.481481498015874  L 25.333333320312505 25.763668452380955  L 25.111111093750004 26.045855357142862  L 21.555555546875 26.045855357142862  L 21.555555546875 22.377425049603183  C 21.7777777734375 21.81305114087302  23.555555546875002 15.887125248015879  23.3333333203125 14.194003521825401  L 22 14.194003521825401  C 22 14.476190476190483  21.7777777734375 17.580246924603184  19.777777773437503 18.991181646825403  C 17.7777777734375 19.555555555555564  15.555555546875002 19.273368601190484  15.555555546875002 19.555555555555564  L 15.555555546875002 25.763668452380962  L 11.3333333203125 25.763668452380962  L 11.3333333203125 20.684303373015883  L 14.2222222265625 17.298059970238107  L 13.777777773437501 16.16931215277779  L 14 15.88712519841271  C 14.444444453125001 16.451499107142865  14.666666679687502 16.73368606150795  15.11111109375 17.015873015873026  C 15.333333320312503 17.298059970238107  15.555555546874999 17.298059970238107  15.333333320312503 16.73368606150795  C 15.333333320312503 16.451499107142865  14.888888867187502 15.604938244047627  14.444444453125001 14.758377430555566  C 13.777777773437501 13.347442708333343  12.88888890625 12.500881845238105  12.666666679687498 12.783068799603182  C 12.666666679687498 13.065255753968264  12.88888890625 13.911816617063504  13.555555546874999 15.040564384920648  L 13.3333333203125 15.322751339285725  L 13.3333333203125 15.040564384920648  L 12.88888890625 14.476190476190487  L 12.2222222265625 14.476190476190487  L 9.777777773437501 16.45149910714287  L 9.777777773437501 16.16931215277779  L 9.333333320312502 14.194003521825397  C 9.555555546875 13.911816567460315  14.888888867187502 8.550264533730157  19.111111093750004 8  L 37.111111093750004 8  Z M 19.777777773437503 2.3421516865079384  C 20 2.3421516865079384  20 2.6243386408730185  20.2222222265625 2.6243386408730167  L 22.6666666796875 2.6243386408730167  C 22.88888890625 2.6243386408730167  23.1111111328125 2.6243386408730167  23.11111109375 2.3421516865079384  C 23.3333333203125 2.059964732142858  23.3333333203125 2.059964732142858  23.3333333203125 1.7777777777777777  L 23.3333333203125 0.9312169146825408  L 23.3333333203125 0.6490299603174623  C 23.3333333203125 0.6490299603174623  23.3333333203125 0.36684300595238206  23.11111109375 0.3668430555555572  C 22.8888888671875 0.36684310515873236  22.8888888671875 0.08465610119047878  22.88888890625 0.08465610119047878  L 20.2222222265625 0.08465610119047878  C 20 0.08465610119047878  19.555555546875002 0.3668430555555572  19.555555546875002 0.9312169146825425  L 19.555555546875002 1.7777777777777797  C 19.555555546875002 2.059964732142858  19.555555546875002 2.059964732142858  19.777777773437503 2.3421516865079384  Z " fill-rule="nonzero" fill="#ffffff" stroke="none" transform="matrix(1 0 0 1 316 261 )" />
  </g>
</svg>