<?xml version="1.0" encoding="utf-8"?>
<svg version="1.1" xmlns:xlink="http://www.w3.org/1999/xlink" width="3px" height="4px" xmlns="http://www.w3.org/2000/svg">
  <g transform="matrix(1 0 0 1 -321 -280 )">
    <path d="M 2.952380943080357 2.0952381138392906  C 2.952380943080357 2.0952381138392906  2.476190457589286 3.0476190848214384  1.2857142857142856 2.7301587053571432  C 1.2857142857142856 2.41269838169643  1.5238095284598205 2.0952380580357124  1.2857142857142856 2.0952381138392866  L 0.333333314732143 2.4126984375  C 0.333333314732143 2.4126984375  0.0952380719866073 2.4126984375  0.333333314732143 3.04761902901786  L 0.8095238002232152 3.682539676339291  C 0.8095238002232152 3.682539676339291  1.04761904296875 4.000000000000004  1.04761904296875 3.682539676339291  L 1.04761904296875 3.3650793526785736  C 1.04761904296875 3.3650793526785736  2.7142857003348224 4.000000000000004  2.952380943080357 2.0952381138392906  Z M 0.09523811383928635 1.7777777901785694  C 0.09523811383928635 1.7777777901785694  0.333333356584822 0.5079364955357164  1.7619047712053568 1.142857142857147  L 1.523809528459822 1.4603174665178602  C 1.523809528459822 1.4603174665178602  1.523809528459822 1.7777777901785774  1.7619047712053568 1.7777777901785774  L 2.7142857003348224 1.4603174665178602  C 2.7142857003348224 1.4603174665178602  2.952380943080357 1.4603174665178602  2.7142857003348224 1.142857142857147  L 2.2380952566964285 0.19047617187499913  C 2.2380952566964285 0.19047617187499913  2.2380952566964285 -0.12698415178571412  2.0000000139508938 0.19047617187499913  L 2.0000000139508938 0.5079364955357164  C 2.0000000139508938 0.5079364955357164  0.333333356584822 -0.12698415178571412  0.09523811383928635 1.7777777901785694  Z " fill-rule="nonzero" fill="#ffffff" stroke="none" transform="matrix(1 0 0 1 321 280 )" />
  </g>
</svg>