<?xml version="1.0" encoding="utf-8"?>
<svg version="1.1" xmlns:xlink="http://www.w3.org/1999/xlink" width="40px" height="35px" xmlns="http://www.w3.org/2000/svg">
  <g transform="matrix(1 0 0 1 -413 -263 )">
    <path d="M 22.890528744749506 27.057974767596278  C 22.890528744749506 21.346432602921645  27.173265309801515 16.745464918105352  32.48976221809594 16.745464918105352  C 33.37586270303402 16.745464918105352  34.18811559193092 16.904134683488266  35.00033314704981 17.142101372288618  C 34.63113050062195 16.348828463922086  34.11426799588974 15.634890438247009  33.37586270303402 15.158919101372286  C 34.483470642317606 15.07958421868083  35.369535793477674 14.04834462151394  35.369535793477674 12.779100376272686  C 35.369535793477674 11.430559207613985  34.40962304627643 10.399281651173082  33.154319914910495 10.399281651173082  L 30.717596581997803 10.399281651173082  L 29.09312613798201 3.656499889331563  C 28.797735753817307 2.5458874501992033  28.05933046096158 1.6733176184152287  27.025570117719163 1.3560160469234188  C 20.879283704050792 -0.3892066214998093  14.416404493385699 -0.38920662149981067  8.27011807971733 1.3560160469234188  C 7.31020533251609 1.6733176184152292  6.497952443619188 2.5458874501992046  6.2025973932325 3.656499889331563  L 4.651939211479872 10.399281651173087  L 2.953621171422906 10.399281651173087  C 1.6983180400569666 10.399281651173087  0.7384052928557262 11.430559207613987  0.7384052928557262 12.779100376272687  C 0.7384052928557262 13.810339973439575  1.3291153936291036 14.682947764497568  2.215215878567179 15.000249335989377  C 0.8861004849380756 15.793560203629923  0 17.380068061088977  0 19.125283643204963  L 0 25.471428950863213  C 0 26.97867784417884  0.9599127472012403 28.168587206728645  2.215215878567179 28.56522366091191  L 2.215215878567179 30.23106640106242  C 2.215215878567179 31.103674192120412  2.879773575381731 31.817612217795492  3.6920264642786322 31.817612217795492  L 8.122458221412991 31.817612217795492  C 8.934675776531883 31.817612217795492  9.599233473346432 31.103674192120412  9.599233473346432 30.23106640106242  L 9.599233473346432 28  L 23.038188603053847 28  C 22.964341007012674 28.08925232403718  22.890493410971505 27.613280987162458  22.890493410971505 27.057974767596278  Z M 8.860863514268715 21.50510236830456  C 8.860863514268715 23.250317950420538  7.5317127868616005 24.678194001770695  5.90724234284581 24.678194001770695  C 4.282736565052009 24.678194001770695  2.9536211714229044 23.250279991146524  2.9536211714229044 21.50510236830456  C 2.9536211714229044 19.759924745462595  4.282736565052009 18.332010734838423  5.90724234284581 18.332010734838423  C 7.531748120639612 18.332010734838423  8.860863514268715 19.759886786188577  8.860863514268715 21.50510236830456  Z M 9.08233563483622 4.449772797698096  C 11.888296947954785 3.656499889331563  14.768070523336515 3.259863435148295  17.72169169475942 3.259863435148295  C 20.67531286618233 3.259863435148295  23.555086441564058 3.656499889331563  26.361012420904615 4.449772797698096  L 27.985518198698422 13  L 7.457865190820429 13  L 9.08237096861423 4.449772797698096  Z M 39.87381514665321 27.057974767596278  C 39.87381514665321 22.694935812306326  36.55099132880244 19.12524568393094  32.48976221809594 19.12524568393094  C 28.42853310738945 19.12524568393094  25.105709289538677 22.694935812306326  25.105709289538677 27.057974767596278  C 25.105709289538677 31.421013722886237  28.428568441167457 34.99070385126162  32.48976221809594 34.99070385126162  C 36.550955995024424 34.99070385126162  39.87381514665321 31.421013722886237  39.87381514665321 27.057974767596278  Z M 26.951757855456005 25.868065405046476  C 26.951757855456005 25.233424302788848  27.468620360188204 24.678194001770695  28.05933046096158 24.678194001770695  L 34.70497809666312 24.678194001770695  L 33.81891294550305 23.408949756529438  C 33.44967496529718 22.853643536963258  33.52352256133835 22.13970551128818  34.04042039984857 21.743069057104915  C 34.557318238358775 21.34643260292165  35.22187593517333 21.425729526339087  35.591078581601195 21.981073705179284  L 37.806294460168374 25.154127379371403  C 38.02780191451389 25.550801792828686  38.101649510555056 26.0267351704294  37.88014205620954 26.423371624612663  C 37.65863460186403 26.82000807879593  37.36320888392132 27.057974767596278  36.9201939752303 27.057974767596278  L 28.05933046096158 27.057974767596278  C 27.468620360188204 27.057974767596278  26.951757855456005 26.502706507304115  26.951757855456005 25.868065405046476  Z M 38.027801914513894 29.041157038512612  C 38.027801914513894 29.675760181496226  37.51090407600368 30.231066401062407  36.9201939752303 30.231066401062414  L 30.274546339528765 30.231066401062414  L 31.160646824466838 31.420975763612216  C 31.45603720863154 31.89694710048694  31.5298494708947 32.53155024347056  31.160646824466838 32.92818669765383  C 30.939104036343316 33.245526228419656  30.56993672369346 33.40419599380257  30.274546339528765 33.40419599380257  C 29.905343693100903 33.40419599380257  29.60998864271421 33.245526228419656  29.388481188368694 32.92818669765383  L 27.17326530980152 29.755095064187692  C 26.951722521677993 29.358458610004426  26.87787492563682 28.882525232403715  27.099417713760342 28.485888778220446  C 27.320960501883867 28.08925232403718  27.616315552270557 27.85124767596281  28.059330460961583 27.85124767596281  L 36.920193975230305 27.85124767596281  C 37.51090407600368 27.85124767596281  38.027801914513894 28.40655389552899  38.027801914513894 29.041157038512612  Z " fill-rule="nonzero" fill="#ffffff" stroke="none" transform="matrix(1 0 0 1 413 263 )" />
  </g>
</svg>