<?xml version="1.0" encoding="utf-8"?>
<svg version="1.1" xmlns:xlink="http://www.w3.org/1999/xlink" width="30px" height="30px" xmlns="http://www.w3.org/2000/svg">
  <g transform="matrix(1 0 0 1 -246 -488 )">
    <path d="M 21.41537612012367 25.680473171017606  L 29.967161489124884 20.470113886167493  L 21.416162709719046 15.260541158650355  L 21.416162709719046 18  L 6.78562478795537 18  C 5.412602457065326 18.220055189424865  4.314952079906062 17.09855116421304  4.314952079906062 15.72521151704482  C 4.314952079906062 14.330721427539622  5.445409655409602 13.200263852036082  6.839899744914799 13.200263852036082  C 8.233854850049191 13.200263852036082  9.364090703909953 14.329886627031591  9.36484703825783 15.723841526979427  L 9.36484703825783 17.078346164699553  L 13.490501400403282 17.078346164699553  L 13.490501400403282 15.722268347788678  C 13.49148670766619 15.675341729945693  13.491979402011303 15.628406062090013  13.491979402011303 15.581469101253335  C 13.491979402011303 11.877164734387497  10.489047387643105 8.874232720019297  6.7847430207772685 8.874232720019297  C 3.0804386539114317 8.874232720019297  0.07750663954323198 11.877164734387497  0.07750663954323198 15.581469101253335  C 0.07750663954323198 19.28577346811917  3.0804386539114317 22.288705482487373  6.7847430207772685 22.288705482487373  C 6.7847747467979 22.288705482487373  6.784806472339369 22.288705482262273  6.784838198359996 22  L 21.41537612012367 22  L 21.41537612012367 25.680473171017606  Z M 9.44507901567415 23.562191552520503  L 9.44507901567415 29.933554821777122  L 13.571519967414975 29.933554821777122  L 13.571519967414975 23.562191552520503  L 9.44507901567415 23.562191552520503  Z M 15.06446411582202 23.562191552520503  L 15.06289093663127 29.933554821777122  L 19.19011847796747 29.933554821777122  L 19.19011847796747 23.562191552520503  L 15.06446411582202 23.562191552520503  Z M 15.0683970637989 17.05553509869606  L 15.06289093663127 17.05553509869606  L 19.19011847796747 17.05553509869606  L 19.19011847796747 8.4148652989918  L 22.28534250270198 8.4148652989918  L 16.964860868073668 0.043208560182820696  L 11.647525591826858 8.4148652989918  L 15.0683970637989 8.4148652989918  L 15.0683970637989 17.05553509869606  Z " fill-rule="nonzero" fill="#ffffff" stroke="none" fill-opacity="0.11764705882352941" transform="matrix(1 0 0 1 246 488 )" />
  </g>
</svg>