<?xml version="1.0" encoding="utf-8"?>
<svg version="1.1" xmlns:xlink="http://www.w3.org/1999/xlink" width="20px" height="20px" xmlns="http://www.w3.org/2000/svg">
  <g transform="matrix(1 0 0 1 -121 -485 )">
    <path d="M 9.724734042553193 0.030585106382978684  L 10 0.026595744680851064  C 15.498670212765957 0.026595744680851064  19.97340425531915 4.5013297872340425  19.97340425531915 10  C 19.97340425531915 15.498670212765957  15.499999999999998 19.97340425531915  10 19.97340425531915  C 4.5013297872340425 19.97340425531915  0.026595744680851064 15.499999999999998  0.026595744680851064 10  C 0.026595744680851064 4.695478723404255  4.194148936170212 0.32978723404255317  9.452127659574467 0.04122340425531917  L 9.724734042553193 0.030585106382978684  Z M 10.601063829787234 1.25  L 10.601063829787234 1.2513297872340425  L 10.601063829787236 2.5239361702127665  C 10.602234112589864 2.5392007285079226  10.60281989674214 2.5545044763788  10.60281989674214 2.5698138297872344  C 10.60281989674214 2.9012732232327307  10.334118967913582 3.1699741520612896  10.002659574468085 3.1699741520612896  C 9.688995186627649 3.1699741520612896  9.428232559016195 2.9284380963259733  9.404255319148936 2.6156914893617023  L 9.397606382978722 2.526595744680851  L 9.396276595744679 1.2513297872340425  L 9.14627659574468 1.272606382978723  C 4.980166323008585 1.6863735675102878  1.6849665496030133 4.982686396066478  1.2726063829787237 9.148936170212766  L 1.2513297872340425 9.397606382978724  L 2.526595744680851 9.400265957446809  C 2.8284574468085104 9.400265957446809  3.078457446808511 9.622340425531915  3.121010638297872 9.912234042553191  L 3.127659574468085 10.001329787234043  C 3.1263273660504125 10.299323417755899  2.907766070336664 10.551770185673327  2.6130319148936163 10.595744680851062  L 2.5239361702127656 10.602393617021274  L 1.2513297872340425 10.602393617021274  L 1.272606382978723 10.853723404255318  C 1.686666749798528 15.019431556281159  4.981898230952881 18.314663037435512  9.147606382978724 18.72872340425532  L 9.39627659574468 18.75  L 9.39627659574468 17.47340425531915  C 9.39627659574468 17.171542553191493  9.621010638297872 16.921542553191493  9.909574468085108 16.878989361702132  L 10 16.872340425531917  C 10.303191489361701 16.872340425531917  10.551861702127658 17.095744680851062  10.595744680851064 17.3843085106383  L 10.601063829787234 17.47340425531915  L 10.602393617021274 18.749999999999996  L 10.852393617021276 18.73005319148936  C 15.019989090158079 18.317367651902202  18.316741440303854 15.020058699975205  18.72872340425532 10.852393617021274  L 18.74867021276596 10.602393617021272  L 17.474734042553195 10.602393617021272  C 17.177397570225608 10.601824348654056  16.924951975234347 10.384393578918846  16.88031914893617 10.09042553191489  L 16.872340425531917 10  C 16.872340425531917 9.696808510638299  17.095744680851062 9.44813829787234  17.3843085106383 9.404255319148936  L 17.47340425531915 9.398936170212766  L 18.747340425531917 9.398936170212766  C 18.447485608083124 5.127503648762738  15.112057557630997 1.6943382320629419  10.851063829787233 1.271276595744681  L 10.601063829787234 1.25  Z M 11.703457446808512 5.864361702127661  L 11.703457446808512 5.865691489361703  C 12.77694232920349 5.865470065102894  13.7371555905104 6.533375311503668  14.110372340425535 7.539893617021277  L 14.168882978723406 7.711436170212766  L 14.484042553191493 8.759308510638299  L 14.578457446808512 8.775265957446809  C 14.992021276595747 8.867021276595745  15.317819148936174 9.196808510638299  15.408244680851066 9.613031914893618  L 15.426861702127662 9.728723404255318  L 15.43218085106383 9.848404255319148  L 15.43218085106383 12.007978723404255  C 15.43218085106383 12.582446808510639  15.127659574468087 13.09840425531915  14.66090425531915 13.38031914893617  L 14.539893617021278 13.446808510638299  L 14.43617021276596 13.490691489361701  L 14.412234042553195 13.607712765957448  C 14.2628882010827 14.195213064216281  13.78695463697063 14.64315053632176  13.191489361702132 14.756648936170214  L 13.051861702127663 14.77659574468085  L 12.90957446808511 14.783244680851064  C 12.256648936170215 14.783244680851064  11.69148936170213 14.371010638297872  11.464095744680854 13.78590425531915  L 11.421542553191493 13.656914893617024  L 11.408244680851068 13.603723404255321  L 8.59308510638298 13.603723404255321  L 8.579787234042554 13.656914893617024  C 8.41622340425532 14.22340425531915  7.945478723404255 14.65425531914894  7.367021276595745 14.757978723404257  L 7.231382978723405 14.77659574468085  L 7.093085106382978 14.783244680851064  C 6.434213044613841 14.780910328910812  5.848250986556254 14.363811882129818  5.63031914893617 13.742021276595747  L 5.590425531914894 13.609042553191493  L 5.5664893617021285 13.490691489361705  L 5.462765957446809 13.446808510638302  C 5.008683686034583 13.223781875124285  4.6867221157273855 12.799265930201626  4.594414893617022 12.301861702127662  L 4.57313829787234 12.150265957446809  L 4.56781914893617 12.007978723404257  L 4.56781914893617 9.847074468085106  C 4.56781914893617 9.363031914893616  4.878989361702128 8.950797872340425  5.312499999999999 8.805851063829786  L 5.421542553191489 8.775265957446809  L 5.514627659574468 8.759308510638299  L 5.831117021276596 7.710106382978724  C 6.11555657650288 6.740959700714953  6.941201543682109 6.028210107119777  7.9414893617021285 5.888297872340425  L 8.118351063829788 5.871010638297873  L 8.29654255319149 5.864361702127661  L 11.703457446808512 5.864361702127661  Z M 13.003989361702127 8.065159574468085  C 12.835660965605808 7.48573444938935  12.304176586888415 7.087663496349994  11.700797872340425 7.089095744680851  L 8.299202127659575 7.089095744680851  C 7.743351063829786 7.089095744680851  7.25531914893617 7.42154255319149  7.0438829787234045 7.933510638297872  L 6.996010638297872 8.066489361702127  L 6.5438829787234045 9.538563829787233  C 6.429514433314372 9.770316498656667  6.208020996488632 9.93058815406765  5.952127659574469 9.966755319148938  L 5.841755319148937 9.97340425531915  L 5.784574468085106 9.97340425531915  L 5.784574468085106 12.007978723404255  C 5.783631489439318 12.183620866723437  5.905562475657896 12.33603459949666  6.077127659574469 12.373670212765957  L 6.150265957446807 12.381648936170214  L 6.757978723404254 12.381648936170214  L 6.757978723404254 13.219414893617023  C 6.757978723404254 13.40691489361702  6.908244680851063 13.559840425531915  7.093085106382977 13.559840425531915  C 7.253267210129845 13.558836591757002  7.390340091076945 13.444609190967752  7.420212765957446 13.287234042553193  L 7.426861702127658 13.218085106382983  L 7.426861702127658 12.380319148936172  L 12.575797872340424 12.380319148936172  L 12.575797872340424 13.216755319148938  C 12.575797872340424 13.405585106382977  12.72606382978723 13.55718085106383  12.909574468085104 13.55718085106383  C 13.06914893617021 13.55718085106383  13.20611702127659 13.44148936170213  13.23670212765957 13.284574468085106  L 13.244680851063826 13.216755319148938  L 13.244680851063826 12.378989361702127  L 13.852393617021274 12.378989361702127  C 14.02658627860313 12.376941272890686  14.175151794677458 12.252302038431328  14.207446808510637 12.081117021276595  L 14.215425531914892 12.006648936170215  L 14.215425531914892 9.970744680851064  L 14.155585106382972 9.97074468085106  C 13.892615599679793 9.970334565112154  13.647590312347964 9.837320837703448  13.503989361702125 9.617021276595745  L 13.44414893617021 9.513297872340425  L 13.41755319148936 9.438829787234042  L 13.003989361702127 8.065159574468085  Z " fill-rule="nonzero" fill="#ffffff" stroke="none" transform="matrix(1 0 0 1 121 485 )" />
  </g>
</svg>