<?xml version="1.0" encoding="utf-8"?>
<svg version="1.1" xmlns:xlink="http://www.w3.org/1999/xlink" width="22px" height="20px" xmlns="http://www.w3.org/2000/svg">
  <g transform="matrix(1 0 0 1 -303 -485 )">
    <path d="M 9.00778115510184 8.967855775379498  L 15.641156792581409 8.967855775379498  L 18.846558605361736 11.806914655621906  L 21.892328864184 11.806914655621906  L 21.892328864184 17.45938931793363  L 20.358041493517195 17.45938931793363  C 20.195165855020434 18.42753181135383  19.570630981430284 19.25433635993415  18.68601486034465 19.672939407951045  L 18.540066015491032 19.73704719273564  C 18.440208153852694 19.778018034949426  18.338196093289152 19.813482767430447  18.23448557748411 19.84328294981652  L 18.076678386046495 19.88357926943245  C 17.64071334761453 19.982798946877235  17.188157528087544 19.982798946877235  16.75219248965557 19.88357926943245  L 16.594385278620326 19.84328294981652  C 16.542262806326402 19.82852972490441  16.490553147023064 19.812344057652698  16.439314621164545 19.79474420297697  L 16.288804860211034 19.73704719273564  C 16.123639755315107 19.669409012241985  15.964885710781894 19.586956157200742  15.814471055643898 19.49069015317717  C 15.101301904083565 19.035833490809246  14.613166871168508 18.299207847276506  14.470829382184869 17.463052623294338  L 14.470829382184869 17.460305134435842  L 7.9195499601366475 17.460305134435842  C 7.915825104360223 17.481716261236166  7.91187209574512 17.503086746889764  7.907691613552647 17.52441291922044  L 7.9195499601366475 17.460305134435835  C 7.8172548440488745 18.074595127292397  7.5256628603694775 18.641211612766472  7.085817111399137 19.080400346296493  C 6.695734754352091 19.471271577165012  6.205897186511806 19.746638727704735  5.67011316737708 19.876252658711028  C 4.604698116429773 20.129950241716994  3.4863258094902077 19.779435499611687  2.7538725299197835 18.962258876307217  C 2.3769176228346582 18.541133232535902  2.1267165814686537 18.02126497709108  2.0323378684019477 17.463052623294338  L 2.0323378684019477 17.460305134435835  L 0 17.460305134435835  L 0 13.964599407754283  L 2.2138617530075675 11.653971804381829  L 6.4810415336032445 11.653971804381829  L 9.00778115510184 8.967855775379498  Z M 7.084872896944685 16.962094275129772  C 7.084872896944685 15.792260919074785  6.141120225554543 14.843493925489273  4.97594392406811 14.841960195578817  C 4.975590454127317 14.841960017216975  4.975236984148176 14.841959928036047  4.974883514162739 14.841959928036047  C 3.8096327287229235 14.841959928036047  2.865010326831712 15.79035704481993  2.865010326831712 16.960264177054714  C 2.865010326831712 17.164942496661922  2.8945566041834505 17.368540376137705  2.9527278486707016 17.564709238836365  L 2.932659880543566 17.49235902682814  C 2.9445182271275665 17.53815030448513  2.9572887451729706 17.581194093283617  2.971883645336433 17.625153718260258  L 2.9527278486707016 17.564709238836365  C 2.9645861952547015 17.605921374954498  2.9782689043591346 17.646217694570428  2.992863784924972 17.68651401418635  L 2.971883645336433 17.625153718260258  C 2.989215079481731 17.67643993428237  3.0083708565498375 17.727726169980425  3.028438824676973 17.777180733322183  L 2.9919516134635677 17.685598197684147  C 3.1304913239021053 18.069773662614168  3.3777848415182836 18.404953969862746  3.703452290917836 18.649962399283794  L 3.657843286699893 18.61332936535264  C 3.6897696014110286 18.640804135882025  3.7235202786425963 18.665531417552906  3.75727093627654 18.689342882721576  L 3.703452290917836 18.6499623992838  C 3.7435882271721073 18.680184638995744  3.7837241634263767 18.70857522602733  3.825684462201079 18.73604997688078  L 3.75727093627654 18.690258718899724  C 3.7937581474899447 18.71590183674875  3.8320697212237813 18.74154493492184  3.871293486016649 18.76535640009051  L 3.82568446220108 18.73604997688078  C 3.864908226993947 18.7616930947298  3.905044163248217 18.786420376400685  3.9460922709638915 18.809316025067147  L 3.871293486016649 18.76535640009051  C 3.9105172508095145 18.790083681761388  3.951565358525189 18.812979330427854  3.9935256572998923 18.83495912324024  L 3.9460922709638906 18.809316025067147  C 3.9926134662408628 18.834959142916176  4.040959024038267 18.859686424587057  4.089304601433298 18.882582053577583  L 3.9935256572998923 18.83495912324024  C 4.031837231033729 18.8551072830482  4.070148804767568 18.874339626353958  4.110284741021838 18.892656133481566  L 4.089304601433298 18.882582053577583  C 4.133089262728435 18.902730213385546  4.17687392402357 18.9219625566913  4.222482928241513 18.93936322764076  L 4.110284741021838 18.892656133481566  C 4.155893764837406 18.912804293289526  4.20150276905535 18.93203663659528  4.247111792870919 18.948521491042534  L 4.222482928241513 18.93936322764076  C 4.268091952057082 18.956763918266162  4.313700956275025 18.972332936535274  4.362046533670056 18.986986157978105  L 4.247111792870917 18.948521491042534  C 4.292720816686486 18.965922181667935  4.33832982090443 18.980575383434832  4.384851035779027 18.994312768699523  L 4.362046533670056 18.986986157978105  C 4.410510334389161 19.001889782941248  4.459496157080188 19.015025230115388  4.5089075695827034 19.026366641415887  L 4.384851035779027 18.994312768699523  C 4.431372231056 19.008050153964216  4.478805617392001 19.01995588654855  4.5262389841303765 19.030945782954735  L 4.508907569582703 19.026366641415887  C 4.556340955918705 19.036440721319867  4.60377432265708 19.045598984721636  4.652119880454486 19.053841411945264  L 4.5262389841303765 19.030029946776594  C 4.57549673298681 19.04101984318278  4.624754462245619 19.050178106584557  4.675836573622487 19.05750471730597  L 4.652119880454486 19.053841411945264  C 4.7022898007723235 19.061168022666678  4.752459721090162 19.06757879720995  4.803541832467028 19.072157919072872  L 4.675836573622487 19.05750471730597  C 4.724182131419892 19.063915491849244  4.773439880276325 19.069410449890306  4.822697609535134 19.07307375525102  L 4.803541832467028 19.071242102570668  L 4.881989342455136 19.07582122443358  L 4.822697609535134 19.07307375525102  C 4.872867529852972 19.076737060611727  4.9239496216322145 19.078568713292082  4.97594392406811 19.078568693616145  L 5.075371573644757 19.07490540793137  L 5.126453685021624 19.07307375525102  C 5.173123192801141 19.069736969281603  5.219669881788433 19.064849885468863  5.266017270852541 19.05842053380818  L 5.219496075575568 19.06391549184925  C 5.258561307864315 19.059515085602126  5.297496241209272 19.05401798260469  5.336255159297513 19.04743063740199  L 5.26601727085254 19.05842053380818  C 5.320748087672647 19.051093923086768  5.3754789240903795 19.040104026680574  5.428385378390053 19.029114130274383  L 5.336255159297513 19.047430637401995  C 5.376622993527399 19.040370503005114  5.416776153324593 19.032124538706924  5.456662968060324 19.02270335573111  L 5.429297549851459 19.02911413027439  C 5.475599582281492 19.018775094888195  5.521539065432826 19.00686251594741  5.567036792759567 18.993396932521378  L 5.456662968060324 19.02270335573111  C 5.507745059839564 19.010797623146775  5.558827171216432 18.997060237882085  5.60899709153427 18.981491199937036  L 5.567036792759567 18.993396932521378  C 5.616294541616002 18.979659547256684  5.664640099413406 18.96317469280944  5.711161294690378 18.945774002184034  L 5.6089970915342695 18.981491199937043  C 5.655518286811242 18.966837998170146  5.702039482088214 18.950353143722893  5.747648505903782 18.93203663659528  L 5.711161294690377 18.945774002184034  C 5.757682489967349 18.927457495056426  5.802379322723889 18.90914098792882  5.847988346539457 18.888992828120855  L 5.747648505903782 18.93203663659528  C 5.792075108643838 18.914312420028324  5.835885344895937 18.8950688495256  5.879002489789189 18.874339626353958  L 5.847988346539457 18.888992828120855  C 5.8935973703550255 18.867928851810685  5.939206374572969 18.84503320314422  5.982991035868106 18.821221757651486  L 5.8790024897891895 18.874339626353958  C 5.9218749600252965 18.854191466545995  5.9638352588 18.83312749023582  6.0039711950542705 18.810231841569358  L 5.982991035868106 18.821221757651486  C 6.021302609601944 18.800157781341312  6.058702011874377 18.778177968852997  6.095189223087782 18.755282320186534  L 6.0039711950542705 18.810231841569358  C 6.049580218869839 18.784588723720333  6.09427705162638 18.75711397286689  6.1371495218624865 18.72780754965715  L 6.095189223087782 18.755282320186534  C 6.13350079682162 18.73147085501786  6.170900199094053 18.705827737168836  6.20738741030746 18.679268802817603  L 6.1371495218624865 18.7287233858353  C 6.1772854581167564 18.701248615305918  6.217421394371026 18.67377386445247  6.255732968104864 18.64355160506459  L 6.20738741030746 18.680184638995744  C 6.237489362498162 18.65820482650743  6.267591314688864 18.6353091975169  6.295868904359134 18.611497732348234  L 6.255732968104864 18.643551605064598  C 6.424153070676352 18.514422021293143  6.572354781766811 18.360688879910448  6.695403904381404 18.187470540202863  L 6.651619262683894 18.246999203124542  C 6.680809043413193 18.209450352691185  6.708174442024434 18.170069869253403  6.734627669174271 18.130689366139688  L 6.695403904381404 18.187470540202863  C 6.723681494051674 18.14717422058694  6.750134721201512 18.105046248290655  6.777500139410378 18.063834112172522  L 6.734627669174271 18.130689366139688  C 6.760168724862704 18.09222469920411  6.783885418030706 18.053760032268542  6.806689920139677 18.01346371265262  L 6.7765879679489744 18.063834112172522  C 6.803953386157842 18.019874487195885  6.828582250787246 17.974999045717045  6.852298943955246 17.92920776806006  L 6.806689920139677 18.01346371265262  C 6.8304066133076775 17.972251576534482  6.852298943955246 17.9301236042382  6.873279083543784 17.887079795763775  L 6.852298943955246 17.92920776806006  C 6.874191274602815 17.886163979261568  6.894259242729949 17.843120170787145  6.913415019798054 17.799160545810505  L 6.873279083543784 17.887079795763775  C 6.892434880209516 17.847699292650056  6.90976629475719 17.807402973034133  6.9270977289024875 17.768022489596355  L 6.913415019798054 17.799160545810505  C 6.931658625404757 17.75611675701202  6.9499022310114595 17.71124129585723  6.965409302636326 17.66636585437839  L 6.927097728902488 17.767106653418207  C 6.94534133450919 17.721315375761215  6.963584940115894 17.673692465099812  6.979092011740759 17.625153718260258  L 6.965409302636327 17.66636585437839  C 6.980004183202164 17.6233220655799  6.994599083365626 17.579362440603262  7.0064574103520005 17.53448699912442  L 6.979092011740759 17.62606953476247  C 6.997335617347462 17.57295166605999  7.011930497913299 17.51891796117938  7.024701015958703 17.46488425629876  L 7.0064574103520005 17.53448699912442  C 7.058489466416128 17.34817600591719  7.084872896944685 17.15559053173647  7.084872896944685 16.962094275129772  Z M 19.524164475344183 16.9611800153969  C 19.524164475344183 15.791181234603524  18.57977736114942 14.842545720556458  17.414435437851026 14.841960195578817  C 17.414081974442887 14.841960017223565  17.413728510998997 14.841959928045942  17.41337504754622 14.841959928045942  C 16.24812426210641 14.841959928045942  15.30350186021519 15.790357044829824  15.30350186021519 16.9602641770646  C 15.30350186021519 17.16494249666835  15.333048137565932 17.36854037614075  15.391219382051247 17.564709238836365  L 15.372975756846916 17.496938148691058  C 15.383921912371887 17.539981937489546  15.396692450014918 17.583025745963972  15.410375159119353 17.625153718260258  L 15.392131553512648 17.564709238836365  C 15.405814262617081 17.613247985675915  15.422233505703353 17.66178673251547  15.439564939848651 17.709409662852813  L 15.410375159119349 17.625153718260258  C 15.425882230744216 17.672776648597594  15.443213645291891 17.719483742756797  15.46236944195762 17.76527502041378  L 15.439564939848651 17.70940966285281  C 15.455984182934916 17.750621798970943  15.472403426021188 17.791833954765014  15.490647031627892 17.83304609088315  L 15.46236944195762 17.765275020413785  C 15.569709493708043 18.027113426110567  15.728201929410131 18.2647121789752  15.928493605383997 18.46404981947327  L 15.901128206772759 18.435659232441683  C 15.928493624981623 18.46404981947327  15.956771214651894 18.492440406504866  15.986873147244971 18.519915177034243  L 15.928493605383997 18.46496565565142  C 15.962244282615565 18.497019548043724  15.995994959847135 18.52907344043602  16.031569999599135 18.55929568014796  L 15.985960975783566 18.519915177034243  C 16.016975099435673 18.547389947563627  16.047077051626378 18.574864698417073  16.07900336633751 18.59959199976389  L 16.031569999599135 18.55929568014796  C 16.070793764392 18.594097041722822  16.11092970064627 18.62706677029327  16.15288997982335 18.658204826507422  L 16.07900336633751 18.59959199976389  C 16.11275404356908 18.62798258679548  16.148329083321084 18.654541521146715  16.18390412307308 18.68110045549795  L 16.15288997982335 18.658204826507422  C 16.189377191036755 18.685679597036806  16.227688764770594 18.71223853138804  16.26600033850443 18.736965813058923  L 16.18390412307308 18.68110045549795  C 16.22495223078876 18.710406878707687  16.266000358102055 18.738797465739275  16.309784999799565 18.76535640009051  L 16.26600033850443 18.737881629561134  C 16.305224103297295 18.762608911232007  16.34444784849254 18.786420376400685  16.384583804344434 18.809316025067147  L 16.309784999799565 18.76535640009051  C 16.349920936053834 18.790083681761388  16.39096904376951 18.812979330427854  16.43201717108281 18.834959123240232  L 16.384583804344434 18.809316025067147  C 16.432017190680433 18.83495914291617  16.47945055741881 18.85968642458705  16.52779611521622 18.882582053577575  L 16.43201717108281 18.83495912324024  C 16.470328744816648 18.8551072830482  16.509552509609513 18.87433962635395  16.548776254804753 18.892656133481566  L 16.527796115216212 18.882582053577583  C 16.56975641399092 18.901814396883335  16.612628884227025 18.920130904010946  16.655501374060755 18.937531574960406  L 16.54877625480475 18.89174031697935  C 16.59438527862032 18.913720129467674  16.641818645358697 18.932952453097485  16.69016422275373 18.950353143722893  L 16.655501374060755 18.936615758458203  C 16.702934760396754 18.95493226558581  16.750368127135133 18.971417120033063  16.798713684932537 18.986070321799964  L 16.69016422275373 18.94943730754475  C 16.73394888404886 18.965922161992  16.778645716805404 18.981491199937043  16.824254740620972 18.99431276869953  L 16.798713684932537 18.986070321799964  C 16.846876460953727 19.000952674063576  16.89555765735345 19.014088028104233  16.944662549383782 19.025450824913676  L 16.824254740620972 18.99431276869953  C 16.870775935897942 19.008050153964216  16.918209322233942 19.01995588654855  16.96564268897232 19.030945782954742  L 16.944662549383782 19.025450824913676  C 16.99027157319935 19.035524904817656  17.03679276847632 19.044683168219432  17.083313963753294 19.052925595443057  L 16.96564268897232 19.030029946776594  C 17.01581260929016 19.041019843182788  17.065982529607997 19.050178106584557  17.116152449925835 19.057504717305978  L 17.083313963753294 19.052009759264916  C 17.192822407970656 19.06957451474993  17.303538385798266 19.078454936639716  17.414435437851022 19.078568693616145  L 17.512038724907235 19.07490540793137  L 17.566769561324964 19.07307375525102  C 17.61282929685815 19.069696330608195  17.658766863892694 19.064809317845064  17.704508784635458 19.05842053380818  L 17.649777967815346 19.064831328027395  C 17.69082607553102 19.06025220616448  17.731874202844317 19.055673064625623  17.77109794803956 19.048346453904202  L 17.704508784635458 19.057504717305978  C 17.761063963975992 19.050178106584564  17.81670697185513 19.040104026680574  17.871437788675237 19.028198294096242  L 17.77109794803956 19.048346453904202  C 17.810321712832426 19.04193567936093  17.848633286566265 19.033693252137304  17.88785705135913 19.02453500841147  L 17.871437788675237 19.028198294096242  C 17.91681018168469 19.018102247384327  17.961835925429067 19.00649539000578  18.00644049760151 18.993396932521378  L 17.88785705135913 19.02453500841147  C 17.94258786817924 19.012629275827134  17.995494342076537 18.997060237882085  18.047488605317184 18.981491199937043  L 18.00644049760151 18.993396932521378  C 18.054786055398914 18.97965954725669  18.103131613196318 18.96317469280944  18.15056499953232 18.945774002184034  L 18.047488605317184 18.981491199937043  C 18.093097629132753 18.966837998170146  18.136882290427888 18.951268960225104  18.180666951723026 18.933868289275637  L 18.15056499953232 18.945774002184038  C 18.198910557329725 18.927457495056426  18.246343943665728 18.907309335248467  18.293777310404103 18.88532952276015  L 18.180666951723026 18.933868289275637  C 18.224451613018164 18.91738343482839  18.26732408325427 18.899066927700773  18.30837219096994 18.878918748216876  L 18.293777310404103 18.88532952276015  C 18.33756197169924 18.86518136295219  18.38043444193535 18.844117386642015  18.423306912171455 18.821221757651486  L 18.309284382028974 18.878918748216876  C 18.35489340584454 18.857854771906702  18.398678067139677 18.83495912324024  18.442462708837184 18.810231841569365  L 18.423306912171455 18.820305921473345  C 18.46435501988713 18.798326108985023  18.5044909561414 18.774514643816353  18.543714720934265 18.74887154564326  L 18.442462708837184 18.810231841569365  C 18.487159541593723 18.785504559898484  18.53094420288886 18.7580297893691  18.573816673124966 18.729639202337513  L 18.543714720934265 18.74887154564326  C 18.584762828649943 18.72322842779424  18.623986593442808 18.696669493443004  18.662298186774272 18.667363070233268  L 18.573816673124966 18.729639202337506  C 18.61269565424762 18.704039822075853  18.650723809391604 18.67716102138987  18.68783922286508 18.649046563105657  L 18.662298186774272 18.667363070233268  C 18.698785397987674 18.641719952384236  18.733448246680645 18.614245201530796  18.767198923912215 18.5858546144992  L 18.68783922286508 18.649962399283808  C 18.838878019878784 18.53485922431254  18.973866621311767 18.399947244928704  19.089198585407782 18.248830855804904  L 19.080076792403244 18.259820752211095  C 19.170328170045682 18.14371791873324  19.248284415161876 18.018489508956687  19.312682788385732 17.886163979261568  L 19.28896609521773 17.933786889922978  C 19.310858425865295 17.89074310112449  19.331838565453836 17.846783476147852  19.350994362119568 17.802823851171222  L 19.312682788385725 17.88524814308342  C 19.33092639399243 17.846783476147852  19.34916999959913 17.807402973034133  19.365589242685406 17.76710665341821  L 19.350994362119568 17.802823851171222  C 19.369237967726267 17.75703257351423  19.38748157333297 17.712157132035387  19.40390081641924 17.665450037876184  L 19.365589242685402 17.76710665341821  C 19.386784468781805 17.71599183127093  19.405955278780894 17.664054366049058  19.42305661308497 17.611416332995574  L 19.404813007478268 17.666365854378398  C 19.417583525523675 17.62698535126468  19.430354063166703 17.58852068432911  19.441300218691673 17.548224384389123  L 19.42305661308497 17.61050051649336  C 19.43947585617124 17.560130116973458  19.453158565275672 17.509759717453548  19.46592908332108 17.45755766525329  L 19.441300218691676 17.54914020089133  C 19.496269275520675 17.358029328826905  19.524164475344183 17.160099998073207  19.524164475344183 16.9611800153969  Z M 18.515437131264 12.686107096126793  L 15.310035318483678 9.847048215884383  L 9.386335995937946 9.847048215884383  L 6.85959637443935 12.533164244886716  L 2.586031354418597 12.533164244886716  L 0.875693147512215 14.31902385707399  L 0.875693147512215 16.581112713606895  L 2.014094262795245 16.581112713606895  C 2.2048775163334313 15.08502354112082  3.4731898080661576 13.964280954146563  4.975487828538595 13.964280954146563  C 6.477785849011032 13.964280954146563  7.74609814074376 15.08502354112082  7.936881394281947 16.581112713606895  L 14.452585776578163 16.581112713606895  C 14.641532886362803 15.083220515827652  15.910645725952794 13.960228891255579  17.414493271914317 13.960228891255579  C 18.917990586983773 13.960228891255579  20.186922624151762 15.082712005520175  20.376285099123898 16.580196877428747  L 21.016635716671786 16.580196877428747  L 21.016635716671786 12.686107096126793  L 18.515437131264 12.686107096126793  Z M 14.681543047519787 1.2639321376922106  C 15.43500831760225 0.4781720445570367  16.474915976769356 0.03468497666644774  17.561296473763676 0.035810205908684514  C 19.77177486421481 0.03598449926231244  21.563629596239558 1.835140780925609  21.563629596239558 4.054452258702121  C 21.563629596239558 6.273886986333084  19.771583282913216 8.0730943238885  17.5609821263375 8.0730943238885  C 16.585116553709895 8.0730943238885  15.642866882455735 7.7151618901596075  14.911412489922808 7.06660216238551  L 14.798302131241732 6.962198057984987  L 15.403077709037623 6.325699371353806  C 15.98466519537999 6.882569260821373  16.757479937369787 7.193238902673599  17.56114933478652 7.193238902673599  C 19.288118509636444 7.193238902673599  20.688103637578738 5.7876594285657  20.688103637578738 4.053789277992102  C 20.688103637578738 2.3199191274185043  19.288118509636444 0.9143396533106072  17.56114933478652 0.9143396533106072  C 16.761394520026627 0.9143396533106072  15.992037212489205 1.2219975695110978  15.411287350178382 1.7740469074345542  L 15.310947509542704 1.8747877064743683  L 14.681543047519787 1.2639321376922106  Z M 13.26857565707719 1.6952859208830564  L 15.160437748589192 2.8016030576406585  C 14.908270192867397 3.237075776241411  14.776042306419058 3.7320670090094623  14.777321991653194 4.23578570936673  C 14.777321991653194 4.642412210886696  14.861242589202599 5.035301327141973  15.021786314622055 5.397052367507157  L 15.085638944044328 5.530762875441479  L 13.135397310671353 6.529012622113784  C 12.774832652145765 5.818839051105769  12.587258537393236 5.032901617184335  12.58808910327503 4.23578570936673  C 12.58808910327503 3.3932263027929994  12.79424187210768 2.578141647072712  13.182830697007352 1.8509762413056952  L 13.26857565707719 1.6962017373852647  Z M 16.30994544374403 3.9921761291528517  C 16.30994544374403 3.2638921758410824  16.897939435365263 2.673476445220242  17.623324740665517 2.673387488071463  C 18.34893315178693 2.6733874782334937  18.93702492547592 3.263829269000165  18.93702492547592 3.9921761291528517  C 18.93702492547592 4.72052298930554  18.34893315178693 5.310964780072211  17.623485184609976 5.310964780072211  C 16.897939435365256 5.310875813085463  16.30994544374403 4.720460082464623  16.30994544374403 3.9921761291528517  Z M 18.148639163351262 3.9921761291528517  C 18.148639163351262 3.700877170579187  17.91346429498809 3.4647169372400515  17.623324740665517 3.4646606786230776  C 17.333044080134105 3.4646606687851094  17.097807370658508 3.700837385091777  17.097807370658508 3.9921761291528517  C 17.097807370658508 4.283514873213927  17.333044080134105 4.519691589520595  17.62322326700489 4.519691589520595  C 17.91346429498809 4.519635321065653  18.148639163351262 4.283475087726517  18.148639163351262 3.9921761291528517  Z " fill-rule="nonzero" fill="#ffffff" stroke="none" transform="matrix(1 0 0 1 303 485 )" />
  </g>
</svg>