<?xml version="1.0" encoding="utf-8"?>
<svg version="1.1" xmlns:xlink="http://www.w3.org/1999/xlink" width="32px" height="22px" xmlns="http://www.w3.org/2000/svg">
  <g transform="matrix(1 0 0 1 -280 -764 )">
    <path d="M 9.089488636363638 1.8017743644067794  C 9.259943181818183 2.1914062499999987  9.632812500000002 2.4208156779661016  10.026988636363637 2.4208156779661016  C 10.169034090909092 2.4208156779661016  10.314630681818182 2.391684322033897  10.453125 2.3261387711864407  L 10.8046875 2.1622748940677967  C 11.323153409090908 1.9219412076271187  11.550426136363637 1.2956170550847457  11.316051136363637 0.7639698093220338  C 11.081676136363633 0.23232256355932202  10.47088068181818 -0.0007282838983057471  9.952414772727273 0.2396054025423729  L 9.600852272727273 0.4034692796610169  C 9.082386363636363 0.6438029661016936  8.855113636363637 1.2701271186440677  9.089488636363638 1.8017743644067794  Z M 31.83096590909091 13.447033898305085  C 31.589488636363637 12.911745233050846  30.978693181818183 12.67869438559322  30.46377840909091 12.922669491525424  L 16.021306818181817 19.702992584745765  L 1.5788352272727273 12.587658898305085  C 1.0674715909090908 12.33640095338983  0.453125 12.554886122881356  0.20454545454545456 13.082891949152541  C -0.040482954545454544 13.607256355932202  0.17258522727272727 14.237221927966104  0.6875 14.492121292372884  L 15.566761363636363 21.82229872881356  C 15.708806818181818 21.891485699152543  15.861505681818182 21.9278998940678  16.014204545454547 21.9278998940678  C 16.159801136363637 21.9278998940678  16.305397727272727 21.89512711864407  16.443892045454547 21.833222987288135  L 31.32315340909091 14.845338983050848  C 31.841619318181817 14.60136387711864  32.06889204545455 13.975039724576272  31.83096590909091 13.447033898305085  Z " fill-rule="nonzero" fill="#7f7f7f" stroke="none" transform="matrix(1 0 0 1 280 764 )" />
  </g>
</svg>