<?xml version="1.0" encoding="utf-8"?>
<svg version="1.1" xmlns:xlink="http://www.w3.org/1999/xlink" width="32px" height="16px" xmlns="http://www.w3.org/2000/svg">
  <g transform="matrix(1 0 0 1 -281 -762 )">
    <path d="M 0.1015625 7.824712643678161  C 0.1015625 8.230603448275861  0.33593749999999967 8.600574712643677  0.6981534090909087 8.772988505747126  L 15.577414772727273 15.744971264367816  C 15.715909090909092 15.809626436781606  15.861505681818182 15.841954022988508  16.01065340909091 15.841954022988508  C 16.152698863636367 15.841954022988508  16.29474431818182 15.8132183908046  16.42613636363637 15.752155172413795  L 31.305397727272727 9.117816091954023  C 31.67471590909091 8.952586206896552  31.916193181818183 8.582614942528735  31.919744318181817 8.173132183908047  C 31.923295454545453 7.7636494252873565  31.685369318181817 7.390086206896551  31.319602272727273 7.217672413793102  L 16.110085227272727 0.19181034482758622  C 15.840198863636363 0.06609195402298851  15.527698863636367 0.06609195402298851  15.2578125 0.19181034482758622  L 12.899857954545457 1.276580459770115  C 12.381392045454545 1.513649425287357  12.15411931818182 2.1314655172413794  12.38849431818182 2.655890804597701  C 12.62286931818182 3.180316091954023  13.233664772727275 3.4102011494252875  13.752130681818185 3.173132183908046  L 15.683948863636363 2.2859195402298855  L 24.50497159090909 6.362787356321839  L 28.379261363636363 8.147988505747126  L 16.021306818181817 13.658045977011493  L 12.360085227272727 11.941091954022989  L 3.599431818181819 7.835488505747125  L 7.321022727272728 6.122126436781608  C 7.839488636363638 5.885057471264367  8.066761363636365 5.267241379310343  7.832386363636363 4.742816091954022  C 7.598011363636362 4.2183908045977  6.987215909090909 3.9885057471264354  6.46875 4.2255747126436765  L 0.7052556818181818 6.880028735632184  C 0.33948863636363635 7.048850574712643  0.1015625 7.41882183908046  0.1015625 7.824712643678161  Z " fill-rule="nonzero" fill="#7f7f7f" stroke="none" transform="matrix(1 0 0 1 281 762 )" />
  </g>
</svg>