<?xml version="1.0" encoding="utf-8"?>
<svg version="1.1" xmlns:xlink="http://www.w3.org/1999/xlink" width="32px" height="10px" xmlns="http://www.w3.org/2000/svg">
  <g transform="matrix(1 0 0 1 -280 -782 )">
    <path d="M 31.83096590909091 1.0922475961538516  C 31.589488636363637 0.5438701923076978  30.978693181818183 0.3034855769230824  30.46377840909091 0.5513822115384616  L 16.021306818181817 7.548828125  L 1.5788352272727273 0.20582932692307693  C 1.0674715909090908 -0.053335336538461536  0.453125 0.1720252403846154  0.20454545454545456 0.7166466346153846  C -0.040482954545454544 1.2575120192307692  0.17258522727272727 1.907301682692313  0.6875 2.170222355769236  L 15.566761363636363 9.731069711538467  C 15.708806818181818 9.802433894230774  15.861505681818182 9.83999399038462  16.014204545454547 9.83999399038462  C 16.159801136363637 9.83999399038462  16.305397727272727 9.80618990384616  16.443892045454547 9.74233774038462  L 31.32315340909091 2.534555288461544  C 31.841619318181817 2.282902644230775  32.06889204545455 1.636868990384621  31.83096590909091 1.0922475961538516  Z " fill-rule="nonzero" fill="#7f7f7f" stroke="none" transform="matrix(1 0 0 1 280 782 )" />
  </g>
</svg>