<?xml version="1.0" encoding="utf-8"?>
<svg version="1.1" xmlns:xlink="http://www.w3.org/1999/xlink" width="16px" height="18px" xmlns="http://www.w3.org/2000/svg">
  <g transform="matrix(1 0 0 1 -438 -180 )">
    <path d="M 13.12913656069364 14.396038229695431  L 15.300523843930632 14.396038229695431  C 15.67073220342252 14.396038229695431  15.970845375722542 14.099543173051314  15.970845375722542 13.733797985406094  C 15.970845375722542 13.36805279776087  15.67073220342252 13.071557741116752  15.300523843930632 13.071557741116752  L 14.340281791907515 13.071557741116752  L 14.340281791907518 7.945258962563451  C 14.34013001341941 5.041671595641306  12.349071146222636 2.50700157979793  9.502077312138729 1.7860981123096444  C 9.510114070399144 1.7216432536121322  9.514143786127168 1.6567622710605732  9.514143786127168 1.5918202175046743  C 9.514143786127168 0.7142150881965957  8.794022597167327 0.0027755633168566594  7.905708092485549 0.0027755633168566594  C 7.017393587803769 0.0027755633168566594  6.297272398843932 0.7142150881965957  6.297272398843932 1.5918202175046743  C 6.297272398843932 1.6567622710605732  6.301302114571953 1.7216432536121322  6.309338872832371 1.7860981123096444  C 3.4632988308757273 2.507914882315476  1.4734072509704839 5.042357412551876  1.4735368497109838 7.945258962563451  L 1.4735368497109838 13.07155774111675  L 0.6741329479768786 13.07155774111675  C 0.303929576605926 13.071557741116752  0.0038204479768783827 13.368048802839738  0.0038204479768783827 13.733789062500001  C 0.0038204479768783827 14.099529322160262  0.3039295766059247 14.396020383883247  0.6741329479768786 14.396020383883247  L 3.379533959537572 14.396020383883247  L 3.379533959537572 14.393646890862943  L 13.129154624277456 14.393646890862943  L 13.129154624277456 14.396020383883247  Z M 5.493840317919076 15.890535770939088  C 5.666717423960423 17.075602420479402  6.694581345769071 17.955215679496597  7.90650289017341 17.955215679496597  C 9.11842443457775 17.955215679496597  10.146288356386398 17.075602420479402  10.319165462427744 15.890535770939087  L 5.49385838150289 15.890535770939087  Z " fill-rule="nonzero" fill="#000000" stroke="none" transform="matrix(1 0 0 1 438 180 )" />
  </g>
</svg>