<?xml version="1.0" encoding="utf-8"?>
<svg version="1.1" xmlns:xlink="http://www.w3.org/1999/xlink" width="158px" height="38px" xmlns="http://www.w3.org/2000/svg">
  <g transform="matrix(1 0 0 1 -121 -589 )">
    <path d="M 122 592  A 2 2 0 0 1 124 590 L 276 590  A 2 2 0 0 1 278 592 L 278 624  A 2 2 0 0 1 276 626 L 124 626  A 2 2 0 0 1 122 624 L 122 592  Z " fill-rule="nonzero" fill="#000000" stroke="none" />
    <path d="M 121.5 592  A 2.5 2.5 0 0 1 124 589.5 L 276 589.5  A 2.5 2.5 0 0 1 278.5 592 L 278.5 624  A 2.5 2.5 0 0 1 276 626.5 L 124 626.5  A 2.5 2.5 0 0 1 121.5 624 L 121.5 592  Z " stroke-width="1" stroke="#f2f2f2" fill="none" stroke-opacity="0.3607843137254902" />
  </g>
</svg>