<?xml version="1.0" encoding="utf-8"?>
<svg version="1.1" xmlns:xlink="http://www.w3.org/1999/xlink" width="18px" height="18px" xmlns="http://www.w3.org/2000/svg">
  <g transform="matrix(1 0 0 1 -312 -599 )">
    <path d="M 12.214285714285715 0.9642857142857142  C 11.96773002047075 0.9642857142857142  11.76785713936942 0.7644128331843829  11.76785713936942 0.5178571393694198  C 11.76785713936942 0.27130144555445646  11.96773002047075 0.07142856445312543  12.214285714285715 0.07142856445312543  L 14.801785714285716 0.07142856445312505  C 16.528878404427957 0.07216800765759526  17.928571593840704 1.472460722992506  17.928571435546875 3.199553571428571  L 17.928571435546875 5.993303571428571  C 17.928571435546875 6.239859265243534  17.728698554445543 6.439732146344866  17.48214286063058 6.439732146344866  C 17.235587166815616 6.439732146344866  17.035714285714285 6.239859265243534  17.035714285714285 5.993303571428571  L 17.035714285714285 3.199553571428571  C 17.035714507210354 1.9655720566644732  16.035767007553762 0.965025068099213  14.801785714285716 0.9642857142857142  L 12.21383929268973 0.9642857142857142  Z M 17.035714285714285 12.43125  C 17.035714285714285 12.184694306185037  17.235587166815616 11.984821425083705  17.48214286063058 11.984821425083705  C 17.728698554445543 11.984821425083705  17.928571435546875 12.184694306185037  17.928571435546875 12.43125  L 17.928571435546875 14.801339292689725  C 17.92906465942341 16.52779456276366  16.530026603742375 17.92783192509145  14.803571421595981 18  L 3.196428578404017 18  C 1.4723214425223212 17.928571435546875  0.07142858537946381 16.526785714285715  0.07142856445312468 14.806249993024554  L 0.07142856445312468 12.237499993024555  C 0.07142856445312468 11.990944299209593  0.27130144555445607 11.79107141810826  0.5178571393694191 11.79107141810826  C 0.7644128331843826 11.79107141810826  0.9642857142857135 11.990944299209593  0.9642857142857135 12.237499993024555  L 0.9642857142857135 14.80624999302455  C 0.9669910847453179 16.037472265408546  1.965203945172062 17.034487270406522  3.196428578404017 17  L 14.803571421595981 17  C 16.035714278738837 17.035714285714285  17.035714285714285 16.035267857142856  17.035714285714285 14.801339292689732  L 17.035714285714285 12.430803578404019  Z M 0.9642857142857142 3.200446435546875  L 0.9642857142857142 5.88303572126116  C 0.9642857142857142 6.129591415076123  0.7644128331843829 6.3294642961774565  0.5178571393694198 6.3294642961774565  C 0.27130144555445646 6.3294642961774565  0.07142856445312543 6.129591415076123  0.07142856445312505 5.88303572126116  L 0.07142856445312505 3.199999993024553  C 0.07142856445312505 1.4727678641183033  1.4700892926897324 0.07142856445312505  3.1955357142857137 0.07142856445312505  L 5.889285707310267 0.07142856445312505  C 6.135841401125231 0.07142856445312468  6.335714282226563 0.27130144555445607  6.335714282226563 0.5178571393694195  C 6.335714282226563 0.7644128331843829  6.135841401125231 0.9642857142857142  5.889285707310267 0.9642857142857142  L 3.1955357142857137 0.9642857142857142  C 1.9628891896622163 0.96551673894655  0.9642841067699511 1.965119610989039  0.9642841067699511 3.1977667503148486  C 0.9642841067699511 3.19865997896632  0.964284642608635 3.199553207538293  0.9642857142857142 3.200446435546875  Z M 17.48214285016741 9.446428564453125  L 0.5178571498325892 9.446428564453125  C 0.27130146179627534 9.446428564453125  0.07142858537946342 9.246555688036315  0.07142858537946342 9  C 0.07142858537946342 8.753444311963683  0.2713014617962746 8.553571435546875  0.5178571498325892 8.553571435546875  L 17.48214285016741 8.553571435546875  C 17.728698538203727 8.553571435546875  17.928571414620535 8.753444311963685  17.928571414620535 9  C 17.928571414620535 9.246555688036315  17.728698538203727 9.446428564453125  17.48214285016741 9.446428564453125  Z " fill-rule="nonzero" fill="#ffffff" stroke="none" transform="matrix(1 0 0 1 312 599 )" />
  </g>
</svg>