<?xml version="1.0" encoding="utf-8"?>
<svg version="1.1" xmlns:xlink="http://www.w3.org/1999/xlink" width="20px" height="23px" xmlns="http://www.w3.org/2000/svg">
  <g transform="matrix(1 0 0 1 -537 -610 )">
    <path d="M 12.837641178097346 21.146543517036893  C 13.021975974834072 20.20159120152485  14.026898022676992 19.51731535791604  15.233993708517701 19.51731535791604  C 15.311295388550885 19.51731535791604  15.394543383573007 19.521970292498118  15.471845098174779 19.526625227080196  L 15.33508054480089 19  L 2.907346480918144 19  C 2.4792140141039845 19.359047473879894  2.1164906664823024 19.07509627494353  2.1164906664823024 18.739940768542922  L 2.1164906664823024 2.6012722079725146  C 2.1164906664823024 2.2661167015719124  2.4792140141039845 1.9821655026355416  2.907346480918144 2  L 17.02977157079646 2  C 17.457904037610618 1.9821655296969127  17.820627385232303 2.266116728633283  17.820627350663717 2.6012722079725155  L 17.820627350663717 15.002025917733432  C 18.19524325912611 14.82513829536898  18.629322006360617 14.72738458796122  19.069347068584076 14.72738458796122  C 19.206111621957966 14.72738458796122  19.342876140763277 14.736694457125378  19.47369437914823 14.750659287932983  C 19.598566337112835 14.611011169286519  19.75316973174779 14.49463772355045  20 14.38291921239646  L 20 2.3964549510542175  C 19.919665687223453 1.1442767366340367  18.629322006360624 0.1341552828501506  17.02977157079646 0.12950037532944308  L 2.907346480918141 0.12950037532944308  C 1.3077960107853983 0.12950037532944308  0.01745232992256577 1.144276763695407  0 2.3964549510542175  L 0 20.59726088455384  C 0.0174523299225664 21.849439098974017  1.3077960107853983 22.85956055275791  2.907346480918141 22.86421546027861  L 13.48578615873894 22.86421546027861  C 12.974405696902656 22.403376638977782  12.712769220132746 21.77961499905873  12.837641178097346 21.146543517036893  Z " fill-rule="nonzero" fill="#ffffff" stroke="none" transform="matrix(1 0 0 1 537 610 )" />
  </g>
</svg>