<?xml version="1.0" encoding="utf-8"?>
<svg version="1.1" xmlns:xlink="http://www.w3.org/1999/xlink" width="16px" height="11px" xmlns="http://www.w3.org/2000/svg">
  <g transform="matrix(1 0 0 1 -550 -624 )">
    <path d="M 15.56542545138889 5.455184654017854  C 16.061160555555553 6.079119754464284  15.995460729166664 6.847039899553571  15.45194392361111 7.312591489955358  C 15.720715972222221 7.787742075892859  15.56542545138889 8.339684681919643  15.057744930555554 8.603657226562499  L 11.020191493055558 10.725036607142856  C 10.518483680555558 10.98420965401786  9.849539895833333 10.888219642857146  9.413531909722224 10.518658063616073  C 9.323941215277777 10.557054073660717  9.228377847222221 10.595450083705357  9.132814444444445 10.614648074776786  C 8.870015104166669 10.739435100446428  8.5415159375 10.777831110491073  8.207044062500001 10.705838588169648  L 2.2462773263888898 9.43877036830357  C 1.5295518750000003 9.285186328125  1.0397894791666684 8.685248744419646  1.153271006944447 8.094910128348216  C 1.2667525347222257 7.504571512276787  1.9416690277777813 7.1494084542410725  2.6583944444444443 7.302992494419645  L 5.364033090277781 7.878932589285715  L 5.268469687500005 7.763744559151787  L 4.808570833333336 7.2022029575892885  L 0.31111857638889484 1.682776981026789  C -0.11891670138888408 1.159631389508931  0.012482951388895143 0.4829017578125031  0.603781458333338 0.17093423549107456  C 1.189107256944448 -0.13623381696428435  2.013341527777786 0.03654821428571811  2.44337680555556 0.559693777901787  L 5.2386061111111175 3.9961364118303573  C 4.814543541666674 3.4729908203124995  4.939970486111118 2.7962611886160733  5.531269027777782 2.48429363839286  C 6.1225675347222275 2.177125585937501  6.940829097222225 2.3499076171875037  7.370864375000009 2.8730532087053575  L 7.633663715277787 3.194619754464286  C 7.209601145833343 2.6714741629464305  7.335028090277784 1.9947445312500025  7.926326597222229 1.682776981026789  C 8.51165239583334 1.37560892857143  9.335886666666672 1.5483909598214325  9.765921944444452 2.0715365513392863  L 10.088448402777784 2.4746946428571466  C 9.664385833333341 1.9515490513392888  9.789812777777787 1.274819419642861  10.381111284722227 0.9628518694196454  C 10.972409791666673 0.6556838169642885  11.79067135416667 0.8284658482142869  12.220706631944454 1.351611439732145  L 13.331631111111115 2.714669670758927  L 14.329074027777779 3.9385423828125  L 15.56542545138889 5.455184654017854  Z " fill-rule="nonzero" fill="#ffffff" stroke="none" transform="matrix(1 0 0 1 550 624 )" />
  </g>
</svg>