<?xml version="1.0" encoding="utf-8"?>
<svg version="1.1" xmlns:xlink="http://www.w3.org/1999/xlink" width="13px" height="11px" xmlns="http://www.w3.org/2000/svg">
  <g transform="matrix(1 0 0 1 -540 -614 )">
    <path d="M 9.972553411627436 5.875536132812503  L 8.253895771611202 4.678156684895835  C 8.236879370434254 4.564824458333335  8.191502267654222 4.466274713541668  8.117764496245943 4.382507421874999  L 8.628256828327924 1.6181869114583345  C 8.645273229504872 1.514709682291667  8.571535458096593 1.4161599088541676  8.452420583908278 1.3915224869791682  L 8.44674845018263 1.3915224869791682  C 8.32763357599432 1.3668850364583343  8.21419080255682 1.4260149062500012  8.180158000202923 1.5294921354166675  L 7.244255308948863 4.210045354166667  C 7.011697661323052 4.3085950989583335  6.8528778180803585 4.515549585937501  6.852877851055195 4.756996463541666  C 6.852877851055195 5.092065630208334  7.1705175375405865 5.368004927083333  7.556222894683441 5.368004927083333  C 7.629960666091722 5.368004927083333  7.698026336749187 5.358149958333334  7.760419840706169 5.338439992187501  L 9.711635095373378 6.220460268229167  C 9.819405702110389 6.269735140625  9.94986487672484 6.240170205729169  10.017930514407471 6.151475458333335  L 10.023602648133119 6.146547945312502  C 10.091668285815746 6.057853169270836  10.068979750913151 5.939593458333334  9.972553411627436 5.875536132812503  Z M 7.556222894683441 5.052645726562502  C 7.369042349837662 5.052645726562502  7.2102225065949686 4.914676078125001  7.2102225065949686 4.752068979166667  C 7.2102225065949686 4.584534395833335  7.369042349837662 4.4514922317708345  7.556222894683441 4.4514922317708345  C 7.749075573254872 4.4514922317708345  7.902223282771918 4.589461880208335  7.902223249797078 4.752068979166667  C 7.902223249797078 4.9196035625  7.749075540280033 5.052645726562502  7.556222894683441 5.052645726562502  Z M 7.561895028409094 0.1448681380208353  C 10.483045776684257 0.1448681380208353  12.859671324573867 2.209485408854168  12.859671324573867 4.752068979166667  C 12.859671324573867 6.801903796874999  11.311177828226466 8.541306898437503  9.178454162439126 9.137532908854169  L 9.178454162439126 8.482177057291668  C 10.908456069906658 7.9105884973958345  12.144982013494321 6.456979690104167  12.144982013494321 4.752068979166667  C 12.144982013494321 2.5544095442708348  10.0859961520901 0.7657315703125015  7.556222894683447 0.7657315703125015  C 5.026449637276789 0.7657315703125015  2.9674637758725706 2.5544095442708348  2.9674637428977326 4.752068979166667  C 2.9674637428977326 4.973805919270835  2.9901522778003313 5.190615375000002  3.029857246854714 5.397569861979166  L 2.3094958020495175 5.397569861979166  C 2.2754629667207853 5.185687890624999  2.258446565543835 4.968878434895833  2.258446565543835 4.752068979166667  C 2.258446565543835 2.2144128932291673  4.635072113433448 0.1448681380208353  7.561895028409094 0.1448681380208353  Z M 6.847205717329544 6.624514244791666  L 8.480781285511366 8.033775692708335  C 8.58287975852273 8.12247046875  8.645273262479709 8.245657664062502  8.645273262479709 8.373772315104167  L 8.645273262479709 8.634929158854167  L 0.05198512834821447 8.634929158854167  L 0.05198512834821447 6.220460268229167  C 0.05198512834821447 6.018433265624999  0.23916567319399368 5.8607536796875  0.46605115411931763 5.8607536796875  L 5.219302282873377 5.8607536796875  C 5.451859930499188 5.8607536796875  5.63904044237013 6.023360778645833  5.63904044237013 6.220460268229167  L 5.63904044237013 6.486544596354167  L 6.4615003601866885 6.486544596354167  C 6.603303802252434 6.486544596354167  6.745107244318181 6.535819468750001  6.847205717329544 6.624514244791666  Z M 6.194909910206985 8.078123080729169  L 7.7717641081574715 8.078123080729169  C 7.828485478388804 8.078123080729169  7.856846179991886 8.014065755208335  7.817141210937503 7.984500820312501  L 6.540910298295456 6.925090992187504  C 6.529566030844158 6.9152360234375045  6.512549596692373 6.910308539062502  6.495533195515424 6.910308539062502  L 6.194909910206985 6.910308539062502  C 6.160877074878251 6.910308539062502  6.132516406250005 6.934945989583337  6.132516406250005 6.964510895833335  L 6.132516406250005 8.023920723958337  C 6.132516406250005 8.05348565885417  6.1608771078530875 8.078123080729169  6.194909910206985 8.078123080729169  Z M 8.645273262479709 9.635209145833333  L 8.645273262479712 8.836956161458334  L 0.05198512834821447 8.836956161458334  L 0.05198512834821447 9.635209145833333  C 0.05198512834821447 9.83230863541667  0.23916567319399368 9.994915734375002  0.46605115411931763 9.994915734375002  L 1.0219206219561685 9.994915734375002  C 1.1013305600649352 9.516949434895833  1.5777900897930195 9.147387877604169  2.1506759588068176 9.147387877604169  C 2.723561827820616 9.147387877604169  3.2000213575487004 9.516949434895839  3.2794312956574685 9.994915734375002  L 5.5312698356331165 9.994915734375002  C 5.610679773741884 9.516949434895833  6.08713930346997 9.147387877604169  6.660025172483767 9.147387877604169  C 7.232911041497566 9.147387877604169  7.709370571225651 9.516949434895839  7.788780509334418 9.994915734375002  L 8.231207236708604 9.994915734375002  C 8.45809271763393 9.994915734375002  8.645273262479709 9.83230863541667  8.645273262479709 9.635209145833333  Z M 5.797860285612827 10.137812867187503  C 5.797860285612827 9.723903921875005  6.183565642755686 9.388834755208334  6.66002517248377 9.388834755208334  C 7.136484702211854 9.388834755208334  7.52219005935471 9.723903921875001  7.52219005935471 10.137812867187503  C 7.52219005935471 10.5517218125  7.136484702211854 10.88679097916667  6.66002517248377 10.88679097916667  C 6.183565642755686 10.88679097916667  5.797860285612827 10.551721812500004  5.797860285612827 10.137812867187503  Z M 7.0911075994318225 10.137812867187499  C 7.0911075994318225 10.344767354166667  6.898254920860395 10.512301908854166  6.66002517248377 10.512301908854166  C 6.421795391132308 10.512301908854166  6.228942745535717 10.344767325520833  6.228942745535717 10.137812867187499  C 6.228942745535717 9.930858380208331  6.421795424107144 9.763323825520832  6.66002517248377 9.763323825520832  C 6.898254953835231 9.763323825520832  7.0911075994318225 9.930858408854167  7.0911075994318225 10.137812867187499  Z M 1.2885110719358763 10.137812867187503  C 1.2885110719358763 9.723903921875005  1.6742164290787336 9.388834755208334  2.1506759588068176 9.388834755208334  C 2.6271354885349023 9.388834755208334  3.012840845677759 9.723903921875001  3.012840845677759 10.137812867187503  C 3.012840845677759 10.5517218125  2.6271354885349023 10.88679097916667  2.1506759588068176 10.88679097916667  C 1.6742164290787336 10.88679097916667  1.2885110719358763 10.551721812500004  1.2885110719358763 10.137812867187503  Z M 2.5817584187297076 10.137812867187499  C 2.5817584187297076 10.344767354166667  2.38890574015828 10.512301908854166  2.1506759588068176 10.512301908854166  C 1.912446177455356 10.512301908854166  1.719593531858766 10.344767325520833  1.719593531858766 10.137812867187499  C 1.719593531858766 9.930858380208331  1.9124462104301954 9.763323825520832  2.1506759588068176 9.763323825520832  C 2.38890574015828 9.763323825520832  2.581758385754871 9.930858408854167  2.5817584187297076 10.137812867187499  Z " fill-rule="nonzero" fill="#ffffff" stroke="none" transform="matrix(1 0 0 1 540 614 )" />
  </g>
</svg>