<?xml version="1.0" encoding="utf-8"?>
<svg version="1.1" xmlns:xlink="http://www.w3.org/1999/xlink" width="28px" height="25px" xmlns="http://www.w3.org/2000/svg">
  <g transform="matrix(1 0 0 1 -627 -608 )">
    <path d="M 26.71636284722222 8.661009022887326  L 26.71636284722222 3.180017605633803  C 26.71636284722222 2.5403003961267623  26.66037326388889 1.4669069102112675  26.28441840277778 1.4669069102112675  L 24.94383680555555 1.4669069102112675  C 24.567968750000002 1.4669069102112675  24.51171875 2.5403003961267623  24.51171875 3.180017605633803  L 24.51171875 8.625247579225354  L 22.69292534722222 8.625247579225354  L 22.69292534722222 7.829968089788733  C 22.69292534722222 6.75141670334507  22.506727430555554 6.626733054577468  22.366449652777774 6.626733054577468  L 21.696310763888885 6.626733054577468  C 21.556380208333326 6.626733054577468  21.370052083333324 6.75141670334507  21.370052083333324 7.829968089788733  L 21.370052083333324 8.625247579225354  L 19.826822916666664 8.625247579225354  L 19.826822916666664 3.1419179137323936  C 19.826822916666664 1.5508087588028119  19.41215277777778 0.3509435519366217  18.86215277777778 0.3509435519366217  L 14.147743055555557 0.3509435519366217  C 13.597743055555554 0.3509435519366217  13.182899305555551 1.550808758802817  13.182899305555551 3.1419179137323936  L 13.182899305555551 6.486300616197182  L 11.50217013888889 6.486300616197182  C 10.970052083333334 6.486300616197182  10.537109375 7.40818937059859  10.537109375 8.541208186619716  L 10.537109375 16.155369718309856  L 9.3640625 16.155369718309856  C 9.311848958333332 16.155369718309856  9.26640625 16.16107779489436  9.225781250000002 16.170637103873236  L 9.225781250000002 8.593062279929578  C 9.225781250000002 7.464169784330986  8.660069444444446 6.545513314260562  7.964670138888891 6.545513314260562  L 1.3741319444444444 6.545513314260562  C 0.6786458333333327 6.545513314260562  0.11319444444444414 7.464307328345068  0.11319444444444414 8.593131051936618  L 0.11319444444444414 19.320395026408452  C 0.11319444444444414 20.449631382042256  0.6786458333333327 21.36842539612676  1.3740451388888901 21.36842539612676  L 7.964670138888891 21.36842539612676  C 8.660112847222226 21.36842539612676  9.225781250000002 20.449631382042256  9.225781250000002 19.320395026408452  L 9.225781250000002 17.55591164172535  C 9.266362847222226 17.565539722711264  9.311848958333332 17.57117902728873  9.3640625 17.57117902728873  L 10.537109375 17.57117902728873  L 10.537109375 19.313449053697177  C 10.537109375 20.44653664172535  10.970052083333334 21.368356624119713  11.50217013888889 21.368356624119713  L 12.104036458333333 21.368356624119713  C 12.218880208333333 21.368356624119713  12.314453125 21.226686289612672  12.323784722222223 21.04237731073943  C 12.436848958333332 18.785486355633797  13.630208333333334 17.017151738556336  15.040668402777776 17.017151738556336  C 16.45138888888889 17.017151738556336  17.64474826388889 18.785486355633797  17.75755208333333 21.04237731073943  C 17.76666666666667 21.22668628961267  17.862282986111108 21.368356624119713  17.977343749999996 21.368356624119713  L 20.299826388888885 21.368356624119713  C 20.414843749999996 21.368356624119713  20.51046006944444 21.226686289612672  20.519574652777774 21.04237731073943  C 20.63250868055555 18.785142495598585  21.85802951388888 17.016739106514084  23.309071180555552 17.016739106514084  L 23.342404513888887 17.017082966549292  C 24.76601562499999 17.04356018926056  25.882899305555554 18.736383142605632  25.998307291666663 21.04251485475352  C 26.007421874999995 21.226686289612672  26.10303819444444 21.368494168133804  26.21809895833333 21.368494168133804  L 26.42495659722222 21.368494168133804  C 27.23398437499999 21.368494168133804  27.892317708333323 20.561798525528168  27.892317708333323 19.570106183978872  L 27.892317708333323 10.423429247359154  C 27.892317708333323 9.554288622359158  27.38632812499999 8.82723096390845  26.716406249999995 8.661146566901408  Z M 1.7978732638888886 14.924900968309865  C 1.6959635416666667 14.443634463028168  2.063324652777777 14.0012929137324  2.063324652777777 14.0012929137324  C 2.063324652777777 14.0012929137324  1.8486979166666657 13.480895136443669  2.0597222222222213 13.004924075704233  C 2.310677083333333 12.439480633802827  2.885503472222222 12.59057273327466  3.238324652777777 12.859471280809867  C 3.6603298611111117 13.178298305457753  3.987803819444442 13.771869498239454  3.9623697916666663 13.984581316021139  C 3.9332031249999995 14.26448338468311  3.507508680555555 14.16373239436621  3.4857204861111106 14.292542363556349  C 3.445789930555553 14.550024757922547  3.885894097222222 14.673126650528175  3.8822916666666663 14.88604478433099  C 3.87868923611111 15.109828895246485  3.362065972222221 15.34496038732395  2.9473958333333314 15.529750770246489  C 2.47439236111111 15.736960827464802  1.9177951388888865 15.507468639964797  1.7977864583333312 14.924969740316909  Z M 4.51892361111111 18.05437114876761  C 4.260677083333333 18.687073613556343  3.7404947916666655 18.905287191901415  3.4785590277777785 18.815952354753524  C 3.212934027777779 18.726067341549292  3.2093750000000005 18.087931888204224  3.2093750000000005 18.087931888204224  C 3.2093750000000005 18.087931888204224  2.918315972222222 18.317424075704224  2.7217881944444446 18.05994168133802  C 2.5255208333333345 17.802459286971825  2.5145399305555554 17.231238996478872  2.623611111111111 16.70513314260563  C 2.7364583333333328 16.16788622359154  3.0601128472222223 15.764813490316893  3.2566406250000015 15.619085607394357  C 3.456727430555557 15.473632812499991  3.991449652777779 15.32247194102112  4.060546875 15.467993507922529  C 4.129730902777778 15.613446302816895  4.0023871527777795 16.06149592869717  4.082378472222222 16.11169949383802  C 4.176996527777778 16.173456756161965  4.457118055555556 15.742187499999986  4.504383680555555 15.731115206866189  C 4.551779513888889 15.714472381161965  4.617317708333333 15.775817011443655  4.664539930555555 16.106128961267594  C 4.711935763888889 16.43100792253521  4.777387152777779 17.42744553257041  4.518967013888889 18.054302376760553  Z M 4.628038194444445 13.452836157570427  C 4.442621527777778 13.525528169014093  4.3988715277777795 12.87604533450705  4.311631944444443 12.920747139084515  C 4.227864583333332 12.960084727112687  4.235243055555555 13.380144146126764  4.1625 13.435849471830993  C 4.089756944444445 13.491829885563389  3.6748697916666657 13.066543794014091  3.4165798611111122 12.551441461267613  C 3.125781250000001 11.969355193661977  3.063715277777779 11.347931338028177  3.362152777777778 10.922232614436627  C 3.6059461805555566 10.56963853433099  3.9769097222222225 10.670527068661979  3.9769097222222225 10.670527068661979  C 3.9769097222222225 10.670527068661979  4.2606336805555545 9.909220950704233  4.631857638888887 10.049309529049301  C 5.079340277777776 10.2171132262324  5.297395833333332 10.883238886443666  5.286501736111111 11.465325154049301  C 5.283029513888889 12.120516065140848  4.813671874999999 13.380144146126764  4.628081597222222 13.452836157570427  Z M 7.007378472222222 17.142041703345075  C 6.818142361111112 17.63465558978874  6.305121527777778 17.455642055457748  6.305121527777778 17.455642055457748  C 6.305121527777778 17.455642055457748  6.356076388888887 17.92556117957746  5.977690972222222 18.18875165052817  C 5.599392361111111 18.452010893485912  5.042881944444444 17.545045664612672  4.8936197916666675 16.94590393926056  C 4.744401041666667 16.352745378521124  4.853689236111112 15.389593419894364  4.929947916666667 15.339389854753518  C 5.006467013888888 15.294688050176056  5.210069444444445 15.64150528169014  5.286414930555557 15.568813270246476  C 5.366493055555558 15.501760563380278  5.111935763888892 15.09311729753521  5.271918402777779 14.924969740316904  C 5.428472222222224 14.757166043133802  6.476128472222222 15.104120818661976  6.810763888888889 15.540823063380286  C 7.072743055555556 15.887915382922543  7.200086805555558 16.66056888204226  7.007378472222222 17.141972931338035  Z M 6.694444444444445 14.533313160211273  C 6.283420138888888 14.779516945422543  5.315711805555554 14.628356073943664  5.195746527777776 14.404503191021128  C 5.075694444444442 14.175011003521131  5.468489583333333 13.867049955985914  5.406684027777778 13.766298965669016  C 5.344704861111111 13.66534165933099  5.090190972222223 13.839059749119723  5.024652777777776 13.760659661091553  C 4.959244791666665 13.682259573063385  5.1703125 12.976658780809863  5.392057291666665 12.42840834066902  C 5.643185763888886 11.806915713028177  6.0359809027777755 11.124009683098594  6.574435763888888 11.538017165492962  C 6.879991319444445 11.773217429577468  6.749088541666665 12.383225132042257  6.749088541666665 12.383225132042257  C 6.749088541666665 12.383225132042257  7.269184027777776 12.529021786971839  7.327387152777776 13.088825924295778  C 7.39292534722222 13.760728433098596  7.061762152777776 14.314824493838035  6.694401041666665 14.533313160211273  Z M 18.062760416666666 7.4859017385563416  C 18.062760416666666 7.665671764964793  17.971831597222224 7.811743507922541  17.860156249999996 7.811743507922541  L 15.179166666666667 7.811743507922541  C 15.06736111111111 7.811743507922541  14.97634548611111 7.665671764964793  14.97634548611111 7.4859017385563416  L 14.97634548611111 3.1818056778169055  C 14.97634548611111 3.0020356514084585  15.06736111111111 2.8560326804577523  15.179210069444444 2.8560326804577523  L 17.860112847222222 2.8560326804577523  C 17.971788194444446 2.8560326804577523  18.06271701388889 3.0021044234155  18.06271701388889 3.1818056778169055  L 18.06271701388889 7.4859017385563416  Z M 23.262326388888884 17.5629951584507  C 21.985937499999995 17.5629951584507  20.947395833333335 19.23023492517606  20.947395833333335 21.279847051056336  C 20.947395833333335 23.329046544894368  21.985937499999995 24.996423855633804  23.262326388888884 24.996423855633804  C 24.538932291666665 24.996423855633804  25.577256944444446 23.329115316901404  25.577256944444446 21.279847051056336  C 25.577256944444446 19.23023492517606  24.538932291666665 17.56292638644366  23.262326388888884 17.56292638644366  Z M 15.031553819444445 17.5629951584507  C 13.755164930555555 17.5629951584507  12.716796875000004 19.23023492517606  12.716796875000004 21.279847051056336  C 12.716796875000004 23.329046544894368  13.755164930555555 24.996423855633804  15.031553819444445 24.996423855633804  C 16.308116319444448 24.996423855633804  17.346484375000003 23.329115316901404  17.346484375000003 21.279847051056336  C 17.346484375000003 19.23023492517606  16.308116319444448 17.56292638644366  15.031553819444445 17.56292638644366  Z " fill-rule="nonzero" fill="#ffffff" stroke="none" transform="matrix(1 0 0 1 627 608 )" />
  </g>
</svg>