<?xml version="1.0" encoding="utf-8"?>
<svg version="1.1" xmlns:xlink="http://www.w3.org/1999/xlink" width="23px" height="7px" xmlns="http://www.w3.org/2000/svg">
  <g transform="matrix(1 0 0 1 -720 -626 )">
    <path d="M 4.969135802469135 3.521604942491322  C 4.969135802469135 2.2253086588541695  4.495884764419367 1.145061724175351  3.864883408082562 0.49691356336805287  C 3.3916323700327924 0.28086417643229256  3.076131705729167 0.06481478949652658  2.6028806676793974 0.06481482747395895  C 2.1296296296296293 0.06481482747395895  1.8141289653260024 0.2808642144097193  1.3408779272762343 0.49691356336805287  C 0.5521262249228394 1.145061724175351  0.07887518687307063 2.2253086208767368  0.07887515914351835 3.3055555555555554  C 0.07887515914351835 3.9537037163628477  0.23662550516010808 4.385802452256941  0.3943758511766976 5.03395061306424  C 0.5521261971932871 5.466049386935765  0.867626889226466 5.898148160807292  1.3408779272762343 6.330246896701391  C 2.1296296296296293 6.978395057508685  3.076131705729167 6.978395057508685  3.7071330620659717 6.330246896701391  C 4.495884764419367 5.682098735894094  4.969135802469135 4.601851839192708  4.969135802469135 3.521604942491322  Z M 22.794924541859572 2.009259271918392  C 22.637174195842977 1.577160498046866  22.479423849826386 1.3611111111111  22.32167353153935 0.9290123372395849  C 22.163923185522762 0.7129629503038188  21.848422493489583 0.28086417643229256  21.532921801456403 0.2808642144097193  C 21.217421109423228 0.06481482747395895  20.90192041739005 0.06481482747395895  20.586419753086417 0.06481482747395895  C 19.955418369020066 0.06481482747395895  19.324417012683256 0.4969136013454853  18.85116597463349 0.9290123372395792  C 18.37791493658372 1.5771604980468714  18.22016459056713 2.4413580078124975  18.220164618296685 3.30555555555555  C 18.220164618296685 4.1697531032986035  18.535665310329865 5.033950613064235  18.85116597463349 5.682098773871521  C 19.324417012683263 6.330246934678813  19.955418369020066 6.546296321614573  20.586419753086417 6.546296283637147  C 20.901920445119604 6.546296283637147  21.21742113715278 6.546296283637147  21.532921801456403 6.3302468967013805  C 21.848422493489586 6.114197509765615  22.163923185522762 5.898148122829854  22.32167353153935 5.682098773871516  C 22.47942387755594 5.4660493869357545  22.794924569589124 5.033950613064222  22.794924541859572 4.6018518391926975  C 22.95267488787616 4.169753065321171  22.95267488787616 3.737654291449644  22.95267488787616 3.3055555555555447  C 22.95267488787616 2.873456781684018  22.95267488787616 2.441358007812492  22.794924541859572 2.009259271918392  Z " fill-rule="nonzero" fill="#ffffff" stroke="none" transform="matrix(1 0 0 1 720 626 )" />
  </g>
</svg>