<?xml version="1.0" encoding="utf-8"?>
<svg version="1.1" xmlns:xlink="http://www.w3.org/1999/xlink" width="28px" height="23px" xmlns="http://www.w3.org/2000/svg">
  <g transform="matrix(1 0 0 1 -717 -608 )">
    <path d="M 27.999999999999996 5.131393302021327  L 28 4.928571428571428  L 28 2.4947089828249016  L 27.84444444140625 2.4947089828249016  C 27.22222220703125 2.0890652359250987  24.577777765624997 1.8862433624751984  21.777777765625 1.8862433981274807  L 19.13333332421875 1.8862433981274807  C 15.555555558593753 1.8862433981274807  12.2888888828125 2.0890652715773808  12.2888888828125 2.0890652715773808  C 4.355555558593751 4.117283934771824  0.6222222343749999 17.300705459449404  0.6222222343749999 17.300705459449404  C 0.6222222343749999 17.300705459449404  0.31111111718749995 17.300705459449404  0.15555555859374998 18.111992953249004  C -0.31111111718749995 20.343033525545632  1.0888888828124998 22.168430350942458  1.0888888828124998 22.168430350942458  L 2.1777777656249997 22.168430350942458  L 2.1777777656249997 21.965608477492555  C 2.1777777656249997 21.559964730592753  2.0222222070312497 21.559964730592753  2.0222222343749996 21.357142857142854  C 2.0222222343749996 19.73456790519593  2.95555555859375 18.314814826698903  4.199999999999999 17.909171079799105  C 5.911111117187499 17.503527332899303  7.466666675781248 19.126102284846226  7.466666675781248 21.357142857142854  C 7.466666675781248 21.76278660404266  7.466666675781248 21.559964730592753  7.311111117187497 22  L 18.04444444140625 22  L 18.822222234374998 22.776895935639875  C 19.1333333515625 22.776895935639875  19.599999999999994 22.97971780908978  19.911111117187495 22.97971780908978  C 19.599999999999994 22.371252188740076  19.599999999999994 21.76278660404266  19.599999999999994 21.154320983692948  C 19.599999999999994 20.14021165209573  19.911111117187495 19.328924158296125  20.377777765624995 18.720458537946428  C 20.844444441406242 18.111992917596716  21.622222207031246 17.706349206349202  22.244444441406245 17.706349206349202  C 23.022222207031245 17.706349206349202  23.644444441406247 18.111992953249004  24.26666667578125 18.720458537946428  C 24.733333351562496 19.32892415829613  25.044444441406245 20.34303348989335  25.044444441406245 21.154320983692948  C 25.044444441406245 21.76278660404266  24.888888882812495 22.371252188740076  24.733333324218744 22.97971780908978  C 25.044444441406245 22.97971780908978  25.199999999999996 22.776895935639875  25.511111117187493 22.776895935639875  C 27.222222234374993 21.965608441840278  27.377777792968743 18.51763666449652  27.377777765624987 18.111992953249004  L 27.688888882812492 13.244268061755953  L 27.066666675781242 12.027336856708828  L 27.533333324218745 5.131393302021327  L 27.999999999999996 5.131393302021327  Z M 4.355555558593751 12.230158730158728  L 5.755555558593751 13.244268061755953  L 5.755555558593751 14.258377429005456  C 5.755555558593751 15.272486760602675  5.2888888828125005 16.08377425440228  4.666666675781251 16.48941800130208  C 4.511111117187501 16.692239874751984  4.511111117187501 16.48941800130208  4.355555558593751 16.48941800130208  L 4.044444441406251 16.48941800130208  C 3.42222220703125 16.08377425440228  2.9555555585937507 15.272486796254956  2.9555555585937507 14.258377429005456  L 2.9555555585937507 13.244268061755953  L 3.1111111171875003 13.041446223958332  L 4.355555558593751 12.230158730158728  C 4.355555558593751 12.230158730158728  4.5111111171875 12.230158730158728  4.355555558593751 12.230158730158728  Z M 25.977777765625003 5.53703704892113  L 25.2 14.461199302455356  L 25.2 14.664021175905258  L 24.577777765625 14.664021175905258  C 24.73333332421875 14.055555555555554  25.2 11.013227525111608  25.044444441406252 10.404761904761902  L 23.33333332421875 10.404761904761902  C 23.33333332421875 11.216049398561507  23.177777765625002 12.027336856708828  22.711111117187503 12.83862435050843  C 22.400000000000002 13.649911844308031  21.777777792968752 14.258377429005456  21.311111117187505 14.664021175905258  L 18.5111111171875 14.866843049355158  L 18.5111111171875 15.27248676060268  C 18.2 17.097883585999504  17.888888882812502 17.90917107979911  17.73333332421875 18.31481482669891  L 17.73333332421875 18.517636700148813  L 17.577777765625 18.72045853794643  L 15.088888882812501 18.72045853794643  L 15.088888882812501 16.083774254402286  C 15.244444441406252 15.678130507502484  16.488888882812503 11.418871272011414  16.33333332421875 10.201940031312008  L 15.400000000000002 10.201940031312008  C 15.400000000000002 10.40476190476191  15.244444441406252 12.635802477058538  13.844444441406251 13.649911808655759  C 12.44444444140625 14.055555555555562  10.888888882812502 13.85273368210566  10.888888882812502 14.055555555555562  L 10.888888882812502 18.517636700148817  L 7.93333332421875 18.517636700148817  L 7.93333332421875 14.866843049355166  L 9.95555555859375 12.43298060360864  L 9.64444444140625 11.621693109809035  L 9.799999999999999 11.418871236359134  C 10.1111111171875 11.824514983258934  10.26666667578125 12.027336856708839  10.577777765625001 12.230158730158738  C 10.733333324218751 12.43298060360864  10.8888888828125 12.43298060360864  10.733333324218751 12.027336856708839  C 10.733333324218751 11.824514983258934  10.42222220703125 11.216049362909231  10.1111111171875 10.607583778211813  C 9.64444444140625 9.593474446614591  9.022222234375 8.985008826264888  8.86666667578125 9.187830699714787  C 8.86666667578125 9.39065257316469  9.022222234375 9.999118193514393  9.488888882812498 10.810405651661716  L 9.33333332421875 11.013227525111615  L 9.33333332421875 10.810405651661716  L 9.022222234375 10.404761904761912  L 8.55555555859375 10.404761904761912  L 6.84444444140625 11.824514983258936  L 6.84444444140625 11.621693109809035  L 6.533333324218751 10.201940031312004  C 6.6888888828125 9.999118157862101  10.42222220703125 6.14550263361855  13.377777765625003 5.53703704892113  L 25.977777765625003 5.53703704892113  Z M 13.844444441406251 1.6834215246775808  C 14 1.6834215246775808  14 1.886243398127482  14.15555555859375 1.8862433981274807  L 15.86666667578125 1.8862433981274807  C 16.022222234375 1.8862433981274807  16.17777779296875 1.8862433981274807  16.177777765625002 1.6834215246775808  C 16.33333332421875 1.4805996512276791  16.33333332421875 1.4805996512276791  16.33333332421875 1.2777777777777777  L 16.33333332421875 0.6693121574280761  L 16.33333332421875 0.46649028397817605  C 16.33333332421875 0.46649028397817605  16.33333332421875 0.2636684105282746  16.177777765625002 0.26366844618055674  C 16.02222220703125 0.26366848183283886  16.02222220703125 0.06084657273065663  16.022222234375 0.06084657273065663  L 14.15555555859375 0.06084657273065663  C 14 0.06084657273065663  13.6888888828125 0.26366844618055674  13.6888888828125 0.6693121574280775  L 13.6888888828125 1.2777777777777792  C 13.6888888828125 1.4805996512276791  13.6888888828125 1.4805996512276791  13.844444441406251 1.6834215246775808  Z " fill-rule="nonzero" fill="#ffffff" stroke="none" transform="matrix(1 0 0 1 717 608 )" />
  </g>
</svg>