<?xml version="1.0" encoding="utf-8"?>
<svg version="1.1" xmlns:xlink="http://www.w3.org/1999/xlink" width="3px" height="3px" xmlns="http://www.w3.org/2000/svg">
  <g transform="matrix(1 0 0 1 -720 -621 )">
    <path d="M 2.952380943080357 1.571428585379468  C 2.952380943080357 1.571428585379468  2.476190457589286 2.285714313616079  1.2857142857142856 2.0476190290178575  C 1.2857142857142856 1.8095237862723224  1.5238095284598205 1.5714285435267843  1.2857142857142856 1.571428585379465  L 0.333333314732143 1.8095238281250001  C 0.333333314732143 1.8095238281250001  0.0952380719866073 1.8095238281250001  0.333333314732143 2.2857142717633954  L 0.8095238002232152 2.7619047572544684  C 0.8095238002232152 2.7619047572544684  1.04761904296875 3.0000000000000036  1.04761904296875 2.7619047572544684  L 1.04761904296875 2.52380951450893  C 1.04761904296875 2.52380951450893  2.7142857003348224 3.0000000000000036  2.952380943080357 1.571428585379468  Z M 0.09523811383928635 1.333333342633927  C 0.09523811383928635 1.333333342633927  0.333333356584822 0.3809523716517873  1.7619047712053568 0.8571428571428603  L 1.523809528459822 1.095238099888395  C 1.523809528459822 1.095238099888395  1.523809528459822 1.333333342633933  1.7619047712053568 1.333333342633933  L 2.7142857003348224 1.095238099888395  C 2.7142857003348224 1.095238099888395  2.952380943080357 1.095238099888395  2.7142857003348224 0.8571428571428603  L 2.2380952566964285 0.14285712890624935  C 2.2380952566964285 0.14285712890624935  2.2380952566964285 -0.0952381138392856  2.0000000139508938 0.14285712890624935  L 2.0000000139508938 0.3809523716517873  C 2.0000000139508938 0.3809523716517873  0.333333356584822 -0.0952381138392856  0.09523811383928635 1.333333342633927  Z " fill-rule="nonzero" fill="#ffffff" stroke="none" transform="matrix(1 0 0 1 720 621 )" />
  </g>
</svg>