<?xml version="1.0" encoding="utf-8"?>
<svg version="1.1" xmlns:xlink="http://www.w3.org/1999/xlink" width="28px" height="25px" xmlns="http://www.w3.org/2000/svg">
  <g transform="matrix(1 0 0 1 -809 -608 )">
    <path d="M 16.023370121324653 19.327124833997342  C 16.023370121324653 15.247451859229747  19.02128571686106 11.961046370075252  22.742833552667157 11.961046370075252  C 23.36310389212381 11.961046370075252  23.93168091435164 12.074381916777332  24.500233202934865 12.2443581230633  C 24.241791350435363 11.677734617087204  23.87998759712282 11.16777888446215  23.36310389212381 10.82779935812306  C 24.138429449622322 10.771131584772021  24.75867505543437 10.034531872509957  24.75867505543437 9.127928840194775  C 24.75867505543437 8.164685148295705  24.0867361323935 7.428058322266487  23.208023940437347 7.428058322266487  L 21.50231760739846 7.428058322266487  L 20.36518829658741 2.6117856352368305  C 20.158415027672117 1.8184910358565738  19.641531322673107 1.195226870296592  18.917899082403416 0.9685828906595849  C 14.615498592835555 -0.2780047296427209  10.09148314536999 -0.2780047296427219  5.789082655802131 0.9685828906595849  C 5.117143732761263 1.1952268702965925  4.548566710533432 1.818491035856575  4.34181817526275 2.6117856352368305  L 3.2563574480359105 7.428058322266491  L 2.0675348199960344 7.428058322266491  C 1.1888226280398766 7.428058322266491  0.5168837049990084 8.164685148295705  0.5168837049990084 9.127928840194777  C 0.5168837049990084 9.86452855245684  0.9303807755403726 10.487819831783977  1.5506511149970255 10.714463811420984  C 0.6202703394566529 11.281114431164232  0 12.41433432934927  0 13.660916888003543  L 0 18.193877822045152  C 0 19.270484174413458  0.6719389230408682 20.120419433377602  1.5506511149970255 20.40373118636565  L 1.5506511149970255 21.593618857901728  C 1.5506511149970255 22.216910137228865  2.015841502767212 22.726865869853924  2.5844185249950424 22.726865869853924  L 5.685720754989093 22.726865869853924  C 6.254273043572317 22.726865869853924  6.719463431342502 22.216910137228865  6.719463431342502 21.593618857901728  L 6.719463431342502 20.46037184594954  L 16.126732022137695 20.46037184594954  C 16.07503870490887 20.063751660026558  16.023345387680052 19.72377213368747  16.023345387680052 19.327124833997342  Z M 6.202604459988101 15.360787405931827  C 6.202604459988101 16.6073699645861  5.27219895080312 17.627281429836213  4.135069639992067 17.627281429836213  C 2.997915595536406 17.627281429836213  2.067534819996033 16.607342850818945  2.067534819996033 15.360787405931827  C 2.067534819996033 14.114231961044709  2.997915595536406 13.094293382027445  4.135069639992067 13.094293382027445  C 5.272223684447728 13.094293382027445  6.202604459988101 14.114204847277556  6.202604459988101 15.360787405931827  Z M 6.357634944385354 3.178409141212926  C 8.32180786356835 2.6117856352368305  10.337649366335562 2.328473882248782  12.405184186331596 2.328473882248782  C 14.47271900632763 2.328473882248782  16.488560509094842 2.6117856352368305  18.45270869463323 3.178409141212926  L 19.589862739088893 9.127928840194777  L 5.2205056335743 9.127928840194777  L 6.357659678029961 3.178409141212926  Z M 27.911670602657246 19.327124833997342  C 27.911670602657246 16.21066843736166  25.585693930161707 13.660889774236388  22.742833552667157 13.660889774236388  C 19.89997317517261 13.660889774236388  17.573996502677073 16.21066843736166  17.573996502677073 19.327124833997342  C 17.573996502677073 22.443581230633026  19.89999790881722 24.9933598937583  22.742833552667157 24.9933598937583  C 25.585669196517095 24.9933598937583  27.911670602657246 22.443581230633026  27.911670602657246 19.327124833997342  Z M 18.866230498819203 18.477189575033197  C 18.866230498819203 18.023874501992037  19.228034252131742 17.627281429836213  19.641531322673107 17.627281429836213  L 24.29348466766418 17.627281429836213  L 23.673239061852136 16.720678397521027  C 23.41477247570802 16.3240310978309  23.46646579293685 15.814075365205843  23.828294279893996 15.530763612217797  C 24.190122766851147 15.247451859229749  24.655313154621332 15.304092518813633  24.913755007120837 15.700766932270918  L 26.464406122117857 17.967233842408145  C 26.61946134015972 18.25057270916335  26.67115465738854 18.590525121735286  26.516099439346682 18.87383687472333  C 26.36104422130482 19.15714862771138  26.15424621874492 19.327124833997342  25.84413578266121 19.327124833997342  L 19.641531322673107 19.327124833997342  C 19.228034252131742 19.327124833997342  18.866230498819203 18.93050464807437  18.866230498819203 18.477189575033197  Z M 26.619461340159724 20.74368359893758  C 26.619461340159724 21.19697155821159  26.25763285320258 21.59361885790172  25.84413578266121 21.593618857901724  L 21.192182437670134 21.593618857901724  L 21.812452777126786 22.44355411686587  C 22.01922604604208 22.783533643204954  22.070894629626288 23.236821602478972  21.812452777126786 23.520133355467017  C 21.65737282544032 23.74680444887118  21.398955706585422 23.860139995573263  21.192182437670134 23.860139995573263  C 20.933740585170632 23.860139995573263  20.72699204989995 23.74680444887118  20.571936831858086 23.520133355467017  L 19.021285716861062 21.25363933156264  C 18.866205765174595 20.97032757857459  18.814512447945773 20.630375166002654  18.96959239963224 20.347063413014606  C 19.124672351318708 20.063751660026558  19.33142088658939 19.893748339973435  19.64153132267311 19.893748339973435  L 25.844135782661215 19.893748339973435  C 26.25763285320258 19.893748339973435  26.619461340159724 20.290395639663565  26.619461340159724 20.74368359893758  Z " fill-rule="nonzero" fill="#ffffff" stroke="none" transform="matrix(1 0 0 1 809 608 )" />
  </g>
</svg>