<?xml version="1.0" encoding="utf-8"?>
<svg version="1.1" xmlns:xlink="http://www.w3.org/1999/xlink" width="25px" height="25px" xmlns="http://www.w3.org/2000/svg">
  <g transform="matrix(1 0 0 1 -537 -672 )">
    <path d="M 12.155917553191491 0.038231382978723354  L 12.5 0.03324468085106383  C 19.373337765957448 0.03324468085106383  24.966755319148938 5.626662234042553  24.966755319148938 12.5  C 24.966755319148938 19.373337765957448  19.374999999999996 24.966755319148938  12.5 24.966755319148938  C 5.626662234042553 24.966755319148938  0.03324468085106383 19.374999999999996  0.03324468085106383 12.5  C 0.03324468085106383 5.8693484042553195  5.242686170212766 0.41223404255319146  11.815159574468085 0.05152925531914895  L 12.155917553191491 0.038231382978723354  Z M 13.251329787234042 1.5625  L 13.251329787234042 1.5641622340425532  L 13.251329787234045 3.1549202127659584  C 13.25279264073733 3.1740009106349034  13.253524870927674 3.1931305954735  13.253524870927674 3.2122672872340425  C 13.253524870927674 3.6265915290409136  12.917648709891976 3.962467690076612  12.503324468085106 3.962467690076612  C 12.11124398328456 3.962467690076612  11.785290698770243 3.6605476204074665  11.755319148936168 3.2696143617021276  L 11.747007978723403 3.1582446808510642  L 11.745345744680849 1.5641622340425532  L 11.43284574468085 1.590757978723404  C 6.22520790376073 2.1079669593878596  2.1062081870037668 6.228357995083097  1.5907579787234047 11.436170212765957  L 1.5641622340425532 11.747007978723405  L 3.1582446808510642 11.750332446808512  C 3.535571808510638 11.750332446808512  3.8480718085106385 12.027925531914894  3.90126329787234 12.390292553191488  L 3.9095744680851063 12.501662234042554  C 3.9079092075630157 12.874154272194874  3.6347075879208304 13.189712732091657  3.266289893617021 13.244680851063828  L 3.154920212765957 13.252992021276594  L 1.5641622340425532 13.252992021276594  L 1.590757978723404 13.567154255319148  C 2.10833343724816 18.77428944535145  6.227372788691102 22.89332879679439  11.434507978723405 23.41090425531915  L 11.745345744680852 23.4375  L 11.745345744680852 21.841755319148938  C 11.745345744680852 21.464428191489365  12.02626329787234 21.151928191489368  12.386968085106384 21.098736702127663  L 12.5 21.090425531914896  C 12.878989361702125 21.090425531914896  13.189827127659573 21.369680851063826  13.244680851063832 21.73038563829787  L 13.251329787234042 21.841755319148938  L 13.252992021276594 23.437499999999996  L 13.565492021276595 23.4125664893617  C 18.7749863626976 22.896709564877753  22.89592680037982 18.775073374969008  23.41090425531915 13.565492021276594  L 23.435837765957448 13.252992021276592  L 21.84341755319149 13.252992021276592  C 21.471746962782014 13.252280435817571  21.15618996904293 12.980491973648558  21.100398936170215 12.613031914893613  L 21.090425531914896 12.5  C 21.090425531914896 12.121010638297873  21.369680851063826 11.810172872340425  21.73038563829787 11.755319148936168  L 21.841755319148938 11.748670212765957  L 23.434175531914896 11.748670212765957  C 23.059357010103906 6.409379560953423  18.89007194703875 2.1179227900786772  13.563829787234042 1.5890957446808511  L 13.251329787234042 1.5625  Z M 14.629321808510639 7.3304521276595755  L 14.629321808510639 7.3321143617021285  C 15.97117791150436 7.3318375813786165  17.171444488138 8.166719139379584  17.637965425531917 9.424867021276597  L 17.71110372340426 9.639295212765957  L 18.105053191489368 10.949135638297873  L 18.223071808510642 10.96908244680851  C 18.740026595744684 11.08377659574468  19.147273936170215 11.496010638297873  19.260305851063833 12.01628989361702  L 19.283577127659576 12.160904255319148  L 19.290226063829788 12.310505319148934  L 19.290226063829788 15.00997340425532  C 19.290226063829788 15.728058510638299  18.909574468085108 16.373005319148938  18.326130319148938 16.725398936170212  L 18.174867021276597 16.808510638297875  L 18.045212765957448 16.863364361702125  L 18.015292553191493 17.00964095744681  C 17.828610251353375 17.74401633027035  17.233693296213286 18.3039381704022  16.489361702127663 18.445811170212767  L 16.31482712765958 18.470744680851066  L 16.13696808510639 18.47905585106383  C 15.32081117021277 18.47905585106383  14.614361702127662 17.96376329787234  14.330119680851066 17.232380319148938  L 14.276928191489366 17.07114361702128  L 14.260305851063833 17.004654255319153  L 10.741356382978724 17.004654255319153  L 10.724734042553193 17.07114361702128  C 10.520279255319148 17.779255319148938  9.93184840425532 18.317819148936174  9.20877659574468 18.44747340425532  L 9.039228723404257 18.470744680851066  L 8.866356382978722 18.47905585106383  C 8.042766305767302 18.476137911138515  7.310313733195317 17.954764852662272  7.037898936170213 17.177526595744684  L 6.988031914893618 17.011303191489365  L 6.958111702127661 16.863364361702132  L 6.828457446808511 16.80851063829788  C 6.260854607543228 16.529727343905357  5.8584026446592325 15.999082412752033  5.743018617021277 15.377327127659576  L 5.716422872340425 15.18783244680851  L 5.709773936170213 15.009973404255323  L 5.709773936170213 12.308843085106384  C 5.709773936170213 11.70378989361702  6.098736702127659 11.188497340425531  6.640624999999998 11.007313829787233  L 6.77692819148936 10.96908244680851  L 6.893284574468085 10.949135638297873  L 7.288896276595745 9.637632978723405  C 7.6444457206286 8.426199625893691  8.676501929602635 7.5352626338997215  9.926861702127662 7.360372340425532  L 10.147938829787234 7.338763297872342  L 10.370678191489361 7.3304521276595755  L 14.629321808510639 7.3304521276595755  Z M 16.254986702127656 10.081449468085106  C 16.04457620700726 9.357168061736687  15.38022073361052 8.859579370437492  14.625997340425531 8.861369680851064  L 10.374002659574469 8.861369680851064  C 9.679188829787233 8.861369680851064  9.069148936170212 9.276928191489361  8.804853723404255 9.91688829787234  L 8.74501329787234 10.083111702127658  L 8.179853723404255 11.923204787234042  C 8.036893041642964 12.212895623320835  7.76002624561079 12.413235192584562  7.440159574468086 12.45844414893617  L 7.302194148936171 12.466755319148938  L 7.230718085106383 12.466755319148938  L 7.230718085106383 15.00997340425532  C 7.229539361799148 15.229526083404297  7.381953094572371 15.420043249370824  7.596409574468085 15.467087765957446  L 7.6878324468085095 15.477061170212766  L 8.447473404255318 15.477061170212766  L 8.447473404255318 16.524268617021278  C 8.447473404255318 16.758643617021278  8.63530585106383 16.949800531914892  8.86635638297872 16.949800531914892  C 9.066584012662307 16.948545739696254  9.237925113846183 16.805761488709688  9.275265957446807 16.609042553191493  L 9.283577127659573 16.522606382978726  L 9.283577127659573 15.475398936170215  L 15.71974734042553 15.475398936170215  L 15.71974734042553 16.520944148936174  C 15.71974734042553 16.756981382978722  15.907579787234038 16.946476063829788  16.13696808510638 16.946476063829788  C 16.33643617021276 16.946476063829788  16.50764627659574 16.801861702127663  16.54587765957446 16.605718085106382  L 16.55585106382978 16.520944148936174  L 16.55585106382978 15.473736702127658  L 17.315492021276594 15.473736702127658  C 17.533232848253913 15.471176591113359  17.718939743346823 15.31537754803916  17.7593085106383 15.101396276595743  L 17.769281914893615 15.008311170212767  L 17.769281914893615 12.46343085106383  L 17.694481382978715 12.463430851063826  C 17.365769499599743 12.462918206390192  17.059487890434955 12.296651047129311  16.879986702127656 12.02127659574468  L 16.805186170212764 11.891622340425531  L 16.7719414893617 11.798537234042552  L 16.254986702127656 10.081449468085106  Z " fill-rule="nonzero" fill="#ffffff" stroke="none" transform="matrix(1 0 0 1 537 672 )" />
  </g>
</svg>