<?xml version="1.0" encoding="utf-8"?>
<svg version="1.1" xmlns:xlink="http://www.w3.org/1999/xlink" width="28px" height="25px" xmlns="http://www.w3.org/2000/svg">
  <g transform="matrix(1 0 0 1 -627 -670 )">
    <path d="M 11.464448742856888 11.209819719224372  L 19.906926826921794 11.209819719224374  L 23.986529134096752 14.758643319527382  L 27.86296400896146 14.758643319527382  L 27.86296400896146 21.824236647417038  L 25.910234628112793 21.824236647417038  C 25.702938360935097 23.03441476419229  24.908075794547635 24.06792044991769  23.782200731347736 24.591174259938807  L 23.596447656079494 24.671308990919552  C 23.469355832176156 24.722522543686782  23.33952230054983 24.766853459288058  23.207527098616143 24.804103687270647  L 23.006681582240994 24.85447408679056  C 22.451816987873038 24.97849868359654  21.8758368539296 24.97849868359654  21.320972259561636 24.85447408679056  L 21.12012671824405 24.804103687270647  C 21.053789026233602 24.785662156130513  20.98797673257481 24.76543007206587  20.92276406330033 24.74343025372121  L 20.73120618572313 24.671308990919552  C 20.52099605221923 24.58676126530248  20.318945450086048 24.48369519650093  20.127508616274053 24.363362691471462  C 19.219838787015448 23.794791863511556  18.598576017850828 22.874009809095632  18.417419213689833 21.828815779117924  L 18.417419213689833 21.825381418044802  L 10.079427221992097 21.825381418044802  C 10.074686496458465 21.852145326545205  10.069655394584698 21.8788584336122  10.064334780885186 21.90551614902555  L 10.079427221992097 21.825381418044795  C 9.949233437880386 22.593243909115497  9.578116367742972 23.30151451595809  9.018312687235264 23.850500432870614  C 8.521844232811752 24.339089471456266  7.898414601015026 24.68329840963092  7.216507667570829 24.845315823388784  C 5.860524875456075 25.162437802146243  4.437141939351173 24.72429437451461  3.5049286744433608 23.70282359538402  C 3.025167883607747 23.176416540669877  2.7067301945964686 22.52658122136385  2.58661183251157 21.828815779117924  L 2.58661183251157 21.825381418044795  L 0 21.825381418044795  L 0 17.455749259692855  L 2.8176422311005402 14.567464755477285  L 8.24859831549504 14.567464755477285  L 11.464448742856888 11.209819719224372  Z M 9.01711095974778 21.202617843912215  C 9.01711095974778 19.740326148843483  7.815971196160327 18.55436740686159  6.3330195397230495 18.552450244473523  C 6.332569668889312 18.55245002152122  6.33211979800677 18.55244991004506  6.331669927116213 18.55244991004506  C 4.848623472920084 18.55244991004506  3.6463767796039974 19.737946306024913  3.6463767796039974 21.200330221318392  C 3.6463767796039974 21.456178120827403  3.683981132597119 21.710675470172134  3.7580172619445293 21.955886548545458  L 3.7324762116009027 21.865448783535175  C 3.7475686527078116 21.92268788060641  3.7638220393110537 21.976492616604524  3.7823973667918236 22.03144214782532  L 3.7580172619445293 21.955886548545458  C 3.7731097030514382 22.007401718693124  3.790524060093444 22.057772118213034  3.809099362631782 22.10814251773294  L 3.7823973667918236 22.03144214782532  C 3.8044555557040214 22.095549917852964  3.8288356356088844 22.159657712475532  3.854376685952511 22.22147591665273  L 3.80793841713545 22.106997747105183  C 3.9842616849663157 22.587217078267706  4.298998889205088 23.006192462328432  4.713484733895427 23.312452999104742  L 4.655436910345318 23.2666617066908  C 4.696070401795855 23.30100516985253  4.739025809181486 23.331914271941134  4.781981191624687 23.36167860340197  L 4.713484733895427 23.312452999104753  C 4.764566834582682 23.35023079874468  4.815648935269934 23.385719032534166  4.869052951892282 23.420062471100973  L 4.781981191624687 23.362823398624656  C 4.828419460441748 23.394877295935935  4.877179645193904 23.4269311686523  4.927100800384825 23.45669550011314  L 4.869052951892283 23.420062471100973  C 4.918974107083205 23.452116368412252  4.970056207770458 23.483025470500856  5.022299253954044 23.511645031333934  L 4.927100800384825 23.45669550011314  C 4.977021955575745 23.487604602201735  5.029265001759332 23.516224163034817  5.082669018381681 23.5436989040503  L 5.022299253954043 23.511645031333934  C 5.081508047942917 23.54369892864522  5.143038757866886 23.57460803073382  5.204569492733289 23.60322756697198  L 5.082669018381681 23.5436989040503  C 5.1314292031338375 23.56888410381025  5.180189387885995 23.592924532942448  5.231271488573248 23.615820166851957  L 5.204569492733289 23.60322756697198  C 5.260295425290735 23.628412766731934  5.3160213578481805 23.652453195864126  5.37406918139829 23.67420403455095  L 5.231271488573248 23.615820166851957  C 5.289319337065789 23.641005366611907  5.3473671606158995 23.665045795744103  5.405415009108442 23.68565186380317  L 5.37406918139829 23.67420403455095  C 5.432117029890832 23.695954897832706  5.490164853440941 23.715416170669094  5.551695588307344 23.733732697472632  L 5.40541500910844 23.68565186380317  C 5.463462857600982 23.70740272708492  5.521510681151092 23.72571922929354  5.580719500082399 23.7428909608744  L 5.551695588307344 23.733732697472632  C 5.613376789222569 23.75236222867656  5.675722381738421 23.768781537644234  5.73860963401435 23.782958301769856  L 5.580719500082399 23.7428909608744  C 5.6399282940712725 23.760062692455268  5.700298058498911 23.774944858185687  5.760667797984116 23.78868222869342  L 5.738609634014349 23.782958301769856  C 5.798979398441988 23.795550901649833  5.859349137927193 23.806998730902045  5.920879847851164 23.817301764931578  L 5.760667797984116 23.787537433470742  C 5.823359478346849 23.801274803978476  5.886051133767151 23.812722633230695  5.951064730064983 23.821880896632464  L 5.920879847851164 23.817301764931578  C 5.98473247371023 23.826460028333347  6.048585099569297 23.83447349651244  6.113598695867126 23.84019739884109  L 5.951064730064983 23.821880896632464  C 6.012595439988953 23.829894364811555  6.075287120351687 23.836763062362884  6.137978775771989 23.841342194063774  L 6.113598695867126 23.839052628213334  L 6.213440981306537 23.844776530541974  L 6.137978775771989 23.841342194063774  C 6.201831401631055 23.84592132576466  6.266844972986455 23.8482108916151  6.3330195397230495 23.848210867020182  L 6.459563821002418 23.843631759914217  L 6.524577417300248 23.841342194063774  C 6.583974972655997 23.837171211602005  6.643216213185278 23.83106235683608  6.70220379926687 23.82302566726023  L 6.642995005277996 23.82989436481156  C 6.69271439182731 23.824393857002658  6.7422679433572545 23.817522478255864  6.791597475469562 23.809288296752488  L 6.702203799266869 23.82302566726023  C 6.77186120249246 23.81386740385846  6.841518630660483 23.80013003335072  6.908854117950977 23.786392662842978  L 6.791597475469562 23.809288296752495  C 6.8429747190348715 23.80046312875639  6.894078740594936 23.790155673383655  6.944843777531322 23.778379194663888  L 6.910015063447311 23.786392662842985  C 6.9689449229037175 23.77346886861024  7.0274133560054155 23.758578144934265  7.085319554421267 23.741746165651723  L 6.944843777531322 23.778379194663888  C 7.009857348886719 23.763497028933468  7.07487094518455 23.74632529735261  7.138723571043617 23.726863999921296  L 7.085319554421267 23.741746165651723  C 7.148011234784002 23.724574434070856  7.209541944707971 23.703968366011797  7.268750738696845 23.682217502730044  L 7.138723571043616 23.726863999921306  C 7.197932365032489 23.708547497712683  7.257141159021363 23.687941429653613  7.315189007513904 23.665045795744103  L 7.268750738696843 23.682217502730044  C 7.327959532685717 23.65932186882053  7.384846410739495 23.636426234911024  7.442894259232036 23.61124103515107  L 7.315189007513904 23.665045795744103  C 7.371731956455793 23.642890525035405  7.427490438958466 23.618836061907  7.48236680518624 23.592924532942448  L 7.442894259232036 23.61124103515107  C 7.500942107724578 23.584911064763357  7.558989931274688 23.556291503930275  7.614715863832135 23.526527197064357  L 7.482366805186241 23.592924532942448  C 7.536931767304923 23.567739333182494  7.590335783927273 23.541409362794777  7.641417884614526 23.5127898019617  L 7.614715863832135 23.526527197064357  C 7.663476048584292 23.50019722667664  7.711075287840117 23.472722461066247  7.757513556657178 23.44410290023317  L 7.641417884614526 23.5127898019617  C 7.699465733107068 23.48073590465042  7.756352611160846 23.44639246608361  7.810917573279528 23.40975943707144  L 7.757513556657178 23.44410290023317  C 7.806273741409334 23.414338568772326  7.853872980665159 23.382284671461047  7.900311249482221 23.349086003522  L 7.810917573279528 23.410904232294126  C 7.861999673966781 23.376560769132396  7.913081774654033 23.34221733056559  7.96184195940619 23.304439506330738  L 7.900311249482221 23.35023079874468  C 7.938622824997661 23.322756033134283  7.9769344005131 23.294136496896126  8.012924060093443 23.26437216543529  L 7.96184195940619 23.304439506330745  C 8.176194817224449 23.14302752661643  8.364815176794123 22.95086109988806  8.521423151030879 22.73433817525358  L 8.465697243415866 22.808749003905678  C 8.502847873434973 22.761812940863983  8.537676562576552 22.712587336566756  8.5713443062218 22.66336170767461  L 8.521423151030879 22.73433817525358  C 8.557412810611222 22.683967775733677  8.59108055425647 22.63130781036332  8.62590926834048 22.579792640215654  L 8.5713443062218 22.66336170767461  C 8.603851104370715 22.61528087400514  8.634035986584534 22.567200040335678  8.663059898359588 22.516829640815775  L 8.62474832284415 22.579792640215654  C 8.659577036928162 22.524843108994858  8.690922864638313 22.468748807146305  8.72110774685213 22.411509710075073  L 8.663059898359588 22.516829640815775  C 8.693244780573409 22.465314470668105  8.72110774685213 22.412654505297752  8.747809742692088 22.35884974470472  L 8.72110774685213 22.411509710075073  C 8.748970713130856 22.35770497407696  8.77451176347448 22.303900213483928  8.798891843379343 22.248950682263132  L 8.747809742692088 22.35884974470472  C 8.772189847539384 22.30962411581257  8.79424801150915 22.25925371629267  8.816306200421348 22.21002811199544  L 8.798891843379343 22.248950682263132  C 8.822110977787872 22.195145946265026  8.845330112196404 22.13905161982154  8.865066385173506 22.082957317972987  L 8.81630620042135 22.208883316772756  C 8.839525334829878 22.151644219701517  8.86274446923841 22.092115581374763  8.882480742215511 22.03144214782532  L 8.865066385173506 22.082957317972987  C 8.883641687711846 22.029152581974877  8.902217015192615 21.974203050754078  8.917309431357092 21.918108748905528  L 8.882480742215511 22.032586918453084  C 8.905699876624043 21.966189582574987  8.92427517916238 21.898647451474222  8.940528565765621 21.83110532037345  L 8.917309431357092 21.918108748905528  C 8.98353204816598 21.685220007396488  9.01711095974778 21.444488164670584  9.01711095974778 21.202617843912215  Z M 24.848936604983503 21.20147501924612  C 24.848936604983503 19.738976543254406  23.646989368735625 18.553182150695573  22.163826920901304 18.552450244473523  C 22.163377058381858 18.552450021529456  22.162927195816906 18.55244991005743  22.162477333240645 18.55244991005743  C 20.679430879044517 18.55244991005743  19.477184185728426 19.73794630603728  19.477184185728426 21.200330221330752  C 19.477184185728426 21.456178120835435  19.51478853872028 21.710675470175936  19.588824668065225 21.955886548545458  L 19.565605508714256 21.871172685863822  C 19.579536979382404 21.924977421861932  19.595790390928077 21.978782182454964  19.613204747970084 22.03144214782532  L 19.589985613561552 21.955886548545458  C 19.60739997060356 22.016559982094893  19.628297189076996 22.077233415644336  19.650355377989193 22.13676207856602  L 19.61320474797008 22.03144214782532  C 19.632941020947186 22.09097081074699  19.654999184916953 22.149354678445995  19.679379289764242 22.206593775517227  L 19.650355377989193 22.13676207856601  C 19.67125259646262 22.188277248713682  19.69214981493606 22.23979244345627  19.71536894934459 22.29130761360394  L 19.679379289764242 22.206593775517234  C 19.815993901082965 22.533891782638207  20.017711546521987 22.830890223718995  20.27262822503418 23.08006227434159  L 20.237799535892602 23.044574040552103  C 20.272628249976613 23.08006227434159  20.308617909556958 23.115550508131083  20.346929460129964 23.149893971292805  L 20.27262822503418 23.081207069564275  C 20.31558363241981 23.121274435054655  20.358539039805443 23.161341800545024  20.40381636312617 23.19911960018495  L 20.34576851463363 23.149893971292805  C 20.3852410356454 23.184237434454534  20.423552611160844 23.21858087302134  20.464186102611375 23.249489999704863  L 20.40381636312617 23.19911960018495  C 20.45373751831709 23.24262130215353  20.504819619004344 23.283833462866586  20.558223610684266 23.322756033134276  L 20.46418610261138 23.249489999704863  C 20.50714150999701 23.28497823349435  20.55241883331774 23.318176901433393  20.597696156638467 23.351375569372436  L 20.558223610684266 23.322756033134276  C 20.60466187950132 23.35709949629601  20.653422064253483 23.39029816423505  20.702182249005638 23.421207266323652  L 20.597696156638467 23.351375569372436  C 20.649939202822054 23.38800859838461  20.70218227394807 23.42349683217409  20.75790818156308 23.45669550011314  L 20.702182249005638 23.422352036951416  C 20.752103404196557 23.45326113904001  20.80202453444505 23.483025470500856  20.853106660074737 23.511645031333934  L 20.75790818156308 23.45669550011314  C 20.808990282250335 23.487604602201735  20.861233328433922 23.516224163034817  20.913476399559936 23.54369890405029  L 20.853106660074737 23.511645031333934  C 20.91347642450237 23.543698928645213  20.973846163987577 23.574608030733813  21.035376873911552 23.60322756697197  L 20.913476399559936 23.5436989040503  C 20.962236584312098 23.56888410381025  21.012157739503017 23.59292453294244  21.062078869751506 23.615820166851957  L 21.035376873911545 23.60322756697198  C 21.088780890533897 23.627267996104166  21.143345852652576 23.650163630013683  21.19791083971369 23.671914468700507  L 21.062078869751502 23.61467539622419  C 21.12012671824404 23.642150161834593  21.180496457729248 23.66619056637186  21.242027192595653 23.687941429653613  L 21.19791083971369 23.670769698072753  C 21.258280604141323 23.69366533198226  21.31865034362653 23.71427140004133  21.3801810535505 23.732587902249954  L 21.242027192595653 23.686796634430934  C 21.297753125153097 23.70740270249  21.354640003206878 23.726863999921306  21.412687851699417 23.742890960874412  L 21.3801810535505 23.732587902249954  C 21.441479132122925 23.75119084257947  21.503437018449844 23.767610035130293  21.565934153761177 23.78181353114209  L 21.412687851699417 23.742890960874412  C 21.47189664568829 23.760062692455268  21.532266410115927 23.774944858185687  21.592636149601134 23.78868222869343  L 21.565934153761177 23.78181353114209  C 21.62398200225372 23.79440613102207  21.68319079624259 23.80585396027429  21.742399590231464 23.81615699430382  L 21.592636149601134 23.787537433470742  C 21.656488775460204 23.801274803978483  21.720341401319267 23.812722633230695  21.784194027178334 23.82188089663247  L 21.742399590231464 23.815012199081146  C 21.881773973780835 23.836968143437414  22.022685218288704 23.848068670799645  22.1638269209013 23.848210867020182  L 22.28804928624557 23.843631759914217  L 22.35770671441359 23.841342194063774  C 22.41632819600128 23.837120413260244  22.474794190408886 23.83101164730633  22.533011180445126 23.82302566726023  L 22.46335377721953 23.831039160034244  C 22.515596823403115 23.8253152577056  22.56783989452913 23.819591330782032  22.617761024777625 23.810433067380252  L 22.533011180445126 23.82188089663247  C 22.604990499605808 23.812722633230702  22.675808873270164 23.80013003335072  22.74546627649576 23.785247867620303  L 22.617761024777625 23.810433067380252  C 22.66768217996854 23.802419599201162  22.716442364720702 23.79211656517163  22.76636351991162 23.780668760514338  L 22.74546627649576 23.785247867620303  C 22.803212958507785 23.772627809230407  22.860518450546085 23.758119237507223  22.917287906038286 23.741746165651723  L 22.76636351991162 23.780668760514338  C 22.836020923137212 23.76578659478392  22.90335643537014 23.74632529735261  22.96953095222187 23.726863999921306  L 22.917287906038283 23.741746165651723  C 22.978818615962254 23.724574434070863  23.040349325886226 23.703968366011797  23.100719090313863 23.682217502730044  L 22.96953095222187 23.726863999921306  C 23.027578800714412 23.708547497712683  23.083304733271856 23.689086200281377  23.139030665829306 23.667335361594546  L 23.100719090313863 23.682217502730047  C 23.162249800237834 23.65932186882053  23.22261956466547 23.63413666906058  23.28298930415068 23.606661903450185  L 23.139030665829306 23.667335361594546  C 23.194756598386753 23.646729293535486  23.249321560505432 23.623833659625966  23.301564606689016 23.598648435271095  L 23.28298930415068 23.606661903450185  C 23.338715236708126 23.581476703690235  23.393280198826808 23.555146733302518  23.44784516094549 23.526527197064357  L 23.302725577127784 23.598648435271095  C 23.360773425620323 23.57231846488338  23.41649935817777 23.5436989040503  23.47222526579278 23.512789801961706  L 23.44784516094549 23.525382401841682  C 23.500088207129075 23.49790763623128  23.551170307816328 23.468143304770443  23.601091463007247 23.43608943205408  L 23.47222526579278 23.512789801961706  C 23.529112143846557 23.481880699873102  23.584838076404004 23.447537236711373  23.639403038522687 23.41204900292189  L 23.601091463007247 23.43608943205408  C 23.653334509190838 23.4040355347428  23.703255664381754 23.370836866803753  23.752015874076346 23.334203837791584  L 23.639403038522687 23.41204900292188  C 23.688885378133335 23.380049777594817  23.737284848316587 23.34645127673734  23.784522647282827 23.31130820388207  L 23.752015874076346 23.334203837791584  C 23.7984541428934 23.302149940480295  23.842570495775366 23.267806501913498  23.885525903161 23.232318268124004  L 23.784522647282827 23.31245299910476  C 23.976753843482086 23.168574030390676  24.148557518033158 22.999934056160882  24.29534365415536 22.81103856975613  L 24.28373409942231 22.82477594026387  C 24.39859948914905 22.679647398416552  24.497816528387844 22.52311188619586  24.579778094309113 22.35770497407696  L 24.549593212095292 22.417233612403724  C 24.577456178374014 22.36342887640561  24.604158174213975 22.308479345184814  24.628538279061267 22.253529813964025  L 24.579778094309106 22.356560178854277  C 24.60299722871764 22.308479345184814  24.62621636312617 22.25925371629267  24.647113581599605 22.208883316772763  L 24.628538279061267 22.253529813964025  C 24.651757413469795 22.196290716892786  24.674976547878327 22.140196415044233  24.69587376635176 22.08181254734523  L 24.6471135815996 22.208883316772763  C 24.674089323904116 22.144989789088662  24.69848853663023 22.080067957561322  24.720253871199056 22.014270416244468  L 24.697034736790524 22.082957317972994  C 24.713288123393767 22.03373168908085  24.72954153493944 21.985650855411386  24.743473005607584 21.935280480486405  L 24.720253871199056 22.0131256456167  C 24.741151089672485 21.95016264621682  24.758565446714492 21.887199646816935  24.774818833317735 21.821947081566613  L 24.743473005607587 21.936425251114162  C 24.81343362338995 21.69753666103363  24.848936604983503 21.45012499759151  24.848936604983503 21.20147501924612  Z M 23.565101803426913 15.857633870158491  L 19.485499496251954 12.30881026985548  L 11.946245813011931 12.30881026985548  L 8.730395385650082 15.666455306108396  L 3.2913126328963958 15.666455306108396  L 1.1145185513791829 17.898779821342487  L 1.1145185513791829 20.72639089200862  L 2.5633926981030393 20.72639089200862  C 2.806207748060731 18.856279426401027  4.4204233920842 17.455351192683207  6.332439054503666 17.455351192683207  C 8.244454716923132 17.455351192683207  9.858670360946602 18.856279426401027  10.101485410904296 20.72639089200862  L 18.394200079281298 20.72639089200862  C 18.634678219007203 18.854025644784564  20.249912742121737 17.450286114069474  22.16390052789095 17.450286114069474  C 24.077442565252078 17.450286114069474  25.69244697619315 18.85339000690022  25.933453762521324 20.725246096785934  L 26.748445457582275 20.725246096785934  L 26.748445457582275 15.857633870158491  L 23.565101803426913 15.857633870158491  Z M 18.68560024229791 1.5799151721152631  C 19.644556040584682 0.5977150556962959  20.968074879524636 0.043356220833059664  22.350740966608313 0.04476275738585564  C 25.164077099909758 0.044980624077890545  27.444619486123074 2.2939259761570114  27.444619486123074 5.068065323377651  C 27.444619486123074 7.842358732916354  25.163833269162275 10.091367904860626  22.350340888065908 10.091367904860626  C 21.10833015926714 10.091367904860626  19.909103304943663 9.64395236269951  18.978161350810847 8.833252702981888  L 18.83420271248948 8.702747572481234  L 19.603917084229703 7.907124214192257  C 20.344119339574533 8.603211576026716  21.327701738470637 8.991548628341999  22.35055369881921 8.991548628341999  C 24.54851446681002 8.991548628341999  26.33031372055476 7.234574285707125  26.33031372055476 5.067236597490128  C 26.33031372055476 2.8998989092731304  24.54851446681002 1.1429245666382588  22.35055369881921 1.1429245666382588  C 21.332683934579343 1.1429245666382588  20.353501906804443 1.5274969618888723  19.61436571840885 2.2175586342931926  L 19.486660466690715 2.3434846330929604  L 18.68560024229791 1.5799151721152631  Z M 16.887278109007333 2.1202521717315808  L 16.887278109007333 2.1191074011038205  L 19.29510258911352 3.502003822050823  C 18.974162063649413 4.0463447203017635  18.805872026351526 4.665083761261828  18.80750071664952 5.294732136708412  C 18.80750071664952 5.80301526360837  18.914308749894218 6.294126658927465  19.118637127700797 6.746315459383946  L 19.19990411060187 6.913453594301848  L 16.717778395399904 8.16126577764223  C 16.25887792091279 7.27354881388221  16.020147229409574 6.291127021480418  16.02120431325913 5.294732136708412  C 16.02120431325913 4.241532878491249  16.283580564500685 3.22267705884089  16.778148159827538 2.313720301632119  L 16.887278109007333 2.1202521717315808  Z M 20.758112382946948 4.990220161441065  C 20.758112382946948 4.079865219801353  21.50646837228306 3.3418455565253025  22.429686033574296 3.341734360089329  C 23.35318764772882 3.341734347791867  24.101668086969354 4.079786586250207  24.101668086969354 4.990220161441065  C 24.101668086969354 5.9006537366319245  23.35318764772882 6.638705975090263  22.42989023495815 6.638705975090263  C 21.506468372283052 6.638594766356828  20.758112382946948 5.9005751030807785  20.758112382946948 4.990220161441065  Z M 23.098268026083424 4.990220161441065  C 23.098268026083424 4.626096463223984  22.798954557257566 4.330896171550065  22.429686033574296 4.330825848278847  C 22.060237920170678 4.330825835981387  21.760845744474462 4.626046731364721  21.760845744474462 4.990220161441065  C 21.760845744474462 5.354393591517409  22.060237920170678 5.649614486900744  22.42955688527895 5.649614486900744  C 22.798954557257566 5.6495441513320666  23.098268026083424 5.354343859658146  23.098268026083424 4.990220161441065  Z " fill-rule="nonzero" fill="#ffffff" stroke="none" transform="matrix(1 0 0 1 627 670 )" />
  </g>
</svg>