<?xml version="1.0" encoding="utf-8"?>
<svg version="1.1" xmlns:xlink="http://www.w3.org/1999/xlink" width="23px" height="25px" xmlns="http://www.w3.org/2000/svg">
  <g transform="matrix(1 0 0 1 -725 -670 )">
    <path d="M 6.066817434210524 1.5601181402439035  C 6.508838093917618 2.006342380527581  6.857023188281334 2.5377625466414973  7.090563322368419 3.1226181402439024  C 10.374970573785752 1.370678256332063  14.374881047852629 1.7280150642439416  17.30201480263158 4.0348704268292686  C 17.219627294691364 4.305999615305634  17.177745607042553 4.587970123278951  17.177745607042553 4.87151885655573  C 17.177745607042553 6.450076639989781  18.447990354644332 7.729750563872803  20.01491665967413 7.729750563872803  C 21.581842964703934 7.729750563872803  22.85208771230571 6.450076639989781  22.85208771230571 4.87151885655573  C 22.85208771230571 3.29296107312168  21.581842964703934 2.013287149238657  20.01491665967413 2.013287149238657  C 19.453045413606446 2.013287149238657  18.90382560949706 2.1813566382786242  18.436883223684205 2.496189024390244  C 14.861218774096805 -0.28824476942176136  9.986434209818405 -0.6699700563095741  6.026624177631575 1.5243902439024395  L 6.066817434210524 1.5601181402439035  Z M 7.46175986842105 20.15529725609756  C 4.155579769599144 18.582485864844  2.0455117799968074 15.230656537004577  2.0427631578947376 11.547256097560977  C 2.0429207911293243 10.234988392088043  2.3142687846828265 8.93712611719252  2.8395353618421053 7.736280487804878  L 3.019222861842106 7.736280487804878  C 3.0206135149519895 7.736282547894113  3.022004169378446 7.736283577939151  3.0233948239918145 7.736283577939151  C 4.590321129021615 7.736283577939151  5.860565876623393 6.456609654056128  5.860565876623393 4.878051870622078  C 5.860565876623393 3.2994940871880263  4.590321129021615 2.019820163305004  3.0233948239918145 2.019820163305004  C 1.4564685189620141 2.019820163305004  0.18622377136023566 3.2994940871880263  0.18622377136023566 4.878051870622078  C 0.18622377136023566 5.674844051762585  0.5163724352464308 6.435468867474244  1.0970394736842106 6.976467225609756  C 0.4721341228272461 8.418921782088704  0.14958209494931918 9.975821322730459  0.14958209494931918 11.5496703997912  C 0.14958209494931918 16.12555939911398  2.857873479106877 20.26068111853683  7.033819901315789 22.060785060975604  C 7.04480702043475 21.402725212056836  7.190492517055464 20.754031566926717  7.46175986842105 20.15529725609756  Z M 22.479851973684205 8.648532774390244  C 21.93827626936639 8.996810546355531  21.331542119670463 9.229470106699088  20.69716282894737 9.332126524390244  C 21.87764144114455 14.310227245490829  18.943041116180265 19.33849935554006  14.051089638157892 20.719798018292682  C 13.56446425910412 19.768750620007726  12.591325763440707 19.171154398775908  11.529245174167066 19.171154398775908  C 9.962318869137263 19.171154398775908  8.692074121535486 20.45082832265893  8.692074121535486 22.029386106092982  C 8.692074121535486 23.60794388952703  9.962318869137263 24.887617813410053  11.529245174167066 24.887617813410053  C 12.868214149961272 24.887617813410053  14.024915177333979 23.94455249608827  14.30407072368421 22.62528582317073  C 19.331793164101196 21.334619800189774  22.850451458767708 16.773292205836203  22.850451458767708 11.546391820340943  C 22.850451458767708 10.568446559680671  22.725901462453674 9.594542525759989  22.479851973684205 8.648532774390244  Z " fill-rule="nonzero" fill="#ffffff" stroke="none" transform="matrix(1 0 0 1 725 670 )" />
  </g>
</svg>