<?xml version="1.0" encoding="utf-8"?>
<svg version="1.1" xmlns:xlink="http://www.w3.org/1999/xlink" width="25px" height="23px" xmlns="http://www.w3.org/2000/svg">
  <g transform="matrix(1 0 0 1 -812 -672 )">
    <path d="M 24.867287322795935 10.892187083424384  C 24.86715496947433 9.270708821842216  24.5374116566639 7.6921455269339996  23.88752114807533 6.200890848994756  C 23.269628809240476 4.773542501638985  22.37367999146316 3.4837792080965904  21.224558412665566 2.3674116190450176  C 20.383439957574502 1.5502915086866256  19.437988248913495 0.8594731766280584  18.4145761654077 0.31411564548732396  L 18.006541578280213 0.09667985413024457  L 18.006541578280213 2.522644844023165  L 18.129173640573264 2.6021098503059443  C 18.689687661682534 2.9652957645869757  19.21711150920944 3.385733791794145  19.696819413545118 3.8517227573208053  C 20.637009778559605 4.765088110522291  21.37571424875828 5.828639763166522  21.89211907595199 7.0122246763002645  C 22.427418382657287 8.247339723557694  22.69882379190811 9.552758133468096  22.698823759571606 10.892219219842659  C 22.69875756674255 12.249232036713288  22.427418382657287 13.554425428868006  21.892085963369208 14.772181595552889  C 21.375482590024834 15.956023694274476  20.636910473147765 17.019382465581295  19.69685249379139 17.932619241695807  C 18.756629048530627 18.846016731315565  17.661543680153148 19.563773455255685  16.443462269764073 20.06531594869974  C 15.15867109892384 20.58534238008086  13.814946386072016 20.84900419443838  12.449580692518623 20.84900419443838  C 11.052779387417216 20.84900419443838  9.709220108133277 20.58543882074957  8.455599874534354 20.06528378086757  C 7.237022098768622 19.56351630108173  6.142466208350578 18.845984594897292  5.202308923582366 17.93265140952797  C 4.2620854783216044 17.019253919908216  3.523281735047597 15.955412945257867  3.0070092611754937 14.772149459134617  C 2.4716106813948646 13.524111707823428  2.200139111651488 12.218725434331292  2.200139111651488 10.892219219842659  C 2.200139111651488 9.53517426655376  2.4715114083195346 8.22994870656687  3.0070092611754937 7.012192539881993  C 3.52357955427359 5.828414713996942  4.262151638814153 4.765055974104022  5.202308923582366 3.8517227573208053  C 5.681983715335262 3.385733791794145  6.209407562862166 2.965295796000875  6.770020857046768 2.602045546055508  L 6.892652951676323 2.5225805397727283  L 6.892652951676323 0.0965834134615392  L 6.484618332212334 0.3139870684003498  C 5.461173168460264 0.8593124317089165  4.515721459799253 1.5501629315996504  3.674437538803806 2.3673473147945816  C 2.5253490725889884 3.483747040264425  1.6293340619826138 4.773735351562502  1.0115740764693697 6.200922985413024  C 0.3615181343129134 7.692370513275786  0.03194025507036268 9.270740958260491  0.03194025507036268 10.892187083424389  C 0.03194025507036268 12.51356890433785  0.3616174073882436 14.092132199246066  1.0115740764693697 15.583483286440122  C 1.6294994955504953 17.0109280744646  2.5254152330815383 18.300659231588725  3.6744375388038075 19.416833939302887  C 4.82349292477235 20.53300864701705  6.151367446192052 21.403491169962848  7.6205699956022315 22.003786269394666  C 9.155886667011586 22.63529516089379  10.780579825900247 22.955469699246066  12.449646885347677 22.955469699246066  C 14.11861467171978 22.955469699246066  15.743539457005376 22.635198720225084  17.278723775093123 22.003786269394666  C 18.748191063483024 21.403362592875872  20.07576776567673 20.53300864701704  21.224657685740887 19.41686607572115  C 22.373646878880372 18.30062709517045  23.26969500206953 17.010670888876746  23.887653501396926 15.583419013603578  C 24.537709443553386 14.091907181490377  24.867287322795935 12.513568904337845  24.867287322795935 10.892187083424384  Z " fill-rule="nonzero" fill="#ffffff" stroke="none" transform="matrix(1 0 0 1 812 672 )" />
  </g>
</svg>