<?xml version="1.0" encoding="utf-8"?>
<svg version="1.1" xmlns:xlink="http://www.w3.org/1999/xlink" width="9px" height="9px" xmlns="http://www.w3.org/2000/svg">
  <defs>
    <linearGradient gradientUnits="userSpaceOnUse" x1="4.5" y1="0" x2="4.5" y2="9" id="LinearGradient32">
      <stop id="Stop33" stop-color="#70b603" offset="0" />
      <stop id="Stop34" stop-color="#95f204" offset="1" />
    </linearGradient>
  </defs>
  <g transform="matrix(1 0 0 1 -661 -217 )">
    <path d="M 6.321041662597656 0.05603260444972869  C 6.31393136896051 0.243359676730766  6.2802132512006 0.4285479631040946  6.220989587402343 0.6055434782608697  C 7.545 1.2736413001019022  8.458333337402344 2.6885326044497284  8.458333337402344 4.326086960767663  C 8.458333337402344 4.405380443274455  8.455677087402345 4.484021739130434  8.451458337402345 4.562228256623642  C 8.628186063167545 4.587854490749152  8.800309209886782 4.640617526821372  8.962239587402344 4.7188043478260875  C 8.972604174804687 4.589184782608695  8.979166674804686 4.45847826511549  8.979166662597656 4.326086960767664  C 8.979166662597656 2.421630443274458  7.886979162597656 0.7843478345788052  6.321041662597656 0.05603260444972869  Z M 7.2119791625976575 8.045217391304348  C 7.0617593783839805 7.944172967347216  6.926508783977448 7.820747375590333  6.810520837402343 7.678858695652174  C 6.1602604125976566 8.16766304347826  5.362656250000001 8.456521734884511  4.5 8.456521734884511  C 3.6373437499999994 8.456521734884511  2.8397395874023434 8.16766304347826  2.1894791625976566 7.678858695652174  C 2.0735236295942525 7.82076033633733  1.9382882408897006 7.9441880622678935  1.7880729125976562 8.045217391304346  C 2.5408854125976568 8.64385869140625  3.480416662597656 9  4.5 9  C 5.519583337402344 9  6.459114587402343 8.64385869140625  7.2119791625976575 8.045217391304348  Z M 0.03776041259765606 4.718804347826087  C 0.1996907901132181 4.640617526821371  0.3718139368324529 4.587854490749152  0.5485416625976565 4.562228256623642  C 0.5441271816424824 4.483597390936066  0.5418346071623983 4.40485244423448  0.5416666625976561 4.326086960767663  C 0.5416666625976561 2.688532617187499  1.4549999999999996 1.2736413128396733  2.779010412597655 0.6055434782608689  C 2.7197867487993985 0.4285479631040927  2.686068631039488 0.24335967673076508  2.678958337402344 0.05603260444972776  C 1.1130208374023436 0.7843478218410329  0.02083333740234372 2.4216304305366845  0.02083333740234372 4.326086960767663  C 0.02083333740234372 4.458478265115489  0.027395837402343748 4.589184782608695  0.03776041259765606 4.718804347826087  Z " fill-rule="nonzero" fill="url(#LinearGradient32)" stroke="none" transform="matrix(1 0 0 1 661 217 )" />
  </g>
</svg>