<?xml version="1.0" encoding="utf-8"?>
<svg version="1.1" xmlns:xlink="http://www.w3.org/1999/xlink" width="10px" height="10px" xmlns="http://www.w3.org/2000/svg">
  <g transform="matrix(1 0 0 1 -719 -216 )">
    <path d="M 8.4375 10  C 8.4375 9.8271484375  8.3671875 9.6708984375  8.2548828125 9.5576171875  C 8.169921875 9.47265625  8.060546875 9.412109375  7.9384765625 9.3876953125  C 7.865234375 9.373046875  7.8125 9.310546875  7.8125 9.236328125  L 7.8125 5.646484375  C 7.8125 4.09375  6.5419921875 2.8066406250000004  4.9892578125 2.8125000000000004  C 3.44140625 2.818359375000001  2.1875 4.075195312500001  2.1875 5.625  L 2.1875 9.236328125  C 2.1875 9.310546875  2.134765625 9.373046875  2.0615234375 9.3876953125  C 1.7763671875 9.4462890625  1.5625 9.6982421875  1.5625 10  L 8.4375 10  Z M 3.90625 6.9013671875  L 5.5400390625 4.53125  L 5.3505859375 6.2236328125  L 6.09375 6.2236328125  L 4.4609375 8.59375  L 4.650390625 6.9013671875  L 3.90625 6.9013671875  Z M 5.3125 1.71875  C 5.3125 1.8916015625  5.1728515625 2.03125  5 2.03125  C 4.8271484375 2.03125  4.6875 1.8916015625  4.6875 1.71875  L 4.6875 0.3125  C 4.6875 0.1396484375  4.8271484375 0  5 0  C 5.1728515625 0  5.3125 0.1396484375  5.3125 0.3125  L 5.3125 1.71875  Z M 2.8486328125 2.4648437500000004  C 2.9345703125 2.6142578125000004  2.8837890625 2.8046875000000004  2.734375 2.8916015625  C 2.5849609375 2.9775390625000004  2.3935546875 2.9267578125000004  2.3076171875 2.7773437500000004  L 1.6044921875 1.5595703125000004  C 1.5185546875 1.4101562500000004  1.5693359375000002 1.2187500000000004  1.71875 1.1328125000000004  C 1.8681640625 1.0468750000000002  2.0595703125 1.0976562500000004  2.1455078125 1.2470703125000002  L 2.8486328125 2.4648437500000004  Z M 7.1513671875 2.4648437500000004  C 7.0654296875 2.6142578125000004  7.1162109375 2.8046875000000004  7.265625 2.8916015625  C 7.4150390625 2.9775390625000004  7.6064453125 2.9267578125000004  7.6923828125 2.7773437500000004  L 8.3955078125 1.5595703125000004  C 8.4814453125 1.4101562500000004  8.4306640625 1.2187500000000004  8.28125 1.1328125000000004  C 8.1318359375 1.0468750000000002  7.9404296875 1.0976562500000004  7.8544921875 1.2470703125000002  L 7.1513671875 2.4648437500000004  Z M 1.755859375 3.962890625  C 1.9228515625 4.0068359375  2.021484375 4.177734375  1.9775390625 4.3447265625  C 1.9326171875 4.51171875  1.76171875 4.6103515625  1.5947265625 4.5654296875  L 0.236328125 4.2021484375  C 0.0693359375 4.1572265625  -0.029296875 3.986328125  0.0146484375 3.8193359375  C 0.0595703125 3.65234375  0.23046875 3.5537109375  0.3974609375 3.5986328125  L 1.755859375 3.962890625  Z M 8.2431640625 3.9619140625  C 8.0771484375 4.0068359375  7.978515625 4.177734375  8.0224609375 4.3447265625  C 8.0673828125 4.51171875  8.23828125 4.6103515625  8.4052734375 4.5654296875  L 9.763671875 4.201171875  C 9.9306640625 4.15625  10.029296875 3.9853515625  9.984375 3.818359375  C 9.939453125 3.6513671875  9.7685546875 3.552734375  9.6015625 3.59765625  L 8.2431640625 3.9619140625  Z " fill-rule="nonzero" fill="#aaaaaa" stroke="none" transform="matrix(1 0 0 1 719 216 )" />
  </g>
</svg>