<?xml version="1.0" encoding="utf-8"?>
<svg version="1.1" xmlns:xlink="http://www.w3.org/1999/xlink" width="12px" height="16px" xmlns="http://www.w3.org/2000/svg">
  <g transform="matrix(1 0 0 1 -720 -536 )">
    <path d="M 11.923310148029254 7.680282000440625  C 11.923310148029254 7.1162811191892485  11.580881041555202 6.665080414188147  11.01016586409845 6.665080414188147  L 10.097021580167649 6.665080414188147  L 10.097021580167649 4.070676360431812  C 10.097021580167649 1.8146728354263044  8.270733012306048 0.009870015421897867  5.987872302479045 0.009870015421897867  C 3.705011592652043 0.009870015421897867  1.8787230247904412 1.814672835426305  1.8787230247904412 4.070676360431812  L 1.8787230247904412 6.665080414188147  L 0.9655787408596403 6.665080414188147  C 0.3948635634028898 6.665080414188147  0.05243445692884002 7.1162811191892485  0.05243445692884002 7.680282000440625  L 0.05243445692884002 14.899493280458252  C 0.05243445692884002 15.46349416170963  0.5090065988942402 15.914694866710729  0.9655787408596403 16  L 11.01016586409845 16  C 11.580881041555202 15.914694866710729  11.923310148029254 15.46349416170963  11.923310148029254 14.899493280458252  L 11.923310148029254 7.680282000440625  Z M 3.3625824861779927 6.665080414188147  L 3.3625824861779927 4.183476536682088  C 3.3625824861779927 2.7170742454285084  4.618155876582844 1.7018726591760296  5.873729266987695 1.7018726591760296  C 7.357588728375246 1.7018726591760296  8.384876047797398 2.9426745979290594  8.384876047797398 4.183476536682088  L 8.499019083288747 6.665080414188147  L 3.3625824861779927 6.665080414188147  Z M 7.015159621901196 10.27468605419696  C 7.129302657392547 10.838686935448337  6.901016586409846 11.289887640449438  6.558587479935795 11.402687816699713  L 6.558587479935795 12.981890284203569  C 6.558587479935795 12.981890284203569  6.558587479935795 13.094690460453844  6.444444444444445 13.094690460453844  L 5.531300160513645 13.094690460453844  C 5.531300160513645 13.094690460453844  5.417157125022294 13.094690460453844  5.417157125022294 12.981890284203569  L 5.417157125022294 11.402687816699713  C 4.960584983056894 11.177087464199165  4.732298912074194 10.838686935448337  4.732298912074194 10.27468605419696  C 4.732298912074194 9.597884996695308  5.303014089530944 9.03388411544393  5.873729266987695 9.03388411544393  C 6.444444444444445 9.03388411544393  7.015159621901196 9.597884996695308  7.015159621901196 10.27468605419696  Z " fill-rule="nonzero" fill="#ffffff" stroke="none" transform="matrix(1 0 0 1 720 536 )" />
  </g>
</svg>