<?xml version="1.0" encoding="utf-8"?>
<svg version="1.1" xmlns:xlink="http://www.w3.org/1999/xlink" width="13px" height="10px" xmlns="http://www.w3.org/2000/svg">
  <g transform="matrix(1 0 0 1 -824 -179 )">
    <path d="M 12.908999999999995 4.702988505747126  C 12.95195652173913 4.875977011494252  12.95195652173913 5.056206896551721  12.90911304347826 5.229425287356323  L 12.865817391304349 5.40448275862069  L 12.168452173913044 5.568620689655173  C 12.190543702934926 5.736937033185793  12.20611805114193 5.906071501241583  12.215139130434782 6.075632183908049  L 12.215139130434782 8.961149425287358  C 12.204739130434783 9.23057471264368  12.201121739130437 9.489885057471266  12.033817391304348 9.700689655172415  L 11.963165217391301 9.789885057471267  L 11.851704347826082 9.811379310344833  C 11.172645120468001 9.942416739913792  10.47665839177121 9.955513986337508  9.79329565217391 9.850114942528737  L 9.729991304347823 9.840344827586213  L 9.676295652173907 9.806091954022994  C 9.318399999999995 9.579195402298854  9.249104347826082 9.233218390804602  9.262104347826083 8.740229885057477  L 9.263573913043475 8.680344827586211  L 9.263913043478256 8.600919540229892  L 3.8287826086956493 8.600919540229892  C 3.817704347826085 8.652873563218398  3.806173913043475 8.711609195402305  3.7924956521739106 8.780459770114948  L 3.75846956521739 8.957011494252878  C 3.643391304347823 9.542643678160925  3.60925217391304 9.750000000000005  3.3738956521739123 9.83540229885058  L 3.3224608695652167 9.849310344827591  C 2.6249385904403764 9.971263976793836  1.912061409559621 9.971263976793836  1.214539130434781 9.849310344827591  L 1.0953913043478243 9.828275862068969  L 1.0228173913043466 9.731954022988509  C 0.8425130434782596 9.49264367816092  0.7899478260869549 9.202413793103453  0.7881391304347803 8.923103448275866  C 0.7649652173913023 8.598965517241384  0.7528695652173892 8.274137931034488  0.7518521739130415 7.949080459770116  C 0.7507217391304322 7.817011494252874  0.7503826086956512 7.711609195402303  0.7503826086956512 7.473333333333336  C 0.7503826086956512 6.874942528735634  0.7507217391304322 6.670919540229889  0.7547913043478236 6.40034482758621  C 0.7585217391304341 6.13609195402299  0.7192956521739113 5.87528735632184  0.7315043478260858 5.553908045977013  L 0.14073913043478153 5.398045977011496  L 0.10072173913043539 5.214367816091958  C 0.0696350589229123 5.072854700482029  0.0696350589229123 4.926110816759356  0.10072173913043378 4.784597701149425  L 0.11293043478260816 4.742068965517242  C 0.37462608695652094 4.046551724137929  0.7414521739130416 3.695402298850575  1.386591304347825 3.72735632183908  C 1.404791304347825 3.7080459770114964  1.419826086956522 3.685747126436782  1.4310173913043454 3.6614942528735654  C 1.659133246671588 3.1310073476477336  1.8585753774486335 2.5882445142416266  2.0284521739130406 2.0356321839080467  C 2.300129290531599 1.0790526284359272  3.1246625617274755 0.39251926496701384  4.100539130434782 0.3103448275862056  C 4.27338260869565 0.2796551724137923  4.4467913043478235 0.2520689655172411  4.62053913043478 0.22758620689654893  L 4.723069565217388 0.2121839080459758  C 4.857360453515507 0.19315170498699913  4.99147355177598 0.172844305485069  5.125391304347823 0.1512643678160906  L 5.3082956521739115 0.1214942528735602  C 5.3082956521739115 0.1214942528735602  7.029947826086955 0.0503448275862039  7.872234782608694 0.17724137931034173  C 8.013313043478258 0.20551724137930671  8.094704347826083 0.22126436781609  8.391895652173913 0.27735632183907843  C 9.025956521739127 0.3970114942528712  9.333886956521738 0.46252873563218233  9.683304347826082 0.5591954022988483  C 10.20635412142034 0.6892328114677351  10.627664382204319 1.0822361740388384  10.800060869565213 1.6009195402298833  C 11.045848096387985 2.293353083576263  11.304234487937174 2.9810956837193716  11.575086956521734 3.663793103448276  C 11.589217391304343 3.692068965517239  11.6069652173913 3.7182758620689644  11.627991304347821 3.741724137931034  C 12.236504347826084 3.692413793103448  12.795052173913039 4.107126436781606  12.908999999999995 4.702988505747126  Z M 12.325808695652174 4.914827586206898  C 12.322695030156018 4.887932674267339  12.317976180771641 4.861255111965196  12.311678260869567 4.834942528735635  C 12.250634782608694 4.517701149425288  11.94564347826087 4.306206896551724  11.617252173913045 4.3614942528735625  C 11.35442608695652 4.399080459770117  11.115678260869563 4.150344827586208  11.008739130434785 3.896666666666668  C 10.733039991400602 3.202481774650869  10.470205110742201 2.503086075793793  10.220373913043478 1.7988505747126444  C 10.11406578398285 1.4763434625174976  9.851984697445857 1.232182399920505  9.52673913043478 1.152643678160922  C 9.192921739130432 1.0604597701149456  8.89606956521739 0.9975862068965535  8.278626086956523 0.8809195402298853  C 8.105778782530113 0.8482935008276444  7.933047234528402 0.8150365815128384  7.7604347826086935 0.781149425287357  C 6.924252173913042 0.6568965517241383  5.040608695652173 0.7860919540229884  5.040608695652173 0.7860919540229884  L 4.81146956521739 0.8195402298850569  L 4.7092782608695645 0.83494252873563  C 4.491669565217391 0.8668965517241365  4.350930434782607 0.8891954022988493  4.179217391304347 0.9185057471264351  C 3.44002608695652 0.9775862068965496  2.815573913043476 1.4928735632183907  2.615713043478262 2.2086206896551728  C 2.4401259701130167 2.7816003129669626  2.2337757211608507 3.3443605545012334  1.9975913043478266 3.8943678160919544  C 1.913147826086957 4.11264367816092  1.6822000000000001 4.345977011494253  1.4294347826086953 4.344827586206898  C 1.054130434782609 4.312068965517243  0.8819652173913052 4.45735632183908  0.7043739130434793 4.911609195402298  L 1.5020086956521745 5.085517241379314  L 1.4916086956521732 5.332413793103448  C 1.4760086956521725 5.691034482758621  1.4653826086956516 6.049885057471266  1.4597304347826068 6.408850574712641  C 1.4556616489629017 6.763623793808685  1.4541920429716861 7.118422909646011  1.4553217391304343 7.4732183908046  C 1.4553217391304343 7.709540229885058  1.455660869565217 7.813793103448278  1.4567913043478244 7.943678160919542  C 1.4597304347826083 8.302758620689657  1.4919478260869543 9.219310344827585  1.4919478260869543 9.219310344827585  L 3.112313043478259 9.235057471264371  L 3.354904347826085 7.845747126436783  L 9.863043478260867 7.845747126436783  C 9.863043478260867 7.845747126436783  9.88022608695652 8.574367816091957  9.87649565217391 8.786321839080463  L 9.875026086956522 8.850344827586209  C 9.868017391304345 9.101724137931038  9.88022608695652 9.187241379310349  9.957547826086955 9.253448275862072  C 10.507165217391302 9.33057471264368  10.950295652173912 9.323103448275864  11.497765217391303 9.230919540229888  C 11.547730434782608 9.141724137931039  11.506695652173912 9.043448275862072  11.51031304347826 8.949080459770117  L 11.511104347826086 6.0932183908046  C 11.497845692664551 5.8600320014123675  11.470665179558315 5.627880138807386  11.429713043478259 5.398045977011496  L 11.380086956521737 5.121034482758624  L 12.325808695652174 4.914827586206898  Z M 2.8552521739130414 6.426206896551726  C 2.8552521739130414 6.034367816091956  3.1721130434782583 5.717126436781613  3.563017391304345 5.717126436781613  C 3.9534695652173895 5.717126436781613  4.270330434782607 6.034367816091956  4.270330434782607 6.426206896551726  C 4.270330434782607 6.818045977011495  3.9534695652173895 7.135287356321842  3.563017391304345 7.135287356321842  C 3.1721130434782583 7.135287356321842  2.8552521739130414 6.818045977011495  2.8552521739130414 6.426206896551726  Z M 8.566208695652174 6.426206896551726  C 8.566208695652174 6.034367816091956  8.882617391304345 5.717126436781613  9.273521739130434 5.717126436781613  C 9.66442608695652 5.717126436781613  9.981286956521739 6.034367816091956  9.981286956521739 6.426206896551726  C 9.981286956521739 6.818045977011495  9.66442608695652 7.135287356321842  9.273521739130434 7.135287356321842  C 8.882617391304345 7.135287356321842  8.566208695652174 6.818045977011495  8.566208695652174 6.426206896551726  Z " fill-rule="nonzero" fill="#f2f2f2" stroke="none" transform="matrix(1 0 0 1 824 179 )" />
  </g>
</svg>