<?xml version="1.0" encoding="utf-8"?>
<svg version="1.1" xmlns:xlink="http://www.w3.org/1999/xlink" width="15px" height="20px" xmlns="http://www.w3.org/2000/svg">
  <g transform="matrix(1 0 0 1 -817 -169 )">
    <path d="M 13.76805343511451 8.870643274853801  L 13.76828244274809 2.3739181286549704  C 13.76828244274809 2.2031578947368415  13.765992366412215 2.0403508771929824  13.70645038167939 1.891345029239766  L 13.70645038167939 1.8844444444444441  C 13.70645038167939 1.7591812865497074  13.564351145038167 1.565029239766082  13.419274809160305 1.4585964912280702  C 13.195076335877863 1.2364912280701754  12.8906106870229 1.3226900584795318  12.555458015267176 1.3226900584795318  L 2.458740458015267 1.3226900584795318  C 1.7726335877862596 1.3226900584795318  1.2769465648854958 1.6712280701754385  1.2769465648854958 2.3739181286549704  L 1.2769465648854958 16.990292397660816  L 1.2777480916030532 16.991461988304096  L 1.2769465648854958 16.991812865497074  L 1.2769465648854958 17.03473684210526  C 1.3196564885496183 17.173333333333332  1.49324427480916 17.671228070175438  2.7874809160305345 18.663859649122806  L 2.827557251908397 18.702923976608187  L 3.9740839694656493 17.59345029239766  C 3.9740839694656493 17.59345029239766  4.422480916030533 17.26561403508772  4.909923664122137 17.601520467836256  C 5.03736641221374 17.689590643274855  5.1656106870229 17.820584795321636  5.285267175572519 17.965730994152047  L 6.488473282442749 19.16187134502924  L 5.629694656488551 19.922105263157896  L 4.438282442748093 18.744444444444447  L 3.369389312977101 19.77964912280702  C 3.2226568144078374 19.92199346261762  3.0277417048312105 20.000902131603443  2.8253816793893143 19.99988304093567  C 2.6244323034225 20.001297589546216  2.430717549733073 19.92335701874707  2.2846946564885515 19.78233918128655  L 0.587175572519086 18.228538011695907  C 0.5490289288253418 18.191236165741007  0.5151831420471843 18.149601219186092  0.48629770992366617 18.104444444444447  C 0.19568702290076534 17.868187134502925  0.08290076335878027 17.53309941520468  0.08290076335878027 17.163508771929827  L 0.08290076335878027 16.94444444444445  L 0 16.94444444444445  L 0 1.9060818713450292  C 0.08404580152671919 0.823859649122807  0.9437404580152684 0.10269005847953239  2.000610687022902 0.10269005847953239  L 13.013244274809162 0.10269005847953239  C 14.069770992366417 0.10269005847953239  14.929465648854965 0.823859649122807  14.929465648854965 1.9060818713450292  L 14.929465648854965 8.8693567251462  L 13.76805343511451 8.870643274853801  Z " fill-rule="nonzero" fill="#f2f2f2" stroke="none" transform="matrix(1 0 0 1 817 169 )" />
  </g>
</svg>