<?xml version="1.0" encoding="utf-8"?>
<svg version="1.1" xmlns:xlink="http://www.w3.org/1999/xlink" width="14px" height="18px" xmlns="http://www.w3.org/2000/svg">
  <g transform="matrix(1 0 0 1 -851 -170 )">
    <path d="M 13.335528277628313 14.625210919921876  L 13.334369409664736 14.625210919921875  L 12.827944109581953 14.625210919921875  L 12.827944109581953 6.750703089843751  C 12.828347926943312 3.888629059806647  10.61462471491006 1.4826245336443602  7.684888069122517 1.1609274375000003  L 7.684888069122517 0.63446034375  C 7.684888069122517 0.28498949379102867  7.393038960245629 0.001687394531249837  7.0330248396109285 0.001687394531249837  C 6.673010718976226 0.001687394531249837  6.381161610099336 0.2849894937910292  6.381161610099336 0.63446034375  L 6.381161610099338 1.1609274374999998  C 3.4523439878213003 1.4836827938675554  1.2398859879145083 3.8893963562188527  1.240423305567053 6.750703089843751  L 1.240423305567053 14.625210919921876  L 0.732839137520695 14.625210919921876  C 0.3728250118854846 14.625210919921875  0.08097589895488462 14.908513023116651  0.08097589895488462 15.257983877929686  C 0.08097589895488462 15.60745473274272  0.3728250118854856 15.8907568359375  0.732839137520695 15.8907568359375  L 5.731036682533112 15.8907568359375  L 5.731036682533111 16.7344541015625  C 5.731036682533111 17.43339580148044  6.314734900286886 18  7.03476314155629 18  C 7.754791382825694 18  8.338489600579472 17.43339580148044  8.338489600579472 16.7344541015625  L 8.338489600579472 15.8907568359375  L 13.335528277628313 15.8907568359375  C 13.695542403263522 15.8907568359375  13.987391516194123 15.60745473274272  13.987391516194123 15.257983877929686  C 13.987391516194123 14.908513023116651  13.695542403263522 14.625210919921875  13.335528277628313 14.625210919921875  Z M 11.524217650558773 6.750703089843751  L 11.524217650558773 14.625210919921875  L 2.5429908966266557 14.625210919921875  L 2.542990896626656 6.750703089843751  C 2.542990896626656 4.343237224862711  4.553506988108201 2.3916005332031256  7.033604273592717 2.3916005332031256  C 9.513701559077232 2.3916005332031256  11.524217650558773 4.343237224862711  11.524217650558773 6.750703089843751  Z " fill-rule="nonzero" fill="#f2f2f2" stroke="none" fill-opacity="0.9921568627450981" transform="matrix(1 0 0 1 851 170 )" />
  </g>
</svg>