<?xml version="1.0" encoding="utf-8"?>
<svg version="1.1" xmlns:xlink="http://www.w3.org/1999/xlink" width="9px" height="10px" xmlns="http://www.w3.org/2000/svg">
  <g transform="matrix(1 0 0 1 -776 -217 )">
    <path d="M 7.922395315848213 3.442398817567568  C 8.162824982142856 4.023404729729729  8.268170916294642 4.661369774070946  8.224141520089287 5.299002776604729  C 8.012098938616072 5.227136972128378  7.772028729910713 5.188370418074323  7.5304117265625 5.188370428631757  C 6.245988770089285 5.188370428631757  5.2047513984375 6.2917286845439175  5.2047513984375 7.632746706081081  C 5.2047513984375 8.054816649070947  5.306535321428571 8.45188182010135  5.485692033482143 8.798342103040541  C 4.829684604910714 8.987400580658782  4.125072736607142 8.989438513513514  3.4506017176339276 8.78199283150338  C 3.6245733649553578 8.43939088893581  3.723318150669643 8.048221980574326  3.723318150669643 7.632746706081081  C 3.723318150669643 6.291728673986486  2.6820807790178574 5.188370418074323  1.3976578225446423 5.188370428631757  C 1.1799835714285711 5.188370428631757  0.9693243883928567 5.219901161317567  0.7695037265624997 5.278680679898649  C 0.729177940848214 4.664506809543919  0.8256134229910713 4.0349682854729725  1.0721867243303569 3.442398817567568  L 7.922395315848213 3.442398817567568  Z M 5.078207752232143 5.690618190456082  L 4.371863896205356 3.713856239442568  L 3.861255857142857 3.713856239442568  L 3.163430310267857 5.690618190456082  L 3.6229720982142855 5.690618190456082  L 3.7591342433035715 5.261278093327703  L 4.473985510044643 5.261278093327703  L 4.610147655133929 5.690618190456082  L 5.078207752232143 5.690618190456082  Z M 5.691961335937499 5.690618190456082  L 5.691961335937499 3.713856239442568  L 5.257941780133928 3.713856239442568  L 5.257941780133928 5.690618190456082  L 5.691961335937499 5.690618190456082  Z M 3.85274844642857 4.921378125  L 4.065499074776785 4.2505313661317565  C 4.088101992187499 4.178974683277027  4.102328209821428 4.119439527027027  4.108047016741071 4.0716396537162165  L 4.116565325892857 4.0716396537162165  C 4.127861340401785 4.1253128906250005  4.142087558035714 4.182054476351351  4.166662098214285 4.241589643158784  L 4.397397026785713 4.921378125  L 3.85274844642857 4.921378125  Z M 8.339672380580357 3.794343201013513  C 8.131268049107144 3.6678767842060807  8.059864620535715 3.3877867504222974  8.1801883828125 3.1789557326858113  C 8.300501256696428 2.949711021959459  8.566986907366072 2.8746623733108105  8.775391238839287 3.0011287901182433  C 8.983784681919644 3.127583762668919  9.05518811049107 3.4076737858952706  8.934875236607143 3.6369184966216217  C 8.814551474330358 3.8457495249155405  8.548065813616072 3.920798173564189  8.339672380580357 3.794343201013513  Z M 4.995137943080357 9.942836866554055  C 4.7867336116071435 9.811745027449327  4.722094717633929 9.528357664695946  4.8356539453125 9.309314062500002  C 4.955977707589286 9.090281915118245  5.222452469866071 9.015233266469595  5.430856811383929 9.14168823902027  C 5.639261142857142 9.268154655827702  5.7106645714285715 9.548244689611487  5.590340809151787 9.767276836993243  C 5.470017046875001 9.986320428631757  5.203542284598216 10.061369077280403  4.995137943080357 9.942836866554055  Z M 3.6823932622767854 0.8756434227195946  C 3.473988930803571 0.7491884501689188  3.4025855022321427 0.4690984269425674  3.5229092645089284 0.25005483530405404  C 3.643233026785714 0.03504131123310808  3.9097077890625 -0.04401450591216217  4.118112120535714 0.08242901182432434  C 4.326516452008928 0.2088954286317567  4.397919880580357 0.49300408572635124  4.277596118303571 0.7080175992398647  C 4.157272356026785 0.9270611908783782  3.89079759375 1.002109839527027  3.6823932622767854 0.8756434227195946  Z M 0.25509403125000013 7.197350052787162  C 0.046689699776785804 7.070883635979731  -0.02471372879464272 6.790793602195945  0.09561003348214282 6.571761465371622  C 0.2173063158482143 6.352717873733108  0.48240855803571414 6.27766922508446  0.6908128995535714 6.404135641891892  C 0.8992172310267857 6.530590614442567  0.9706206595982142 6.810680637668918  0.8502968973214288 7.0297242293074325  C 0.7299840234375002 7.2487563766891885  0.46349837276785727 7.325350644003378  0.25509403125000013 7.197350052787162  Z " fill-rule="nonzero" fill="#aaaaaa" stroke="none" transform="matrix(1 0 0 1 776 217 )" />
  </g>
</svg>