<?xml version="1.0" encoding="utf-8"?>
<svg version="1.1" xmlns:xlink="http://www.w3.org/1999/xlink" width="18px" height="14px" xmlns="http://www.w3.org/2000/svg">
  <g transform="matrix(1 0 0 1 -538 -498 )">
    <path d="M 16.04921083172147 14  C 17.773642166344295 13.930150440575972  18.4787582205029 12.875802707930367  17.6167079303675 11.583442940038685  L 10.561038684719536 1.0232215774768971  C 9.698030947775626 -0.26788953363421414  8.287624758220502 -0.26788953363421414  7.4248433268858784 1.0232215774768971  L 0.3691392649903288 11.583442940038685  C -0.493642166344294 12.875877928218353  0.2122050290135396 13.930165484633571  1.9365667311411994 14  L 16.04921083172147 14  Z M 7.645508704061893 4.893139909735655  C 7.645543520309477 4.546675263271008  7.771787234042553 4.255316999785085  8.023822050290134 4.019576617236192  C 8.277371373307544 3.782677842252311  8.599717601547388 3.664205888673974  8.992845261121856 3.664205888673974  C 9.386181818181818 3.664205888673974  9.708232108317214 3.781429185471739  9.962042553191486 4.014837739093059  C 10.214199226305608 4.248772834730282  10.34023404255319 4.541334622823985  10.34023404255319 4.893139909735655  C 10.34023404255319 5.195826348592307  9.813899419729205 7.421594670105309  9.638338491295936 9.040846765527618  L 8.370591876208895 9.040846765527618  C 8.216617021276592 7.421579626047712  7.645508704061893 5.195826348592307  7.645508704061893 4.893139909735655  Z M 10.342497098646035 10.905407264130671  C 10.342497098646035 11.22396518375242  10.210021276595745 11.495209542230818  9.944286266924564 11.71914033956587  C 9.677593810444874 11.943597678916827  9.360243713733075 12.055450247152375  8.992932301740813 12.055450247152375  C 8.625707930367504 12.055450247152375  8.308270793036751 11.94359767891683  8.041630560928434 11.71914033956587  C 7.775721470019342 11.495209542230818  7.643558994197291 11.22396518375242  7.643558994197291 10.905407264130668  C 7.643558994197291 10.588504190844615  7.775721470019342 10.314326241134752  8.041630560928434 10.084528261336773  C 8.308270793036751 9.854655061250806  8.625707930367506 9.739718461207826  8.992932301740813 9.739718461207826  C 9.360243713733075 9.739718461207826  9.677593810444874 9.854655061250806  9.944286266924564 10.084528261336773  C 10.210021276595745 10.314326241134752  10.342497098646035 10.588504190844615  10.342497098646035 10.905407264130671  Z " fill-rule="nonzero" fill="#d9001b" stroke="none" transform="matrix(1 0 0 1 538 498 )" />
  </g>
</svg>