<?xml version="1.0" encoding="utf-8"?>
<svg version="1.1" xmlns:xlink="http://www.w3.org/1999/xlink" width="26px" height="30px" xmlns="http://www.w3.org/2000/svg">
  <g transform="matrix(1 0 0 1 -1635 -763 )">
    <path d="M 5.561589403973509 7.568181818181817  C 5.561589403973509 11.693181818181817  8.86754966887417 15.034090909090908  12.965562913907283 15.034090909090908  C 17.046357615894035 15.034090909090908  20.369536423841055 11.69318181818182  20.369536423841055 7.551136363636363  C 20.369536423841055 3.409090909090906  17.046357615894035 0.06818181818181704  12.965562913907283 0.06818181818181704  C 8.884768211920528 0.06818181818181704  5.561589403973509 3.4431818181818175  5.561589403973509 7.568181818181817  Z M 25.724503311258278 27.44318181818182  C 26.396026490066223 24.272727272727273  24.966887417218544 21.715909090909086  23.17615894039735 19.704545454545453  C 21.471523178807946 17.761363636363633  20.903311258278148 17.096590909090907  17.80397350993377 16.909090909090907  L 8.144370860927152 16.909090909090907  C 5.0450331125827805 17.096590909090907  4.47682119205298 17.76136363636364  2.7894039735099327 19.704545454545453  C 0.981456953642384 21.715909090909086  -0.44768211920529827 24.272727272727273  0.22384105960264913 27.44318181818182  C 0.981456953642384 29.522727272727277  3.013245033112584 29.982954545454547  4.941721854304636 30  L 21.00662251655629 30  C 22.935099337748348 29.982954545454547  24.966887417218544 29.505681818181817  25.724503311258278 27.44318181818182  Z " fill-rule="nonzero" fill="#000000" stroke="none" transform="matrix(1 0 0 1 1635 763 )" />
  </g>
</svg>