<?xml version="1.0" encoding="utf-8"?>
<svg version="1.1" xmlns:xlink="http://www.w3.org/1999/xlink" width="17px" height="15px" xmlns="http://www.w3.org/2000/svg">
  <g transform="matrix(1 0 0 1 -1356 -383 )">
    <path d="M 7.602038704534966 14.226781735537191  C 7.588987565549355 14.64189596499757  7.315441397826907 14.967185221195916  6.980134102445779 14.967185221195916  L 0.5436262809917355 14.967185221195914  C 0.3886077106281458 14.96664641511611  0.24206120691432592 14.894786272639324  0.14460376725259055 14.771521633446765  C 0.01782942484373036 14.613660670879922  -0.027842429835969268 14.385094812834225  0.01914167051222892 14.144978138065143  L 2.6894189134538746 0.497734842002915  C 2.744005621932518 0.23016664060100714  2.9727081935924597 0.037043445231600115  3.239991552628267 0.03281507049100618  L 7.531362864454421 0.03281507049100618  C 7.816665777400407 0.032814757829882996  8.047494283288996 0.2688349083145824  8.047494283288996 0.5599805186466066  C 8.047494283288996 0.5664333966634748  8.047378407866917 0.5728857307727582  8.047146715610184 0.5793342586290712  L 7.602038704534966 14.226781735537191  Z M 3.350676607794605 0.7442977977637325  L 0.7058455199899316 14.25570249392319  L 6.898589459244032 14.25570249392319  C 6.903295618249909 14.238519331849684  6.905995951366464 14.220826961193392  6.906634095733524 14.202994666990763  L 7.345665838822 0.7442977977637325  L 3.350676607794605 0.7442977977637325  Z M 15.286691817762305 5.151307919299952  C 15.191311261508993 5.270157522737062  15.048697436155145 5.338823783184588  14.898338431849648 5.338293821098686  L 9.913088695725136 5.338293821098686  C 9.616264430926714 5.338293821098686  9.366196064102029 5.0772631939718025  9.355541199815415 4.756217997083131  L 9.21985214498469 0.5793342586290708  C 9.219620459791814 0.5728858289674206  9.219504587903451 0.566433593226875  9.219504587903451 0.5599808136036382  C 9.219504587903451 0.26883520327161436  9.45033309379204 0.032815052786914815  9.735074485961091 0.032815052786914815  L 14.02700732223015 0.03281507049100618  C 14.294129382924403 0.037246176279924284  14.522600805357143 0.23032424810548696  14.577152040944751 0.49773484200291657  L 15.395422782229314 4.674618580456976  C 15.431038571362784 4.842148103142821  15.39111586313103 5.017173952357914  15.286691817762305 5.151307919299952  Z M 9.920905115576625 0.744312382109868  L 10.047693721525363 4.6268110938259595  L 14.675884263959393 4.6268110938259595  L 13.916778686076269 0.744312382109868  L 9.920905115576625 0.744312382109868  Z M 16.724042965977265 14.61144385026738  L 10.285367086462223 14.61144385026738  C 10.14184734824013 14.61144385026738  10.018553309560767 14.432012639766649  10.011364485463773 14.214778818667963  L 9.801761781264421 7.784701166747691  C 9.796541325670177 7.6301800194457945  9.890480999286824 7.504565046183764  10.010080766875026 7.504565046183764  L 15.376523591894953 7.504565046183764  C 15.496123373746693 7.504565046183764  15.618547336493686 7.630180019445795  15.648771777488777 7.784701166747691  L 16.907357980450563 14.2147934030141  C 16.949977437597013 14.432012654350997  16.867562704199354 14.611443850267383  16.724057229517136 14.611443850267383  Z " fill-rule="nonzero" fill="#ffffff" stroke="none" transform="matrix(1 0 0 1 1356 383 )" />
  </g>
</svg>