<?xml version="1.0" encoding="utf-8"?>
<svg version="1.1" xmlns:xlink="http://www.w3.org/1999/xlink" width="8px" height="8px" xmlns="http://www.w3.org/2000/svg">
  <g transform="matrix(1 0 0 1 -1366 -390 )">
    <path d="M 7.776183643550123 7.767243012350266  C 7.677978445421972 7.892815982147981  7.530307537824743 7.966021820612034  7.374099561624148 7.966570712229548  L 0.886022076895436 7.966570712229548  C 0.5483576859504119 7.966570712229548  0.27248274523895055 7.635189896926364  0.25956143729787895 7.21231685021822  L 0.04832176787639281 0.6618109016621788  C 0.04040762979904176 0.48163004453061253  0.10322465950926955 0.3057819612049609  0.22252227093064986 0.1741593091280541  C 0.3230047762125769 0.06454952403195614  0.46252683204453954 0.0022571015939381518  0.6086092130794093 0.001783043922370545  L 6.016226791232483 0.001783043922370545  C 6.305023054257996 0.001783043922370545  6.570592569169961 0.24981350171789513  6.634351103126122 0.5784605441545172  L 7.902608350700682 7.128966492710558  C 7.949938569888609 7.373579734422883  7.903916291771467 7.606425851982542  7.776183643550123 7.767243012350266  Z M 0.9611783830398855 7.188069473488719  C 0.9618214236552882 7.20623570578503  0.9645424754402553 7.224259394243873  0.9692847430830066 7.24176433837868  L 7.209313359683797 7.24176433837868  L 5.9476389363995725 0.7266042900919313  L 0.7527989363995684 0.7266042900919313  L 0.9611783830398855 7.188069473488719  Z " fill-rule="nonzero" fill="#000000" stroke="none" transform="matrix(1 0 0 1 1366 390 )" />
  </g>
</svg>