<?xml version="1.0" encoding="utf-8"?>
<svg version="1.1" xmlns:xlink="http://www.w3.org/1999/xlink" width="16px" height="16px" xmlns="http://www.w3.org/2000/svg">
  <g transform="matrix(1 0 0 1 -1358 -475 )">
    <path d="M 7.9394646616541324 15.951206015037592  C 3.5795248120300722 15.946730827067668  0.034983458646613654 12.372932330827068  0.03594586466165413 7.982532330827067  C 0.03695639097744296 3.5674947368421046  3.5954045112781965 0.02203909774435997  8.022760902255639 0.024781954887217558  C 12.429762406015037 0.027524812030074293  15.96602706766917 3.592902255639096  15.962321804511275 8.029738345864661  C 15.958616541353381 12.427260150375941  12.384962406015037 15.95572932330827  7.9394646616541324 15.951206015037592  Z M 0.6498165413533845 7.9999999999999964  C 0.6519338345864666 12.062604511278192  3.9385022556390994 15.341088721804507  8.005052631578948 15.337142857142855  C 12.073479699248118 15.33314887218045  15.348547368421054 12.055627067669173  15.348547368421054 7.988066165413531  C 15.348547368421054 3.9210345864661647  12.073094736842105 0.6429834586466148  8.005245112781955 0.6389413533834569  C 3.928830075187972 0.6349473684210508  0.6477954887218044 3.9184842105263127  0.6498165413533845 7.9999999999999964  Z " fill-rule="nonzero" fill="#ffffff" stroke="none" transform="matrix(1 0 0 1 1358 475 )" />
  </g>
</svg>