<?xml version="1.0" encoding="utf-8"?>
<svg version="1.1" xmlns:xlink="http://www.w3.org/1999/xlink" width="1px" height="10px" xmlns="http://www.w3.org/2000/svg">
  <g transform="matrix(1 0 0 1 -1366 -478 )">
    <path d="M 0.9835428571428569 3.074243902439024  C 0.9841714285714269 4.155073170731708  0.9838285714285705 5.235853658536586  0.9838285714285705 6.31658536585366  C 0.9838285714285705 7.397365853658538  0.9843428571428551 8.478195121951222  0.9834857142857122 9.558975609756097  C 0.9642857142857123 9.835365853658537  0.7285714285714278 9.956341463414635  0.5499999999999992 9.954536585365855  C 0.3731428571428564 9.952780487804882  0.0714285714285694 9.834195121951218  0.0714285714285694 9.56507317073171  C 0.07102857142857033 7.395365853658538  0.07097142857142558 5.225707317073171  0.0714285714285694 3.0560000000000005  C 0.07154285714285484 2.785219512195123  0.34645714285714135 2.621951219512197  0.5175428571428569 2.6293658536585367  C 0.7372571428571421 2.6389268292682933  0.9833714285714267 2.8008780487804885  0.9835428571428569 3.074243902439024  Z M 0.0714285714285694 1.4964390243902448  C 0.0714285714285694 1.3021951219512193  0.0714285714285694 1.1079512195121952  0.07171428571428708 0.913756097560976  C 0.07199999999999866 0.7357073170731718  0.06674285714285791 0.5575121951219517  0.07331428571428537 0.37965853658536663  C 0.08102857142856935 0.17224390243902502  0.2673714285714287 0.0167804878048788  0.5061714285714264 0.00790243902439089  C 0.7366285714285701 -0.000682926829266701  0.9687428571428569 0.151024390243904  0.9765142857142836 0.35204878048780586  C 0.9922285714285712 0.7562439024390261  0.9966857142857118 1.1211219512195145  0.9702285714285698 1.5243902439024406  C 0.9565142857142835 1.7339512195121973  0.7214857142857117 1.8541463414634154  0.5211428571428546 1.8543902439024413  C 0.3333142857142844 1.8545853658536602  0.09137142857142676 1.699073170731709  0.07177142857142778 1.5206829268292683  C 0.07085714285714013 1.5126829268292696  0.0714285714285694 1.5044878048780501  0.0714285714285694 1.4964390243902448  Z " fill-rule="nonzero" fill="#ffffff" stroke="none" transform="matrix(1 0 0 1 1366 478 )" />
  </g>
</svg>