<?xml version="1.0" encoding="utf-8"?>
<svg version="1.1" xmlns:xlink="http://www.w3.org/1999/xlink" width="10px" height="10px" xmlns="http://www.w3.org/2000/svg">
  <g transform="matrix(1 0 0 1 -1361 -433 )">
    <path d="M 9.957176041666665 5.3624948893229165  C 10.02771155598958 4.400480468749998  9.840804947916663 3.4919964192708326  9.383848079427082 2.642872135416667  C 8.947277408854168 1.8316554687500002  8.329229785156247 1.190706705729167  7.537266731770835 0.7190264973958337  C 7.066336018880208 0.43856665039062526  6.561544938151042 0.24391528320312555  6.025008707682292 0.13260742187500085  C 5.574530794270834 0.03915411783854239  5.119672526041667 0.012155761718750213  4.660600439453125 0.044500488281250604  C 3.9654384277343753 0.09346728515625102  3.310499137369792 0.28230592447916736  2.6968485351562506 0.6105833658854175  C 1.888196793619792 1.043190055338543  1.2465984700520831 1.6544256347656259  0.7726531412760409 2.4393101399739585  C 0.4299021972656245 3.006958610026043  0.21041767578124984 3.6204593261718756  0.11987905273437487 4.277563818359376  C 0.09289734700520805 4.473314436848959  0.08711793619791604 4.6719963867187495  0.07126201171874946 4.8693126139322915  C 0.06893025716145829 4.898376236979167  0.06458320312499961 4.927273323567708  0.06116886393229137 4.95623701171875  L 0.06116886393229137 5.006852685546875  C 0.06934664713541612 5.130568798828126  0.07655843098958273 5.254351546223958  0.08585213216145782 5.377967740885415  C 0.13938250325520762 6.090418033854165  0.34262804361979116 6.758431787109373  0.6901590657552076 7.381642578124998  C 1.1545442057291653 8.214377978515623  1.806602115885416 8.861056201171873  2.6397039550781236 9.323792464192707  C 3.1243586914062496 9.592993277994792  3.6411249837239574 9.775136458333334  4.1885371744791655 9.863809667968749  C 5.39573536783854 10.05937706705729  6.5310656087239565 9.853150227864585  7.578288916015623 9.219862939453126  C 8.54861437174479 8.633094108072918  9.237513964843748 7.802090852864582  9.648452018229165 6.74430802408854  C 9.821084977213543 6.299942643229165  9.922233056640623 5.838588769531249  9.957176041666665 5.3624948893229165  Z M 5.627861311848955 7.606190332031249  C 5.629993196614581 7.7129679361979155  5.627311686197914 7.832586832682291  5.563987955729165 7.941446370442709  C 5.464238916015623 8.112846826171875  5.313740950520832 8.212779069010416  5.120921679687498 8.244707421875002  C 4.947289404296875 8.27345458984375  4.774623144531248 8.260979720052084  4.615814143880207 8.178718831380209  C 4.412418717447915 8.07335693359375  4.286037727864581 7.9122828125  4.289585335286457 7.672745214843748  C 4.291200911458332 7.56378575846354  4.285671321614581 7.4506791015625  4.312519775390623 7.346982747395833  C 4.362652457682289 7.153180810546874  4.506155159505206 7.032495963541666  4.689813964843748 6.969705208333331  C 4.890627815755207 6.901068408203123  5.0965715169270815 6.896937874348957  5.292771826171872 6.990474462890624  C 5.509125146484372 7.093637858072914  5.627578157552082 7.265088281249997  5.627861311848955 7.510122135416665  L 5.627861311848955 7.606190332031249  Z M 7.003628531901036 2.9065933268229167  C 7.088321110026037 3.188468880208333  7.114936393229161 3.4768233723958337  7.063071565755208 3.7686588541666675  C 7.0111401041666666 4.060910709635419  6.861574853515625 4.3019639322916685  6.63822628580729 4.488920507812502  C 6.422172770182292 4.66978121744792  6.186382633463541 4.826841389973961  5.9639334472656245 5.0003237792968775  C 5.801277067057292 5.127171110026044  5.653943619791666 5.2732387369791685  5.595383333333333 5.4779666015625015  C 5.5658033854166655 5.581396468098961  5.549864192708332 5.695319238281252  5.558724853515624 5.801896972656252  C 5.582758561197916 6.090834407552085  5.2987178059895825 6.39757643229167  4.938478710937499 6.367197037760418  C 4.736915364583332 6.3502085611979195  4.5739425292968745 6.275142789713543  4.476691796874999 6.095447949218752  C 4.440249837239582 6.028143587239584  4.418348014322916 5.944083902994794  4.417998258463541 5.8675358072916675  C 4.414933675130207 5.2114472981770845  4.688231705729166 4.693631722005208  5.213758740234374 4.304878629557293  C 5.4187364257812485 4.1532314453125005  5.622415006510414 4.000718180338543  5.788768880208331 3.8033020345052093  C 6.062833056640622 3.47810584309896  5.886918994140623 2.9438180989583342  5.471650553385415 2.8563274088541677  C 5.379579638671873 2.8369238932291667  5.284710628255206 2.8308613444010424  5.191107421874998 2.8186696126302095  C 5.012112109374998 2.829528922526042  4.836997509765623 2.8446853027343764  4.6696942871093725 2.9131055826822925  C 4.501724837239581 2.9818256510416674  4.3793911132812475 3.104509147135418  4.269315738932289 3.2423656738281266  C 4.187970898437499 3.344263248697917  4.114120963541665 3.4514072753906264  3.995601318359372 3.518311914062501  C 3.7472530273437483 3.658516861979168  3.4065506998697885 3.5941438313802094  3.2463926106770806 3.3674475423177093  C 3.1528393717447885 3.2350206542968762  3.155237744140622 3.085272184244792  3.196060074869789 2.9366729329427095  C 3.254537093098956 2.7238005859375014  3.3786196289062467 2.547953157552084  3.534364029947914 2.3966057617187504  C 3.909376432291664 2.03220283203125  4.364651090494789 1.8376680501302083  4.880734521484371 1.778774658203125  C 5.211943294270829 1.740983610026042  5.542435888671871 1.7449142740885424  5.865833300781245 1.8315388834635418  C 6.436846158854163 1.984468538411459  6.830862337239579 2.3313833170572913  7.003628531901036 2.9065933268229167  Z " fill-rule="nonzero" fill="#ffffff" stroke="none" transform="matrix(1 0 0 1 1361 433 )" />
  </g>
</svg>