<?xml version="1.0" encoding="utf-8"?>
<svg version="1.1" xmlns:xlink="http://www.w3.org/1999/xlink" width="342px" height="38px" xmlns="http://www.w3.org/2000/svg">
  <g transform="matrix(1 0 0 1 -1356 -308 )">
    <path d="M 1357 311  A 2 2 0 0 1 1359 309 L 1695 309  A 2 2 0 0 1 1697 311 L 1697 343  A 2 2 0 0 1 1695 345 L 1359 345  A 2 2 0 0 1 1357 343 L 1357 311  Z " fill-rule="nonzero" fill="#000000" stroke="none" />
    <path d="M 1356.5 311  A 2.5 2.5 0 0 1 1359 308.5 L 1695 308.5  A 2.5 2.5 0 0 1 1697.5 311 L 1697.5 343  A 2.5 2.5 0 0 1 1695 345.5 L 1359 345.5  A 2.5 2.5 0 0 1 1356.5 343 L 1356.5 311  Z " stroke-width="1" stroke="#ffffff" fill="none" stroke-opacity="0.5450980392156862" />
  </g>
</svg>