<?xml version="1.0" encoding="utf-8"?>
<svg version="1.1" xmlns:xlink="http://www.w3.org/1999/xlink" width="23px" height="20px" xmlns="http://www.w3.org/2000/svg">
  <g transform="matrix(1 0 0 1 -1460 -317 )">
    <path d="M 10.285111188488482 18.969042314049588  C 10.26745376515501 19.522527953330094  9.89736189117758 19.956246961594555  9.443710844485464 19.956246961594555  L 0.7354943801652892 19.95624696159455  C 0.5257633732027855 19.955528553488147  0.3274945740605586 19.859715030185765  0.19564039098879898 19.69536217792902  C 0.02412216302387049 19.484880894506563  -0.037669169778076064 19.180126417112298  0.025897554222427364 18.859970850753523  L 3.638625588790536 0.6636464560038867  C 3.7124781943792886 0.30688885413467615  4.021899320742739 0.04939126030880015  4.383517982967655 0.043753427321341576  L 10.189490934261862 0.043753427321341576  C 10.575488992953492 0.04375301043984399  10.887786383273347 0.3584465444194432  10.887786383273347 0.7466406915288087  C 10.887786383273347 0.7552445288846331  10.887629610643476 0.7638476410303442  10.887316144649073 0.772445678172095  L 10.285111188488482 18.969042314049588  Z M 4.533268351722112 0.9923970636849767  L 0.9549674682216722 19.00760332523092  L 9.33338573897722 19.00760332523092  C 9.339752895279288 18.984692442466244  9.343406287142864 18.961102614924524  9.344269658933591 18.937326222654352  L 9.938253781935646 0.9923970636849767  L 4.533268351722112 0.9923970636849767  Z M 20.681994812266648 6.868410559066602  C 20.552950530276874 7.0268766969827485  20.360002413621665 7.118431710912784  20.156575525443643 7.117725094798248  L 13.411825882451653 7.117725094798248  C 13.01024011243026 7.117725094798248  12.671912322020392 6.76968425862907  12.657496917397326 6.341623996110841  L 12.473917607920463 0.7724456781720945  C 12.473604151483043 0.7638477719565607  12.473447383634081 0.7552447909691667  12.473447383634081 0.7466410848048509  C 12.473447383634081 0.3584469376954858  12.785744773953935 0.043753403715886416  13.170983128065005 0.043753403715886416  L 18.977715788899616 0.043753427321341576  C 19.339116223956548 0.04966156837323238  19.648224619012606 0.3070989974739826  19.72202923186643 0.6636464560038888  L 20.829101411251425 6.232824773942635  C 20.877287478902588 6.456197470857095  20.82327440305963 6.6895652698105526  20.681994812266648 6.868410559066602  Z M 13.422401038721317 0.9924165094798241  L 13.593938564416668 6.169081458434612  L 19.855608121827412 6.169081458434612  L 18.828582928220836 0.9924165094798241  L 13.422401038721317 0.9924165094798241  Z M 22.626646365733947 19.48192513368984  L 13.915496646390066 19.48192513368984  C 13.721322882913118 19.48192513368984  13.554513301170449 19.242683519688867  13.544787245039224 18.953038424890618  L 13.261207115828336 10.379601555663589  C 13.254144146494944 10.17357335926106  13.381238999035114 10.006086728245018  13.543050449301505 10.006086728245018  L 20.80353191844611 10.006086728245018  C 20.965343388010233 10.006086728245018  21.13097580819734 10.173573359261061  21.171867698955406 10.379601555663589  L 22.87466079708017 18.95305787068547  C 22.932322415572433 19.24268353913466  22.820820129210894 19.481925133689842  22.626665663464358 19.481925133689842  Z " fill-rule="nonzero" fill="#ffffff" stroke="none" transform="matrix(1 0 0 1 1460 317 )" />
  </g>
</svg>