<?xml version="1.0" encoding="utf-8"?>
<svg version="1.1" xmlns:xlink="http://www.w3.org/1999/xlink" width="10px" height="10px" xmlns="http://www.w3.org/2000/svg">
  <g transform="matrix(1 0 0 1 -1473 -327 )">
    <path d="M 9.720229554437655 9.709053765437833  C 9.597473056777465 9.866019977684976  9.412884422280928 9.957527275765042  9.217624452030185 9.958213390286936  L 1.107527596119295 9.958213390286936  C 0.6854471074380148 9.958213390286936  0.3406034315486882 9.543987371157955  0.3244517966223487 9.015396062772774  L 0.06040220984549101 0.8272636270777235  C 0.050509537248802194 0.6020375556632657  0.12903082438658695 0.3822274515062011  0.2781528386633123 0.21769913641006763  C 0.40375597026572113 0.08068690503994518  0.5781585400556745 0.0028213769924226896  0.7607615163492616 0.0022288049029631813  L 7.520283489040604 0.0022288049029631813  C 7.881278817822494 0.0022288049029631813  8.213240711462452 0.3122668771473689  8.292938878907654 0.7230756801931465  L 9.878260438375852 8.911208115888197  C 9.93742321236076 9.216974668028604  9.879895364714335 9.508032314978177  9.720229554437655 9.709053765437833  Z M 1.2014729787998568 8.985086841860898  C 1.2022767795691103 9.007794632231288  1.2056780943003191 9.030324242804841  1.2116059288537582 9.05220542297335  L 9.011641699604747 9.05220542297335  L 7.434548670499465 0.9082553626149141  L 0.9409986704994605 0.9082553626149141  L 1.2014729787998568 8.985086841860898  Z " fill-rule="nonzero" fill="#ffffff" stroke="none" transform="matrix(1 0 0 1 1473 327 )" />
  </g>
</svg>