<?xml version="1.0" encoding="utf-8"?>
<svg version="1.1" xmlns:xlink="http://www.w3.org/1999/xlink" width="8px" height="4px" xmlns="http://www.w3.org/2000/svg">
  <defs>
    <mask fill="white" id="clip51">
      <path d="M 7.721052631578947 3.8249999999999975  C 7.5974920310652605 3.929895871568223  7.431155691777896 3.9886634625147934  7.257894736842107 3.9886363636363638  C 7.0827609463759105 3.9884073424616444  6.914842516707812 3.928356615949096  6.790789473684211 3.8215909090909084  L 3.9894736842105267 1.3806818181818181  L 1.1644736842105263 3.8  C 1.041216837925843 3.90540107249098  0.8747713420690179 3.96452746505436  0.7013157894736851 3.96452746505436  C 0.33776405624033146 3.96452746505436  0.043047145726528936 3.709999224156077  0.043047145726528936 3.3960227272727264  C 0.043047145726528936 3.2442711084623777  0.11329734087874499 3.098817911290493  0.2381578947368424 2.9920454545454542  L 3.530263157894736 0.17386363636363455  C 3.653304549680115 0.0681051869673142  3.8198342180775797 0.008732942419442224  3.993428394684752 0.008732942419442224  C 4.168953773809202 0.008732942419442224  4.337171374496395 0.06942976196704752  4.4605263157894735 0.17727272727272625  L 7.725000000000001 3.0204545454545424  C 7.980170115996238 3.2439136614603514  7.978406275362464 3.6034164524525507  7.721052631578947 3.8249999999999975  Z " fill-rule="evenodd" />
    </mask>
  </defs>
  <g transform="matrix(1 0 0 1 -795 -2238 )">
    <path d="M 7.721052631578947 3.8249999999999975  C 7.5974920310652605 3.929895871568223  7.431155691777896 3.9886634625147934  7.257894736842107 3.9886363636363638  C 7.0827609463759105 3.9884073424616444  6.914842516707812 3.928356615949096  6.790789473684211 3.8215909090909084  L 3.9894736842105267 1.3806818181818181  L 1.1644736842105263 3.8  C 1.041216837925843 3.90540107249098  0.8747713420690179 3.96452746505436  0.7013157894736851 3.96452746505436  C 0.33776405624033146 3.96452746505436  0.043047145726528936 3.709999224156077  0.043047145726528936 3.3960227272727264  C 0.043047145726528936 3.2442711084623777  0.11329734087874499 3.098817911290493  0.2381578947368424 2.9920454545454542  L 3.530263157894736 0.17386363636363455  C 3.653304549680115 0.0681051869673142  3.8198342180775797 0.008732942419442224  3.993428394684752 0.008732942419442224  C 4.168953773809202 0.008732942419442224  4.337171374496395 0.06942976196704752  4.4605263157894735 0.17727272727272625  L 7.725000000000001 3.0204545454545424  C 7.980170115996238 3.2439136614603514  7.978406275362464 3.6034164524525507  7.721052631578947 3.8249999999999975  Z " fill-rule="nonzero" fill="#ffffff" stroke="none" transform="matrix(1 0 0 1 795 2238 )" />
    <path d="M 7.721052631578947 3.8249999999999975  C 7.5974920310652605 3.929895871568223  7.431155691777896 3.9886634625147934  7.257894736842107 3.9886363636363638  C 7.0827609463759105 3.9884073424616444  6.914842516707812 3.928356615949096  6.790789473684211 3.8215909090909084  L 3.9894736842105267 1.3806818181818181  L 1.1644736842105263 3.8  C 1.041216837925843 3.90540107249098  0.8747713420690179 3.96452746505436  0.7013157894736851 3.96452746505436  C 0.33776405624033146 3.96452746505436  0.043047145726528936 3.709999224156077  0.043047145726528936 3.3960227272727264  C 0.043047145726528936 3.2442711084623777  0.11329734087874499 3.098817911290493  0.2381578947368424 2.9920454545454542  L 3.530263157894736 0.17386363636363455  C 3.653304549680115 0.0681051869673142  3.8198342180775797 0.008732942419442224  3.993428394684752 0.008732942419442224  C 4.168953773809202 0.008732942419442224  4.337171374496395 0.06942976196704752  4.4605263157894735 0.17727272727272625  L 7.725000000000001 3.0204545454545424  C 7.980170115996238 3.2439136614603514  7.978406275362464 3.6034164524525507  7.721052631578947 3.8249999999999975  Z " stroke-width="2" stroke="#ffffff" fill="none" transform="matrix(1 0 0 1 795 2238 )" mask="url(#clip51)" />
  </g>
</svg>