<?xml version="1.0" encoding="utf-8"?>
<svg version="1.1" xmlns:xlink="http://www.w3.org/1999/xlink" width="20px" height="13px" xmlns="http://www.w3.org/2000/svg">
  <defs>
    <mask fill="white" id="clip52">
      <path d="M 19.999999999999996 8.992446043165467  C 19.996554907576925 11.171113877589907  18.10825031665329 12.936108219909288  15.778749999999999 12.938039568345324  L 13.515 12.938039568345324  C 13.169822031355753 12.938039568345324  12.89 12.67633551024282  12.89 12.353507194244605  C 12.89 12.030678878246391  13.169822031355753 11.768974820143885  13.515 11.768974820143885  L 15.778749999999999 11.768974820143885  C 17.418465018046373 11.768331151112159  18.747931538257717 10.525991377819388  18.749999999999996 8.992446043165469  C 18.74862264026322 7.458064799719736  17.419356912769516 6.214343625888371  15.778750000000002 6.212410071942447  L 14.087499999999999 6.212410071942447  L 14.18125 5.401079136690648  C 14.192499999999999 5.323920863309354  14.206249999999997 5.246762589928058  14.206249999999997 5.166097122302158  C 14.203496381047344 3.005962633493163  12.332181335463648 1.2552889701033196  10.022499999999999 1.2520683453237424  C 7.712330494312184 1.2546450805521667  5.840255124590392 3.005506937126504  5.8375 5.166097122302158  C 5.8375 5.246762589928058  5.85125 5.323920863309352  5.862499999999999 5.401079136690647  L 5.95625 6.212410071942446  L 4.219999999999999 6.212410071942446  C 2.579881305918596 6.214987559257397  1.2513759375259226 7.458520458952521  1.25 8.992446043165469  C 1.2520674123047046 10.525535296240568  2.5807730735731567 11.767686644606222  4.219999999999999 11.768974820143885  L 6.483749999999999 11.768974820143885  C 6.828927968644245 11.768974820143885  7.108749999999999 12.030678878246391  7.108749999999999 12.353507194244605  C 7.108749999999999 12.67633551024282  6.828927968644245 12.938039568345324  6.483749999999999 12.938039568345324  L 4.220000000000001 12.938039568345324  C 1.8907027568355943 12.93610695910763  0.002756465071047992 11.170924811080729  0 8.992446043165467  C 0.0013773485025144368 6.812864444705083  1.8895255153073514 5.045924330034715  4.219999999999999 5.043345323741008  L 4.58875 5.043345323741008  C 4.663264370524694 2.286323872747522  7.072418676264843 0.08655790337320442  10.021249999999998 0.08300359712230208  C 12.970350371703061 0.08594100667381947  15.379888592756153 2.2860575238891445  15.45375 5.043345323741008  L 15.7775 5.043345323741008  C 18.108665410287998 5.045279007047969  19.997932446310248 6.812219400450073  19.999999999999996 8.992446043165467  Z " fill-rule="evenodd" />
    </mask>
  </defs>
  <g transform="matrix(1 0 0 1 -789 -2231 )">
    <path d="M 19.999999999999996 8.992446043165467  C 19.996554907576925 11.171113877589907  18.10825031665329 12.936108219909288  15.778749999999999 12.938039568345324  L 13.515 12.938039568345324  C 13.169822031355753 12.938039568345324  12.89 12.67633551024282  12.89 12.353507194244605  C 12.89 12.030678878246391  13.169822031355753 11.768974820143885  13.515 11.768974820143885  L 15.778749999999999 11.768974820143885  C 17.418465018046373 11.768331151112159  18.747931538257717 10.525991377819388  18.749999999999996 8.992446043165469  C 18.74862264026322 7.458064799719736  17.419356912769516 6.214343625888371  15.778750000000002 6.212410071942447  L 14.087499999999999 6.212410071942447  L 14.18125 5.401079136690648  C 14.192499999999999 5.323920863309354  14.206249999999997 5.246762589928058  14.206249999999997 5.166097122302158  C 14.203496381047344 3.005962633493163  12.332181335463648 1.2552889701033196  10.022499999999999 1.2520683453237424  C 7.712330494312184 1.2546450805521667  5.840255124590392 3.005506937126504  5.8375 5.166097122302158  C 5.8375 5.246762589928058  5.85125 5.323920863309352  5.862499999999999 5.401079136690647  L 5.95625 6.212410071942446  L 4.219999999999999 6.212410071942446  C 2.579881305918596 6.214987559257397  1.2513759375259226 7.458520458952521  1.25 8.992446043165469  C 1.2520674123047046 10.525535296240568  2.5807730735731567 11.767686644606222  4.219999999999999 11.768974820143885  L 6.483749999999999 11.768974820143885  C 6.828927968644245 11.768974820143885  7.108749999999999 12.030678878246391  7.108749999999999 12.353507194244605  C 7.108749999999999 12.67633551024282  6.828927968644245 12.938039568345324  6.483749999999999 12.938039568345324  L 4.220000000000001 12.938039568345324  C 1.8907027568355943 12.93610695910763  0.002756465071047992 11.170924811080729  0 8.992446043165467  C 0.0013773485025144368 6.812864444705083  1.8895255153073514 5.045924330034715  4.219999999999999 5.043345323741008  L 4.58875 5.043345323741008  C 4.663264370524694 2.286323872747522  7.072418676264843 0.08655790337320442  10.021249999999998 0.08300359712230208  C 12.970350371703061 0.08594100667381947  15.379888592756153 2.2860575238891445  15.45375 5.043345323741008  L 15.7775 5.043345323741008  C 18.108665410287998 5.045279007047969  19.997932446310248 6.812219400450073  19.999999999999996 8.992446043165467  Z " fill-rule="nonzero" fill="#ffffff" stroke="none" transform="matrix(1 0 0 1 789 2231 )" />
    <path d="M 19.999999999999996 8.992446043165467  C 19.996554907576925 11.171113877589907  18.10825031665329 12.936108219909288  15.778749999999999 12.938039568345324  L 13.515 12.938039568345324  C 13.169822031355753 12.938039568345324  12.89 12.67633551024282  12.89 12.353507194244605  C 12.89 12.030678878246391  13.169822031355753 11.768974820143885  13.515 11.768974820143885  L 15.778749999999999 11.768974820143885  C 17.418465018046373 11.768331151112159  18.747931538257717 10.525991377819388  18.749999999999996 8.992446043165469  C 18.74862264026322 7.458064799719736  17.419356912769516 6.214343625888371  15.778750000000002 6.212410071942447  L 14.087499999999999 6.212410071942447  L 14.18125 5.401079136690648  C 14.192499999999999 5.323920863309354  14.206249999999997 5.246762589928058  14.206249999999997 5.166097122302158  C 14.203496381047344 3.005962633493163  12.332181335463648 1.2552889701033196  10.022499999999999 1.2520683453237424  C 7.712330494312184 1.2546450805521667  5.840255124590392 3.005506937126504  5.8375 5.166097122302158  C 5.8375 5.246762589928058  5.85125 5.323920863309352  5.862499999999999 5.401079136690647  L 5.95625 6.212410071942446  L 4.219999999999999 6.212410071942446  C 2.579881305918596 6.214987559257397  1.2513759375259226 7.458520458952521  1.25 8.992446043165469  C 1.2520674123047046 10.525535296240568  2.5807730735731567 11.767686644606222  4.219999999999999 11.768974820143885  L 6.483749999999999 11.768974820143885  C 6.828927968644245 11.768974820143885  7.108749999999999 12.030678878246391  7.108749999999999 12.353507194244605  C 7.108749999999999 12.67633551024282  6.828927968644245 12.938039568345324  6.483749999999999 12.938039568345324  L 4.220000000000001 12.938039568345324  C 1.8907027568355943 12.93610695910763  0.002756465071047992 11.170924811080729  0 8.992446043165467  C 0.0013773485025144368 6.812864444705083  1.8895255153073514 5.045924330034715  4.219999999999999 5.043345323741008  L 4.58875 5.043345323741008  C 4.663264370524694 2.286323872747522  7.072418676264843 0.08655790337320442  10.021249999999998 0.08300359712230208  C 12.970350371703061 0.08594100667381947  15.379888592756153 2.2860575238891445  15.45375 5.043345323741008  L 15.7775 5.043345323741008  C 18.108665410287998 5.045279007047969  19.997932446310248 6.812219400450073  19.999999999999996 8.992446043165467  Z " stroke-width="2" stroke="#ffffff" fill="none" transform="matrix(1 0 0 1 789 2231 )" mask="url(#clip52)" />
  </g>
</svg>