<?xml version="1.0" encoding="utf-8"?>
<svg version="1.1" xmlns:xlink="http://www.w3.org/1999/xlink" width="16px" height="16px" xmlns="http://www.w3.org/2000/svg">
  <g transform="matrix(1 0 0 1 -116 -2233 )">
    <path d="M 15.954545454545455 8  C 15.954545454545455 3.6107954545454537  12.389204545454545 0.045454545454545456  8 0.045454545454545456  C 3.6107954545454546 0.045454545454545456  0.045454545454545456 3.6107954545454546  0.045454545454545456 8  C 0.045454545454545456 12.389204545454545  3.6107954545454546 15.954545454545455  8 15.954545454545455  C 12.389204545454545 15.954545454545455  15.954545454545455 12.389204545454545  15.954545454545455 8  Z M 11.963068181818185 11.66477272727273  L 11.977272727272727 11.664772727272727  C 11.977272727272727 11.920454545454545  11.778409090909092 12.119318181818182  11.536931818181818 12.119318181818182  C 7.34659090909091 12.119318181818182  3.9517045454545467 8.639204545454545  3.9517045454545467 4.335227272727273  C 3.9517045454545467 4.079545454545455  4.1505681818181825 3.8806818181818183  4.392045454545456 3.8806818181818183  L 5.954545454545456 3.8806818181818183  C 6.196022727272728 3.8806818181818183  6.394886363636365 4.079545454545454  6.394886363636365 4.335227272727273  C 6.394886363636365 4.903409090909091  6.480113636363638 5.457386363636363  6.650568181818183 5.982954545454546  C 6.693181818181818 6.139204545454547  6.664772727272728 6.323863636363637  6.536931818181819 6.451704545454546  L 5.556818181818183 7.4602272727272725  C 6.196022727272728 8.752840909090908  7.232954545454547 9.81818181818182  8.497159090909093 10.47159090909091  L 9.47727272727273 9.463068181818183  C 9.590909090909093 9.335227272727273  9.775568181818185 9.292613636363638  9.931818181818185 9.34943181818182  C 10.428977272727275 9.519886363636367  10.968750000000002 9.605113636363638  11.522727272727275 9.605113636363638  C 11.76420454545455 9.605113636363638  11.963068181818185 9.81818181818182  11.963068181818185 10.059659090909093  L 11.963068181818185 11.66477272727273  Z " fill-rule="nonzero" fill="#ffffff" stroke="none" transform="matrix(1 0 0 1 116 2233 )" />
  </g>
</svg>