<?xml version="1.0" encoding="utf-8"?>
<svg version="1.1" xmlns:xlink="http://www.w3.org/1999/xlink" width="43px" height="87px" xmlns="http://www.w3.org/2000/svg">
  <g transform="matrix(1 0 0 1 -279 -1746 )">
    <path d="M 30.13477941176471 6.8613078034682085  C 29.015514705882364 9.26889450867052  29.486617647058836 9.878648843930634  32.12352941176471 9.840932080924855  C 37.47007352941176 9.771784682080924  41.447573529411756 6.609862716763005  42.8197794117647 1.4018063583815021  C 43.10750000000001 0.2514450867052015  42.674338235294115 -0.10686416184971177  41.627794117647056 0.03457369942196448  C 38.339558823529416 0.5028901734104038  35.15882352941176 1.3640895953757215  32.594632352941176 3.554804913294797  C 31.5563512786387 4.4786086928525135  30.71922746203407 5.603859829903161  30.13477941176471 6.8613078034682085  Z M 9.46632352941176 67.31499277456648  C 10.47808823529412 67.53186416184971  11.562573529411766 67.35270953757224  12.612279411764709 67.31499277456648  C 12.501617647058827 66.13005780346822  12.35933823529412 64.9796965317919  12.248676470588238 63.794761560693644  C 12.248676470588238 63.68789739884394  12.141176470588235 63.581033236994216  12.068455882352943 63.47102601156069  C 10.263088235294122 59.98851156069364  5.529926470588237 57.50863439306359  0.90426470588235 57.866943641618484  C 0.90426470588235 58.262969653179184  0.8315441176470574 58.58670520231213  0.90426470588235 58.83815028901734  C 2.494632352941176 62.93356213872833  4.913382352941175 66.2369219653179  9.46632352941176 67.31499277456648  Z M 2.564191176470589 38.65025289017342  C 2.88985294117647 41.595303468208094  4.5529411764705845 43.78601878612718  7.189852941176473 45.225541907514454  C 8.381838235294122 45.86986994219654  9.105882352941176 45.72843208092487  9.719264705882356 44.32662572254337  C 11.853455882352952 39.44230491329481  7.768455882352942 34.16195809248556  2.5294117647058822 32.65328757225435  C 2.5294117647058822 34.80628612716764  2.3491911764705904 36.74555635838151  2.564191176470589 38.65025289017342  Z M 0.28772058823529845 45.51156069364162  C -0.6861029411764648 50.03757225433526  3.974338235294123 56.43056358381503  8.527279411764708 56.82658959537573  C 8.887720588235299 56.86116329479769  9.53904411764706 56.251408959537585  9.611764705882353 55.855382947976885  C 10.152426470588232 52.982622832369934  9.57698529411765 50.28901734104046  7.227794117647064 48.45661127167631  C 5.311764705882357 46.98565751445087  3.000514705882356 45.94216040462428  0.9042647058823573 44.72265173410405  L 0.5058823529411837 45.225541907514454  C 0.4331617647058874 45.33240606936417  0.28772058823529845 45.404696531791906  0.28772058823529845 45.51156069364162  Z M 16.513897058823527 77.87568641618498  C 18.935808823529413 77.91340317919077  19.3689705882353 77.08677745664741  18.17698529411765 75.00292630057804  C 15.789852941176465 70.69064306358383  11.562573529411766 70.04631502890174  7.553455882352943 69.6157153179191  C 5.093602941176471 69.54342485549134  4.372720588235296 70.1186054913295  5.166323529411764 71.26582369942196  C 7.9486764705882385 75.14750722543353  11.489852941176473 77.80339595375725  16.513897058823527 77.87568641618498  Z M 11.923014705882357 81.50278179190752  C 14.344926470588236 85.41903901734105  22.331544117647056 88.15036127167632  26.378602941176467 86.42481936416186  C 27.282867647058826 86.02879335260117  27.31764705882353 85.49132947976881  26.88448529411765 84.70242052023123  C 24.608014705882354 80.60700867052024  15.935294117647059 78.6300216763006  11.995735294117651 81.32362716763006  C 11.960955882352948 81.36134393063587  11.960955882352948 81.4336343930636  11.923014705882357 81.50278179190752  Z " fill-rule="nonzero" fill="#ffffff" stroke="none" transform="matrix(1 0 0 1 279 1746 )" />
  </g>
</svg>