<?xml version="1.0" encoding="utf-8"?>
<svg version="1.1" xmlns:xlink="http://www.w3.org/1999/xlink" width="45px" height="100px" xmlns="http://www.w3.org/2000/svg">
  <g transform="matrix(1 0 0 1 -286 -1747 )">
    <path d="M 18.420294943820227 13.929020100502512  L 18.420294943820227 13.925879396984925  C 22.68012640449438 10.804020100502512  23.258426966292138 5.348618090452262  19.213483146067414 0.4711055276381909  C 17.87675561797753 2.4811557788944723  16.57794943820225 4.167713567839196  15.566713483146064 6.0678391959799  C 14.264747191011232 8.473618090452263  14.410112359550562 10.951633165829147  15.81952247191011 13.35427135678392  C 16.540028089887645 14.541457286432161  17.191011235955056 14.827261306532662  18.420294943820227 13.929020100502512  Z M 0.8658707865168569 23.79711055276382  C -0.3981741573033679 27.49371859296482  0.65098314606742 31.441582914572862  3.3244382022471926 33.56155778894472  C 4.3704353932584326 34.38756281407036  5.056179775280906 34.31532663316583  5.852528089887649 33.200376884422106  C 7.875000000000008 30.295226130653262  8.055126404494384 27.1356783919598  6.1053370786516945 24.22738693467337  C 5.163623595505621 22.829773869346734  3.9722612359550578 21.642587939698494  2.8883426966292167 20.35175879396985  L 2.240519662921351 20.35175879396985  C 1.7696629213483217 21.501256281407034  1.264044943820232 22.613065326633166  0.8658707865168569 23.79711055276382  Z M 18.70786516853933 15.794597989949748  C 22.970856741573037 18.627512562814072  31.168188202247197 16.582914572864322  33.803721910112365 10.876256281407036  C 28.06179775280899 8.72173366834171  20.262640449438205 11.306532663316583  18.70786516853933 15.794597989949748  Z M 8.813553370786519 23.222361809045225  C 9.534058988764047 24.120603015075375  10.185042134831466 24.155150753768844  11.088834269662923 23.439070351758794  C 15.27598314606742 20.100502512562816  15.386587078651688 13.746859296482416  10.763342696629218 9.83354271356784  C 9.644662921348324 12.060301507537687  8.307935393258436 13.99811557788945  7.6569522471910165 16.11494974874372  C 6.9332865168539435 18.52072864321608  7.043890449438205 21.07097989949749  8.813553370786519 23.222361809045225  Z M 43.62851123595507 96.69912060301507  C 39.00526685393259 92.7858040201005  30.98806179775282 94.00439698492463  27.34129213483147 98.09673366834171  C 32.03405898876405 100.78831658291459  40.52212078651686 100.86055276381909  43.62851123595507 96.69912060301507  Z M 31.4557584269663 91.92525125628141  C 27.954353932584276 87.79522613065328  18.60042134831462 87.07914572864323  15.206460674157311 90.55904522613068  C 20.04459269662922 94.47236180904522  28.27984550561799 95.19158291457288  31.4557584269663 91.92525125628141  Z M 7.729634831460678 65.65012562814073  C 8.235252808988768 66.43844221105529  8.668188202247197 66.47613065326635  9.499297752808994 66.0458542713568  C 14.011938202247201 63.5678391959799  15.168539325842703 57.393216080402034  11.809339887640458 53.26633165829148  C 9.8247893258427 54.55716080402012  7.404143258426973 57.78894472361811  7.043890449438205 59.83354271356786  C 6.68047752808989 61.80904522613068  6.500351123595507 63.819095477386945  7.729634831460678 65.65012562814073  Z M 17.841994382022484 77.35238693467339  C 17.876755617977537 79.79271356783923  19.0681179775281 81.83731155778898  21.235955056179776 83.23806532663318  C 22.42731741573034 83.99183417085428  23.185744382022474 83.77512562814073  23.83672752808989 82.51884422110555  C 25.96664325842697 78.49874371859298  23.65660112359551 72.86432160804021  18.707865168539335 70.8888190954774  C 18.382373595505626 73.08103015075379  17.841994382022484 75.23241206030153  17.841994382022484 77.35238693467339  Z M 13.038623595505616 74.69535175879399  C 14.195224719101118 76.16520100502514  14.843047752808982 76.13065326633168  16.034410112359552 74.65766331658293  C 18.96067415730337 70.96105527638193  18.167485955056183 65.36118090452263  14.122542134831457 62.27701005025127  C 13.689606741573028 62.99309045226133  13.183988764044939 63.67462311557791  12.820575842696622 64.428391959799  C 11.303721910112355 67.87374371859298  10.365168539325843 71.356783919598  13.038623595505616 74.69535175879399  Z M 42.97752808988764 88.36997487437188  C 40.7749297752809 85.89510050251258  37.81390449438202 84.89007537688444  34.41994382022471 84.13630653266333  C 34.63483146067416 84.99685929648243  34.78019662921348 85.64384422110555  34.9255617977528 86.2531407035176  C 35.57338483146067 89.9497487437186  39.61832865168539 93.96984924623118  43.303019662921336 94.75816582914574  C 44.56706460674156 95.00942211055278  44.747191011235955 94.54459798994975  44.819873595505605 93.50188442211056  C 44.96523876404493 91.49183417085428  44.27949438202247 89.84296482412061  42.97752808988764 88.36997487437188  Z M 25.533707865168527 79.86494974874374  C 25.35358146067415 84.4566582914573  28.567415730337075 88.94472361809048  32.71980337078651 90.16645728643218  C 33.80372191011235 88.19095477386935  34.41994382022471 86.3599246231156  33.26334269662921 84.17085427135682  C 31.85393258426965 81.47927135678395  29.57865168539325 79.89949748743722  27.01580056179775 78.64321608040203  C 25.78651685393258 78.03391959798998  25.57162921348313 78.8599246231156  25.533707865168527 79.86494974874374  Z M 18.673103932584258 28.140703517587962  C 18.853230337078642 27.74497487437188  18.96067415730336 27.02889447236183  18.74578651685392 26.84987437185932  C 18.420294943820213 26.560929648241228  17.69662921348313 26.38190954773872  17.298455056179765 26.52638190954776  C 15.275983146067404 27.24246231155781  13.253511235955045 28.03391959798997  11.268960674157292 28.894472361809065  C 9.391853932584263 29.755025125628165  8.055126404494377 31.228015075376902  7.2587780898876275 33.165829145728665  C 6.898525280898868 34.098618090452284  6.898525280898868 34.99685929648243  8.162570224719094 35.210427135678415  C 9.859550561797745 34.85238693467338  11.556530898876392 34.70791457286434  13.11130617977527 34.098618090452284  C 15.85428370786516 33.021356783919614  17.481741573033702 30.7600502512563  18.673103932584258 28.140703517587962  Z M 4.98349719101123 45.04711055276384  C 5.852528089887635 44.940326633165846  6.753160112359545 44.86809045226133  7.656952247191003 44.758165829145746  C 7.764396067415725 44.758165829145746  7.909761235955047 44.723618090452284  8.017205056179769 44.68907035175881  C 11.268960674157292 43.82537688442213  14.264747191011224 40.02198492462313  14.3753511235955 36.611180904522634  C 14.410112359550554 35.0314070351759  14.049859550561788 34.780150753768865  12.567766853932579 35.46168341708545  C 12.28019662921348 35.6061557788945  11.989466292134827 35.67839195979902  11.736657303370782 35.822864321608066  C 9.101123595505618 37.151381909547766  6.500351123595499 38.58668341708545  5.274227528089884 41.3850502512563  C 4.803370786516854 42.462311557788965  5.056179775280892 43.82537688442213  4.98349719101123 45.04711055276384  Z M 11.774578651685383 44.076633165829165  C 5.489115168539313 47.773241206030164  3.539325842696622 51.40075376884423  5.163623595505607 55.851130653266345  C 10.655898876404482 54.990577889447245  13.326193820224706 50.32349246231157  11.774578651685383 44.076633165829165  Z M 25.85919943820225 19.057788944723615  C 21.814255617977526 18.23178391959799  13.000702247191022 20.420854271356788  12.134831460674157 24.90577889447236  C 17.48174157303371 26.809045226130657  24.089536516853933 24.0106783919598  25.85919943820225 19.057788944723615  Z " fill-rule="nonzero" fill="#ffffff" stroke="none" transform="matrix(1 0 0 1 286 1747 )" />
  </g>
</svg>