<?xml version="1.0" encoding="utf-8"?>
<svg version="1.1" xmlns:xlink="http://www.w3.org/1999/xlink" width="43px" height="87px" xmlns="http://www.w3.org/2000/svg">
  <g transform="matrix(1 0 0 1 -885 -1746 )">
    <path d="M 10.873308823529413 9.840932080924855  L 10.876470588235293 9.840932080924855  C 5.526764705882351 9.771784682080924  1.5492647058823528 6.609862716763005  0.1770588235294089 1.4018063583815021  C -0.11066176470588235 0.2514450867052015  0.32249999999999424 -0.10686416184971177  1.3690441176470574 0.03457369942196448  C 4.657279411764712 0.5028901734104038  7.838014705882348 1.3640895953757215  10.405367647058828 3.554804913294797  C 11.41713235294118 4.419147398843929  12.283455882352941 5.638656069364161  12.86205882352941 6.8613078034682085  C 13.981323529411759 9.26889450867052  13.510220588235292 9.878648843930634  10.873308823529413 9.840932080924855  Z M 30.387720588235293 67.31499277456648  L 30.384558823529417 67.31499277456648  C 30.495220588235302 66.13005780346822  30.6375 64.9796965317919  30.748161764705884 63.794761560693644  C 30.748161764705884 63.68789739884394  30.855661764705875 63.581033236994216  30.92838235294117 63.47102601156069  C 32.73375 59.98851156069364  37.47007352941176 57.50863439306359  42.09257352941175 57.866943641618484  C 42.09257352941175 58.262969653179184  42.16529411764705 58.58670520231213  42.09257352941175 58.83815028901734  C 40.50536764705882 62.93356213872833  38.08345588235292 66.2369219653179  33.530514705882354 67.31499277456648  C 32.51875 67.53186416184971  31.434264705882345 67.35270953757224  30.387720588235293 67.31499277456648  Z M 40.432647058823534 38.65025289017342  C 40.10698529411765 41.595303468208094  38.44389705882353 43.78601878612718  35.80698529411765 45.225541907514454  C 34.61500000000001 45.86986994219654  33.89095588235294 45.72843208092487  33.27757352941177 44.32662572254337  C 31.146544117647064 39.44230491329481  35.22838235294118 34.16195809248556  40.46742647058824 32.65328757225435  C 40.46742647058824 34.80628612716764  40.64764705882352 36.74555635838151  40.432647058823534 38.65025289017342  Z M 42.70911764705885 45.51156069364162  C 43.6829411764706 50.03757225433526  39.02250000000001 56.43056358381503  34.469558823529425 56.82658959537573  C 34.10911764705883 56.86116329479769  33.45779411764707 56.251408959537585  33.385073529411784 55.855382947976885  C 32.84441176470589 52.982622832369934  33.423014705882366 50.28901734104046  35.769044117647084 48.45661127167631  C 37.68507352941178 46.98565751445087  39.99948529411766 45.94216040462428  42.09257352941178 44.72265173410405  L 42.490955882352964 45.225541907514454  C 42.56367647058826 45.33240606936417  42.70911764705885 45.404696531791906  42.70911764705885 45.51156069364162  Z M 26.4829411764706 77.87568641618498  C 24.0641911764706 77.91340317919077  23.627867647058835 77.08677745664741  24.823014705882358 75.00292630057804  C 27.206985294117654 70.69064306358383  31.43426470588236 70.04631502890174  35.44654411764705 69.6157153179191  C 37.90323529411765 69.54342485549134  38.624117647058824 70.1186054913295  37.83051470588235 71.26582369942196  C 35.048161764705895 75.14750722543353  31.506985294117644 77.80339595375725  26.4829411764706 77.87568641618498  Z M 31.07382352941177 81.50278179190752  C 28.651911764705886 85.41903901734105  20.665294117647072 88.15036127167632  16.618235294117653 86.42481936416186  C 15.71713235294118 86.02879335260117  15.67919117647059 85.49132947976881  16.112352941176475 84.70242052023123  C 18.388823529411766 80.60700867052024  27.06154411764706 78.6300216763006  31.00110294117648 81.32362716763006  C 31.035882352941183 81.36134393063587  31.035882352941183 81.4336343930636  31.07382352941177 81.50278179190752  Z " fill-rule="nonzero" fill="#ffffff" stroke="none" transform="matrix(1 0 0 1 885 1746 )" />
  </g>
</svg>