<?xml version="1.0" encoding="utf-8"?>
<svg version="1.1" xmlns:xlink="http://www.w3.org/1999/xlink" width="45px" height="100px" xmlns="http://www.w3.org/2000/svg">
  <g transform="matrix(1 0 0 1 -876 -1747 )">
    <path d="M 26.57970505617978 13.929020100502512  L 26.576544943820224 13.925879396984925  C 22.316713483146064 10.804020100502512  21.741573033707866 5.348618090452262  25.786516853932582 0.4711055276381909  C 27.123244382022463 2.4811557788944723  28.42205056179775 4.167713567839196  29.433286516853933 6.0678391959799  C 30.73525280898876 8.473618090452263  30.589887640449437 10.951633165829147  29.18047752808989 13.35427135678392  C 28.459971910112355 14.541457286432161  27.80898876404494 14.827261306532662  26.57970505617978 13.929020100502512  Z M 44.13096910112358 23.79711055276382  C 45.39501404494381 27.49371859296482  44.34585674157302 31.441582914572862  41.6755617977528 33.56155778894472  C 40.62640449438202 34.38756281407036  39.940660112359545 34.31532663316583  39.14747191011235 33.200376884422106  C 37.12499999999999 30.295226130653262  36.94171348314606 27.1356783919598  38.89466292134831 24.22738693467337  C 39.83321629213483 22.829773869346734  41.02457865168539 21.642587939698494  42.10849719101124 20.35175879396985  L 42.75632022471909 20.35175879396985  C 43.22717696629213 21.501256281407034  43.73279494382021 22.613065326633166  44.13096910112358 23.79711055276382  Z M 26.28897471910112 15.794597989949748  C 22.025983146067407 18.627512562814072  13.828651685393258 16.582914572864322  11.193117977528084 10.876256281407036  C 16.935042134831455 8.72173366834171  24.73735955056179 11.306532663316583  26.28897471910112 15.794597989949748  Z M 36.18328651685393 23.222361809045225  C 35.462780898876396 24.120603015075375  34.811797752808985 24.155150753768844  33.90800561797752 23.439070351758794  C 29.720856741573026 20.100502512562816  29.610252808988754 13.746859296482416  34.23349719101123 9.83354271356784  C 35.35533707865169 12.060301507537687  36.68890449438202 13.99811557788945  37.33988764044943 16.11494974874372  C 38.06355337078651 18.52072864321608  37.95294943820224 21.07097989949749  36.18328651685393 23.222361809045225  Z M 1.368328651685381 96.69912060301507  C 5.991573033707856 92.7858040201005  14.008778089887631 94.00439698492463  17.65870786516853 98.09673366834171  C 12.962780898876392 100.78831658291459  4.474719101123585 100.86055276381909  1.368328651685381 96.69912060301507  Z M 13.541081460674143 91.92525125628141  C 17.042485955056172 87.79522613065328  26.396418539325836 87.07914572864323  29.793539325842687 90.55904522613068  C 24.952247191011228 94.47236180904522  16.716994382022467 95.19158291457288  13.541081460674143 91.92525125628141  Z M 37.26720505617976 65.65012562814073  C 36.76158707865167 66.43844221105529  36.32865168539324 66.47613065326635  35.49754213483145 66.0458542713568  C 30.984901685393247 63.5678391959799  29.82830056179774 57.393216080402034  33.187499999999986 53.26633165829148  C 35.17205056179774 54.55716080402012  37.592696629213464 57.78894472361811  37.95294943820223 59.83354271356786  C 38.31636235955054 61.80904522613068  38.496488764044926 63.819095477386945  37.26720505617976 65.65012562814073  Z M 27.154845505617967 77.35238693467339  C 27.120084269662915 79.79271356783923  25.928721910112344 81.83731155778898  23.76088483146066 83.23806532663318  C 22.569522471910098 83.99183417085428  21.81109550561797 83.77512562814073  21.16011235955055 82.51884422110555  C 19.03019662921347 78.49874371859298  21.340238764044933 72.86432160804021  26.288974719101112 70.8888190954774  C 26.614466292134818 73.08103015075379  27.154845505617967 75.23241206030153  27.154845505617967 77.35238693467339  Z M 31.958216292134814 74.69535175879399  C 30.80477528089887 76.16520100502514  30.15379213483144 76.13065326633168  28.962429775280885 74.65766331658293  C 26.036165730337068 70.96105527638193  26.829353932584254 65.36118090452263  30.87429775280897 62.27701005025127  C 31.31039325842696 62.99309045226133  31.81601123595504 63.67462311557791  32.17626404494381 64.428391959799  C 33.693117977528075 67.87374371859298  34.6316713483146 71.356783919598  31.958216292134814 74.69535175879399  Z M 2.0193117977527906 88.36997487437188  C 4.22191011235953 85.89510050251258  7.182935393258407 84.89007537688444  10.580056179775266 84.13630653266333  C 10.362008426966273 84.99685929648243  10.21664325842695 85.64384422110555  10.074438202247176 86.2531407035176  C 9.423455056179764 89.9497487437186  5.37851123595504 93.96984924623118  1.6938202247190839 94.75816582914574  C 0.4297752808988556 95.00942211055278  0.2496488764044757 94.54459798994975  0.17696629213481063 93.50188442211056  C 0.03160112359548406 91.49183417085428  0.7205056179775087 89.84296482412061  2.0193117977527906 88.36997487437188  Z M 19.463132022471896 79.86494974874374  C 19.643258426966273 84.4566582914573  16.42942415730335 88.94472361809048  12.277036516853919 90.16645728643218  C 11.193117977528077 88.19095477386935  10.580056179775266 86.3599246231156  11.733497191011221 84.17085427135682  C 13.142907303370773 81.47927135678395  15.41818820224718 79.89949748743722  17.98103932584268 78.64321608040203  C 19.210323033707848 78.03391959798998  19.42837078651684 78.8599246231156  19.463132022471896 79.86494974874374  Z M 26.32373595505617 28.140703517587962  C 26.14360955056178 27.74497487437188  26.036165730337057 27.02889447236183  26.25421348314606 26.84987437185932  C 26.576544943820213 26.560929648241228  27.30021067415729 26.38190954773872  27.698384831460668 26.52638190954776  C 29.720856741573026 27.24246231155781  31.74332865168539 28.03391959798997  33.727879213483135 28.894472361809065  C 35.60814606741572 29.755025125628165  36.94171348314606 31.228015075376902  37.7380617977528 33.165829145728665  C 38.09831460674156 34.098618090452284  38.09831460674156 34.99685929648243  36.83426966292133 35.210427135678415  C 35.13728932584268 34.85238693467338  33.44030898876402 34.70791457286434  31.885533707865154 34.098618090452284  C 29.142556179775273 33.021356783919614  27.518258426966277 30.7600502512563  26.32373595505617 28.140703517587962  Z M 40.013342696629195 45.04711055276384  C 39.147471910112344 44.940326633165846  38.24367977528089 44.86809045226133  37.33988764044942 44.758165829145746  C 37.217098030599225 44.752362625625324  37.09577966481172 44.72909410365759  36.97963483146066 44.68907035175881  C 33.727879213483135 43.82537688442213  30.73209269662919 40.02198492462313  30.621488764044923 36.611180904522634  C 30.586727528089867 35.0314070351759  30.946980337078635 34.780150753768865  32.429073033707844 35.46168341708545  C 32.71664325842695 35.6061557788945  33.0073735955056 35.67839195979902  33.26018258426965 35.822864321608066  C 35.895716292134814 37.151381909547766  38.496488764044926 38.58668341708545  39.722612359550546 41.3850502512563  C 40.19346910112358 42.462311557788965  39.94066011235954 43.82537688442213  40.013342696629195 45.04711055276384  Z M 33.222261235955045 44.076633165829165  C 39.50772471910112 47.773241206030164  41.45751404494381 51.40075376884423  39.83321629213483 55.851130653266345  C 34.3441011235955 54.990577889447245  31.67064606741571 50.32349246231157  33.222261235955045 44.076633165829165  Z M 19.137640449438205 19.057788944723615  C 23.182584269662918 18.23178391959799  31.996137640449437 20.420854271356788  32.86200842696629 24.90577889447236  C 27.518258426966298 26.809045226130657  20.90730337078652 24.0106783919598  19.137640449438205 19.057788944723615  Z " fill-rule="nonzero" fill="#ffffff" stroke="none" transform="matrix(1 0 0 1 876 1747 )" />
  </g>
</svg>