<?xml version="1.0" encoding="utf-8"?>
<svg version="1.1" xmlns:xlink="http://www.w3.org/1999/xlink" width="30px" height="30px" xmlns="http://www.w3.org/2000/svg">
  <g transform="matrix(1 0 0 1 -1053 -557 )">
    <path d="M 29.970000000000002 14.129999999999997  C 29.984999999999996 13.095  29.01 12.315  28.125 12.15  L 25.725 11.61  C 25.545 11.010000000000002  25.290000000000003 10.440000000000001  25.005000000000003 9.885  L 26.31 7.71  C 26.79 6.930000000000001  27.044999999999998 5.79  26.31 5.055000000000001  L 24.99 3.7350000000000003  C 24.63 3.390000000000001  24.165 3.2100000000000004  23.669999999999998 3.2250000000000005  C 23.174999999999997 3.2250000000000005  22.665 3.390000000000001  22.275000000000002 3.645  L 20.159999999999997 4.995  C 19.605 4.71  19.035 4.470000000000001  18.449999999999996 4.275  L 17.909999999999997 1.8450000000000004  C 17.745 0.96  16.965 0  15.930000000000001 0  L 14.055000000000001 0  C 13.020000000000001 0  12.39 0.9750000000000001  12.180000000000001 1.875  L 11.58 4.275  C 10.95 4.470000000000001  10.335 4.740000000000001  9.75 5.04  L 7.59 3.66  C 7.185 3.390000000000001  6.69 3.24  6.195 3.24  C 5.7 3.2250000000000005  5.235 3.4050000000000007  4.875000000000001 3.75  L 3.555000000000001 5.069999999999999  C 2.8200000000000007 5.805  3.075000000000001 6.944999999999999  3.555000000000001 7.724999999999999  L 4.920000000000001 10.004999999999999  C 4.665000000000001 10.529999999999998  4.44 11.054999999999998  4.260000000000002 11.61  L 1.860000000000001 12.15  C 0.96 12.315  0 13.095  0 14.129999999999997  L 0 16.005  C 0 17.04  0.9750000000000001 17.669999999999998  1.875 17.88  L 4.305000000000001 18.48  C 4.470000000000001 18.990000000000002  4.680000000000001 19.485000000000003  4.920000000000001 19.98  L 3.555 22.259999999999998  C 3.0749999999999997 23.04  2.82 24.18  3.555 24.915  L 4.875 26.235000000000003  C 5.235 26.595000000000002  5.715 26.745  6.195 26.745  C 6.690000000000001 26.745  7.200000000000001 26.580000000000005  7.59 26.325  L 9.75 24.945  C 10.335 25.26  10.95 25.514999999999997  11.58 25.71  L 12.180000000000001 28.109999999999996  C 12.39 29.01  13.020000000000001 29.984999999999996  14.055000000000001 29.984999999999996  L 15.930000000000001 29.984999999999996  C 16.965 29.984999999999996  17.745 29.024999999999995  17.91 28.125  L 18.45 25.68  C 19.035 25.485  19.605 25.245  20.145000000000003 24.975  L 22.259999999999998 26.325  C 22.634999999999994 26.58  23.145 26.745  23.655 26.745  C 24.150000000000002 26.76  24.63 26.580000000000005  24.975 26.235000000000003  L 26.295 24.915  C 27.030000000000005 24.18  26.775 23.04  26.295 22.259999999999998  L 24.990000000000002 20.085  C 25.245 19.575  25.485 19.035  25.665 18.48  L 28.095000000000002 17.88  C 28.995 17.669999999999998  29.970000000000002 17.04  29.970000000000002 16.005  L 29.970000000000002 14.129999999999997  Z M 19.544999999999998 15.015000000000002  C 19.544999999999998 17.505  17.52 19.530000000000005  15.014999999999999 19.530000000000005  C 12.51 19.530000000000005  10.484999999999996 17.505  10.484999999999996 15.015000000000002  C 10.484999999999996 12.510000000000002  12.51 10.485000000000001  15.014999999999999 10.485000000000001  C 17.52 10.485000000000001  19.544999999999998 12.510000000000002  19.544999999999998 15.015000000000002  Z " fill-rule="nonzero" fill="#ffffff" stroke="none" transform="matrix(1 0 0 1 1053 557 )" />
  </g>
</svg>