<?xml version="1.0" encoding="utf-8"?>
<svg version="1.1" xmlns:xlink="http://www.w3.org/1999/xlink" width="41px" height="30px" xmlns="http://www.w3.org/2000/svg">
  <g transform="matrix(1 0 0 1 -1143 -557 )">
    <path d="M 37.96096489823191 29.867021276595743  L 3.0390351017680923 29.867021276595743  C 1.365574712164112 29.86702127662488  0.008977873807496047 28.529432281877828  0.008977873807496047 26.87943263799456  C 0.008977873807496047 26.876477541128963  0.00898232055035176 26.873522445889922  0 26.870567362034574  L 0 3.0319148936170213  C 0.02864075472510091 1.394331598206544  1.3780715827786507 0.07565264807613281  3.0390351017680923 0  L 37.960964898231914 0  C 39.635865265529105 0.07580790876419122  40.99101609314022 1.4159360047045342  41 3.067375872672872  L 41 26.870567362034574  C 40.99101767944965 26.873522445889922  40.991022126192505 26.876477541128963  40.991022126192505 26.87943263799456  C 40.991022126192505 28.529432281877828  39.634425287835896 29.86702127662488  37.96097828059218 29.86702127662488  Z M 37.96096489823191 2  L 3.0390351017680923 2  C 3.0390351017680923 1.8439716173537244  3.039035059621709 1.8439716173537226  3.039035059621709 1.8439716173537226  C 2.348800245168869 1.8439716173537226  1.7892543719161176 2.3956774602080193  1.7892543719161176 3.076241107047871  C 1.7892543719161176 3.076241117866149  1.7892543719161176 3.076241137785445  2 3.076241148603724  L 2 26.870567362034574  C 1.7892367262291946 27.552579948502107  2.3473484029547107 28.106830617071257  3.0390351017680923 28  L 37.960964898231914 28  C 38.65265159704529 28.106830617071257  39.21076327377081 27.552579948502107  39 26.870567362034574  L 39 3.03191489361702  C 39.186535245439394 2.3687218235787375  38.634017726564 1.8435421213413405  37.96096489823191 2  Z " fill-rule="nonzero" fill="#ffffff" stroke="none" transform="matrix(1 0 0 1 1143 557 )" />
  </g>
</svg>