<?xml version="1.0" encoding="utf-8"?>
<svg version="1.1" xmlns:xlink="http://www.w3.org/1999/xlink" width="36px" height="21px" xmlns="http://www.w3.org/2000/svg">
  <g transform="matrix(1 0 0 1 -1145 -565 )">
    <path d="M 35.87790696311773 20.920454545454547  C 35.86053676508315 20.94063007462112  35.834316492598376 20.950595106314104  35.808139548510184 20.946969696969703  C 35.78845525494318 20.95442344417834  35.766777303196356 20.95442344417834  35.74709300962936 20.9469696969697  L 27.16569766079215 10.508838370028412  L 4.360465129905524 0.3446969696969697  L 8.860465129905524 10.402777763967803  C 8.876043584626283 10.430123824987653  8.876043584626283 10.463815568951741  8.860465129905524 10.491161629971591  L 0.2529069903706391 20.911616175426136  C 0.23810209339086194 20.92728343927744  0.21762577879252323 20.93614314869358  0.19622093023255777 20.93614314869358  C 0.1748160816725927 20.93614314869358  0.15433976707425398 20.92728343927744  0.13953487009447685 20.911616175426136  C 0.10629564959827167 20.87724869478825  0.10629564959827167 20.82224626851667  0.13953487009447685 20.78787878787879  L 8.69476742823401 10.411616175426131  L 4.107558139534883 0.2121212121212091  C 4.114036188141363 0.16893386741056968  4.150673863972434 0.13702079277516854  4.193776871205614 0.13702079277516854  C 4.203000274655723 0.13702079277516854  4.212165287377476 0.1385036659002396  4.220930218931687 0.14141412760416602  L 27.25290699037064 10.35858587239583  L 35.87790696311774 20.796717157907196  C 35.907147879480455 20.83263988138807  35.907147879480455 20.884531821973674  35.87790696311773 20.920454545454547  Z " fill-rule="nonzero" fill="#ffffff" stroke="none" transform="matrix(1 0 0 1 1145 565 )" />
  </g>
</svg>