<?xml version="1.0" encoding="utf-8"?>
<svg version="1.1" xmlns:xlink="http://www.w3.org/1999/xlink" width="33px" height="21px" xmlns="http://www.w3.org/2000/svg">
  <g transform="matrix(1 0 0 1 -1148 -562 )">
    <path d="M 32.89201723733029 20.914756105848983  C 32.888803496874715 20.914756105848983  32.885592575653455 20.914575654689436  32.88240132992393 21  L 0.12664475097656241 21  C 0.12345349109913882 20.914575657918103  0.12024255546488594 20.914756110700495  0.11702880055831207 20.914756110700495  C 0.07206482832702245 20.914756110700495  0.03561432687410154 20.880189859768315  0.03561432687410154 20.837550228347553  C 0.03561432687410154 20.834502603373746  0.035804616368310754 20.83145765193452  0 20.82843135914522  L 0 0.2401960650275729  C 0.035804619772979725 0.2371697856548404  0.03561433199007999 0.2341248478835005  0.03561433199007999 0.23107723661369328  C 0.03561433199007999 0.18843760519293523  0.0720648334430009 0.1538713542607521  0.11702880567429051 0.1538713542607521  C 0.12024255886202458 0.1538713542607521  0.12345349278192591 0.15405180685011144  0.12664475097656316 0.15441176470588236  L 32.88240132992392 0.15441176470588236  C 32.88559257397065 0.15405181007877852  32.8888034934776 0.15387135911226454  32.892017232214315 0.15387135911226454  C 32.93698120444561 0.15387135911226454  32.973431705898534 0.18843761004444623  32.973431705898534 0.2310772414652072  C 32.973431705898534 0.23412485110502432  32.97324141831918 0.23716978725064286  33 0.2401960650275729  L 33 20.82843135914522  C 32.97324142172385 20.831457650338702  32.9734317110145 20.834502600152227  32.9734317110145 20.83755022349604  C 32.9734317110145 20.880189854916797  32.93698120956158 20.914756105848983  32.89201723733029 20.914756105848983  Z M 0.21710526315789472 0.317401947380514  L 0.21710526315789472 20.74264705882353  L 32.78289473684211 20.74264705882353  L 32.78289473684211 0.317401947380514  L 0.21710526315789472 0.317401947380514  Z " fill-rule="nonzero" fill="#ffffff" stroke="none" transform="matrix(1 0 0 1 1148 562 )" />
  </g>
</svg>