<?xml version="1.0" encoding="utf-8"?>
<svg version="1.1" xmlns:xlink="http://www.w3.org/1999/xlink" width="2px" height="2px" xmlns="http://www.w3.org/2000/svg">
  <g transform="matrix(1 0 0 1 -1163 -583 )">
    <path d="M 0.9445806587727409 1.694580658772755  C 0.9399052865098506 1.694580658772755  0.9352300244614847 1.694535259090145  0.9305555338541657 1.6944444661458344  C 0.5240126064459076 1.694444430189795  0.19444446614582964 1.364876260741596  0.19444446614582964 0.9583333333333334  C 0.19444446614582964 0.5517904059250706  0.5240126064459076 0.2222222364768811  0.9305555338541657 0.22222220052084177  C 1.3370984866871727 0.22222220052084177  1.6666666666666619 0.5517903805003262  1.6666666666666619 0.9583333333333334  C 1.6667574596109727 0.9630078239408041  1.666802859293578 0.9676830859888715  1.666802859293578 0.9723584582519132  C 1.666802859293578 1.37123076558881  1.343452966109633 1.694580658772755  0.9445806587727409 1.694580658772755  Z M 1.0112426224624802 0.49305556640624104  C 0.9841976899122405 0.49305556640624104  0.9572027474112398 0.49537891935897466  0.9305555338541657 0.4999999999999905  C 0.7042631296333042 0.5392429567209831  0.539020421941648 0.7356078693343306  0.539020421941648 0.9652777669270733  C 0.539020421941648 1.194947664519816  0.7042631296333042 1.3913125771331636  0.9305555338541657 1.4305555338541562  C 0.9572027474112398 1.4351766144951814  0.9841976899122405 1.4374999674479056  1.0112426224624802 1.4374999674479056  C 1.272043742341675 1.4374999674479056  1.4834648229833174 1.226078886806268  1.4834648229833174 0.9652777669270733  C 1.4834648229833174 0.7044766470478881  1.272043742341675 0.49305556640624104  1.0112426224624802 0.49305556640624104  Z " fill-rule="nonzero" fill="#ffffff" stroke="none" transform="matrix(1 0 0 1 1163 583 )" />
  </g>
</svg>