<?xml version="1.0" encoding="utf-8"?>
<svg version="1.1" xmlns:xlink="http://www.w3.org/1999/xlink" width="2px" height="2px" xmlns="http://www.w3.org/2000/svg">
  <g transform="matrix(1 0 0 1 -1161 -583 )">
    <path d="M 1.9999999609374932 0.9583333333333334  C 1.9999999609374932 1.3648762861663404  1.6045181526863732 1.6944444661458344  1.1166666188150998 1.6944444661458344  C 0.628815115453553 1.694444430189795  0.23333335481770828 1.364876260741596  0.23333335481770828 0.9583333333333334  C 0.23333331575521285 0.5515714652187947  0.6288151240063387 0.22200328523931034  1.1166666578776063 0.22200328523931034  C 1.6045181917488742 0.22200328523931034  2 0.5515714652187947  2 0.9581144180518019  Z M 1.586508743933515 0.9652777669270733  C 1.586508743933515 0.7356078693343306  1.3882174985763986 0.5392429567209831  1.1166666188150998 0.4999999999999905  C 0.8451157390538008 0.5392429567209831  0.6468244936966843 0.7356078693343306  0.6468244936966843 0.9652777669270733  C 0.6468244936966843 1.194947664519816  0.8451157390538008 1.3913125771331636  1.1166666188150998 1.4305555338541562  C 1.3882174985763986 1.3913125771331636  1.586508743933515 1.194947664519816  1.586508743933515 0.9652777669270733  Z " fill-rule="nonzero" fill="#ffffff" stroke="none" transform="matrix(1 0 0 1 1161 583 )" />
  </g>
</svg>