<?xml version="1.0" encoding="utf-8"?>
<svg version="1.1" xmlns:xlink="http://www.w3.org/1999/xlink" width="2px" height="2px" xmlns="http://www.w3.org/2000/svg">
  <g transform="matrix(1 0 0 1 -1166 -583 )">
    <path d="M 1.9166666406249988 0.9583333333333334  C 1.9166666406249988 1.3648762607415772  1.521184872264905 1.694444430189795  1.0333333593749956 1.6944444661458344  C 0.5454818159753756 1.6944444661458344  0.15 1.3648762861663404  0.15 0.9583333333333334  C 0.15014505377702675 0.5518758875785087  0.5455843638376223 0.22244111580235426  1.0333333203124995 0.22244111580235426  C 1.521082276787388 0.22244111580235426  1.9165215868479777 0.5518758875785087  1.9166666406249988 0.9583333333333334  Z M 1.5833333593749956 0.9583333333333334  C 1.5833333593749956 0.705202822994219  1.3370899717819327 0.4999999999999905  1.0333333593749956 0.4999999999999905  C 1.0278586486178767 0.4998676781892186  1.0223819234821065 0.49980150685343955  1.0169049105258636 0.49980150685343955  C 0.7039435666708244 0.49980150685343955  0.45023826990085924 0.7112225874950772  0.45023826990085924 0.9720237073742718  C 0.45023826990085924 1.2328248272534665  0.7039435666708244 1.4442459078951042  1.0169049105258636 1.4442459078951042  C 1.3298662543808917 1.4442459078951042  1.5835715511508623 1.2328248272534665  1.5835715511508623 0.9720237073742718  C 1.5835715511508623 0.9674595299108546  1.5834921455479332 0.9628955922974664  1.5833333593749956 0.9583333333333334  Z " fill-rule="nonzero" fill="#ffffff" stroke="none" transform="matrix(1 0 0 1 1166 583 )" />
  </g>
</svg>