<?xml version="1.0" encoding="utf-8"?>
<svg version="1.1" xmlns:xlink="http://www.w3.org/1999/xlink" width="32px" height="30px" xmlns="http://www.w3.org/2000/svg">
  <g transform="matrix(1 0 0 1 -958 -678 )">
    <path d="M 30.4782669676117 12.869972080924855  L 27.768955390402787 12.869972080924855  L 27.768955390402787 23.894160664739886  L 13.884279262317643 29.797687861271672  L 0 23.894160664739886  L 0 5.517518005780348  L 13.884676128085145 0.2027028034682093  L 27.768955390402787 5.517518005780348  L 27.768955390402787 7.574298757225434  L 23.798049934856405 7.574298757225434  L 13.884676128085143 3.779508988439308  L 4 7.798142138728324  L 4 21.702605086705198  L 13.884676128085145 26.16619043352601  L 24.382216731810257 21.702605086705198  L 24.382216731810257 12.869972080924855  L 21.673302020368837 12.869972080924855  L 21.673302020368837 9.536541820809248  L 30.4782669676117 9.536541820809248  L 30.4782669676117 12.869972080924855  Z M 6 20.593154508670523  L 6 9.536541820809248  L 10 9.536541820809248  L 10 22.06512979768786  L 6 20.593154508670523  Z " fill-rule="nonzero" fill="#ffffff" stroke="none" transform="matrix(1 0 0 1 958 678 )" />
  </g>
</svg>