<?xml version="1.0" encoding="utf-8"?>
<svg version="1.1" xmlns:xlink="http://www.w3.org/1999/xlink" width="8px" height="5px" xmlns="http://www.w3.org/2000/svg">
  <g transform="matrix(1 0 0 1 -969 -689 )">
    <path d="M 5.495720816955682 0.5515632305716123  C 4.751999825454433 0.5204447214331687  4.011177945065436 0.6652849003803452  3.328906543352602 0.9752032113037885  C 2.6392607870926184 1.285961233308147  2.024853619961354 1.753065845414158  1.5304506512524072 2.3424838792549765  C 2.2684509527050665 2.326863252559216  2.99636871459584 2.160821460870457  3.6730966319845835 1.853735292228643  C 4.355114420176383 1.545780852624222  4.973683756720982 1.1036424307656938  5.4948874296724455 0.5515632305716108  Z M 4.601909919075146 4.204589916506099  L 4.6010765317919065 4.205458028259474  C 5.951549403898798 3.5942822108138817  7.118842896412417 2.6151198463316927  7.9800567552986506 1.3710635195889522  C 7.573238364828614 1.0990221528555748  7.130875784616251 0.8895303078480394  6.666633926782273 0.7490593448940268  C 6.547181338471421 0.9041625133804325  6.422172824662814 1.0539122992935142  6.291608385356454 1.1983087026332677  C 5.661442385493212 1.894097743626094  4.9017694848465485 2.4488234243943108  4.058956269749518 2.8286280989081574  C 3.223663415517561 3.2086174479710623  2.3219167318043703 3.404432152437937  1.4104424816955685 3.403754078355812  C 1.2226519100834963 3.403754078355812  1.0351391342325003 3.3953623099978563  0.8479041541425829 3.3785787732819523  C 0.6181330604045769 3.8322683958063335  0.4498531898384385 4.31694948053264  0.3478700886319842 4.818781053307643  C 1.7931232586176407 5.024518685514078  3.264857697702226 4.812032135260698  4.601909919075146 4.204589916506099  Z " fill-rule="nonzero" fill="#ffffff" stroke="none" transform="matrix(1 0 0 1 969 689 )" />
  </g>
</svg>