<?xml version="1.0" encoding="utf-8"?>
<svg version="1.1" xmlns:xlink="http://www.w3.org/1999/xlink" width="11px" height="6px" xmlns="http://www.w3.org/2000/svg">
  <g transform="matrix(1 0 0 1 -969 -690 )">
    <path d="M 0.4014092265345439 5.155420289017342  C 2.117313268777785 5.31862975750706  3.8483906093168994 5.058900904730041  5.429095507844753 4.401072023121386  C 7.025129612962142 3.7394760383666243  8.42101209292197 2.705019867568965  9.488077401596469 1.393054566473987  C 9.250467538774522 0.9963352462218626  8.955037620759448 0.6338373250246665  8.610636680429394 0.31641872832369966  C 8.379085692598926 0.6197727165267191  8.127425372765805 0.9086645010997012  7.857199931186345 1.1813214161849706  C 7.021495142636145 2.026950928908942  6.014008871070808 2.701131842670863  4.896246696944672 3.1627063872832357  C 3.788582501214902 3.6245870233410917  2.5927691022281136 3.8626679304234486  1.3840282658959515 3.8619728034682064  C 0.9970921638294356 3.861702746850602  0.6105972039048594 3.837038004889326  0.227066977704375 3.7881396242774557  C 0.21847937129449288 4.2494117405882506  0.27715576514849094 4.709581890575164  0.4014092265345439 5.155420289017342  Z " fill-rule="nonzero" fill="#ffffff" stroke="none" transform="matrix(1 0 0 1 969 690 )" />
  </g>
</svg>