<?xml version="1.0" encoding="utf-8"?>
<svg version="1.1" xmlns:xlink="http://www.w3.org/1999/xlink" width="11px" height="8px" xmlns="http://www.w3.org/2000/svg">
  <g transform="matrix(1 0 0 1 -969 -692 )">
    <path d="M 10.176033509496285 2.719451283236995  C 10.19754623565138 2.109552529975693  10.115585470230887 1.5004450773320173  9.933755103220479 0.918911938342967  C 9.804976481328564 1.0728113037893394  9.672514580236719 1.2230993140655102  9.536369399944949 1.3697759691714821  C 8.483804237701662 2.5056425956711337  7.214949382477757 3.411209393569945  5.807246289567849 4.031207306358382  C 4.411985663615868 4.651600671641478  2.9057127774610803 4.971243154658882  1.3832097605284883 4.970021271676299  C 1.187859146710708 4.970021271676299  0.9926449454078367 4.964465335902378  0.7975671566198715 4.953353464354524  C 1.0666598372118323 5.49265607810942  1.4268359278198794 5.979553689670832  1.8616277676851072 6.39178478612717  C 3.40472866296801 6.332740634545803  4.923378481938029 5.980411764697692  6.339276564822461 5.3529640385356485  C 7.7663455139599264 4.72278218181529  9.06702068915736 3.830011356408221  10.176033509496285 2.719451283236995  Z M 3.194159017341043 7.296013071290943  L 3.1945682851637773 7.29434629672447  C 4.44468404110134 7.87501925254615  5.878317975662998 7.887139235584982  7.1377312606661185 7.327681911368015  C 8.451846094137077 6.749309163776493  9.401724797687866 5.644650574181116  9.865000410129369 4.349979036608863  C 8.906801615171906 5.138188203934274  7.847941422817168 5.790298191975248  6.7174273465455565 6.288444423892099  C 5.5937867280696985 6.786776987216806  4.408310870667873 7.125794114088896  3.194159017341043 7.296013071290943  Z " fill-rule="nonzero" fill="#ffffff" stroke="none" transform="matrix(1 0 0 1 969 692 )" />
  </g>
</svg>