<?xml version="1.0" encoding="utf-8"?>
<svg version="1.1" xmlns:xlink="http://www.w3.org/1999/xlink" width="30px" height="26px" xmlns="http://www.w3.org/2000/svg">
  <g transform="matrix(1 0 0 1 -1053 -678 )">
    <path d="M 29.01417525773196 19.150103530182452  C 30.238402051788015 16.895962732919255  30.20618557707796 15.112836449437113  28.85309279357281 13.733436842488356  L 14.774484526014822 5.221532101611025  L 15.837628855911724 4.144927525718169  L 15.708762896665592 3.5393374636063673  L 13.936855670103093 4.716873716517858  L 8.363402071923323 1.35248447204969  C 6.301546391752577 0.9151138611218956  4.594072175016107 1.6552795031055914  3.2409793915109537 3.60662526931289  C 1.7912371234697169 5.65890268099767  0.8247422781088918 7.374741190314441  0.37371133013853086 8.754140797263195  C -0.1739690721649485 10.23447204968944  0.27706184560244834 11.748447204968944  1.7268041136436856 13.296066263101707  L 7.300257742026417 16.660455476028726  L 7.461340206185566 18.40993788819876  L 7.815721639416882 18.611801242236023  L 8.17010310285116 17.131469989809784  L 22.248711340206185 25.67701863354037  C 23.505154639175256 26.45082814683618  24.954896907216497 25.710662536393635  26.597938144329895 23.523809513295806  L 29.01417525773196 19.150103530182452  Z M 13.84020618556701 5.322463778629657  L 19.09149485542848 8.451345766207298  C 19.57474227810889 9.326086956521738  19.542525773195877 9.93167701863354  18.9948453708924 10.20082814683618  L 15.740979371375643 8.24948241217003  L 13.84020618556701 5.322463778629657  Z M 11.101804113643688 15.819358188567548  L 6.881443298969072 14.910973095399843  C 7.042525763128221 12.858695652173912  7.590206195634663 10.974637691673134  8.524484536082474 9.292443053668478  C 9.458762876530283 7.6102484472049685  10.715206175499356 6.23084884025621  12.261597928076675 5.154244295904503  L 15.096649484536085 8.585921314538043  L 11.101804113643688 15.819358188567548  Z M 14.420103092783506 18.47722566236413  C 14.45231959769652 19.082815724475935  14.00128864972616 19.419254658385093  13.034793804365336 19.41925465838509  L 7.783505164706829 16.256728767954193  L 11.166237123469717 16.525879927697982  L 14.420103092783506 18.47722566236413  Z M 20.44458763893363 22.110766035034935  C 20.31572164948453 22.985507225349373  20.090206205702316 23.45652173913043  19.70360823735502 23.42287783627717  L 14.387886587870486 20.226708074534155  L 15.773195876288657 19.284679078513193  L 20.44458763893363 22.110766035034935  Z M 25.01932988683956 13.834368519506983  L 20.347938154397546 11.008281562985244  L 20.444587638933633 9.292443053668475  L 25.76030928841817 12.488612846952636  C 25.953608257490334 12.825051780861797  25.695876308795103 13.262422360248443  25.01932988683956 13.834368519506983  Z M 28.530927835051546 15.617494834530278  C 28.530927835051546 15.617494834530278  28.49871133013853 17.804347826086957  27.01675258738724 20.462215331424687  C 26.050257742026417 22.245341614906827  24.98711341212951 23.42287786781832  23.859536072406573 24.028467898388968  L 22.7319587628866 22.71635609714674  L 26.79123711340206 15.34834367478649  C 27.75773195876289 15.853002059879659  28.33762886597938 15.953933736898291  28.530927835051546 15.617494834530278  Z M 26.597938144329895 9.62888198757764  L 27.789948463675902 10.369047629561337  C 26.436855680170748 4.4477225883152185  21.346649504671394 0.006728799495341466  15.257731948695232 0.0067287679541920475  C 13.969072144813145 0.0067287679541920475  12.744845350757092 0.20859212199145968  11.552835061614049 0.578674958753882  L 12.744845350757089 1.2851966978843168  C 13.550257731958764 1.1169772467003103  14.38788658787049 1.0160455696816768  15.257731948695232 1.0160455381405273  C 20.54123709326675 1.0160455381405273  25.051546391752577 4.649585910811335  26.597938144329895 9.62888198757764  Z " fill-rule="nonzero" fill="#ffffff" stroke="none" transform="matrix(1 0 0 1 1053 678 )" />
  </g>
</svg>