<?xml version="1.0" encoding="utf-8"?>
<svg version="1.1" xmlns:xlink="http://www.w3.org/1999/xlink" width="29px" height="29px" xmlns="http://www.w3.org/2000/svg">
  <g transform="matrix(1 0 0 1 -1056 -676 )">
    <path d="M 8.663135593220339 1.9508845332140359  C 10.199152542372882 1.4108472787185753  11.837570621468926 1.1070763289979046  13.578389830508474 1.1070763606407121  C 20.712335205905724 1.1070763606407121  26.617467053981287 6.203677860946229  27.84628061330332 12.920391061452511  L 28.97269304268185 13.561685299188197  C 28.016949152542374 5.967411556171438  21.46327683615819 0.09450652823847773  13.578389830508474 0.09450652823847773  C 11.427966101694915 0.09450652823847773  9.379943502824858 0.5332867994937152  7.536723163841808 1.309590327121159  L 8.663135593220339 1.9508845332140359  Z M 1.1537193866966802 17.780726256983243  L 0.02730695731814921 17.10567971259602  C 0.8806497175141244 23.754888268156424  6.615112994350282 28.918994413407827  13.578389830508472 28.918994413407827  C 15.455743890139473 28.918994413407827  17.264830508474574 28.54771881874127  18.86911486692267 27.872672242711243  L 17.70856874889654 27.231378036618366  C 16.411487780278954 27.670158307873606  15.012005649717514 27.94017691929993  13.544256109860521 27.94017691929993  C 7.400188313250353 27.94017691929993  2.2459980954272587 23.55237430167598  1.1537193866966802 17.780726256983243  Z " fill-rule="nonzero" fill="#ffffff" stroke="none" transform="matrix(1 0 0 1 1056 676 )" />
  </g>
</svg>