<?xml version="1.0" encoding="utf-8"?>
<svg version="1.1" xmlns:xlink="http://www.w3.org/1999/xlink" width="28px" height="30px" xmlns="http://www.w3.org/2000/svg">
  <g transform="matrix(1 0 0 1 -962 -557 )">
    <path d="M 27.966469135802466 21.25585227272727  C 27.638246913580243 22.227102272727272  26.11708641975308 22.056647727272725  26.289925925925928 23.55681818181818  C 26.462765432098763 24.71590909090909  27.465407407407405 24.545454545454547  27.638246913580243 25.05681818181818  C 27.638246913580243 25.380511363636366  27.465407407407405 26.556818181818183  26.964172839506173 26.710227272727277  C 26.462938271604937 26.710227272727277  25.788864197530863 26.53977272727273  25.28762962962963 26.710227272727277  C 24.959407407407404 26.88068181818182  24.613728395061727 27.03409090909091  24.440888888888885 27.375  C 24.112493827160495 28.210056818181815  24.76911111111111 28.874829545454546  24.440888888888885 29.19869318181818  C 23.939654320987653 29.522556818181815  22.91972839506173 30.033920454545452  22.591506172839505 29.693011363636362  C 22.09027160493827 29.19869318181818  22.09027160493827 28.53375  21.07051851851852 28.53375  C 19.722197530864197 28.53375  19.722197530864197 29.863465909090905  19.048296296296297 29.863465909090905  C 18.37422222222222 29.863465909090905  17.198913580246913 29.369147727272725  17.198913580246913 28.87465909090909  C 17.37175308641975 28.210056818181815  17.700148148148145 27.715738636363636  17.026074074074074 27.050965909090912  C 16.179160493827162 26.386193181818182  15.17669135802469 27.050965909090912  14.83101234567901 26.727102272727276  C 14.329950617283945 26.403238636363643  14.157111111111108 25.568011363636362  14.329950617283945 25.07386363636364  C 14.502790123456785 24.579545454545457  15.678098765432097 24.579545454545457  15.678098765432097 23.249829545454546  C 15.678098765432097 22.26136363636364  14.502790123456785 22.090909090909093  14.329950617283945 21.426136363636367  C 14.157111111111108 20.93181818181819  14.502790123456785 20.09642045454546  15.00385185185185 19.925965909090916  C 15.850765432098763 19.60227272727273  16.352000000000004 20.249829545454553  17.198913580246913 19.60227272727273  C 17.700148148148145 19.108125  17.527308641975306 17.948863636363644  17.527308641975306 17.607954545454547  C 17.700148148148145 17.11363636363637  18.374049382716045 16.943181818181824  18.875456790123454 16.943181818181824  C 19.877925925925922 16.943181818181824  19.549358024691358 18.102443181818185  20.897679012345677 18.27289772727273  C 22.245827160493825 18.27289772727273  22.07298765432099 17.77857954545455  22.746888888888883 16.943181818181824  C 23.593802469135795 16.943181818181824  24.268049382716043 17.267045454545457  24.42343209876543 17.607954545454547  C 24.75182716049382 18.272727272727277  24.095209876543205 19.26136363636364  25.097506172839502 19.926136363636363  C 25.94424691358024 20.420454545454547  26.77404938271604 19.755681818181824  27.292567901234566 19.926136363636363  C 27.620790123456786 20.09659090909091  27.793629629629628 20.590909090909093  27.966469135802466 21.25585227272727  Z M 21.57158024691358 26.386363636363633  C 25.460469135802473 25.55096590909091  24.941950617283954 19.397727272727273  20.22343209876543 20.232954545454543  C 16.178987654320984 21.22159090909091  17.699975308641974 27.03409090909091  21.57158024691358 26.386363636363633  Z M 20.568938271604935 7.278579545454545  C 20.569111111111113 11.096761363636364  17.371580246913577 14.420625  13.327135802469133 14.420625  C 9.28269135802469 14.420625  6.085160493827157 11.26721590909091  6.085160493827157 7.278579545454545  C 6.085160493827157 3.289943181818182  9.28269135802469 0.13653409090909124  13.327135802469133 0.13653409090909124  C 17.3714074074074 0.13653409090909124  20.568938271604935 3.289943181818182  20.568938271604935 7.278579545454545  Z M 10.302444444444442 15.749999999999996  L 19.22096296296296 16.073863636363637  C 19.22096296296296 16.073863636363637  16.52449382716049 16.073863636363637  16.69733333333333 17.897727272727273  C 16.87017283950617 19.892045454545453  14.173876543209879 18.391875  13.672814814814812 20.0625  C 12.998740740740738 22.056647727272722  14.001037037037037 21.715738636363632  14.519555555555556 23.045454545454543  C 14.847950617283951 23.880681818181817  13.171407407407408 24.375  13.344246913580246 25.874999999999996  C 13.672641975308641 27.86931818181818  15.366469135802468 26.863806818181814  15.8677037037037 28.039772727272727  C 16.196098765432094 29.02840909090909  15.020962962962958 29.693181818181817  12.324493827160492 29.693181818181817  C 10.129604938271603 29.693181818181817  5.929432098765429 29.693181818181817  4.408444444444442 29.52272727272727  C 4.408444444444442 29.52272727272727  0.035604938271602396 29.352272727272727  0.035604938271602396 26.539772727272727  C 0.035604938271602396 26.539772727272727  -0.13723456790123773 22.380681818181817  2.5590617283950587 19.39772727272727  C 2.5590617283950587 19.39772727272727  5.428197530864194 15.749999999999996  10.302444444444442 15.749999999999996  Z " fill-rule="nonzero" fill="#ffffff" stroke="none" transform="matrix(1 0 0 1 962 557 )" />
  </g>
</svg>