<?xml version="1.0" encoding="utf-8"?>
<svg version="1.1" xmlns:xlink="http://www.w3.org/1999/xlink" width="32px" height="28px" xmlns="http://www.w3.org/2000/svg">
  <g transform="matrix(1 0 0 1 -1245 -555 )">
    <path d="M 14.309719914418759 26.556659239669425  C 14.285153064563492 27.33153913466213  13.77024263120359 27.938745746232378  13.139075957544994 28  L 1.0232965289256197 28  C 0.731496867064745 27.937739974883407  0.45564462477990764 27.80360104226007  0.27219532659311163 27.57350704910063  C 0.03356127029408068 27.278833252309187  -0.052409279691236266 26.85217698395722  0.036031379787725026 26.403959191054934  L 5.062435601795529 0.9291050384054413  C 5.165187053049445 0.42964439578854663  5.5956860114681595 0.06914776443232021  6.098807628476738 0.061254798249878215  L 14.176683038973026 0.061254798249878215  C 14.177035365604205 0.06125440916050982  14.177387692418877 0.061254214615781594  14.177740019259021 0.061254214615781594  C 14.71372381628312 0.061254214615781594  15.148224533249875 0.5018251621872205  15.148224533249875 1.0452969681403323  C 15.148224533249875 1.0573423404384863  15.148006414808314 1.069386697442482  15.147570288207406 1.081423949440933  L 14.309719914418759 26.556659239669425  Z M 6.307155967613374 1.3893558891589675  L 1.328650390569283 26.610644655323288  L 12.985580158577003 26.610644655323288  C 12.994438810823357 26.57856941945274  12.999521790807462 26.54554366089433  13.000723003733691 26.51225671171609  L 13.827135696606117 1.3893558891589675  L 6.307155967613374 1.3893558891589675  Z M 28.774949304023163 9.615774782693244  C 28.595409433428692 9.837627375775849  28.326959879821448 9.965804395277898  28.043931165834632 9.964815132717547  L 18.65993166254143 9.964815132717547  C 18.10120363468558 9.964815132717547  17.630486708897937 9.477557962080697  17.610430493770192 8.878273594555179  L 17.35501580232412 1.0814239494409323  C 17.354579689019886 1.069386880739185  17.354361577230026 1.0573427073568333  17.354361577230026 1.0452975187267912  C 17.354361577230026 0.5018257127736802  17.78886229419678 0.06125476520224099  18.324846091220877 0.06125476520224099  L 26.40377848890381 0.061254798249878215  C 26.90659648550476 0.06952619572252533  27.3366603394958 0.42993859646357563  27.439345018248943 0.9291050384054442  L 28.979619354784592 8.72595468351969  C 29.046660840212297 9.038676459199932  28.97151221295253 9.365391377734774  28.774949304023163 9.615774782693244  Z M 18.674644923438354 1.3893831132717536  L 18.913305828753625 8.636714041808457  L 27.625193908629445 8.636714041808457  L 26.196289291437683 1.3893831132717536  L 18.674644923438354 1.3893831132717536  Z M 31.480578314385195 27.274695187165783  L 31.48055146536897 27  L 19.36069098628183 27  C 19.0905361849226 27.274695187165776  18.858453288584972 26.93975692756441  18.844921384402397 26.534253794846865  L 18.450375117674206 14.531442177929025  C 18.440548377732096 14.243002702965482  18.61737599865755 14.008521419543026  18.842504972941224 14  L 28.944044408272852 14  C 29.16917340940554 14.008521419543026  29.39961851575282 14.243002702965486  29.456511581155347 14.531442177929025  L 31.825615022024586 26.534281018959653  C 31.905839882535556 26.93975695478853  31.750706266728198 27.274695187165783  31.480578314385195 27.274695187165783  Z " fill-rule="nonzero" fill="#ffffff" stroke="none" transform="matrix(1 0 0 1 1245 555 )" />
  </g>
</svg>