<?xml version="1.0" encoding="utf-8"?>
<svg version="1.1" xmlns:xlink="http://www.w3.org/1999/xlink" width="14px" height="14px" xmlns="http://www.w3.org/2000/svg">
  <g transform="matrix(1 0 0 1 -1264 -569 )">
    <path d="M 13.608321376212714 13.592675271612967  C 13.43646227948845 13.812427968758968  13.1780381911933 13.940538186071059  12.90467423284226 14  L 1.550538634567013 14  C 0.9596259504132209 13.94149874640171  0.47684480416816344 13.361582319621137  0.45423251527128816 12.621554487881884  L 0.08456309378368741 1.158169077908813  C 0.07071335214832307 0.8428525779285719  0.18064315414122173 0.5351184321086815  0.38941397412863726 0.30477879097409466  C 0.5652583583720096 0.11296166705592325  0.8094219560779442 0.003949927789391765  1.0650661228889662 0.003120326864148454  L 10.528396884656845 0.003120326864148454  C 11.033790344951493 0.003120326864148454  11.498536996047433 0.4371736280063165  11.610114430470714 1.0123059522704052  L 13.829564613726193 12.475691362243476  C 13.912392497305065 12.903764535240045  13.831853510600068 13.311245240969448  13.608321376212714 13.592675271612967  Z M 1.6820621703197995 12.579121578605259  C 1.6831874913967544 12.610912485123801  1.6879493320204468 12.642453939926778  1.6962483003952615 12.67308759216269  L 12.616298379446645 12.67308759216269  L 10.408368138699252 1.2715575076608798  L 1.3173981386992448 1.2715575076608798  L 1.6820621703197995 12.579121578605259  Z " fill-rule="nonzero" fill="#ffffff" stroke="none" transform="matrix(1 0 0 1 1264 569 )" />
  </g>
</svg>