<?xml version="1.0" encoding="utf-8"?>
<svg version="1.1" xmlns:xlink="http://www.w3.org/1999/xlink" width="19px" height="19px" xmlns="http://www.w3.org/2000/svg">
  <g transform="matrix(1 0 0 1 -787 -2767 )">
    <path d="M 9.5 0  C 7.561643749999999 0  5.941359374999999 0.5841312499999992  4.884721875 2.091306250000001  C 4.13618125 3.1589874999999994  3.7609906249999994 4.573003124999999  3.624546875000001 6.265487499999999  C 0.9820031250000001 7.103684374999999  0 8.873475000000001  0 12.161484375  C 0 17.233296875  2.336524999999999 18.692734375  9.5 18.692734375  C 16.663475 18.692734375  19 17.233296875  19 12.161484375  C 19 8.873475000000001  18.017996875 7.103684374999999  15.375453125 6.265487499999999  C 15.239009375 4.573003124999999  14.86381875 3.1589874999999994  14.115278125 2.091306250000001  C 13.058640624999999 0.5841312499999992  11.438356250000002 0  9.5 0  Z M 9.5 16.317734375  C 5.905971875 16.317734375  4.211409375000001 15.913450000000001  3.3925687499999997 15.360609375  C 2.8762437500000004 15.012078124999999  2.375 14.373796875  2.375 12.161484375  C 2.375 9.949231249999999  2.8762437500000004 9.310950000000002  3.3925687499999997 8.962359374999998  C 4.211409375000001 8.409578125  5.905971875 8.005234375  9.5 8.005234375  C 13.094028125000001 8.005234375  14.788590625 8.409578125  15.607431250000001 8.96241875  C 16.12375625 9.310950000000002  16.625 9.949231249999999  16.625 12.161484375  C 16.625 14.373796875  16.12375625 15.012078124999999  15.607431250000001 15.360609375  C 14.788590625 15.913450000000001  13.094028125000001 16.317734375  9.5 16.317734375  Z M 6.063671874999999 5.7871625  C 6.210506250000001 4.701134375  6.478525 3.9552062500000003  6.829371875 3.4546750000000004  C 7.3024125 2.779937499999999  8.057128125 2.375  9.5 2.375  C 10.942871875000002 2.375  11.697587500000001 2.779937499999999  12.170628125 3.4546750000000004  C 12.521474999999999 3.9552062500000003  12.789493749999998 4.701134375  12.936328125000001 5.7871625  C 11.939778124999998 5.678268750000001  10.799303124999998 5.630234375000001  9.5 5.630234375000001  C 8.200696874999998 5.630234375000001  7.060221874999999 5.678268750000001  6.063671874999999 5.7871625  Z M 10.6875 11.28125  C 10.6875 10.62539375  10.15585625 10.09375  9.5 10.09375  C 8.844143749999999 10.09375  8.3125 10.62539375  8.3125 11.28125  L 8.3125 13.0625  C 8.3125 13.71835625  8.844143749999999 14.25  9.5 14.25  C 10.15585625 14.25  10.6875 13.71835625  10.6875 13.0625  L 10.6875 11.28125  Z " fill-rule="nonzero" fill="#ffffff" stroke="none" transform="matrix(1 0 0 1 787 2767 )" />
  </g>
</svg>