<?xml version="1.0" encoding="utf-8"?>
<svg version="1.1" xmlns:xlink="http://www.w3.org/1999/xlink" width="7px" height="4px" xmlns="http://www.w3.org/2000/svg">
  <g transform="matrix(1 0 0 1 -320 -2328 )">
    <path d="M 1.1666666666666665 0.5  C 1.1666666666666665 0.22384999999999966  0.9055083333333327 0  0.5833333333333333 0  C 0.26115833333333394 0  0 0.22384999999999966  0 0.5  L 0 3.5  C 0 3.7761499999999995  0.26115833333333394 4  0.5833333333333333 4  C 0.9055083333333327 4  1.1666666666666665 3.7761499999999995  1.1666666666666665 3.5  L 1.1666666666666665 0.5  Z M 7 0.5  C 7 0.22384999999999966  6.738841666666667 0  6.416666666666666 0  C 6.094491666666667 0  5.833333333333334 0.22384999999999966  5.833333333333334 0.5  L 5.833333333333334 3.5  C 5.833333333333334 3.7761499999999995  6.094491666666667 4  6.416666666666666 4  C 6.738841666666667 4  7 3.7761499999999995  7 3.5  L 7 0.5  Z " fill-rule="nonzero" fill="#000000" stroke="none" transform="matrix(1 0 0 1 320 2328 )" />
  </g>
</svg>