<?xml version="1.0" encoding="utf-8"?>
<svg version="1.1" xmlns:xlink="http://www.w3.org/1999/xlink" width="20px" height="14px" xmlns="http://www.w3.org/2000/svg">
  <g transform="matrix(1 0 0 1 -131 -2798 )">
    <path d="M 3.583953191489362 3.742974462470314  L 10.683234042553192 0.09350524359241763  C 11.249106382978724 -0.19738894142688213  11.914893617021276 0.22566874246534796  12 0.8761288619183255  L 12 12.919550009213909  C 11.914893617021276 13.570025003666759  11.249106382978724 13.99308750005895  10.683234042553192 13.702193752539644  L 3.583953191489362 10.052743783661583  C 3.4657787234042554 9.991975034179811  3.335468085106383 9.960343784449558  3.203344680851064 9.960343784449558  L 0.851063829787234 9.960343784449558  C 0.3810344680851064 9.960343784449558  0 9.568606287790233  0 9.085343791911422  L 0 4.710343829220739  C 0 4.227098833341777  0.3810344680851064 3.835348211682565  0.851063829787234 3.835348211682565  L 3.203344680851064 3.835348211682565  C 3.335468085106383 3.835348211682565  3.4657787234042554 3.8037213369522735  3.583953191489362 3.742974462470314  Z M 17.207531914893618 12.802956260208202  C 18.673659574468083 11.231018773613439  19.574595744680853 9.0975062918077  19.574595744680853 6.747693811846535  C 19.574595744680853 4.487612581120156  18.741191489361704 2.427665723687061  17.373063829787235 0.8750001119279514  L 16.469063829787235 1.8044163540020346  C 17.606765957446807 3.118434467796293  18.298000000000002 4.85008132802908  18.298000000000002 6.747693811846535  C 18.298000000000002 8.735081294898407  17.53982978723404 10.540425029502718  16.304595744680853 11.874668768124494  L 17.207531914893618 12.802956260208202  Z M 15.564170212765958 2.7347732210680964  C 16.47195744680851 3.8097194619011225  17.02140425531915 5.213118824933152  17.02140425531915 6.74848131183982  C 17.02140425531915 8.37322504798426  16.406085106382978 9.850268785388261  15.401957446808511 10.946600026038919  L 14.495276595744679 10.014462533988041  C 15.229744680851065 9.164618791235377  15.675829787234044 8.045450050779474  15.675829787234044 6.8191813112369015  C 15.675829787234044 5.646375071238411  15.267787234042554 4.57156883040419  14.589744680851062 3.7366307125244123  L 15.564170212765958 2.7347732210680964  Z M 13.60736170212766 4.746612578911444  C 14.142893617021276 5.365018823637772  14.468255319148934 6.179993816687793  14.468255319148934 7.073062559071842  C 14.468255319148934 7.890137552103954  14.19591489361702 8.641850045693468  13.739489361702127 9.23741879061455  L 12.826425531914893 8.298631298620384  C 13.056978723404256 7.9489375516025165  13.191659574468083 7.527012555200626  13.191659574468083 7.072756309074453  C 13.191659574468083 6.5422438135985805  13.007957446808511 6.0557875677470046  12.702382978723403 5.677043820976872  L 13.60736170212766 4.746612578911444  Z " fill-rule="nonzero" fill="#ffffff" stroke="none" transform="matrix(1 0 0 1 131 2798 )" />
  </g>
</svg>