<?xml version="1.0" encoding="utf-8"?>
<svg version="1.1" xmlns:xlink="http://www.w3.org/1999/xlink" width="14px" height="15px" xmlns="http://www.w3.org/2000/svg">
  <g transform="matrix(1 0 0 1 -128 -222 )">
    <path d="M 11.346583081317204 2.6939648437500003  L 11.346583081317204 0.07177734375  L 9.606285702284946 0.07177734375  L 9.606285702284946 2.6939648437500003  L 11.346583081317204 2.6939648437500003  Z M 4.3887894825268825 0.07177734375  L 2.6493447580645166 0.07177734375  L 2.6493447580645166 2.6939648437500003  L 4.389642137096775 2.6939648437500003  L 4.389642137096775 0.07177734375  Z M 13.08688046034946 1.8190722656249998  L 13.08602780577957 1.8182373046875  L 12.216702368951614 1.8182373046875  L 12.216702368951614 3.5680078125  L 8.736210517473118 3.5680078125  L 8.736210517473118 1.8182373046875  L 5.2573210685483875 1.8182373046875  L 5.2573210685483875 3.5680078125  L 1.7808131720430107 3.5680078125  L 1.7808131720430107 1.8182373046875  L 0.9114877352150538 1.8182373046875  C 0.6812857022849461 1.8177978515625  0.4602276545698925 1.9097021484375  0.29726772513440863 2.0736181640624998  C 0.13416078629032263 2.2375341796875  0.04241221438172043 2.4601318359374997  0 2.692236328125  L 0 14.055029296875  C 0.04261802755376352 14.28703125  0.13445480510752691 14.509379882812501  0.2975176411290323 14.6731494140625  C 0.4605216733870967 14.8369189453125  0.6814327116935484 14.9286328125  0.9114877352150538 15  L 13.088468161962366 15  C 13.318626092069891 14.9286328125  13.539478326612903 14.8369189453125  13.702541162634407 14.6731494140625  C 13.865501092069891 14.509379882812501  13.957352570564515 14.28703125  14 14.055029296875  L 14 2.69396484375  C 13.956000084005376 2.210244140625  13.566572160618279 1.8190722656249998  13.08688046034946 1.8190722656249998  Z M 4.389642137096775 11.435302734375  L 4.388789482526881 11.4344677734375  L 2.6493447580645166 11.4344677734375  L 2.6493447580645166 9.685532226562499  L 4.389642137096775 9.685532226562499  L 4.389642137096775 11.435302734375  Z M 4.389642137096775 7.937490234375  L 4.388789482526881 7.936596679687499  L 2.6493447580645166 7.936596679687499  L 2.6493447580645166 6.1876611328125  L 4.389642137096775 6.1876611328125  L 4.389642137096775 7.937490234375  Z M 7.8676936323924735 11.4344677734375  L 6.126602402553764 11.4344677734375  L 6.126602402553764 9.685532226562499  L 7.8676936323924735 9.685532226562499  L 7.8676936323924735 11.435302734375  Z M 7.8676936323924735 7.936596679687499  L 6.126602402553764 7.936596679687499  L 6.126602402553764 6.1876611328125  L 7.8676936323924735 6.1876611328125  L 7.8676936323924735 7.937490234375  Z M 11.345789230510753 11.4344677734375  L 9.605491851478495 11.4344677734375  L 9.605491851478495 9.685532226562499  L 11.345789230510753 9.685532226562499  L 11.345789230510753 11.435302734375  Z M 11.345789230510753 7.936596679687499  L 9.605491851478495 7.936596679687499  L 9.605491851478495 6.1876611328125  L 11.345789230510753 6.1876611328125  L 11.345789230510753 7.937490234375  Z " fill-rule="nonzero" fill="#3f3c3c" stroke="none" transform="matrix(1 0 0 1 128 222 )" />
  </g>
</svg>