<?xml version="1.0" encoding="utf-8"?>
<svg version="1.1" xmlns:xlink="http://www.w3.org/1999/xlink" width="19px" height="20px" xmlns="http://www.w3.org/2000/svg">
  <g transform="matrix(1 0 0 1 -1133 -322 )">
    <path d="M 11.793155546016887 19.97716324562612  C 11.690916915586707 19.97716324562612  11.588428903732623 19.95231847912936  11.495416693322671 19.902382983882077  L 6.908143446150952 17.44250590990495  C 6.707458951747035 17.334901263754933  6.582505612928782 17.127639497711744  6.582475951972154 16.902316903154706  L 6.582475951972154 7.796589987601598  L 0.47084951195992175 2.0778677834412456  C 0.46461544558647105 2.071964072186251  0.45863073829291817 2.066060382972861  0.4526460533433684 2.0601566717178676  C 0.10802702330832394 1.7101161702713874  0.009778182844509284 1.1935419864995176  0.20253543288566903 0.7438764347706296  C 0.3952926829268292 0.29421088304174126  0.8394073488251762 0.00394540294806457  1.333893263870922 0  L 17.66539396241503 0  C 18.160129236540676 0.003945424989668059  18.60424392478303 0.29445691142030583  18.797001152480185 0.7438764347706296  C 18.98975838017734 1.193295958120953  18.89150956205753 1.709870163934426  18.546890532022484 2.0601566717178676  C 18.540905824728934 2.0663063672682194  18.53492113977938 2.0722100785232134  18.528687073405933 2.0778677834412456  L 12.4168112519698 7.7965899876016  L 12.4168112519698 19.362193977131838  C 12.4168112519698 19.579155123295223  12.301107030129124 19.779881107590576  12.112090233318439 19.890821567709054  C 12.01569194048719 19.947409994477013  11.905580409526458 19.977242602065882  11.793404905096788 19.97716324562612  Z M 7.829288645718183 16.536533186389313  L 11 18.32781566606971  L 11 7.532399173439868  C 11.169749199143872 7.363651610414657  11.24006944281111 7.202283664416587  11.36425198508832 7.086177490012399  L 17.61851380741821 1.2341299462735906  L 1.380773418867747 1.2341299462735906  L 7.635284600277536 7.086177490012399  C 7.759467142554743 7.2022836864581885  7.829787386221981 7.3636516324562615  7.829787386221981 7.532399173439868  L 7.829787386221981 16.536533186389313  Z M 17.77286920055507 9.767197487257201  C 18.117238871510224 9.767197487257201  18.39627554742809 9.491937247554763  18.396275547428086 9.152228218762916  C 18.396275547428086 8.812519189971072  18.117238871510217 8.537258950268633  17.77286920055507 8.537258972310237  L 14.772788528118163 8.537258972310237  C 14.428418857163017 8.537258972310237  14.149382181245148 8.812519212012674  14.149382181245148 9.152228218762916  C 14.149382181245148 9.491937225513158  14.428418857163017 9.767197487257201  14.772788528118163 9.767197487257201  L 17.77286920055507 9.767197487257201  Z M 17.77286920055507 12.884845692244113  C 18.117238871510224 12.884845692244113  18.39627554742809 12.609585452541676  18.396275547428086 12.26987642374983  C 18.396275547428086 11.930167394957984  18.117238871510217 11.654907155255547  17.77286920055507 11.654907155255547  L 14.772788528118163 11.654907155255547  C 14.428418857163017 11.654907155255547  14.149382181245148 11.930167394957984  14.149382181245148 12.26987642374983  C 14.149382181245148 12.609585452541676  14.428418857163017 12.884845692244113  14.772788528118163 12.884845692244113  L 17.77286920055507 12.884845692244113  Z M 17.77286920055507 16.002493875189423  C 18.117238871510224 16.002493875189423  18.39627554742809 15.727233635486986  18.396275547428086 15.38752460669514  C 18.396275547428086 15.047815577903293  18.117238871510217 14.772555338200855  17.77286920055507 14.772555338200855  L 14.772788528118163 14.772555338200855  C 14.428418857163017 14.772555338200855  14.149382181245148 15.047815577903293  14.149382181245148 15.38752460669514  C 14.149382181245148 15.727233635486986  14.428418857163017 16.002493875189423  14.772788528118163 16.002493875189423  L 17.77286920055507 16.002493875189423  Z " fill-rule="nonzero" fill="#000000" stroke="none" transform="matrix(1 0 0 1 1133 322 )" />
  </g>
</svg>