<?xml version="1.0" encoding="utf-8"?>
<svg version="1.1" xmlns:xlink="http://www.w3.org/1999/xlink" width="70px" height="30px" viewBox="889 171  70 30" xmlns="http://www.w3.org/2000/svg">
  <path d="M 890 174  A 2 2 0 0 1 892 172 L 956 172  A 2 2 0 0 1 958 174 L 958 198  A 2 2 0 0 1 956 200 L 892 200  A 2 2 0 0 1 890 198 L 890 174  Z " fill-rule="nonzero" fill="#ffffff" stroke="none" />
  <path d="M 889.5 174  A 2.5 2.5 0 0 1 892 171.5 L 956 171.5  A 2.5 2.5 0 0 1 958.5 174 L 958.5 198  A 2.5 2.5 0 0 1 956 200.5 L 892 200.5  A 2.5 2.5 0 0 1 889.5 198 L 889.5 174  Z " stroke-width="1" stroke="#000000" fill="none" stroke-opacity="0.4196078431372549" />
</svg>