<?xml version="1.0" encoding="utf-8"?>
<svg version="1.1" xmlns:xlink="http://www.w3.org/1999/xlink" width="65px" height="30px" viewBox="728 171  65 30" xmlns="http://www.w3.org/2000/svg">
  <path d="M 729 174  A 2 2 0 0 1 731 172 L 790 172  A 2 2 0 0 1 792 174 L 792 198  A 2 2 0 0 1 790 200 L 731 200  A 2 2 0 0 1 729 198 L 729 174  Z " fill-rule="nonzero" fill="#ffffff" stroke="none" />
  <path d="M 728.5 174  A 2.5 2.5 0 0 1 731 171.5 L 790 171.5  A 2.5 2.5 0 0 1 792.5 174 L 792.5 198  A 2.5 2.5 0 0 1 790 200.5 L 731 200.5  A 2.5 2.5 0 0 1 728.5 198 L 728.5 174  Z " stroke-width="1" stroke="#000000" fill="none" stroke-opacity="0.4196078431372549" />
</svg>