<?xml version="1.0" encoding="utf-8"?>
<svg version="1.1" xmlns:xlink="http://www.w3.org/1999/xlink" width="86px" height="30px" viewBox="631 171  86 30" xmlns="http://www.w3.org/2000/svg">
  <path d="M 632 174  A 2 2 0 0 1 634 172 L 714 172  A 2 2 0 0 1 716 174 L 716 198  A 2 2 0 0 1 714 200 L 634 200  A 2 2 0 0 1 632 198 L 632 174  Z " fill-rule="nonzero" fill="#ffffff" stroke="none" />
  <path d="M 631.5 174  A 2.5 2.5 0 0 1 634 171.5 L 714 171.5  A 2.5 2.5 0 0 1 716.5 174 L 716.5 198  A 2.5 2.5 0 0 1 714 200.5 L 634 200.5  A 2.5 2.5 0 0 1 631.5 198 L 631.5 174  Z " stroke-width="1" stroke="#000000" fill="none" stroke-opacity="0.4196078431372549" />
</svg>