<?xml version="1.0" encoding="utf-8"?>
<svg version="1.1" xmlns:xlink="http://www.w3.org/1999/xlink" width="97px" height="30px" viewBox="430 171  97 30" xmlns="http://www.w3.org/2000/svg">
  <path d="M 431 174  A 2 2 0 0 1 433 172 L 524 172  A 2 2 0 0 1 526 174 L 526 198  A 2 2 0 0 1 524 200 L 433 200  A 2 2 0 0 1 431 198 L 431 174  Z " fill-rule="nonzero" fill="#ffffff" stroke="none" />
  <path d="M 430.5 174  A 2.5 2.5 0 0 1 433 171.5 L 524 171.5  A 2.5 2.5 0 0 1 526.5 174 L 526.5 198  A 2.5 2.5 0 0 1 524 200.5 L 433 200.5  A 2.5 2.5 0 0 1 430.5 198 L 430.5 174  Z " stroke-width="1" stroke="#000000" fill="none" stroke-opacity="0.4196078431372549" />
</svg>