<?xml version="1.0" encoding="utf-8"?>
<svg version="1.1" xmlns:xlink="http://www.w3.org/1999/xlink" width="123px" height="30px" viewBox="294 171  123 30" xmlns="http://www.w3.org/2000/svg">
  <path d="M 295 174  A 2 2 0 0 1 297 172 L 414 172  A 2 2 0 0 1 416 174 L 416 198  A 2 2 0 0 1 414 200 L 297 200  A 2 2 0 0 1 295 198 L 295 174  Z " fill-rule="nonzero" fill="#ffffff" stroke="none" />
  <path d="M 294.5 174  A 2.5 2.5 0 0 1 297 171.5 L 414 171.5  A 2.5 2.5 0 0 1 416.5 174 L 416.5 198  A 2.5 2.5 0 0 1 414 200.5 L 297 200.5  A 2.5 2.5 0 0 1 294.5 198 L 294.5 174  Z " stroke-width="1" stroke="#000000" fill="none" stroke-opacity="0.4196078431372549" />
</svg>