<?xml version="1.0" encoding="utf-8"?>
<svg version="1.1" xmlns:xlink="http://www.w3.org/1999/xlink" width="363px" height="450px" xmlns="http://www.w3.org/2000/svg">
  <g transform="matrix(1 0 0 1 -108 -213 )">
    <path d="M 109 216  A 2 2 0 0 1 111 214 L 468 214  A 2 2 0 0 1 470 216 L 470 660  A 2 2 0 0 1 468 662 L 111 662  A 2 2 0 0 1 109 660 L 109 216  Z " fill-rule="nonzero" fill="#aaaaaa" stroke="none" fill-opacity="0.4666666666666667" />
    <path d="M 108.5 216  A 2.5 2.5 0 0 1 111 213.5 L 468 213.5  A 2.5 2.5 0 0 1 470.5 216 L 470.5 660  A 2.5 2.5 0 0 1 468 662.5 L 111 662.5  A 2.5 2.5 0 0 1 108.5 660 L 108.5 216  Z " stroke-width="1" stroke-dasharray="3,1" stroke="#aaaaaa" fill="none" stroke-dashoffset="0.5" />
  </g>
</svg>