<?xml version="1.0" encoding="utf-8"?>
<svg version="1.1" xmlns:xlink="http://www.w3.org/1999/xlink" width="6px" height="13px" xmlns="http://www.w3.org/2000/svg">
  <g transform="matrix(1 0 0 1 -67 -526 )">
    <path d="M 0.5126953125 4.029296875  C 0.7294921875 1.8232421875  2.0419921875 0.8125  4.447265625 0.9970703124999999  C 4.5322265625 1.181640625  4.734375 1.3427734375  5.0537109375 1.48046875  C 5.267578125 1.5712890625  5.525390625 1.7910156249999998  5.6279296875 1.934570312499986  C 5.80078125 2.174804687500014  5.806640625 2.4970703125  5.6396484375 2.740234374999986  C 4.9921875 3.7041015625  4.3681640625 4.703125  3.7734375 5.7373046875  C 3.3955078125 6.390625  2.8798828125 7.4453125  2.2265625 8.9072265625  C 1.6552734375 10.181640625  1.03125 11.4091796875  0.3486328125 12.58984375  C 0.169921875 9.7861328125  0.2255859375 6.9326171875  0.5126953125 4.029296875  Z " fill-rule="nonzero" fill="#582d8a" stroke="none" transform="matrix(1 0 0 1 67 526 )" />
  </g>
</svg>