<?xml version="1.0" encoding="utf-8"?>
<svg version="1.1" xmlns:xlink="http://www.w3.org/1999/xlink" width="20px" height="20px" xmlns="http://www.w3.org/2000/svg">
  <g transform="matrix(1 0 0 1 -407 -141 )">
    <path d="M 417 142  C 422.04 142  426 145.96  426 151  C 426 156.04  422.04 160  417 160  C 411.96 160  408 156.04  408 151  C 408 145.96  411.96 142  417 142  Z " fill-rule="nonzero" fill="#ffffff" stroke="none" />
    <path d="M 417 142  C 422.04 142  426 145.96  426 151  C 426 156.04  422.04 160  417 160  C 411.96 160  408 156.04  408 151  C 408 145.96  411.96 142  417 142  Z " stroke-width="2" stroke="#797979" fill="none" />
  </g>
</svg>