<?xml version="1.0" encoding="utf-8"?>
<svg version="1.1" xmlns:xlink="http://www.w3.org/1999/xlink" width="4px" height="5px" xmlns="http://www.w3.org/2000/svg">
  <g transform="matrix(1 0 0 1 -214 -307 )">
    <path d="M 0.25634765625 0.34830729166666663  L 0.7880859375 0.36946614583333337  C 1.86767578125 0.5126953125  2.9326171875 0.8479817708333333  3.9814453125 1.3736979166666745  L 3.97265625 2.7360026041666585  L 3.92578125 3.103841145833333  C 3.814453125 3.131510416666667  3.76318359375 3.019205729166667  3.77197265625 2.7685546875  C 3.7734375 2.71484375  3.76171875 2.6643880208333255  3.7353515625 2.618815104166667  C 3.421875 2.0784505208333335  2.89599609375 1.5934244791666665  2.302734374999986 1.6227213541666665  C 1.359375 1.6682942708333413  1.3271484375 2.737630208333333  1.35791015625 3.639322916666667  C 1.37255859375 4.052734375  1.201171875 4.318033854166667  0.84521484375 4.436848958333333  C 0.791015625 4.454752604166659  0.74267578125 4.471028645833333  0.69873046875 4.485677083333325  C 0.3544921875 4.599609375  0.18603515625 4.4580078125  0.193359375 4.060872395833333  L 0.25634765625 0.34830729166666663  Z " fill-rule="nonzero" fill="#3e132b" stroke="none" transform="matrix(1 0 0 1 214 307 )" />
  </g>
</svg>