<?xml version="1.0" encoding="utf-8"?>
<svg version="1.1" xmlns:xlink="http://www.w3.org/1999/xlink" width="12px" height="18px" xmlns="http://www.w3.org/2000/svg">
  <g transform="matrix(1 0 0 1 -207 -307 )">
    <path d="M 5.941964285714286 0.5784801136363559  L 7.721540178571429 0.34197443181818177  L 7.649553571428572 3.987038352272727  C 7.641183035714286 4.376953125  7.833705357142858 4.515980113636364  8.227120535714285 4.40411931818181  C 8.27734375 4.389737215909091  8.332589285714285 4.3737571022727195  8.39453125 4.3561789772727275  C 8.801339285714285 4.2395241477272725  8.997209821428573 3.979048295454546  8.98046875 3.573153409090909  C 8.9453125 2.6878551136363638  8.982142857142858 1.6379616477272805  10.060267857142842 1.5932173295454546  C 10.73828125 1.564453125  11.339285714285714 2.0406605113636362  11.697544642857142 2.571200284090909  C 11.727678571428573 2.6159446022727195  11.741071428571429 2.665482954545454  11.739397321428573 2.718217329545454  C 11.729352678571429 2.964311079545454  11.787946428571429 3.0745738636363638  11.915178571428573 3.047407670454546  C 11.841517857142858 4.041370738636363  11.525111607142842 4.904296875000008  10.55078125 5.3821022727272725  C 10.393415178571429 5.233487215909098  10.231026785714285 5.2063210227272725  10.065290178571429 5.302201704545454  C 10.016741071428573 5.330965909090908  9.989955357142858 5.372514204545446  9.98828125 5.426846590909092  C 9.976562499999982 5.658558238636364  9.949776785714285 5.9270241477272725  10.065290178571429 6.144353693181818  C 10.154017857142858 6.308948863636364  10.229352678571445 6.476740056818182  10.29129464285716 6.6477272727272725  C 10.306361607142858 6.690873579545446  10.338169642857142 6.706853693181818  10.385044642857142 6.695667613636364  C 10.413504464285714 6.689275568181818  10.440290178571429 6.657315340909092  10.465401785714285 6.60138494318181  C 10.458705357142874 8.012428977272727  10.922433035714285 9.311612215909092  11.48828125 10.650745738636363  C 11.225446428571429 10.786576704545462  11.017857142857142 10.946377840909099  10.863839285714285 11.128551136363637  C 9.971540178571429 12.194424715909083  9.248325892857142 13.418501420454545  8.697544642857142 14.799183238636363  C 8.16015625 15.746803977272728  7.7064732142857135 16.742365056818183  7.338169642857142 17.787464488636356  C 7.314732142857142 17.852982954545453  7.2845982142857135 17.904119318181817  7.2494419642857135 17.940873579545453  C 7.2377232142857135 17.95205965909091  7.219308035714286 17.95685369318181  7.2025669642857135 17.95205965909091  C 7.185825892857142 17.947265624999993  7.17410714285716 17.93448153409091  7.169084821428572 17.918501420454547  L 6.157924107142858 13.594282670454545  C 6.340401785714286 13.667791193181817  6.427455357142858 13.833984375  6.415736607142858 14.094460227272728  C 6.415736607142858 14.107244318181817  6.420758928571445 14.118430397727272  6.4291294642857135 14.126420454545455  C 6.4408482142857295 14.136008522727272  6.450892857142858 14.145596590909092  6.460937499999983 14.155184659090908  C 6.467633928571429 14.163174715909092  6.470982142857142 14.161576704545446  6.47265625 14.15198863636363  C 6.477678571428572 13.877130681818183  6.491071428571429 13.603870738636363  6.5111607142857135 13.332208806818183  C 6.514508928571429 13.292258522727272  6.527901785714286 13.252308238636363  6.551339285714286 13.213955965909099  C 6.606584821428555 13.114879261363637  6.619977678571429 13.026988636363637  6.696986607142858 12.935901988636363  C 6.989955357142858 12.592329545454545  7.259486607142858 12.200816761363637  7.505580357142858 11.758167613636363  C 7.599330357142858 11.588778409090908  7.751674107142858 11.441761363636363  7.810267857142858 11.256392045454554  C 7.853794642857142 11.118963068181817  8.016183035714285 11.037464488636363  8.096540178571429 10.901633522727272  C 8.200334821428573 10.725852272727266  8.320870535714285 10.545276988636363  8.456473214285714 10.359907670454545  C 8.478236607142858 10.329545454545455  8.486607142857142 10.295987215909092  8.481584821428573 10.259232954545455  C 8.478236607142858 10.241654829545455  8.478236607142858 10.222478693181817  8.481584821428573 10.204900568181817  C 8.486607142857142 10.174538352272728  8.498325892857142 10.147372159090917  8.516741071428573 10.121803977272728  C 8.726004464285714 9.827769886363646  8.895089285714285 9.473011363636363  9.020647321428573 9.057528409090908  C 9.266741071428587 8.253728693181818  9.419084821428573 7.547407670454546  9.481026785714285 6.935369318181818  C 9.504464285714285 6.6940696022727275  9.655133928571429 6.537464488636364  9.608258928571429 6.2785866477272725  C 9.579799107142874 6.128373579545454  9.547991071428573 6.126775568181818  9.512834821428573 6.275390625  C 9.417410714285714 6.670099431818182  9.306919642857126 7.048828125  9.178013392857142 7.413174715909092  C 9.109375 7.609730113636356  9.008928571428573 7.822265625  8.876674107142858 8.047585227272727  C 8.766183035714285 8.234552556818182  8.65234375 8.434303977272727  8.536830357142858 8.643643465909092  C 8.454799107142858 8.795454545454545  8.354352678571429 8.926491477272727  8.237165178571429 9.039950284090908  C 8.104910714285714 9.166193181818183  7.977678571428572 9.302024147727272  7.85546875 9.445845170454545  C 7.696428571428588 9.631214488636363  7.512276785714286 9.811789772727272  7.301339285714286 9.989169034090908  C 7.133928571428572 10.128196022727272  6.969866071428572 10.272017045454545  6.810825892857142 10.417436079545462  C 6.603236607142858 10.606001420454538  6.434151785714286 10.740234375  6.303571428571429 10.818536931818183  C 5.672433035714286 11.200461647727272  4.97265625 11.334694602272728  4.207589285714286 11.218039772727272  C 3.981584821428571 11.184481534090908  3.790736607142857 11.082208806818183  3.6350446428571264 10.911221590909092  C 3.467633928571412 10.729048295454545  3.345424107142857 10.548473011363637  3.268415178571429 10.369495738636363  C 3.089285714285714 9.958806818181817  2.8733258928571432 9.600852272727272  2.6205357142857144 9.294034090909092  C 2.4497767857142856 9.086292613636363  2.446428571428571 8.859375000000007  2.610491071428555 8.611683238636363  C 3.2600446428571592 8.755504261363637  3.854352678571429 8.689985795454545  4.393415178571429 8.413529829545455  C 4.75 8.231356534090908  5.0111607142857135 7.918146306818182  5.118303571428571 7.545809659090908  C 5.170200892857143 7.363636363636364  5.2220982142857135 7.1814630681818254  5.273995535714286 6.9992897727272725  C 5.384486607142858 6.610973011363629  5.258928571428571 6.519886363636364  4.897321428571429 6.7292258522727275  C 3.889508928571429 7.3093039772727275  3.1796875 7.662464488636364  2.7661830357142856 7.787109375  C 2.3376116071428408 7.916548295454546  2.066406249999984 8.023615056818182  1.9525669642857144 8.106711647727273  C 1.8922991071428572 8.146661931818182  1.7566964285714284 8.15625  1.5474330357142856 8.137073863636363  C 1.4536830357142858 7.9453125  1.3984375000000162 7.747159090909092  1.3816964285714284 7.542613636363636  L 1.5892857142857144 7.120738636363629  C 1.6110491071428572 7.074396306818182  1.6495535714285876 7.042436079545454  1.701450892857143 7.026455965909092  C 1.9676339285714284 6.9465553977272725  2.223772321428571 6.863458806818182  2.4715401785714284 6.777166193181818  C 2.6205357142857144 6.726029829545454  2.7092633928571432 6.6716974431818254  2.734375 6.615767045454546  C 2.900111607142857 6.265802556818182  2.7896205357142856 6.168323863636364  2.402901785714302 6.3249289772727275  C 1.888950892857143 6.534268465909092  1.2712053571428408 6.674893465909092  0.5496651785714286 6.75  C 0.2181919642857143 6.634943181818182  0.0625 6.416015625  0.08426339285714286 6.093217329545454  C 0.12779017857142858 5.4524147727272645  0.9263392857142858 5.4923650568181746  1.0334821428571428 5.033735795454554  C 1.0535714285714284 5.060901988636364  1.0837053571428734 5.073686079545462  1.125558035714302 5.075284090909092  C 1.1808035714285714 5.0768821022727275  1.2243303571428572 5.056107954545454  1.2578125 5.016157670454546  C 1.5876116071428572 4.6134588068181746  1.6595982142857144 4.1628196022727275  1.4737723214285714 3.662642045454546  C 1.3699776785714284 3.384588068181818  1.0435267857142858 3.205610795454538  0.8058035714285714 3.012251420454546  C 0.7790178571428572 2.967507102272727  0.7522321428571428 2.922762784090909  0.7254464285714286 2.878018465909091  C 1.3297991071428572 2.628728693181818  1.9977678571428572 2.524857954545454  2.7260044642857144 2.5680042613636362  C 2.7762276785714284 2.571200284090909  2.876674107142857 2.539240056818182  3.029017857142841 2.473721590909091  C 3.333705357142857 2.400213068181818  3.6099330357142856 2.297940340909091  3.8560267857142856 2.165305397727273  C 4.375 1.885653409090909  4.724888392857159 2.1557173295454546  5.161830357142858 2.331498579545454  C 5.21875 2.3538707386363638  5.284040178571429 2.331498579545454  5.3125 2.278764204545454  C 5.3275669642857135 2.2515980113636362  5.32421875 2.21484375  5.305803571428571 2.1716974431818183  C 5.125 1.7482244318181897  4.821986607142858 1.40625  4.396763392857143 1.142578125  C 4.393415178571429 1.0626775568181819  4.4252232142857135 0.9891690340909168  4.490513392857143 0.9236505681818182  L 5.941964285714286 0.5784801136363559  Z M 4.031808035714286 4.220348011363637  C 4.1205357142857135 4.300248579545454  4.1875 4.295454545454546  4.232700892857143 4.205965909090909  C 4.3549107142857135 4.217151988636363  4.450334821428571 4.2043678977272645  4.522321428571429 4.166015625  C 4.57421875 4.138849431818182  4.602678571428571 4.097301136363637  4.606026785714286 4.041370738636363  L 4.626116071428571 3.790482954545454  C 4.7265625 3.740944602272727  4.744977678571412 3.5699573863636362  4.681361607142842 3.277521306818182  C 4.622767857142858 3.001065340909091  4.443638392857143 2.862038352272727  4.147321428571429 2.862038352272727  L 4.077008928571445 2.862038352272727  C 3.75390625 2.862038352272727  3.641741071428571 3.009055397727273  3.737165178571429 3.301491477272727  C 3.825892857142873 3.5667613636363638  3.901227678571429 3.836825284090909  3.966517857142857 4.1100852272727275  C 3.9765625 4.153231534090909  3.9983258928571432 4.189985795454546  4.031808035714286 4.220348011363637  Z " fill-rule="nonzero" fill="#ad3935" stroke="none" transform="matrix(1 0 0 1 207 307 )" />
  </g>
</svg>