<?xml version="1.0" encoding="utf-8"?>
<svg version="1.1" xmlns:xlink="http://www.w3.org/1999/xlink" width="9px" height="5px" xmlns="http://www.w3.org/2000/svg">
  <g transform="matrix(1 0 0 1 -198 -303 )">
    <path d="M 8.492431640625 2.516276041666667  C 8.60284423828125 2.547200520833333  8.6671142578125 2.667643229166667  8.68524169921875 2.880859375  C 7.525085449218734 3.139648437499992  6.416015625 3.528645833333333  5.35638427734375 4.051106770833333  C 4.99053955078125 4.195963541666667  4.708740234375 4.4287109375  4.50933837890625 4.7509765625  L 1.63861083984375 4.2431640625  C 1.36175537109375 4.1357421875  1.06182861328125 4.085286458333325  0.740478515625 4.091796875  C 0.635009765625 4.093424479166667  0.509765625 4.013671875  0.36309814453125 3.852539062500008  C 0.318603515625 3.805338541666667  0.3284912109375 3.76953125  0.39111328125 3.748372395833333  C 0.42901611328125 3.7353515625  0.46856689453125 3.727213541666667  0.50811767578125 3.7255859375  C 0.5723876953125 3.720703125  0.5723876953125 3.717447916666667  0.50811767578125 3.714192708333333  C 0.503173828125016 3.714192708333333  0.4998779296875 3.712565104166667  0.49658203125 3.7093098958333255  C 0.48504638671875 3.697916666666667  0.4866943359375 3.6865234375  0.49822998046875 3.6767578125  C 0.5460205078125 3.636067708333333  0.605346679687516 3.627929687499992  0.67620849609375 3.650716145833333  C 0.6910400390625 3.655598958333333  0.6976318359375 3.650716145833333  0.69927978515625 3.636067708333333  C 0.714111328125 3.513997395833333  0.78167724609375 3.4749348958333255  0.9052734375 3.517252604166667  C 0.9613037109375 3.5367838541666745  1.00579833984375 3.522135416666667  1.038757324218766 3.4716796875  L 1.07501220703125 3.416341145833333  C 1.096435546875 3.385416666666667  1.09149169921875 3.357747395833333  1.06182861328125 3.3349609375  C 0.9085693359375 3.2210286458333255  0.73553466796875 3.22265625  0.54107666015625 3.341471354166667  C 0.52789306640625 3.349609375  0.509765625 3.349609375  0.49658203125 3.33984375  C 0.4833984375 3.331705729166667  0.47515869140625 3.317057291666667  0.476806640625 3.30078125  C 0.4932861328125 3.126627604166667  0.555908203125 2.960611979166667  0.66302490234375 2.802734375  C 0.6943359375 2.755533854166667  0.6844482421875 2.721354166666667  0.63006591796875 2.7001953125  C 0.608642578125 2.6920572916666585  0.582275390625 2.6904296875  0.55096435546875 2.698567708333333  C 0.4866943359375 2.71484375  0.4735107421875 2.696940104166667  0.51141357421875 2.643229166666667  C 0.521301269531234 2.628580729166667  0.53448486328125 2.618815104166667  0.55096435546875 2.613932291666667  C 0.5723876953125 2.607421875  0.585571289062516 2.5927734375  0.59051513671875 2.571614583333333  C 0.6119384765625 2.4527994791666665  0.57073974609375 2.3763020833333255  0.463623046875 2.3421223958333335  C 0.4273681640625 2.3307291666666665  0.420776367187516 2.3111979166666665  0.44549560546875 2.2835286458333335  C 0.45538330078125 2.2721354166666665  0.47021484375 2.2705078125  0.489990234375 2.2802734375  C 0.49493408203125 2.2819010416666665  0.4998779296875 2.2819010416666665  0.503173828125016 2.2786458333333335  C 0.50811767578125 2.275390625000008  0.509765625 2.2705078125  0.50811767578125 2.265625000000008  C 0.47515869140625 2.0963541666666665  0.52789306640625 1.9645182291666665  0.667968750000016 1.8684895833333413  C 0.7042236328125 1.8440755208333335  0.71246337890625 1.8115234375  0.69268798828125 1.7724609375  C 0.6844482421875 1.7561848958333255  0.67291259765625 1.7415364583333335  0.65643310546875 1.7301432291666665  C 0.5789794921875 1.6764322916666665  0.58721923828125 1.650390625  0.68115234375 1.6520182291666665  C 0.71246337890625 1.6536458333333335  0.740478515625 1.6471354166666665  0.768493652343734 1.6324869791666665  C 0.793212890625 1.6194661458333335  0.7965087890625 1.6031901041666587  0.77508544921875 1.5836588541666745  L 0.7371826171875 1.5462239583333335  C 0.73553466796875 1.5429687500000078  0.73553466796875 1.5397135416666665  0.7371826171875 1.5380859375  C 0.81298828125 1.4192708333333335  0.79815673828125 1.3134765625  0.6910400390625 1.2223307291666667  C 0.661376953125 1.196289062499992  0.6416015625 1.1604817708333333  0.6317138671875 1.123046875  C 0.603698730468734 1.005859375  0.62841796875 0.9163411458333333  0.70587158203125 0.8561197916666667  C 0.740478515625 0.8284505208333333  0.74212646484375 0.8007812500000079  0.707519531249984 0.7698567708333413  C 0.686096191406234 0.7486979166666587  0.6712646484375 0.751953125  0.6646728515625 0.7779947916666667  C 0.661376953125 0.7893880208333254  0.6514892578125 0.7958984375  0.6416015625 0.7958984375  C 0.63006591796875 0.7975260416666667  0.6185302734375 0.7893880208333254  0.61358642578125 0.7796223958333254  L 0.44384765625 0.34342447916666663  C 0.420776367187516 0.2864583333333333  0.440551757812516 0.2587890625  0.503173828125016 0.2587890625  C 0.70257568359375 0.26041666666665875  0.87725830078125 0.2848307291666667  1.030517578125 0.3320312499999921  C 3.50738525390625 1.0921223958333333  5.99578857421875 1.8196614583333335  8.492431640625 2.516276041666667  Z " fill-rule="nonzero" fill="#ffffff" stroke="none" transform="matrix(1 0 0 1 198 303 )" />
  </g>
</svg>