<?xml version="1.0" encoding="utf-8"?>
<svg version="1.1" xmlns:xlink="http://www.w3.org/1999/xlink" width="9px" height="2px" xmlns="http://www.w3.org/2000/svg">
  <g transform="matrix(1 0 0 1 -203 -306 )">
    <path d="M 8.92584228515625 0.9635416666666666  L 7.45751953125 1.4635416666666667  C 6.811523437500016 1.5416666666666667  6.1259765625 1.6217447916666667  5.40087890625 1.7037760416666572  C 5.36627197265625 1.7057291666666667  5.3349609375 1.7174479166666667  5.306945800781266 1.7350260416666667  C 5.26080322265625 1.7623697916666667  5.21136474609375 1.777994791666676  5.1602783203125 1.7819010416666667  C 4.8175048828125 1.8033854166666667  4.46978759765625 1.8326822916666667  4.1187744140625 1.8697916666666667  C 3.81390380859375 1.9010416666666667  3.46124267578125 1.8912760416666667  3.060791015624984 1.8404947916666667  C 2.30108642578125 1.7467447916666667  1.55950927734375 1.7858072916666667  0.65478515625 1.6901041666666667  C 0.648193359375 1.6569010416666667  0.62347412109375 1.6256510416666667  0.58062744140625 1.594401041666676  C 0.5361328125 1.5611979166666667  0.5361328125 1.5319010416666667  0.58392333984375 1.5026041666666667  C 0.65478515625 1.4615885416666667  0.72894287109375 1.4264322916666667  0.8031005859375 1.3971354166666667  C 0.8756103515625 1.3678385416666667  0.94976806640625 1.3463541666666667  1.02557373046875 1.3326822916666667  C 1.267822265624984 1.2838541666666667  1.51995849609375 1.1822916666666667  1.781982421875 1.0240885416666667  C 2.032470703125016 0.8736979166666572  2.28460693359375 0.7721354166666666  2.5400390625 0.7233072916666666  C 2.86798095703125 0.6608072916666666  3.205810546875016 0.5709635416666666  3.55023193359375 0.4518229166666667  C 3.60955810546875 0.4322916666666667  3.657348632812484 0.3932291666666667  3.69195556640625 0.3326822916666667  C 3.71832275390625 0.2877604166666572  3.75128173828125 0.2506510416666572  3.7891845703125 0.22135416666666666  C 3.87322998046875 0.15690104166666666  3.9111328125 0.18424479166666666  3.89959716796875 0.3033854166666667  L 3.884765624999984 0.4537760416666667  C 3.87982177734375 0.5143229166666666  3.9012451171875 0.5494791666666666  3.95068359375 0.5592447916666666  C 4.04461669921875 0.5787760416666666  4.131958007812484 0.5768229166666666  4.20941162109375 0.5533854166666666  C 4.29345703125 0.5299479166666666  4.379150390624984 0.5182291666666666  4.46978759765625 0.5162760416666666  C 5.69586181640625 0.4928385416666667  6.50665283203125 0.5104166666666666  6.90380859375 0.5690104166666762  C 7.30755615234375 0.6295572916666572  7.7442626953125 0.6686197916666666  8.210632324218734 0.6861979166666666  C 8.39849853515625 0.6920572916666666  8.57977294921875 0.7350260416666666  8.767639160156266 0.7584635416666666  C 8.82037353515625 0.7643229166666762  8.86322021484375 0.7936197916666666  8.89453125 0.8463541666666666  L 8.93902587890625 0.9166666666666666  C 8.953857421875016 0.9401041666666666  8.94891357421875 0.9557291666666666  8.92584228515625 0.9635416666666666  Z " fill-rule="nonzero" fill="#582d8a" stroke="none" transform="matrix(1 0 0 1 203 306 )" />
  </g>
</svg>