<?xml version="1.0" encoding="utf-8"?>
<svg version="1.1" xmlns:xlink="http://www.w3.org/1999/xlink" width="2px" height="3px" xmlns="http://www.w3.org/2000/svg">
  <g transform="matrix(1 0 0 1 -208 -302 )">
    <path d="M 1.333984375 2.9173828124999996  C 1.23583984375 2.919140625  1.1787109375 2.841796875  1.15966796875 2.6888671874999996  C 1.1875 2.6203125  1.19921875 2.5587890625000087  1.19482421875 2.5042968750000085  C 1.1918945312499858 2.4462890625  1.1669921875 2.4181640625  1.1186523437499858 2.419921875  C 1.07763671875 2.4216796875  1.0439453125 2.4058593750000004  1.017578125 2.3724609375000085  C 0.98388671875 2.33203125  0.9677734375 2.2810546875  0.970703125 2.2230468749999996  C 0.97802734375 2.0666015625  0.9677734375 1.9119140625000002  0.9384765625 1.7625000000000002  C 0.9326171875 1.7361328125000002  0.9179687499999858 1.7132812500000085  0.89599609375 1.7044921874999999  C 0.87548828125 1.6939453125000001  0.8505859375 1.6957031249999999  0.83154296875 1.7115234375000001  L 0.77734375 1.751953125  C 0.7363281250000142 1.7853515624999998  0.724609375 1.8292968749999998  0.74072265625 1.8855468750000002  C 0.8154296875 2.131640625  0.8359375 2.391796875  0.80224609375 2.6677734374999913  C 0.8037109375 2.7503906249999996  0.759765625 2.8277343750000004  0.67041015625 2.8980468750000004  C 0.6455078125 2.9173828124999996  0.61328125 2.919140625  0.5869140625 2.9033203125  C 0.560546875 2.8874999999999913  0.54296875 2.8541015625000004  0.54150390625 2.8189453125000004  L 0.51220703125 2.041992187499991  C 0.50927734375 1.9664062500000001  0.47705078125 1.9207031249999913  0.41552734375 1.9048828125000001  C 0.3583984375 1.8890625000000085  0.30419921875 1.8644531249999998  0.25 1.8345703125000001  C 0.11376953125001421 1.7589843749999998  0.07861328125 1.6429687499999999  0.1416015625 1.48828125  C 0.16357421875 1.43203125  0.2001953125 1.3986328124999998  0.25146484375 1.386328125  L 0.583984375 1.3142578125000002  C 0.64111328125 1.3019531249999998  0.6748046875 1.2615234374999913  0.68505859375 1.19296875  L 0.76416015625 0.6375  C 0.7978515625 0.39316406249999997  0.86669921875 0.37910156250000004  0.970703125 0.5917968749999916  C 1.03955078125 0.7341796874999915  1.09375 0.8958984375000001  1.13623046875 1.0734374999999998  C 1.15380859375 1.1490234375  1.2138671875 1.2000000000000002  1.27978515625 1.19296875  L 1.609375 1.1630859374999916  C 1.837890625 1.1437499999999998  1.8671875 1.2263671875000002  1.69873046875 1.4109375000000002  C 1.5786132812500142 1.5427734375000002  1.48193359375 1.6886718749999998  1.4072265625 1.8503906250000002  C 1.38525390625 1.8978515624999999  1.380859375 1.9453125  1.39697265625 1.9962890624999998  C 1.47900390625 2.2599609375  1.49072265625 2.5359374999999913  1.4306640624999858 2.82421875  C 1.41748046875 2.8857421875  1.38525390625 2.9156250000000004  1.333984375 2.9173828124999996  Z " fill-rule="nonzero" fill="#ffcafb" stroke="none" transform="matrix(1 0 0 1 208 302 )" />
  </g>
</svg>