<?xml version="1.0" encoding="utf-8"?>
<svg version="1.1" xmlns:xlink="http://www.w3.org/1999/xlink" width="12px" height="7px" xmlns="http://www.w3.org/2000/svg">
  <g transform="matrix(1 0 0 1 -203 -301 )">
    <path d="M 4.758370535714286 1.2771809895833335  C 5.3359375 0.21761067708333331  7.344866071428572 0.07747395833333334  8.387834821428573 0.23470052083333334  C 7.950892857142858 0.38509114583333337  7.724888392857142 0.5679524739583333  7.713169642857126 0.7815755208333417  C 7.711495535714286 0.8277180989583333  7.701450892857142 0.8704427083333333  7.684709821428572 0.9114583333333334  C 7.559151785714286 1.2310384114583335  7.517299107142858 1.5625813802083335  7.559151785714286 1.9095052083333333  C 7.5658482142856975 1.965901692708325  7.557477678571429 2.018880208333333  7.534040178571429 2.070149739583333  C 7.4453125 2.266682942708333  7.395089285714286 2.454671223958333  7.385044642857142 2.634114583333333  C 7.3666294642857135 3.004964192708333  7.306361607142858 3.326253255208333  7.3197544642857135 3.6800130208333335  C 7.33649553571427 4.144856770833325  7.333147321428572 4.590901692708334  7.3080357142857135 5.018147786458334  C 7.297991071428572 5.219807942708334  7.4252232142857135 5.402669270833334  7.616071428571429 5.459065755208325  C 8.478236607142858 5.706868489583334  9.365513392857126 5.805989583333334  10.277901785714285 5.756429036458334  C 10.383370535714285 5.751302083333334  10.4453125 5.694905598958341  10.465401785714285 5.588948567708334  C 10.671316964285714 4.500325520833334  10.937500000000016 3.421956380208333  11.260602678571429 2.353841145833333  C 11.325892857142858 2.136800130208325  11.411272321428573 1.9436848958333333  11.515066964285714 1.7762044270833333  C 11.553571428571429 1.7129720052083335  11.607142857142874 1.6617024739583335  11.674107142857142 1.624104817708325  C 11.739397321428573 1.5882161458333335  11.7578125 1.6053059895833335  11.73270089285716 1.6753743489583335  C 11.563616071428555 2.143636067708333  11.399553571428573 2.617024739583333  11.240513392857142 3.093831380208333  C 11.079799107142858 3.579182942708325  10.9609375 4.025227864583334  10.883928571428573 4.430257161458334  C 10.798549107142858 4.883138020833341  10.713169642857142 5.341145833333325  10.627790178571429 5.800862630208325  C 10.617745535714285 5.858968098958334  10.641183035714285 5.896565755208325  10.696428571428573 5.911946614583334  L 11.7578125 6.221272786458334  L 11.150111607142858 6.199055989583334  L 9.370535714285714 6.451985677083325  L 7.575892857142858 6.530598958333334  L 9.067522321428573 6.093098958333334  C 9.090959821428573 6.086263020833334  9.09598214285716 6.072591145833334  9.080915178571429 6.052083333333334  L 9.035714285714285 5.990559895833334  C 9.00390625 5.944417317708334  8.960379464285714 5.918782552083341  8.906808035714302 5.913655598958334  C 8.715959821428573 5.893147786458334  8.531808035714285 5.855550130208334  8.340959821428555 5.850423177083334  C 7.8671875 5.835042317708334  7.423549107142858 5.800862630208325  7.013392857142858 5.747884114583341  C 6.609933035714286 5.696614583333334  5.786272321428571 5.681233723958334  4.540736607142858 5.701741536458334  C 4.4486607142856975 5.703450520833334  4.361607142857143 5.713704427083334  4.276227678571429 5.734212239583334  C 4.197544642857126 5.754720052083334  4.1088169642857135 5.756429036458334  4.013392857142858 5.739339192708334  C 3.9631696428571432 5.730794270833334  3.94140625 5.700032552083334  3.946428571428555 5.647054036458334  L 3.9614955357142856 5.515462239583334  C 3.9732142857142856 5.411214192708334  3.934709821428571 5.387288411458334  3.849330357142857 5.443684895833334  C 3.8108258928571432 5.469319661458325  3.77734375 5.501790364583325  3.7505580357142856 5.541097005208334  C 3.7154017857142696 5.594075520833334  3.666852678571429 5.628255208333334  3.606584821428571 5.645345052083334  C 3.256696428571445 5.749593098958334  2.9135044642857144 5.828206380208334  2.5803571428571432 5.882893880208334  C 2.3208705357142856 5.925618489583334  2.0647321428571592 6.014485677083325  1.8102678571428572 6.146077473958334  C 1.5440848214285714 6.284505208333334  1.2879464285714124 6.373372395833334  1.0418526785714284 6.416097005208334  C 0.96484375 6.428059895833334  0.8895089285714285 6.446858723958334  0.8158482142857143 6.472493489583334  C 0.7405133928571428 6.498128255208334  0.6651785714285714 6.528889973958334  0.5931919642857143 6.564778645833334  C 0.5446428571428571 6.590413411458334  0.5446428571428571 6.616048177083334  0.58984375 6.645100911458341  C 0.6333705357142858 6.672444661458334  0.6584821428571428 6.699788411458334  0.6651785714285714 6.728841145833334  C 0.5228794642857143 6.798909505208334  0.40066964285714285 6.751057942708325  0.2985491071428571 6.586995442708334  C 1.375 6.038411458333334  2.5016741071428408 5.629964192708325  3.6802455357142856 5.358235677083334  C 3.82421875 5.373616536458325  3.9029017857142856 5.334309895833334  3.9146205357142856 5.242024739583334  C 4.046875 4.295247395833341  4.199218750000016 3.355305989583342  4.369977678571429 2.423909505208333  C 4.4486607142856975 1.9932454427083333  4.5775669642857135 1.6104329427083335  4.758370535714286 1.2771809895833335  Z M 5.337611607142858 3.9842122395833335  C 5.439732142857143 3.9158528645833335  5.489955357142858 3.8406575520833335  5.48828125 3.760335286458325  C 5.677455357142858 3.5979817708333335  5.814732142857143 3.6048177083333335  5.896763392857143 3.7808430989583335  C 5.918526785714286 3.9295247395833335  5.9838169642857135 4.004720052083334  6.095982142857142 4.003011067708334  C 6.154575892857142 4.001302083333334  6.19140625 3.9722493489583335  6.2064732142856975 3.9124348958333335  C 6.275111607142858 3.632161458333325  6.26171875 3.363850911458333  6.16796875 3.107503255208333  C 6.149553571428572 3.057942708333333  6.154575892857142 3.011800130208333  6.1796875 2.965657552083333  C 6.2650669642857135 2.808430989583333  6.375558035714302 2.666585286458333  6.512834821428572 2.538411458333333  C 6.705357142857142 2.358968098958333  6.671875 2.278645833333333  6.410714285714286 2.297444661458325  L 6.034040178571429 2.326497395833333  C 5.958705357142858 2.333333333333333  5.8900669642857135 2.283772786458333  5.869977678571429 2.210286458333333  C 5.821428571428571 2.037679036458333  5.759486607142858 1.880452473958325  5.680803571428571 1.742024739583325  C 5.5619419642857135 1.5352376302083335  5.483258928571429 1.5489095052083335  5.4447544642857135 1.7864583333333333  L 5.354352678571429 2.326497395833333  C 5.342633928571429 2.393147786458325  5.3041294642857135 2.432454427083333  5.238839285714286 2.444417317708333  L 4.8588169642857135 2.514485677083333  C 4.8002232142857135 2.526448567708333  4.758370535714286 2.558919270833333  4.733258928571429 2.613606770833333  C 4.661272321428571 2.763997395833333  4.701450892857159 2.876790364583333  4.857142857142858 2.950276692708333  C 4.919084821428571 2.979329427083333  4.981026785714286 3.003255208333342  5.0463169642857135 3.018636067708333  C 5.1166294642857135 3.034016927083325  5.153459821428571 3.078450520833333  5.156808035714286 3.151936848958325  L 5.190290178571429 3.9073079427083335  C 5.191964285714286 3.9414876302083335  5.212053571428571 3.973958333333325  5.2421875 3.9893391927083335  C 5.272321428571429 4.004720052083334  5.309151785714286 4.003011067708334  5.337611607142858 3.9842122395833335  Z " fill-rule="nonzero" fill="#452477" stroke="none" transform="matrix(1 0 0 1 203 301 )" />
  </g>
</svg>