<?xml version="1.0" encoding="utf-8"?>
<svg version="1.1" xmlns:xlink="http://www.w3.org/1999/xlink" width="8px" height="7px" xmlns="http://www.w3.org/2000/svg">
  <g transform="matrix(1 0 0 1 -210 -301 )">
    <path d="M 0.7989583333333182 0.7214543269230845  C 0.8098958333333334 0.5242638221153846  1.0208333333333333 0.35546875  1.4286458333333334 0.21664663461538464  C 2.7864583333333335 0.4390775240384615  4.167708333333334 0.8981370192307616  5.570833333333334 1.5938251201923077  C 6.113020833333349 1.8635817307692308  6.572395833333333 2.1475360576923075  6.950520833333318 2.4456881009615308  C 8.000520833333333 3.2754657451923075  8.038020833333333 5.431941105769231  7.980208333333334 6.7160456730769305  C 6.861458333333333 6.206505408653846  5.725520833333333 5.881535456730769  4.573958333333334 5.742713341346154  L 3.5833333333333335 5.457181490384615  C 3.5317708333333333 5.442983774038455  3.509895833333333 5.408278245192308  3.519270833333333 5.354642427884608  C 3.5989583333333335 4.930288461538455  3.6786458333333334 4.507512019230777  3.7583333333333333 4.089468149038462  C 3.830208333333333 3.715594951923077  3.941145833333333 3.303861177884608  4.091145833333333 2.8558443509615383  C 4.239583333333333 2.415715144230769  4.392708333333318 1.978740985576923  4.550520833333349 1.5464993990384615  C 4.573958333333334 1.4818209134615385  4.556770833333333 1.466045673076923  4.495833333333334 1.4991736778846076  C 4.433333333333349 1.5338792067307692  4.383333333333334 1.5812049278846154  4.347395833333334 1.6395733173076923  C 4.250520833333334 1.794170673076923  4.170833333333333 1.972430889423069  4.109895833333334 2.1727764423076925  C 3.8083333333333487 3.158728966346154  3.5598958333333335 4.154146634615385  3.3677083333333333 5.159029447115385  C 3.3489583333333335 5.256835937500008  3.291145833333333 5.308894230769231  3.1927083333333335 5.313626802884615  C 2.3411458333333184 5.359375  1.5130208333333333 5.267878605769231  0.7083333333333334 5.0391376201923  C 0.5302083333333333 4.987079326923077  0.4114583333333333 4.818284254807692  0.42083333333333334 4.632136418269231  C 0.44427083333333334 4.237755408653846  0.44739583333331817 3.826021634615377  0.4317708333333333 3.396935096153846  C 0.4192708333333333 3.0703876201923075  0.47552083333333334 2.7738131009615383  0.49270833333333336 2.4314903846153846  C 0.5020833333333333 2.265850360576923  0.5489583333333333 2.092322716346154  0.6317708333333333 1.910907451923077  C 0.6536458333333334 1.8635817307692308  0.6614583333333182 1.8146784855769154  0.6552083333333333 1.7626201923076925  C 0.6161458333333333 1.4423828125  0.6552083333333333 1.1363431490384615  0.7723958333333333 0.8413461538461539  C 0.7880208333333333 0.8034855769230769  0.7973958333333333 0.7640474759615385  0.7989583333333182 0.7214543269230845  Z " fill-rule="nonzero" fill="#582d8a" stroke="none" transform="matrix(1 0 0 1 210 301 )" />
  </g>
</svg>