<?xml version="1.0" encoding="utf-8"?>
<svg version="1.1" xmlns:xlink="http://www.w3.org/1999/xlink" width="3px" height="2px" xmlns="http://www.w3.org/2000/svg">
  <g transform="matrix(1 0 0 1 -210 -308 )">
    <path d="M 0.333398437499983 0.13151041666667615  C 0.7957031249999829 0.018229166666666668  1.2228515624999998 -0.005208333333333333  1.6166015624999999 0.06315104166666667  C 2.0630859375000004 0.3854166666666667  2.3812499999999996 0.8033854166666762  2.57109375 1.3209635416666667  C 2.5904296875000004 1.3736979166666667  2.5939453125 1.4186197916666667  2.578125 1.4518229166666667  C 2.5482421874999996 1.5162760416666667  2.4796875 1.5436197916666667  2.419921875 1.5162760416666667  C 1.961132812500017 1.3014322916666667  1.59375 0.9713541666666666  1.048828125 1.3131510416666667  C 0.7904296875000001 1.4752604166666667  0.5003906250000001 1.6002604166666667  0.18046874999998297 1.6901041666666667  L 0.22441406249998297 0.2760416666666667  C 0.22617187500001704 0.20572916666666666  0.271875 0.14713541666666666  0.333398437499983 0.13151041666667615  Z " fill-rule="nonzero" fill="#3e132b" stroke="none" transform="matrix(1 0 0 1 210 308 )" />
  </g>
</svg>