<?xml version="1.0" encoding="utf-8"?>
<svg version="1.1" xmlns:xlink="http://www.w3.org/1999/xlink" width="4px" height="3px" xmlns="http://www.w3.org/2000/svg">
  <g transform="matrix(1 0 0 1 -207 -307 )">
    <path d="M 0.64208984375 0.6990234375  L 3.92919921875 0.416015625  C 3.8720703125 0.48808593750000856  3.84423828125 0.5689453124999999  3.84716796875 0.6568359374999999  C 3.51904296875 0.5953124999999999  3.163085937499986 0.61640625  2.777832031249986 0.7183593750000086  C 2.7265625 0.732421875  2.688476562500014 0.78515625  2.687011718749986 0.8484375000000001  L 2.650390624999986 2.12109375  C 2.51708984375 2.1931640625  2.42919921875 2.2283203125  2.38525390625 2.2248046875  C 1.748046875 2.1773437500000004  1.16357421875 2.2916015625000004  0.634765625 2.5658203124999996  L 0.44580078125 0.9925781249999915  C 0.43701171875 0.9222656250000001  0.4531249999999858 0.8501953125000085  0.4912109375000142 0.7957031250000086  C 0.5278320312500142 0.7394531249999914  0.5820312500000142 0.704296875  0.64208984375 0.6990234375  Z " fill-rule="nonzero" fill="#972421" stroke="none" transform="matrix(1 0 0 1 207 307 )" />
  </g>
</svg>