<?xml version="1.0" encoding="utf-8"?>
<svg version="1.1" xmlns:xlink="http://www.w3.org/1999/xlink" width="10px" height="3px" xmlns="http://www.w3.org/2000/svg">
  <g transform="matrix(1 0 0 1 -203 -307 )">
    <path d="M 7.921006944444445 0.1171875  L 9.66579861111111 0.03632812499999147  L 8.25466579861111 0.416015625  L 4.602322048611111 0.6990234375  C 4.535590277777794 0.704296875  4.475368923611127 0.7394531249999914  4.434678819444461 0.7957031250000086  C 4.392361111111096 0.8501953125000085  4.374457465277778 0.9222656250000001  4.384223090277778 0.9925781249999915  L 4.594184027777778 2.5658203124999996  C 4.620225694444445 2.6150390625  4.646267361111111 2.6642578125  4.672309027777778 2.7134765625000004  C 4.654405381944445 2.7486328125000004  4.651150173611111 2.771484375  4.659288194444445 2.78203125  C 3.838975694444444 2.6624999999999917  3.3132595486110956 2.5921874999999996  3.082139756944444 2.5728515625000004  C 1.7751736111111112 2.462109375  0.7514105902777936 1.9136718750000001  0.009223090277777778 0.9310546875000001  C 0.20616319444444445 0.5830078125  0.4844835069444445 0.331640625  0.8458116319444444 0.17519531249999998  C 0.945095486111111 0.3439453124999915  1.0639105902777777 0.39316406249999997  1.2022569444444444 0.32109374999999996  C 2.0958116319444446 0.4072265625  2.828233506944444 0.3720703125  3.5785590277777617 0.45644531250000003  C 3.9740668402777777 0.5021484375  4.322374131944445 0.5109375  4.623480902777778 0.48281250000000003  C 4.970160590277778 0.44941406250000004  5.313585069444445 0.42304687500000004  5.652126736111112 0.40371093750000003  C 5.702582465277778 0.40019531250000856  5.751410590277778 0.38613281250000003  5.79698350694446 0.36152343750000004  C 5.824652777777778 0.345703125  5.855577256944445 0.33515625000000004  5.889756944444445 0.33339843749999143  C 6.605902777777778 0.25957031249999996  7.282986111111127 0.1875  7.921006944444445 0.1171875  Z " fill-rule="nonzero" fill="#351c66" stroke="none" transform="matrix(1 0 0 1 203 307 )" />
  </g>
</svg>