<?xml version="1.0" encoding="utf-8"?>
<svg version="1.1" xmlns:xlink="http://www.w3.org/1999/xlink" width="2px" height="2px" xmlns="http://www.w3.org/2000/svg">
  <g transform="matrix(1 0 0 1 -210 -309 )">
    <path d="M 1.4615885416666476 0.6725260416666666  C 1.5358072916666476 1.0299479166666667  1.5143229166666667 1.2389322916666667  1.3971354166666667 1.2994791666666667  L 1.1100260416666667 0.5709635416666666  C 1.0983072916666856 0.5397135416666666  1.0690104166666667 0.5162760416666666  1.0358072916666667 0.5123697916666762  L 0.8307291666666666 0.4850260416666667  C 0.7897135416666666 0.4791666666666667  0.7760416666666666 0.4967447916666667  0.7916666666666666 0.5377604166666666  C 0.8912760416666666 0.7858072916666666  0.8990885416666666 1.1080729166666667  0.8170572916666666 1.5045572916666667  C 0.7858072916666666 1.6510416666666667  0.8268229166666478 1.7506510416666667  0.9381510416666666 1.8072916666666667  C 0.8854166666666666 1.9166666666666667  0.8072916666666666 1.9225260416666667  0.7037760416666666 1.8248697916666667  C 0.6647135416666666 1.7877604166666667  0.6393229166666666 1.7428385416666667  0.6276041666666666 1.6901041666666667  C 0.5514322916666666 1.3561197916666667  0.4635416666666856 1.0260416666666667  0.3600260416666667 0.7018229166666666  C 0.24869791666666666 0.3444010416666667  0.3795572916666667 0.16471354166666666  0.7565104166666856 0.16471354166666666  L 0.8385416666666666 0.16471354166666666  C 1.1842447916666667 0.16471354166666666  1.3932291666666667 0.3346354166666667  1.4615885416666476 0.6725260416666666  Z " fill-rule="nonzero" fill="#3e132b" stroke="none" transform="matrix(1 0 0 1 210 309 )" />
  </g>
</svg>