<?xml version="1.0" encoding="utf-8"?>
<svg version="1.1" xmlns:xlink="http://www.w3.org/1999/xlink" width="8px" height="8px" xmlns="http://www.w3.org/2000/svg">
  <g transform="matrix(1 0 0 1 -208 -313 )">
    <path d="M 4.921354166666666 7.914583333333334  C 4.932291666666667 7.659895833333334  4.851041666666666 7.497395833333333  4.680729166666667 7.425520833333334  L 4.247916666666667 5.522395833333333  C 4.221354166666652 5.403645833333333  4.108854166666666 5.325520833333333  3.988541666666682 5.341145833333333  C 3.4682291666666667 5.411458333333333  2.9401041666666665 5.400520833333333  2.405729166666682 5.311458333333333  C 1.7791666666666515 5.222395833333334  1.3541666666666667 4.908333333333333  1.1338541666666666 4.369270833333333  C 1.0182291666666514 4.086458333333334  0.9197916666666515 3.8255208333333335  0.8401041666666667 3.5833333333333335  L 0.3776041666666667 2.089583333333333  C 0.5729166666666666 2.1083333333333334  0.6994791666666667 2.0989583333333335  0.7557291666666667 2.0598958333333335  C 0.9197916666666515 2.3036458333333334  1.1244791666666667 2.4677083333333334  1.3697916666666514 2.5536458333333334  C 1.2166666666666666 2.795833333333341  1.2197916666666666 3.017708333333333  1.3791666666666667 3.220833333333333  C 1.6151041666666666 3.5208333333333335  1.8166666666666667 3.870833333333333  1.9838541666666667 4.272395833333333  C 2.0557291666666666 4.447395833333333  2.1697916666666517 4.623958333333333  2.3260416666666517 4.802083333333333  C 2.4713541666666665 4.969270833333334  2.6494791666666666 5.069270833333333  2.8604166666666666 5.102083333333334  C 3.574479166666667 5.216145833333333  4.227604166666667 5.084895833333333  4.816666666666666 4.711458333333334  C 4.938541666666667 4.634895833333333  5.096354166666667 4.503645833333326  5.290104166666667 4.3192708333333405  C 5.438541666666667 4.177083333333333  5.591666666666667 4.036458333333333  5.747916666666667 3.900520833333333  C 5.944791666666666 3.7270833333333333  6.116666666666682 3.550520833333333  6.265104166666666 3.369270833333333  C 6.379166666666666 3.228645833333333  6.497916666666667 3.095833333333333  6.621354166666666 2.972395833333333  C 6.730729166666666 2.861458333333333  6.824479166666666 2.7333333333333334  6.901041666666667 2.5848958333333334  C 7.008854166666667 2.3802083333333335  7.115104166666667 2.1848958333333335  7.218229166666666 2.002083333333333  C 7.341666666666667 1.7817708333333333  7.435416666666667 1.5739583333333258  7.499479166666666 1.3817708333333334  C 7.619791666666652 1.0255208333333334  7.722916666666666 0.6552083333333333  7.811979166666666 0.26927083333333335  C 7.844791666666667 0.12395833333333334  7.874479166666682 0.12552083333333333  7.901041666666667 0.27239583333333334  C 7.944791666666666 0.5255208333333333  7.804166666666666 0.6786458333333333  7.782291666666667 0.9145833333333333  C 7.724479166666667 1.5130208333333333  7.5822916666666815 2.2036458333333333  7.352604166666667 2.9895833333333335  C 7.235416666666667 3.3958333333333335  7.077604166666666 3.742708333333341  6.882291666666666 4.030208333333333  C 6.865104166666667 4.055208333333341  6.854166666666667 4.081770833333334  6.849479166666667 4.111458333333333  C 6.846354166666667 4.128645833333334  6.846354166666667 4.147395833333333  6.849479166666667 4.164583333333334  C 6.854166666666667 4.200520833333333  6.846354166666667 4.233333333333333  6.826041666666667 4.263020833333333  C 6.699479166666666 4.444270833333333  6.586979166666667 4.620833333333326  6.490104166666667 4.792708333333334  C 6.415104166666667 4.925520833333334  6.263541666666667 5.005208333333333  6.222916666666666 5.1395833333333405  C 6.168229166666666 5.320833333333334  6.026041666666667 5.464583333333334  5.938541666666667 5.630208333333333  C 5.708854166666667 6.063020833333334  5.457291666666666 6.445833333333334  5.183854166666666 6.781770833333334  C 5.111979166666667 6.870833333333334  5.099479166666652 6.956770833333334  5.047916666666667 7.0536458333333405  C 5.026041666666667 7.091145833333333  5.013541666666667 7.130208333333333  5.010416666666667 7.169270833333333  C 4.991666666666666 7.434895833333333  4.979166666666667 7.702083333333333  4.974479166666667 7.970833333333326  C 4.972916666666666 7.980208333333326  4.969791666666667 7.981770833333333  4.963541666666652 7.973958333333333  C 4.954166666666667 7.964583333333334  4.944791666666682 7.955208333333333  4.933854166666666 7.945833333333334  C 4.9260416666666815 7.938020833333334  4.921354166666666 7.927083333333333  4.921354166666666 7.914583333333334  Z " fill-rule="nonzero" fill="#972421" stroke="none" transform="matrix(1 0 0 1 208 313 )" />
  </g>
</svg>