<?xml version="1.0" encoding="utf-8"?>
<svg version="1.1" xmlns:xlink="http://www.w3.org/1999/xlink" width="12px" height="26px" xmlns="http://www.w3.org/2000/svg">
  <g transform="matrix(1 0 0 1 -204 -322 )">
    <path d="M 2.930752840909091 1.1939113451086878  C 3.234375 0.7683423913043478  3.5875355113636362 0.4487516983695572  3.9918323863636362 0.2351392663043478  C 3.183238636363652 1.862899116847826  3.2008167613636207 3.474099864130435  3.3478338068181817 5.239300271739131  C 3.5475852272727275 7.6089079483695645  3.895951704545454 9.9404296875  4.396129261363637 12.23717730978261  C 4.488813920454546 12.664402173913043  4.6438210227272725 13.048573369565217  4.7668678977272725 13.459239130434783  C 4.7780539772727275 13.497325067934783  4.81640625 13.540378736413043  4.846768465909091 13.560249660326088  C 4.875532670454546 13.578464673913043  4.891512784090909 13.571841032608695  4.893110795454546 13.537066915760871  L 4.9074928977272725 13.356572690217392  C 4.8835227272727275 13.547002377717392  4.893110795454546 13.725840692934783  4.9362571022727275 13.889775815217392  C 4.99857954545453 14.123259171195652  5.028941761363637 14.292162024456523  5.028941761363637 14.394828464673912  C 5.028941761363637 14.722698709239129  5.0417258522727275 15.045601222826088  5.017755681818182 15.375127377717392  C 4.929865056818182 16.54420006793478  5.043323863636363 17.721552309782606  4.947443181818182 18.854194972826086  C 4.891512784090909 19.519870923913043  4.8835227272727275 20.173955502717394  4.808416193181818 20.841287364130434  C 4.7428977272727275 21.439070991847824  4.69975142045453 22.050101902173914  4.682173295454546 22.672724184782606  C 4.680575284090924 22.76048743206522  4.738103693181818 22.838315217391305  4.819602272727257 22.858186141304348  C 5.901455965909091 23.121475883152176  6.989701704545455 23.32515285326087  8.0859375 23.470872961956523  C 8.119495738636363 23.47584069293478  8.153053977272727 23.460937499999982  8.17542613636362 23.432787024456523  C 8.196200284090924 23.40629245923913  8.202592329545455 23.36820652173913  8.19140625 23.335088315217394  C 8.089133522727273 23.015497622282606  8.208984375 22.747240149456523  8.220170454545455 22.508789062499982  C 8.234552556818166 22.222316576086957  8.245738636363637 21.929220448369566  8.252130681818182 21.631156589673914  C 8.263316761363637 21.145974864130434  8.308061079545455 20.634298573369566  8.389559659090908 20.096127717391305  C 8.434303977272712 19.809655230978258  8.405539772727273 19.544709578804348  8.491832386363637 19.266516644021742  C 8.523792613636363 19.162194293478258  8.539772727272727 19.051248301630434  8.539772727272727 18.933678668478258  C 8.541370738636363 18.458432404891305  8.566938920454545 17.95337975543478  8.619673295454545 17.416864809782606  C 8.688387784090908 16.699855638586957  8.729936079545455 16.194802989130434  8.741122159090908 15.901706861413043  C 8.819424715909092 14.073581861413043  8.945667613636363 12.16100543478261  9.119850852272727 10.163977581521738  C 9.172585227272727 9.556258491847817  9.2109375 9.061141304347826  9.234907670454561 8.676970108695643  C 9.28125 7.94340183423913  9.401100852272727 7.242951766304348  9.444247159090908 6.516007133152174  C 9.49378551136362 5.668181046195651  9.576882102272727 4.797172214673913  9.695134943181834 3.901324728260869  C 9.698330965909092 3.878141983695652  9.711115056818182 3.856615149456522  9.730291193181818 3.843367866847818  C 9.749467329545455 3.8317764945652177  9.773437499999984 3.828464673913044  9.795809659090908 3.835088315217391  L 9.838955965909092 3.848335597826087  C 9.856534090909092 3.854959239130443  9.866122159090908 3.868206521739131  9.866122159090908 3.886421535326087  C 9.866122159090908 4.134808084239131  9.862926136363637 4.3798828125  9.856534090909092 4.623301630434782  C 9.851740056818182 4.7508067255434785  9.824573863636363 4.964419157608695  9.775035511363653 5.2641389266304355  C 9.717507102272727 5.610224184782608  9.800603693181818 6.004330842391305  9.717507102272727 6.318953804347826  C 9.703125 6.3702870244565215  9.699928977272727 6.423276154891305  9.707919034090908 6.476265285326087  C 9.727095170454545 6.600458559782608  9.706321022727273 6.7130604619565215  9.645596590909092 6.814070991847817  C 9.615234375000016 6.862092391304348  9.613636363636347 6.911769701086956  9.637606534090908 6.963102921195652  C 9.66796875 7.026027513586956  9.66796875 7.088952105978262  9.640802556818182 7.1518766983695645  C 9.618430397727273 7.203209918478262  9.608842329545455 7.256199048913044  9.610440340909092 7.3125  C 9.626420454545455 7.7397248641304355  9.600852272727273 8.137143342391303  9.532137784090908 8.50475543478261  C 9.522549715909092 8.559400475543478  9.530539772727273 8.609077785326088  9.557705965909092 8.655443274456522  C 9.612038352272727 8.753141983695652  9.592862215909076 8.8359375  9.501775568181818 8.903829823369565  C 9.45543323863638 8.93860394021739  9.444247159090908 8.981657608695652  9.471413352272727 9.034646739130435  C 9.517755681818182 9.127377717391303  9.517755681818182 9.221764605978262  9.474609375000016 9.316151494565217  C 9.447443181818182 9.375764266304348  9.434659090909106 9.438688858695652  9.436257102272727 9.504925271739122  C 9.449041193181818 9.834451426630435  9.437855113636363 10.163977581521738  9.404296875 10.495159646739129  C 9.365944602272727 10.857804008152174  9.338778409090908 11.198921535326088  9.322798295454545 11.516856317934783  C 9.250887784090908 13.003863790760871  9.135830965909106 14.451129415760871  8.979225852272727 15.860309103260871  C 8.926491477272727 16.328931725543477  8.904119318181818 16.81080163043478  8.910511363636363 17.309230638586957  C 8.920099431818182 17.966627038043477  8.790660511363637 18.605808423913043  8.757102272727273 19.261548913043477  C 8.689985795454545 20.611115828804348  8.594105113636347 21.978897758152176  8.471058238636363 23.364894701086957  C 8.467862215909092 23.40794836956522  8.480646306818182 23.449346127717394  8.5078125 23.48080842391303  C 8.534978693181802 23.512270720108695  8.573330965909092 23.530485733695652  8.61328125 23.532141644021742  L 11.515269886363637 23.62984035326087  C 11.638316761363637 23.586786684782624  11.660688920454545 23.595066236413043  11.579190340909092 23.654679008152176  C 11.754971590909092 23.808678668478258  11.77734375 23.942807404891305  11.646306818181818 24.057065217391305  L 8.659623579545455 23.954398777173914  C 8.533380681818182 23.949431046195652  8.426313920454545 24.04712975543478  8.413529829545455 24.177946671195652  L 8.26171875 25.8206097146739  C 8.258522727272727 25.855383831521742  8.239346590909092 25.873598845108695  8.205788352272727 25.873598845108695  L 8.159446022727273 25.873598845108695  C 8.132279829545455 25.873598845108695  8.105113636363637 25.862007472826072  8.0859375 25.84048063858694  C 8.068359375 25.818953804347824  8.058771306818182 25.790803328804348  8.060369318181818 25.76265285326087  L 8.178622159090908 24.075280230978258  C 8.185014204545455 23.984205163043477  8.119495738636363 23.904721467391305  8.031605113636363 23.894786005434764  C 7.0456321022727275 23.78880774456522  6.118785511363653 23.63480808423913  5.247869318181818 23.434442934782606  C 5.0656960227272725 23.393045176630434  4.893110795454546 23.343367866847824  4.730113636363637 23.283755095108695  C 4.704545454545454 23.273819633152158  4.674183238636363 23.277131453804348  4.651811079545454 23.29369055706522  C 4.629438920454546 23.310249660326086  4.615056818181818 23.336744225543463  4.615056818181818 23.364894701086957  L 4.599076704545439 25.325492527173928  C 4.599076704545439 25.383449388586957  4.571910511363637 25.413255774456523  4.515980113636363 25.416567595108695  L 4.325816761363637 25.4265030570652  C 4.308238636363637 25.438094429347824  4.287464488636363 25.444718070652176  4.263494318181818 25.446373980978258  C 4.212357954545454 25.448029891304333  4.1803977272727115 25.42484714673913  4.166015625 25.373513926630434  C 4.132457386363637 25.23607336956522  4.068536931818182 25.12015964673913  3.977450284090909 25.0224609375  C 3.9422940340909247 24.984375  3.924715909090909 24.939665421195652  3.9231178977272725 24.88667629076087  L 3.908735795454546 24.202785326086957  L 3.9167258522727275 23.078422214673914  C 3.9646661931818183 23.033712635869566  3.990234375 22.955884850543477  3.9934303977272725 22.844938858695652  C 3.995028409090909 22.79029381793478  3.977450284090909 22.743928328804348  3.943892045454546 22.705842391304348  C 3.891157670454546 22.64457370923913  3.8879616477272725 22.573369565217394  3.9375 22.490574048913043  L 4.089311079545454 22.505477241847824  C 4.154829545454546 22.558466372282606  4.234730113636363 22.586616847826086  4.332208806818182 22.589928668478258  C 4.386541193181818 22.591584578804333  4.416903409090909 22.56343410326087  4.423295454545454 22.508789062499982  C 4.466441761363637 22.147800611413043  4.499999999999985 21.788468070652176  4.5207741477272885 21.430791440217394  C 4.53515625 21.205587635869566  4.522372159090909 20.952233355978258  4.482421875 20.672384510869566  C 4.447265625 20.425653872282606  4.416903409090909 20.175611413043477  4.392933238636363 19.9189453125  L 4.632634943181818 17.529466711956523  C 4.717329545454546 16.911812160326086  4.768465909090909 16.24779211956522  4.786044034090909 15.540718410326088  C 4.787642045454546 15.49600883152174  4.8020241477272725 15.388374660326088  4.832386363636363 15.217815896739129  C 4.853160511363637 15.105213994565217  4.849964488636363 14.992612092391305  4.822798295454546 14.880010190217392  C 4.808416193181818 14.823709239130435  4.811612215909091 14.767408288043477  4.829190340909091 14.712763247282608  C 4.905894886363637 14.466032608695652  4.9186789772727115 14.232549252717392  4.869140625 14.013969089673912  C 4.861150568181833 13.980850883152176  4.833984375 13.954356317934783  4.8020241477272725 13.951044497282608  C 4.768465909090909 13.946076766304348  4.736505681818182 13.962635869565217  4.720525568181833 13.994098165760871  C 4.688565340909091 14.055366847826088  4.6965553977272725 14.083517323369565  4.7428977272727275 14.081861413043477  C 3.1624644886363793 14.260699728260871  1.7306463068181819 13.947732676630435  0.44904119318181823 13.141304347826088  C 0.40909090909090906 12.982336956521738  0.2908380681818182 12.800186820652174  0.09588068181818182 12.596509850543478  C 0.04794034090909091 12.243800951086957  0.04953835227272728 11.874532948369565  0.10227272727272727 11.488705842391303  C 0.16139914772727273 11.039954144021738  0.19975142045454547 10.67565387228261  0.21573153409090912 10.399116847826088  C 0.24928977272727273 9.829483695652174  0.3467684659091064 9.294624660326088  0.5081676136363636 8.792883831521738  C 0.92524857954547 6.739555027173912  1.443004261363621 4.749150815217392  2.061434659090909 2.8233271059782608  C 2.147727272727273 2.5550696331521743  2.281960227272712 2.2801885190217392  2.4625355113636207 1.9970278532608696  C 2.6303267045454546 1.7337381114130435  2.7869318181818183 1.4654806385869565  2.930752840909091 1.1939113451086878  Z " fill-rule="nonzero" fill="#bd88f7" stroke="none" transform="matrix(1 0 0 1 204 322 )" />
  </g>
</svg>