<?xml version="1.0" encoding="utf-8"?>
<svg version="1.1" xmlns:xlink="http://www.w3.org/1999/xlink" width="11px" height="27px" xmlns="http://www.w3.org/2000/svg">
  <g transform="matrix(1 0 0 1 -208 -318 )">
    <path d="M 2.311181640625 0.8480548469387754  C 2.1033203125 0.7754105548469388  1.97763671875 0.6688655931122449  1.9309082031250155 0.528419961734694  C 2.481982421875 0.6204360650510204  3.026611328125 0.631736288265306  3.563183593750016 0.5590919961734694  C 3.687255859375 0.5429488201530612  3.803271484374984 0.623664700255102  3.8306640625000004 0.7463528380102041  L 4.277001953125 2.712591677295918  L 5.250244140625 7.080935108418367  C 5.255078125000016 7.097078284438776  5.266357421875 7.109992825255094  5.282470703125 7.114835778061224  C 5.298583984375 7.1196787308673395  5.31630859375 7.114835778061224  5.327587890625 7.103535554846939  C 5.36142578125 7.06640625  5.3904296875 7.014748086734693  5.41298828125 6.948561065051012  C 5.76748046875 5.892797353316326  6.204150390624999 4.887077487244898  6.721386718750001 3.9297871492346936  L 7.245068359375001 4.457669005102041  C 7.324023437499999 4.691745057397959  7.448095703124984 4.898377710459184  7.614062499999999 5.080795599489797  C 7.873486328125015 5.36652981505102  8.028173828125 5.54410475127551  8.08134765625 5.615134725765307  C 8.337548828125 5.960598692602049  8.627587890625 6.277004942602041  8.95146484375 6.5659677933673555  C 8.988525390625 6.598254145408164  9.023974609375 6.61116868622449  9.061035156250016 6.604711415816326  C 9.114208984375 6.595025510204074  9.13193359375 6.564353475765307  9.110986328125 6.5126953125  L 8.949853515625 6.123644770408164  C 8.998193359375 6.212432238520416  9.046533203125 6.273776307397959  9.096484375 6.306062659438775  C 9.146435546875 6.339963329081633  9.185107421875 6.328663105867347  9.214111328125 6.275390625  L 10.912451171874984 3.0871133609693877  C 10.43388671875 4.585200095663265  10.21474609375 6.01871412627551  10.251806640625 7.387655452806123  C 10.25986328125 7.681461256377551  10.3017578125 8.302973533163266  10.380712890625 9.253806600765307  C 10.282421875 9.365194515306122  10.206689453125 9.631556919642858  10.155126953125 10.05127949617347  C 10.119677734375 10.332170758928571  9.96982421875 10.717992665816327  9.705566406250016 11.210359534438776  C 8.7484375 12.992566167091844  7.670458984374985 14.513253348214286  6.104248046875 15.812779017857142  C 6.00595703125 15.893494897959185  5.956005859375001 16.00326849489796  5.952783203125 16.140485491071427  C 5.852880859375 19.788843271683675  6.118749999999984 23.459801498724488  7.211230468749999 26.893455038265305  L 4.28505859375 26.7982102997449  C 4.244775390625 26.796595982142858  4.206103515624984 26.778838488520407  4.1787109375 26.74816645408162  C 4.151318359375 26.717494419642858  4.138427734375 26.677136479591837  4.141650390625 26.635164221938773  C 4.265722656249984 25.283980389030614  4.36240234375 23.9505540497449  4.430078125 22.634885204081634  C 4.463916015625 21.995615433673468  4.59443359375 21.372488839285715  4.584765625 20.731604751275512  C 4.5783203125 20.245695153061227  4.60087890625 19.775928730867346  4.654052734375 19.319076849489793  C 4.811962890625016 17.94529257015306  4.927978515625 16.534378985969386  5.00048828125 15.084721779336734  C 5.0166015625 14.774772799744898  5.043994140625 14.442223373724488  5.082666015625 14.088687818877553  C 5.11650390625 13.765824298469386  5.127783203125 13.444575095663266  5.114892578125 13.123325892857135  C 5.113281250000016 13.05875318877551  5.126171875 12.99740911989796  5.153564453125016 12.93929368622449  C 5.1970703125 12.847277582908163  5.1970703125 12.755261479591837  5.150341796875 12.66485969387755  C 5.12294921875 12.613201530612244  5.134228515625016 12.571229272959183  5.18095703125 12.537328603316327  C 5.272802734374984 12.471141581632653  5.292138671875 12.390425701530614  5.237353515625 12.295180963010203  C 5.2099609375 12.249980070153061  5.201904296875 12.201550542091837  5.211572265625 12.14827806122449  C 5.280859375 11.789899553571429  5.306640625 11.402463329081632  5.29052734375 10.985969387755103  C 5.288916015625 10.931082589285714  5.298583984375 10.879424426020407  5.321142578125 10.829380580357142  C 5.34853515625 10.768036511479593  5.34853515625 10.70669244260204  5.317919921875 10.64534837372449  C 5.293749999999984 10.595304528061224  5.295361328125016 10.546875  5.3259765625 10.50005978954081  C 5.38720703125 10.401586415816327  5.408154296875 10.29181281887755  5.388818359375 10.17073899872449  C 5.38076171875 10.119080835459183  5.383984375 10.067422672193878  5.398486328125 10.017378826530614  C 5.482275390625 9.710658482142858  5.398486328125 9.326450892857142  5.456494140625016 8.989058514030614  C 5.5064453125 8.696867028061224  5.533837890625 8.48862005739796  5.538671875 8.364317602040817  C 5.545117187500001 8.127012914540817  5.54833984375 7.888093909438776  5.54833984375 7.645946269132653  C 5.54833984375 7.628188775510203  5.538671875 7.615274234693885  5.520947265625001 7.6088169642857135  L 5.47744140625 7.595902423469387  C 5.454882812499984 7.589445153061224  5.430712890625 7.592673788265307  5.411376953125 7.6039740114795835  C 5.392041015625 7.616888552295919  5.379150390625 7.637874681122449  5.375927734375016 7.66047512755102  C 5.256689453125 8.533820950255103  5.172900390624984 9.382952008928571  5.12294921875 10.20948262117347  C 5.079443359375 10.918168048469386  4.95859375 11.601024394132653  4.911865234375016 12.316167091836727  C 4.8876953125 12.690688775510203  4.8490234375 13.1733697385204  4.795849609375 13.765824298469386  C 4.62021484375 15.712691326530614  4.492919921875 17.577228156887756  4.41396484375 19.359434789540813  C 4.402685546875 19.64516900510204  4.360791015625 20.137535873724488  4.29150390625 20.836535395408163  C 4.238330078125 21.359574298469386  4.212548828125 21.851941167091837  4.2109375 22.315250318877553  C 4.2109375 22.429866868622447  4.19482421875 22.538026147959187  4.16259765625 22.639728156887756  C 4.0755859375 22.910933514030614  4.104589843749984 23.169224330357142  4.05947265625 23.448501275510207  C 3.977294921875 23.973154496173468  3.932177734375 24.47197863520408  3.9208984375 24.94497369260204  C 3.9144531249999996 25.235550860969386  3.9031738281249844 25.521285076530614  3.888671875 25.800562021683657  C 3.877392578125 26.033023756377553  3.75654296875 26.294543207908163  3.85966796875 26.60610650510204  C 3.8709472656250004 26.638392857142858  3.864501953125016 26.675522161989793  3.843554687499984 26.701351243622447  C 3.82099609375 26.728794642857128  3.787158203125 26.743323501275512  3.7533203124999996 26.738480548469386  C 2.64794921875 26.596420599489793  1.550634765625 26.397859534438773  0.4597656249999844 26.141183035714285  C 0.377587890625 26.121811224489793  0.31958007812501565 26.045938297193878  0.32119140625 25.960379464285715  C 0.33891601562498436 25.353396045918366  0.382421875 24.757712850765305  0.448486328125 24.174944196428573  C 0.52421875 23.524374202806122  0.532275390625 22.88671875  0.588671875 22.237763073979593  C 0.6853515625 21.133569834183675  0.570947265625 19.985790019132654  0.6595703125 18.846081792091837  C 0.683740234375 18.524832589285715  0.670849609375 18.210040656887756  0.670849609375 17.890405771683675  C 0.670849609375 17.790318080357142  0.6402343749999844 17.62565768494898  0.577392578125 17.398038903061227  C 0.53388671875 17.238221460459187  0.52421875 17.063875159438773  0.548388671875 16.87822863520408  C 0.619287109375 14.886160714285714  0.6917968750000001 12.892478475765307  0.7643066406250001 10.898796237244897  C 0.8142578125 9.53954081632653  0.9431640624999844 8.19481425382653  1.151025390625 6.863002232142857  C 1.375 6.517538265306122  1.478125 6.154316804846939  1.4604003906249998 5.773337850765307  C 1.4587890625000002 5.720065369897959  1.470068359375 5.671635841836735  1.49423828125 5.626434948979584  C 1.569970703125 5.489217952806122  1.624755859375 5.331014827806122  1.656982421875 5.155054209183674  C 1.6650390625 5.111467633928571  1.6875976562499844 5.080795599489797  1.7278808593749844 5.063038105867347  C 1.7423828124999998 5.056580835459184  1.7568847656250002 5.053352200255102  1.77138671875 5.051737882653053  C 1.827783203125 5.04850924744898  1.8616210937500002 5.074338329081633  1.87451171875 5.12922512755102  L 2.259619140625 6.737085459183682  C 2.26767578125 6.7709861288265305  2.2918457031249844 6.796815210459176  2.32568359375 6.804886798469387  C 2.35791015625 6.814572704081633  2.393359374999984 6.803272480867347  2.417529296875 6.779057716836734  C 3.0926757812499996 6.07682955994898  3.7404296875 5.3051857461734695  4.364013671875 4.464126275510203  C 4.39462890625 4.423768335459184  4.388183593750016 4.367267219387755  4.351123046875 4.33659518494898  L 4.306005859374984 4.2978515625  C 4.283447265625 4.2768654336734695  4.2625 4.27847975127551  4.241552734375 4.302694515306122  L 2.491650390625 6.330277423469388  C 2.469091796875 6.356106505102041  2.435253906250016 6.369021045918367  2.401416015625 6.364178093112252  C 2.367578125 6.359335140306122  2.33857421875 6.336734693877552  2.324072265625 6.306062659438775  C 2.187109375 6.007413903061225  2.140380859375 5.676478794642857  2.185498046875 5.311643016581633  C 2.232226562499984 4.938735650510203  2.290234375 4.57389987244898  2.359521484375 4.21390704719387  C 2.43203125 3.832928093112245  2.643115234375 3.2017299107142856  2.991162109375 2.3219268176020407  C 3.013720703125 2.2654257015306123  3.013720703125 2.204081632653061  2.9927734375000004 2.1475805165816326  L 2.8316406250000004 1.7181720344387756  C 2.9041503906250004 1.6552136479591837  2.937988281250016 1.6019411670918446  2.9315429687499996 1.5583545918367347  C 2.9202636718750004 1.4970105229591837  2.8880371093750004 1.4808673469387834  2.8316406250000004 1.5083107461734695  L 1.937353515625 1.9506337691326532  C 1.9873046875 1.7197863520408165  2.146826171875 1.5583545918367347  2.417529296875 1.4631098533163267  C 2.478759765625 1.442123724489796  2.515820312500016 1.3985371492346939  2.5287109375 1.3355787627551021  C 2.556103515625016 1.1983617665816404  2.527099609375 1.0676020408163267  2.4384765625 0.9416852678571429  C 2.40625 0.8980986926020408  2.36435546875 0.8658123405612246  2.311181640625 0.8480548469387754  Z " fill-rule="nonzero" fill="#d39af6" stroke="none" transform="matrix(1 0 0 1 208 318 )" />
  </g>
</svg>