<?xml version="1.0" encoding="utf-8"?>
<svg version="1.1" xmlns:xlink="http://www.w3.org/1999/xlink" width="6px" height="7px" xmlns="http://www.w3.org/2000/svg">
  <g transform="matrix(1 0 0 1 -215 -317 )">
    <path d="M 2.40703125 0.7551081730769231  C 2.5687499999999996 0.5752704326923153  2.7867187500000004 0.4175180288461615  3.0626953125000003 0.2834284855769231  C 3.6146484374999996 0.4664212740384539  4.064648437500001 0.6951622596153846  4.410937499999999 0.9712289663461537  C 4.5638671875 1.0926983173076923  4.702734375 1.1873497596153846  4.8310546875 1.2567608173076923  C 5.068359375 1.3861177884615385  5.208984375 1.4744591346153846  5.254687499999983 1.5233623798076923  C 5.4673828125 1.7457932692307692  5.5517578125 2.0076622596153846  5.506054687500001 2.307391826923077  L 4.704492187499984 3.555213341346154  L 2.8517578125 6.670823317307692  C 2.8201171875 6.722881610576923  2.7779296875000004 6.733924278846154  2.7234375 6.700796274038462  C 2.6689453125 6.669245793269231  2.6162109375 6.6092998798077  2.5634765625 6.522536057692308  L 0.7037109374999999 4.89453125  L 0.13242187500000002 4.378680889423077  C 0.7107421875 3.0157001201923075  1.4701171875 1.8073167067307616  2.40703125 0.7551081730769231  Z " fill-rule="nonzero" fill="#f0fcfe" stroke="none" transform="matrix(1 0 0 1 215 317 )" />
  </g>
</svg>