<?xml version="1.0" encoding="utf-8"?>
<svg version="1.1" xmlns:xlink="http://www.w3.org/1999/xlink" width="5px" height="17px" xmlns="http://www.w3.org/2000/svg">
  <g transform="matrix(1 0 0 1 -207 -319 )">
    <path d="M 4.627821180555555 0.4692708333333333  C 4.634331597222238 0.5140950520833414  4.600151909722222 0.5688802083333333  4.526909722222222 0.6336263020833333  C 3.6724175347222223 2.2788411458333337  3.107638888888873 4.041927083333341  2.829318576388889 5.924544270833334  C 2.619357638888873 7.294173177083334  2.4891493055555554 8.677083333333332  2.438693576388889 10.074934895833334  C 2.365451388888889 12.125227864583334  2.292209201388889 14.175520833333334  2.2205946180555554 16.224153645833333  L 2.2059461805555554 16.405110677083332  C 2.204318576388889 16.439973958333333  2.1880425347222223 16.446614583333332  2.1587456597222223 16.428352864583335  C 2.1278211805555554 16.408430989583334  2.0887586805555554 16.365266927083333  2.077365451388889 16.327083333333334  C 1.9520399305555556 15.915364583333332  1.7941623263888888 15.530208333333334  1.699761284722222 15.101888020833332  C 1.1903211805555556 12.799251302083334  0.8355034722222222 10.461751302083332  0.632052951388889 8.086067708333333  C 0.48231336805553976 6.3163411458333325  0.464409722222238 4.701009114583334  1.2879774305555556 3.0690755208333336  C 1.5825737847222379 2.592610677083333  1.9650607638888888 2.1559895833333336  2.4321831597222223 1.7575520833333331  C 2.586805555555556 1.6263997395833334  2.9839409722222223 1.3308919270833335  3.6235894097222223 0.8726888020833334  L 4.526909722222222 0.41780598958333337  C 4.583875868055555 0.3895833333333414  4.616427951388889 0.4061848958333333  4.627821180555555 0.4692708333333333  Z " fill-rule="nonzero" fill="#351c66" stroke="none" transform="matrix(1 0 0 1 207 319 )" />
  </g>
</svg>