<?xml version="1.0" encoding="utf-8"?>
<svg version="1.1" xmlns:xlink="http://www.w3.org/1999/xlink" width="2px" height="8px" xmlns="http://www.w3.org/2000/svg">
  <g transform="matrix(1 0 0 1 -222 -321 )">
    <path d="M 0.24609375 3.96875  C 0.427734375 2.6294642857142856  0.794921875 1.3253348214285796  1.3457031249999811 0.05803571428571429  L 1.595703125 0.29073660714285715  C 1.4609375 0.7008928571428571  1.326171875 1.1077008928571428  1.193359375 1.5128348214285634  C 1.044921875 1.9665178571428572  0.9375 2.3833705357142856  0.869140625 2.7650669642857144  C 0.64453125 4.060825892857143  0.48046875 5.373325892857143  0.37890625 6.702566964285706  C 0.359375 6.95703125  0.220703125 7.132812500000008  0.20703125 7.370535714285714  C 0.205078125 7.425781250000008  0.234375 7.459263392857143  0.294921875 7.47265625  C 0.39648437500001893 7.494419642857143  0.478515625 7.544642857142857  0.542968750000019 7.626674107142857  L 0.003906249999981052 7.479352678571429  C 0.003906249999981052 6.315848214285706  0.083984375 5.145647321428571  0.24609375 3.96875  Z " fill-rule="nonzero" fill="#e9c7f8" stroke="none" transform="matrix(1 0 0 1 222 321 )" />
  </g>
</svg>