<?xml version="1.0" encoding="utf-8"?>
<svg version="1.1" xmlns:xlink="http://www.w3.org/1999/xlink" width="4px" height="11px" xmlns="http://www.w3.org/2000/svg">
  <g transform="matrix(1 0 0 1 -218 -319 )">
    <path d="M 1.58837890625 0.7440378289473684  C 1.74072265625 0.5167557565789473  1.912109375 0.374280427631579  2.1025390625 0.3149157072368421  L 2.34423828125 0.35223067434210525  C 2.35888671875 0.35562294407895556  2.3720703125 0.36579975328948194  2.37646484375 0.3827611019736842  C 2.38232421875 0.39972245065789475  2.37939453125 0.41668379934210525  2.369140625000014 0.4302528782894737  C 1.58251953125 1.4784642269736759  1.2177734375 2.7302117598684292  1.27490234375 4.185495476973684  C 1.291015625 4.609529194078948  1.384765625 5.147203947368429  1.55615234375 5.798519736842105  C 1.73193359375 6.470189144736842  1.89892578125 6.992598684210526  2.055664062499986 7.364052220394736  C 2.30908203125 7.969572368421053  2.5771484375 8.602230674342097  2.85693359375 9.265419407894736  C 2.943359375 9.467259457236842  2.94189453125 9.653834292763158  3.0693359375 9.840409128289474  C 3.09130859375 9.872635690789474  3.12353515625 9.891293174342104  3.15869140625 9.891293174342104  L 3.2421875 9.891293174342104  C 3.25830078125 9.891293174342104  3.264160156249986 9.8828125  3.259765625 9.864155016447377  L 3.2158203125 9.669099506578947  C 3.20263671875 9.614823190789474  3.22021484375 9.577508223684202  3.265625000000014 9.555458470394736  L 3.37841796875 9.504574424342104  C 3.4326171875 9.47913240131579  3.467773437500014 9.499486019736842  3.485351562500014 9.563939144736842  L 3.587890625 9.955746299342104  L 3.6376953125 10.64098478618421  C 3.60986328125 10.644377055921053  3.59228515625 10.6240234375  3.58642578125 10.581620065789474  C 3.58056640625 10.539216694078947  3.56298828125 10.530736019736842  3.5322265625 10.556178042763158  C 3.504394531250014 10.578227796052632  3.483886718749986 10.60706208881579  3.46923828125 10.64098478618421  C 3.4443359375 10.693564967105264  3.4150390625 10.700349506578947  3.37841796875 10.657946134868421  C 3.28173828125 10.547697368421053  3.224609375 10.432360197368421  3.20556640625 10.310238486842104  C 3.19970703125 10.26613898026315  3.173339843749986 10.230520148026315  3.138183593750014 10.213558799342097  C 3.064941406250014 10.179636101973685  3.03271484375 10.120271381578947  3.04150390625 10.035464638157896  C 3.044433593749986 10.001541940789465  3.03564453125 9.972707648026315  3.0166015625 9.94896175986843  L 2.75732421875 9.631784539473685  C 2.72216796875 9.58768503289473  2.71044921875 9.594469572368421  2.72216796875 9.653834292763158  L 2.843749999999986 10.25426603618421  C 2.849609375 10.28479646381579  2.845214843750014 10.31702302631579  2.83056640625 10.342465049342104  C 2.81591796875 10.367907072368421  2.79248046875 10.384868421052632  2.76611328125 10.389956825657896  C 2.459960937500014 10.44762541118422  2.1728515625 10.41539884868422  1.90478515625 10.294973273026315  L 2.6328125 10.313630756578947  C 2.68994140625 10.315326891447368  2.71923828125 10.283100328947368  2.720703125 10.215254934210526  C 2.72216796875 9.99645353618421  2.65478515625 9.816663240131579  2.521484375 9.675884046052632  C 2.48193359375 9.633480674342104  2.45263671875 9.584292763157896  2.4365234375 9.526624177631579  C 2.385253906249986 9.345137746710535  2.3076171875 9.182308799342104  2.20068359375 9.038137335526315  C 2.099609375 8.90075041118421  2.0234375 8.743009868421053  1.96923828125 8.5615234375  C 1.8330078125 8.108655427631579  1.701171875 7.647306743421053  1.5751953125 7.177477384868421  C 1.57373046875 7.172388980263158  1.57080078125 7.157123766447369  1.5693359375 7.131681743421053  C 1.56640625 7.104543585526316  1.5546875 7.080797697368421  1.53564453125 7.062140213815789  C 1.50341796875 7.031609786184211  1.484375 6.992598684210526  1.47705078125 6.945106907894736  C 1.384765625 6.263260690789474  1.255859375 5.601768092105255  1.0888671875 4.960629111842105  C 1.07275390625 4.8978721217105265  1.05224609375 4.8978721217105265  1.02880859375 4.957236842105263  C 1.00390625 5.021689967105263  0.9936523437499858 5.089535361842105  1.0009765625 5.160773026315789  C 1.01708984375 5.318513569078948  1.02587890625 5.405016447368421  1.0244140625 5.420281661184211  C 0.98486328125 6.083470394736842  0.9760742187499858 6.751747532894736  0.9951171875000142 7.421720805921053  C 0.95263671875 7.282637746710526  0.9218750000000142 7.187654194078947  0.9013671875 7.135074013157895  C 0.8076171875 6.899311266447369  0.7563476562499858 6.911184210526316  0.74609375 7.170692845394729  C 0.72265625 7.794870476973684  0.75927734375 8.442793996710519  0.85595703125 9.114463404605264  C 0.87060546875 9.216231496710526  0.8984375 9.316303453947368  0.9409179687500142 9.41467927631579  C 1.00830078125 9.570723684210526  1.01708984375 9.755602384868421  0.9658203125 9.969315378289465  C 0.94384765625 10.057514391447368  0.89404296875 10.098221628289474  0.81494140625 10.09313322368421  C 0.7607421875 10.088044819078947  0.73291015625 10.118575246710535  0.734375 10.181332236842097  C 0.734375 10.244089226973685  0.72265625 10.296669407894736  0.69921875 10.335680509868421  C 0.53369140625 9.808182565789474  0.447265625 9.217927631578956  0.43701171875 8.564915707236842  C 0.365234375 7.565892269736842  0.3271484375 6.912880345394736  0.31982421875 6.604183799342105  C 0.2861328125 5.165861430921052  0.4853515625 3.659693667763158  0.9204101562499858 2.0856805098684212  L 1.58837890625 0.7440378289473684  Z " fill-rule="nonzero" fill="#751f83" stroke="none" transform="matrix(1 0 0 1 218 319 )" />
  </g>
</svg>