<?xml version="1.0" encoding="utf-8"?>
<svg version="1.1" xmlns:xlink="http://www.w3.org/1999/xlink" width="4px" height="10px" xmlns="http://www.w3.org/2000/svg">
  <g transform="matrix(1 0 0 1 -220 -319 )">
    <path d="M 1.1025390625 0.3021918402777778  C 1.88916015625 0.10362413194444445  3.017089843750014 0.974392361111111  3.5400390625 1.5749782986111112  C 3.509277343749986 1.6417100694444444  3.4990234375 1.6921657986111112  3.509277343749986 1.723090277777778  C 3.09619140625 2.9551866319444526  2.82080078125 4.223090277777778  2.6845703125 5.525173611111112  C 2.56298828125 6.669379340277778  2.502929687499986 7.80707465277777  2.502929687499986 8.93825954861111  L 2.587890625 9.55349392361111  L 2.485351562500014 9.17751736111111  C 2.467773437500014 9.115668402777779  2.4326171875 9.096137152777779  2.37841796875 9.120551215277779  L 2.265625000000014 9.169379340277779  C 2.22021484375 9.190538194444436  2.20263671875 9.22634548611111  2.2158203125 9.278428819444445  L 2.259765625 9.46560329861112  C 2.264160156249986 9.483506944444445  2.25830078125 9.491644965277779  2.2421875 9.491644965277779  L 2.15869140625 9.491644965277779  C 2.12353515625 9.491644965277779  2.09130859375 9.473741319444445  2.0693359375 9.442816840277779  C 1.94189453125 9.263780381944445  1.943359375 9.08474392361111  1.85693359375 8.891059027777779  C 1.5771484375 8.254665798611104  1.30908203125 7.647569444444445  1.0556640624999858 7.066514756944445  C 0.89892578125 6.710069444444445  0.73193359375 6.208767361111112  0.55615234375 5.564236111111112  C 0.384765625 4.939236111111119  0.291015625 4.423285590277778  0.27490234375 4.016384548611111  C 0.2177734375 2.6199001736111187  0.58251953125 1.4187282986111032  1.3691406250000142 0.4128689236111111  C 1.37939453125 0.3998480902777778  1.38232421875 0.3835720486111111  1.37646484375 0.3672960069444445  C 1.3720703125 0.3510199652777857  1.35888671875 0.3412543402777857  1.34423828125 0.3379991319444445  L 1.1025390625 0.3021918402777778  Z " fill-rule="nonzero" fill="#8b379f" stroke="none" transform="matrix(1 0 0 1 220 319 )" />
  </g>
</svg>