<?xml version="1.0" encoding="utf-8"?>
<svg version="1.1" xmlns:xlink="http://www.w3.org/1999/xlink" width="3px" height="6px" xmlns="http://www.w3.org/2000/svg">
  <g transform="matrix(1 0 0 1 -210 -319 )">
    <path d="M 0.04638671875 5.673046875000001  C 0.2968749999999858 3.679687500000009  0.80517578125 1.8128906249999999  1.57421875 0.0708984375  L 1.720703125 0.5384765625000001  C 1.73974609375 0.6000000000000001  1.73974609375 0.666796875  1.71923828125 0.7283203125  C 1.40283203125 1.6863281250000002  1.2109375 2.3736328125000004  1.14501953125 2.7884765624999917  C 1.08203125 3.1804687499999997  1.0292968749999858 3.5777343750000004  0.98681640625 3.9837890624999996  C 0.94580078125 4.381054687500001  0.98828125 4.741406250000001  1.11279296875 5.066601562500001  C 1.1259765625 5.1  1.15234375 5.124609375  1.18310546875 5.129882812500009  C 1.2138671875000142 5.13515625  1.24462890625 5.12109375  1.26513671875 5.092968750000001  L 2.85595703125 2.8851562499999996  C 2.875 2.8587890624999996  2.89404296875 2.8570312500000004  2.914550781249986 2.8798828125  L 2.95556640625 2.9220703125  C 2.989257812500014 2.9554687499999996  2.9951171875 3.0169921874999996  2.96728515625 3.0609374999999996  C 2.400390625 3.9767578125000003  1.8115234375 4.8169921875  1.19775390625 5.581640625  C 1.1757812499999858 5.6080078125  1.1435546875 5.620312500000001  1.1142578125 5.609765625  C 1.0834960937499858 5.600976562499991  1.0615234375 5.5728515625  1.05419921875 5.535937500000008  L 0.7041015625 3.78515625  C 0.6923828125 3.7253906249999997  0.66162109375 3.697265625  0.6103515625 3.7007812499999915  C 0.59716796875 3.7025390624999996  0.583984375 3.7060546875  0.5708007812499858 3.7130859375000003  C 0.5341796874999858 3.732421875  0.513671875 3.7658203125000003  0.50634765625 3.8132812499999997  C 0.47705078125 4.0048828125  0.42724609375 4.1771484375  0.3583984375 4.326562499999991  C 0.33642578125 4.375781249999999  0.326171875 4.428515624999999  0.32763671875 4.486523437500001  C 0.34375 4.9013671875  0.25 5.296875  0.04638671875 5.673046875000001  Z " fill-rule="nonzero" fill="#bd88f7" stroke="none" transform="matrix(1 0 0 1 210 319 )" />
  </g>
</svg>