<?xml version="1.0" encoding="utf-8"?>
<svg version="1.1" xmlns:xlink="http://www.w3.org/1999/xlink" width="10px" height="31px" xmlns="http://www.w3.org/2000/svg">
  <g transform="matrix(1 0 0 1 -226 -323 )">
    <path d="M 0.46712239583333337 0.1821812220982143  C 1.7968749999999842 -0.08217075892857144  3.0908203125 -0.04486955915178572  4.347330729166667 0.2940848214285714  C 4.191080729166667 0.5762765066964285  4.08203125 0.8406284877232143  4.020182291666667 1.0855189732142856  C 4.005533854166667 1.140659877232143  3.943684895833333 1.3628452845982144  3.8330078125000155 1.750453404017857  C 3.702799479166667 2.209420340401786  3.868815104166667 2.554861886160714  4.3310546875 2.786778041294643  C 4.440104166666667 2.8419189453125  4.695638020833333 2.9003034319196352  5.09765625 2.960309709821429  C 5.46875 3.279802594866071  5.808919270833334 3.745256696428571  6.1181640625 4.355050223214286  L 6.175130208333334 5.654105050223214  C 6.178385416666666 5.738438197544634  6.233723958333349 5.813040597098214  6.313476562499984 5.842232840401786  L 7.535807291666683 6.288225446428572  L 7.740885416666666 6.716378348214286  C 7.501627604166666 8.362496512276785  7.4365234375 10.031319754464285  7.545572916666666 11.722848074776785  C 7.667643229166666 13.6268310546875  7.760416666666666 15.519461495535714  7.48046875 17.451014927455358  C 7.373046875000016 18.18244280133929  7.197265625 18.952793666294642  6.954752604166666 19.76206752232143  C 6.686197916666666 20.65080915178571  6.433919270833334 21.484409877232125  6.194661458333334 22.26286969866071  C 6.033528645833334 22.789951869419642  5.955403645833334 23.31865583147321  5.95703125 23.845738002232142  C 5.95703125 23.90412248883929  5.9765625 23.96088518415179  6.013997395833334 24.00629534040179  C 6.116536458333334 24.1279296875  6.153971354166666 24.27226911272321  6.123046875 24.436070033482142  C 6.111653645833349 24.49607631138393  6.129557291666651 24.54473005022321  6.175130208333334 24.58527483258929  C 6.267903645833334 24.667986188616055  6.318359375 24.768537248883913  6.326497395833334 24.88530622209821  C 6.331380208333334 24.95017787388393  6.355794270833349 24.958286830357142  6.398111979166666 24.909633091517858  C 6.451822916666666 24.849626813616055  6.482747395833334 24.77826799665179  6.490885416666666 24.69880022321429  C 6.497395833333349 24.63555036272321  6.529947916666666 24.617710658482142  6.5869140625 24.648524693080375  C 6.751302083333334 24.73447963169643  6.9287109375 24.753941127232142  7.120768229166666 24.7101527622768  C 7.252604166666666 24.67933872767857  7.369791666666666 24.625819614955358  7.469075520833334 24.547973632812518  C 7.555338541666683 24.481480189732142  7.6611328125 24.46201869419643  7.786458333333334 24.4912109375  C 7.838541666666651 24.504185267857142  7.890625 24.5025634765625  7.942708333333349 24.486345563616087  L 8.466796875 24.32578822544643  C 8.515625 24.311192103794642  8.5498046875 24.28037806919643  8.57096354166665 24.23496791294643  C 8.642578125 24.08251953125  8.746744791666666 23.959263392857157  8.885091145833334 23.8668212890625  C 8.909505208333334 23.85060337611607  8.907877604166666 23.842494419642858  8.878580729166682 23.8441162109375  C 8.875325520833334 23.8441162109375  8.8720703125 23.842494419642858  8.8671875 23.83925083705357  C 8.836263020833318 23.81492396763393  8.8427734375 23.80194963727679  8.883463541666666 23.7987060546875  C 8.979492187500016 23.79221888950893  9.072265625 23.79221888950893  9.158528645833334 23.800327845982142  C 9.220377604166666 23.80519321986607  9.244791666666682 23.777622767857157  9.2333984375 23.71599469866073  C 9.21875 23.65436662946427  9.1748046875 23.615443638392875  9.099934895833318 23.59922572544643  C 9.075520833333334 23.594360351562518  9.051106770833334 23.59760393415179  9.029947916666666 23.61057826450893  C 9.005533854166666 23.62517438616071  8.987630208333334 23.64463588169643  8.976236979166666 23.672206333705358  C 8.955078125 23.72410365513393  8.948567708333334 23.72248186383929  8.956705729166666 23.66734095982143  C 8.958333333333318 23.65761021205357  8.955078125 23.649501255580358  8.948567708333334 23.64463588169643  C 8.90625 23.61220005580357  8.878580729166682 23.62193080357143  8.865559895833334 23.675449916294657  C 8.863932291666666 23.68193708147321  8.8623046875 23.686802455357142  8.857421875000016 23.69004603794643  C 8.8037109375 23.73383440290179  8.785807291666666 23.72248186383929  8.8037109375 23.655988420758945  C 8.841145833333334 23.50840541294643  8.8330078125 23.37055315290177  8.777669270833334 23.23918805803571  C 8.759765625 23.195399693080358  8.767903645833334 23.15972028459821  8.8037109375 23.128906250000018  C 8.821614583333334 23.11431012834821  8.841145833333334 23.11106654575893  8.8623046875 23.115931919642858  C 8.92578125 23.13214983258929  8.972981770833334 23.11268833705357  9.005533854166666 23.05754743303571  C 9.055989583333334 22.97645786830357  9.121093749999984 22.9050990513393  9.204101562500016 22.845092773437518  C 9.236653645833334 22.820765904017858  9.244791666666682 22.79157366071429  9.230143229166666 22.7542724609375  C 9.18294270833335 22.63425990513393  9.2333984375 22.56938825334821  9.381510416666666 22.561279296875018  C 9.402669270833334 22.559657505580343  9.410807291666666 22.5499267578125  9.404296875 22.528843470982142  C 9.397786458333334 22.51100376674107  9.388020833333334 22.50127301897321  9.375 22.499651227678587  C 9.344075520833318 22.494785853794642  9.3359375 22.480189732142875  9.353841145833334 22.45424107142857  C 9.412434895833334 22.36504255022321  9.43359375 22.27260044642857  9.415690104166666 22.175292968750018  C 9.412434895833334 22.15907505580357  9.420572916666666 22.14447893415179  9.43359375 22.13636997767857  C 9.448242187500016 22.128261021205358  9.464518229166666 22.128261021205358  9.4775390625 22.13799176897321  C 9.4921875 22.14934430803571  9.500325520833334 22.1639404296875  9.501953125 22.18178013392857  C 9.506835937499984 22.22719029017857  9.53125 22.243408203125  9.5751953125 22.2320556640625  C 9.5947265625 22.22719029017857  9.6142578125 22.21745954241071  9.632161458333334 22.20124162946429  C 9.666341145833334 22.17042759486607  9.680989583333334 22.176914760044642  9.679361979166666 22.222324916294642  C 9.664713541666666 22.49640764508929  9.6142578125 22.83698381696429  9.52799479166665 23.24729701450893  C 9.498697916666666 23.388392857142858  9.4921875 23.553815569196445  9.510091145833334 23.743565150669642  C 9.510091145833334 23.751674107142858  9.506835937499984 23.75978306361607  9.500325520833334 23.7646484375  C 9.485677083333334 23.77275739397321  9.469401041666666 23.77924455915179  9.451497395833334 23.78086635044643  C 9.415690104166666 23.785731724330358  9.392903645833334 23.80681501116071  9.384765624999984 23.842494419642858  C 9.295247395833334 24.186314174107142  9.290364583333334 24.526890345982157  9.371744791666666 24.864222935267858  L 9.178059895833334 25.761073521205358  L 9.002278645833334 26.42600795200893  C 8.834635416666666 27.27582659040179  8.663736979166666 27.91156877790177  8.491210937500016 28.33323451450893  C 8.356119791666666 28.66570172991071  8.1298828125 28.918701171875  7.815755208333334 29.09223284040179  C 7.119140625 29.476597377232142  6.394856770833317 29.79933384486607  5.642903645833349 30.06206403459823  C 5.169270833333334 30.225864955357142  4.6923828125 30.392909458705358  4.2138671875 30.56157575334821  C 4.138997395833333 30.49994768415179  4.1015625 30.42372349330357  4.1015625 30.33290318080357  C 4.1064453125 29.9063720703125  4.054361979166651 29.58363560267857  3.9453125 29.363071986607142  C 3.818359375 29.106828962053555  3.732096354166667 28.806797572544642  3.6865234375 28.462977818080358  C 3.623046875 27.99103655133929  3.865559895833333 27.50449916294643  4.013671874999984 27.07148088727679  C 4.077148437500016 26.888218470982142  4.153645833333333 26.601161411830358  4.241536458333333 26.21355329241071  C 4.306640625 25.926496233258945  4.384765625 25.65403529575893  4.475911458333333 25.39617047991071  C 4.514973958333333 25.28102329799107  4.544270833333349 25.16587611607143  4.565429687500016 25.049107142857142  C 4.586588541666667 24.92585100446429  4.619140625 24.809082031249982  4.664713541666651 24.69880022321429  C 4.833984375 24.2982177734375  4.972330729166682 23.88628278459821  5.079752604166666 23.46299525669643  C 5.195312500000016 23.0072719029018  5.319010416666666 22.579119001116055  5.44921875 22.18015834263393  C 5.626627604166666 21.6417236328125  5.810546875 21.087071010044642  5.999348958333334 20.51457868303571  C 6.023763020833334 20.436732700892858  6.041666666666666 20.357264927455358  6.049804687500016 20.277797154017858  C 6.07421875 20.062098911830358  6.207682291666666 19.951817103794642  6.248372395833334 19.73774065290179  C 6.324869791666666 19.338779994419642  6.42578125 18.941441127232142  6.551106770833334 18.54572405133929  C 6.658528645833317 18.21001325334821  6.749674479166666 17.83375767299107  6.824544270833334 17.4185791015625  C 7.006835937500016 16.406581333705358  7.049153645833334 15.128609793526785  6.676432291666666 14.144182477678571  C 6.297200520833334 13.145159040178571  5.880533854166666 12.223981584821429  5.426432291666666 11.380650111607144  C 5.336914062499984 11.211983816964285  5.275065104166651 10.986554827008929  5.240885416666666 10.705984933035715  C 5.234374999999984 10.6524658203125  5.205078125 10.615164620535715  5.152994791666651 10.597324916294644  C 5.076497395833334 10.569754464285715  5.001627604166666 10.563267299107144  4.928385416666667 10.576241629464285  C 5.128580729166666 10.342703683035715  5.340169270833334 10.115652901785715  5.559895833333317 9.895089285714285  C 5.740559895833334 9.713448660714285  5.779622395833334 9.573974609375  5.724283854166683 9.332327706473215  C 5.498046875 8.343035016741071  5.15625 7.353742327008928  4.698893229166667 6.364449637276786  C 4.690755208333333 6.3579624720982215  4.676106770833333 6.322283063616072  4.656575520833333 6.259033203125  C 4.6337890625 6.137398856026786  4.581705729166667 5.989815848214286  4.500325520833333 5.813040597098214  C 3.5074869791666825 3.6511928013392936  2.163085937499984 1.773158482142857  0.46712239583333337 0.1821812220982143  Z " fill-rule="nonzero" fill="#751f83" stroke="none" transform="matrix(1 0 0 1 226 323 )" />
  </g>
</svg>