<?xml version="1.0" encoding="utf-8"?>
<svg version="1.1" xmlns:xlink="http://www.w3.org/1999/xlink" width="3px" height="6px" xmlns="http://www.w3.org/2000/svg">
  <g transform="matrix(1 0 0 1 -219 -323 )">
    <path d="M 2.559375 5.888671875  L 1.6857421874999998 5.869335937500001  C 1.5029296875 5.867578125  1.3517578124999998 5.828906249999992  1.2304687499999831 5.7568359375  C 1.125 5.6953125  1.051171875 5.572265625  1.0107421874999831 5.389453124999992  C 0.8332031249999999 4.6107421875  0.7189453125 4.095703125  0.6714843749999999 3.8478515625000003  C 0.6152343749999829 3.5542968749999915  0.5888671875 3.234375  0.594140625000017 2.8916015625  C 0.5712890624999829 2.197265625  0.5818359375 1.5046875000000002  0.6292968750000001 0.8173828125  C 0.6310546875 0.8015625000000001  0.6205078125000001 0.7119140625  0.6011718749999999 0.5484374999999999  C 0.592382812499983 0.474609375  0.6046875 0.404296875  0.6345703125 0.3375  C 0.6626953124999999 0.2759765625  0.6873046875 0.2759765625  0.7066406249999999 0.34101562500000004  C 0.9070312500000001 1.0054687499999915  1.0617187499999998 1.6910156250000001  1.1724609375 2.39765625  C 1.18125 2.4468750000000004  1.2041015625 2.4873046875  1.2427734375 2.5189453124999996  C 1.265625 2.53828125  1.2796875 2.5628906249999996  1.283203125 2.591015625  C 1.2849609375000002 2.6173828125  1.2884765625 2.6332031249999996  1.2902343749999998 2.6384765625  C 1.44140625 3.1253906249999996  1.599609375 3.603515625  1.7630859374999999 4.0728515625  C 1.828125 4.260937500000001  1.9195312500000001 4.4244140625  2.0408203125 4.566796875  C 2.169140625 4.7162109375  2.2623046874999826 4.884960937500008  2.3238281250000004 5.073046874999999  C 2.3431640624999996 5.1328125  2.3783203124999996 5.183789062500001  2.42578125 5.227734375000001  C 2.5857421875 5.3736328125  2.6666015625000004 5.5599609375  2.66484375 5.78671875  C 2.6630859375 5.85703125  2.6279296875 5.890429687499999  2.559375 5.888671875  Z " fill-rule="nonzero" fill="#8b379f" stroke="none" transform="matrix(1 0 0 1 219 323 )" />
  </g>
</svg>