<?xml version="1.0" encoding="utf-8"?>
<svg version="1.1" xmlns:xlink="http://www.w3.org/1999/xlink" width="4px" height="6px" xmlns="http://www.w3.org/2000/svg">
  <g transform="matrix(1 0 0 1 -227 -329 )">
    <path d="M 1.70068359375 1.6981534090909092  C 2.11083984375 1.3130326704545532  2.45361328125 0.8368252840909091  2.72900390625 0.27112926136363635  C 3.140625 1.2459161931818181  3.4482421875 2.220703125  3.651855468750014 3.1954900568181817  C 3.70166015625 3.43359375  3.66650390625 3.5710227272727275  3.503906249999986 3.75  C 3.30615234375 3.967329545454546  3.11572265625 4.191051136363637  2.935546875 4.4211647727272725  L 2.148925781249986 5.196200284090909  L 1.2700195312499858 5.910511363636363  C 1.189453125 5.490234375  1.11181640625 5.208984375  1.0400390625 5.068359375  C 0.74560546875 4.496271306818182  0.44384765625 3.9177911931818183  0.1347656249999858 3.3313210227272725  C 0.0791015625 3.2242542613636362  0.10546875 3.088423295454546  0.1962890625 3.0133167613636362  C 0.7001953125 2.6058238636363638  1.201171875 2.16796875  1.70068359375 1.6981534090909092  Z " fill-rule="nonzero" fill="#f0fcfe" stroke="none" transform="matrix(1 0 0 1 227 329 )" />
  </g>
</svg>