<?xml version="1.0" encoding="utf-8"?>
<svg version="1.1" xmlns:xlink="http://www.w3.org/1999/xlink" width="9px" height="18px" xmlns="http://www.w3.org/2000/svg">
  <g transform="matrix(1 0 0 1 -214 -327 )">
    <path d="M 4.76092529296875 1.2224786931818181  C 4.81365966796875 0.8069957386363635  4.89111328125 0.5433238636363636  4.99163818359375 0.43306107954545453  C 5.003173828125 1.0482954545454624  5.10040283203125 1.604403409090909  5.28662109375 2.1013849431818183  C 5.81231689453125 3.617897727272727  6.5028076171875 5.046519886363636  7.36138916015625 6.390447443181818  C 7.83929443359375 7.018465909090908  8.21832275390625 7.691228693181818  8.496826171875 8.405539772727273  C 8.21173095703125 8.902521306818182  8.234802246093734 9.348366477272728  8.56768798828125 9.739879261363637  C 8.26611328125 12.335049715909092  7.6201171875 14.855113636363637  6.629699707031266 17.298473011363637  C 6.5621337890625 17.466264204545453  6.46160888671875 17.610085227272727  6.328125 17.731534090909076  C 6.28692626953125 17.768288352272727  6.2391357421875 17.7890625  6.18475341796875 17.790660511363622  L 1.8160400390625 17.918501420454547  C 1.90008544921875 17.860973011363637  1.87701416015625 17.85298295454547  1.7501220703125 17.89453125  C 0.632812499999984 14.495561079545455  0.36090087890625 10.861683238636363  0.46307373046875 7.250177556818182  C 0.46636962890625 7.114346590909092  0.5174560546875 7.005681818181818  0.61798095703125 6.92578125  C 2.219787597656234 5.6393821022727275  3.322265625 4.1340553977272805  4.301147460937516 2.369850852272727  C 4.5714111328125 1.8824573863636365  4.72467041015625 1.5005326704545454  4.76092529296875 1.2224786931818181  Z " fill-rule="nonzero" fill="#f0fcfe" stroke="none" transform="matrix(1 0 0 1 214 327 )" />
  </g>
</svg>