<?xml version="1.0" encoding="utf-8"?>
<svg version="1.1" xmlns:xlink="http://www.w3.org/1999/xlink" width="4px" height="7px" xmlns="http://www.w3.org/2000/svg">
  <g transform="matrix(1 0 0 1 -220 -329 )">
    <path d="M 3.053013392857143 6.546549479166666  C 3.0161830357142856 6.684977213541666  2.970982142857143 6.720865885416666  2.9174107142857144 6.655924479166666  C 2.634486607142857 5.892008463541666  2.2494419642857144 5.172526041666666  1.7639508928571428 4.500895182291666  C 1.8660714285714286 4.394938151041666  1.8694196428571428 4.302652994791666  1.773995535714302 4.225748697916666  C 1.7321428571428734 4.189860026041666  1.70703125 4.145426432291666  1.7020089285714286 4.089029947916666  C 1.6902901785714448 3.9779459635416665  1.6969866071428572 3.8702799479166665  1.7254464285714286 3.7626139322916665  C 1.7405133928571428 3.7027994791666665  1.7388392857142858 3.6446940104166665  1.7220982142857142 3.5882975260416665  C 1.6534598214285714 3.359293619791667  1.5362723214285714 3.166178385416667  1.3722098214285714 3.008951822916667  C 1.2667410714285714 2.908121744791667  1.1696428571428572 2.798746744791667  1.0809151785714124 2.677408854166667  C 0.9369419642857305 2.480875651041667  0.9670758928571429 2.316813151041667  0.8649553571428571 2.110026041666667  C 0.8331473214285714 2.046793619791667  0.8180803571428571 1.9801432291666583  0.81640625 1.9100748697916667  C 0.81640625 1.7733561197916667  0.7762276785714286 1.6468912760416665  0.6958705357142857 1.532389322916675  C 0.6456473214285714 1.4606119791666665  0.6188616071428571 1.3802897135416665  0.6138392857142857 1.2914225260416665  C 0.6071428571428571 1.1529947916666665  0.5719866071428571 1.019694010416675  0.5083705357142857 0.8881022135416666  C 0.41964285714285715 0.7052408854166667  0.3861607142857143 0.5121256510416667  0.40792410714285715 0.31217447916666663  C 0.41629464285714285 0.23014322916666666  0.4799107142857143 0.16520182291667496  0.5602678571428734 0.15836588541666669  C 1.09765625 0.10880533854166666  1.6116071428571428 0.16007486979166669  2.1021205357142856 0.31217447916666663  C 2.1556919642857144 0.32926432291666663  2.2025669642857144 0.36686197916666663  2.2310267857142856 0.41642252604166663  C 2.33984375 0.6009928385416667  2.482142857142857 0.7616373697916667  2.547433035714302 0.9650065104166666  C 2.671316964285698 1.3495279947916665  2.7818080357142856 1.7169596354166665  2.87890625 2.065592447916658  C 2.8973214285714284 2.128824869791667  2.9073660714285716 2.195475260416667  2.9090401785714284 2.268961588541658  C 2.9107142857142856 2.332194010416667  2.9174107142857144 2.386881510416667  2.9324776785714284 2.433024088541667  C 3.041294642857143 2.802164713541667  3.135044642857143 3.181559244791667  3.2170758928571592 3.5694986979166665  C 3.2237723214285716 3.6019694010416665  3.2622767857142856 3.7062174479166665  3.334263392857143 3.8822428385416665  C 3.39453125 4.027506510416666  3.3677455357142856 4.177897135416666  3.404575892857127 4.338541666666666  C 3.489955357142873 4.712809244791666  3.5200892857142856 5.088785807291666  3.4916294642857144 5.466471354166666  C 3.486607142857143 5.533121744791666  3.4715401785714284 5.596354166666666  3.443080357142857 5.657877604166666  L 3.39453125 5.763834635416666  C 3.369419642857143 5.816813151041666  3.3660714285714284 5.871500651041666  3.384486607142873 5.927897135416666  C 3.4062500000000164 5.994547526041666  3.396205357142857 6.057779947916666  3.3543526785714284 6.117594401041666  C 3.3275669642857144 6.156901041666666  3.3325892857142856 6.191080729166666  3.369419642857143 6.220133463541666  C 3.3911830357142856 6.238932291666666  3.4062500000000164 6.262858072916666  3.4112723214285716 6.291910807291666  C 3.416294642857143 6.312418619791666  3.4112723214285716 6.332926432291666  3.3995535714285716 6.351725260416666  C 3.342633928571445 6.445719401041666  3.2589285714285876 6.488444010416666  3.150111607142857 6.476481119791666  C 3.0982142857142856 6.471354166666666  3.06640625 6.493570963541666  3.053013392857143 6.546549479166666  Z " fill-rule="nonzero" fill="#751f83" stroke="none" transform="matrix(1 0 0 1 220 329 )" />
  </g>
</svg>