<?xml version="1.0" encoding="utf-8"?>
<svg version="1.1" xmlns:xlink="http://www.w3.org/1999/xlink" width="8px" height="9px" xmlns="http://www.w3.org/2000/svg">
  <g transform="matrix(1 0 0 1 -222 -328 )">
    <path d="M 0.09375 0.67291259765625  L 0.0031249999999848417 0.04998779296875  L 0.43437500000001517 0.19500732421875  C 1.4546875 0.569091796875  2.3390625 1.192016601562508  3.0890624999999847 2.06378173828125  C 3.6109375 2.67022705078125  4.106250000000015 3.28656005859375  4.575000000000015 3.9144287109375  C 4.60625 3.957275390625  4.6546875 3.983642578125  4.7046875 3.98858642578125  C 4.75625 3.9935302734375  4.807812499999985 3.9737548828125  4.8453125 3.9375  C 5.134375 3.65899658203125  5.4359375 3.4134521484375  5.75 3.20086669921875  C 6.2484375 2.8663330078125  6.8875 2.231872558593758  7.6703125 1.2974853515625  C 7.6890625 1.36175537109375  7.703125 1.398010253906258  7.7109375 1.40460205078125  C 7.4171875 1.98797607421875  7.0515625 2.479064941406258  6.6140625 2.876220703125  C 6.08125 3.3607177734375  5.546875 3.812255859375  5.009375 4.23248291015625  C 4.9125 4.3099365234375  4.884375 4.45001220703125  4.9437499999999845 4.5604248046875  C 5.2734375 5.16522216796875  5.5953125 5.76177978515625  5.909375 6.35174560546875  C 5.9859375 6.49676513671875  6.06875 6.78680419921875  6.1546874999999845 7.22021484375  C 5.29375 7.85137939453125  4.315625 8.2584228515625  3.2203125 8.4429931640625  C 3.10625 8.413330078125  2.9890625 8.40509033203125  2.86875 8.419921875  C 2.56875 7.93377685546875  2.265625 7.44927978515625  1.959375 6.9664306640625  C 1.859375000000015 6.8082275390625  1.74375 6.55279541015625  1.6140625 6.20013427734375  C 1.4625 5.78814697265625  1.2265625 5.4371337890625  0.9031250000000152 5.1470947265625  L 0.146875 1.33868408203125  L 0.09375 0.67291259765625  Z " fill-rule="nonzero" fill="#d39af6" stroke="none" transform="matrix(1 0 0 1 222 328 )" />
  </g>
</svg>