<?xml version="1.0" encoding="utf-8"?>
<svg version="1.1" xmlns:xlink="http://www.w3.org/1999/xlink" width="15px" height="13px" xmlns="http://www.w3.org/2000/svg">
  <g transform="matrix(1 0 0 1 -165 -327 )">
    <path d="M 10.852801983173077 1.1839758831521738  C 11.25 0.8478260869565298  11.753680889423077 0.6756114130434783  12.367225060096153 0.6673318614130436  L 13.094012920673077 0.7103855298913044  C 13.609525240384615 0.9289656929347827  14.064190204326923 1.2535241168478262  14.4580078125 1.6857167119565135  C 14.971829927884615 2.896187160326079  14.696326622596153 3.909604279891304  13.631497896634615 4.724312160326087  L 13.430363581730768 4.843537703804349  C 12.649489182692308 5.257515285326087  11.922701322115385 5.717858355978261  11.25 6.226222826086956  C 11.025202824519232 6.396781589673913  10.274752103365385 6.7312754755434785  9.000338040865385 7.231360394021738  C 8.860051081730768 7.286005434782608  8.701171875 7.375424592391304  8.520320012019232 7.499617866847826  C 8.471304086538462 7.5327360733695645  8.449331430288462 7.5791015625  8.454402043269232 7.637058423913044  C 8.520320012019232 8.469981317934783  8.968224158653847 9.067764945652174  9.498948317307692 9.768215013586957  C 9.767690805288462 10.122579823369565  9.926570012019232 10.455417798913043  9.886005108173077 10.862771739130435  C 9.825157752403847 11.448963994565217  9.487116887019232 11.765242866847826  8.873572716346153 11.809952445652174  C 8.652155949519232 11.826511548913043  8.508488581730777 11.75696331521739  8.440880408653847 11.602963654891303  C 8.197490985576923 11.05651324728261  7.9828350360576925 10.670686141304348  7.798602764423077 10.44713824728261  C 7.825646033653847 10.458729619565217  7.847618689903847 10.465353260869565  7.864520733173085 10.468665081521738  C 7.889873798076923 10.4736328125  7.913536658653847 10.46204144021739  7.9253680889423075 10.440514605978262  C 7.9388897235576925 10.418987771739129  7.933819110576923 10.392493206521738  7.9169170673077005 10.374278192934783  C 7.465632512019231 9.918902853260871  6.909555288461538 9.809612771739129  6.248685396634616 10.049719769021738  C 6.241924579326923 10.051375679347826  6.236853966346145 10.056343410326088  6.235163762019231 10.061311141304348  C 6.230093149038462 10.074558423913043  6.223332331730769 10.087805706521738  6.21826171875 10.101052989130435  C 6.2030498798076925 10.129203464673912  6.1810772235576925 10.147418478260871  6.148963341346154 10.154042119565217  C 5.937687800480769 10.198751698369565  5.790640024038462 10.306385869565217  5.7061298076923075 10.476944633152174  C 5.687537560096145 10.51171875  5.660494290865384 10.536557404891303  5.623309795673077 10.551460597826088  C 5.538799579326923 10.587890625  5.4864032451922995 10.654127038043478  5.4644305889423075 10.750169836956522  C 5.450908954326923 10.808126698369565  5.417104867788462 10.852836277173912  5.363018329326923 10.882642663043478  C 5.185546875 10.978685461956522  5.06385216346153 11.193953804347826  5.107797475961538 11.395974864130435  C 5.1263897235576925 11.480426290760871  5.11962890625 11.559909986413043  5.085824819711546 11.634425951086957  C 5.070612980769231 11.669200067934783  5.065542367788462 11.70397418478261  5.067232572115384 11.740404211956522  L 5.1044170673076925 12.573327105978262  C 5.106107271634607 12.613068953804348  5.085824819711546 12.651154891304348  5.050330528846154 12.67102581521739  C 4.884690504807684 12.768724524456522  4.732572115384616 12.778659986413043  4.59228515625 12.697520380434783  C 4.580453725961538 12.690896739130435  4.5703125 12.690896739130435  4.558481069711538 12.697520380434783  C 4.4452373798076925 12.765412703804348  4.316781850961538 12.773692255434783  4.171424278846154 12.725670855978262  C 4.113957331730777 12.707455842391303  4.054800180288462 12.695864470108697  3.9956430288461537 12.692552649456522  C 3.535907451923077 12.669369904891303  3.09814453125 12.634595788043478  2.6840444711538463 12.589886209239129  C 2.5708007812499916 12.578294836956522  2.3172701322115303 12.589886209239129  1.9234525240384617 12.624660326086957  C 1.86767578125 12.629628057065217  1.8169696514423077 12.61803668478261  1.7696439302884615 12.589886209239129  C 1.6564002403846154 12.51868206521739  1.534705528846154 12.473972486413043  1.40625 12.4541015625  C 1.299767127403846 12.439198369565217  1.2828650841346236 12.470660665760871  1.3555438701923077 12.548488451086957  C 1.3741361177884615 12.570015285326088  1.387657752403838 12.59485394021739  1.3977989783653846 12.626316236413043  C 1.4096304086538545 12.659434442934783  1.3961087740384615 12.674337635869565  1.3606144831730769 12.669369904891303  C 1.3285006009615385 12.664402173913043  1.3132887620192308 12.646187160326088  1.3132887620192308 12.611413043478262  C 1.3115985576923077 12.462381114130435  1.2592022235576923 12.391176970108697  1.1560997596153928 12.396144701086957  L 0.2569110576923077 11.131029211956522  C 0.04563551682692308 9.900687839673912  0.10141225961538462 8.751486073369565  0.42086087740384615 7.680112092391304  L 0.7504507211538461 6.799167798913044  C 1.9014798677884617 4.669667119565218  3.654221754807692 3.295261548913044  6.010366586538462 2.675951086956522  C 6.076284555288462 2.6593919836956603  6.1151592548076925 2.6179942255434865  6.125300480769231 2.550101902173913  C 6.285869891826923 1.518469769021739  6.865609975961538 0.8511379076086956  7.864520733173085 0.5481063179347906  C 8.626802884615385 0.3179347826086957  9.378943810096153 0.3907948369565218  10.119253305288462 0.7683423913043478  C 10.345740685096153 0.8842561141304348  10.486027644230768 1.0763417119565217  10.698993389423077 1.1988790760869485  C 10.754770132211538 1.2303413722826007  10.805476262019232 1.225373641304348  10.852801983173077 1.1839758831521738  Z " fill-rule="nonzero" fill="#6e1715" stroke="none" transform="matrix(1 0 0 1 165 327 )" />
  </g>
</svg>