<?xml version="1.0" encoding="utf-8"?>
<svg version="1.1" xmlns:xlink="http://www.w3.org/1999/xlink" width="6px" height="19px" xmlns="http://www.w3.org/2000/svg">
  <g transform="matrix(1 0 0 1 -231 -329 )">
    <path d="M 2.14921875 5.1281881893382355  C 2.0314453125 3.420611213235294  2.1017578125 1.7359547334558825  2.36015625 0.07421875  C 3.4658203125 0.44422104779411764  3.9070312499999997 0.9795783547794118  4.399218749999983 1.9880801930147058  C 4.726171875 2.65768612132353  5.014453124999983 3.556497012867647  5.2640625 4.684512867647059  C 5.485546875000001 6.249655330882352  5.520703124999983 7.78369140625  5.371289062500001 9.284983915441178  L 5.318554687500001 10.38025620404412  L 5.197265625 11.786592371323529  C 5.0302734375 13.602223115808824  4.764843750000001 15.396570542279411  4.402734375 17.166360294117645  C 4.353515625 17.28259995404412  4.325390625000001 17.415211397058822  4.318359375 17.562557444852956  L 4.121484375 18.394244025735293  C 4.03359375 18.053710937500018  4.038867187499999 17.709903492647058  4.135546874999983 17.36282169117647  C 4.144335937499999 17.326803768382355  4.1689453125 17.305520450367645  4.2076171875 17.300608915441178  C 4.226953125 17.298971737132355  4.24453125 17.292423023897058  4.2603515625 17.284237132352942  C 4.267382812499983 17.27932559742647  4.2708984375 17.271139705882355  4.2708984375 17.262953814338236  C 4.2515625 17.0714039522059  4.258593749999999 16.90441176470588  4.290234374999983 16.761977251838236  C 4.3833984375 16.34777113970588  4.437890625 16.003963694852942  4.4537109375 15.727280560661764  C 4.45546875 15.681439568014705  4.439648437500001 15.674890854779411  4.402734375 15.70599724264706  C 4.3833984375 15.722369025735295  4.3623046875 15.732192095588236  4.3412109375 15.737103630514705  C 4.293749999999999 15.748563878676471  4.267382812499983 15.732192095588236  4.262109375 15.686351102941176  C 4.2603515625 15.66834214154412  4.2515625 15.653607536764705  4.2357421875 15.64214728860294  C 4.2216796875 15.63232421875  4.204101562500018 15.63232421875  4.188281249999999 15.64051011029412  C 4.17421875 15.648696001838236  4.1654296875 15.663430606617647  4.1689453125 15.679802389705898  C 4.188281249999999 15.778033088235295  4.1654296875 15.871352251838236  4.1021484375 15.961397058823529  C 4.082812499999999 15.987591911764722  4.091601562499983 16.00232651654412  4.125 16.007238051470605  C 4.1390625 16.00887522977941  4.149609375000001 16.018698299632355  4.156640625 16.03670726102941  C 4.163671875 16.05799057904412  4.1548828125 16.067813648897044  4.132031250000001 16.0694508272059  C 3.9720703124999996 16.07763671875  3.917578125000017 16.143123851102942  3.9685546874999997 16.26427504595588  C 3.9843750000000173 16.301930147058822  3.9755859375 16.331399356617645  3.9404296875000173 16.355957031250018  C 3.850781249999983 16.41653262867649  3.7804687500000003 16.488568474264707  3.7259765624999996 16.57042738970588  C 3.6908203124999996 16.62609145220588  3.6398437500000003 16.645737591911764  3.5712890625 16.62936580882353  C 3.5484375000000004 16.624454273897058  3.52734375 16.627728630514707  3.5080078125000003 16.642463235294134  C 3.4693359375000004 16.673569623161764  3.4605468750000004 16.70958754595588  3.4798828124999996 16.75379136029412  C 3.5396484375000004 16.88640280330881  3.5484375000000004 17.025562959558822  3.5080078125000003 17.17454618566178  C 3.4886718749999996 17.24167049632353  3.5080078125000003 17.253130744485293  3.566015625000017 17.208926930147058  C 3.5712890625 17.20565257352941  3.5730468749999997 17.200741038602942  3.5748046875000004 17.194192325367663  C 3.5888671875000173 17.14016544117647  3.6187500000000004 17.13034237132353  3.6644531249999996 17.1630859375  C 3.6714843750000004 17.16799747242647  3.674999999999983 17.17618336397059  3.6732421874999996 17.18600643382353  C 3.6644531249999996 17.24167049632353  3.6714843750000004 17.243307674632355  3.6943359375 17.19091796875  C 3.7066406250000004 17.1630859375  3.7259765624999996 17.14343979779412  3.7523437499999996 17.128705193014707  C 3.7751953124999997 17.11560776654412  3.8015624999999997 17.11233340992649  3.8279296874999833 17.117244944852942  C 3.9087890625000004 17.13361672794119  3.9562500000000003 17.172909007352924  3.9720703124999996 17.235121783088253  C 3.9843750000000173 17.297334558823543  3.9580078125 17.32516659007353  3.8912109375000004 17.320255055147058  C 3.7980468750000003 17.312069163602942  3.697851562500017 17.312069163602942  3.5941406249999996 17.318617876838236  C 3.5501953124999996 17.32189223345588  3.543164062499983 17.33498965992647  3.5765624999999996 17.359547334558822  C 3.5818359374999997 17.36282169117647  3.5853515624999996 17.364458869485293  3.5888671875000173 17.364458869485293  C 3.6205078124999996 17.36282169117647  3.6222656250000003 17.37100758272059  3.5958984375000003 17.387379365808822  C 3.4464843750000003 17.48069852941178  3.333984375 17.605124080882355  3.2566406249999833 17.759018841911764  C 3.2337890624999996 17.804859834558822  3.1968750000000004 17.83596622242647  3.1441406250000004 17.85070082720588  L 2.578125000000017 18.012781479779427  C 2.5218749999999996 18.029153262867645  2.4656249999999833 18.03079044117647  2.409375 18.01769301470588  C 2.2740234375000004 17.988223805147058  2.1597656250000172 18.007869944852942  2.0666015625 18.07499425551472  C 1.9593749999999999 18.153578814338236  1.8328125000000002 18.20760569852941  1.6904296875 18.238712086397076  C 1.4830078125 18.282915900735293  1.29140625 18.26326976102941  1.1138671875 18.17649931066178  C 1.05234375 18.14539292279412  1.0171875000000172 18.163401884191178  1.01015625 18.227251838235293  C 1.0013671875 18.307473575367645  0.9679687499999999 18.379509420955866  0.9099609375000001 18.440085018382355  C 0.864257812500017 18.489200367647058  0.837890625 18.481014476102942  0.8326171874999999 18.41552734375  C 0.8238281249999999 18.297650505514692  0.7693359375000001 18.19614545036763  0.669140625 18.112649356617645  C 0.6199218749999829 18.071719898897058  0.6005859375000171 18.022604549632355  0.6128906249999999 17.96202895220588  C 0.6462890625 17.796673943014707  0.6058593750000001 17.65096507352941  0.4951171875 17.528176700367645  C 0.45468749999999997 17.48233570772059  0.43359375 17.425034466911764  0.43359375 17.36609604779412  C 0.43183593750000004 16.83401309742647  0.5162109374999999 16.30029296875  0.690234375 15.768210018382353  C 0.9486328125000001 14.982364430147042  1.22109375 14.140854779411764  1.5111328124999999 13.243681066176471  C 1.7730468750000001 12.426729090073529  1.9628906250000169 11.649069393382353  2.07890625 10.91070197610294  C 2.3812499999999996 8.960822610294118  2.2810546875 7.05023552389706  2.14921875 5.1281881893382355  Z " fill-rule="nonzero" fill="#8b379f" stroke="none" transform="matrix(1 0 0 1 231 329 )" />
  </g>
</svg>