<?xml version="1.0" encoding="utf-8"?>
<svg version="1.1" xmlns:xlink="http://www.w3.org/1999/xlink" width="8px" height="19px" xmlns="http://www.w3.org/2000/svg">
  <g transform="matrix(1 0 0 1 -219 -326 )">
    <path d="M 0.45870535714285715 0.18118106617647062  C 0.48214285714287336 0.23193359375  0.5172991071428571 0.32361557904411764  0.5658482142857305 0.457864200367647  C 0.5608258928571429 0.7771139705882353  0.5859374999999838 1.0750804227941098  0.6395089285714286 1.348489200367647  C 0.6847098214285714 1.579331341911765  0.7935267857142857 2.059024586397059  0.9626116071428409 2.7842945772058747  C 1.0011160714285714 2.95456112132353  1.0714285714285714 3.069163602941176  1.1718749999999838 3.12646484375  C 1.2873883928571428 3.193589154411757  1.4313616071428572 3.2296070772058822  1.60546875 3.231244255514706  C 1.9118303571428572 3.347483915441184  2.239955357142873 3.3785903033088314  2.58984375 3.322926240808824  C 2.6199776785714284 3.318014705882353  2.646763392857143 3.3016429227941178  2.6635044642857144 3.277085248161765  C 2.680245535714302 3.2525275735294117  2.685267857142857 3.221421185661765  2.6785714285714124 3.191951976102941  L 2.5396205357142856 2.6123908547794117  C 2.5262276785714284 2.5550896139705883  2.5396205357142856 2.548540900735286  2.579799107142857 2.591107536764706  L 2.8761160714285716 2.897259880514714  C 2.8978794642857144 2.920180376838235  2.9079241071428408 2.948012408088227  2.904575892857143 2.980755974264706  C 2.89453125 3.0626148897058822  2.931361607142873 3.119916130514706  3.0150669642857304 3.1526596966911686  C 3.0552455357142696 3.1690314797794117  3.0853794642857144 3.203412224264698  3.092075892857143 3.2459788602941178  C 3.1138392857142856 3.3638556985294117  3.1791294642857144 3.4751838235294117  3.2896205357142856 3.581600413602941  C 3.3314732142857144 3.62252987132353  3.364955357142857 3.615981158088235  3.3934151785714284 3.565228630514706  C 3.4101562499999836 3.532485064338235  3.4335937500000164 3.504653033088235  3.4654017857142856 3.48336971507353  C 3.5005580357142856 3.458812040441176  3.5206473214285716 3.466997931985294  3.52734375 3.5079273897058822  C 3.5340401785714284 3.54885684742647  3.5541294642857144 3.568502987132353  3.5859375 3.565228630514706  L 4.396205357142874 7.348747702205882  C 4.359375 8.018353630514705  4.4296875 8.638844209558822  4.607142857142857 9.210219439338236  C 4.6640625 9.396857766544118  4.782924107142857 9.468893612132353  4.953683035714286 9.539292279411764  C 5.005580357142857 9.560575597426471  5.044084821428588 9.596593520220589  5.072544642857143 9.644071691176471  C 5.164620535714286 9.80615234375  5.181361607142857 9.99115349264706  5.12109375 10.197437959558824  C 4.995535714285714 10.20562385110294  4.911830357142857 10.23181870404412  4.866629464285714 10.277659696691176  C 4.801339285714286 10.346421185661764  4.81640625 10.375890395220589  4.911830357142857 10.367704503676471  C 4.970424107142857 10.36279296875  5.0390625 10.32513786764706  5.117745535714286 10.258013556985295  C 5.378906250000016 10.59527228860294  5.211495535714302 11.240320542279411  5.266741071428571 11.57921645220588  C 5.487723214285714 12.939711626838236  5.861049107142874 14.290383731617647  6.388392857142857 15.627958409926471  C 6.473772321428571 15.986500459558824  6.609375 16.253360523897058  6.791852678571429 16.428538602941178  C 7.037946428571429 16.66592945772059  7.270647321428571 16.91641773897059  7.486607142857143 17.183277803308822  C 7.511718749999984 17.216021369485293  7.545200892857143 17.235667509191178  7.587053571428571 17.240579044117645  C 7.602120535714286 17.24221622242647  7.618861607142874 17.24549057904412  7.633928571428571 17.247127757352942  C 7.685825892857143 17.253676470588236  7.712611607142857 17.281508501838236  7.714285714285714 17.332261029411764  L 7.739397321428571 18.221248851102956  C 7.739397321428571 18.319479549632355  7.724330357142857 18.409524356617645  7.695870535714286 18.493020450367645  C 7.513392857142874 18.538861443014707  7.349330357142857 18.53231272977941  7.200334821428588 18.47501148897059  C 7.143415178571429 18.45372817095588  7.103236607142857 18.41443589154412  7.081473214285714 18.360409007352942  C 7.01116071428573 18.19177964154412  6.892299107142857 18.106646369485293  6.7265625 18.10500919117647  C 6.664620535714286 18.10500919117647  6.619419642857143 18.13284122242647  6.594308035714286 18.186868106617645  L 6.487165178571412 18.41934742647059  C 6.452008928571429 18.493020450367645  6.428571428571429 18.48974609375  6.413504464285714 18.41116153492647  L 6.376674107142857 18.222886029411764  C 5.569754464285714 17.052303538602942  5.049107142857143 15.99304917279412  4.776227678571429 14.607996323529411  C 4.560267857142857 13.512724034926471  4.377790178571429 12.409265854779411  4.228794642857159 11.297621783088236  C 4.220424107142857 11.24359489889706  4.190290178571429 11.212488511029411  4.13671875 11.202665441176471  L 3.560825892857143 11.09624885110294  C 3.2226562499999836 10.695140165441176  3.19921875 10.238367417279411  3.4888392857142856 9.729204963235295  C 3.5424107142857144 9.791417738970589  3.587611607142857 9.757036994485295  3.6244419642857144 9.624425551470589  C 3.6378348214285716 9.57367302389706  3.669642857142857 9.552389705882353  3.7215401785714284 9.557301240808824  C 3.8303571428571592 9.568761488970589  3.9140625000000164 9.52783203125  3.970982142857143 9.437787224264705  C 3.982700892857143 9.419778262867647  3.9877232142857144 9.400132123161764  3.982700892857143 9.380485983455882  C 3.9776785714285876 9.352653952205882  3.962611607142857 9.329733455882353  3.9408482142857144 9.311724494485295  C 3.904017857142857 9.283892463235295  3.8989955357142856 9.251148897058822  3.92578125 9.213493795955882  C 3.9676339285714284 9.15619255514706  3.9776785714285876 9.095616957720589  3.955915178571445 9.031767003676471  C 3.9375 8.977740119485295  3.9408482142857144 8.92535041360294  3.9659598214285716 8.874597886029411  L 4.014508928571429 8.773092830882353  C 4.04296875 8.714154411764705  4.058035714285714 8.653578814338236  4.063058035714286 8.589728860294118  C 4.091517857142857 8.227912454044118  4.061383928571445 7.86773322610294  3.976004464285698 7.509191176470588  C 3.939174107142857 7.355296415441177  3.9659598214285716 7.211224724264706  3.9056919642857144 7.072064568014706  C 3.833705357142857 6.903435202205882  3.795200892857143 6.803567325367648  3.7885044642857304 6.7724609375  C 3.7064732142857144 6.40082146139706  3.6127232142857144 6.0373678768382355  3.50390625 5.683737362132352  C 3.4888392857142856 5.639533547794118  3.482142857142857 5.5871438419117645  3.48046875 5.526568244485286  C 3.478794642857143 5.456169577205882  3.46875 5.3923196231617645  3.4503348214285716 5.331744025735286  C 3.353236607142857 4.997759650735294  3.2427455357142696 4.6457663143382355  3.118861607142873 4.277401194852941  C 3.0535714285714284 4.082576976102941  2.9112723214285716 3.92868221507353  2.802455357142857 3.7518669577205883  C 2.7739955357142856 3.704388786764706  2.7271205357142856 3.6683708639705883  2.673549107142857 3.651999080882353  C 2.1830357142857144 3.506290211397059  1.6690848214285714 3.457174862132353  1.1316964285714448 3.504653033088235  C 1.0513392857142858 3.5112017463235374  0.9877232142857143 3.573414522058824  0.9793526785714286 3.651999080882353  C 0.9575892857142857 3.843548943014706  0.9910714285714286 4.0285500919117645  1.0797991071428572 4.203728170955882  C 1.1434151785714286 4.3297909007353015  1.1785714285714286 4.45749080882353  1.1852678571428572 4.5901022518382355  C 1.1902901785714286 4.675235523897059  1.2170758928571428 4.7521829044117645  1.2672991071428572 4.820944393382361  C 1.34765625 4.93063534007353  1.3878348214285714 5.05178653492647  1.3878348214285714 5.182760799632352  C 1.3895089285714286 5.249885110294111  1.4045758928571428 5.3137350643382355  1.4363839285714286 5.374310661764706  C 1.5385044642857142 5.572409237132352  1.508370535714302 5.729578354779412  1.6523437499999838 5.917853860294118  C 1.7410714285714286 6.034093520220588  1.8381696428571428 6.138872931985294  1.9436383928571428 6.235466452205882  C 2.107700892857143 6.386086856617648  2.224888392857143 6.571088005514706  2.2935267857142856 6.79046989889706  C 2.310267857142857 6.8444967830882355  2.3119419642857144 6.9001608455882355  2.296875 6.95746208639706  C 2.2684151785714284 7.06060431985294  2.2617187500000164 7.163746553308823  2.2734375 7.270163143382352  C 2.2784598214285716 7.32419002757353  2.303571428571445 7.36675666360294  2.345424107142873 7.4011374080882355  C 2.4408482142857144 7.474810431985294  2.4375 7.5632180606617645  2.3353794642857144 7.664723115808823  C 1.4631696428571428 6.2878561580882355  0.76171875 4.82421875  0.22767857142857142 3.27053653492647  C 0.2544642857142857 3.23288143382353  0.26785714285714285 3.18212890625  0.26785714285714285 3.121553308823521  C 0.2661830357142857 3.060977711397067  0.29799107142857145 3.031508501838235  0.3599330357142857 3.036420036764706  C 0.45033482142857145 3.041331571691176  0.5072544642857143 3.0020392922794117  0.5323660714285714 2.9169060202205808  C 0.5909598214285714 2.710621553308824  0.5809151785714286 2.532169117647059  0.5039062500000162 2.381548713235294  C 0.45535714285714285 2.2865923713235294  0.42354910714285715 2.189998851102941  0.4068080357142857 2.0917681525735294  C 0.2963169642857143 1.443445542279404  0.2544642857142857 0.8180434283088235  0.28125 0.21556181066175675  C 0.29296874999998374 -0.034926470588235295  0.3515625 -0.04638671875  0.45870535714285715 0.18118106617647062  Z " fill-rule="nonzero" fill="#351c66" stroke="none" transform="matrix(1 0 0 1 219 326 )" />
  </g>
</svg>