<?xml version="1.0" encoding="utf-8"?>
<svg version="1.1" xmlns:xlink="http://www.w3.org/1999/xlink" width="3px" height="8px" xmlns="http://www.w3.org/2000/svg">
  <g transform="matrix(1 0 0 1 -223 -333 )">
    <path d="M 1.6042968750000002 1.8052083333333333  C 1.9488281250000001 2.2630208333333335  2.28984375 2.722395833333333  2.6273437499999996 3.183333333333333  C 2.6923828125 3.806770833333333  2.7134765625000004 4.430208333333334  2.690625 5.055208333333334  C 2.657226562500017 6.000520833333334  2.5974609375 6.977083333333334  2.5078125 7.981770833333333  C 1.9541015625000169 6.705208333333333  1.5621093750000001 5.416145833333333  1.330078125 4.117708333333334  C 1.2720703125000172 3.7942708333333335  1.4478515625000172 3.1786458333333334  1.1736328125000002 2.8567708333333335  C 1.171875 2.8333333333333335  1.171875 2.8130208333333333  1.1771484375 2.798958333333333  C 1.2404296874999998 2.6020833333333333  1.2228515624999998 2.425520833333333  1.1261718749999998 2.2708333333333335  C 1.0962890625000172 2.2255208333333334  1.0558593749999998 2.191145833333333  1.0013671875 2.1708333333333334  C 0.8220703125000001 2.103645833333333  0.697265625 2.034895833333333  0.6375 1.8567708333333333  C 0.451171875 1.3114583333333334  0.37734375000000003 0.7192708333333333  0.4160156250000171 0.08020833333333334  C 0.7798828124999999 0.35520833333333335  1.0453125 0.6880208333333333  1.2158203125 1.0786458333333333  C 1.36171875 1.4130208333333334  1.4917968750000172 1.6552083333333334  1.6042968750000002 1.8052083333333333  Z " fill-rule="nonzero" fill="#ffcafb" stroke="none" transform="matrix(1 0 0 1 223 333 )" />
  </g>
</svg>