<?xml version="1.0" encoding="utf-8"?>
<svg version="1.1" xmlns:xlink="http://www.w3.org/1999/xlink" width="11px" height="26px" xmlns="http://www.w3.org/2000/svg">
  <g transform="matrix(1 0 0 1 -222 -333 )">
    <path d="M 7.6987561677631415 0.8627292798913044  L 8.609580592105264 0.05961277173913044  C 8.68590666118421 0.04636548913043478  8.763928865131579 0.05298913043478261  8.843647203947352 0.08113960597826086  C 8.897923519736842 0.09935461956521739  8.928453947368405 0.13744055706521738  8.935238486842104 0.19208559782608695  C 8.970857319078931 0.4785580842391305  9.035310444078931 0.7087296195652174  9.128597861842104 0.880944293478261  C 9.601819490131579 1.742017663043478  10.036030016447368 2.6825747282608696  10.431229440789474 3.702615489130435  C 10.819644325657896 4.707753057065218  10.775544819078965 6.012610394021739  10.58557771381579 7.0458984375  C 10.507555509868421 7.469811480978262  10.412571957236826 7.8539826766304355  10.300627055921053 8.196756114130435  C 10.170024671052632 8.600798233695652  10.064864309210526 9.006496263586957  9.985145970394736 9.413850203804348  C 9.94274259868421 9.632430366847826  9.803659539473685 9.745032269021738  9.778217516447384 9.965268342391303  C 9.769736842105264 10.046407948369565  9.751079358552632 10.127547554347826  9.725637335526315 10.20703125  C 9.528885690789474 10.791567595108697  9.337222450657896 11.357888926630435  9.15234375 11.907651154891303  C 9.016652960526315 12.31500509510868  8.887746710526333 12.752165421195668  8.767321134868421 13.217476222826088  C 8.655376233552648 13.649668817934783  8.511204769736842 14.070270040760871  8.334806743421035 14.479279891304348  C 8.287314967105264 14.591881793478246  8.253392269736842 14.711107336956523  8.231342516447384 14.836956521739129  C 8.209292763157912 14.956182065217392  8.178762335526315 15.073751698369565  8.13805509868421 15.19132133152174  C 8.043071546052632 15.454611073369565  7.961657072368421 15.73280400815219  7.893811677631579 16.025900135869566  C 7.802220394736842 16.421662703804348  7.722502055921069 16.714758831521742  7.656352796052615 16.901876698369566  C 7.502004523026316 17.34400475543478  7.249280427631579 17.84077785326087  7.3154296875 18.322647758152176  C 7.362921463815789 18.673700747282606  7.452816611842105 18.98004415760868  7.585115131578947 19.241677989130434  C 7.6987561677631415 19.466881793478258  7.753032483552631 19.796407948369566  7.747944078947369 20.231912364130434  C 7.747944078947369 20.324643342391305  7.786955180921053 20.402471127717394  7.864977384868421 20.465395720108695  C 7.814093338815789 20.573029891304348  7.792043585526316 20.647545855978258  7.800524259868421 20.688943614130434  C 8.060032894736826 21.978897758152176  7.909076891447369 23.197647758152176  6.942280016447369 24.1845703125  C 6.368986430921053 24.471042798913043  5.834703947368438 24.84693444293478  5.337736430921052 25.31224524456522  C 4.871299342105263 25.15327785326087  4.567691200657895 25.252632472826072  4.430304276315789 25.60865319293478  C 4.3607627467105265 25.69310461956522  4.255602384868421 25.732846467391305  4.1148231907894735 25.73119055706522  C 3.929944490131579 25.726222826086957  3.772203947368421 25.573879076086957  3.56697162828949 25.628524116847824  C 3.3549547697368585 25.68482506793478  3.159899259868421 25.689792798913043  2.9851973684210527 25.64508322010868  C 2.927528782894737 25.630180027173914  2.8919099506578947 25.595405910326086  2.8800370065789473 25.537449048913043  L 2.6476665296052633 24.451171875  C 2.6527549342105097 24.43461277173913  2.6748046874999836 24.39818274456522  2.7155119243421053 24.341881793478244  C 2.7409539473684212 24.307107676630434  2.7562191611842106 24.267365828804348  2.7630037006578947 24.225968070652176  C 2.9207442434210527 23.230765964673914  2.8427220394736845 22.276961616847824  2.525544819078931 21.362899116847842  C 2.483141447368405 21.23870584239132  2.4169921875 21.126103940217394  2.330489309210526 21.025093410326086  C 2.2575555098684212 20.942297894021742  2.143914473684194 20.904211956521742  2.033665707236842 20.925738790760853  C 1.9251130756578947 20.947265624999982  1.835217927631579 21.025093410326086  1.8012952302631577 21.129415760869566  C 1.674085115131579 21.5185546875  1.2788856907894737 22.52534816576087  0.7327302631578948 22.460767663043477  C 0.517321134868421 22.435929008152176  0.35788445723684215 22.255434782608695  0.36297286184208877 22.043478260869552  C 0.39011101973684215 20.935674252717394  0.7293379934210527 19.94212805706522  1.3806537828947205 19.06283967391303  C 1.7080078125 18.622367527173914  2.037057976973684 18.208389945652176  2.3695004111842106 17.822562839673928  C 2.588301809210526 17.671875  2.807103207236842 17.544369904891305  3.024208470394737 17.440047554347824  C 3.129368832236842 17.388714334239147  3.209087171052632 17.324133831521724  3.2650596217105265 17.244650135869566  C 3.3430818256578947 17.133704144021742  3.3939658717105265 17.022758152173914  3.4160156249999836 16.915123980978258  C 3.5567948190789473 16.267663043478258  3.712839226973668 15.656632133152176  3.7908614309210527 14.971085258152176  C 3.948601973684227 13.578464673913029  4.126696134868421 12.185844089673912  4.323447779605263 10.791567595108697  C 4.352282072368421 10.707116168478262  4.367547286184211 10.616041100543478  4.367547286184211 10.516686480978278  C 4.415039062500017 10.303074048913043  4.445569490131579 10.089461616847826  4.460834703947368 9.87584918478261  C 4.477796052631596 9.62415081521739  4.506630345394737 9.412194293478262  4.5473375822368425 9.239979619565217  C 4.7406969572368425 8.408712635869565  4.864514802631579 7.567510190217392  4.918791118421052 6.714716372282608  C 4.9306640625 6.539189877717392  4.8560341282894735 6.343792459239131  4.847553453947368 6.156674592391305  C 4.861122532894737 6.136803668478261  4.878083881578948 6.128524116847826  4.896741365131579 6.133491847826087  C 4.9340563322368425 6.1417713994565215  4.964586759868404 6.168265964673913  4.979851973684211 6.203040081521739  C 5.001901726973684 6.257685122282608  5.013774671052632 6.310674252717392  5.012078536184211 6.362007472826087  C 5.010382401315789 6.433211616847826  5.0307360197368425 6.439835258152174  5.074835526315789 6.383534307065218  C 5.093493009868437 6.358695652173913  5.103669819078948 6.3322010869565215  5.103669819078948 6.304050611413044  C 5.1019736842105265 6.221255095108695  5.1019736842105265 6.1782014266304355  5.103669819078948 6.174889605978261  C 5.232576069078948 5.592009171195651  5.432719983552648 5.060461956521739  5.702405427631579 4.5785920516304355  C 5.80078125 4.403065557065218  5.829615542763158 4.186141304347826  5.921206825657895 4.010614809782608  C 6.043328536184211 3.780443274456522  6.111173930921069 3.649626358695652  6.124743009868421 3.614852241847826  C 6.435135690789474 2.8796280570652177  6.835423519736842 2.195737092391304  7.323910361842105 1.5631793478260871  C 7.339175575657878 1.5449643342391304  7.351048519736842 1.5019106657608696  7.362921463815789 1.4356742527173911  C 7.371402138157895 1.3826851222826089  7.396844161184211 1.339631453804348  7.442639802631579 1.3081691576086956  C 7.675010279605264 1.1409222146739129  7.759817023026316 0.993546195652174  7.6987561677631415 0.8627292798913044  Z " fill-rule="nonzero" fill="#ad3935" stroke="none" transform="matrix(1 0 0 1 222 333 )" />
  </g>
</svg>