<?xml version="1.0" encoding="utf-8"?>
<svg version="1.1" xmlns:xlink="http://www.w3.org/1999/xlink" width="2px" height="2px" xmlns="http://www.w3.org/2000/svg">
  <g transform="matrix(1 0 0 1 -176 -334 )">
    <path d="M 1.01318359375 0.46240234375  C 1.05859375 0.93701171875  1.0791015625 1.54052734375  1.8115234375 1.27978515625  C 1.88916015625 1.43505859375  1.76025390625 1.5244140625  1.42626953125 1.54931640625  C 1.3720703125 1.5537109375  1.3251953125 1.57421875  1.28857421875 1.61376953125  C 1.2109375 1.6943359375  1.12158203125 1.720703125  1.017578125 1.69287109375  C 0.74365234375 1.62109375  0.4990234375 1.47607421875  0.28515625 1.2607421875  C 0.24853515625 1.22412109375  0.244140625 1.1845703125  0.2705078125 1.140625  L 0.33935546875 1.02197265625  C 0.41259765625 1.06298828125  0.4814453125 1.0732421875  0.54443359375 1.05419921875  C 0.58837890625 1.041015625  0.61181640625 1.01025390625  0.61474609375 0.96484375  L 0.65576171875 0.46533203125  C 0.66015625 0.419921875  0.6806640625 0.384765625  0.72021484375 0.361328125  C 0.7978515625 0.31591796875  0.87109375 0.3115234375  0.93994140625 0.35107421875  C 0.98388671875 0.3759765625  1.0087890625 0.41259765625  1.01318359375 0.46240234375  Z " fill-rule="nonzero" fill="#fe7a57" stroke="none" transform="matrix(1 0 0 1 176 334 )" />
  </g>
</svg>