<?xml version="1.0" encoding="utf-8"?>
<svg version="1.1" xmlns:xlink="http://www.w3.org/1999/xlink" width="2px" height="2px" xmlns="http://www.w3.org/2000/svg">
  <g transform="matrix(1 0 0 1 -176 -334 )">
    <path d="M 1.67529296875 1.1419270833333333  C 1.7822265625 1.3157552083333333  1.78955078125 1.4954427083333333  1.8115234375 1.7063802083333333  C 1.0791015625 2.0540364583333335  1.05859375 1.2493489583333333  1.01318359375 0.6165364583333334  C 1.0087890625 0.5501302083333334  0.98388671875 0.5013020833333334  0.93994140625 0.4680989583333333  C 0.87109375 0.4153645833333333  0.7978515625 0.4212239583333333  0.72021484375 0.4817708333333333  C 0.6806640625 0.5130208333333334  0.66015625 0.5598958333333334  0.65576171875 0.6204427083333334  L 0.61474609375 1.2864583333333333  C 0.61181640625 1.3470052083333333  0.58837890625 1.3880208333333333  0.54443359375 1.4055989583333333  C 0.4814453125 1.4309895833333333  0.41259765625 1.4173177083333333  0.33935546875 1.3626302083333333  C 0.31591796875 1.0677083333333333  0.33203125 0.7747395833333334  0.38623046875 0.4856770833333333  C 0.47998046875 -0.008463541666666666  1.0556640625 0.13411458333333334  1.240234375 0.4348958333333333  C 1.38818359375 0.6751302083333334  1.533203125 0.9095052083333334  1.67529296875 1.1419270833333333  Z " fill-rule="nonzero" fill="#3e132b" stroke="none" transform="matrix(1 0 0 1 176 334 )" />
  </g>
</svg>