<?xml version="1.0" encoding="utf-8"?>
<svg version="1.1" xmlns:xlink="http://www.w3.org/1999/xlink" width="17px" height="9px" xmlns="http://www.w3.org/2000/svg">
  <g transform="matrix(1 0 0 1 -192 -335 )">
    <path d="M 12.515971522177418 0.1323529411764706  C 13.804466985887096 0.8876953125  15.24398311491937 1.1808363970588234  16.832913306451612 1.013327205882353  C 16.632087953629032 1.8322610294117647  16.320407006048388 2.6015625  15.901083669354838 3.3196806066176467  C 14.969254032258064 4.951344209558823  13.724136844758064 6.1471737132352935  11.799426663306452 6.5969669117647065  C 10.20085685483871 6.96920955882353  9.037676411290308 7.20651424632353  8.30667212701613 7.310431985294118  C 7.378055695564516 7.442267922794118  6.452652469758065 7.566348805147059  5.528855846774194 7.6857766544117645  L 3.7374936995967896 8.022346047794118  C 3.289251512096774 8.116957720588236  2.992029989919339 8.214671415441176  2.8426159274193545 8.317038143382353  C 2.436145413306452 8.596220128676455  2.0087890624999845 8.783892463235293  1.5637600806451613 8.880055147058824  C 1.3709677419354838 8.883157169117647  1.189421622983871 8.878504136029411  1.0191217237903227 8.867647058823515  C 0.9741368447580645 8.866096047794118  0.935578377016129 8.849034926470603  0.9018397177419355 8.819565716911764  C 0.8681010584677419 8.790096507352926  0.8632812499999845 8.757525275735293  0.8889868951612903 8.721852022058824  C 0.9436113911290166 8.642750459558824  1.0110887096774195 8.579159007352942  1.0930254536290323 8.529526654411764  C 1.5589402721774195 8.248793658088236  2.365454889112903 7.505859375  2.126071068548387 6.9397403492647065  C 2.105185231854839 6.891659007352941  2.0746597782258065 6.8513327205882355  2.031281502016129 6.818761488970589  C 1.5412676411290323 6.452722886029411  1.2424395161290323 6.158030790441177  1.1331905241935485 5.93313419117647  C 0.8857736895161447 5.4275045955882355  0.631930443548387 4.929630055147059  0.37166078629032256 4.437959558823529  C 0.37166078629032256 4.129308363970588  0.14673639112903225 4.140165441176471  0.07925907258064517 3.9261259191176467  C 0.055160030241935484 3.8563304227941178  0.06961945564516128 3.7942899816176467  0.12263734879033816 3.740004595588235  C 0.1628024193548543 3.701229319852941  0.19654107862903225 3.704331341911765  0.22706653225806453 3.7508616727941178  C 0.34595514112903225 3.9400850183823533  0.5146484375 4.120002297794118  0.6158644153225806 4.3154296875  C 0.9998424899193549 5.064568014705882  1.4207724294354838 5.784237132352941  1.8754410282258065 6.471335018382352  C 1.907573084677404 6.5178653492647065  1.9429183467741935 6.553538602941177  1.9798702116935485 6.579905790441177  C 2.0328881048387095 6.615579044117648  2.0842993951612905 6.6310891544117645  2.1308908770161445 6.62643612132353  C 2.254599294354839 6.612477022058823  2.317256804435484 6.5442325367647065  2.3204700100806455 6.4248046875  C 2.3381426411290325 5.790441176470589  2.357421875 5.177791819852941  2.378307711693548 4.589958639705882  C 2.3815209173387095 4.498448988970588  2.367061491935484 4.403837316176471  2.336536038306452 4.306123621323529  C 2.304403981854839 4.208409926470588  2.2899445564515974 4.116900275735294  2.291551159274209 4.0300436580882355  L 2.683562247983871 4.369715073529412  C 2.7992376512096775 4.470530790441177  2.963111139112903 4.503102022058823  3.1109185987903225 4.453469669117647  C 4.874968497983871 3.8532284007352944  6.589213709677435 3.136661305147059  8.255260836693564 2.3053193933823533  L 10.385616179435484 1.3731617647058825  C 10.859564012096774 1.1715303308823528  11.347971270161306 0.9311236213235294  11.850837953629048 0.650390625  C 12.15127268145163 0.4844324448529412  12.372983870967758 0.31071920955882354  12.515971522177418 0.1323529411764706  Z " fill-rule="nonzero" fill="#972421" stroke="none" transform="matrix(1 0 0 1 192 335 )" />
  </g>
</svg>