<?xml version="1.0" encoding="utf-8"?>
<svg version="1.1" xmlns:xlink="http://www.w3.org/1999/xlink" width="2px" height="4px" xmlns="http://www.w3.org/2000/svg">
  <g transform="matrix(1 0 0 1 -207 -335 )">
    <path d="M 1.849609375 1.74755859375  C 1.828125 2.373046875  1.765625 2.96044921875  1.662109375 3.5068359375  C 1.296875 3.39111328125  0.876953125 3.37060546875  0.404296875 3.4423828125  C 0.37109375 3.44677734375  0.341796875 3.4423828125  0.31640625 3.427734375  C 0.27929687499998107 3.40576171875  0.27734375 3.37060546875  0.314453125 3.32373046875  C 0.33007812500001893 3.30322265625  0.35351562500001893 3.28857421875  0.3828125 3.28271484375  C 0.681640625 3.2138671875  1.005859375 3.21240234375  1.3535156249999811 3.2783203125  C 1.4296875 3.29150390625  1.46875 3.26953125  1.470703125 3.21240234375  C 1.47265625 3.12890625  1.44921875 3.04833984375  1.400390625 2.970703125  C 1.3789062500000189 2.9384765625  1.345703125 2.91943359375  1.298828125 2.912109375  C 1.119140625 2.888671875  0.978515625 2.830078125  0.876953125 2.73779296875  C 0.900390625 2.666015625  0.830078125 2.63232421875  0.6640625 2.63525390625  C 1.173828125 1.95703125  1.552734375 1.23046875  1.796875 0.45703125  C 1.740234375 0.45849609375  1.73046875 0.43359375  1.7695312500000189 0.37939453125  C 1.7890625 0.3515625  1.828125 0.3369140625  1.869140625 0.34130859375  C 1.908203125 0.34423828125  1.9414062500000189 0.36767578125  1.951171875 0.39697265625  C 2.011718749999981 0.59033203125  1.99609375 0.796875  1.90234375 1.01513671875  C 1.880859375 1.0634765625  1.876953125 1.11328125  1.89453125 1.1630859375  C 1.927734375 1.2626953125  1.931640625 1.3623046875  1.90625 1.4619140625  C 1.869140625 1.61279296875  1.8515625 1.7080078125  1.849609375 1.74755859375  Z " fill-rule="nonzero" fill="#fdb2f8" stroke="none" transform="matrix(1 0 0 1 207 335 )" />
  </g>
</svg>