<?xml version="1.0" encoding="utf-8"?>
<svg version="1.1" xmlns:xlink="http://www.w3.org/1999/xlink" width="5px" height="6px" xmlns="http://www.w3.org/2000/svg">
  <g transform="matrix(1 0 0 1 -225 -334 )">
    <path d="M 3.6333550347222063 1.0014204545454546  L 4.609917534722206 0.287109375  C 4.668511284722222 0.4133522727272727  4.587131076388889 0.5555752840909091  4.364149305555555 0.7169744318181818  C 4.320203993055555 0.7473366477272727  4.295789930555555 0.7888849431818181  4.287651909722222 0.8400213068181819  C 4.276258680555555 0.9039417613636365  4.264865451388873 0.9454900568181819  4.250217013888889 0.9630681818181819  C 3.781467013888889 1.573508522727273  3.397352430555556 2.233487215909091  3.099500868055556 2.9430042613636362  C 3.0864800347222383 2.9765625  3.021375868055556 3.1028053977272725  2.904188368055556 3.3249289772727275  C 2.816297743055556 3.4943181818181817  2.7886284722222223 3.703657670454546  2.694227430555556 3.873046875  C 2.4354383680555713 4.338068181818182  2.243381076388889 4.851029829545454  2.1196831597222223 5.413529829545454  C 2.1180555555555554 5.4167258522727275  2.1180555555555554 5.4582741477272725  2.1196831597222223 5.538174715909091  C 2.1196831597222223 5.565340909090909  2.109917534722238 5.590909090909091  2.092013888888889 5.614879261363637  C 2.0496961805555554 5.6692116477272725  2.0301649305555554 5.6628196022727275  2.0317925347222223 5.594105113636363  C 2.033420138888889 5.544566761363637  2.0220269097222223 5.4934303977272725  2.0008680555555554 5.4406960227272725  C 1.9862196180555398 5.407137784090909  1.9569227430555556 5.3815696022727275  1.9211154513888888 5.373579545454546  C 1.9032118055555556 5.368785511363637  1.8869357638888888 5.376775568181818  1.8739149305555556 5.395951704545454  C 1.579318576388873 4.541015625  1.1577690972222223 3.609375  0.6092664930555556 2.6010298295454546  C 0.5197482638888888 2.436434659090909  0.5083550347222222 2.2990056818181817  0.5767144097222222 2.1871448863636362  C 1.7176649305555556 2.0081676136363638  2.736545138888889 1.6134588068181819  3.6333550347222063 1.0014204545454546  Z " fill-rule="nonzero" fill="#972421" stroke="none" transform="matrix(1 0 0 1 225 334 )" />
  </g>
</svg>