<?xml version="1.0" encoding="utf-8"?>
<svg version="1.1" xmlns:xlink="http://www.w3.org/1999/xlink" width="12px" height="15px" xmlns="http://www.w3.org/2000/svg">
  <g transform="matrix(1 0 0 1 -170 -331 )">
    <path d="M 6 1.739783653846154  C 6.666294642857143 1.2208909254807692  7.386160714285715 0.7510141225961539  8.159598214285715 0.32846304086538464  C 8.325334821428571 1.5521709735576923  8.675223214285715 2.708270733173077  9.2109375 3.7984525240384617  C 9.301339285714285 3.9826847956730766  9.401785714285715 4.165226862980769  9.510602678571429 4.3426983173076925  C 9.52734375 4.371431790865384  9.549107142857142 4.3866436298076925  9.575892857142858 4.391714242788462  C 9.609375 4.398475060096154  9.627790178571429 4.384953425480769  9.631138392857142 4.349459134615384  L 9.636160714285715 4.290301983173077  C 9.776785714285715 4.352839543269231  9.905691964285715 4.378192608173077  10.021205357142858 4.368051382211538  C 10.399553571428571 4.449181189903846  11.022321428571429 4.457632211538462  11.184709821428571 4.86328125  C 11.393973214285715 5.3838641826923075  10.931919642857142 5.637394831730769  10.566964285714285 5.843599759615384  C 10.453125 5.907827524038462  10.409598214285715 6.051494891826923  10.469866071428571 6.169809194711538  C 10.632254464285715 6.479116586538462  10.727678571428571 6.776592548076923  10.759486607142858 7.063927283653846  C 10.364397321428571 7.234637920673077  9.969308035714285 7.349571814903846  9.575892857142858 7.4053485576923075  C 9.143973214285715 7.466195913461538  8.723772321428571 7.329289362980769  8.296875 7.236328125  C 7.952008928571429 7.161959134615384  7.890066964285715 7.263371394230769  8.111049107142858 7.540564903846153  C 8.363839285714285 7.856633112980768  8.752232142857142 8.025653545673077  9.276227678571429 8.047626201923077  C 10.203683035714285 8.084810697115385  10.720982142857142 7.810997596153847  10.828125 7.226186899038462  C 11.164620535714285 7.9462139423076925  11.347098214285715 8.429612379807692  11.377232142857142 8.676382211538462  C 11.442522321428571 9.207106370192308  11.44921875 9.540076622596153  11.395647321428571 9.676983173076923  C 11.25 10.053898737980768  11.034040178571429 10.302358774038462  10.744419642857142 10.425743689903847  C 10.282366071428571 10.621807391826923  9.987723214285715 10.735051081730768  9.860491071428571 10.767164963942308  C 8.87109375 11.013934795673077  7.848214285714285 11.140700120192308  6.790178571428571 11.1474609375  C 6.743303571428571 11.1474609375  6.699776785714285 11.166053185096153  6.66796875 11.199857271634615  C 6.636160714285715 11.233661358173077  6.619419642857143 11.279296875  6.62109375 11.326622596153847  L 6.7265625 13.535719651442308  C 6.731584821428571 13.828125  6.760044642857143 13.943058894230768  6.810267857142857 13.880521334134615  C 6.75 14.014047475961554  6.760044642857143 14.127291165865385  6.842075892857143 14.223632812499984  C 6.781808035714285 14.353778545673077  6.758370535714285 14.494065504807692  6.770089285714285 14.642803485576923  C 6.7734375 14.68505859375  6.755022321428571 14.727313701923077  6.718191964285715 14.750976562499984  C 6.683035714285715 14.77463942307694  6.636160714285715 14.776329627403847  6.599330357142857 14.756047175480768  C 6.341517857142857 14.612379807692308  6.071986607142857 14.507587139423077  5.792410714285714 14.441669170673077  C 5.30859375 14.325045072115385  4.826450892857142 14.238844651442308  4.345982142857142 14.1796875  L 3.7315848214285716 13.868689903846153  C 3.6830357142857144 13.84333683894229  3.6462053571428577 13.80615234375  3.62109375 13.757136418269232  C 3.5306919642857144 13.572904146634615  3.4921875 13.375150240384615  3.503906249999992 13.16725510817306  C 3.5758928571428577 11.821852463942308  3.4620535714285636 10.517014723557692  3.1640625 9.252741887019232  C 3.1540178571428577 9.205416165865385  3.117187500000008 9.168231670673077  3.0719866071428577 9.156400240384615  C 3.0251116071428577 9.142878605769232  2.974888392857143 9.156400240384615  2.94140625 9.19189453125  C 2.6149553571428656 9.536696213942308  1.5870535714285712 9.315279447115385  1.2137276785714286 9.134427584134615  C 0.0033482142857142855 8.549616887019232  -0.2879464285714286 6.568697415865384  0.9743303571428571 5.914588341346154  C 1.5435267857142858 5.618802584134616  2.079241071428571 5.664438100961538  2.5814732142857144 6.048114483173077  C 2.763950892857143 6.2762920673076925  2.9765625 6.670109675480769  3.2176339285714284 7.227877103365384  C 3.2845982142857224 7.385066105769231  3.4268973214285716 7.4560546875  3.6462053571428577 7.439152644230769  C 4.25390625 7.393517127403846  4.588727678571429 7.070688100961538  4.648995535714286 6.472355769230769  C 4.689174107142858 6.0565655048076925  4.531808035714286 5.716834435096154  4.265625 5.355130709134616  C 3.7399553571428577 4.640174278846154  3.2963169642857144 4.030010516826923  3.2310267857142856 3.1798377403846154  C 3.2260044642857144 3.120680588942308  3.2477678571428577 3.0733548677884617  3.2963169642857144 3.03955078125  C 3.4754464285714284 2.912785456730769  3.6328125 2.821514423076923  3.7717633928571423 2.7657376802884617  C 5.034040178571429 2.255295973557692  5.77734375 1.9138746995192308  6 1.739783653846154  Z M 6.818638392857143 1.9358473557692308  C 6.619419642857143 1.8073918269230769  6.400111607142857 1.7668269230769231  6.157366071428571 1.812462439903846  C 5.630022321428571 1.9138746995192308  5.293526785714286 2.2738882211538463  5.147879464285714 2.890812800480769  C 5.079241071428571 3.1798377403846154  5.116071428571429 3.418156550480769  5.258370535714286 3.609149639423077  C 5.363839285714286 3.749436598557692  5.430803571428571 3.7342247596153846  5.459263392857142 3.560133713942308  C 5.594866071428571 2.75390625  6.026785714285715 2.3178335336538463  6.751674107142857 2.253605769230769  C 6.8203125 2.24853515625  6.8671875 2.2130408653846154  6.888950892857143 2.1471228966346154  C 6.920758928571429 2.057542067307692  6.897321428571429 1.9865534855769231  6.818638392857143 1.9358473557692308  Z M 6.155691964285715 3.304912860576923  C 6.09375 3.5550631009615383  6.075334821428571 3.80859375  6.102120535714285 4.063814603365384  L 6.0234375 4.200721153846154  C 5.993303571428571 4.251427283653846  5.998325892857142 4.297062800480769  6.040178571428571 4.339317908653846  C 6.284598214285715 4.587777944711538  6.564174107142857 4.755108173076923  6.877232142857143 4.837928185096154  C 6.99609375 4.8700420673076925  7.098214285714285 4.839618389423077  7.186941964285715 4.7466571514423075  C 7.228794642857143 4.701021634615384  7.282366071428571 4.677358774038462  7.344308035714285 4.6722881610576925  C 7.726004464285715 4.6435546875  7.873325892857143 4.5404522235576925  7.784598214285715 4.361290564903846  C 7.759486607142857 4.178748497596154  7.751116071428571 4.023249699519231  7.62890625 3.8728215144230766  C 7.466517857142857 3.671687199519231  7.30078125 3.4688626802884617  7.131696428571429 3.260967548076923  C 6.920758928571429 3.000676081730769  6.262834821428571 2.8772911658653846  6.155691964285715 3.304912860576923  Z M 2.380580357142857 6.465594951923077  C 2.3738839285714204 6.450383112980769  2.3638392857142936 6.4453125  2.348772321428571 6.450383112980769  C 1.7611607142857142 6.654897836538462  1.3074776785714368 7.0013897235576925  0.984375 7.488168569711538  C 0.9743303571428571 7.503380408653847  0.9760044642857144 7.518592247596153  0.9910714285714286 7.530423677884616  C 1.0111607142857144 7.547325721153847  1.0295758928571428 7.545635516826923  1.0479910714285714 7.527043269230768  C 1.4296875 7.106182391826923  1.8783482142857142 6.769831730769231  2.3939732142857144 6.5179912860576925  C 2.400669642857143 6.516301081730769  2.40234375 6.51123046875  2.3989955357142856 6.5044696514423075  L 2.380580357142857 6.465594951923077  Z " fill-rule="nonzero" fill="#fd5e44" stroke="none" transform="matrix(1 0 0 1 170 331 )" />
  </g>
</svg>