<?xml version="1.0" encoding="utf-8"?>
<svg version="1.1" xmlns:xlink="http://www.w3.org/1999/xlink" width="2px" height="8px" xmlns="http://www.w3.org/2000/svg">
  <g transform="matrix(1 0 0 1 -225 -336 )">
    <path d="M 0.2421875 2.388541666666667  C 0.26123046875 1.7635416666666666  0.24365234375 1.1401041666666667  0.189453125 0.5166666666666667  C 0.30224609375 0.5026041666666666  0.412109375 0.5104166666666666  0.51904296875 0.5385416666666667  C 0.45751953125 0.6479166666666667  0.4677734375 0.7822916666666667  0.54833984375 0.9432291666666667  C 1.0419921875 1.9291666666666667  1.4213867187499858 2.840104166666667  1.6865234375 3.676041666666667  C 1.69384765625 3.8526041666666666  1.75830078125 4.036979166666667  1.748046875 4.202604166666666  C 1.701171875 5.007291666666666  1.59423828125 5.801041666666666  1.42724609375 6.585416666666666  C 1.39208984375 6.747916666666667  1.3671875000000142 6.947916666666667  1.3525390625 7.185416666666667  C 1.33935546875 7.386979166666666  1.3129882812500142 7.588541666666667  1.27197265625 7.790104166666682  L 1.25 6.941666666666666  C 1.24853515625 6.893229166666667  1.22509765625 6.866666666666666  1.1796875 6.860416666666667  C 1.1665039062500142 6.858854166666666  1.15185546875 6.855729166666666  1.138671875 6.854166666666667  C 1.10205078125 6.849479166666667  1.0727539062499858 6.830729166666667  1.05078125 6.799479166666667  C 0.86181640625 6.544791666666667  0.658203125 6.305729166666667  0.44287109375 6.079166666666667  C 0.283203125 5.911979166666667  0.16455078125 5.657291666666667  0.08984375 5.315104166666667  C 0.16455078125 4.310416666666667  0.2143554687500142 3.333854166666667  0.2421875 2.388541666666667  Z " fill-rule="nonzero" fill="#751f83" stroke="none" transform="matrix(1 0 0 1 225 336 )" />
  </g>
</svg>