<?xml version="1.0" encoding="utf-8"?>
<svg version="1.1" xmlns:xlink="http://www.w3.org/1999/xlink" width="8px" height="7px" xmlns="http://www.w3.org/2000/svg">
  <g transform="matrix(1 0 0 1 -157 -336 )">
    <path d="M 6.85 1.5906700721153846  C 6.8703125 1.6111778846153846  6.90625 1.6174879807692308  6.9546875 1.609600360576923  C 6.9078125 1.6395733173076923  6.896875 1.6742788461538463  6.920312500000008 1.7152944711538463  C 7.1703125 2.133338341346154  7.33125 2.5655799278846154  7.4046875 3.0088641826923075  C 7.4390625 3.209209735576923  7.554687499999992 3.318058894230769  7.5828125 3.513671875  C 7.584375000000008 3.523137019230769  7.5796875 3.529447115384615  7.571875 3.5326021634615383  C 7.5578125 3.537334735576923  7.54375 3.540489783653846  7.5296875 3.542067307692308  C 7.48125 3.546799879807692  7.467187500000008 3.570462740384615  7.4875 3.6146334134615383  C 7.5171875 3.685621995192308  7.5125 3.756610576923077  7.4734375 3.827599158653846  C 7.425 3.912785456730769  7.446874999999992 3.939603365384615  7.5390625 3.908052884615385  C 7.56875 3.897010216346154  7.6 3.895432692307692  7.632812499999992 3.900165264423077  C 7.646875 3.9017427884615383  7.659375 3.911207932692308  7.66875 3.9222506009615383  C 7.6765625 3.934870793269231  7.6796875 3.950646033653846  7.678125 3.96484375  L 7.659375 4.089468149038462  C 7.6546875 4.113131009615385  7.640625 4.124173677884615  7.6171875 4.121018629807692  C 7.434375 4.091045673076923  7.2734375 4.12890625  7.1375 4.236177884615385  C 7.0875 4.275615985576923  7.0328125 4.283503605769231  6.9734375 4.256685697115385  C 6.9375 4.239332932692308  6.909375 4.247220552884615  6.8890625 4.280348557692308  C 6.853125 4.338716947115385  6.8375 4.333984375  6.84375 4.264573317307692  C 6.8484375 4.218825120192308  6.8296875 4.192007211538462  6.7890625 4.184119591346154  C 6.775 4.180964543269231  6.7609375 4.184119591346154  6.75 4.195162259615385  C 6.740625 4.206204927884615  6.7296875 4.212515024038462  6.7171875 4.215670072115385  C 6.671875 4.229867788461538  6.6671875 4.221980168269231  6.703125 4.192007211538462  C 6.7390625 4.162034254807692  6.740625 4.12890625  6.70625 4.095778245192308  C 6.5609375 3.953801081730769  6.5109375 3.770808293269231  6.5578125 3.548377403846154  C 6.5765625 3.461613581730769  6.5515625 3.390625  6.4828125 3.3369891826923075  C 6.425 3.291240985576923  6.38125 3.3038611778846154  6.3546875 3.3716947115384617  L 6.0859375 4.043719951923077  C 6.0671875 4.089468149038462  6.0328125 4.106820913461538  5.984375 4.094200721153846  C 5.9203125 4.076847956730769  5.865625000000008 4.094200721153846  5.8234375 4.147836538461538  C 5.8015625 4.176231971153846  5.76875 4.195162259615385  5.7328125 4.201472355769231  C 5.621875000000007 4.218825120192308  5.50625 4.250375600961538  5.387500000000007 4.294546274038462  C 5.2640625 4.340294471153846  5.15625 4.403395432692308  5.0625 4.480694110576923  C 4.9296875 4.591120793269231  4.7890625 4.657376802884615  4.640625 4.681039663461538  C 4.521875 4.698392427884615  4.4140625 4.734675480769231  4.31875 4.789888822115385  C 4.2078125 4.854567307692308  4.0890625 4.911358173076923  3.9609374999999925 4.963416466346154  C 3.80625 5.026517427884615  3.725 5.140099158653846  3.6421875 5.27734375  C 3.615625 5.321514423076923  3.571875 5.351487379807692  3.5218750000000076 5.357797475961538  C 3.3875 5.378305288461538  3.2796875 5.446138822115385  3.1984375 5.559720552884615  C 3.0890625 5.712740384615385  2.89375 5.775841346153846  2.7171875 5.719050480769231  C 2.4015625 5.618088942307692  2.0765625000000076 5.607046274038462  1.7437499999999924 5.685922475961538  C 1.73125 5.689077524038462  1.71875 5.689077524038462  1.7046874999999924 5.685922475961538  L 0.85 5.517127403846154  C 0.8015625 5.507662259615385  0.76875 5.480844350961538  0.7484375000000075 5.435096153846154  C 0.696875 5.313626802884615  0.678125 5.189002403846154  0.6921875 5.058067908653846  C 0.69375 5.0517578125  0.696875 5.048602764423077  0.7015625 5.048602764423077  C 0.715625 5.047025240384615  0.7125 5.045447716346154  0.6921875 5.047025240384615  C 0.6875 5.048602764423077  0.6859375 5.050180288461538  0.6859375 5.054912860576923  C 0.65625 5.2978515625  0.6609375000000076 5.539212740384615  0.703125 5.778996394230769  C 0.7171875 5.865760216346154  0.7796875 6.009314903846154  0.8875 6.209660456730769  C 0.9671875 6.354792668269231  1.009375 6.510967548076923  1.015625 6.679762620192308  C 0.596875 6.09765625  0.4109375 5.389347956730769  0.4578125 4.554837740384615  C 0.5234374999999925 3.3716947115384617  1.1375 1.7783954326923075  2.4968750000000077 1.6569260817307692  C 2.5671875 1.650615985576923  2.621875 1.6174879807692308  2.6625000000000076 1.5591195913461537  C 2.753125 1.4281850961538463  2.840625 1.295673076923077  2.9234375 1.1600060096153846  C 3.5375 0.15670072115384615  4.778125 0.11410757211538462  5.703125 0.6615084134615385  C 6.13125 0.912334735576923  6.5140625 1.2231069711538463  6.85 1.5906700721153846  Z " fill-rule="nonzero" fill="#6e1715" stroke="none" transform="matrix(1 0 0 1 157 336 )" />
  </g>
</svg>