<?xml version="1.0" encoding="utf-8"?>
<svg version="1.1" xmlns:xlink="http://www.w3.org/1999/xlink" width="3px" height="4px" xmlns="http://www.w3.org/2000/svg">
  <g transform="matrix(1 0 0 1 -188 -338 )">
    <path d="M 1.197265625 0.39111328125  C 1.5634765625 0.1640625  1.97802734375 0.11279296875  2.439453125 0.23583984375  C 2.4775390625 0.24755859375  2.49658203125 0.26953125  2.4951171875 0.30029296875  C 2.49365234375 0.333984375  2.50830078125 0.3486328125  2.541992187499986 0.345703125  C 2.597656249999986 0.34130859375  2.62548828125 0.36328125  2.626953125 0.4130859375  C 2.626953125 0.44970703125  2.64013671875 0.48193359375  2.6650390625 0.5068359375  C 2.6796875 0.521484375  2.697265625 0.52880859375  2.71630859375 0.5302734375  C 2.744140624999986 0.533203125  2.7587890625 0.5478515625  2.75732421875 0.57568359375  C 2.755859375 0.69873046875  2.72216796875 0.8232421875  2.6591796875 0.94921875  C 2.66796875 1.078125  2.72216796875 1.1982421875  2.8232421875 1.3095703125  C 2.85693359375 1.34765625  2.88037109375 1.3916015625  2.890624999999986 1.44287109375  L 2.98876953125 1.9130859375  C 3.000488281249986 1.9658203125  2.984375 2.00830078125  2.9404296875 2.04052734375  L 2.62255859375 2.2734375  C 2.5302734375 2.3408203125  2.49951171875 2.46240234375  2.5478515625 2.56494140625  L 2.6767578125 2.841796875  C 2.69140625 2.87255859375  2.69287109375 2.90625  2.6796875 2.9384765625  C 2.66796875 2.96923828125  2.64453125 2.994140625  2.61376953125 3.00732421875  L 1.02587890625 3.6650390625  L 0.68603515625 3.38525390625  C 0.640625 3.298828125  0.6215820312500142 3.19189453125  0.63037109375 3.064453125  C 0.669921875 2.83740234375  0.623046875 2.62353515625  0.4912109374999858 2.42578125  C 0.46484375 2.38623046875  0.4619140625 2.34375  0.48388671875 2.30126953125  L 0.6669921875 1.9453125  C 0.68896484375 1.9013671875  0.6948242187500142 1.85595703125  0.68310546875 1.80908203125  C 0.60693359375 1.47509765625  0.4033203125 1.15576171875  0.83251953125 0.94482421875  C 0.87939453125 0.92138671875  0.9145507812500142 0.88623046875  0.9365234375 0.8408203125  L 1.11669921875 0.48046875  C 1.1342773437500142 0.44384765625  1.16357421875 0.41162109375  1.197265625 0.39111328125  Z " fill-rule="nonzero" fill="#972421" stroke="none" transform="matrix(1 0 0 1 188 338 )" />
  </g>
</svg>