<?xml version="1.0" encoding="utf-8"?>
<svg version="1.1" xmlns:xlink="http://www.w3.org/1999/xlink" width="17px" height="12px" xmlns="http://www.w3.org/2000/svg">
  <g transform="matrix(1 0 0 1 -158 -336 )">
    <path d="M 15.658040364583343 0.8694196428571428  C 15.641438802083332 0.8660714285714285  15.619856770833334 0.859375  15.593294270833333 0.84765625  C 15.095247395833333 0.4676339285714286  14.563997395833333 0.42243303571428575  13.999544270833333 0.7154017857142858  C 12.747786458333334 1.36328125  13.036653645833333 3.325334821428571  14.236946614583335 3.9045758928571432  C 14.607161458333334 4.083705357142858  15.62649739583334 4.303013392857143  15.950227864583333 3.9614955357142856  C 15.983430989583333 3.9263392857142856  16.033235677083333 3.912946428571429  16.079720052083335 3.9263392857142856  C 16.12454427083334 3.9380580357142856  16.161067708333334 3.9748883928571432  16.171028645833335 4.021763392857143  C 16.466536458333326 5.273995535714286  16.579427083333332 6.56640625  16.508040364583326 7.89899553571427  L 16.483138020833334 7.3197544642857135  C 16.481477864583333 7.277901785714286  16.459895833333334 7.241071428571429  16.425032552083326 7.217633928571429  C 16.390169270833333 7.195870535714286  16.348665364583333 7.1908482142857135  16.310481770833324 7.205915178571429  C 14.758235677083334 7.810267857142858  13.274055989583335 7.71484375  11.857942708333333 6.9213169642857135  C 11.052766927083333 6.469308035714286  10.343880208333335 5.888392857142858  9.734602864583334 5.180245535714286  C 9.659895833333326 5.094866071428571  9.651595052083334 5.1015625  9.706380208333332 5.200334821428571  C 10.405305989583333 6.462611607142858  10.582942708333324 7.8119419642857135  10.239290364583333 9.248325892857142  C 9.903938802083335 10.649553571428573  8.429720052083333 11.977120535714285  6.978743489583334 10.996093749999982  C 6.865852864583333 10.919084821428573  6.719759114583333 10.909040178571429  6.596907552083334 10.967633928571429  C 5.421516927083333 11.521763392857142  4.048567708333334 11.833147321428555  3.0840169270833337 10.676339285714285  C 2.6457356770833256 10.15234375  2.366829427083333 9.578125  2.2489583333333334 8.955357142857142  C 2.2074544270833334 8.744419642857142  2.1659505208333334 8.571986607142858  2.1211263020833333 8.439732142857142  C 2.1028645833333335 8.387834821428573  2.0696614583333335 8.349330357142858  2.0198567708333335 8.327566964285714  C 1.4072591145833333 8.051339285714285  0.9042317708333334 7.637834821428572  0.5124348958333333 7.088727678571429  C 0.5057942708333333 6.9095982142857135  0.4609700520833333 6.743861607142858  0.37630208333333337 6.58984375  C 0.26175130208333336 6.377232142857142  0.19534505208333336 6.224888392857142  0.18040364583333335 6.1328125  C 0.13557942708334136 5.8783482142857135  0.13059895833333332 5.622209821428571  0.16214192708333336 5.364397321428571  C 0.16214192708333336 5.359375  0.16380208333333335 5.357700892857143  0.16878255208333331 5.356026785714286  C 0.19036458333333334 5.354352678571429  0.19368489583333331 5.356026785714286  0.17874348958333336 5.357700892857143  C 0.17376302083333334 5.357700892857143  0.17044270833333336 5.361049107142858  0.16878255208333331 5.367745535714286  C 0.15384114583333336 5.506696428571429  0.17376302083333334 5.638950892857143  0.2285481770833414 5.767857142857143  C 0.2501302083333333 5.81640625  0.28499348958333337 5.844866071428571  0.3364583333333333 5.8549107142857135  L 1.2445638020833254 6.034040178571429  C 1.2595052083333331 6.037388392857142  1.2727864583333335 6.037388392857142  1.2860677083333254 6.034040178571429  C 1.6396809895833413 5.950334821428571  1.9849934895833332 5.962053571428571  2.3203450520833337 6.069196428571429  C 2.507942708333333 6.129464285714286  2.715462239583333 6.0625  2.831673177083333 5.900111607142858  C 2.9180013020833337 5.779575892857143  3.032552083333333 5.707589285714286  3.1753255208333417 5.685825892857143  C 3.2284505208333334 5.6791294642857135  3.2749348958333337 5.647321428571429  3.3031575520833334 5.600446428571429  C 3.3911458333333337 5.454799107142858  3.4774739583333334 5.334263392857143  3.6418294270833256 5.267299107142858  C 3.777962239583333 5.212053571428571  3.904134114583333 5.1517857142857135  4.022005208333334 5.083147321428571  C 4.123274739583334 5.024553571428571  4.237825520833334 4.986049107142858  4.363997395833334 4.967633928571429  C 4.521712239583334 4.942522321428571  4.671126302083334 4.872209821428571  4.812239583333334 4.755022321428571  C 4.911848958333334 4.672991071428571  5.026399739583333 4.606026785714286  5.157552083333341 4.557477678571429  C 5.283723958333333 4.510602678571429  5.406575520833341 4.477120535714286  5.524446614583333 4.458705357142858  C 5.562630208333333 4.452008928571429  5.597493489583334 4.431919642857143  5.620735677083333 4.4017857142857135  C 5.665559895833342 4.344866071428571  5.723665364583333 4.326450892857143  5.791731770833334 4.344866071428571  C 5.8431966145833325 4.358258928571429  5.879720052083334 4.33984375  5.899641927083334 4.291294642857143  L 6.185188802083333 3.578125  C 6.213411458333333 3.5061383928571432  6.259895833333333 3.4927455357142856  6.321321614583333 3.5412946428571432  C 6.394368489583334 3.5982142857142856  6.420930989583333 3.673549107142857  6.401009114583333 3.765625  C 6.351204427083333 4.001674107142858  6.404329427083333 4.195870535714286  6.558723958333333 4.346540178571429  C 6.595247395833333 4.381696428571429  6.593587239583334 4.416852678571429  6.555403645833334 4.4486607142857135  C 6.517220052083333 4.48046875  6.522200520833334 4.488839285714286  6.570345052083333 4.473772321428571  C 6.583626302083333 4.470424107142858  6.595247395833333 4.463727678571429  6.605208333333334 4.452008928571429  C 6.616829427083333 4.440290178571429  6.6317708333333325 4.4369419642857135  6.646712239583334 4.440290178571429  C 6.6898763020833325 4.4486607142857135  6.709798177083334 4.477120535714286  6.704817708333334 4.525669642857143  C 6.6981770833333325 4.599330357142858  6.7147786458333325 4.604352678571429  6.752962239583333 4.5424107142857135  C 6.774544270833333 4.5072544642857135  6.804427083333334 4.498883928571429  6.842610677083334 4.517299107142858  C 6.9056966145833325 4.545758928571429  6.9638020833333325 4.537388392857143  7.016927083333334 4.4955357142857135  C 7.161360677083334 4.381696428571429  7.332356770833334 4.341517857142858  7.526595052083334 4.373325892857143  C 7.551497395833334 4.376674107142858  7.566438802083333 4.364955357142858  7.571419270833333 4.33984375  L 7.591341145833333 4.207589285714286  C 7.593001302083334 4.192522321428571  7.589680989583334 4.17578125  7.581380208333334 4.162388392857143  C 7.571419270833333 4.150669642857143  7.558138020833333 4.140625  7.543196614583325 4.138950892857143  C 7.508333333333333 4.133928571428571  7.475130208333333 4.135602678571429  7.443587239583334 4.147321428571429  C 7.345638020833325 4.180803571428571  7.322395833333333 4.15234375  7.373860677083334 4.0619419642857135  C 7.415364583333334 3.9866071428571432  7.4203450520833325 3.911272321428571  7.388802083333333 3.8359375  C 7.367220052083342 3.7890625  7.382161458333334 3.7639508928571432  7.433626302083333 3.758928571428571  C 7.448567708333334 3.757254464285714  7.463509114583333 3.75390625  7.4784505208333325 3.748883928571429  C 7.4867513020833325 3.745535714285714  7.491731770833342 3.7388392857142856  7.490071614583334 3.7287946428571432  C 7.460188802083325 3.521205357142857  7.3373372395833325 3.405691964285714  7.300813802083333 3.193080357142857  C 7.222786458333333 2.72265625  7.051790364583333 2.2639508928571432  6.786165364583342 1.8203125  C 6.761263020833333 1.7767857142857144  6.7728841145833325 1.7399553571428572  6.8226888020833325 1.7081473214285714  C 6.970442708333334 1.6863839285714284  7.018587239583333 1.6411830357142856  6.967122395833334 1.57421875  C 7.377180989583325 2.4213169642857144  7.760677083333325 3.2131696428571432  8.120930989583334 3.948102678571429  C 8.188997395833333 4.087053571428571  8.335091145833333 4.2260044642857135  8.423079427083334 4.3666294642857135  C 8.564192708333334 4.594308035714286  8.809895833333343 4.651227678571429  9.037337239583326 4.517299107142858  C 9.131966145833335 4.462053571428571  9.200032552083332 4.376674107142858  9.238216145833334 4.2611607142857135  C 9.407552083333332 3.7505580357142856  9.173470052083335 3.30859375  9.06888020833334 2.818080357142857  C 9.170149739583334 2.8130580357142856  9.221614583333334 2.8850446428571432  9.223274739583335 3.0357142857142856  C 9.223274739583335 3.0708705357142856  9.238216145833334 3.089285714285714  9.269759114583334 3.0943080357142856  C 9.304622395833334 3.099330357142857  9.31790364583334 3.0842633928571432  9.306282552083335 3.05078125  C 9.296321614583324 3.018973214285714  9.283040364583332 2.993861607142857  9.264778645833335 2.9720982142857144  C 9.19339192708334 2.8934151785714284  9.209993489583333 2.8616071428571432  9.314583333333335 2.876674107142857  C 9.440755208333332 2.8967633928571432  9.560286458333334 2.9419642857142856  9.671516927083335 3.0139508928571432  C 9.718001302083334 3.042410714285714  9.767805989583334 3.054129464285714  9.822591145833332 3.0491071428571432  C 10.209407552083324 3.0139508928571432  10.458430989583324 3.0022321428571432  10.569661458333332 3.0139508928571432  C 10.976399739583332 3.0591517857142856  11.406380208333335 3.0943080357142856  11.857942708333333 3.1177455357142856  C 11.916048177083333 3.12109375  11.97415364583334 3.1328125  12.030598958333332 3.151227678571429  C 12.173372395833333 3.1997767857142856  12.299544270833334 3.19140625  12.410774739583335 3.122767857142857  C 12.422395833333333 3.116071428571429  12.432356770833334 3.116071428571429  12.443977864583335 3.122767857142857  C 12.581770833333334 3.204799107142857  12.731184895833326 3.194754464285714  12.893880208333332 3.0959821428571432  C 12.92874348958334 3.075892857142857  12.948665364583324 3.0373883928571432  12.947005208333334 2.997209821428571  L 12.910481770833332 2.1551339285714284  C 12.908821614583335 2.118303571428571  12.913802083333334 2.083147321428571  12.92874348958334 2.047991071428571  C 12.961946614583333 1.97265625  12.968587239583332 1.8922991071428572  12.950325520833335 1.806919642857143  C 12.907161458333324 1.6026785714285714  13.026692708333332 1.3850446428571428  13.201009114583332 1.2879464285714284  C 13.254134114583334 1.2578125  13.287337239583334 1.2126116071428572  13.300618489583332 1.1540178571428572  C 13.322200520833324 1.0569196428571428  13.373665364583335 0.9899553571428572  13.456673177083335 0.953125  C 13.493196614583333 0.9380580357142858  13.519759114583326 0.9129464285714285  13.538020833333334 0.8777901785714285  C 13.621028645833334 0.7053571428571428  13.765462239583332 0.5965401785714286  13.972981770833332 0.5513392857142858  C 14.004524739583335 0.5446428571428571  14.026106770833334 0.5262276785714286  14.041048177083333 0.4977678571428571  C 14.046028645833335 0.484375  14.052669270833334 0.47098214285714285  14.057649739583333 0.45758928571428575  C 14.059309895833326 0.4525669642857143  14.064290364583332 0.44754464285714285  14.070930989583335 0.44587053571428575  C 14.720052083333332 0.203125  15.266243489583335 0.31361607142857145  15.70950520833334 0.7739955357142858  C 15.726106770833333 0.7924107142857143  15.731087239583335 0.8191964285714285  15.717805989583333 0.8409598214285714  C 15.706184895833335 0.8627232142857143  15.682942708333332 0.8744419642857143  15.658040364583343 0.8694196428571428  Z " fill-rule="nonzero" fill="#5c1419" stroke="none" transform="matrix(1 0 0 1 158 336 )" />
  </g>
</svg>