<?xml version="1.0" encoding="utf-8"?>
<svg version="1.1" xmlns:xlink="http://www.w3.org/1999/xlink" width="4px" height="4px" xmlns="http://www.w3.org/2000/svg">
  <g transform="matrix(1 0 0 1 -191 -337 )">
    <path d="M 2.134486607142857 0.197265625  C 2.506138392857143 0.37744140625  2.9715401785714284 0.748046875  3.5306919642857304 1.30615234375  C 3.5290178571428408 1.38818359375  3.5440848214285716 1.474609375  3.5775669642857144 1.56689453125  C 3.609375 1.6591796875  3.6244419642857144 1.74853515625  3.62109375 1.8349609375  C 3.599330357142857 2.39013671875  3.5792410714285716 2.96875  3.560825892857143 3.56787109375  C 3.5574776785714284 3.6806640625  3.4921875 3.7451171875  3.3632812500000164 3.75830078125  C 3.314732142857143 3.7626953125  3.2611607142857144 3.748046875  3.2059151785714284 3.71435546875  C 3.1674107142857144 3.689453125  3.1305803571428408 3.65576171875  3.0970982142857144 3.61181640625  C 2.623325892857143 2.962890625  2.1847098214285716 2.283203125  1.7845982142857142 1.57568359375  C 1.6791294642857142 1.39111328125  1.5033482142857142 1.22119140625  1.3794642857142858 1.04248046875  C 1.34765625 0.99853515625  1.3125000000000162 0.99560546875  1.2706473214285876 1.0322265625  C 1.2154017857142858 1.08349609375  1.2003348214285714 1.14208984375  1.2254464285714286 1.2080078125  C 1.2957589285714286 1.41015625  1.5301339285714286 1.39990234375  1.5301339285714286 1.69140625  C 1.4481026785714286 1.4716796875  1.3074776785714286 1.3310546875  1.1099330357142858 1.26953125  C 1.079799107142841 1.2607421875  1.0463169642857142 1.26220703125  1.0178571428571266 1.27392578125  C 0.9893973214285714 1.28564453125  0.9659598214285714 1.3076171875  0.9559151785714448 1.333984375  L 0.9274553571428571 1.40576171875  C 0.9123883928571266 1.44384765625  0.9341517857142695 1.486328125  0.9776785714285877 1.5009765625  L 1.123325892857159 1.54931640625  C 1.185267857142841 1.56982421875  1.21875 1.609375  1.2271205357142694 1.66650390625  C 1.2354910714285714 1.7177734375  1.2170758928571428 1.76025390625  1.1735491071428572 1.791015625  C 1.1517857142857142 1.80712890625  1.1065848214285714 1.8173828125  1.039620535714302 1.82470703125  C 0.9274553571428571 1.8349609375  0.83203125 1.8759765625  0.7533482142857143 1.94921875  C 0.8253348214285714 1.8232421875  0.8638392857142857 1.69873046875  0.8655133928571429 1.57568359375  C 0.8671875 1.5478515625  0.8504464285714123 1.533203125  0.8186383928571429 1.5302734375  C 0.796875 1.52880859375  0.7767857142857143 1.521484375  0.7600446428571429 1.5068359375  C 0.7315848214285714 1.48193359375  0.7165178571428571 1.44970703125  0.7165178571428571 1.4130859375  C 0.71484375 1.36328125  0.6830357142856981 1.34130859375  0.6194196428571266 1.345703125  C 0.5809151785714286 1.3486328125  0.5641741071428571 1.333984375  0.5658482142857143 1.30029296875  C 0.5675223214285714 1.26953125  0.5457589285714286 1.24755859375  0.5022321428571429 1.23583984375  C 0.6411830357142695 1.24755859375  0.7064732142857143 1.216796875  0.7014508928571429 1.1435546875  C 0.6763392857142857 0.87255859375  0.6763392857142857 0.67626953125  0.6997767857142857 0.55615234375  C 0.8353794642857143 -0.1162109375  1.5954241071428572 -0.06494140625  2.134486607142857 0.197265625  Z " fill-rule="nonzero" fill="#ad3935" stroke="none" transform="matrix(1 0 0 1 191 337 )" />
  </g>
</svg>