<?xml version="1.0" encoding="utf-8"?>
<svg version="1.1" xmlns:xlink="http://www.w3.org/1999/xlink" width="10px" height="12px" xmlns="http://www.w3.org/2000/svg">
  <g transform="matrix(1 0 0 1 -216 -336 )">
    <path d="M 4.881184895833349 8.407924107142858  C 5.859375 5.848214285714286  6.497395833333334 3.208147321428571  6.795247395833334 0.4893973214285714  L 7.355143229166666 0.5982142857142858  C 7.4072265625 0.6082589285714286  7.4365234375 0.6400669642857143  7.444661458333349 0.6953125  C 7.589518229166666 1.83203125  7.766927083333334 2.9603794642857144  7.976888020833334 4.080357142857143  C 8.2421875 5.496651785714286  8.748372395833334 6.579799107142858  9.532877604166666 7.7767857142857135  L 9.065755208333334 11.176897321428573  C 7.16796875 11.439732142857142  5.276692708333334 11.583705357142874  3.3935546874999845 11.608816964285714  L 4.39453125 9.561383928571429  C 4.410807291666651 9.529575892857142  4.4091796875 9.491071428571445  4.3896484375 9.4609375  C 4.371744791666682 9.430803571428573  4.339192708333333 9.412388392857142  4.303385416666667 9.412388392857142  L 0.166015625 9.470982142857142  C 0.17578125 9.469308035714302  0.185546875 9.465959821428573  0.1953125 9.464285714285714  C 0.32877604166666663 9.348772321428573  0.3059895833333333 9.213169642857142  0.126953125 9.057477678571429  L 4.441731770833333 8.923549107142842  C 4.495442708333333 8.921875  4.542643229166667 8.900111607142858  4.583333333333333 8.861607142857126  C 4.715169270833333 8.734375  4.814453125 8.583705357142858  4.881184895833349 8.407924107142858  Z M 9.1845703125 8.55859375  C 9.215494791666666 8.494977678571429  9.195963541666666 8.468191964285714  9.127604166666666 8.4765625  C 7.6513671875 8.67243303571427  6.212565104166666 8.831473214285714  4.807942708333333 8.952008928571429  C 4.654947916666651 8.963727678571429  4.576822916666667 9.044084821428573  4.573567708333318 9.193080357142858  C 4.571940104166667 9.251674107142858  4.599609375 9.283482142857142  4.656575520833349 9.288504464285714  C 5.035807291666666 9.321986607142842  5.419921875 9.315290178571429  5.8056640625 9.270089285714285  C 6.857096354166666 9.146205357142858  7.928059895833334 8.96540178571427  9.0185546875 8.726004464285714  C 9.080403645833334 8.712611607142858  9.132486979166682 8.67243303571427  9.16015625 8.613839285714285  L 9.1845703125 8.55859375  Z " fill-rule="nonzero" fill="#d39af6" stroke="none" transform="matrix(1 0 0 1 216 336 )" />
  </g>
</svg>