<?xml version="1.0" encoding="utf-8"?>
<svg version="1.1" xmlns:xlink="http://www.w3.org/1999/xlink" width="16px" height="11px" xmlns="http://www.w3.org/2000/svg">
  <g transform="matrix(1 0 0 1 -178 -338 )">
    <path d="M 13.681361607142858 0.296484375  C 13.87890625 0.36416015625  14.01953125 0.51884765625  14.1015625 0.760546875  C 14.372767857142858 1.271337890625  14.637276785714302 1.78857421875  14.895089285714286 2.3138671875  C 15.008928571428571 2.547509765625  15.3203125 2.8536621093749996  15.830915178571429 3.233935546875  C 15.876116071428571 3.2677734375  15.907924107142858 3.3096679687500004  15.9296875 3.359619140625  C 16.179129464285715 3.94775390625  15.338727678571429 4.719580078125  14.853236607142858 5.01123046875  C 14.767857142857142 5.06279296875  14.697544642857126 5.128857421875  14.640625 5.21103515625  C 14.613839285714269 5.248095703125  14.618861607142858 5.281933593749985  14.654017857142858 5.312548828125  C 14.689174107142858 5.343164062500016  14.729352678571429 5.360888671875  14.776227678571429 5.362499999999985  C 14.953683035714286 5.373779296875  15.142857142857142 5.37861328125  15.34375 5.375390625  C 14.869977678571429 5.4140625  14.416294642857142 5.37861328125  13.982700892857142 5.267431640625  C 13.619419642857142 5.1755859375  13.41015625 4.967724609375  13.046875000000016 5.280322265625  C 12.810825892857142 5.48173828125  12.549665178571429 5.770166015625  12.263392857142858 6.142382812499999  L 11.48828125 6.90615234375  C 10.274553571428571 8.241943359374984  9.018973214285714 9.228076171875  7.719866071428571 9.86455078125  C 6.064174107142857 10.675048828125  4.160714285714286 10.990869140625  2.006138392857143 10.81201171875  C 1.8755580357142858 10.472021484375  1.7416294642857142 10.115917968749985  1.6060267857142858 9.74208984375  C 1.3080357142857142 8.926757812499984  0.9280133928571429 8.154931640625  0.46595982142857145 7.42822265625  C 0.5647321428571429 7.394384765625  0.6049107142857143 7.308984375  0.5848214285714286 7.172021484375  C 0.5764508928571429 7.109179687499999  0.6049107142857143 7.081787109375  0.6702008928571429 7.093066406249999  C 0.7254464285714286 7.101123046874999  0.7706473214285714 7.136572265625016  0.8058035714285714 7.199414062500001  C 0.84765625 7.27353515625  0.9246651785714286 7.320263671875001  1.0100446428571428 7.326708984374999  L 2.4799107142857144 7.42822265625  C 2.60546875 7.494287109375  2.7410714285714284 7.520068359374999  2.885044642857143 7.5087890625  C 2.9369419642857144 7.503955078124999  2.982142857142857 7.520068359374999  3.0206473214285716 7.557128906249984  L 3.0825892857142856 7.616748046874999  C 3.12109375 7.65380859375  3.166294642857143 7.671533203125  3.2198660714285716 7.669921875  C 3.576450892857143 7.666699218750001  3.928013392857143 7.71181640625  4.262834821428571 7.590966796875  C 4.411830357142857 7.536181640624999  4.564174107142857 7.503955078124999  4.718191964285714 7.495898437499999  C 4.816964285714286 7.491064453125  4.838727678571429 7.526513671875  4.781808035714286 7.603857421875  C 4.689732142857143 7.729541015624999  4.555803571428571 7.802050781249999  4.376674107142857 7.822998046875  C 4.319754464285714 7.829443359375  4.26953125 7.850390624999999  4.226004464285714 7.887451171875  C 4.078683035714286 8.00830078125  3.91796875 8.11787109375  3.7455357142857144 8.216162109375  C 3.5513392857142856 8.32734375  3.3939732142857144 8.4369140625  3.2734375 8.546484375000016  C 3.0775669642857144 8.725341796874984  2.8816964285714284 8.892919921875  2.685825892857143 9.050830078125  C 2.4933035714285716 9.20390625  2.359375 9.418212890625  2.3275669642857144 9.6486328125  C 2.3191964285714284 9.70986328125  2.3359375 9.77109375  2.3761160714285716 9.81943359375  C 2.416294642857143 9.8677734375  2.474888392857143 9.9  2.5385044642857144 9.9064453125  C 3.1729910714285716 9.9708984375  3.7220982142857144 10.1642578125  4.388392857142857 10.091748046875  C 5.990513392857143 9.920947265625  7.441964285714286 9.395654296875  8.742745535714286 8.5142578125  C 8.771205357142858 8.494921875  8.803013392857142 8.485253906250016  8.838169642857142 8.486865234375  C 8.880022321428571 8.4884765625  8.915178571428571 8.473974609375  8.943638392857142 8.44658203125  C 9.069196428571429 8.324121093750016  9.221540178571429 8.235498046875  9.400669642857142 8.182324218749985  C 9.452566964285714 8.167822265625  9.497767857142858 8.142041015624985  9.539620535714286 8.108203125  L 10.862165178571429 7.035058593750016  C 10.9609375 6.954492187500016  10.981026785714286 6.814306640625016  10.909040178571429 6.711181640624984  C 10.666294642857142 6.367968749999999  10.410156250000016 6.0521484375  10.138950892857142 5.762109375  C 9.978236607142858 5.589697265625  9.891183035714286 5.380224609375  9.876116071428571 5.13369140625  C 10.463727678571429 4.83720703125  10.991071428571429 4.46982421875  11.458147321428571 4.03154296875  L 13.272879464285714 3.308056640625  C 13.308035714285714 3.2935546875000004  13.334821428571429 3.266162109375  13.348214285714286 3.2323242187499996  C 13.36328125 3.1968750000000004  13.361607142857142 3.1598144531249996  13.344866071428571 3.1259765625  L 13.197544642857142 2.8214355468749996  C 13.142299107142858 2.708642578125  13.177455357142858 2.57490234375  13.282924107142858 2.50078125  L 13.646205357142858 2.244580078125  C 13.696428571428571 2.209130859375  13.714843749999984 2.16240234375  13.701450892857142 2.10439453125  L 13.589285714285698 1.587158203125  C 13.577566964285714 1.53076171875  13.55078125 1.482421875  13.512276785714286 1.44052734375  C 13.396763392857142 1.31806640625  13.334821428571429 1.1859375  13.324776785714286 1.044140625  C 13.403459821428571 0.96357421875  13.498883928571429 0.91845703125  13.611049107142874 0.907177734375  C 13.678013392857142 0.89912109375  13.723214285714286 0.8878417968750001  13.744977678571429 0.8701171875  C 13.788504464285714 0.8362792968749999  13.806919642857142 0.78955078125  13.798549107142842 0.733154296875  C 13.790178571428571 0.6703125  13.756696428571413 0.626806640625  13.694754464285731 0.604248046875  L 13.549107142857158 0.55107421875  C 13.505580357142842 0.5349609375  13.483816964285698 0.48823242187500004  13.498883928571429 0.44633789062499996  L 13.527343750000016 0.36738281250000004  C 13.537388392857142 0.33837890625  13.560825892857142 0.314208984375  13.589285714285698 0.301318359375  C 13.617745535714286 0.288427734375  13.651227678571413 0.28681640625  13.681361607142858 0.296484375  Z " fill-rule="nonzero" fill="#fd5e44" stroke="none" transform="matrix(1 0 0 1 178 338 )" />
  </g>
</svg>