<?xml version="1.0" encoding="utf-8"?>
<svg version="1.1" xmlns:xlink="http://www.w3.org/1999/xlink" width="2px" height="8px" xmlns="http://www.w3.org/2000/svg">
  <g transform="matrix(1 0 0 1 -225 -343 )">
    <path d="M 1.3002929687500142 0.6060267857142857  C 1.4306640625 0.6646205357142857  1.5742187500000142 0.6713169642857143  1.73388671875 0.6244419642857143  C 1.56396484375 2.0340401785714284  1.4101562500000142 3.4419642857142696  1.27392578125 4.849888392857143  C 1.2065429687499858 5.54296875  1.07177734375 6.160714285714286  0.9501953124999858 6.815290178571429  C 0.93115234375 6.924107142857143  0.88720703125 7.036272321428571  0.81982421875 7.1484375  C 0.771484375 7.228794642857126  0.70263671875 7.294084821428588  0.61181640625 7.345982142857143  C 0.42431640625 7.451450892857143  0.2353515625 7.580357142857143  0.04638671875 7.732700892857159  L 0.1591796875 3.748325892857143  L 0.57958984375 0.3482142857142857  L 0.61181640625 0.5407366071428571  C 0.625 0.62109375  0.6455078125 0.6244419642857143  0.6762695312499858 0.5491071428571429  L 0.77001953125 0.31138392857142855  C 0.7919921875 0.25613839285714285  0.83154296875 0.22767857142857142  0.8857421875 0.22767857142857142  C 1.03076171875 0.22935267857142858  1.1347656250000142 0.31640625  1.1962890625 0.4888392857142857  C 1.21533203125 0.5440848214285714  1.25048828125 0.5842633928571429  1.3002929687500142 0.6060267857142857  Z " fill-rule="nonzero" fill="#751f83" stroke="none" transform="matrix(1 0 0 1 225 343 )" />
  </g>
</svg>