<?xml version="1.0" encoding="utf-8"?>
<svg version="1.1" xmlns:xlink="http://www.w3.org/1999/xlink" width="9px" height="6px" xmlns="http://www.w3.org/2000/svg">
  <g transform="matrix(1 0 0 1 -180 -343 )">
    <path d="M 6.4302978515625 0.8050781250000001  L 7.4718017578125 0.20039062500000002  C 7.48663330078125 0.46933593749999997  7.57232666015625 0.6978515624999999  7.73052978515625 0.8859374999999999  C 7.997497558593766 1.2023437499999998  8.2496337890625 1.546875  8.48858642578125 1.9212890624999828  C 8.5594482421875 2.0337890625000172  8.5396728515625 2.1867187500000167  8.44244384765625 2.2746093750000167  L 7.14056396484375 3.4453125  C 7.099365234375 3.4822265624999833  7.05487060546875 3.5103515625000004  7.0037841796875 3.5261718749999833  C 6.82745361328125 3.5841796875000003  6.677490234375 3.6808593750000167  6.55389404296875 3.814453125  C 6.52587890625 3.8443359375000004  6.49127197265625 3.8601562499999997  6.4500732421875 3.8583984375  C 6.41546630859375 3.8566406250000167  6.3841552734375 3.8671875  6.35614013671875 3.8882812500000004  C 5.07568359375 4.849804687500001  3.64691162109375 5.4228515625  2.06982421875 5.609179687499999  C 1.4139404296875 5.688281249999999  0.8734130859375 5.477343749999999  0.24884033203125 5.407031249999999  C 0.18621826171875 5.4  0.1285400390625 5.36484375  0.0889892578125 5.312109375  C 0.0494384765625 5.259375  0.032958984375 5.192578125000001  0.04119873046875 5.125781249999999  C 0.072509765625 4.8744140625  0.204345703125 4.640625  0.39385986328125 4.4736328125  C 0.586669921875 4.3013671875  0.77947998046875 4.118554687499984  0.9722900390625 3.923437500000017  C 1.0909423828125 3.8039062500000003  1.245849609375 3.6843749999999997  1.43701171875 3.5630859375000004  C 1.60675048828125 3.4558593749999997  1.76495361328125 3.3363281249999996  1.90997314453125 3.2044921874999996  C 1.95281982421875 3.1640625  2.00225830078125 3.1412109375000004  2.05828857421875 3.1341796874999996  C 2.234619140625 3.111328125  2.366455078125 3.0322265625  2.45709228515625 2.8951171875000004  C 2.51312255859375 2.8107421875  2.49169921875 2.7720703125000004  2.39447021484375 2.77734375  C 2.24285888671875 2.7861328125  2.0928955078125 2.8212890625  1.94622802734375 2.8810546875  C 1.61663818359375 3.0128906250000003  1.27056884765625 2.963671875  0.9195556640625 2.9671874999999996  C 0.8668212890625 2.9689453125  0.82232666015625 2.9496093749999996  0.784423828125 2.9091796875  L 0.72344970703125 2.8441406249999828  C 0.685546875 2.8037109375  0.64105224609375 2.7861328125  0.5899658203125 2.7914062499999996  C 0.4482421875 2.8037109375  0.31475830078125 2.7755859375  0.191162109375 2.7035156249999996  C 0.40704345703125 2.7087890625  0.6229248046875 2.7035156249999996  0.83551025390625 2.6841796875000004  C 0.9261474609375 2.6771484374999996  0.929443359375 2.6578125000000004  0.84210205078125 2.6261718750000167  C 0.810791015625 2.6173828125  0.7877197265625 2.5962890625000004  0.771240234375 2.56640625  C 0.73663330078125 2.5048828125  0.75311279296875 2.4767578125  0.81903076171875 2.485546875  C 1.1337890625 2.5224609375  1.469970703125 2.5611328125000172  1.83087158203125 2.6015625  C 2.0731201171875 2.6279296875  2.2939453125 2.6261718750000167  2.49334716796875 2.5927734375  C 2.72900390625 2.5541015624999996  2.9432373046875 2.5294921875  3.1343994140625 2.520703125  C 3.31402587890625 2.513671875  3.48870849609375 2.4574218749999996  3.6617431640625 2.3519531249999996  C 3.7078857421875 2.3238281250000004  3.74908447265625 2.2886718750000004  3.78369140625 2.2464843749999996  C 3.8265380859375 2.1955078125  3.8792724609375 2.17265625  3.94189453125 2.1779296875  C 3.96826171875 2.1814453125  3.99627685546875 2.1761718749999996  4.01934814453125 2.1638671874999833  C 4.3209228515625 2.0126953125  4.634033203125 1.8878906249999998  4.9603271484375 1.7876953125000001  C 5.14654541015625 1.7296874999999998  5.54205322265625 1.4695312500000002  6.1468505859375 1.0037109375000002  L 6.4302978515625 0.8050781250000001  Z " fill-rule="nonzero" fill="#fe7a57" stroke="none" transform="matrix(1 0 0 1 180 343 )" />
  </g>
</svg>