<?xml version="1.0" encoding="utf-8"?>
<svg version="1.1" xmlns:xlink="http://www.w3.org/1999/xlink" width="5px" height="11px" xmlns="http://www.w3.org/2000/svg">
  <g transform="matrix(1 0 0 1 -172 -345 )">
    <path d="M 1.4518229166666665 0.124609375  C 1.7138671875 0.0537109375  2.0231119791666665 0.132666015625  2.3763020833333335 0.36147460937501563  C 4.573567708333333 1.8116699218750156  4.697265625 5.192236328125  4.4873046875 7.515771484375  L 4.0234375 10.699755859375  C 3.977864583333333 10.672363281249984  3.938802083333333 10.63046875  3.907877604166667 10.572460937500015  C 4.039713541666667 9.794189453125  4.134114583333333 9.0126953125  4.191080729166667 8.2263671875  C 4.308268229166667 6.644042968749984  4.192708333333333 5.079443359375  3.844401041666667 3.5341796875  C 3.6279296875 2.562548828125  3.2080078125 1.7311035156250156  2.587890625 1.03984375  C 1.9026692708333255 0.274462890625  1.1507161458333413 0.25834960937498436  0.33040364583333337 0.9898925781250001  C 0.6119791666666666 0.538720703125  0.9847005208333333 0.25029296875  1.4518229166666665 0.124609375  Z " fill-rule="nonzero" fill="#452477" stroke="none" transform="matrix(1 0 0 1 172 345 )" />
  </g>
</svg>