<?xml version="1.0" encoding="utf-8"?>
<svg version="1.1" xmlns:xlink="http://www.w3.org/1999/xlink" width="8px" height="18px" xmlns="http://www.w3.org/2000/svg">
  <g transform="matrix(1 0 0 1 -174 -345 )">
    <path d="M 0.14791666666666667 0.3584872159091064  C 0.12604166666666666 0.3089488636363636  0.18385416666666668 0.29456676136363635  0.3229166666666667 0.31534090909090906  C 0.7713541666666667 0.3712713068181818  1.2213541666666667 0.45276988636363635  1.6729166666666666 0.5630326704545454  C 1.9338541666666667 0.6253551136363636  2.185416666666667 0.7244318181818181  2.426041666666667 0.8602627840909091  C 2.4604166666666667 0.8794389204545454  2.504166666666667 0.8778409090909245  2.536979166666667 0.8554687499999845  C 2.5713541666666666 0.8330965909090908  2.5885416666666665 0.7931463068181819  2.5854166666666667 0.7531960227272728  C 2.574479166666667 0.6125710227272728  2.5963541666666665 0.4799360795454546  2.652604166666667 0.35688920454543904  C 2.8135416666666666 0.36807528409090906  2.943229166666667 0.44637784090909094  3.0401041666666666 0.5901988636363636  C 4.582291666666666 2.8625710227272725  5.613541666666666 5.3650568181818175  6.132291666666666 8.09765625  C 6.286979166666667 8.802379261363637  6.421354166666666 9.515092329545453  6.535416666666666 10.235795454545453  C 6.657291666666667 10.999644886363637  6.785416666666666 11.71395596590909  6.918229166666666 12.380326704545453  C 7.279166666666667 14.197265625  7.538541666666666 16.05255681818182  7.696354166666667 17.94620028409091  C 6.797916666666667 16.841974431818183  5.894791666666666 15.982244318181818  4.986979166666667 15.365411931818182  C 4.158854166666667 14.836470170454545  3.310416666666667 14.43057528409091  2.441666666666667 14.147727272727273  C 2.4151041666666666 14.138139204545453  2.3932291666666665 14.118963068181802  2.379166666666667 14.093394886363637  C 2.3666666666666667 14.067826704545453  2.365104166666667 14.039062499999986  2.3744791666666667 14.011896306818182  C 2.7885416666666667 12.73828125  3.0088541666666666 11.419921875  3.0338541666666665 10.05362215909091  C 3.0479166666666666 9.259410511363637  2.777604166666667 8.535511363636363  2.2213541666666665 7.8787286931818175  C 2.1869791666666667 7.838778409090909  2.169791666666667 7.7908380681818175  2.169791666666667 7.7381036931818175  L 2.1744791666666665 7.453657670454545  C 2.3760416666666666 5.149325284090909  2.2572916666666667 1.7966974431818339  0.14791666666666667 0.3584872159091064  Z " fill-rule="nonzero" fill="#ffa19e" stroke="none" transform="matrix(1 0 0 1 174 345 )" />
  </g>
</svg>