<?xml version="1.0" encoding="utf-8"?>
<svg version="1.1" xmlns:xlink="http://www.w3.org/1999/xlink" width="5px" height="13px" xmlns="http://www.w3.org/2000/svg">
  <g transform="matrix(1 0 0 1 -172 -345 )">
    <path d="M 4.746636284722222 8.45397418478261  C 4.689670138888889 9.262058423913043  4.595269097222222 10.065174932065217  4.463433159722222 10.864979619565233  C 4.341362847222222 11.51575237771739  4.230685763888889 12.159901494565217  4.129774305555555 12.797426970108697  C 4.108615451388889 12.93486752717393  4.063042534722222 12.941491168478262  3.996310763888889 12.820609714673912  C 3.968641493055556 12.77258831521739  3.967013888888889 12.689792798913043  3.988172743055556 12.572223165760871  C 4.037000868055555 12.30065387228261  4.077690972222222 12.017493206521738  4.110243055555555 11.721085258152174  C 4.186740451388889 11.596891983695652  4.203016493055555 11.427989130434783  4.162326388888889 11.214376698369565  C 4.259982638888889 10.937839673913043  4.302300347222222 10.646399456521738  4.289279513888889 10.341711956521738  C 4.274631076388889 10.017153532608713  4.434136284722222 9.773734714673912  4.419487847222222 9.435929008152158  C 4.403211805555555 8.985521399456522  4.445529513888889 8.41588824728261  4.305555555555555 8.003566576086957  C 4.255099826388889 7.856190557065218  4.217664930555555 7.707158627717392  4.193250868055555 7.553158967391321  C 4.157443576388889 7.326299252717407  4.106987847222222 7.1010954483695645  4.043511284722222 6.880859375  C 3.986545138888889 6.683806046195668  3.932834201388889 6.483440896739131  3.8823784722222223 6.2797639266304355  C 3.835177951388889 6.087678328804349  3.805881076388889 5.9005604619565215  3.7944878472222223 5.718410326086956  C 3.734266493055556 4.670219089673913  3.465711805555556 3.6965438179347823  2.9871961805555474 2.7973845108695654  C 2.9644097222222223 2.7526749320652177  2.928602430555556 2.717900815217391  2.884657118055556 2.6947180706521743  L 2.830946180555556 2.664911684782609  C 2.811414930555556 2.654976222826087  2.7886284722222223 2.6582880434782608  2.77398003472223 2.6715353260869565  C 2.757703993055556 2.6864385190217392  2.7528211805555474 2.7079653532608536  2.760959201388889 2.727836277173913  C 2.8325737847222223 2.908330502717391  2.848849826388889 3.0921365489130435  2.809787326388889 3.279254415760869  C 2.7788628472222223 3.426630434782609  2.7593315972222223 3.580630095108696  2.7495659722222223 3.737941576086956  C 2.726779513888889 4.103897758152174  2.6763237847222223 4.708305027173913  2.599826388888889 5.554475203804349  C 2.497287326388889 6.683806046195668  2.433810763888889 8.483780570652158  2.4110243055555554 10.9560546875  C 2.3524305555555554 11.143172554347826  2.272677951388889 11.242527173913043  2.170138888888889 11.25743036684781  C 2.1148003472222223 11.265709918478262  2.0692274305555554 11.247494904891303  2.033420138888889 11.202785326086957  C 1.8527560763888888 10.980893342391303  1.7469618055555636 10.709324048913043  1.714409722222222 10.386421535326088  C 1.6965060763888888 10.209239130434783  1.641167534722222 10.038680366847826  1.5500217013888888 9.876401154891303  C 1.3595920138888808 9.538595448369549  1.1496310763888888 9.232252038043478  0.920138888888889 8.959026834239115  C 0.8843315972222222 8.915973165760871  0.8599175347222222 8.866295855978262  0.8501519097222222 8.81165081521739  C 0.8110894097222301 8.58313519021739  0.7166883680555556 8.394361413043478  0.6434461805555556 8.177437160326088  C 0.6222873263888888 8.112856657608713  0.5815972222222222 8.058211616847826  0.5213758680555556 8.016813858695652  C 0.4774305555555555 7.98866338315219  0.4530164930555555 7.947265625000016  0.44487847222223015 7.894276494565218  C 0.4237196180555477 7.725373641304348  0.3276909722222222 7.607804008152174  0.3244357638888889 7.4438688858695645  C 0.30164930555554764 5.809485394021739  0.3667534722222222 4.261209239130419  0.5197482638888888 2.8023522418478257  C 0.5246310763888888 2.757642663043478  0.5230034722222222 2.7212126358695654  0.5181206597222222 2.693062160326087  C 0.5034722222222222 2.6102666440217392  0.4871961805555555 2.6119225543478257  0.4692925347222222 2.6980298913043477  C 0.4465060763888889 2.8089758831521743  0.4204644097222222 2.9364809782608536  0.3911675347222222 3.083856997282609  C 0.3797743055555555 3.136846127717391  0.3553602430555555 3.1815557065217392  0.3146701388888889 3.2163298233695654  C 0.23491753472222224 3.289189877717407  0.21375868055555555 3.378609035326087  0.2544487847222222 3.4862432065217392  C 0.2723524305555556 3.5342646059782608  0.2772352430555556 3.5822860054347823  0.2690972222222222 3.633619225543478  L 0.1779513888888889 4.15688688858694  C 0.17632378472222224 4.165166440217392  0.1730685763888889 4.170134171195651  0.16655815972222224 4.175101902173913  C 0.14539930555555555 4.188349184782608  0.12424045138888888 4.193316915760869  0.10470920138888888 4.190005095108695  C 0.07703993055555555 4.1866932744565215  0.06076388888888889 4.171790081521739  0.05588107638888889 4.143639605978261  L 0.03309461805555555 4.006199048913044  L 0.4660373263888889 1.936311141304348  L 0.885959201388889 1.0172809103260871  C 1.7062717013888968 0.2654976222825926  2.458224826388881 0.2820567255434782  3.143446180555556 1.0686141304347827  C 3.763563368055556 1.7789996603261031  4.183485243055555 2.6334493885869565  4.399956597222222 3.631963315217391  C 4.748263888888889 5.219981317934782  4.863823784722222 6.827870244565202  4.746636284722222 8.45397418478261  Z " fill-rule="nonzero" fill="#ffa19e" stroke="none" transform="matrix(1 0 0 1 172 345 )" />
  </g>
</svg>