<?xml version="1.0" encoding="utf-8"?>
<svg version="1.1" xmlns:xlink="http://www.w3.org/1999/xlink" width="5px" height="2px" xmlns="http://www.w3.org/2000/svg">
  <g transform="matrix(1 0 0 1 -220 -344 )">
    <path d="M 0.3634982638888889 1.1106770833333333  C 1.768120659722222 0.9700520833333334  3.206922743055556 0.7845052083333144  4.683159722222222 0.5559895833333334  C 4.751519097222222 0.5462239583333334  4.771050347222222 0.5774739583333334  4.740125868055555 0.6516927083333334  L 4.715711805555555 0.7161458333333334  C 4.688042534722238 0.7845052083333144  4.635959201388889 0.8313802083333334  4.574110243055555 0.8470052083333334  C 3.483615451388889 1.1263020833333144  2.4126519097222223 1.3372395833333333  1.3612196180555556 1.4817708333333333  C 0.9754774305555556 1.5345052083333333  0.5913628472222222 1.5423177083333144  0.21213107638890466 1.5032552083333333  C 0.15516493055555555 1.4973958333333333  0.1274956597222222 1.4602864583333333  0.1291232638888731 1.3919270833333333  C 0.1323784722222222 1.2180989583333333  0.21050347222220642 1.1243489583333333  0.3634982638888889 1.1106770833333333  Z " fill-rule="nonzero" fill="#bd88f7" stroke="none" transform="matrix(1 0 0 1 220 344 )" />
  </g>
</svg>