<?xml version="1.0" encoding="utf-8"?>
<svg version="1.1" xmlns:xlink="http://www.w3.org/1999/xlink" width="9px" height="3px" xmlns="http://www.w3.org/2000/svg">
  <g transform="matrix(1 0 0 1 -208 -345 )">
    <path d="M 4.99273681640625 0.6904296875  L 8.07275390625 0.78125  C 8.0628662109375 0.78271484375  8.052978515625 0.7856445312500142  8.0430908203125 0.787109375  C 8.31829833984375 1.4272460937500142  8.509460449218734 2.065917968749986  8.6165771484375 2.703125  C 6.78240966796875 2.707519531249986  5.0833740234375 2.63720703125  3.51947021484375 2.49365234375  L 0.95361328125 2.177246093750014  C 0.9371337890625 2.0791015625  0.8778076171875 2.041015625  0.77728271484375 2.06298828125  C 0.66522216796875 2.087890625  0.551513671875 2.08349609375  0.43780517578125 2.052734375  C 0.485595703125 2.03955078125  0.5152587890625 2.01904296875  0.52349853515625 1.9926757812499858  L 0.7196044921875 1.98388671875  C 0.77728271484375 1.98095703125  0.805297851562484 1.95458984375  0.805297851562484 1.9033203125000142  L 0.82177734375 0.1689453125  C 0.82177734375 0.1440429687499858  0.83660888671875 0.12060546875  0.85968017578125 0.10595703125  C 0.88275146484375 0.09130859375  0.9140625 0.08837890624998579  0.9404296875 0.09716796875  C 1.1085205078125 0.14990234375  1.2864990234375 0.19384765625  1.474365234375 0.23046875  C 2.372497558593766 0.40771484375  3.32830810546875 0.5439453125  4.3450927734375 0.6376953124999858  C 4.43572998046875 0.646484375  4.5032958984375 0.716796875  4.4967041015625 0.79736328125  L 4.374755859375 2.2900390625  C 4.37310791015625 2.31494140625  4.38299560546875 2.33984375  4.401123046875 2.358886718749986  C 4.4208984375 2.377929687499986  4.44891357421875 2.38818359375  4.4769287109375 2.38818359375  L 4.52471923828125 2.38818359375  C 4.559326171875 2.38818359375  4.5791015625 2.3720703125  4.5823974609375 2.341308593749986  L 4.73895263671875 0.88818359375  C 4.75213623046875 0.7724609375  4.862548828125 0.68603515625  4.99273681640625 0.6904296875  Z " fill-rule="nonzero" fill="#d39af6" stroke="none" transform="matrix(1 0 0 1 208 345 )" />
  </g>
</svg>