<?xml version="1.0" encoding="utf-8"?>
<svg version="1.1" xmlns:xlink="http://www.w3.org/1999/xlink" width="10px" height="2px" xmlns="http://www.w3.org/2000/svg">
  <g transform="matrix(1 0 0 1 -177 -344 )">
    <path d="M 0.5099826388888888 0.52978515625  C 0.4611545138888889 0.583984375  0.4334852430555555 0.484375  0.4286024305555555 0.23095703125  C 0.4692925347222222 0.2602539062500142  0.4985894097222222 0.2954101562499858  0.5197482638888888 0.337890625  C 0.5409071180555556 0.38037109375  0.5767144097222222 0.3935546875  0.6255425347222222 0.38037109375  C 0.9526909722222222 0.291015625  1.2830946180555556 0.2587890624999858  1.6151258680555556 0.28515625  C 1.890190972222222 0.30712890625  2.179904513888889 0.38623046875  2.4842664930555554 0.51953125  C 2.791883680555556 0.654296875  3.119032118055556 0.75244140625  3.4673394097222223 0.8125  C 3.6333550347222223 0.841796875  3.675672743055556 0.9560546875000142  3.820529513888889 1.0029296875  C 4.222547743055555 1.13330078125  4.634331597222222 1.27099609375  5.059136284722222 1.4145507812500142  C 5.295138888888888 1.49365234375  5.565321180555555 1.5361328125  5.869683159722222 1.54345703125  C 6.064995659722222 1.5478515625  6.261935763888888 1.54931640625  6.458875868055555 1.54931640625  C 6.644422743055555 1.54931640625  6.833224826388888 1.515625  7.025282118055555 1.44677734375  C 7.287326388888888 1.3544921875  7.542860243055555 1.27392578125  7.790256076388888 1.205078125  C 8.052300347222221 1.13330078125  8.299696180555555 1.041015625  8.534071180555555 0.9296875  C 8.988172743055555 0.71435546875  9.463433159722221 0.5166015625000142  9.959852430555555 0.33642578125  C 9.36252170138889 0.724609375  8.97189670138889 0.94140625  8.787977430555555 0.98974609375  C 8.465711805555555 1.0732421875  8.15646701388889 1.17724609375  7.858615451388888 1.3032226562499858  C 7.835828993055555 1.3134765625  7.808159722222222 1.31787109375  7.782118055555555 1.31494140625  C 7.720269097222222 1.310546875  7.668185763888888 1.32958984375  7.625868055555555 1.3720703125  C 7.591688368055555 1.4072265625  7.550998263888888 1.4365234375  7.505425347222222 1.4599609375  C 7.334526909722222 1.5478515625  7.162000868055555 1.5947265625  6.984592013888888 1.6005859375  C 6.795789930555555 1.60791015625  6.584201388888888 1.62841796875  6.351453993055555 1.66064453125  C 6.154513888888888 1.6884765625000142  5.936414930555555 1.68994140625  5.697157118055555 1.66796875  C 5.340711805555555 1.6342773437500142  5.008680555555555 1.60205078125  4.697808159722222 1.5712890625  C 4.632703993055555 1.56396484375  4.616427951388889 1.58740234375  4.650607638888889 1.638671875  C 4.666883680555555 1.66357421875  4.689670138888889 1.68115234375  4.720594618055555 1.6884765625000142  C 4.806857638888889 1.71484375  4.803602430555555 1.73095703125  4.714084201388889 1.73681640625  C 4.504123263888889 1.7529296875  4.290907118055555 1.75732421875  4.077690972222222 1.7529296875  L 2.648654513888889 1.66064453125  C 2.565646701388889 1.65478515625  2.4907769097222223 1.6123046875  2.4500868055555554 1.544921875  C 2.4159071180555554 1.4877929687500142  2.3719618055555554 1.45556640625  2.3182508680555554 1.4482421875  C 2.2547743055555554 1.43798828125  2.2271050347222223 1.462890625  2.2352430555555554 1.52001953125  C 2.2547743055555554 1.64453125  2.2157118055555554 1.72216796875  2.1196831597222223 1.7529296875  C 1.733940972222222 1.15234375  1.1968315972222223 0.7451171875  0.5099826388888888 0.52978515625  Z " fill-rule="nonzero" fill="#ffa19e" stroke="none" transform="matrix(1 0 0 1 177 344 )" />
  </g>
</svg>