<?xml version="1.0" encoding="utf-8"?>
<svg version="1.1" xmlns:xlink="http://www.w3.org/1999/xlink" width="3px" height="7px" xmlns="http://www.w3.org/2000/svg">
  <g transform="matrix(1 0 0 1 -169 -346 )">
    <path d="M 0.9375 5.869222005208334  C 0.7822265625 6.016194661458334  0.6796875 6.204182942708334  0.6298828125000071 6.434895833333334  C 0.5478515625 6.535725911458316  0.44970703125 6.617757161458334  0.3369140625000071 6.677571614583334  C 0.27099609375 6.711751302083334  0.24609375 6.687825520833334  0.26220703125 6.605794270833334  L 0.3178710937499929 6.320393880208334  C 0.328125 6.267415364583334  0.322265625 6.21614583333335  0.29736328125 6.168294270833334  C 0.26513671875 6.105061848958334  0.251953125 6.033284505208334  0.25927734375 5.949544270833334  C 0.2812499999999929 5.677815755208334  0.31201171875 5.411214192708334  0.3515625 5.146321614583316  C 0.32373046875 5.349690755208334  0.31494140625 5.464192708333334  0.32373046875 5.48982747395835  C 0.4101562500000071 5.749593098958334  0.45703125 5.741048177083334  0.46728515625 5.462483723958334  C 0.50830078125 4.33626302083335  0.6840820312499929 3.237386067708333  0.99462890625 2.162434895833333  C 1.22021484375 1.3780110677083335  1.751953125 0.8208821614583333  2.58984375 0.4910481770833499  C 2.65576171875 0.4654134114583333  2.68505859375 0.4927571614583333  2.67919921875 0.5730794270833333  C 2.65869140625 0.8567708333333333  2.525390625 1.0874837239583166  2.48876953125 1.3575032552083335  C 2.4345703125 1.7539876302083333  2.37890625 2.153889973958333  2.32177734375 2.555501302083333  C 2.3115234375 2.618733723958333  2.2880859375 2.680257161458333  2.2529296875 2.729817708333333  C 2.121093749999993 2.912679036458333  2.030273437500007 3.105794270833333  1.98193359375 3.309163411458317  C 1.93359375 3.5108235677083335  1.84130859375 3.7005208333333335  1.705078125 3.8799641927083335  C 1.6201171875 3.9927571614583166  1.55126953125 4.132893880208334  1.4970703125 4.300374348958334  C 1.4501953125 4.445638020833334  1.39599609375 4.587483723958334  1.3330078125 4.729329427083334  C 1.1865234375 5.052327473958334  1.07958984375 5.382161458333316  1.013671874999993 5.722249348958334  C 1.00341796875 5.782063802083334  0.9770507812499929 5.829915364583316  0.9375 5.869222005208334  Z " fill-rule="nonzero" fill="#582d8a" stroke="none" transform="matrix(1 0 0 1 169 346 )" />
  </g>
</svg>