<?xml version="1.0" encoding="utf-8"?>
<svg version="1.1" xmlns:xlink="http://www.w3.org/1999/xlink" width="14px" height="45px" xmlns="http://www.w3.org/2000/svg">
  <g transform="matrix(1 0 0 1 -217 -347 )">
    <path d="M 2.300703124999984 0.7307942708333334  C 4.19890625 0.7063802083333492  6.1053125 0.56640625  8.018281250000001 0.31087239583333337  L 7.891953125000001 4.184570312500016  C 7.570390625 4.563802083333333  7.252109375000001 4.970703125  6.935468749999984 5.403645833333318  C 6.30546875 6.267903645833333  5.97734375 7.244466145833333  5.951093749999984 8.333333333333318  C 5.946171875 8.541666666666668  6.100390625 8.719075520833334  6.30875 8.743489583333334  C 6.83703125 8.806966145833334  7.2192968749999995 7.8173828125  7.3423437499999995 7.434895833333334  C 7.375156250000001 7.332356770833333  7.462109374999999 7.255859374999984  7.567109375 7.234700520833318  C 7.673749999999984 7.213541666666667  7.7836718750000005 7.2509765625  7.85421875 7.332356770833333  C 7.9378906250000005 7.431640625  8.001874999999984 7.542317708333349  8.042890624999984 7.664388020833349  C 8.3496875 8.562825520833334  8.42515625 9.500325520833334  8.272578125 10.478515625  C 8.266015625 10.519205729166668  8.251249999999999 10.558268229166668  8.226640625 10.59244791666665  C 8.187265624999984 10.647786458333334  8.165937499999984 10.68359375  8.161015625 10.699869791666668  C 8.003515625000015 10.994466145833334  7.9116406249999995 11.267903645833332  7.88375 11.516927083333334  C 7.416171875000001 15.821940104166682  6.892812500000001 20.120442708333332  6.313671875 24.412434895833332  C 6.292343750000001 24.575195312499996  6.30546875 24.710286458333332  6.353046875 24.819335937500004  C 6.423593749999984 24.982096354166668  6.52203125 25.087890625  6.645078125 25.13671875  C 7.207812500000001 26.302083333333332  7.7164062500000155 27.405598958333336  8.170859375 28.447265625  C 8.999375 30.346679687499986  9.808203125000015 32.223307291666664  10.600625 34.07877604166667  L 11.133828125 35.291341145833314  L 13.775234375 41.42578125  C 13.466796875 42.115885416666664  13.099296875 42.652994791666664  12.671093749999999 43.035481770833336  C 12.236328125 43.426106770833336  11.66046875 43.76790364583333  10.940234375000001 44.05924479166665  C 10.703984375 44.1552734375  10.4365625 44.21875  10.139609375 44.24967447916667  C 9.865625 44.27734375  9.591640625 44.306640625  9.317656249999999 44.3359375  C 9.161796875 44.353841145833336  9.055156250000001 44.397786458333336  8.999375 44.467773437500014  C 8.946875000000015 44.454752604166664  8.891093750000001 44.453125  8.833671875 44.464518229166664  L 6.441640625000001 40.14322916666667  C 6.4662500000000165 40.104166666666664  6.513828125 40.087890625  6.58109375 40.094401041666686  C 6.615546875 40.09765625  6.650000000000016 40.11393229166668  6.674609375 40.138346354166664  L 6.861640625 40.323893229166664  C 6.9125000000000005 40.374348958333336  6.951875 40.3662109375  6.979765625 40.302734375  C 7.092968749999999 40.050455729166664  7.129062500000001 39.78515625  7.088046875000001 39.50520833333333  C 7.079843749999983 39.451497395833336  7.0962499999999995 39.405924479166664  7.133984374999999 39.368489583333336  L 7.225859375 39.27734375  C 7.261953125 39.24153645833333  7.278359375 39.197591145833314  7.276718750000001 39.147135416666664  L 7.2455468750000165 38.307291666666664  C 7.243906249999983 38.25520833333333  7.2652343750000155 38.216145833333336  7.311171874999999 38.1884765625  C 7.434218749999999 38.115234375  7.4604687499999995 38.01106770833333  7.389921875 37.87923177083333  C 7.380078124999999 37.861328125  7.3653125 37.849934895833336  7.345624999999984 37.845052083333336  C 7.329218750000001 37.84016927083333  7.3128125 37.83365885416665  7.298046874999999 37.823893229166664  C 7.2553906249999995 37.79622395833333  7.252109375000001 37.765299479166664  7.288203125000001 37.7294921875  L 7.6934375 37.33072916666667  C 7.727890625000001 37.296549479166664  7.741015625000001 37.254231770833336  7.736093749999983 37.20703125  C 7.72625 37.1337890625  7.750859374999999 37.08170572916665  7.8115625 37.04915364583333  C 7.8558593750000005 37.02473958333333  7.8804687500000155 36.988932291666664  7.885390624999999 36.938476562499986  C 7.9116406249999995 36.67317708333333  7.918203125 36.412760416666664  7.9067187500000005 36.1572265625  C 7.905078125000001 36.140950520833336  7.909999999999999 36.12630208333335  7.918203125 36.11328125  C 7.93953125 36.08235677083333  7.967421874999999 36.062825520833336  8.001874999999984 36.051432291666664  C 8.033046875 36.041666666666664  8.05109375 36.009114583333336  8.044531250000015 35.978190104166664  C 8.019921875 35.85774739583333  8.0609375 35.77311197916667  8.169218749999999 35.72428385416667  C 8.233203125000001 35.694986979166664  8.26109375 35.646158854166664  8.251249999999999 35.576171874999986  C 8.229921875000016 35.431315104166664  8.259453125 35.304361979166664  8.33984375 35.19856770833333  C 8.3759375 35.14973958333335  8.372656250000015 35.104166666666664  8.329999999999984 35.060221354166664  C 8.2446875 34.973958333333336  8.188906250000016 34.8681640625  8.164296875 34.742838541666686  C 8.159374999999999 34.724934895833336  8.165937499999984 34.71842447916667  8.183984375 34.721679687499986  C 8.198749999999999 34.724934895833336  8.211875 34.729817708333336  8.225 34.734700520833336  C 8.272578125 34.754231770833336  8.308671875 34.73958333333333  8.331640625000015 34.6923828125  C 8.384140625 34.580078125000014  8.387421875000001 34.477539062499986  8.343125 34.381510416666664  C 8.049453125 33.76953125  7.585156249999999 32.902018229166664  6.950234375 31.778971354166668  L 4.75671875 27.657877604166664  C 4.745234375 27.633463541666664  4.75015625 27.615559895833332  4.774765625000001 27.602539062500014  L 4.814140625 27.58138020833335  C 4.830546875 27.571614583333332  4.843671874999984 27.574869791666668  4.851875 27.5927734375  L 6.451484375 30.546875  C 6.46296875 30.569661458333336  6.485937500000016 30.584309895833332  6.5121875 30.587565104166668  C 6.538437500000001 30.592447916666682  6.564687500000001 30.582682291666668  6.582734375 30.564778645833332  L 6.85015625 30.296223958333332  C 6.866562500000001 30.279947916666668  6.8714843750000005 30.25390625  6.859999999999999 30.232747395833332  L 6.8304687500000005 30.180664062500004  C 6.805859375 30.136718750000004  6.810781250000001 30.094401041666664  6.841953125 30.055338541666668  C 6.90921875 29.969075520833332  6.969921875 29.881184895833346  7.02078125 29.791666666666668  C 7.068359375 29.708658854166668  7.0913281249999995 29.620768229166668  7.089687499999999 29.527994791666668  C 7.083125000000001 29.101562499999996  7.14546875 28.686523437500004  7.278359375 28.282877604166668  C 7.298046874999999 28.221028645833336  7.2964062499999995 28.160807291666664  7.2734375 28.1005859375  C 7.243906249999983 28.024088541666668  7.261953125 27.968750000000014  7.329218750000001 27.9345703125  C 7.3833593749999995 27.906901041666682  7.4145312500000005 27.864583333333314  7.4243749999999995 27.80436197916665  L 7.5014843749999995 27.351888020833332  C 7.5113281250000155 27.291666666666668  7.499843749999999 27.237955729166664  7.4653906249999995 27.1875  C 7.088046875000001 26.638997395833336  6.79109375 26.044921875  6.572890624999999 25.402018229166668  C 6.52859375 25.270182291666668  6.4613281250000005 25.166015625  6.37109375 25.086263020833332  C 6.2201562500000165 24.951171875000004  6.041328125 24.851888020833332  5.834609374999999 24.78515625  C 5.552421875 24.695638020833332  5.470390625 24.485677083333336  5.431015625000001 24.215494791666668  C 5.211171875000001 22.646484375  5.1865625 21.241861979166668  5.106171875 19.759114583333332  C 5.089765624999984 19.459635416666668  5.145546875 19.15852864583335  5.06515625 18.8623046875  C 5.050390625000016 18.80859375  5.020859375000001 18.766276041666664  4.973281249999999 18.7353515625  C 4.705859375 18.553059895833332  4.38921875 18.4716796875  4.2809375 18.113606770833332  C 4.272734375 18.087565104166668  4.249765624999984 18.06640625  4.221875 18.063151041666664  C 4.197265625 18.05826822916665  4.177578125 18.048502604166668  4.159531250000001 18.030598958333332  C 4.103750000000001 17.972005208333336  4.059453125 17.980143229166668  4.026640625 18.055013020833332  C 3.942968750000016 18.242187499999982  3.8986718750000002 18.465169270833318  3.8937500000000003 18.720703125  C 3.882265625000016 19.423828125000014  3.8297656250000003 20.144856770833332  3.7395312499999998 20.8837890625  C 3.6886718750000003 21.298828125  3.649296875 21.77734375  3.618125 22.322591145833336  C 3.5918750000000004 22.79947916666665  3.541015625 23.281250000000004  3.465546875 23.767903645833332  C 3.462265625 23.790690104166664  3.449140624999984 23.800455729166668  3.42453125 23.798828125  L 3.422890625 23.798828125  C 3.399921875 23.79720052083335  3.3884374999999842 23.784179687499996  3.3884374999999842 23.761393229166668  C 3.413046875 22.874348958333332  3.4425781250000003 21.987304687500018  3.47703125 21.0986328125  C 3.481953125 20.973307291666664  3.504921875 20.852864583333336  3.5426562500000003 20.740559895833336  C 3.586953125 20.608723958333336  3.60828125 20.4736328125  3.603359375 20.338541666666682  C 3.5803906249999997 19.690755208333332  3.6115625000000002 19.041341145833332  3.695234374999984 18.390299479166664  C 3.7395312499999998 18.04036458333335  3.6919531250000004 17.750651041666668  3.5590625 17.434895833333336  C 3.137421875 16.443684895833332  2.9815625000000003 15.556640624999986  3.093125 14.775390625  C 3.1702343749999997 14.228515625  3.2686718750000003 13.673502604166666  3.386796875 13.1103515625  C 3.47703125 12.685546875  3.204687500000016 12.133789062499998  3.01765625 11.759440104166668  C 1.933203125000016 9.578450520833334  2.0070312500000003 6.71875  2.28921875 4.239908854166667  C 2.40078125 3.2568359375  2.364687500000016 2.3079427083333335  2.300703124999984 1.337890625  C 2.2957812499999997 1.2662760416666665  2.261328125000016 1.1995442708333335  2.2039062499999997 1.1555989583333335  C 2.146484375 1.1100260416666667  2.074296875 1.092122395833349  2.002109375 1.1051432291666667  L 1.283515625 1.23046875  C 1.122734375 1.2679036458333333  1.029218749999984 1.2434895833333335  1.001328125 1.1539713541666825  C 0.9865625 1.1067708333333335  0.9553906249999999 1.0807291666666665  0.9061718749999841 1.0791015625  C 0.564921875 1.0595703125  0.37789062500000004 0.9602864583333333  0.3434375 0.78125  L 2.300703124999984 0.7307942708333334  Z " fill-rule="nonzero" fill="#351c66" stroke="none" transform="matrix(1 0 0 1 217 347 )" />
  </g>
</svg>