<?xml version="1.0" encoding="utf-8"?>
<svg version="1.1" xmlns:xlink="http://www.w3.org/1999/xlink" width="3px" height="18px" xmlns="http://www.w3.org/2000/svg">
  <g transform="matrix(1 0 0 1 -171 -347 )">
    <path d="M 2.453125 8.953308105468734  C 2.54541015625 8.9384765625  2.6171875 8.839599609375  2.669921875 8.65338134765625  C 2.69189453125 10.4051513671875  2.72265625 12.1519775390625  2.76220703125 13.8922119140625  C 2.76220703125 13.90045166015625  2.76953125 14.061950683593734  2.78271484375 14.37506103515625  C 2.80615234375 14.91064453125  2.7666015625 15.41986083984375  2.66552734375 15.90435791015625  C 2.6259765625 16.090576171875  2.646484375 16.2685546875  2.72705078125 16.4366455078125  C 2.76953125 16.52398681640625  2.76953125 16.631103515625  2.72705078125 16.718444824218736  C 2.684570312499993 16.8057861328125  2.60546875 16.863464355468736  2.517578125 16.8717041015625  L 1.2314453125 16.988708496093764  C 1.17724609375 16.99365234375  1.13330078125 17.039794921875  1.1259765625 17.09912109375  L 1.076171875 17.5045166015625  C 0.48583984375 14.7359619140625  0.19580078125 11.92291259765625  0.203125 9.0670166015625  C 0.2045898437500071 8.35345458984375  0.2045898437500071 7.634948730468734  0.20166015625 6.914794921875016  C 0.26171875 6.071044921875016  0.2939453125 5.22235107421875  0.2998046875 4.370361328125  C 0.3041992187499929 3.85784912109375  0.38037109375 2.979492187499984  0.52978515625 1.7369384765625  L 0.55029296875 1.87371826171875  C 0.5546875 1.9017333984375  0.5693359375 1.91656494140625  0.59423828125 1.91986083984375  C 0.61181640625 1.92315673828125  0.630859375 1.918212890625  0.64990234375 1.905029296875  C 0.65576171875 1.90008544921875  0.65869140625 1.8951416015625  0.66015625 1.886901855468734  L 0.7421875 1.36614990234375  C 0.74951171875 1.3150634765625  0.7451171875 1.26727294921875  0.72900390625 1.219482421875  C 0.6923828125 1.11236572265625  0.71142578125 1.023376464843766  0.783203125 0.95086669921875  C 0.81982421875 0.916259765625  0.841796875 0.87176513671875  0.85205078125 0.81903076171875  C 0.87841796875 0.672363281249984  0.90185546875 0.54547119140625  0.92236328125 0.43505859375  C 0.9384765625 0.349365234375  0.953125 0.34771728515625  0.96630859375 0.43011474609375  C 0.970703125 0.4581298828125  0.97216796875 0.494384765625  0.9677734375 0.53887939453125  C 0.830078125 1.990722656249984  0.7714843749999929 3.53155517578125  0.7919921875 5.1580810546875  C 0.794921875 5.32122802734375  0.8813476562499929 5.438232421875  0.9003906250000071 5.6063232421875  C 0.90771484375 5.659057617187516  0.9296875 5.700256347656266  0.96923828125 5.728271484375  C 1.0234375 5.76947021484375  1.06005859375 5.823852539062516  1.0791015625 5.88812255859375  C 1.14501953125 6.10400390625  1.229980468750007 6.2918701171875  1.26513671875 6.519287109375  C 1.27392578125 6.57366943359375  1.2958984375 6.62310791015625  1.328125 6.665954589843734  C 1.53466796875 6.9378662109375  1.723632812499993 7.242736816406234  1.89501953125 7.57891845703125  C 1.97705078125 7.74041748046875  2.02685546875 7.91015625  2.04296875 8.08648681640625  C 2.072265625000007 8.4078369140625  2.16748046875 8.6781005859375  2.330078125 8.89892578125  C 2.3623046875 8.94342041015625  2.4033203125 8.9615478515625  2.453125 8.953308105468734  Z " fill-rule="nonzero" fill="#fe7a57" stroke="none" transform="matrix(1 0 0 1 171 347 )" />
  </g>
</svg>