<?xml version="1.0" encoding="utf-8"?>
<svg version="1.1" xmlns:xlink="http://www.w3.org/1999/xlink" width="9px" height="37px" xmlns="http://www.w3.org/2000/svg">
  <g transform="matrix(1 0 0 1 -206 -347 )">
    <path d="M 2.1983642578125 9.271351207386349  L 3.20361328125 0.19873046875001593  L 5.76947021484375 0.5534889914772727  C 5.556884765625 0.8113458806818181  5.44976806640625 1.0314275568181819  5.451416015625 1.2170188210227273  C 5.451416015625 1.3434836647727273  5.451416015625 1.4108220880681979  5.44976806640625 1.4173916903409092  C 5.385498046875016 1.9708806818181819  5.344299316406266 2.5260120738636362  5.326171875 3.0844282670454546  C 5.301452636718734 3.9007013494318183  5.2833251953125 4.720259232954545  5.27178955078125 5.54638671875  C 5.266845703125 5.863370028409075  5.37396240234375 6.093306107954545  5.5931396484375 6.232910156249984  C 5.80902099609375 6.369229403409091  6.14849853515625 6.482555042613637  6.611572265625 6.5696022727272725  C 7.13726806640625 6.668146306818182  7.671203613281266 6.761763139204545  8.21337890625 6.848810369318166  C 8.369934082031234 6.873446377840909  8.4869384765625 7.0031960227272725  8.495178222656266 7.1608664772727275  L 8.786865234375 12.451038707386363  C 8.82147216796875 12.822221235795455  8.77532958984375 13.21639737215909  8.65008544921875 13.63192471590909  C 8.6220703125 13.72718394886362  8.5693359375 13.79287997159091  8.493530273437484 13.830655184659106  C 8.452331542968734 13.850363991477256  8.42596435546875 13.88321200284091  8.417724609375 13.927556818181818  L 8.101318359375 15.441850142045455  C 8.09307861328125 15.481267755681818  8.07659912109375 15.515758167613637  8.0518798828125 15.54532137784091  C 8.01397705078125 15.59130859375  8.00244140625 15.643865411931818  8.01727294921875 15.702991832386363  C 8.03704833984375 15.77197265625  8.03375244140625 15.84095348011362  8.009033203125 15.90829190340909  C 7.8079833984375 16.45028409090909  7.65472412109375 17.011985085227256  7.5509033203125 17.595037286931817  C 7.54925537109375 17.613103693181817  7.5509033203125 17.62952769886365  7.5574951171875 17.644309303977273  C 7.56243896484375 17.652521306818183  7.567382812499984 17.657448508522727  7.57562255859375 17.66073330965909  C 7.6201171875 17.67879971590909  7.628356933593734 17.706720525568183  7.60198974609375 17.746138139204547  C 7.48992919921875 17.91366299715909  7.455322265625 18.11075106534091  7.49981689453125 18.33740234375  C 7.5113525390625 18.394886363636363  7.494873046875 18.44580078125  7.4520263671875 18.491787997159108  C 7.41412353515625 18.53284801136365  7.4058837890625 18.58047762784091  7.43060302734375 18.633034446022712  C 7.46685791015625 18.710227272727273  7.4520263671875 18.7890625  7.38775634765625 18.866255326704547  C 7.3663330078125 18.892533735795453  7.36468505859375 18.92045454545453  7.382812500000016 18.95001775568182  L 7.41412353515625 18.999289772727273  C 7.44049072265625 19.04034978693182  7.43389892578125 19.071555397727273  7.3927001953125 19.09619140625  C 7.28558349609375 19.16024502840909  7.26416015625 19.235795454545453  7.32843017578125 19.326127485795453  C 7.34490966796875 19.35076349431818  7.339965820312484 19.370472301136363  7.3135986328125 19.38525390625  L 7.26910400390625 19.408247514204547  C 7.21142578125 19.439453125  7.18011474609375 19.487082741477273  7.175170898437484 19.551136363636363  L 7.1224365234375 20.11283735795456  C 7.12078857421875 20.140758167613637  7.1092529296875 20.16375177556818  7.09112548828125 20.183460582386363  C 7.0762939453125 20.19988458806818  7.0697021484375 20.219593394886363  7.06805419921875 20.24422940340909  C 7.0565185546875 20.472523082386363  6.969177246093734 20.654829545454547  6.806030273437516 20.787863991477273  C 6.769775390625 20.819069602272727  6.74835205078125 20.86505681818182  6.74835205078125 20.91104403409091  L 6.745056152343766 21.426757812500018  C 6.743408203124984 21.484241832386363  6.730224609375 21.540083451704547  6.703857421875016 21.590997869318198  C 6.59674072265625 21.796297940340928  6.591796875 21.875133167613637  6.611572265625 22.142844460227273  C 6.619812011718734 22.25617009943182  6.578613281249984 22.35142933238638  6.48468017578125 22.42862215909091  C 6.44677734375 22.459827769886363  6.42535400390625 22.505814985795453  6.42535400390625 22.553444602272727  L 6.42535400390625 22.8359375  C 6.42535400390625 22.863858309659108  6.435241699218766 22.88849431818182  6.456665039062516 22.908203125  C 6.4830322265625 22.932839133522727  6.5093994140625 22.94269353693182  6.53411865234375 22.93448153409091  C 6.6148681640625 22.90984552556818  6.641235351562516 22.93612393465909  6.6148681640625 23.0166015625  C 6.52093505859375 23.30402166193182  6.44677734375 23.57830255681818  6.38909912109375 23.841086647727273  C 6.333068847656266 24.097301136363637  6.26055908203125 24.37322443181818  6.169921875 24.670498934659108  C 6.07763671875 24.971058238636363  6.021606445312484 25.27325994318182  6.003479003906266 25.575461647727273  C 5.99853515625 25.631303267045453  5.97711181640625 25.678932883522727  5.939208984374984 25.718350497159108  C 5.83209228515625 25.830033735795453  5.78594970703125 25.966352982954547  5.80242919921875 26.12566583806818  C 5.807373046875 26.17986505681818  5.79913330078125 26.230779474431834  5.7777099609375 26.280051491477273  C 5.70355224609375 26.43936434659091  5.6788330078125 26.60360440340909  5.701904296875 26.77277166193182  C 5.741455078125 27.074973366477273  5.642578125 27.35418146306818  5.6986083984375 27.666237571022712  C 6.05621337890625 29.642045454545453  6.4171142578125 31.612926136363637  6.784606933593734 33.57887961647726  L 7.297119140625 36.53848544034091  C 7.300415039062516 36.55983664772727  7.29052734375 36.57297585227273  7.26910400390625 36.57790305397729  L 7.2213134765625 36.58611505681818  C 7.216369628906234 36.58775745738637  7.2147216796875 36.58447265625  7.21307373046875 36.57954545454545  L 6.78131103515625 34.33274147727273  L 5.385498046875016 26.78262606534091  C 5.383850097656234 26.77605646306818  5.38055419921875 26.77277166193182  5.372314453125 26.771129261363637  C 5.35748291015625 26.769486860795453  5.344299316406266 26.771129261363637  5.332763671875 26.779341264204547  C 5.301452636718734 26.80233487215909  5.29486083984375 26.795765269886363  5.31134033203125 26.761274857954547  C 5.319580078125 26.741566051136363  5.31793212890625 26.72349964488638  5.30474853515625 26.707075639204547  C 5.2635498046875 26.65616122159091  5.2174072265625 26.689009232954547  5.16961669921875 26.80890447443182  C 5.121826171875 26.927157315340892  5.0921630859375 27.05033735795453  5.0789794921875 27.176802201704547  C 5.06085205078125 27.349254261363637  5.0196533203125 27.510209517045453  4.952087402343766 27.66131036931818  C 4.924072265625 27.72207919034091  4.92572021484375 27.7861328125  4.95703125 27.85018643465909  C 4.98175048828125 27.899458451704547  4.973510742187516 27.960227272727273  4.93890380859375 28.00457208806818  C 4.8878173828125 28.06698330965909  4.891113281250016 28.124467329545453  4.9471435546875 28.178666548295453  C 4.9833984375 28.213156960227273  4.9866943359375 28.249289772727273  4.95703125 28.29034978693182  C 4.7362060546875 28.60076349431818  4.63568115234375 28.937455610795453  4.65380859375 29.30206853693182  C 4.65875244140625 29.37761896306818  4.62579345703125 29.43838778409091  4.5582275390625 29.48273259943182  C 4.515380859375 29.51065340909091  4.489013671875 29.559925426136363  4.489013671875 29.61248224431818  L 4.489013671875 30.36962890625  C 4.489013671875 30.39590731534091  4.498901367187516 30.41725852272726  4.51702880859375 30.435324928977273  L 4.56976318359375 30.48788174715909  C 4.6109619140625 30.528941761363637  4.61260986328125 30.57000177556818  4.57470703125 30.61270419034091  L 4.343994140625 30.878773082386363  C 4.330810546875 30.89519708806818  4.32421875 30.91326349431818  4.32421875 30.93297230113638  L 4.32421875 31.27294921875  C 4.32421875 31.3271484375  4.304443359375 31.37149325284091  4.26654052734375 31.40926846590909  L 4.21710205078125 31.460182883522727  C 4.17919921875 31.49795809659091  4.159423828125 31.54230291193182  4.159423828125 31.59650213068182  L 4.159423828125 32.11221590909091  C 4.159423828125 32.16477272727274  4.14129638671875 32.20911754261363  4.106689453124984 32.246892755681834  C 3.97979736328125 32.37992720170455  3.935302734375 32.55730646306818  3.97650146484375 32.77574573863637  C 3.98638916015625 32.82830255681818  3.9649658203125 32.861150568181806  3.91387939453125 32.87264737215909  C 3.6156005859375 32.94655539772727  3.500244140625 33.13543146306818  3.5694580078125 33.43927556818182  C 3.58099365234375 33.49018998579545  3.566162109375 33.53125  3.5233154296875 33.56245561079545  C 3.500244140625 33.57887961647726  3.49200439453125 33.601873224431834  3.500244140625 33.62979403409091  C 3.52001953125 33.69713245738637  3.49859619140625 33.74640447443182  3.4376220703125 33.77925248579545  C 3.35687255859375 33.82359730113637  3.3189697265625 33.89914772727273  3.323913574218734 34.00426136363637  C 3.33544921875 34.27197265625  3.26953125 34.51012073863637  3.12945556640625 34.72034801136363  C 3.1080322265625 34.75319602272727  3.1014404296875 34.792613636363654  3.10968017578125 34.83038884943182  L 3.1343994140625 34.94371448863637  C 3.14923095703125 35.01105291193182  3.117919921874984 35.03240411931818  3.037170410156266 35.00776811079545  C 3.00091552734375 34.996271306818166  2.9761962890625 35.03076171875  2.96466064453125 35.11288174715909  C 2.95806884765625 35.15229936079545  2.974548339843766 35.193359375  3.00750732421875 35.21799538352273  C 3.038818359375 35.24263139204544  3.076721191406234 35.25412819602273  3.117919921874984 35.25248579545455  C 3.183837890625 35.25084339488637  3.19207763671875 35.27219460227273  3.144287109375 35.31653941761363  C 3.0322265625 35.42001065340909  3.01080322265625 35.54647549715909  3.08001708984375 35.69757634943182  C 3.098144531250016 35.74027876420455  3.096496582031234 35.78133877840909  3.07177734375 35.81911399147729  C 3.06024169921875 35.83718039772726  3.04705810546875 35.85196200284091  3.0322265625 35.86510120738637  C 2.99267578125 35.90123401988638  2.9893798828125 35.94065163352271  3.02069091796875 35.98499644886363  C 3.10638427734375 36.10324928977273  3.08990478515625 36.22314453125  2.9696044921875 36.34468217329545  C 2.9267578125 36.38902698863637  2.91522216796875 36.43829900568182  2.93499755859375 36.495783025568194  C 2.99267578125 36.66823508522727  2.98114013671875 36.79634232954545  2.900390625 36.88338955965909  L 2.61859130859375 35.63023792613637  L 2.3170166015625 34.23912464488637  L 0.37078857421875 25.17471590909091  L 2.1983642578125 9.271351207386349  Z " fill-rule="nonzero" fill="#351c66" stroke="none" transform="matrix(1 0 0 1 206 347 )" />
  </g>
</svg>