<?xml version="1.0" encoding="utf-8"?>
<svg version="1.1" xmlns:xlink="http://www.w3.org/1999/xlink" width="8px" height="3px" xmlns="http://www.w3.org/2000/svg">
  <g transform="matrix(1 0 0 1 -211 -347 )">
    <path d="M 0.3950892857142857 1.08544921875  C 0.39341517857142855 0.919921875  0.5022321428571429 0.7236328125  0.7181919642857143 0.49365234375  C 2.306919642857143 0.63720703125  4.032924107142857 0.7075195312499858  5.896205357142857 0.703125  L 6.636160714285714 0.703125  C 6.671316964285714 0.8642578125  6.862165178571429 0.95361328125  7.210379464285698 0.97119140625  C 7.260602678571429 0.97265625  7.292410714285714 0.99609375  7.307477678571429 1.0385742187500142  C 7.335937499999984 1.119140625  7.431361607142857 1.14111328125  7.595424107142857 1.107421875  C 5.564732142857143 1.82666015625  3.29296875 2.19580078125  0.7767857142857143 2.2177734375  C 0.5005580357142857 2.220703125  0.3314732142857143 2.39794921875  0.26785714285714285 2.7509765625  C 0.28627232142858766 2.2529296875  0.32812500000001626 1.7578125  0.39341517857142855 1.26416015625  C 0.3950892857142857 1.2583007812500142  0.3950892857142857 1.1982421875  0.3950892857142857 1.08544921875  Z " fill-rule="nonzero" fill="#452477" stroke="none" transform="matrix(1 0 0 1 211 347 )" />
  </g>
</svg>