<?xml version="1.0" encoding="utf-8"?>
<svg version="1.1" xmlns:xlink="http://www.w3.org/1999/xlink" width="6px" height="11px" xmlns="http://www.w3.org/2000/svg">
  <g transform="matrix(1 0 0 1 -166 -346 )">
    <path d="M 5.905078124999999 0.18906250000000002  C 5.90859375 0.2019531250000156  5.90859375 0.21645507812499998  5.9033203125 0.2341796875  L 5.435742187500001 2.24833984375  C 5.2564453125 3.4632812499999845  5.165039062499991 4.322119140625  5.159765625 4.8232421875  C 5.152734375 5.656298828124999  5.114062499999999 6.486132812500015  5.0419921875 7.311132812500016  L 4.991015624999999 10.200244140625  C 4.989257812499991 10.251806640625016  4.9716796875 10.256640625  4.938281249999999 10.216357421875  L 4.83984375 10.09873046875  L 3.2103515625000085 10.591796875  C 3.1505859375000003 10.609521484375  3.0960937499999996 10.635302734375015  3.045117187499992 10.669140625  C 2.8412109374999996 10.802880859375  2.660156249999991 10.796435546875015  2.5037109375 10.651416015625  C 2.45625 10.60791015625  2.4017578124999996 10.577294921875  2.33671875 10.56279296875  C 1.8392578124999999 10.4435546875  1.33828125 10.32109375  0.8337890625000001 10.193798828125  C 0.6052734375 10.13740234375  0.4453125 10.02783203125  0.23964843749999998 9.939208984375  C 0.18691406249999998 9.916650390625  0.16054687499999998 9.87958984375  0.16054687499999998 9.826416015625  L 0.16054687499999998 9.62177734375  C 0.16054687499999998 9.47353515625  0.23789062500000002 9.41875  0.39433593749999996 9.457421875  L 2.5335937499999996 9.977880859375  C 2.6759765625 10.029443359374984  2.8148437500000085 10.024609375  2.9466796875000085 9.961767578125  C 3.1365234374999997 9.87314453125  3.2367187499999996 9.826416015625  3.2455078124999996 9.823193359375  C 3.7570312500000003 9.658837890625  4.273828125 9.486425781250016  4.7923828125000085 9.305957031250015  C 4.846874999999992 9.28662109375  4.876757812499999 9.249560546875  4.878515625 9.19638671875  C 4.911914062499999 8.489013671875  4.9189453125 7.760693359375001  4.903124999999999 7.009814453125015  C 4.901367187499991 6.967919921874984  4.920703124999999 6.871240234375  4.957617187500009 6.719775390624999  C 4.989257812499991 6.597314453125  4.948828125 6.495800781250001  4.8363281250000085 6.415234375000001  C 4.788867187499999 6.381396484374999  4.737890625000009 6.378173828125  4.68515625 6.403955078124984  C 4.117382812500001 6.68271484375  3.57421875 6.993701171874999  3.0539062500000003 7.335302734375  C 3.0416015625000004 7.343359375  3.0328125000000004 7.341748046875001  3.024023437500009 7.330468749999984  L 2.9906250000000085 7.286962890625  C 2.9730468749999996 7.26279296875  2.9765625 7.243457031249999  3.0029296875 7.225732421875  L 4.75546875 6.099414062499999  C 4.885546874999999 6.014013671875  4.9505859375 5.899609374999985  4.9505859375 5.752978515624999  L 4.9505859375 4.739453125  C 4.9505859375 4.584765625  4.8890625 4.560595703125  4.767773437500001 4.666943359375  L 3.155859375000009 6.067187499999999  C 3.2156249999999997 5.849658203124999  3.3386718749999997 5.672412109374999  3.5250000000000004 5.533837890625  C 3.572460937499992 5.496777343749985  3.6041015625000004 5.45166015625  3.616406249999992 5.395263671875  C 3.6955078125000003 5.0746093749999845  3.8238281250000004 4.763623046875  3.9996093750000004 4.45908203125  C 4.0751953125 4.325341796875  4.140234375 4.1916015625  4.196484375000001 4.054638671875  C 4.261523437499999 3.896728515625  4.344140625 3.7645996093749847  4.446093749999999 3.658251953125  C 4.609570312500001 3.4890625  4.7203125 3.3102050781249996  4.7783203125 3.1200683593749847  C 4.8363281250000085 2.9283203125000004  4.945312499999991 2.746240234375  5.103515625 2.573828125  C 5.145703125000001 2.527099609375  5.173828125 2.469091796875  5.1861328125 2.40947265625  C 5.254687499999999 2.030810546875  5.321484375000001 1.6537597656249998  5.386523437499999 1.279931640625  C 5.430468749999999 1.0253417968749843  5.5904296875 0.8078125  5.615039062499999 0.54033203125  C 5.6220703125 0.464599609375  5.5869140625 0.438818359375  5.5078125 0.4629882812500157  C 4.50234375 0.773974609375  3.8642578125 1.299267578125  3.5935546874999997 2.0388671875  C 3.220898437499992 3.0523925781249996  3.0099609375000003 4.0884765625000155  2.9607421875 5.150341796875  C 2.9484375 5.41298828125  2.8921875000000083 5.421044921875  2.7884765624999996 5.1761230468750155  C 2.7779296875000004 5.151953125  2.7884765624999996 5.043994140625  2.8218750000000004 4.852246093749985  C 2.923828124999991 3.7694335937499996  3.1611328125 2.710791015625  3.5320312499999997 1.6763183593750002  C 3.5759765624999997 1.55224609375  3.6076171875000003 1.42333984375  3.626953124999991 1.2895996093750157  C 3.6357421875 1.233203125  3.609375 1.19453125  3.5478515625 1.176806640625  C 3.5232421874999997 1.170361328125  3.4968749999999997 1.170361328125  3.46875 1.1751953125  C 3.4283203125000004 1.183251953125  3.3878906250000003 1.212255859375  3.3492187500000004 1.260595703125  C 3.1470703125000004 1.518408203125  2.9255859375 1.7875  2.6865234375 2.069482421875  C 3.0029296875 1.3041015625  3.5460937500000003 0.7610839843749999  4.3177734375 0.4404296875  C 4.586718749999999 0.329248046875  5.0912109375 0.22934570312500002  5.827734375 0.14072265625001562  C 5.868164062499991 0.135888671875  5.89453125 0.152001953125  5.905078124999999 0.18906250000000002  Z " fill-rule="nonzero" fill="#351c66" stroke="none" transform="matrix(1 0 0 1 166 346 )" />
  </g>
</svg>