<?xml version="1.0" encoding="utf-8"?>
<svg version="1.1" xmlns:xlink="http://www.w3.org/1999/xlink" width="15px" height="45px" xmlns="http://www.w3.org/2000/svg">
  <g transform="matrix(1 0 0 1 -210 -347 )">
    <path d="M 11.94118923611111 27.10232204861111  L 14.117296006944445 31.223415798611107  L 14.11892361111111 31.68240017361111  C 14.11892361111111 31.710069444444446  14.10915798611111 31.73773871527778  14.08962673611111 31.76052517361111  L 13.93337673611111 31.93793402777778  C 13.90407986111111 31.97211371527778  13.88454861111111 32.01443142361111  13.876410590277779 32.05837673611111  C 13.838975694444429 32.294379340277764  13.829210069444443 32.52875434027778  13.84548611111111 32.76150173611109  C 13.847113715277779 32.782660590277764  13.842230902777777 32.803819444444464  13.832465277777779 32.82497829861113  C 13.824327256944445 32.84288194444443  13.812934027777777 32.859157986111114  13.79991319444446 32.87217881944444  C 13.765733506944445 32.91124131944444  13.744574652777779 32.95681423611111  13.739691840277777 33.00889756944444  L 13.68435329861111 33.581814236111114  C 13.67947048611111 33.638780381944464  13.655056423611095 33.68760850694444  13.612738715277779 33.72504340277778  C 13.56716579861111 33.76573350694444  13.550889756944443 33.81781684027778  13.565538194444443 33.87803819444444  C 13.583441840277779 33.94802517361111  13.559027777777779 33.996853298611114  13.493923611111127 34.026150173611114  C 13.404405381944443 34.06846788194444  13.375108506944443 34.13845486111111  13.404405381944443 34.23773871527778  C 13.419053819444443 34.284939236111114  13.40115017361111 34.31749131944444  13.353949652777779 34.33539496527778  C 13.267686631944445 34.36469184027778  13.230251736111127 34.42816840277778  13.24490017361111 34.52582465277778  C 13.253038194444445 34.58279079861111  13.233506944444445 34.62836371527778  13.18793402777776 34.66254340277778  C 13.077256944444445 34.74555121527778  13.03982204861111 34.87250434027778  13.075629340277779 35.04177517361113  C 13.090277777777779 35.10525173611111  13.080512152777777 35.16547309027778  13.047960069444445 35.22243923611111  C 12.914496527777779 35.451931423611114  12.875434027777777 35.69932725694444  12.93240017361111 35.96462673611111  C 12.943793402777763 36.01508246527778  12.935655381944443 36.062282986111114  12.911241319444445 36.106228298611114  C 12.83474392361111 36.24131944444443  12.797309027777779 36.38617621527778  12.802191840277795 36.53917100694444  C 12.807074652777779 36.74750434027778  12.71755642361111 36.916775173611114  12.619900173611127 37.08930121527778  C 12.611762152777777 37.10394965277778  12.60036892361111 37.10557725694444  12.587348090277779 37.09581163194443  C 12.57595486111111 37.08767361111111  12.564561631944445 37.08116319444444  12.549913194444445 37.077907986111114  C 12.514105902777779 37.07139756944444  12.489691840277779 37.08441840277778  12.47667100694446 37.11859809027778  C 12.437608506944443 37.21462673611111  12.421332465277777 37.31065538194444  12.426215277777779 37.40831163194444  L 10.907660590277779 34.65277777777778  L 10.24197048611111 33.41579861111111  C 8.866644965277779 30.922309027777775  7.514105902777778 28.45648871527778  6.185980902777778 26.018337673611114  C 6.024848090277778 25.72374131944446  5.930447048611111 25.176866319444446  5.899522569444445 24.37771267361111  C 5.810004340277778 23.672960069444443  5.713975694444445 22.93240017361111  5.611436631944445 22.15277777777778  C 5.606553819444445 22.11371527777778  5.590277777777778 22.090928819444443  5.564236111111111 22.086046006944446  C 5.543077256944445 22.082790798611125  5.528428819444445 22.090928819444443  5.523546006944445 22.11208767361111  L 4.979926215277779 24.293077256944443  C 4.857855902777778 24.665798611111125  4.756944444444445 25.04828559027778  4.673936631944445 25.440538194444446  C 4.610460069444445 25.744900173611125  4.634874131944445 26.00531684027778  4.677191840277778 26.30316840277778  C 5.025499131944445 28.75271267361111  5.360785590277779 31.205512152777775  5.683051215277779 33.66156684027778  L 5.824652777777794 34.82530381944444  L 6.965603298611112 43.74620225694444  C 6.845160590277778 44.348415798611114  6.542426215277778 44.63487413194444  6.057400173611112 44.607204861111114  C 6.000434027777778 44.60232204861109  5.948350694444445 44.616970486111114  5.901150173611111 44.64952256944444  C 5.577256944444445 44.870876736111114  5.235460069444445 44.97504340277778  4.875759548611111 44.96202256944444  C 4.657660590277779 44.95388454861111  4.442816840277778 44.95551215277778  4.229600694444445 44.96853298611109  C 3.394639756944444 45.01898871527778  2.5840928819444446 44.914822048611114  1.7979600694444446 44.65766059027778  L 0.910915798611111 44.33376736111111  C 0.6716579861111112 43.768988715277764  0.500759548611111 43.157009548611114  0.4014756944444445 42.50108506944444  C 0.4844835069444445 42.63617621527778  0.5821397569444444 42.75010850694444  0.6944444444444444 42.84288194444444  C 0.7172309027777936 42.86078559027778  0.7335069444444444 42.85753038194444  0.7449001736111112 42.829861111111114  C 0.7465277777777778 42.82497829861111  0.7481553819444444 42.82009548611111  0.7465277777777778 42.815212673611114  C 0.7383897569444602 42.75499131944444  0.7530381944444444 42.74848090277778  0.793728298611111 42.79242621527776  C 0.7986111111111269 42.79730902777778  0.8034939236111112 42.80056423611111  0.8100043402777778 42.80219184027778  C 0.8181423611110953 42.80381944444444  0.8197699652777936 42.80870225694444  0.8132595486111112 42.81684027777778  C 0.8100043402777778 42.82172309027778  0.8067491319444444 42.82660590277778  0.8051215277777778 42.83148871527778  C 0.8002387152777777 42.85264756944443  0.8116319444444444 42.86729600694444  0.8376736111110954 42.87706163194444  C 0.8865017361111112 42.89659288194444  0.9271918402777778 42.89333767361109  0.9581163194444444 42.86729600694444  C 0.9825303819444603 42.84613715277778  0.9922960069444445 42.815212673611114  0.9857855902777777 42.77452256944444  C 0.9776475694444445 42.717556423611114  0.9548611111111112 42.66710069444444  0.9206814236111269 42.62478298611111  C 0.910915798611111 42.61338975694444  0.8995225694444287 42.61176215277778  0.8865017361111112 42.61990017361111  C 0.8718532986111112 42.63129340277779  0.8653428819444444 42.64268663194444  0.866970486111111 42.65733506944444  C 0.866970486111111 42.67198350694446  0.8685980902777778 42.67198350694446  0.8702256944444444 42.65733506944444  C 0.8881293402777777 42.541775173611114  0.9239366319444444 42.43760850694444  0.9760199652777778 42.34809027777778  C 1.023220486111127 42.26833767361111  1.093207465277778 42.234157986111114  1.1859809027777937 42.24880642361111  C 1.2201605902777777 42.25368923611111  1.254340277777778 42.24392361111113  1.2803819444444444 42.22113715277778  C 1.3064236111110954 42.19835069444444  1.3194444444444444 42.16417100694444  1.3178168402777777 42.12999131944444  C 1.2966579861111112 41.77354600694444  1.3991970486111112 41.41221788194444  1.400824652777778 41.09809027777778  C 1.4024522569444446 40.90928819444444  1.4024522569444446 40.72862413194444  1.3991970486111112 40.55447048611109  C 1.3975694444444444 40.49099392361111  1.3796657986111112 40.43402777777779  1.3438585069444446 40.38357204861111  C 1.3064236111110954 40.32823350694444  1.2999131944444446 40.26963975694443  1.3243272569444444 40.20616319444444  C 1.342230902777778 40.15896267361111  1.3357204861111112 40.105251736111114  1.3080512152777934 40.061306423611114  C 1.2055121527777934 39.90017361111111  1.1892361111111112 39.72276475694444  1.2592230902777777 39.52582465277778  C 1.3292100694444446 39.32888454861111  1.3357204861111112 39.149848090277764  1.2820095486111112 38.98871527777779  C 1.2608506944444444 38.92686631944443  1.2722439236111112 38.87152777777778  1.3145616319444446 38.82269965277778  C 1.3536241319444444 38.77549913194444  1.3682725694444602 38.7234157986111  1.356879340277778 38.663194444444464  L 1.3096788194444444 38.40928819444444  C 1.298285590277778 38.34906684027778  1.312934027777778 38.29372829861111  1.3503689236111112 38.244900173611114  C 1.4561631944444444 38.11306423611109  1.5131293402777777 37.96657986111111  1.5212673611111112 37.807074652777764  C 1.5228949652777777 37.756618923611114  1.5407986111111112 37.71104600694444  1.5717230902777934 37.67035590277778  C 1.7100694444444446 37.49457465277778  1.7751736111111267 37.28949652777778  1.7654079861111112 37.05512152777776  C 1.7637803819444444 36.99978298611111  1.7784288194444444 36.94932725694444  1.8126085069444446 36.90538194444444  C 1.879340277777778 36.81586371527778  1.9070095486111112 36.71332465277778  1.893988715277778 36.59776475694444  C 1.8419053819444446 36.12250434027778  1.9216579861111112 35.72536892361111  2.1332465277777777 35.40798611111113  C 2.1609157986110956 35.367296006944464  2.1739366319444446 35.32172309027778  2.1739366319444446 35.271267361111114  C 2.170681423611111 34.96690538194444  2.2048611111111107 34.65277777777778  2.2781032986111107 34.33213975694444  C 2.3139105902777777 34.17426215277778  2.405056423611095 34.08799913194444  2.445746527777762 33.93988715277778  C 2.4799262152777777 33.80805121527778  2.5206163194444446 33.71853298611109  2.566189236111111 33.66807725694444  C 2.6361762152777777 33.59157986111111  2.7159288194444446 33.52484809027778  2.808702256944444 33.46788194444444  L 3.235134548611111 35.69444444444444  C 3.2367621527777777 35.69932725694444  3.2383897569444287 35.70258246527778  3.2432725694444446 35.70095486111111  L 3.2904730902777777 35.69281684027779  C 3.3116319444444446 35.68793402777778  3.32139756944446 35.67491319444444  3.3181423611111107 35.65375434027778  L 2.811957465277762 32.72081163194443  C 2.867296006944444 32.54991319444444  2.8624131944444446 32.400173611111114  2.7989366319444446 32.26996527777778  C 2.7745225694444446 32.22276475694444  2.766384548611111 32.17393663194446  2.7728949652777937 32.12022569444444  C 2.7989366319444446 31.91677517361111  2.8038194444444446 31.711697048611114  2.7891710069444446 31.50824652777778  C 2.7761501736111107 31.33083767361111  2.8331163194444606 31.19411892361111  2.9665798611111107 31.08344184027778  C 3.0023871527777777 31.054144965277796  3.0316840277777777 31.01508246527778  3.0479600694444446 30.972764756944464  C 3.0821397569444446 30.88650173611111  3.1439887152777777 30.826280381944446  3.2302517361111107 30.79372829861111  C 3.2807074652777937 30.77419704861111  3.3018663194444606 30.73676215277778  3.292100694444444 30.68305121527778  C 3.2758246527777777 30.59841579861111  3.2904730902777777 30.518663194444446  3.337673611111111 30.442165798611097  C 3.3637152777777777 30.39822048611111  3.3702256944444446 30.34613715277778  3.3539496527777777 30.29730902777778  C 3.3262803819444446 30.215928819444446  3.350694444444444 30.162217881944443  3.425564236111111 30.13454861111111  C 3.459743923611111 30.123155381944446  3.4825303819444287 30.10036892361111  3.4955512152777777 30.06618923611111  C 3.5101996527777777 30.03200954861111  3.5020616319444446 30.00271267361111  3.474392361111111 29.97829861111111  C 3.44346788194446 29.949001736111107  3.4353298611111107 29.903428819444446  3.454861111111111 29.865993923611114  C 3.557400173611111 29.66905381944443  3.6322699652777777 29.490017361111114  3.6778428819444446 29.33051215277778  C 3.6859809027777617 29.30609809027778  3.6762152777777777 29.289822048611107  3.6518012152777777 29.284939236111125  C 3.6127387152777777 29.27517361111111  3.599717881944444 29.250759548611114  3.6111111111111107 29.21332465277778  C 3.6550564236111107 29.068467881944446  3.6713324652777777 28.90407986111111  3.658311631944444 28.72016059027778  C 3.6550564236111107 28.68598090277778  3.6485460069444446 28.65342881944446  3.6371527777777777 28.619249131944443  C 3.620876736111111 28.57204861111113  3.629014756944444 28.52810329861111  3.6631944444444446 28.489040798611097  C 3.6924913194444446 28.45648871527778  3.708767361111127 28.419053819444443  3.7136501736111107 28.375108506944443  L 3.7689887152777937 27.852647569444443  C 3.7754991319444446 27.78266059027778  3.747829861111095 27.732204861111114  3.68760850694446 27.698025173611125  C 3.5801866319444446 27.64105902777778  3.5687934027777777 27.564561631944443  3.6550564236111107 27.468532986111114  C 3.689236111111111 27.42947048611111  3.694118923611111 27.38715277777778  3.666449652777762 27.34320746527778  C 3.6404079861111107 27.29926215277778  3.645290798611095 27.25857204861111  3.6810980902777777 27.22113715277778  C 3.7120225694444446 27.188585069444457  3.7282986111111267 27.149522569444443  3.7266710069444287 27.10557725694443  L 3.6957465277777777 26.407335069444446  C 3.694118923611111 26.35362413194443  3.674587673611111 26.306423611111114  3.6371527777777777 26.26736111111111  C 3.4483506944444446 26.06716579861111  3.430447048611111 25.85232204861111  3.5834418402777777 25.626085069444443  C 3.614366319444444 25.58213975694446  3.629014756944444 25.528428819444446  3.6273871527777937 25.474717881944443  C 3.615993923611111 25.157335069444446  3.679470486111111 24.83669704861111  3.8194444444444446 24.512803819444443  C 3.895941840277778 24.33539496527778  3.996853298611111 24.18240017361111  4.125434027777778 24.05381944444443  C 4.299587673611112 23.87966579861111  4.442816840277778 23.69411892361111  4.553493923611111 23.50043402777778  C 4.594184027777778 23.428819444444443  4.571397569444445 23.336046006944446  4.499782986111095 23.295355902777775  C 4.358181423611096 23.21234809027778  4.335394965277779 23.10329861111111  4.433051215277778 22.969835069444443  C 4.467230902777779 22.924262152777775  4.506293402777778 22.88357204861111  4.551866319444445 22.847764756944446  C 4.587673611111111 22.818467881944443  4.612087673611111 22.77615017361111  4.618598090277778 22.730577256944443  L 4.680447048611112 22.25857204861111  C 4.685329861111127 22.232530381944443  4.680447048611112 22.208116319444443  4.665798611111112 22.18532986111111  C 4.651150173611112 22.159288194444446  4.629991319444445 22.144639756944443  4.602322048611095 22.143012152777793  C 4.538845486111111 22.13812934027778  4.511176215277779 22.105577256944446  4.519314236111112 22.04210069444446  C 4.535590277777778 21.89398871527778  4.586046006944445 21.754014756944446  4.672309027777779 21.622178819444446  C 4.708116319444445 21.56521267361111  4.729275173611111 21.504991319444443  4.737413194444445 21.43988715277778  C 4.776475694444445 21.089952256944443  4.833441840277779 20.77582465277778  4.906684027777763 20.50075954861111  C 4.944118923611112 20.36404079861111  5.015733506944445 20.24197048611111  5.123155381944445 20.132921006944443  C 5.163845486111112 20.09223090277778  5.183376736111111 20.04177517361111  5.181749131944445 19.98480902777776  C 5.178493923611112 19.87575954861111  5.191514756944429 19.76996527777778  5.222439236111112 19.66579861111111  C 5.253363715277762 19.560004340277793  5.264756944444445 19.454210069444443  5.254991319444461 19.34841579861111  C 5.224066840277778 19.024522569444443  5.211046006944445 18.69411892361111  5.215928819444445 18.357204861111093  C 5.217556423611111 18.22699652777778  5.183376736111111 18.113064236111093  5.111762152777793 18.01378038194446  C 5.079210069444445 17.96820746527778  5.064561631944445 17.91775173611111  5.066189236111111 17.86078559027778  C 5.119900173611112 16.749131944444443  5.113389756944445 15.611436631944429  5.046657986111112 14.449327256944445  C 5.041775173611111 14.35329861111111  4.994574652777779 14.281684027777777  4.958767361111112 14.198676215277779  C 4.932725694444445 14.13845486111111  4.919704861111111 14.068467881944445  4.919704861111111 13.99197048611111  C 4.926215277777778 13.257921006944443  4.882269965277778 12.52061631944446  4.789496527777779 11.783311631944445  L 4.501410590277794 6.540798611111111  C 4.493272569444445 6.384548611111111  4.377712673611096 6.255967881944445  4.223090277777778 6.231553819444429  C 3.68760850694446 6.145290798611111  3.160264756944444 6.052517361111112  2.6410590277777777 5.954861111111112  C 2.1837022569444446 5.868598090277778  1.8484157986111112 5.756293402777778  1.635199652777778 5.621202256944429  C 1.4187282986111112 5.482855902777778  1.312934027777778 5.254991319444429  1.3178168402777777 4.940863715277778  C 1.3292100694444446 4.122178819444445  1.347113715277762 3.3100043402777777  1.371527777777778 2.5010850694444446  C 1.4333767361111112 2.1088324652777777  1.5977647569444444 1.911892361111111  1.8663194444444444 1.908637152777778  C 4.312608506944445 1.884223090277778  6.521267361111111 1.4740668402777777  8.495551215277777 0.6749131944444444  L 9.208441840277779 0.549587673611111  C 9.28005642361111 0.5365668402777936  9.351671006944445 0.554470486111111  9.408637152777779 0.6000434027777778  C 9.465603298611127 0.6439887152777778  9.49978298611111 0.710720486111111  9.504665798611097 0.7823350694444444  C 9.568142361111127 1.752387152777778  9.603949652777779 2.701280381944444  9.493272569444443 3.684353298611111  C 9.213324652777777 6.163194444444445  9.140082465277795 9.022894965277779  10.215928819444445 11.20388454861111  C 10.40147569444446 11.578233506944443  10.67165798611111 12.129991319444445  10.582139756944445 12.554796006944443  C 10.464952256944445 13.11794704861111  10.367296006944445 13.672960069444445  10.29079861111111 14.219835069444445  C 10.180121527777777 15.001085069444429  10.33474392361111 15.888129340277777  10.753038194444443 16.87934027777778  C 10.884874131944443 17.19509548611111  10.932074652777779 17.484809027777793  10.88812934027776 17.83474392361111  C 10.805121527777779 18.48578559027778  10.77419704861111 19.13519965277778  10.796983506944443 19.78298611111113  C 10.801866319444445 19.918077256944446  10.780707465277777 20.05316840277778  10.736762152777777 20.18500434027778  C 10.699327256944445 20.29730902777778  10.67654079861111 20.41775173611111  10.67165798611111 20.543077256944443  C 10.63747829861111 21.43174913194446  10.60818142361111 22.31879340277778  10.583767361111095 23.205837673611114  C 10.583767361111095 23.228624131944446  10.595160590277779 23.241644965277793  10.61794704861111 23.243272569444446  L 10.619574652777777 23.243272569444446  C 10.643988715277763 23.24490017361111  10.65700954861111 23.23513454861111  10.660264756944445 23.21234809027778  C 10.73513454861111 22.725694444444443  10.785590277777779 22.243923611111093  10.811631944444443 21.76703559027778  C 10.84255642361111 21.221788194444443  10.88161892361111 20.743272569444446  10.932074652777779 20.328233506944446  C 11.021592881944445 19.58930121527778  11.073676215277795 18.86827256944446  11.085069444444445 18.165147569444443  C 11.089952256944443 17.90961371527776  11.13389756944446 17.68663194444443  11.216905381944445 17.49945746527778  C 11.249457465277777 17.42458767361111  11.293402777777777 17.41644965277778  11.348741319444445 17.47504340277778  C 11.366644965277777 17.49294704861111  11.386176215277779 17.502712673611097  11.410590277777777 17.50759548611111  C 11.438259548611097 17.510850694444443  11.461046006944445 17.53200954861111  11.469184027777777 17.55805121527778  C 11.576605902777779 17.916124131944443  11.890733506944445 17.99750434027778  12.15603298611111 18.179796006944443  C 12.203233506944443 18.21072048611111  12.23253038194446 18.253038194444443  12.247178819444443 18.306749131944446  C 12.32693142361111 18.602973090277793  12.271592881944429 18.90407986111111  12.28786892361111 19.20355902777778  C 12.367621527777779 20.68630642361111  12.392035590277777 22.090928819444443  12.61013454861111 23.65993923611111  C 12.64919704861111 23.93012152777778  12.730577256944443 24.14008246527778  13.01052517361111 24.229600694444443  C 13.21560329861111 24.29633246527778  13.393012152777793 24.395616319444443  13.54275173611111 24.53070746527778  C 13.632269965277779 24.610460069444446  13.69900173611111 24.71462673611111  13.74294704861111 24.84646267361111  C 13.959418402777777 25.489366319444446  14.254014756944443 26.08344184027778  14.628363715277779 26.631944444444446  C 14.662543402777777 26.68240017361111  14.67393663194446 26.73611111111111  14.664171006944443 26.79633246527778  L 14.58767361111111 27.248806423611093  C 14.57790798611111 27.309027777777764  14.546983506944443 27.351345486111125  14.493272569444445 27.379014756944446  C 14.42654079861111 27.413194444444464  14.408637152777763 27.468532986111114  14.437934027777779 27.545030381944443  C 14.46072048611111 27.60525173611111  14.462348090277779 27.66547309027778  14.442816840277777 27.72732204861111  C 14.310980902777777 28.130967881944443  14.249131944444445 28.546006944444446  14.25564236111111 28.97243923611111  C 14.257269965277779 29.06521267361111  14.234483506944445 29.15310329861111  14.18728298611111 29.23611111111111  C 14.136827256944443 29.325629340277793  14.076605902777777 29.41351996527778  14.009874131944445 29.49978298611111  C 13.978949652777779 29.53884548611111  13.974066840277777 29.581163194444443  13.998480902777779 29.625108506944443  L 14.027777777777779 29.67719184027778  C 14.039171006944445 29.698350694444443  14.034288194444443 29.72439236111111  14.018012152777777 29.74066840277778  L 13.75271267361111 30.00922309027778  C 13.734809027777779 30.02712673611111  13.70876736111111 30.03689236111113  13.682725694444443 30.03200954861111  C 13.656684027777793 30.02875434027778  13.633897569444445 30.01410590277778  13.622504340277777 29.991319444444446  L 12.035590277777779 27.037217881944443  C 12.027452256944429 27.01931423611111  12.01443142361111 27.01605902777778  11.998155381944443 27.025824652777793  L 11.959092881944445 27.04698350694446  C 11.934678819444445 27.06000434027778  11.929796006944445 27.07790798611111  11.94118923611111 27.10232204861111  Z M 4.618598090277778 42.61827256944444  L 3.366970486111111 35.80023871527778  C 3.3620876736111267 35.76931423611111  3.3311631944444446 35.74978298611111  3.300238715277762 35.75466579861113  L 3.2969835069444446 35.75629340277778  C 3.2823350694444446 35.75792100694444  3.269314236111111 35.76768663194444  3.2611762152777937 35.779079861111114  C 3.2530381944444446 35.79210069444444  3.249782986111111 35.80674913194444  3.2514105902777777 35.82139756944444  L 4.503038194444445 42.639431423611114  C 4.507921006944445 42.670355902777764  4.538845486111111 42.689887152777764  4.569769965277779 42.68500434027778  L 4.573025173611111 42.683376736111114  C 4.587673611111111 42.68174913194444  4.600694444444445 42.67198350694446  4.608832465277778 42.66059027777778  C 4.616970486111111 42.64756944444444  4.620225694444445 42.63292100694444  4.618598090277778 42.61827256944444  Z " fill-rule="nonzero" fill="#582d8a" stroke="none" transform="matrix(1 0 0 1 210 347 )" />
  </g>
</svg>