<?xml version="1.0" encoding="utf-8"?>
<svg version="1.1" xmlns:xlink="http://www.w3.org/1999/xlink" width="5px" height="9px" xmlns="http://www.w3.org/2000/svg">
  <g transform="matrix(1 0 0 1 -166 -347 )">
    <path d="M 3.270399305555556 0.5547449448529411  C 2.926974826388889 1.5504940257352942  2.7072482638888813 2.569508272058824  2.6128472222222223 3.6117876838235143  C 2.5689019097222223 3.8521943933823533  2.5347222222222143 4.094152113970588  2.5103081597222223 4.340762867647059  C 2.502170138888889 4.4167624080882355  2.516818576388889 4.481904871323529  2.552625868055556 4.5392922794117645  C 2.580295138888889 4.582720588235309  2.586805555555556 4.629250919117648  2.5754123263888813 4.677332261029411  L 2.513563368055556 4.936351102941177  C 2.4956597222222223 5.010799632352941  2.523328993055556 5.0325137867647065  2.5965711805555634 5.00149356617647  C 2.721896701388889 4.947208180147059  2.830946180555556 4.872759650735279  2.922092013888897 4.78125  L 4.414605034722222 3.433421415441176  C 4.526909722222222 3.3310546875  4.583875868055555 3.354319852941176  4.583875868055555 3.5032169117647056  L 4.583875868055555 4.478802849264706  C 4.583875868055555 4.6199448529411615  4.523654513888889 4.730066636029411  4.403211805555555 4.8122702205882355  L 2.780490451388889 5.896426930147059  C 2.756076388888889 5.913488051470589  2.752821180555556 5.93210018382353  2.76909722222223 5.9553653492647065  L 2.800021701388897 5.997242647058808  C 2.8081597222222223 6.0080997242647065  2.816297743055556 6.009650735294118  2.8276909722222223 6.001895680147059  C 3.309461805555556 5.6730813419117645  3.812391493055556 5.3737362132352935  4.338107638888889 5.105411305147044  C 4.386935763888896 5.08059512867647  4.434136284722222 5.0836971507352935  4.47808159722223 5.116268382352941  C 4.582248263888889 5.19381893382353  4.619683159722214 5.29153262867647  4.59038628472223 5.4094094669117645  C 4.556206597222222 5.55520450367647  4.538302951388881 5.6482651654411615  4.539930555555555 5.688591452205897  C 4.554578993055555 6.4113625919117645  4.548068576388889 7.112419577205882  4.517144097222222 7.793313419117648  C 4.515516493055555 7.8444967830882355  4.487847222222214 7.8801700367647065  4.437391493055563 7.898782169117663  C 3.957248263888889 8.07249540441178  3.478732638888889 8.238453584558824  3.005099826388889 8.396656709558824  C 2.996961805555556 8.399758731617647  2.904188368055556 8.444738051470589  2.7284071180555634 8.530043658088236  C 2.6063368055555634 8.590533088235293  2.477756076388889 8.595186121323515  2.345920138888889 8.545553768382353  L 2.3866102430555554 6.695197610294103  C 2.3882378472222223 6.630055147058823  2.360568576388889 6.568014705882352  2.311740451388897 6.524586397058823  C 2.262912326388889 6.479607077205882  2.194552951388889 6.457892922794118  2.127821180555548 6.46409696691178  C 1.8869357638888888 6.484260110294118  1.641167534722222 6.521484375000015  1.3888888888888888 6.57887178308822  C 1.2245008680555556 6.617647058823514  1.0584852430555556 6.6409122242647065  0.890842013888889 6.6486672794117645  C 0.715060763888889 6.656422334558808  0.5539279513888888 6.68899356617647  0.4058159722222222 6.7463809742647065  C 0.3504774305555555 6.76809512867647  0.3195529513888889 6.751034007352941  0.3130425347222222 6.6936465992647065  C 0.3049045138888889 6.633157169117648  0.2837456597222222 6.575769761029411  0.24956597222222224 6.521484375000015  C 0.4546440972222222 6.18801700367647  0.7476128472222222 5.823529411764721  1.1300998263888888 5.429572610294118  C 1.480034722222222 5.069738051470589  1.582573784722222 4.66647518382353  1.6525607638888888 4.128274356617647  C 1.7892795138888888 3.068933823529397  2.043185763888889 2.0359604779411766  2.4126519097222143 1.0293543198529411  C 2.4452039930555554 0.9424977022058824  2.4696180555555554 0.9099264705882353  2.487521701388889 0.9331916360294117  C 2.708875868055556 0.6617647058823529  2.913953993055556 0.4027458639705882  3.1011284722222223 0.1545840992647059  C 3.136935763888889 0.10805376838235295  3.1743706597222223 0.08013556985294118  3.211805555555556 0.07238051470588235  C 3.2378472222222223 0.06772748161764706  3.2622612847222223 0.06772748161764706  3.285047743055556 0.07393152573529412  C 3.342013888888889 0.09099264705882354  3.366427951388889 0.12821691176470587  3.3582899305555474 0.1825022977941327  C 3.3403862847222223 0.31123621323529416  3.3110894097222223 0.4353170955882353  3.270399305555556 0.5547449448529411  Z " fill-rule="nonzero" fill="#751f83" stroke="none" transform="matrix(1 0 0 1 166 347 )" />
  </g>
</svg>