<?xml version="1.0" encoding="utf-8"?>
<svg version="1.1" xmlns:xlink="http://www.w3.org/1999/xlink" width="11px" height="25px" xmlns="http://www.w3.org/2000/svg">
  <g transform="matrix(1 0 0 1 -172 -347 )">
    <path d="M 3.8909333881578947 8.123224431818182  C 3.904502467105263 8.429509943181818  3.8604029605263155 8.722478693181818  3.7586348684210527 9.000466086647728  L 3.6823087993421053 9.388316761363637  C 3.672131990131579 9.441583806818182  3.6483861019736845 9.488192471590908  3.609375 9.529807350852272  C 3.5126953125 9.634676846590908  3.466899671052632 9.761186079545455  3.4736842105263155 9.907670454545455  C 3.478772615131579 10.010875355113637  3.5008223684210527 10.014204545454545  3.539833470394737 9.919322620738653  L 3.704358552631579 9.509832208806818  C 3.670435855263158 9.807794744318182  3.628032483552632 10.092440518465908  3.5771484375 10.365434126420455  C 3.5550986842105265 10.483620383522728  3.5567948190789473 10.566850142045455  3.5856291118421053 10.615123401988637  C 3.655170641447368 10.736638849431818  3.702662417763158 10.729980468750016  3.724712171052632 10.591819069602272  C 3.829872532894737 9.950949928977272  3.945209703947368 9.303422407670455  4.072419819078948 8.649236505681834  C 4.104646381578948 8.709161931818182  4.145353618421052 8.752441406249984  4.1928453947368425 8.780739524147728  L 3.767115542763158 11.006303267045455  C 3.5890213815789473 11.126154119318198  3.4244962993421053 11.222700639204545  3.2701480263157894 11.297607421875  C 3.2311369243421053 11.31591796875  3.203998766447368 11.350874467329545  3.188733552631579 11.399147727272728  C 3.158203125 11.497358842329545  3.1361533717105265 11.495694247159092  3.122584292763158 11.394153941761347  C 3.1157997532894735 11.345880681818182  3.1056229440789473 11.299272017045455  3.090357730263158 11.252663352272728  C 3.058131167763158 11.151123046875  3.034385279605263 11.152787642045455  3.0174239309210527 11.257657137784092  C 2.8851254111842106 12.059992009943166  2.905479029605263 12.893954190340926  2.7630037006578947 13.672984730113635  C 2.6256167763157894 14.427046342329545  2.474660773026316 15.204412286931834  2.311831825657903 16.005082563920457  C 2.2728207236842106 16.18985262784091  2.277909128289474 16.379616477272727  2.323704769736842 16.57437411221591  C 2.3762849506578947 16.795765269886363  2.4119037828947367 16.79410067471591  2.4322574013157894 16.566051136363637  C 2.4610916940789473 16.251442649147727  2.5475945723684212 15.933504971590908  2.6917660361842106 15.612238103693182  C 2.839329769736842 15.284312855113635  2.978412828947368 14.46533203125  3.1056229440789473 13.151966441761365  L 3.203998766447368 14.187344637784092  C 3.2073910361842106 14.227294921875  3.22265625 14.232288707386365  3.251490542763158 14.202325994318182  C 3.2701480263157894 14.18235085227271  3.2803248355263155 14.157381924715908  3.285413240131579 14.125754616477273  C 3.287109375 14.110773259943182  3.2955900493421053 14.104114879261365  3.3108552631578947 14.104114879261365  C 3.315943667763158 14.104114879261365  3.321032072368421 14.105779474431818  3.324424342105263 14.110773259943182  C 3.3430818256578947 14.130748401988635  3.353258634868421 14.125754616477273  3.354954769736842 14.097456498579545  C 3.3617393092105265 13.76953125  3.317639802631579 13.451593572443182  3.22265625 13.143643465909108  C 3.120888157894737 12.8173828125  3.1141036184210527 12.534401633522727  3.3939658717105265 12.288041548295455  C 3.611071134868421 12.096613103693182  3.756938733552632 11.883544921875  3.831568667763158 11.645507812500016  C 3.8468338815789473 11.600563742897728  3.8773643092105265 11.577259410511363  3.926552220394737 11.577259410511363  C 4.019839638157895 11.578924005681818  4.0961657072368425 11.612215909090908  4.155530427631579 11.675470525568182  C 4.191149259868421 11.713756214488637  4.233552631578948 11.743718927556818  4.2827405427631575 11.763694069602272  L 4.613486842105263 11.903520063920455  C 4.674547697368421 11.928488991477272  4.706774259868421 11.973433061079545  4.711862664473684 12.038352272727272  L 4.76953125 12.832364169034108  C 4.7729235197368425 12.887295809659092  4.7983655427631575 12.930575284090908  4.847553453947368 12.960537997159092  C 5.035824424342105 13.075395063920455  5.237664473684211 13.158624822443182  5.4564658717105265 13.208562677556818  C 5.563322368421053 13.233531605113635  5.654913651315789 13.221879438920455  5.727847450657895 13.171941583806818  C 5.777035361842105 13.138649680397727  5.831311677631579 13.128662109375  5.888980263157895 13.14197887073862  L 6.628495065789474 13.313432173295455  C 6.677682976973684 13.325084339488635  6.713301809210526 13.350053267045439  6.738743832236842 13.3916681463068  C 6.781147203947369 13.456587357954561  6.838815789473684 13.481556285511365  6.915141858552631 13.463245738636365  C 6.9931640625 13.444935191761365  7.062705592105264 13.463245738636365  7.1220703125 13.516512784090892  C 7.317125822368421 13.692959872159092  7.518965871710526 13.764537464488635  7.729286595394736 13.73291015625  C 8.714740953947368 14.375443892045455  9.695106907894736 15.27099609375  10.670384457236842 16.42123135653409  L 9.174393503289474 17.107044566761363  C 8.777497944078947 17.220237038352256  8.389083059210526 17.326771129261378  8.00914884868421 17.428311434659076  C 6.391036184210526 17.85611239346591  4.778011924342105 17.839466441761363  3.1700760690789473 17.381702769886363  C 2.9241365131578947 17.310125177556817  2.7053351151315788 17.210249467329543  2.5136718750000084 17.082075639204543  C 2.488229851973684 17.063765092329543  2.4543071546052633 17.06210049715909  2.427168996710526 17.077081853693198  C 2.4000308388157894 17.090398615056817  2.3830694901315788 17.120361328125  2.384765625 17.150324041193183  L 2.442434210526316 18.467018821022727  C 2.445826480263158 18.553577769886378  2.503495065789474 18.628484552556817  2.586605674342097 18.653453480113637  C 3.0496504934210527 18.80326704545456  5.0307360197368425 19.563987038352273  4.5727796052631575 20.314719460227273  C 4.4794921875 20.469526811079543  4.2861328125 20.536110617897727  4.113127055921052 20.476185191761363  L 3.7179276315789473 20.338023792613637  C 3.6178556743421053 20.30306729403409  3.580540707236842 20.336359197443183  3.607678865131579 20.436234907670457  C 3.7603310032894735 20.993874289772727  3.936729029605263 21.444979580965892  4.1351768092105265 21.78955078125  C 4.408254523026316 22.258966619318183  4.9408408717105265 23.317649147727256  4.262386924342105 23.590642755681817  C 4.062243009868421 23.430841619318183  3.904502467105263 23.226096413352273  3.7874691611842106 22.978071732954543  C 3.6534745065789473 22.693425958806802  3.510999177631579 22.40878018465909  3.3600431743421053 22.127463600852273  C 3.353258634868421 22.11581143465909  3.3430818256578947 22.112482244318198  3.3312088815789473 22.119140625  L 3.290501644736842 22.14078036221591  C 3.2650596217105265 22.15409712357956  3.256578947368421 22.174072265625018  3.2667557565789473 22.200705788352273  C 3.5025185032894735 22.779984907670457  3.6857010690789473 23.344282670454543  3.8129111842105265 23.895263671875  C 3.8926295230263155 24.241499467329543  3.767115542763158 24.45956143465909  3.434673108552632 24.547784978693183  C 3.3939658717105265 24.559437144886363  3.349866365131579 24.544455788352256  3.3261204769736845 24.511163884943183  C 2.978412828947368 24.031760475852273  2.7596114309210527 23.499090021306817  2.6714124177631495 22.914817116477273  C 2.6697162828947367 22.901500355113622  2.6612356085526234 22.88818359375  2.649362664473684 22.87986061789771  C 2.639185855263158 22.87320223721591  2.6239206414473686 22.869873046875  2.6103515625 22.871537642045457  L 2.567948190789474 22.878196022727273  C 2.5560752467105345 22.87986061789771  2.5458984375 22.886518998579543  2.539113898026316 22.894841974431817  C 2.5323293585526314 22.904829545454543  2.5306332236842106 22.916481711647727  2.5323293585526314 22.92813387784091  C 2.6256167763157894 23.375909978693183  2.785053453947368 23.86030717329547  3.0140316611842106 24.381325461647727  C 3.0445620888157894 24.451238458806817  3.0411698190789473 24.531139026988637  3.0038548519736845 24.597722833806817  C 2.966539884868421 24.664306640625  2.902086759868421 24.71091530539771  2.8257606907894735 24.724232066761363  C 2.4152960526315788 24.795809659090924  2.19140625 24.626020951704543  2.1523951480263075 24.216530539772727  C 2.1473067434210527 24.161598899147727  2.126953125 24.108331853693166  2.0947265625 24.065052379261363  C 1.959035773026316 23.883611505681817  1.8555715460526232 23.680530894886363  1.7843338815789473 23.457475142045457  C 1.7826377467105263 23.455810546875  1.7809416118420969 23.454145951704543  1.779245476973684 23.455810546875  C 1.7775493421052633 23.455810546875  1.7775493421052633 23.455810546875  1.7758532072368423 23.455810546875  C 1.765676398026316 23.457475142045457  1.7622841282894737 23.46413352272729  1.765676398026316 23.47412109375  C 1.838610197368421 23.75377308238635  1.8877981085526399 24.043412642045457  1.9132401315789473 24.341375177556817  C 1.9200246710526399 24.431263316761363  1.8776212993421135 24.469549005681817  1.7877261513157896 24.457896839488637  C 0.605520148026324 24.303089488636363  0.2730777138157895 21.806196732954543  0.1543482730263158 20.928955078125  L 0.13738692434210525 20.59603604403409  C 0.14586759868421054 20.166570490056817  0.19844777960526316 19.738769531249982  0.2934313322368421 19.312633167613637  C 0.356188322368421 19.031316583806802  0.2883429276315789 18.488658558238637  0.08819901315789475 17.681329900568183  L 0.14586759868421054 17.271839488636363  C 0.1543482730263158 17.2119140625  0.20523231907894737 17.165305397727273  0.2679893092105263 17.160311612215924  L 1.7571957236842104 17.042125355113637  C 1.8589638157894737 17.03380237926135  1.9505550986842022 16.975541548295457  1.999743009868421 16.88731800426135  C 2.0489309210526314 16.799094460227273  2.0489309210526314 16.690895774147727  1.999743009868421 16.602672230113637  C 1.9064555921052633 16.432883522727273  1.8827097039473686 16.253107244318183  1.9285053453947367 16.065007990056817  C 2.0455386513157894 15.575617009943182  2.091334292763158 15.061257102272727  2.0641961348684212 14.520263671875  C 2.0489309210526314 14.20399058948862  2.040450246710526 14.040860262784092  2.040450246710526 14.032537286931818  C 1.9946546052631577 12.274724786931818  1.959035773026316 10.51025390625  1.93359375 8.740789240056818  C 1.9573396381578947 6.255548650568166  2.023488898026316 4.446133700284107  2.130345394736842 3.3108797940340913  C 2.2100637335526314 2.460271661931818  2.262643914473684 1.8526944247159092  2.2863898026315788 1.4848188920454546  C 2.2965666118421053 1.3266823508522727  2.316920230263158 1.171875  2.349146792763158 1.0237260298295454  C 2.3898540296052633 0.8356267755681818  2.3728926809210527 0.6508567116477273  2.298262746710526 0.4694158380681818  C 2.289782072368413 0.44944069602271114  2.294870476973684 0.4278009588068182  2.311831825657903 0.4128196022727273  C 2.327097039473684 0.3995028409090909  2.3508429276315788 0.3961736505681818  2.3711965460526314 0.4061612215909091  L 2.427168996710526 0.4361239346590909  C 2.4729646381578947 0.45942826704545453  2.510279605263158 0.494384765625  2.534025493421044 0.5393288352272727  C 3.032689144736842 1.443204012784091  3.3125513980263155 2.4219859730113638  3.3753083881578947 3.4756747159090913  C 3.387181332236842 3.6587801846590913  3.417711759868421 3.8468794389204546  3.466899671052632 4.039972478693182  C 3.5194798519736845 4.244717684659091  3.575452302631579 4.446133700284107  3.6348170230263155 4.644220525568182  C 3.700966282894737 4.865611683238636  3.7535464638157894 5.09199662642047  3.7908614309210527 5.3200461647727435  C 3.816303453947368 5.474853515625  3.8553145559210527 5.624667080965909  3.9078947368421053 5.772816051136364  C 4.053762335526316 6.187300248579546  4.009662828947368 6.759920987215909  4.026624177631579 7.212690873579529  C 4.041889391447368 7.5522682883522725  3.8756681743421053 7.796963778409107  3.8909333881578947 8.123224431818182  Z " fill-rule="nonzero" fill="#fd5e44" stroke="none" transform="matrix(1 0 0 1 172 347 )" />
  </g>
</svg>