<?xml version="1.0" encoding="utf-8"?>
<svg version="1.1" xmlns:xlink="http://www.w3.org/1999/xlink" width="4px" height="21px" xmlns="http://www.w3.org/2000/svg">
  <g transform="matrix(1 0 0 1 -211 -359 )">
    <path d="M 3.0731026785714284 1.2801192434210527  C 3.2003348214285716 0.8705026726973684  3.2472098214285716 0.48193359375  3.2120535714285716 0.11603104440789473  C 3.3074776785714284 0.8494551809210683  3.3526785714285716 1.5828793174342106  3.345982142857143 2.3130653782894735  C 3.345982142857143 2.38916015625  3.359375 2.4587787828947367  3.3861607142857144 2.5186831825657894  C 3.4229910714285716 2.6012541118421053  3.4715401785714284 2.67249177631579  3.4765625 2.7680150082236845  C 3.545200892857143 3.9240080180920893  3.5518973214285716 5.055715460526316  3.4966517857142856 6.161518297697369  C 3.4949776785714284 6.2181846217105265  3.510044642857143 6.268374794407894  3.543526785714302 6.313707853618437  C 3.6171875 6.4124691611841955  3.65234375 6.5258018092105265  3.650669642857143 6.6553248355263  C 3.6456473214285716 6.99046566611842  3.6590401785714284 7.319130345394737  3.6908482142857304 7.641318873355263  C 3.700892857142857 7.7465563322368425  3.6891741071428408 7.851793791118437  3.6573660714285716 7.95703125  C 3.6255580357142696 8.060649671052632  3.6121651785714284 8.16588712993421  3.615513392857143 8.274362664473669  C 3.6171875 8.331028988486842  3.5970982142857144 8.38121916118421  3.5552455357142856 8.421695106907894  C 3.4447544642857144 8.530170641447368  3.37109375 8.651598478618421  3.3325892857142696 8.78759765625  C 3.2572544642857144 9.061215049342106  3.1986607142857144 9.373689350328947  3.158482142857143 9.721782483552632  C 3.150111607142857 9.786543996710526  3.1283482142857144 9.846448396381579  3.091517857142857 9.903114720394736  C 3.0027901785714284 10.034256784539474  2.950892857142857 10.173494037828947  2.9341517857142856 10.320826480263174  C 2.92578125 10.383968955592106  2.9542410714285716 10.416349712171053  3.0195312499999836 10.42120682565791  C 3.0479910714285716 10.422825863486842  3.0697544642857144 10.437397203947368  3.0848214285714284 10.463301809210526  C 3.099888392857143 10.48596833881579  3.1049107142857304 10.51025390625  3.099888392857143 10.53615851151316  L 3.0362723214285716 11.005679481907894  C 3.029575892857143 11.051012541118421  3.0044642857142856 11.093107524671053  2.9676339285714284 11.122250205592106  C 2.9207589285714284 11.157869037828947  2.880580357142857 11.198344983552632  2.845424107142857 11.24367804276316  C 2.7449776785714284 11.37643914473684  2.7684151785714124 11.484914679276315  2.9140624999999836 11.567485608552632  C 2.9877232142857144 11.607961554276315  3.0111607142857144 11.700246710526315  2.9693080357142856 11.771484375  C 2.85546875 11.964149876644738  2.7081473214285716 12.148720189144738  2.529017857142857 12.32195723684209  C 2.396763392857143 12.449861225328947  2.29296875 12.60205078125  2.2142857142857144 12.778525904605262  C 2.0703125 13.100714432565788  2.0050223214285716 13.419664884868421  2.0167410714285876 13.73537726151316  C 2.0184151785714284 13.788805509868421  2.0033482142857144 13.8422337582237  1.9715401785714286 13.885947779605262  C 1.8141741071428572 14.110994037828947  1.8325892857142858 14.32470703125  2.0267857142857144 14.523848684210526  C 2.0652901785714284 14.562705592105262  2.0853794642857144 14.609657689144722  2.0870535714285716 14.6630859375  L 2.1188616071428408 15.357653166118403  C 2.1205357142857304 15.4013671875  2.103794642857143 15.440224095394752  2.071986607142857 15.472604851973685  C 2.0351562499999836 15.509842722039474  2.0301339285714284 15.55031866776316  2.056919642857127 15.594032689144738  C 2.0853794642857144 15.637746710526315  2.080357142857143 15.679841694078947  2.045200892857143 15.718698601973685  C 1.9564732142857142 15.814221833881579  1.9681919642857142 15.890316611842106  2.078683035714302 15.946982935855278  C 2.1406249999999836 15.98098273026316  2.1690848214285716 16.031172902960527  2.1623883928571592 16.100791529605264  L 2.10546875 16.620502672697366  C 2.100446428571445 16.66421669407895  2.083705357142857 16.701454564144736  2.0535714285714284 16.733835320723667  C 2.0184151785714284 16.77269222861842  2.010044642857143 16.816406250000018  2.0267857142857144 16.863358347039473  C 2.0385044642857144 16.897358141447384  2.045200892857143 16.929738898026315  2.048549107142857 16.963738692434212  C 2.0619419642857144 17.146689967105264  2.045200892857143 17.31021278782895  2 17.454307154605264  C 1.98828125 17.49154502467105  2.001674107142857 17.515830592105264  2.0418526785714284 17.525544819078963  C 2.0669642857142856 17.530401932565788  2.0770089285714124 17.546592310855264  2.068638392857143 17.570877878289473  C 2.021763392857143 17.729543585526315  1.9447544642857142 17.90763774671051  1.8392857142857142 18.103541324013158  C 1.8191964285714286 18.14077919407895  1.8275669642857306 18.186112253289473  1.859375 18.215254934210527  C 1.8878348214285714 18.239540501644736  1.8962053571428572 18.268683182565788  1.8811383928571428 18.302682976973685  C 1.8677455357142694 18.33668277138158  1.8443080357142858 18.359349300986842  1.8091517857142858 18.370682565789473  C 1.7321428571428572 18.39820620888158  1.70703125 18.451634457236842  1.7354910714285714 18.532586348684212  C 1.7522321428571428 18.581157483552634  1.7455357142857142 18.63296669407895  1.71875 18.67668071546051  C 1.6702008928571428 18.75277549342105  1.6551339285714286 18.832108347039473  1.671875 18.916298314144736  C 1.681919642857159 18.9697265625  1.6601562500000162 19.006964432565788  1.6082589285714286 19.026392886513158  C 1.51953125 19.058773643092106  1.4559151785714286 19.118678042763158  1.4207589285714286 19.204487047697384  C 1.4040178571428572 19.24658203125  1.3738839285714286 19.28543893914475  1.3370535714285714 19.314581620065788  C 1.199776785714302 19.424676192434212  1.1411830357142858 19.560675370065788  1.1545758928571428 19.73715049342105  C 1.1696428571428572 19.939530222039473  1.1646205357142858 20.143528988486842  1.1378348214285876 20.345908717105264  C 1.1311383928571428 20.39933696546054  1.1395089285714286 20.44790810032895  1.1646205357142858 20.49486019736842  C 1.2299107142857142 20.624383223684212  1.2349330357142858 20.773334703947366  1.1780133928571266 20.94333367598683  C 0.8046875 19.005345394736842  0.4380580357142857 17.0625  0.07477678571428571 15.1147974917763  C 0.017857142857142856 14.807180304276315  0.11830357142857142 14.531943873355262  0.078125 14.234040912828947  C 0.0546875 14.067280016447368  0.07979910714285714 13.905376233552632  0.15513392857142858 13.748329564144738  C 0.17689732142857142 13.699758429276331  0.18526785714285715 13.649568256578947  0.18024553571428573 13.596140008223685  C 0.16350446428571427 13.439093338815788  0.21037946428571427 13.30471319901316  0.31919642857141234 13.194618626644752  C 0.35770089285714285 13.15576171875  0.3794642857142857 13.108809621710526  0.38448660714287336 13.053762335526315  C 0.4029017857142695 12.755859375  0.45982142857142855 12.457956414473685  0.5535714285714286 12.161672491776331  C 0.6456473214285714 11.86862664473684  0.7193080357143019 11.596628289473685  0.7762276785714286 11.344058388157894  C 0.8348214285714286 11.085012335526315  0.91015625 10.814633018092106  1.0055803571428572 10.531301398026315  C 1.0323660714285876 10.451968544407894  1.0055803571428572 10.426063939144736  0.9235491071428571 10.450349506578947  C 0.8984375 10.458444695723683  0.8716517857142857 10.44873046875  0.8448660714285877 10.42444490131579  C 0.8231026785714448 10.405016447368421  0.8130580357142857 10.380730879934227  0.8130580357142857 10.353207236842106  L 0.8130580357142857 10.074732730263158  C 0.8130580357142857 10.027780633223683  0.8348214285714286 9.982447574013158  0.8733258928571429 9.951685855263158  C 0.9687499999999838 9.875591077302648  1.0106026785714124 9.781686883223683  1.0022321428571428 9.669973273026317  C 0.9821428571428571 9.406070106907894  0.9871651785714286 9.328356291118437  1.095982142857159 9.125976562500016  C 1.1227678571428572 9.075786389802632  1.136160714285698 9.020739103618421  1.1378348214285876 8.964072779605278  L 1.1411830357142858 8.45569490131579  C 1.1411830357142858 8.410361842105264  1.1629464285714286 8.365028782894736  1.199776785714302 8.334267064144736  C 1.3655133928571266 8.203125  1.4542410714285714 8.023411800986842  1.4659598214285714 7.7983655427631575  C 1.4676339285714286 7.774079975328947  1.4743303571428572 7.75465152138158  1.4893973214285714 7.738461143092106  C 1.5078125 7.719032689144737  1.51953125 7.6963661595394735  1.5212053571428572 7.668842516447384  L 1.5747767857142694 7.115131578947369  C 1.5797991071428572 7.05198910361842  1.6116071428571428 7.005037006578947  1.6702008928571428 6.974275287828947  L 1.7154017857142858 6.951608758223684  C 1.7421874999999838 6.9370374177631575  1.7472098214285714 6.917608963815789  1.73046875 6.89332339638158  C 1.6651785714285714 6.8042763157894735  1.6869419642857142 6.729800575657894  1.7957589285714286 6.666658100328947  C 1.8376116071428572 6.642372532894737  1.8443080357142858 6.611610814144737  1.8175223214285714 6.571134868421053  L 1.785714285714302 6.522563733552631  C 1.7672991071428572 6.493421052631563  1.7689732142857142 6.4658974095394735  1.7907366071428572 6.439992804276316  C 1.8560267857142858 6.363898026315789  1.87109375 6.286184210526316  1.8342633928571428 6.210089432565773  C 1.8091517857142858 6.1582802220394735  1.8175223214285714 6.111328125000015  1.8560267857142858 6.070852179276331  C 1.8995535714285714 6.025519120065789  1.9162946428571428 5.97532894736842  1.9045758928571428 5.918662623355263  C 1.859375 5.6952354029605265  1.89453125 5.5009508634868425  2.0083705357142856 5.335809004934211  C 2.0351562499999836 5.2969520970394735  2.0267857142857144 5.269428453947369  1.9815848214285714 5.251619037828947  C 1.9732142857142694 5.248380962171053  1.9681919642857142 5.243523848684211  1.9631696428571428 5.2354286595394735  C 1.9564732142857142 5.220857319078963  1.9547991071428572 5.2046669407894735  1.9564732142857142 5.186857524671053  C 2.0619419642857144 4.612099095394721  2.2176339285714284 4.058388157894737  2.421875 3.5241056743421053  C 2.446986607142857 3.4577251233552473  2.4503348214285716 3.3897255345394735  2.4302455357142856 3.3217259457236845  C 2.4151785714285716 3.2634405838815788  2.4268973214285716 3.2116313733552633  2.4654017857142856 3.1662983141447367  C 2.490513392857143 3.1371556332236845  2.5072544642857144 3.10315583881579  2.515625 3.064298930921053  L 2.8370535714285716 1.571546052631579  C 2.845424107142857 1.52783203125  2.872209821428555 1.495451274671037  2.9140624999999836 1.4760228207236998  C 2.9910714285714284 1.438784950657895  3.044642857142857 1.3740234374999842  3.0731026785714284 1.2801192434210527  Z " fill-rule="nonzero" fill="#452477" stroke="none" transform="matrix(1 0 0 1 211 359 )" />
  </g>
</svg>