<?xml version="1.0" encoding="utf-8"?>
<svg version="1.1" xmlns:xlink="http://www.w3.org/1999/xlink" width="5px" height="9px" xmlns="http://www.w3.org/2000/svg">
  <g transform="matrix(1 0 0 1 -175 -352 )">
    <path d="M 1.2456597222222223 3.4168772977941178  L 1.709526909722222 0.3520795036764706  L 1.704644097222222 0.6281594669117647  C 1.704644097222222 0.6793428308823529  1.7225477430555556 0.725873161764706  1.758355034722222 0.7646484375  C 2.3377821180555554 1.4021139705882353  2.619357638888889 2.1047219669117645  2.604709201388889 2.8755744485294117  C 2.5786675347222223 4.201688878676471  2.3491753472222223 5.481272977941177  1.9178602430555556 6.717428768382352  C 1.9080946180555556 6.743795955882337  1.909722222222222 6.7717141544117645  1.9227430555555556 6.796530330882352  C 1.9373914930555556 6.821346507352926  1.9601779513888888 6.839958639705882  1.987847222222222 6.849264705882352  C 2.892795138888889 7.1237936580882355  3.776584201388889 7.517750459558823  4.639214409722222 8.031135110294118  C 4.437391493055555 8.060604319852942  4.243706597222222 7.9939108455882355  4.056532118055555 7.829503676470574  C 3.9995659722222223 7.779871323529411  3.932834201388889 7.762810202205882  3.8579644097222223 7.779871323529411  C 3.7847222222222223 7.796932444852941  3.729383680555556 7.77366727941178  3.688693576388889 7.713177849264691  C 3.664279513888889 7.674402573529396  3.630099826388889 7.6511374080882355  3.582899305555556 7.640280330882352  L 2.873263888888889 7.480526194852926  C 2.8179253472222223 7.468118106617648  2.765842013888889 7.477424172794118  2.718641493055556 7.508444393382352  C 2.648654513888889 7.5549747242647065  2.560763888888889 7.565831801470589  2.458224826388889 7.542566636029411  C 2.248263888888889 7.496036305147059  2.0545789930555554 7.41848575367647  1.8739149305555556 7.311465992647059  C 1.826714409722222 7.283547794117648  1.802300347222222 7.243221507352941  1.7990451388888888 7.1920381433823675  L 1.743706597222222 6.452205882352941  C 1.738823784722222 6.391716452205882  1.7078993055555556 6.3498391544117645  1.6493055555555556 6.326573988970589  L 1.3319227430555556 6.1962890625  C 1.284722222222222 6.177676930147059  1.2440321180555556 6.149758731617648  1.2098524305555556 6.114085477941177  C 1.1528862847222223 6.05514705882353  1.0796440972222223 6.0241268382352935  0.9901258680555556 6.022575827205882  C 0.9429253472222222 6.022575827205882  0.9136284722222222 6.044289981617648  0.8989800347222222 6.08616727941178  C 0.827365451388889 6.307961856617648  0.6873914930555556 6.506491268382352  0.4790581597222222 6.6848575367647065  C 0.21050347222222224 6.914407169117648  0.2170138888888889 7.178079044117648  0.3146701388888889 7.4820772058823675  C 0.4058159722222222 7.76901424632353  0.4481336805555555 8.065257352941176  0.4416232638888889 8.370806525735293  C 0.4399956597222222 8.397173713235293  0.4302300347222222 8.401826746323529  0.4123263888888889 8.383214613970589  C 0.4090711805555555 8.378561580882353  0.4041883680555555 8.377010569852942  0.3993055555555555 8.377010569852942  C 0.3846571180555555 8.377010569852942  0.3765190972222222 8.383214613970589  0.3748914930555555 8.397173713235293  C 0.3700086805555555 8.426642922794118  0.3602430555555555 8.44990808823528  0.3423394097222222 8.468520220588236  C 0.3146701388888889 8.496438419117647  0.3000217013888889 8.491785386029411  0.2967664930555556 8.454561121323529  L 0.2023654513888889 7.489832261029411  C 0.1681857638888889 7.2633846507352935  0.17144097222222224 7.03538602941175  0.21538628472222224 6.8073874080882355  C 0.22352430555555555 6.756204044117648  0.24793836805555555 6.712775735294118  0.2853732638888889 6.6755514705882355  C 0.5978732638888888 6.3575942095588385  0.7817925347222222 5.9636374080882355  0.837131076388889 5.490579044117648  L 1.2456597222222223 3.4168772977941178  Z " fill-rule="nonzero" fill="#fe7a57" stroke="none" transform="matrix(1 0 0 1 175 352 )" />
  </g>
</svg>