<?xml version="1.0" encoding="utf-8"?>
<svg version="1.1" xmlns:xlink="http://www.w3.org/1999/xlink" width="2px" height="6px" xmlns="http://www.w3.org/2000/svg">
  <g transform="matrix(1 0 0 1 -174 -357 )">
    <path d="M 1.32421875 0.48206676136363635  C 1.45751953125 0.41015625  1.599609375 0.3174715909091064  1.75341796875 0.20241477272727273  C 1.70361328125 0.6898082386363636  1.5380859375 1.0957031250000155  1.2568359375 1.4232954545454546  C 1.22314453125 1.4616477272727273  1.201171875 1.5063920454545454  1.19384765625 1.5591264204545454  C 1.154296875 1.7940340909090753  1.1513671875 2.0289417613636362  1.18212890625 2.2622514204545454  C 1.072265625 3.5230823863636362  0.9521484375 4.3093039772727275  0.82470703125 4.624112215909091  C 0.7001953125 4.932528409090909  0.62548828125 5.237748579545454  0.6005859375 5.5397727272727275  C 0.5830078125 5.758700284090909  0.55224609375 5.760298295454546  0.5068359375 5.547762784090909  C 0.46728515625 5.360795454545454  0.462890625 5.178622159090909  0.4965820312500071 5.0012428977272725  C 0.63720703125 4.232599431818198  0.767578125 3.486328125  0.88623046875 2.762428977272727  C 1.00927734375 2.0145596590909247  0.99169921875 1.2139559659090755  1.10595703125 0.44371448863636365  C 1.12060546875 0.3430397727272727  1.14111328125 0.34144176136363635  1.1689453125 0.43892045454545453  C 1.18212890625 0.4836647727272727  1.19091796875 0.5284090909090909  1.19677734375 0.57475142045453  C 1.20849609375 0.6722301136363636  1.2275390625 0.673828125  1.25390625 0.5795454545454546  C 1.26708984375 0.533203125  1.29052734375 0.49964488636363635  1.32421875 0.48206676136363635  Z " fill-rule="nonzero" fill="#351c66" stroke="none" transform="matrix(1 0 0 1 174 357 )" />
  </g>
</svg>