<?xml version="1.0" encoding="utf-8"?>
<svg version="1.1" xmlns:xlink="http://www.w3.org/1999/xlink" width="7px" height="11px" xmlns="http://www.w3.org/2000/svg">
  <g transform="matrix(1 0 0 1 -169 -367 )">
    <path d="M 2.761718749999992 0.249755859375  C 2.8043118990384617 0.2642578125  2.8279747596153846 0.33354492187498436  2.8358623798076925 0.459228515625  C 2.9462890625 1.3083984375  3.2554837740384692 3.725390625  4.355018028846154 3.875244140625  C 4.438626802884623 3.8865234375  4.478064903846162 3.8494628906250004  4.471754807692308 3.762451171875  C 4.448091947115392 3.4740234374999996  4.40234375 3.193652343749984  4.334510216346154 2.9229492187500004  C 4.331355168269231 2.913281250000016  4.334510216346154 2.9068359375000004  4.343975360576923 2.905224609375  C 4.345552884615385 2.905224609375  4.345552884615385 2.905224609375  4.347130408653846 2.905224609375  C 4.3487079326923 2.90361328125  4.350285456730769 2.905224609375  4.351862980769231 2.9068359375000004  C 4.418118990384608 3.12275390625  4.514347956730769 3.3193359375  4.640549879807692 3.4949707031250004  C 4.670522836538462 3.536865234374984  4.689453125 3.588427734375  4.694185697115377 3.6416015625  C 4.73046875 4.03798828125  4.938701923076923 4.202343750000016  5.320462740384615 4.133056640625  C 5.391451322115385 4.120166015624984  5.451397235576923 4.075048828125  5.486102764423077 4.010595703125  C 5.520808293269231 3.9461425781250004  5.523963341346154 3.8687988281249996  5.495567908653846 3.8011230468750004  C 5.282602163461538 3.2967773437500156  5.134314903846154 2.827880859375  5.047551081730769 2.39443359375  C 5.045973557692308 2.383154296875  5.047551081730769 2.371875  5.053861177884615 2.36220703125  C 5.060171274038462 2.354150390625  5.069636418269239 2.347705078124984  5.080679086538462 2.34609375  L 5.1201171875 2.3396484375  C 5.132737379807692 2.338037109375  5.146935096153846 2.341259765625  5.156400240384615 2.347705078124984  C 5.167442908653838 2.35576171875  5.175330528846154 2.3686523437499845  5.176908052884608 2.38154296875  C 5.258939302884615 2.9471191406250004  5.462439903846154 3.4627441406250004  5.785832331730769 3.926806640625  C 5.807917668269231 3.959033203124984  5.848933293269231 3.9735351562499996  5.886793870192308 3.9622558593750004  C 6.195988581730769 3.8768554687499996  6.312725360576923 3.665771484375  6.238581730769231 3.330615234375  C 6.120267427884615 2.7972656249999996  5.949894831730769 2.251025390625  5.730618990384615 1.690283203125  C 5.721153846153846 1.6645019531250158  5.729041466346154 1.6451660156250156  5.752704326923077 1.6322753906249998  L 5.790564903846154 1.611328125  C 5.801607572115385 1.6048828125000156  5.811072716346154 1.6081054687499998  5.8173828125 1.619384765625  C 5.957782451923077 1.89169921875  6.090294471153846 2.1672363281249845  6.214918870192308 2.4427734375  C 6.323768028846154 2.682861328125  6.470477764423077 2.8810546875  6.656625600961538 3.0357421875000004  C 6.579326923076923 3.0518554687500004  6.509915865384615 3.093749999999984  6.449969951923077 3.163037109375  C 6.415264423076923 3.2033203125  6.399489182692308 3.250048828125  6.404221754807692 3.30322265625  C 6.438927283653846 3.72216796875  6.252779447115385 3.9896484374999996  5.847355769230769 4.104052734375  C 5.809495192307692 4.11533203125  5.781099759615385 4.137890625  5.763746995192308 4.17333984375  C 5.713266225961538 4.2732421875  5.683293269230769 4.37314453125  5.673828125 4.471435546875  C 5.670673076923077 4.510107421875  5.6533203125 4.543945312499984  5.626502403846154 4.568115234375  C 4.959209735576923 5.1626953125  4.260366586538455 5.391503906250016  3.531550480769239 5.25615234375  C 3.182917668269231 5.19169921875  2.914738581730769 4.9951171875  2.5440204326923075 5.099853515625  C 2.409930889423077 5.1369140625  2.304236778846154 5.241650390625  2.2616436298076925 5.37861328125  L 0.6730769230769231 10.5509765625  C 0.6462590144230769 10.636376953125  0.5894681490384615 10.6798828125  0.5011268028846154 10.678271484375  L 0.46168870192307687 10.678271484375  C 0.44433593749999234 10.678271484375  0.4269831730769231 10.668603515625016  0.41594050480769995 10.6541015625  C 0.4048978365384539 10.639599609375  0.40174278846153844 10.620263671875  0.4064753605769231 10.6025390625  C 0.5847355769230769 9.959619140625  0.7551081730769231 9.3328125  0.9207481971153846 8.725341796875  C 1.0501051682692308 8.251611328125016  1.1983924278846154 7.779492187500001  1.3671875 7.310595703124999  C 1.5801532451923077 6.720849609375016  1.7489483173076923 6.234228515625  1.873572716346154 5.850732421875  C 1.9051231971153846 5.754052734375016  1.924053485576931 5.654150390625  1.9319411057692308 5.551025390624984  C 1.9366736778846154 5.496240234375  1.9571814903846154 5.447900390625  1.9903094951923075 5.406005859375  C 2.026592548076923 5.3625  2.0360576923076925 5.312548828125  2.0187049278846154 5.25615234375  C 1.999774639423077 5.196533203125  1.9603365384615385 5.1626953125  1.900390625 5.15302734375  C 1.7315955528846154 5.127246093749984  1.5659555288461537 5.132080078125  1.4003155048076923 5.167529296874984  C 1.3608774038461537 5.1755859375  1.3324819711538538 5.161083984375  1.3182842548076923 5.12080078125  C 1.3040865384615385 5.07890625  1.28515625 5.06279296875  1.261493389423077 5.070849609375  C 1.2283653846153846 5.048291015625016  1.2015474759615385 5.04345703125  1.1810396634615385 5.057958984375  C 1.2946213942307692 5.00478515625  1.3671875 4.896826171875  1.4003155048076923 4.735693359375  C 1.4902343750000075 4.29580078125  1.7110877403846154 3.453076171875  2.0628756009615383 2.2107421875  C 2.553485576923077 1.7676269531250002  2.768028846153846 1.1279296875  2.706505408653846 0.29326171874998436  C 2.7049278846153846 0.2513671875  2.7222806490384537 0.236865234375  2.761718749999992 0.249755859375  Z " fill-rule="nonzero" fill="#452477" stroke="none" transform="matrix(1 0 0 1 169 367 )" />
  </g>
</svg>