<?xml version="1.0" encoding="utf-8"?>
<svg version="1.1" xmlns:xlink="http://www.w3.org/1999/xlink" width="7px" height="14px" xmlns="http://www.w3.org/2000/svg">
  <g transform="matrix(1 0 0 1 -166 -354 )">
    <path d="M 5.435709635416666 3.105703125  L 5.485270182291666 0.1640625000000159  C 5.488688151041675 0.8810156249999841  5.488688151041675 1.596328125  5.486979166666666 2.30671875  C 5.478434244791666 5.149921875  5.816813151041666 7.95046875  6.505533854166666 10.70671875  C 6.707194010416666 11.502421875000001  6.775553385416666 12.037265624999984  6.712320963541666 12.31453125  C 6.616617838541666 12.734531249999984  6.563639322916666 13.156171875  6.555094401041666 13.579453125  L 6.416666666666659 12.7640625  C 6.408121744791666 12.713203124999984  6.375651041666666 12.691875000000001  6.322672526041666 12.700078125  C 6.030436197916666 12.74765625  5.733072916666659 12.80015625  5.427164713541666 12.855937500000001  C 4.825602213541659 12.967500000000001  4.244547526041666 12.9478125  3.6498209635416665 12.885468750000001  C 3.448160807291675 12.864140625  3.325113932291667 12.7575  3.280680338541667 12.567187500000001  L 2.981608072916667 11.2875  C 2.979899088541667 11.274375  2.971354166666667 11.2678125  2.957682291666667 11.269453125  L 2.914957682291667 11.274375  C 2.892740885416675 11.276015625  2.880777994791667 11.289140625  2.880777994791667 11.31046875  L 2.865397135416667 12.376875  C 2.865397135416667 12.431015625  2.838053385416667 12.468750000000016  2.783365885416667 12.488437499999984  C 2.699625651041658 12.519609375  2.612467447916667 12.51796875  2.523600260416667 12.486796875000001  C 2.638102213541667 12.491718749999999  2.699625651041658 12.434296875000001  2.704752604166667 12.31453125  C 2.764567057291675 11.151328125  2.783365885416667 10.140703125  2.757731119791667 9.279375  C 2.754313151041675 9.169453124999999  2.723551432291667 9.05625  2.663736979166667 8.943046875  C 2.641520182291667 8.898749999999984  2.605631510416667 8.867578125  2.559488932291667 8.847890625  C 2.260416666666667 8.72484375  1.9767252604166667 8.63953125  1.7049967447916665 8.591953124999984  C 1.5511881510416665 8.5640625  1.4025065104166665 8.514843749999999  1.258951822916675 8.447578124999984  C 1.088053385416675 8.367187500000016  0.9256998697916666 8.278593749999999  0.7718912760416667 8.183437500000016  C 0.713785807291675 8.148984375  0.6402994791666667 8.145703124999999  0.5804850260416667 8.175234375  C 0.5189615885416667 8.20640625  0.4813639322916667 8.265468750000016  0.47794596354165836 8.33109375  L 0.42667643229166663 9.837187499999999  C 0.39420572916666663 9.326953125000001  0.37027994791666663 8.815078125  0.35660807291666663 8.301562500000001  C 0.35148111979166663 8.106328125  0.4557291666666667 8.00296875  0.4454752604166667 7.792968750000016  C 0.4403483072916667 7.673203125000001  0.45743815104167496 7.545234374999985  0.4950358072916667 7.41234375  C 0.5582682291666667 7.18921875  0.5873209635416667 6.961171875000001  0.5839029947916667 6.728203125  C 0.5821940104166667 6.672421875  0.5565592447916667 6.63140625  0.5052897135416667 6.606796875000001  C 0.4762369791666667 6.592031250000001  0.4488932291666667 6.590390625  0.42667643229166663 6.603515625000016  C 0.40958658854166663 6.573984374999999  0.42325846354166663 6.541171874999985  0.4659830729166667 6.5034375  L 0.5052897135416667 6.386953125000001  L 1.045328776041675 6.6084375  C 1.098307291666675 6.629765625  1.1547037760416665 6.6363281249999995  1.2128092447916665 6.629765625  C 1.269205729166675 6.6215625  1.3102213541666665 6.642890624999985  1.3375651041666665 6.6937500000000005  C 1.3563639322916665 6.729843750000001  1.3939615885416665 6.754453125  1.4366861979166665 6.761015625  C 1.5819498697916665 6.779062499999999  1.7203776041666665 6.810234375  1.8536783854166667 6.856171875  C 1.8622233072916667 6.859453125  1.8707682291666667 6.864375  1.8758951822916667 6.872578125  C 1.8861490885416667 6.887343749999999  1.8912760416666667 6.902109374999999  1.8929850260416667 6.918515625  C 1.8964029947916667 6.94640625  1.9117838541666667 6.95953125  1.9391276041666667 6.95953125  L 2.699625651041658 6.971015624999985  C 2.779947916666667 6.972656250000016  2.834635416666667 7.007109375  2.865397135416667 7.0776562499999995  L 3.080729166666667 7.55671875  C 3.089274088541667 7.5747656249999995  3.096110026041675 7.573124999999999  3.101236979166667 7.5550781250000005  L 3.219156901041667 7.141640625  C 3.234537760416675 7.089140625  3.270426432291667 7.06125  3.326822916666667 7.059609375  L 4.736735026041666 7.0005468749999995  C 4.764078776041666 6.99890625  4.791422526041666 7.010390624999999  4.810221354166666 7.0317187500000005  C 4.842692057291666 7.069453125000001  4.852945963541666 7.1137500000000005  4.840983072916666 7.161328124999999  C 4.815348307291675 7.256484374999999  4.844401041666666 7.2728906250000005  4.924723307291666 7.2121875  C 5.145182291666666 7.0464843749999995  5.353678385416666 6.895546875  5.548502604166666 6.7593749999999995  C 5.598063151041666 6.724921874999985  5.621988932291666 6.675703125  5.618570963541666 6.614999999999999  L 5.586100260416666 6.068671874999985  C 5.625406901041666 5.966953124999985  5.579264322916666 5.966953124999985  5.447672526041666 6.068671874999985  C 5.404947916666666 6.1031249999999995  5.381022135416659 6.09328125  5.379313151041666 6.039140625  L 5.288736979166666 3.00234375  L 5.384440104166666 3.122109375  C 5.416910807291666 3.163125  5.434000651041659 3.158203125000016  5.435709635416666 3.105703125  Z " fill-rule="nonzero" fill="#751f83" stroke="none" transform="matrix(1 0 0 1 166 354 )" />
  </g>
</svg>