<?xml version="1.0" encoding="utf-8"?>
<svg version="1.1" xmlns:xlink="http://www.w3.org/1999/xlink" width="6px" height="2px" xmlns="http://www.w3.org/2000/svg">
  <g transform="matrix(1 0 0 1 -166 -359 )">
    <path d="M 5.265820312500001 0.5751953125  C 5.425781250000009 0.525390625  5.585742187499999 0.47265625  5.745703125 0.4184570312499858  L 5.779101562499999 0.90625  C 5.7826171875 0.96044921875  5.758007812500001 1.0043945312499858  5.70703125 1.03515625  C 5.506640624999999 1.15673828125  5.292187500000001 1.29150390625  5.0654296875 1.439453125  C 4.9828125 1.49365234375  4.952929687500008 1.47900390625  4.979296874999999 1.39404296875  C 4.9916015625 1.3515625  4.9810546875 1.31201171875  4.94765625 1.2783203125  C 4.9283203125 1.25927734375  4.900195312499999 1.2490234375  4.8720703125 1.25048828125  L 3.421875 1.30322265625  C 3.3638671875000004 1.3046875  3.326953125000008 1.32958984375  3.3111328125000004 1.37646484375  L 3.1898437499999996 1.74560546875  C 3.184570312500009 1.76171875  3.1775390624999997 1.76318359375  3.1687499999999997 1.7470703125  L 2.947265625 1.3193359375  C 2.9156250000000004 1.25634765625  2.859375 1.2255859375000142  2.7767578124999917 1.2241210937499858  L 1.9945312499999999 1.2138671875  C 1.9664062500000001 1.2138671875  1.9505859374999999 1.2021484375  1.9470703125000002 1.17724609375  C 1.9453125 1.16259765625  1.9400390625000001 1.1494140625  1.9294921875000002 1.13623046875  C 1.9242187499999999 1.12890625  1.9154296874999999 1.12451171875  1.9066406249999999 1.12158203125  C 1.76953125 1.08056640625  1.6271484374999998 1.052734375  1.4777343749999998 1.03662109375  C 1.4337890624999998 1.03076171875  1.3951171875 1.0087890625  1.3757812500000002 0.9765625  C 1.34765625 0.9311523437499858  1.3054687500000086 0.912109375  1.2474609375 0.91943359375  C 1.1876953124999998 0.92529296875  1.1296875000000086 0.91943359375  1.0751953125000084 0.900390625  L 0.5197265625 0.70263671875  C 0.48984374999999997 0.6162109375  0.486328125 0.5473632812499858  0.5074218749999999 0.49609375  C 0.528515625 0.44482421875  0.5707031250000001 0.42724609375  0.6322265625000001 0.44482421875  C 1.0066406250000002 0.5517578125  1.3845703125000002 0.64697265625  1.7660156249999917 0.7319335937500142  C 2.041992187500009 0.79345703125  2.2951171875 0.8212890624999858  2.5289062500000004 0.81396484375  C 2.8031249999999996 0.8051757812500142  3.0738281249999915 0.80224609375  3.3410156250000003 0.8051757812500142  C 3.5783203125000003 0.80810546875  3.8050781249999996 0.79638671875  4.017773437500001 0.77001953125  C 4.267382812499999 0.7392578125  4.515234375 0.7099609375  4.761328125 0.68212890625  C 4.9248046875 0.6630859375  5.093554687499999 0.6279296875  5.265820312500001 0.5751953125  Z " fill-rule="nonzero" fill="#351c66" stroke="none" transform="matrix(1 0 0 1 166 359 )" />
  </g>
</svg>