<?xml version="1.0" encoding="utf-8"?>
<svg version="1.1" xmlns:xlink="http://www.w3.org/1999/xlink" width="3px" height="5px" xmlns="http://www.w3.org/2000/svg">
  <g transform="matrix(1 0 0 1 -166 -361 )">
    <path d="M 2.78203125 4.439019097222222  C 2.7767578124999917 4.557834201388889  2.7134765625000004 4.614800347222222  2.595703125 4.609917534722222  C 1.8187499999999999 4.312065972222222  1.19296875 3.856336805555556  0.7166015625 3.239474826388889  C 0.598828125 3.0864800347222383  0.5074218749999999 2.6665581597222223  0.43886718750000003 1.9813368055555556  L 0.49160156249999143 0.4871961805555555  C 0.4951171875 0.4220920138889047  0.5337890624999999 0.3634982638888889  0.5970703125000001 0.3325737847222222  C 0.6585937500000001 0.3032769097222222  0.7341796875000086 0.3065321180555556  0.7939453125 0.34071180555557135  C 0.9521484375 0.4351128472222222  1.1191406250000084 0.523003472222238  1.2949218750000084 0.6027560763888731  C 1.4425781249999998 0.6694878472222222  1.5955078125000002 0.7183159722222222  1.7537109375000002 0.7459852430555397  C 2.033203125 0.793185763888889  2.325 0.8778211805555556  2.6326171875 0.9998914930555556  C 2.6800781249999996 1.0194227430555556  2.7169921875 1.0503472222222063  2.7398437500000004 1.0942925347222223  C 2.8013671875000004 1.2065972222222223  2.833007812500009 1.318901909722222  2.8365234375000004 1.4279513888888888  C 2.8628906250000004 2.282443576388889  2.843554687500008 3.285047743055556  2.78203125 4.439019097222222  Z " fill-rule="nonzero" fill="#8b379f" stroke="none" transform="matrix(1 0 0 1 166 361 )" />
  </g>
</svg>