<?xml version="1.0" encoding="utf-8"?>
<svg version="1.1" xmlns:xlink="http://www.w3.org/1999/xlink" width="6px" height="6px" xmlns="http://www.w3.org/2000/svg">
  <g transform="matrix(1 0 0 1 -166 -354 )">
    <path d="M 3.1775390624999997 0.3526278409090754  L 3.1335937499999997 2.259055397727273  L 0.9943359374999999 1.742897727272727  C 0.837890625 1.7045454545454546  0.7605468750000001 1.7588778409090908  0.7605468750000001 1.9058948863636362  L 0.7605468750000001 2.1088423295454546  C 0.7605468750000001 2.1615767045454546  0.7869140625000001 2.198330965909091  0.8396484375000001 2.220703125  C 1.0453125 2.30859375  1.2052734374999998 2.417258522727273  1.4337890624999998 2.4731889204545454  C 1.9382812500000002 2.5994318181818183  2.4392578125 2.7208806818181817  2.93671875 2.839133522727273  C 3.0017578124999997 2.853515625  3.0562500000000004 2.883877840909091  3.1037109375000003 2.927024147727273  C 3.260156249999991 3.070845170454561  3.4412109374999997 3.077237215909091  3.6451171874999915 2.944602272727273  C 3.6960937499999997 2.9110440340909247  3.7505859375000004 2.885475852272727  3.810351562500008 2.867897727272727  L 5.43984375 2.37890625  L 5.533007812499999 5.336825284090909  C 5.5347656249999915 5.389559659090909  5.559374999999999 5.3991477272727275  5.603320312499999 5.365589488636348  C 5.738671875 5.266512784090893  5.7861328125 5.266512784090893  5.745703125 5.365589488636348  C 5.585742187499999 5.424715909090909  5.425781250000009 5.482244318181818  5.265820312500001 5.536576704545454  C 5.093554687499999 5.594105113636363  4.9248046875 5.632457386363637  4.761328125 5.653231534090909  C 4.515234375 5.68359375  4.267382812499999 5.7155539772727275  4.017773437500001 5.749112215909091  C 3.8050781249999996 5.777876420454546  3.5783203125000003 5.790660511363637  3.3410156250000003 5.787464488636379  C 3.0738281249999915 5.784268465909091  2.8031249999999996 5.787464488636379  2.5289062500000004 5.797052556818182  C 2.2951171875 5.805042613636348  2.041992187500009 5.7746803977272725  1.7660156249999917 5.707563920454561  C 1.3845703125000002 5.614879261363637  1.0066406250000002 5.5110085227272725  0.6322265625000001 5.394353693181818  C 0.5707031250000001 5.375177556818182  0.528515625 5.394353693181818  0.5074218749999999 5.450284090909091  C 0.486328125 5.506214488636348  0.48984374999999997 5.5813210227272725  0.5197265625 5.675603693181818  L 0.47929687499999996 5.7890625  C 0.45292968749999996 5.445490056818167  0.46523437500000003 5.111505681818182  0.5162109374999999 4.785511363636363  C 0.5900390625 4.301313920454546  0.6287109375 3.972123579545454  0.6322265625000001 3.797940340909091  C 0.6427734375 3.1795099431818183  0.64453125 2.559481534090909  0.6375 1.9410511363636362  C 0.633984375 1.6342329545454546  0.7113281249999914 1.0445667613636365  0.8695312500000001 0.1736505681818337  C 0.9064453124999999 0.22958096590909088  0.9292968749999999 0.28870738636363635  0.9380859374999999 0.35102982954545453  C 0.9451171875000001 0.41015625  0.978515625 0.427734375  1.0382812499999998 0.40536221590909094  C 1.1982421875 0.34623579545454547  1.3722656249999998 0.31267755681816634  1.5621093750000001 0.3046875  C 1.7431640625 0.2966974431818182  1.9224609375000001 0.2727272727272572  2.0999999999999996 0.23277698863634816  C 2.3724609374999996 0.1736505681818337  2.637890625 0.13529829545454544  2.8980468749999915 0.11452414772728822  C 2.9701171874999996 0.10813210227272727  3.0439453125 0.13050426136363635  3.096679687500009 0.1768465909090909  C 3.1494140625 0.22159090909090912  3.1792968750000004 0.28551136363636365  3.1775390624999997 0.3526278409090754  Z " fill-rule="nonzero" fill="#8b379f" stroke="none" transform="matrix(1 0 0 1 166 354 )" />
  </g>
</svg>