<?xml version="1.0" encoding="utf-8"?>
<svg version="1.1" xmlns:xlink="http://www.w3.org/1999/xlink" width="16px" height="16px" xmlns="http://www.w3.org/2000/svg">
  <g transform="matrix(1 0 0 1 -169 -364 )">
    <path d="M 10.942887931034482 0.3717672413792947  C 11.304956896551724 0.27316810344829157  11.67510775862069 0.16971982758619122  12.053340517241379 0.05980603448275862  C 12.203663793103448 1.6357758620689655  12.43157327586207 3.1761853448275863  12.74030172413793 4.6842672413793105  L 12.953663793103448 5.663793103448276  L 12.858297413793103 6.632004310344827  C 12.855064655172415 6.656249999999984  12.84051724137931 6.669181034482759  12.816271551724139 6.667564655172414  C 12.798491379310345 6.665948275862069  12.783943965517242 6.669181034482759  12.771012931034482 6.678879310344827  C 12.761314655172415 6.686961206896552  12.754849137931034 6.695043103448276  12.75 6.7063577586206895  C 12.664331896551724 6.908405172413793  12.578663793103448 7.108836206896552  12.491379310344827 7.307650862068965  C 12.433189655172415 7.441810344827586  12.413793103448276 7.580818965517241  12.433189655172415 7.724676724137931  C 12.441271551724139 7.7780172413793105  12.42510775862069 7.823275862068965  12.387931034482758 7.860452586206897  L 12.29094827586207 7.957435344827586  C 12.253771551724139 7.994612068965517  12.252155172413794 8.033405172413794  12.286099137931034 8.073814655172415  C 12.32489224137931 8.11907327586207  12.339439655172415 8.172413793103464  12.33135775862069 8.233836206896568  C 12.32489224137931 8.283943965517242  12.303879310344827 8.325969827586206  12.268318965517242 8.363146551724139  C 12.155172413793103 8.477909482758621  12.108297413793103 8.613685344827585  12.129310344827585 8.76885775862069  C 12.134159482758621 8.810883620689655  12.122844827586206 8.848060344827585  12.09375 8.878771551724123  C 12.011314655172415 8.970905172413794  11.951508620689655 9.080818965517226  11.914331896551724 9.210129310344827  C 11.827047413793103 9.522090517241379  11.759159482758621 9.825969827586206  11.710668103448276 10.125  C 11.67510775862069 10.341594827586206  11.618534482758621 10.574353448275861  11.542564655172415 10.823275862068966  C 11.473060344827585 11.05280172413793  11.426185344827585 11.277478448275861  11.403556034482758 11.497306034482758  C 11.384159482758621 11.683189655172415  11.319504310344827 11.936961206896552  11.211206896551724 12.255387931034482  C 11.138469827586206 12.470366379310345  11.196659482758621 12.680495689655173  11.086745689655173 12.874461206896552  C 11.057650862068966 12.924568965517242  11.036637931034482 12.977909482758621  11.022090517241379 13.03448275862069  L 10.902478448275861 13.501616379310345  C 10.889547413793103 13.553340517241379  10.883081896551724 13.605064655172415  10.881465517241379 13.658405172413794  C 10.879849137931034 13.747306034482744  10.850754310344827 13.826508620689655  10.797413793103448 13.896012931034482  C 10.766702586206897 13.934806034482758  10.750538793103448 13.983297413793103  10.748922413793103 14.033405172413794  C 10.747306034482758 14.164331896551724  10.723060344827585 14.293642241379295  10.676185344827585 14.421336206896552  C 10.658405172413794 14.473060344827585  10.651939655172415 14.526400862068966  10.658405172413794 14.579741379310345  L 10.702047413793103 14.92079741379312  C 10.703663793103448 14.932112068965518  10.708512931034482 14.940193965517226  10.719827586206897 14.94342672413793  C 10.732758620689655 14.948275862068966  10.747306034482758 14.951508620689655  10.763469827586206 14.953125  C 10.789331896551724 14.953125  10.802262931034482 14.966056034482758  10.803879310344827 14.993534482758621  C 10.805495689655173 15.03717672413793  10.787715517241379 15.067887931034482  10.752155172413794 15.088900862068966  C 10.6875 15.126077586206897  10.6875 15.164870689655173  10.752155172413794 15.205280172413794  C 10.779633620689655 15.223060344827571  10.794181034482758 15.245689655172415  10.795797413793103 15.274784482758621  C 10.797413793103448 15.292564655172415  10.789331896551724 15.310344827586206  10.773168103448276 15.31842672413793  C 10.758620689655173 15.328125  10.739224137931034 15.326508620689655  10.72467672413793 15.316810344827585  C 10.702047413793103 15.302262931034482  10.682650862068966 15.307112068965518  10.666487068965518 15.33135775862069  C 10.639008620689655 15.370150862068966  10.65032327586207 15.391163793103448  10.69719827586207 15.392780172413794  C 10.934806034482758 15.400862068965518  11.169181034482758 15.387931034482758  11.40032327586207 15.353987068965518  C 11.626616379310345 15.320043103448276  11.857758620689655 15.29094827586207  12.09375 15.266702586206897  C 12.832435344827585 15.189116379310345  13.59698275862069 15.04202586206898  14.38739224137931 14.823814655172415  C 14.857758620689655 14.692887931034482  15.242456896551724 14.464978448275861  15.717672413793103 14.34698275862069  C 15.766163793103448 14.335668103448292  15.816271551724139 14.361530172413794  15.830818965517242 14.408405172413794  C 15.845366379310345 14.452047413793103  15.84051724137931 14.49407327586207  15.814655172413794 14.53125  C 15.74676724137931 14.629849137931034  15.669181034482758 14.691271551724139  15.581896551724139 14.718750000000016  C 15.227909482758621 14.827047413793103  14.86260775862069 14.940193965517226  14.485991379310345 15.058189655172415  C 14.144935344827585 15.164870689655173  13.795797413793103 15.292564655172415  13.438577586206897 15.439655172413794  C 13.230064655172415 15.391163793103448  13.000538793103448 15.436422413793103  12.74676724137931 15.577047413793103  C 11.875538793103448 15.583512931034482  11.02532327586207 15.669181034482774  10.192887931034482 15.835668103448276  L 7.076508620689655 15.874461206896552  C 6.850215517241379 15.766163793103448  6.640086206896552 15.70635775862069  6.447737068965517 15.698275862068966  C 5.764008620689655 15.667564655172399  5.224137931034483 15.633620689655173  4.8313577586206895 15.594827586206897  C 4.719827586206897 15.583512931034482  4.635775862068965 15.61260775862069  4.579202586206897 15.682112068965518  C 4.601831896551724 15.644935344827585  4.600215517241379 15.610991379310345  4.575969827586207 15.578663793103448  C 4.559806034482759 15.557650862068966  4.532327586206897 15.544719827586206  4.495150862068965 15.536637931034482  C 3.029094827586207 15.268318965517242  1.5889008620689655 14.928879310344827  0.1713362068965517 14.518318965517242  C 0.13092672413793102 14.507004310344827  0.09536637931034483 14.479525862068966  0.07596982758620689 14.442349137931034  C 0.05495689655172414 14.403556034482758  0.050107758620689655 14.359913793103448  0.06303879310344827 14.319504310344827  L 1.8442887931034482 8.397090517241379  C 1.8685344827586208 8.389008620689655  1.8879310344827587 8.405172413793103  1.902478448275862 8.44719827586207  C 1.9170258620689733 8.48760775862069  1.9461206896551724 8.502155172413794  1.9865301724137931 8.494073275862053  C 2.15625 8.458512931034482  2.325969827586207 8.453663793103432  2.4989224137931036 8.479525862068966  C 2.560344827586207 8.489224137931034  2.6007543103448274 8.523168103448276  2.6201508620689653 8.582974137931034  C 2.6379310344827585 8.639547413793103  2.6282327586206895 8.689655172413794  2.5910560344827585 8.733297413793103  C 2.5571120689655173 8.77532327586207  2.5360991379310347 8.823814655172415  2.53125 8.878771551724123  C 2.523168103448284 8.982219827586206  2.503771551724138 9.082435344827601  2.4714439655172415 9.179418103448276  C 2.34375 9.564116379310345  2.1707974137931036 10.052262931034498  1.9525862068965518 10.64385775862069  C 1.7796336206896552 11.114224137931034  1.6276939655172413 11.587823275862085  1.4951508620689655 12.063038793103448  C 1.3254310344827587 12.672413793103448  1.1508620689655173 13.301185344827585  0.9682112068965517 13.946120689655173  C 0.9633620689655172 13.963900862068966  0.9665948275861991 13.983297413793103  0.9779094827586285 13.997844827586206  C 0.9892241379310345 14.012392241379326  1.0070043103448199 14.022090517241379  1.0247844827586208 14.022090517241379  L 1.0651939655172413 14.022090517241379  C 1.1557112068965518 14.023706896551724  1.2139008620689655 13.980064655172415  1.2413793103448276 13.894396551724139  L 2.869073275862069 8.705818965517242  C 2.9127155172413794 8.56842672413793  3.0210129310344827 8.463362068965518  3.158405172413793 8.426185344827585  C 3.5382543103448274 8.321120689655173  3.8130387931034484 8.518318965517242  4.170258620689663 8.582974137931034  C 4.917025862068957 8.718750000000016  5.633081896551724 8.489224137931034  6.316810344827586 7.892780172413793  C 6.344288793103448 7.868534482758605  6.362068965517241 7.834590517241379  6.365301724137931 7.795797413793103  C 6.375 7.697198275862069  6.405711206896552 7.5969827586206895  6.457435344827586 7.4967672413793105  C 6.475215517241379 7.461206896551724  6.504310344827586 7.438577586206897  6.543103448275862 7.427262931034483  C 6.958512931034483 7.3125  7.149245689655173 7.044181034482759  7.113685344827586 6.623922413793103  C 7.108836206896552 6.570581896551724  7.125 6.523706896551724  7.160560344827586 6.483297413793103  C 7.2219827586206895 6.41379310344826  7.293103448275862 6.3717672413793105  7.372306034482759 6.355603448275862  C 8.01885775862069 6.0905172413792945  7.511314655172414 5.0625  7.251077586206897 4.606681034482759  C 7.061961206896552 4.272090517241364  6.8938577586206895 3.834051724137931  6.748383620689655 3.2925646551724137  C 6.722521551724138 3.195581896551724  6.758081896551724 3.1632543103448274  6.853448275862069 3.197198275862069  L 7.230064655172414 3.3313577586206895  C 7.394935344827586 3.3895474137931036  7.579202586206897 3.3248922413793105  7.668103448275862 3.1745689655172415  C 8.104525862068966 2.445581896551724  6.216594827586207 1.7068965517241537  5.775323275862061 1.5614224137931034  C 5.696120689655173 1.537176724137931  5.641163793103448 1.4644396551724295  5.637931034482759 1.3803879310344827  L 5.582974137931035 0.10183189655172414  C 5.5813577586206895 0.07273706896551724  5.597521551724138 0.043642241379310345  5.623383620689655 0.030711206896567405  C 5.649245689655173 0.016163793103448277  5.681573275862069 0.017780172413793104  5.705818965517249 0.03556034482758621  C 5.888469827586207 0.16002155172413793  6.0969827586206895 0.25700431034482757  6.3313577586206895 0.3265086206896552  C 7.863685344827586 0.7710129310344828  9.400862068965518 0.787176724137931  10.942887931034482 0.3717672413792947  Z M 9.392780172413794 14.532866379310345  L 9.363685344827585 5.891702586206897  C 9.363685344827585 5.877155172413793  9.357219827586206 5.8626077586206895  9.347521551724139 5.852909482758621  C 9.336206896551724 5.843211206896552  9.323275862068966 5.836745689655173  9.308728448275861 5.836745689655173  L 9.295797413793103 5.836745689655173  C 9.28125 5.836745689655173  9.266702586206897 5.843211206896552  9.257004310344827 5.852909482758621  C 9.245689655172415 5.8626077586206895  9.240840517241379 5.877155172413793  9.240840517241379 5.891702586206897  L 9.269935344827585 14.532866379310345  C 9.269935344827585 14.547413793103448  9.276400862068966 14.561961206896552  9.286099137931034 14.571659482758621  C 9.297413793103448 14.58135775862069  9.310344827586206 14.58782327586207  9.32489224137931 14.58782327586207  L 9.33782327586207 14.58782327586207  C 9.352370689655173 14.58782327586207  9.366918103448276 14.58135775862069  9.376616379310345 14.571659482758621  C 9.387931034482758 14.561961206896552  9.392780172413794 14.547413793103448  9.392780172413794 14.532866379310345  Z " fill-rule="nonzero" fill="#582d8a" stroke="none" transform="matrix(1 0 0 1 169 364 )" />
  </g>
</svg>