<?xml version="1.0" encoding="utf-8"?>
<svg version="1.1" xmlns:xlink="http://www.w3.org/1999/xlink" width="3px" height="9px" xmlns="http://www.w3.org/2000/svg">
  <g transform="matrix(1 0 0 1 -222 -379 )">
    <path d="M 1.70703125 0.57843017578125  L 1.70556640625 0.11370849609375  C 2.2724609375 1.25079345703125  2.68701171875 2.129150390625  2.94921875 2.748779296875  C 2.98876953125 2.846008300781234  2.98583984375 2.949829101562516  2.938964843750014 3.06353759765625  C 2.91845703125 3.111328125  2.88623046875 3.12615966796875  2.84375 3.10638427734375  C 2.83203125 3.1014404296875  2.8203125 3.09649658203125  2.80712890625 3.093200683593734  C 2.791015624999986 3.08990478515625  2.78515625 3.09649658203125  2.78955078125 3.114624023437516  C 2.811523437500014 3.24151611328125  2.861328125 3.3486328125  2.937499999999986 3.43597412109375  C 2.975585937500014 3.48046875  2.978515625 3.526611328125016  2.9462890625 3.5760498046875  C 2.87451171875 3.68316650390625  2.848144531250014 3.81170654296875  2.8671875 3.958374023437484  C 2.8759765625 4.02923583984375  2.85107421875 4.07867431640625  2.7939453125 4.10833740234375  C 2.697265625 4.15777587890625  2.66064453125 4.24346923828125  2.682617187500014 4.36541748046875  C 2.6884765625 4.396728515625  2.67236328125 4.4296875  2.644531249999986 4.4395751953125  C 2.61376953125 4.45111083984375  2.5888671875 4.47088623046875  2.56982421875 4.502197265625  C 2.5625 4.515380859375016  2.55810546875 4.53021240234375  2.5595703125 4.54669189453125  C 2.56982421875 4.805419921875  2.56396484375 5.069091796875  2.54052734375 5.337707519531234  C 2.536132812500014 5.3887939453125  2.51416015625 5.425048828125  2.474609375 5.44976806640625  C 2.42041015625 5.482727050781234  2.3984375 5.53546142578125  2.407226562499986 5.609619140625  C 2.41162109375 5.65740966796875  2.39990234375 5.70025634765625  2.369140625 5.73486328125  L 2.00732421875 6.13861083984375  C 1.97509765625 6.17486572265625  1.97802734375 6.2061767578125  2.01611328125 6.23419189453125  C 2.029296875 6.244079589843734  2.0439453125 6.25067138671875  2.058593749999986 6.255615234375  C 2.076171875 6.26055908203125  2.08935546875 6.2720947265625  2.09814453125 6.29022216796875  C 2.1611328125 6.4237060546875  2.1376953125 6.5291748046875  2.02783203125 6.60333251953125  C 1.9868164062500142 6.63134765625  1.9677734374999858 6.6708984375  1.9692382812500142 6.7236328125  L 1.9970703125 7.573974609375  C 1.99853515625 7.625061035156234  1.98388671875 7.6695556640625  1.95166015625 7.705810546875  L 1.86962890625 7.798095703125  C 1.8359375 7.83599853515625  1.8212890624999858 7.88214111328125  1.82861328125 7.9365234375  C 1.865234375 8.219970703125  1.8330078125 8.48858642578125  1.73193359375 8.7440185546875  C 1.70703125 8.80828857421875  1.671875 8.8165283203125  1.62646484375 8.76544189453125  L 1.45947265625 8.57757568359375  C 1.4375000000000142 8.552856445312516  1.40673828125 8.536376953125  1.3759765625 8.533081054687516  C 1.31591796875 8.5264892578125  1.2734375000000142 8.54296875  1.25146484375 8.58251953125  L 0.18359375 6.37591552734375  C 0.17919921875 6.27703857421875  0.19384765625 6.1798095703125  0.2290039062500142 6.08258056640625  C 0.24072265625 6.0479736328125  0.2626953125 6.0347900390625  0.294921875 6.0413818359375  C 0.30810546875 6.044677734375  0.318359375 6.05126953125  0.32861328125 6.059509277343734  C 0.34033203125 6.06939697265625  0.3505859375 6.0677490234375  0.3579101562500142 6.05291748046875  C 0.44580078125 5.87823486328125  0.5263671875 5.70684814453125  0.5219726562500142 5.49591064453125  C 0.517578125 5.34100341796875  0.55126953125 5.194335937499984  0.6201171875 5.05755615234375  C 0.64208984375 5.0130615234375  0.6494140624999858 4.96527099609375  0.63916015625 4.9141845703125  C 0.587890625 4.64556884765625  0.623046875 4.39508056640625  0.7431640625 4.1627197265625  C 0.7724609375 4.10504150390625  0.78125 4.0440673828125  0.76806640625 3.979797363281266  C 0.73583984375 3.80841064453125  0.76953125 3.67987060546875  0.8691406249999858 3.5958251953125  C 0.91015625 3.56121826171875  0.927734375 3.51507568359375  0.92041015625 3.4573974609375  C 0.9072265625000142 3.3585205078125  0.94091796875 3.29425048828125  1.0185546875 3.26458740234375  C 1.06103515625 3.2464599609375  1.0771484375 3.2135009765625  1.06396484375 3.16571044921875  C 1.03759765625 3.065185546875  1.06396484375 2.99432373046875  1.1445312500000142 2.95147705078125  C 1.203125 2.92181396484375  1.22509765625 2.87237548828125  1.208984375 2.801513671875  C 1.19580078125 2.74053955078125  1.21044921875 2.68780517578125  1.25146484375 2.6466064453125  C 1.2895507812499858 2.60870361328125  1.3115234375 2.559265136718766  1.31591796875 2.5015869140625  L 1.36572265625 1.9215087890625  C 1.3701171875 1.8687744140625  1.38916015625 1.8226318359375  1.4199218750000142 1.7830810546875  C 1.431640625 1.7698974609375  1.44189453125 1.753417968749984  1.44921875 1.735290527343766  C 1.4580078125 1.713867187500016  1.46240234375 1.692443847656234  1.4609375 1.671020507812484  C 1.4462890625 1.43536376953125  1.4550781249999858 1.198059082031234  1.48876953125 0.9591064453125  C 1.49609375 0.91461181640625  1.513671875 0.87176513671875  1.5400390625 0.837158203125  L 1.6806640625 0.65753173828125  C 1.6982421875 0.63446044921875  1.70703125 0.6064453125  1.70703125 0.57843017578125  Z " fill-rule="nonzero" fill="#452477" stroke="none" transform="matrix(1 0 0 1 222 379 )" />
  </g>
</svg>