<?xml version="1.0" encoding="utf-8"?>
<svg version="1.1" xmlns:xlink="http://www.w3.org/1999/xlink" width="4px" height="18px" xmlns="http://www.w3.org/2000/svg">
  <g transform="matrix(1 0 0 1 -208 -373 )">
    <path d="M 2.287109375000014 0.43560791015625  L 3.52783203125 8.01123046875  C 3.4443359375 8.06890869140625  3.37255859375 8.136474609375  3.3095703125 8.21392822265625  C 3.2685546875 8.265014648437484  3.23193359375 8.35565185546875  3.201171874999986 8.4891357421875  C 3.164550781249986 8.63909912109375  3.08251953125 8.7264404296875  3.05029296875 8.88629150390625  C 2.984375 9.2109375  2.95361328125 9.52899169921875  2.95654296875 9.837158203125  C 2.95654296875 9.88824462890625  2.944824218749986 9.934387207031266  2.919921875 9.975585937500016  C 2.7294921875 10.29693603515625  2.65771484375 10.69903564453125  2.70458984375 11.18023681640625  C 2.71630859375 11.2972412109375  2.69140625 11.40106201171875  2.63134765625 11.49169921875  C 2.6005859375 11.53619384765625  2.58740234375 11.5872802734375  2.5888671875 11.643310546874984  C 2.597656250000014 11.880615234375  2.5390625 12.0882568359375  2.414550781250014 12.2662353515625  C 2.38671875 12.30743408203125  2.37060546875 12.35357666015625  2.369140625 12.404663085937484  C 2.36181640625 12.566162109375  2.310546875 12.714477539062484  2.21533203125 12.84796142578125  C 2.181640625 12.89739990234375  2.16845703125 12.95343017578125  2.1787109375 13.014404296875  L 2.22119140625 13.271484375000016  C 2.231445312500014 13.332458496093734  2.21826171875 13.38519287109375  2.18310546875 13.4329833984375  C 2.14501953125 13.482421875  2.134765625 13.538452148437484  2.15380859375 13.601074218750016  C 2.2021484375 13.764221191406234  2.1962890625 13.94549560546875  2.13330078125 14.1448974609375  C 2.0703125 14.34429931640625  2.084960937500014 14.52392578125  2.177246093750014 14.68707275390625  C 2.2021484375 14.7315673828125  2.2080078125 14.78594970703125  2.19189453125 14.833740234375  C 2.169921875 14.898010253906234  2.175781249999986 14.95733642578125  2.20947265625 15.01336669921875  C 2.24169921875 15.064453125000016  2.2578125 15.12213134765625  2.25927734375 15.186401367187484  C 2.26220703125 15.36273193359375  2.26220703125 15.545654296875  2.2607421875 15.73681640625  C 2.25927734375 16.05487060546875  2.1669921875 16.42071533203125  2.18603515625 16.7816162109375  C 2.1875 16.81622314453125  2.175781249999986 16.850830078125  2.15234375 16.8739013671875  C 2.12890625 16.896972656250014  2.09814453125 16.9068603515625  2.067382812500014 16.90191650390625  C 1.98388671875 16.8870849609375  1.9208984375000142 16.92169189453125  1.87841796875 17.00244140625  C 1.83154296875 17.09307861328125  1.79931640625 17.19854736328125  1.783203125 17.3155517578125  C 1.78173828125 17.330383300781264  1.7802734375 17.330383300781264  1.7802734375 17.3155517578125  C 1.77880859375 17.30072021484375  1.78466796875 17.289184570312514  1.7978515625 17.27764892578125  C 1.8095703124999858 17.2694091796875  1.81982421875 17.27105712890625  1.8286132812500142 17.2825927734375  C 1.859375 17.325439453125  1.8798828125 17.37652587890625  1.88720703125 17.4342041015625  C 1.89306640625 17.47540283203125  1.8842773437500142 17.5067138671875  1.8623046875 17.52813720703125  C 1.83447265625 17.554504394531236  1.7978515625 17.55780029296875  1.7539062499999858 17.53802490234375  C 1.73046875 17.52813720703125  1.72021484375 17.513305664062486  1.724609375 17.49188232421875  C 1.72607421875 17.4869384765625  1.72900390625 17.48199462890625  1.73193359375 17.47705078125  C 1.7377929687500142 17.46881103515625  1.7363281249999858 17.4638671875  1.72900390625 17.46221923828125  C 1.72314453125 17.4605712890625  1.7187500000000142 17.457275390625  1.71435546875 17.452331542968736  C 1.677734375 17.4078369140625  1.6645507812500142 17.4144287109375  1.671875 17.47540283203125  C 1.67333984375 17.4803466796875  1.671875 17.48529052734375  1.67041015625 17.490234375  C 1.66015625 17.51824951171875  1.6455078125000142 17.52154541015625  1.625 17.50341796875  C 1.52392578125 17.40948486328125  1.43603515625 17.29412841796875  1.361328125 17.1573486328125  L 0.078125 10.57049560546875  C 0.14990234375 10.483154296875  0.16015625 10.3546142578125  0.10888671875 10.181579589843766  C 0.09130859375 10.1239013671875  0.1015625 10.074462890625  0.1396484375 10.02996826171875  C 0.24658203125 9.90802001953125  0.26123046875 9.7877197265625  0.18505859375 9.6690673828125  C 0.1572265625 9.624572753906234  0.16015625 9.585021972656266  0.1953125 9.54876708984375  C 0.20849609375 9.53558349609375  0.22021484375 9.520751953124984  0.23046875 9.502624511718766  C 0.2524414062499858 9.4647216796875  0.2539062500000142 9.42352294921875  0.23779296875 9.38067626953125  C 0.17626953125 9.22906494140625  0.1953125 9.1021728515625  0.294921875 8.99835205078125  C 0.33740234375 8.953857421875  0.330078125 8.93243408203125  0.2714843749999858 8.93408203125  C 0.2348632812499858 8.93572998046875  0.201171875 8.924194335937484  0.17333984375 8.89947509765625  C 0.1440429687500142 8.874755859375  0.12939453125 8.83355712890625  0.13525390625 8.79400634765625  C 0.1455078125 8.71160888671875  0.16748046875 8.677001953124984  0.1997070312500142 8.68853759765625  C 0.2714843749999858 8.7132568359375  0.29931640625 8.69183349609375  0.2861328125 8.624267578125  L 0.26416015625 8.51055908203125  C 0.2568359375 8.472656250000016  0.2626953125 8.43310546875  0.28173828125 8.400146484375  C 0.40625 8.189208984375  0.46484375 7.95025634765625  0.4545898437499858 7.681640625  C 0.4501953125 7.576171875  0.48388671875 7.5003662109375  0.5556640625 7.45587158203125  C 0.60986328125 7.42291259765625  0.62890625 7.37347412109375  0.611328125 7.305908203125  C 0.60400390625 7.277893066406266  0.611328125 7.254821777343734  0.6318359375 7.23834228515625  C 0.669921875 7.20703125  0.68310546875 7.16583251953125  0.6728515625 7.11474609375  C 0.611328125 6.80987548828125  0.7138671875 6.620361328125  0.97900390625 6.54620361328125  C 1.0244140625 6.534667968749984  1.04345703125 6.501708984375  1.03466796875 6.448974609375  C 0.998046875 6.22979736328125  1.03759765625 6.05181884765625  1.1503906249999858 5.918334960937516  C 1.18115234375 5.88043212890625  1.197265625 5.835937500000016  1.197265625 5.783203125  L 1.197265625 5.2657470703125  C 1.197265625 5.21136474609375  1.21484375 5.1668701171875  1.24853515625 5.12896728515625  L 1.29248046875 5.077880859375  C 1.326171875 5.03997802734375  1.34375 4.9954833984375  1.34375 4.94110107421875  L 1.34375 4.599975585937516  C 1.34375 4.5802001953125  1.349609375 4.56207275390625  1.361328125 4.54559326171875  L 1.56640625 4.27862548828125  C 1.60009765625 4.23577880859375  1.5986328125 4.194580078125  1.56201171875 4.15338134765625  L 1.51513671875 4.10064697265625  C 1.4990234375000142 4.082519531249984  1.490234375 4.06109619140625  1.490234375 4.03472900390625  L 1.490234375 3.2750244140625  C 1.490234375 3.2222900390625  1.513671875 3.1728515625  1.5517578125 3.14483642578125  C 1.61181640625 3.100341796875  1.64111328125 3.03936767578125  1.63671875 2.96356201171875  C 1.62060546875 2.59771728515625  1.7099609375 2.2598876953125  1.90625 1.94842529296875  C 1.9326171875 1.9072265625  1.9296875 1.8709716796875  1.8974609375 1.83636474609375  C 1.8476562500000142 1.781982421875  1.8447265625 1.72430419921875  1.89013671875 1.66168212890625  C 1.9208984375000142 1.6171875  1.92822265625 1.55621337890625  1.90625 1.50677490234375  C 1.87841796875 1.4425048828125  1.876953125 1.37823486328125  1.9018554687500142 1.3172607421875  C 1.9619140625 1.1656494140625  1.99853515625 1.004150390625  2.0146484375 0.83111572265625  C 2.0263671875 0.704223632812484  2.052734375 0.580627441406234  2.09521484375 0.46197509765625  C 2.1376953125 0.3416748046875  2.1787109375 0.3087158203125  2.21533203125 0.35980224609375  C 2.22705078125 0.376281738281266  2.228515625 0.3944091796875  2.22119140625 0.4141845703125  C 2.20654296875 0.44879150390625  2.212402343749986 0.45538330078125  2.240234375 0.43231201171875  C 2.250488281250014 0.424072265625  2.26220703125 0.42242431640625  2.275390625 0.424072265625  C 2.28271484375 0.42572021484375  2.285644531249986 0.42901611328125  2.287109375000014 0.43560791015625  Z " fill-rule="nonzero" fill="#452477" stroke="none" transform="matrix(1 0 0 1 208 373 )" />
  </g>
</svg>