<?xml version="1.0" encoding="utf-8"?>
<svg version="1.1" xmlns:xlink="http://www.w3.org/1999/xlink" width="6px" height="10px" xmlns="http://www.w3.org/2000/svg">
  <g transform="matrix(1 0 0 1 -214 -371 )">
    <path d="M 0.22531960227272727 1.5516493055555556  C 0.3068181818181818 1.1593967013888888  0.40589488636363635 0.7769097222222381  0.5257457386363636 0.4041883680555555  C 0.7926136363636365 0.5116102430555398  1.0930397727272572 0.5392795138888888  1.4286221590909092 0.4888237847222222  C 1.458984375 1.2879774305555556  1.5516690340909092 1.8348524305555713  1.7098721590909092 2.1294487847222223  C 3.0138494318181817 4.567599826388889  4.341796875 7.033420138888888  5.6921164772727275 9.526909722222221  C 4.530362215909107 9.61154513888889  3.7872869318181817 9.639214409722221  3.4612926136363638 9.609917534722221  C 2.73100142045453 9.54481336805554  1.9975142045454546 9.536675347222221  1.2640269886363635 9.587131076388905  C 1.2001065340909092 9.59201388888889  1.1841264204545454 9.653862847222221  1.2160866477272727 9.77267795138889  C 0.8996803977272727 7.316623263888888  0.5704900568181818 4.863823784722222  0.228515625 2.414279513888889  C 0.18696732954545456 2.116427951388889  0.1629971590909091 1.8560112847222379  0.22531960227272727 1.5516493055555556  Z " fill-rule="nonzero" fill="#ffffff" stroke="none" transform="matrix(1 0 0 1 214 371 )" />
  </g>
</svg>