<?xml version="1.0" encoding="utf-8"?>
<svg version="1.1" xmlns:xlink="http://www.w3.org/1999/xlink" width="4px" height="6px" xmlns="http://www.w3.org/2000/svg">
  <g transform="matrix(1 0 0 1 -179 -390 )">
    <path d="M 0.51708984375 0.5465198863636364  L 0.86279296875 0.6376065340909091  C 1.4677734375 0.7606534090909091  2.07568359375 0.7926136363636209  2.6865234375 0.7302911931818182  C 2.876953125 0.6919389204545454  3.05126953125 0.685546875  3.2109375 0.7111150568181818  C 3.2607421875 0.7191051136363636  3.287109375 0.7510653409090909  3.29150390625 0.8037997159090909  C 3.3369140625 1.3519176136363482  3.33837890625 1.9032315340909092  3.29443359375 2.456143465909091  C 3.2900390625 2.510475852272712  3.3076171875 2.552024147727288  3.35009765625 2.580788352272727  L 3.9814453125 3.0154474431818183  C 3.837890625 3.122514204545454  3.68408203125 3.071377840909107  3.5185546875 2.865234375  C 3.4921875 2.831676136363652  3.451171875 2.817294034090909  3.41162109375 2.8236860795454546  C 3.36328125 2.833274147727273  3.32666015625 2.862038352272727  3.3046875 2.91157670454547  C 3.27099609375 2.9866832386363638  3.26220703125 3.0617897727272725  3.28125 3.1384943181818183  C 3.36474609375 3.48046875  3.17138671875 3.710582386363652  3.14208984375 4.033380681818182  C 3.12890625 4.194779829545454  3.09521484375 4.352982954545454  3.04248046875 4.504794034090909  C 2.93115234375 4.832386363636363  2.90625 5.150390625  2.9677734375 5.457208806818182  C 2.97802734375 5.503551136363637  2.9619140625 5.5339133522727275  2.91943359375 5.54829545454547  C 2.80517578125 5.585049715909091  2.67333984375 5.596235795454546  2.525390625 5.581853693181818  L 0.71630859375 5.449218750000015  C 0.66796875 5.4460227272727275  0.6298828125 5.422052556818182  0.60498046875 5.3757102272727275  C 0.52880859375 5.23828125  0.48779296875 5.073686079545454  0.4833984375 4.881924715909091  L 0.36328125 0.6839488636363636  C 0.35888671875 0.5640980113636364  0.41015625 0.5193536931818182  0.51708984375 0.5465198863636364  Z " fill-rule="nonzero" fill="#351c66" stroke="none" transform="matrix(1 0 0 1 179 390 )" />
  </g>
</svg>