<?xml version="1.0" encoding="utf-8"?>
<svg version="1.1" xmlns:xlink="http://www.w3.org/1999/xlink" width="10px" height="6px" xmlns="http://www.w3.org/2000/svg">
  <g transform="matrix(1 0 0 1 -207 -391 )">
    <path d="M 8.279622395833334 1.3757812500000002  C 8.7646484375 1.4056640625  9.0673828125 1.0962890625  9.187825520833334 0.44589843749999997  L 9.679361979166666 3.6662109375000003  L 9.638671875 4.293749999999983  C 9.622395833333334 4.545117187500001  9.4677734375 4.761328125  9.24641927083335 4.8404296875  C 8.375651041666666 5.1533203125  7.44140625 5.401171874999999  6.446940104166666 5.582226562500001  C 5.608723958333334 5.735156249999999  4.454752604166667 5.808984374999984  2.98828125 5.8037109375  C 2.862955729166667 5.8037109375  2.737630208333333 5.789648437500016  2.6139322916666825 5.759765625  C 2.566731770833333 5.749218750000001  2.532552083333349 5.705273437500001  2.529296875 5.654296875  C 2.4137369791666665 4.1724609375  1.2809244791666665 3.4148437499999833  0.322265625 2.5482421874999996  C 0.22786458333333331 2.462109375  0.18229166666666669 2.377734375  0.185546875 2.2933593749999828  L 1.4029947916666665 1.8380859374999998  C 1.9173177083333335 2.1193359375000167  2.4381510416666665 2.518359375  2.9638671875 3.0369140624999997  C 3.263346354166651 3.3304687499999996  3.562825520833333 3.2320312500000004  3.732096354166651 2.8541015625000004  C 3.9550781249999845 2.3531250000000004  4.051106770833333 1.8785156250000172  4.020182291666667 1.4302734375  C 4.806315104166667 1.7080078125  5.616861979166666 1.8205078124999998  6.451822916666666 1.7660156249999828  C 6.6650390625 1.751953125  6.8798828125 1.7501953124999998  7.097981770833334 1.7589843749999998  C 7.457682291666666 1.7730468750000001  7.799479166666666 1.6605468749999999  8.123372395833334 1.421484375  C 8.170572916666666 1.386328125  8.22265625 1.3705078124999828  8.279622395833334 1.3757812500000002  Z " fill-rule="nonzero" fill="#751f83" stroke="none" transform="matrix(1 0 0 1 207 391 )" />
  </g>
</svg>