<?xml version="1.0" encoding="utf-8"?>
<svg version="1.1" xmlns:xlink="http://www.w3.org/1999/xlink" width="4px" height="6px" xmlns="http://www.w3.org/2000/svg">
  <g transform="matrix(1 0 0 1 -170 -390 )">
    <path d="M 0.7137276785714286 0.5193536931818182  L 1.2912946428571428 0.5752840909091064  C 1.9877232142857142 0.6775568181818182  2.67578125 0.6983309659090909  3.357142857142857 0.6392045454545454  L 3.9029017857142856 0.6631747159090909  C 3.9229910714285716 0.6631747159090909  3.94140625 0.6727627840908936  3.954799107142857 0.6871448863636364  C 3.9681919642857144 0.7015269886363636  3.9732142857142856 0.720703125  3.971540178571437 0.7398792613636364  L 3.75390625 2.5040838068181817  C 3.7472098214285716 2.5584161931818183  3.7572544642857144 2.6079545454545454  3.7857142857142856 2.654296875  C 3.8409598214285716 2.745383522727273  3.89453125 2.8013139204545454  3.943080357142857 2.8220880681818183  C 3.437500000000008 3.7601207386363638  3.1361607142857144 4.3977272727272725  3.037388392857143 4.736505681818182  C 2.9737723214285716 4.958629261363637  2.91015625 5.1823508522727275  2.8448660714285716 5.406072443181818  C 2.829799107142849 5.458806818181818  2.794642857142857 5.485973011363637  2.7393973214285716 5.487571022727257  L 1.2678571428571428 5.537109375  L 0.6986607142857143 5.482776988636363  C 0.6568080357142857 5.479580965909091  0.6216517857142857 5.492365056818182  0.5931919642857143 5.51953125  L 0.5563616071428571 5.556285511363637  C 0.53125 5.583451704545454  0.5044642857142857 5.581853693181818  0.47935267857142855 5.5546875  L 0.44754464285714285 5.521129261363637  L 0.4575892857142857 3.7281605113636362  L 0.625 0.5928622159090754  C 0.6266741071428571 0.5385298295454546  0.6568080357142857 0.5145596590909246  0.7137276785714286 0.5193536931818182  Z " fill-rule="nonzero" fill="#351c66" stroke="none" transform="matrix(1 0 0 1 170 390 )" />
  </g>
</svg>