<?xml version="1.0" encoding="utf-8"?>
<svg version="1.1" xmlns:xlink="http://www.w3.org/1999/xlink" width="4px" height="9px" xmlns="http://www.w3.org/2000/svg">
  <g transform="matrix(1 0 0 1 -171 -382 )">
    <path d="M 1.60205078125 0.2419577205882353  C 1.61962890625 0.22179457720588236  1.6298828125 0.2078354779411765  1.63134765625 0.1969784007352941  L 1.65185546875 0.263671875  C 1.662109375 0.29779411764707386  1.6826171875 0.3117532169117647  1.71630859375 0.3071001838235294  C 2.4033203125 0.1938763786764706  3.0947265625 0.2155905330882353  3.7890625 0.37379365808822024  C 3.78466796875 0.3598345588235294  3.77880859375 0.3474264705882353  3.77294921875 0.33501838235292614  L 1.9375 8.561580882352942  C 1.34130859375 8.618968290441176  0.7392578125 8.598805147058824  0.1298828125 8.499540441176485  C 0.64990234375 5.746495863970604  1.14794921875 3.008961397058824  1.622558593749993 0.28693704044117646  C 1.6240234375 0.27452895220588236  1.62109375 0.263671875  1.613769531249993 0.2559168198529412  C 1.609375 0.2512637867647059  1.6064453125 0.2466107536764706  1.60205078125 0.2419577205882353  Z " fill-rule="nonzero" fill="#fd5e44" stroke="none" transform="matrix(1 0 0 1 171 382 )" />
  </g>
</svg>