<?xml version="1.0" encoding="utf-8"?>
<svg version="1.1" xmlns:xlink="http://www.w3.org/1999/xlink" width="11px" height="13px" xmlns="http://www.w3.org/2000/svg">
  <g transform="matrix(1 0 0 1 -215 -382 )">
    <path d="M 3.7880345394736845 0.23845108695652176  C 4.520764802631596 0.2798488451086957  5.117804276315789 0.27156929347826086  5.577456825657895 0.21195652173913043  L 7.159950657894736 3.0154127038043477  L 8.396432976973685 5.232676630434782  L 10.869397615131579 9.629118546195652  C 10.46741365131579 10.869395380434783  9.82288240131579 11.955672554347826  8.9375 12.88463824728261  C 8.806897615131579 12.765412703804348  8.616930509868421 12.704144021739129  8.367598684210526 12.699176290760871  C 6.255910773026316 12.666058084239129  4.134046052631579 12.623004415760871  2.0003083881578947 12.57001528532607  C 1.9918277138157896 12.560079823369565  1.9867393092105263 12.535241168478262  1.9816509046052633 12.497155230978262  L 1.4694181743421053 9.463527513586957  L 0.28042763157896383 0.3874830163043478  C 1.7848992598684377 0.2401069972826087  2.9552323190789473 0.1904296875  3.7880345394736845 0.23845108695652176  Z " fill-rule="nonzero" fill="#ffffff" stroke="none" transform="matrix(1 0 0 1 215 382 )" />
  </g>
</svg>