<?xml version="1.0" encoding="utf-8"?>
<svg version="1.1" xmlns:xlink="http://www.w3.org/1999/xlink" width="7px" height="14px" xmlns="http://www.w3.org/2000/svg">
  <g transform="matrix(1 0 0 1 -173 -382 )">
    <path d="M 2.447791466346154 0.3543749999999841  L 6.383713942307692 0.3215625  L 6.852238581730769 9.054609375  L 6.479942908653846 8.96109375  C 6.364783653846154 8.933203125  6.3095703125 8.979140625  6.314302884615385 9.1021875  L 6.443659855769231 13.412109375  C 6.4326171875 13.458046875  6.427884615384615 13.49578125  6.431039663461538 13.523671875  L 6.367938701923077 13.536796875  C 6.254356971153846 13.223437500000001  6.068209134615385 12.95765625  5.807917668269231 12.739453124999999  C 5.246319110576923 12.266953125  3.739783653846154 11.351484375  3.0740685096153846 11.865  C 2.8563701923076925 12.033984375000001  2.641826923076923 12.20296875  2.430438701923077 12.371953124999983  C 2.3736478365384617 12.41625  2.296349158653846 12.414609375000017  2.2411358173076925 12.36703125  L 1.0232872596153846 11.297343750000001  C 0.9775390625 11.276015625  0.9270582932692307 11.21859375  0.875 11.125078125  C 0.8481820913461539 11.0775  0.8387169471153846 11.026640624999999  0.8450270432692307 10.970859375  L 1.0501051682692384 9.159609375  C 1.0516826923076923 9.139921874999999  1.0469501201923077 9.120234375  1.0343299278846154 9.10546875  C 1.021709735576923 9.090703124999983  1.0043569711538463 9.080859375000001  0.9854266826923077 9.080859375000001  L 0.47115384615384615 9.05625  L 2.447791466346154 0.3543749999999841  Z " fill-rule="nonzero" fill="#ffffff" stroke="none" transform="matrix(1 0 0 1 173 382 )" />
  </g>
</svg>