<?xml version="1.0" encoding="utf-8"?>
<svg version="1.1" xmlns:xlink="http://www.w3.org/1999/xlink" width="8px" height="9px" xmlns="http://www.w3.org/2000/svg">
  <g transform="matrix(1 0 0 1 -223 -388 )">
    <path d="M 5.667708333333334 1.94842529296875  C 6.075520833333333 1.5611572265625  6.425520833333334 1.017333984375  6.719270833333334 0.318603515625  C 6.927083333333333 0.4801025390625  7.206770833333334 0.61358642578125  7.556770833333333 0.719055175781234  C 7.445833333333334 1.267822265625  7.372395833333333 1.80999755859375  7.334895833333318 2.34393310546875  C 7.283333333333333 3.088806152343734  7.227083333333334 3.6309814453125  7.166145833333333 3.96881103515625  C 7.036458333333333 4.6922607421875  6.895833333333333 5.420654296875  6.744270833333333 6.15399169921875  C 6.708333333333333 6.3336181640625  6.647395833333333 6.49676513671875  6.564583333333333 6.6434326171875  C 6.488020833333334 6.776916503906266  6.430208333333334 6.91864013671875  6.391145833333334 7.06695556640625  C 6.259895833333318 7.556396484375  5.969270833333349 8.01617431640625  5.520833333333333 8.44793701171875  C 5.264583333333318 8.693481445312516  4.666145833333333 9.06097412109375  4.341145833333333 8.734680175781266  C 4.014583333333318 8.40673828125  3.697395833333333 8.02276611328125  3.322395833333333 7.77886962890625  C 2.6942708333333334 7.373474121093734  1.9583333333333333 7.2235107421875  1.2458333333333333 7.06036376953125  C 0.9255208333333333 6.98785400390625  0.6036458333333333 6.93182373046875  0.2786458333333333 6.8939208984375  C 0.23333333333333334 6.8873291015625  0.19895833333333332 6.85107421875  0.19114583333333332 6.804931640625  L 0.17552083333333332 6.71759033203125  C 0.20520833333331817 6.6434326171875  0.22395833333333334 6.6170654296875  0.23333333333333334 6.63519287109375  C 1.0489583333333334 5.710693359375  1.6427083333333334 4.629638671875  2.0130208333333335 3.39532470703125  C 2.0677083333333335 3.3837890625  2.1208333333333487 3.38543701171875  2.1708333333333334 3.398620605468766  L 1.1708333333333334 5.69256591796875  C 1.1348958333333334 5.77496337890625  1.1364583333333333 5.870544433593766  1.1755208333333333 5.952941894531266  C 1.2145833333333333 6.033691406249984  1.2880208333333334 6.09136962890625  1.3723958333333333 6.1094970703125  C 2.017708333333333 6.2479248046875  2.6317708333333334 6.3599853515625  3.213020833333318 6.445678710937484  C 3.4520833333333334 6.48028564453125  3.6067708333333335 6.364929199218766  3.6770833333333335 6.097961425781266  C 3.9114583333333335 5.2064208984375  4.000520833333334 4.405517578125  3.9442708333333334 3.69854736328125  C 3.939583333333333 3.644165039062484  3.9208333333333334 3.59637451171875  3.884895833333333 3.55517578125  C 3.5927083333333334 3.2222900390625  2.963020833333333 3.23712158203125  2.4739583333333335 3.26513671875  C 2.7348958333333333 3.2354736328125  2.995833333333333 3.205810546875  3.2567708333333334 3.17779541015625  C 3.5395833333333333 3.146484375  3.7942708333333335 3.08221435546875  4.019270833333334 2.984985351562484  C 4.705208333333333 2.69000244140625  5.253645833333334 2.34393310546875  5.667708333333334 1.94842529296875  Z " fill-rule="nonzero" fill="#751f83" stroke="none" transform="matrix(1 0 0 1 223 388 )" />
  </g>
</svg>