<?xml version="1.0" encoding="utf-8"?>
<svg version="1.1" xmlns:xlink="http://www.w3.org/1999/xlink" width="9px" height="9px" xmlns="http://www.w3.org/2000/svg">
  <g transform="matrix(1 0 0 1 -222 -389 )">
    <path d="M 8.339786305147044 1.6766429227941175  C 8.377010569852942 1.1741153492647058  8.449908088235293 0.6638327205882353  8.560029871323529 0.1473460477941026  C 8.803538602941176 1.1291360294117647  8.791130514705882 2.1512522977941178  8.522805606617647 3.21214384191178  C 8.390969669117647 3.7317325367647056  8.322725183823529 3.9985064338235294  8.321174172794132 4.009363511029412  C 8.201746323529411 4.5227481617647065  8.057502297794118 5.065602022058823  7.8884420955882355 5.639476102941177  L 7.340935202205882 7.005916819852941  C 7.26028262867647 7.055549172794118  7.164119944852941 7.178079044117648  7.0539981617647065 7.37350643382353  C 6.7019186580882355 8.003216911764707  5.833352481617648 8.280847886029411  5.082663143382337 8.384765625  C 4.0078125 8.532111672794118  3.0198184742647056 8.595703125  2.1186810661764706 8.572437959558824  C 1.107421874999985 8.547621783088236  -0.18301930147058823 8.238970588235293  0.3924057904411915 6.901999080882352  C 0.5257927389705732 6.593347886029411  0.8065257352941176 6.22265625  1.2330537683823528 5.793026194852941  L 1.2485638786764706 5.8752297794117645  C 1.2563189338235294 5.9186580882352935  1.290441176470588 5.952780330882352  1.3354204963235294 5.958984375  C 1.6580307904411766 5.99465762867647  1.9775390625 6.04739200367647  2.2954963235294117 6.115636488970589  C 3.002757352941176 6.269186580882352  3.7332835477941178 6.410328584558808  4.356789981617647 6.791877297794118  C 4.72903262867647 7.021426930147059  5.043887867647044 7.3828125  5.368049172794118 7.691463694852956  C 5.6906594669117645 7.99856387867647  6.284696691176455 7.652688419117663  6.5390625 7.4215877757352935  C 6.984202665441192 7.015222886029411  7.27269071691175 6.58249080882353  7.402975643382352 6.1218405330882355  C 7.441750919117648 5.982249540441177  7.499138327205882 5.84886259191178  7.575137867647059 5.723230698529411  C 7.657341452205882 5.5851907169117645  7.717830882352941 5.431640625  7.753504136029411 5.262580422794118  C 7.903952205882352 4.572380514705882  8.043543198529411 3.8868336397058822  8.172277113970589 3.2059397977941178  C 8.232766544117647 2.8879825367647056  8.288602941176471 2.37769990808822  8.339786305147044 1.6766429227941175  Z " fill-rule="nonzero" fill="#c13ba8" stroke="none" transform="matrix(1 0 0 1 222 389 )" />
  </g>
</svg>