<?xml version="1.0" encoding="utf-8"?>
<svg version="1.1" xmlns:xlink="http://www.w3.org/1999/xlink" width="9px" height="2px" xmlns="http://www.w3.org/2000/svg">
  <g transform="matrix(1 0 0 1 -179 -395 )">
    <path d="M 7.592198988970589 1.3404947916666667  C 8.207950367647058 1.1666666666666667  8.649988511029427 0.9108072916666856  8.916762408088236 0.5690104166666856  C 8.896599264705882 1.0123697916666667  8.70582490808822 1.3151041666666667  8.344439338235293 1.4772135416666667  C 7.6604434742647065 1.7819010416666667  6.954733455882352 1.9479166666666667  6.216452205882352 1.9694010416666667  C 4.362994025735294 2.0221354166666665  2.507984834558824 1.9342447916666476  0.6514246323529412 1.7018229166666667  C 0.5971392463235294 1.6959635416666667  0.566119025735294 1.6569010416666667  0.5614659926470589 1.5885416666666667  L 0.4994255514705882 0.7662760416666666  C 0.4963235294117647 0.7330729166666666  0.5009765625 0.6881510416666666  0.5118336397058824 0.6334635416666666  C 0.5164866727941176 0.8678385416666666  0.5599149816176471 1.0690104166666667  0.6405675551470588 1.2369791666666667  C 0.6669347426470588 1.2936197916666667  0.7072610294117647 1.3229166666666667  0.7584443933823529 1.3268229166666856  L 2.6739430147058822 1.4889322916666667  C 3.959731158088235 1.5963541666666667  5.250172334558823 1.6217447916666667  6.545266544117648 1.5690104166666476  C 6.731387867647059 1.5611979166666667  7.0803653492647065 1.4850260416666667  7.592198988970589 1.3404947916666667  Z " fill-rule="nonzero" fill="#8b379f" stroke="none" transform="matrix(1 0 0 1 179 395 )" />
  </g>
</svg>