<?xml version="1.0" encoding="utf-8"?>
<svg version="1.1" xmlns:xlink="http://www.w3.org/1999/xlink" width="9px" height="2px" xmlns="http://www.w3.org/2000/svg">
  <g transform="matrix(1 0 0 1 -170 -395 )">
    <path d="M 8.605526194852942 0.41601562500001893  C 8.672219669117647 0.33984374999998107  8.732709099264707 0.3203125  8.790096507352942 0.35546875  C 8.889361213235293 0.662109375  8.782341452205882 0.880859375  8.470588235294118 1.0078125  C 7.840877757352941 1.2675781249999811  7.152228860294118 1.41015625  6.4030905330882355 1.4375  C 4.990119485294118 1.4902343750000189  3.9090647977941178 1.48046875  3.1568244485294117 1.412109375  C 2.283605238970596 1.33203125  1.4057329963235294 1.265625  0.5232077205882353 1.208984375  C 0.4875344669117647 1.20703125  0.459616268382353 1.1875  0.439453125 1.150390625  C 0.40998391544117646 1.09375  0.3960248161764706 1.017578125  0.39912683823529416 0.921875  L 0.4146369485294118 0.748046875  L 0.4441061580882353 0.7890625  C 0.4673713235294118 0.822265625  0.4921875 0.82421875  0.5154526654411765 0.791015625  L 0.5495749080882353 0.74609375  C 0.5759420955882353 0.712890625  0.6085133272058824 0.697265625  0.6472886029411764 0.701171875  L 1.1746323529411766 0.767578125  C 1.86328125 0.873046875  2.5364200367647056 0.859375  3.2328239889705808 0.976562500000019  C 3.5244140625000075 1.0253906250000189  3.817555147058824 1.0546875  4.110696231617647 1.064453125  C 5.270852481617648 1.10546875  6.291417738970589 1.056640625  7.17239200367647 0.919921875  C 7.52292049632353 0.865234375  7.957203584558823 0.730468749999981  8.475241268382353 0.513671875000019  C 8.523322610294118 0.4921875  8.566750919117647 0.4609375  8.605526194852942 0.41601562500001893  Z " fill-rule="nonzero" fill="#8b379f" stroke="none" transform="matrix(1 0 0 1 170 395 )" />
  </g>
</svg>