<?xml version="1.0" encoding="utf-8"?>
<svg version="1.1" xmlns:xlink="http://www.w3.org/1999/xlink" width="42px" height="2px" xmlns="http://www.w3.org/2000/svg">
  <g transform="matrix(1 0 0 1 -172 -399 )">
    <path d="M 3.3501562500000004 0.34716796875  C 2.36578125 0.3676757812499858  1.39125 0.33544921875  0.424921875 0.2490234375  C 3.2221875 0.26806640625  6.014531249999999 0.3076171875  8.805234375 0.3662109375  C 9.8634375 0.3881835937500142  10.95609375 0.4042968749999858  12.08484375 0.4130859375  C 15.873046875 0.4453125  19.659609375 0.4599609374999858  23.446171875 0.45849609375  C 27.86437499999998 0.45556640625  33.20953125 0.42041015625  39.48328125 0.3544921875  C 40.29703125 0.345703125  41.11734375 0.34423828125  41.945859375 0.3486328125  C 41.829375 0.44677734375  41.689921875 0.4892578125  41.53078125 0.4790039062500142  C 41.488125 0.47607421875  41.447109375 0.48193359375  41.407734375 0.4980468750000142  C 41.394609375 0.50390625  41.388046875 0.5126953125  41.3896875 0.52587890625  C 41.391328125 0.591796875  41.355234375 0.6181640625  41.2846875 0.60205078125  C 41.1271875 0.568359375  40.97625 0.66796875  40.833515625 0.90380859375  C 40.805624999999985 0.94921875  40.78593750000002 0.9873046875  40.781015625 1.001953125  L 40.723593749999985 1.1982421875  C 40.715390625 1.23193359375  40.723593749999985 1.259765625  40.751484375 1.28173828125  C 40.8384375 1.353515625  40.90734374999998 1.43994140625  40.9565625 1.5395507812499858  C 40.96640625 1.5615234375  40.984453125 1.56884765625  41.010703124999985 1.564453125  C 41.027109375 1.5615234375  41.043515625 1.5585937499999858  41.059921875 1.5556640625  C 41.07796875 1.55126953125  41.0878125 1.55712890625  41.089453125 1.57177734375  C 41.094375000000014 1.61572265625  41.069765625 1.6508789062500142  41.01890625 1.67724609375  C 40.8121875 1.78271484375  40.671093750000004 1.6201171875  40.45453125 1.7197265625  C 40.406953125 1.7416992187499858  40.356093750000014 1.75341796875  40.301953125000004 1.7548828125  L 38.4496875 1.798828125  C 28.768359375000017 2.00537109375  19.08375 2.02880859375  9.399140625 1.8720703125  C 8.706796875 1.8603515625  8.01609375 1.8339843750000142  7.328671875 1.79296875  L 4.17703125 1.66552734375  C 4.11140625 1.66259765625  4.106484375 1.64501953125  4.162265625 1.6142578125000142  C 4.1934375 1.5952148437499858  4.227890625 1.5849609375  4.267265625 1.58056640625  C 4.270546875 1.5791015625  4.27546875 1.58056640625  4.27546875 1.5849609375  C 4.27546875 1.587890625  4.2721875 1.59228515625  4.26890625 1.59375  C 4.122890625 1.62158203125  3.9834375 1.611328125  3.847265625 1.56298828125  C 3.75703125 1.53076171875  3.7537499999999997 1.49267578125  3.8357812499999997 1.447265625  C 3.8653125 1.4311523437500142  3.8981250000000003 1.4208984375  3.932578125 1.41943359375  C 3.962109375 1.41796875  3.99 1.4033203125  4.004765625 1.3798828125  C 4.021171875 1.3579101562500142  4.0228125 1.330078125  4.0113281249999995 1.30517578125  C 3.96375 1.20556640625  3.94734375 1.10888671875  3.962109375 1.01513671875  C 3.968671875 0.9697265625  3.948984375 0.9404296875  3.90140625 0.92431640625  C 3.7603125000000004 0.87744140625  3.65859375 0.779296875  3.597890625 0.62841796875  C 3.584765625 0.5947265625  3.59296875 0.56396484375  3.620859375 0.5390625  L 3.656953125 0.50537109375  C 3.7307812499999997 0.439453125  3.71765625 0.416015625  3.614296875 0.43505859375  C 3.5814843749999996 0.4409179687499858  3.5486718749999997 0.4409179687499858  3.515859375 0.43359375  C 3.469921875 0.4233398437499858  3.460078125 0.4013671875  3.486328125 0.3676757812499858  C 3.5109375 0.333984375  3.535546875 0.333984375  3.556875 0.36474609375  C 3.4846874999999997 0.3515625000000142  3.41578125 0.345703125  3.3501562500000004 0.34716796875  Z " fill-rule="nonzero" fill="#e9c7f8" stroke="none" transform="matrix(1 0 0 1 172 399 )" />
  </g>
</svg>