<?xml version="1.0" encoding="utf-8"?>
<svg version="1.1" xmlns:xlink="http://www.w3.org/1999/xlink" width="45px" height="7px" xmlns="http://www.w3.org/2000/svg">
  <g transform="matrix(1 0 0 1 -210 -394 )">
    <path d="M 19.925672743055554 1.8861490885416667  L 20.50021701388889 0.38053385416666663  C 22.89767795138889 0.4967447916666667  25.262586805555557 0.6129557291666667  27.594943576388886 0.7274576822916667  C 32.46148003472222 0.9667154947916666  37.12782118055556 1.3990885416666665  41.59233940972222 2.022867838541667  C 42.39637586805556 2.135660807291667  43.18250868055556 2.328776041666667  43.95236545138889 2.600504557291667  C 44.14930555555556 2.670572916666667  44.32996961805556 2.785074869791667  44.49110243055556 2.944010416666667  C 44.53016493055556 2.983317057291683  44.54969618055556 3.036295572916667  44.54644097222222 3.092692057291667  C 44.54318576388889 3.147379557291667  44.51714409722222 3.198649088541667  44.47482638888889 3.232828776041667  C 44.24696180555556 3.412272135416667  43.99956597222222 3.5455729166666665  43.73426649305556 3.6327311197916665  C 42.76746961805556 3.9471842447916665  41.81043836805556 4.174479166666666  40.86317274305556 4.314615885416666  C 37.86349826388889 4.762369791666666  34.84917534722221 5.119547526041684  31.82834201388889 5.363932291666666  C 26.107313368055554 5.825358072916666  20.38465711805557 6.16373697916665  14.657118055555557 6.37736002604165  C 10.578342013888905 6.531168619791666  6.427951388888904 6.65592447916665  2.205946180555556 6.753336588541666  C 1.593967013888889 6.767008463541666  0.9803602430555556 6.770426432291666  0.3667534722222222 6.765299479166666  L 2.204318576388889 6.714029947916666  C 2.258029513888905 6.712320963541666  2.308485243055556 6.69864908854165  2.355685763888889 6.673014322916666  C 2.570529513888889 6.556803385416666  2.7105034722222223 6.746500651041666  2.9155815972222223 6.623453776041666  C 2.966037326388889 6.592692057291684  2.990451388888905 6.551676432291666  2.9855685763888884 6.500406901041666  C 2.9839409722222223 6.483317057291666  2.9741753472222223 6.476481119791666  2.956271701388889 6.481608072916666  C 2.9399956597222223 6.48502604166665  2.9237196180555554 6.488444010416666  2.9074435763888733 6.491861979166666  C 2.8814019097222223 6.496988932291666  2.863498263888889 6.488444010416666  2.8537326388888884 6.46280924479165  C 2.8049045138888733 6.346598307291666  2.736545138888889 6.245768229166666  2.6502821180555554 6.162027994791666  C 2.6226128472222063 6.136393229166666  2.614474826388889 6.103922526041666  2.6226128472222063 6.064615885416666  L 2.679578993055556 5.835611979166666  C 2.6844618055555713 5.818522135416666  2.70399305555554 5.774088541666666  2.731662326388889 5.721110026041666  C 2.8732638888888893 5.445963541666666  3.0230034722222223 5.329752604166666  3.1792534722222223 5.369059244791666  C 3.2492404513888884 5.387858072916666  3.285047743055556 5.357096354166666  3.283420138888889 5.280192057291666  C 3.2817925347222223 5.264811197916666  3.2883029513888893 5.254557291666666  3.3013237847222223 5.247721354166684  C 3.340386284722222 5.228922526041666  3.3810763888888884 5.222086588541666  3.4233940972222223 5.225504557291684  C 3.581271701388889 5.237467447916666  3.7196180555555554 5.187906901041666  3.835177951388889 5.073404947916666  C 6.105685763888889 5.047770182291666  8.44455295138889 4.912760416666666  10.640190972222237 4.885416666666666  C 14.51877170138889 4.83927408854165  18.382703993055557 4.699137369791666  22.225477430555554 4.345377604166666  C 23.005099826388893 4.273600260416666  23.823784722222236 4.150553385416666  24.68478732638889 3.9762369791666665  C 25.135633680555554 3.8856608072916665  25.565321180555557 3.7301432291666834  25.975477430555554 3.5131022135416665  C 26.032443576388886 3.482340494791667  26.07150607638889 3.425944010416667  26.081271701388907 3.359293619791667  C 26.09103732638889 3.292643229166667  26.06987847222222 3.224283854166667  26.024305555555557 3.178141276041667  C 25.88921440972222 3.039713541666667  25.723198784722225 2.93888346354165  25.527886284722225 2.875651041666683  C 24.76616753472222 2.632975260416667  23.989800347222225 2.465494791666667  23.198784722222225 2.374918619791667  C 22.11642795138889 2.248453776041667  21.02593315972222 2.086100260416683  19.925672743055554 1.8861490885416667  Z " fill-rule="nonzero" fill="#eed4f9" stroke="none" transform="matrix(1 0 0 1 210 394 )" />
  </g>
</svg>