<?xml version="1.0" encoding="utf-8"?>
<svg version="1.1" xmlns:xlink="http://www.w3.org/1999/xlink" width="3px" height="4px" xmlns="http://www.w3.org/2000/svg">
  <g transform="matrix(1 0 0 1 -225 -391 )">
    <path d="M 1.03515625 0.5954241071428734  C 1.0849609375 0.5234375  1.18017578125 0.47823660714285715  1.3193359375 0.45982142857142855  C 1.77783203125 0.43136160714285715  2.3681640625 0.41629464285714285  2.64208984375 0.7544642857142857  C 2.67578125 0.7963169642857143  2.693359375 0.8448660714285552  2.69775390625 0.9001116071428571  C 2.75048828125 1.6183035714285714  2.6669921875 2.431919642857143  2.447265625 3.337611607142873  C 2.38134765625 3.6088169642857304  2.236328125 3.7260044642857144  2.012207031249986 3.690848214285698  C 1.46728515625 3.603794642857143  0.8916015625 3.489955357142857  0.28662109375 3.349330357142857  C 0.20751953125 3.3309151785714284  0.138671875 3.2723214285714124  0.10205078125 3.190290178571445  C 0.0654296875 3.1065848214285876  0.06396484375 3.009486607142857  0.09765625 2.92578125  L 1.03515625 0.5954241071428734  Z " fill-rule="nonzero" fill="#fd5e44" stroke="none" transform="matrix(1 0 0 1 225 391 )" />
  </g>
</svg>