<?xml version="1.0" encoding="utf-8"?>
<svg version="1.1" xmlns:xlink="http://www.w3.org/1999/xlink" width="74px" height="6px" xmlns="http://www.w3.org/2000/svg">
  <g transform="matrix(1 0 0 1 -162 -394 )">
    <path d="M 41.30713992011277 0.5818359375  C 41.758664238721806 0.5853515625000001  42.257460056390975 0.52734375  42.73343515037592 0.5080078125  C 42.389494243421055 1.08984375  42.342222744360896 1.624218750000017  42.58836054981203 2.1076171875000167  C 42.71713463345864 2.3589843750000004  42.917630991541365 2.5277343749999996  43.18658952067669 2.6121093749999833  C 43.879361489661655 2.8265624999999996  44.59495418233083 2.900390625  45.30402666823308 3.0181640625000004  C 45.718059797932334 3.0867187499999997  46.11416235902255 3.1253906249999996  46.49070429981203 3.1376953125  C 46.91614779135338 3.1500000000000004  47.338331179511265 3.1781249999999996  47.753994360902254 3.2220703124999996  C 48.150096921992485 3.2642578125000004  48.552719689849624 3.2853515625000003  48.95860256109023 3.2835937499999996  C 50.38163768796992 3.2800781249999997  51.772071781015036 3.1324218750000004  53.12664473684212 2.8423828125000004  C 53.59935972744361 2.7421875  54.12749647556391 2.5189453124999996  54.50403841635338 2.3396484375  C 54.74528606672932 2.2236328125  54.849609375 2.0126953125  54.815378289473664 1.705078125  C 54.78114720394737 1.3904296875000002  54.76810679041354 1.06875  54.77951715225564 0.743554687499983  C 56.83012218045113 0.7998046875  58.86931684680451 0.8455078125000001  60.898731203007515 0.8806640625000001  C 61.13834880169173 0.8859374999999999  61.32091459116541 0.9509765625000001  61.44642857142858 1.0775390625  C 61.436648261278194 1.058203125  61.41708764097743 1.086328125  61.38611665883459 1.1654296875  C 60.937852443609025 1.65234375  60.642813087406 2.0724609375  60.50262864191731 2.4222656249999996  C 59.897879464285715 3.9375  61.254082471804495 4.287304687500001  62.31687617481203 4.3154296875  C 63.26393620770677 4.341796875  64.30227913533835 4.269726562500001  65.43190495770675 4.102734375000001  C 66.22084997650376 3.9849609375000004  67.13367892387218 3.6703124999999996  67.50370065789474 2.9566406250000004  C 67.61943432800751 2.73515625  67.72049753289474 2.5962890625000004  67.80526022086467 2.5400390625  C 68.90717516447368 2.7457031250000172  69.99930979793233 2.9126953125000004  71.08329417293233 3.0427734374999997  C 71.87549929511279 3.1359375000000003  72.65303395206767 3.3082031250000004  73.415898143797 3.5578125000000167  C 73.61150434680451 3.6228515624999833  73.7777696193609 3.7265625  73.91306390977444 3.8689453124999997  C 73.95870535714286 3.9164062499999996  73.97989602913533 3.9867187499999996  73.97011571898499 4.0552734375  C 73.9603354088346 4.123828124999999  73.92121416823308 4.181835937500001  73.86416235902256 4.2134765625  C 73.45338933270676 4.436718750000017  73.02305568609023 4.5966796875  72.5715313674812 4.68984375  C 71.7092340225564 4.869140625  70.88931802161655 4.995703125  70.1085232612782 5.069531250000001  C 66.25997121710526 5.433398437499999  62.39022850093985 5.577539062499984  58.50581531954889 5.625  C 56.30687558740601 5.653124999999999  53.964491306390975 5.7919921875  51.69056919642858 5.818359375  C 50.86739309210527 5.8130859375  50.0523672462406 5.81484375  49.24386160714286 5.825390625000001  C 43.01054393796992 5.904492187500001  37.69983552631577 5.9466796875  33.31010632048872 5.9501953125  C 29.547947015977442 5.951953124999983  25.785787711466167 5.934374999999999  22.02199835526316 5.895703125000001  C 20.900522791353385 5.885156249999984  19.814908364661655 5.865820312500016  18.763525023496243 5.839453125  C 15.99080709586466 5.769140625  13.216459116541353 5.7216796875  10.437220982142856 5.698828125  C 7.675913416353383 5.547656249999999  4.906455592105263 5.4755859375  2.1549283364661656 5.139843750000017  C 1.5110579182330826 5.060742187500001  0.8965284304511278 4.849804687500001  0.31133987312030076 4.5087890625  C 0.24450775375939848 4.4701171875  0.20049635808270677 4.396289062499999  0.19397615131578158 4.3154296875  C 0.18093573778195488 4.171289062499984  0.2298372885338346 4.064062500000016  0.33905075187969924 3.995507812499983  C 0.6748414003759399 3.7828125000000004  1.0367128759398496 3.6351562499999996  1.4230351268796992 3.5490234375000003  C 2.495609140037594 3.3117187500000003  3.507871240601504 3.1394531249999833  4.458191376879699 3.0304687500000167  C 5.7068109727443685 2.8863281250000004  6.9570606203007515 2.752734375  8.208940319548873 2.6296875  C 8.205680216165414 2.7158203125  8.220350681390977 2.784375  8.251321663533835 2.8353515624999996  C 8.272512335526315 2.8687500000000004  8.301853265977444 2.8863281250000004  8.339344454887218 2.8880859374999996  C 9.266843867481203 2.9390625000000004  10.189453125000009 2.998828125  11.107172227443609 3.0708984375000004  C 11.89774729793233 3.1324218750000004  13.03389332706767 3.141210937500017  14.518870418233083 3.09375  C 15.306185385338345 3.0691406249999997  16.029928336466167 2.9408203124999828  16.69172932330827 2.70703125  C 17.019369713345863 2.5927734375  17.131843280075188 2.3958984374999996  17.027519971804512 2.119921875  C 17.123693021616543 2.0390625  17.164444313909776 1.9669921874999998  17.15140390037594 1.9037109374999999  L 17.216605968045112 1.8896484375  L 17.281808035714285 2.6296875  C 17.286698190789473 2.6912109375  17.31929922462406 2.7263671875  17.376351033834588 2.731640625  C 19.327522908834585 2.9408203124999828  21.277064732142858 3.0199218749999996  23.224976503759397 2.9724609375  C 24.000881109022558 2.953125  24.742554628759397 2.8037109375  25.46140742481203 2.5294921875  C 25.841209468984946 2.38359375  26.041705827067666 2.1111328125  26.062896499060148 1.712109375000017  C 26.06126644736842 1.3517578124999998  25.87055039943609 1.0107421875  25.492378406954884 0.6890624999999999  C 26.18189027255639 0.6275390624999999  26.845321311090224 0.5958984375  27.48267152255639 0.5906249999999829  C 32.09082765507519 0.5607421875  36.69898378759399 0.5572265624999999  41.30713992011277 0.5818359375  Z " fill-rule="nonzero" fill="#d39af6" stroke="none" transform="matrix(1 0 0 1 162 394 )" />
  </g>
</svg>