<?xml version="1.0" encoding="utf-8"?>
<svg version="1.1" xmlns:xlink="http://www.w3.org/1999/xlink" width="7px" height="3px" xmlns="http://www.w3.org/2000/svg">
  <g transform="matrix(1 0 0 1 -182 -393 )">
    <path d="M 1.1883138020833335 0.12646484375  C 1.3814290364583335 0.3154296875000142  1.5608723958333335 0.3623046875  1.7283528645833335 0.26416015625  L 2.502522786458333 0.81201171875  C 2.555501302083333 0.8486328125  2.623860677083333 0.8662109375  2.692220052083333 0.85888671875  C 2.760579427083333 0.8515625  2.820393880208333 0.82080078125  2.861409505208333 0.7739257812500142  C 3.100667317708333 0.494140625  3.334798177083333 0.18212890625  3.8030598958333335 0.201171875  C 4.144856770833334 0.21435546875  4.464436848958334 0.271484375  4.761800130208334 0.3696289062499858  C 5.347981770833334 0.5615234375  5.864095052083316 0.79736328125  6.310139973958334 1.07421875  C 6.706624348958334 1.34228515625  6.906575520833334 1.62646484375  6.908284505208334 1.9267578125000142  C 6.61433919270835 2.183105468750014  6.127278645833334 2.375  5.448811848958334 2.50537109375  C 4.884847005208334 2.61376953125  4.500325520833334 2.6708984375  4.295247395833334 2.676757812499986  C 2.868245442708333 2.71630859375  1.4463704427083335 2.697265625  0.029622395833333332 2.61669921875  C 0.20222981770833331 2.6298828125  0.35603841145833337 2.61962890625  0.4893391927083333 2.585937500000014  C 0.5388997395833333 2.57275390625  0.5576985677083333 2.544921875  0.5457356770833333 2.50244140625  C 0.4739583333333333 2.22119140625  0.5030110677083333 1.9296875  0.6328938802083333 1.62939453125  C 0.6944173177083333 1.490234375  0.7337239583333333 1.34521484375  0.7491048177083333 1.197265625  C 0.7832845052083333 0.9013671875000142  1.0088704427083335 0.6904296875  0.9114583333333334 0.376953125  C 0.8892415364583334 0.306640625  0.8994954427083334 0.23779296875  0.9388020833333334 0.1689453125000142  C 0.9644368489583334 0.12353515625  1.0071614583333335 0.09716796875  1.0635579427083335 0.08837890625  C 1.1097005208333335 0.08251953125  1.1575520833333335 0.09570312500001421  1.1883138020833335 0.12646484375  Z " fill-rule="nonzero" fill="#452477" stroke="none" transform="matrix(1 0 0 1 182 393 )" />
  </g>
</svg>