<?xml version="1.0" encoding="utf-8"?>
<svg version="1.1" xmlns:xlink="http://www.w3.org/1999/xlink" width="8px" height="3px" xmlns="http://www.w3.org/2000/svg">
  <g transform="matrix(1 0 0 1 -171 -393 )">
    <path d="M 1.7682291666666667 1.841796875  C 1.8604166666666666 1.53125  2.141666666666674 0.94677734375  2.613541666666667 0.0869140625  L 3.8197916666666667 1.0419921875  C 3.8744791666666667 1.0844726562500142  3.951041666666667 1.0859375  4.007291666666666 1.0463867187499858  C 4.216666666666667 0.8955078125  4.429166666666666 0.74462890625  4.644791666666666 0.59375  C 5.304166666666666 0.13525390625  6.796354166666666 0.95263671875  7.352604166666667 1.37451171875  C 7.610416666666667 1.5693359375  7.794791666666667 1.806640625  7.907291666666667 2.08642578125  C 7.919791666666667 2.13916015625  7.880729166666667 2.19921875  7.788541666666666 2.2666015625  C 7.730729166666666 2.240234375  7.669791666666667 2.254882812499986  7.602604166666667 2.312011718750014  C 7.563541666666667 2.345703125  7.519791666666666 2.369140625  7.471354166666667 2.385253906250014  C 6.949479166666666 2.547851562499986  6.511979166666666 2.64892578125  6.158854166666667 2.68994140625  C 5.271354166666667 2.79248046875  4.243229166666667 2.8291015625  3.074479166666667 2.79833984375  C 2.779166666666667 2.791015625  2.4838541666666742 2.769042968750014  2.190104166666659 2.732421875000014  C 1.4885416666666667 2.64453125  0.8104166666666667 2.65478515625  0.11666666666666667 2.57568359375  L 1.4901041666666666 2.530273437499986  C 1.5416666666666667 2.52880859375  1.574479166666659 2.50390625  1.5885416666666667 2.45556640625  C 1.6494791666666666 2.25048828125  1.7088541666666666 2.04541015625  1.7682291666666667 1.841796875  Z " fill-rule="nonzero" fill="#452477" stroke="none" transform="matrix(1 0 0 1 171 393 )" />
  </g>
</svg>