<?xml version="1.0" encoding="utf-8"?>
<svg version="1.1" xmlns:xlink="http://www.w3.org/1999/xlink" width="13px" height="4px" xmlns="http://www.w3.org/2000/svg">
  <g transform="matrix(1 0 0 1 -204 -393 )">
    <path d="M 0.45482336956520136 1.42333984375  C 1.1917034646739129 0.96337890625  2.0461531929347823 0.62646484375  3.0148607336956523 0.4111328124999858  C 3.011548913043478 0.4814453125  3.057914402173913 0.5517578125  3.1539572010869565 0.62353515625  C 4.129288383152174 1.3457031249999858  5.281801970108695 1.97705078125  5.399371603260869 3.2119140625  C 5.40268342391306 3.25439453125  5.437457540760869 3.291015625  5.485478940217407 3.2998046875  C 5.611328125 3.324707031250014  5.738833220108695 3.33642578125  5.866338315217392 3.33642578125  C 7.358313519021738 3.340820312499986  8.53235394021739 3.279296875  9.385147758152174 3.15185546875  C 10.396908967391303 3.0009765625  11.347401494565217 2.79443359375  12.233313519021754 2.53369140625  C 12.458517323369565 2.4677734375  12.615828804347826 2.28759765625  12.632387907608697 2.078124999999986  L 12.673785665760871 1.55517578125  C 12.678753396739129 1.5888671875  12.68372112771739 1.61083984375  12.692000679347826 1.6196289062499858  C 12.680409307065217 1.890625  12.693656589673912 2.15869140625  12.728430706521722 2.4208984375  C 12.763204823369565 2.67724609375  12.6572265625 2.85302734375  12.412151834239129 2.94970703125  C 12.029636548913043 3.09912109375  11.493121603260871 3.28515625  11.012907608695668 3.36865234375  C 9.63684612771739 3.6103515625  8.224354619565217 3.7333984375  6.778744904891304 3.736328125  C 6.366423233695651 3.73779296875  5.957413383152174 3.72021484375  5.555027173913044 3.68505859375  C 5.132770040760853 3.6484375  4.703889266304349 3.625  4.271696671195651 3.61474609375  C 3.889181385869565 3.6044921875  3.486795176630435 3.572265625  3.0661939538043477 3.51513671875  C 2.345872961956522 3.4169921875  1.618928328804348 3.35546875  0.9151664402173912 3.176757812499986  C 0.6419412364130596 3.1064453125  0.4382642663043478 2.9658203125  0.3074473505434782 2.756347656250014  C 0.057404891304347824 2.353515625000014  0.10542629076086957 1.908203125  0.45482336956520136 1.42333984375  Z " fill-rule="nonzero" fill="#c13ba8" stroke="none" transform="matrix(1 0 0 1 204 393 )" />
  </g>
</svg>