<?xml version="1.0" encoding="utf-8"?>
<svg version="1.1" xmlns:xlink="http://www.w3.org/1999/xlink" width="64px" height="50px" xmlns="http://www.w3.org/2000/svg">
  <g transform="matrix(1 0 0 1 -255 -313 )">
    <path d="M 63.07139303482588 43.91174316406247  C 64.37288557213931 40.96374511718747  63.349875621890554 37.18542480468748  62.26243781094527 34.534912109375  C 60.979975124378115 31.409423828125004  58.914054726368164 28.1815185546875  56.73619402985075 25.9002685546875  C 54.53582089552239 23.595703125000004  52.15534825870647 22.4105224609375  49.66069651741293 22.377685546874996  C 49.625623231799516 22.377300079609093  49.59054811461971 22.377096626244185  49.55547263681592 22.3770751953125  C 48.740547263681584 22.3770751953125  47.98731343283581 22.5029296875  47 22.6961669921875  L 47 9.26953125  L 52.79651741293532 9.26953125  C 54.16927860696517 9.26953125  55.28594527363183 8.173583984375  55.28594527363183 6.8262939453125  C 55.28594527363183 5.760253906249999  54.58557213930348 4.853881835937499  53.61355721393034 4.520996093749998  C 52.74490049751243 1.9501953124999982  50.25186567164178 0.14514160156249845  47.44589552238805 1  L 10.143905472636815 1  C 7.338308457711443 0.14514160156249845  4.845398009950249 1.950439453124998  3.976492537313433 4.521118164062498  C 3.0046019900497516 4.854125976562497  2.3042288557213935 5.7603759765625  2.3042288557213935 6.8262939453125  C 2.3042288557213935 8.1734619140625  3.421019900497513 9.26953125  4.793781094527364 9.26953125  L 11 9.26953125  L 11 26.265624999999996  L 7.898134328358208 26.265624999999996  C 4.791666666666667 26.265624999999996  2.0996268656716417 28.035400390625  0.810572139303482 30.60107421875  C 0.8018656716417906 30.6165771484375  0.7916666666666661 30.6309814453125  0.7837064676616908 30.6470947265625  C 0.6754274982297984 30.86883172601266  0.5779298045219127 31.095486333703786  0.4915422885572133 31.326293945312507  C 0.4869402985074621 31.338256835937507  0.4819651741293527 31.350097656250004  0.47761194029850684 31.362182617187496  C 0.4405656395037337 31.462492567203142  0.4056492982236995 31.563547952649945  0.37288557213930296 31.665283203125007  C 0.36455223880596954 31.69067382812501  0.35597014925373077 31.715942382812507  0.3480099502487557 31.741699218750007  C 0.307909511125443 31.86996445550291  0.27124679962580844 31.999240755945525  0.23805970149253675 32.12939453125001  C 0.21386215854080437 32.223895675089075  0.19151145754565585 32.31884310803201  0.17101990049751184 32.4141845703125  C 0.1628109452736312 32.45251464843751  0.15534825870646707 32.4910888671875  0.1476368159203974 32.52966308593751  C 0.12985074626865611 32.61999511718751  0.11256218905472577 32.71057128906251  0.09800995024875561 32.80175781250001  C 0.09004975124378048 32.8507080078125  0.08383084577114369 32.900146484375  0.07699004975124317 32.949462890625  C 0.0654228855721387 33.0318603515625  0.053606965174128746 33.1142578125  0.04477611940298446 33.19726562499999  C 0.03731343283582029 33.2667236328125  0.03258706467661631 33.3367919921875  0.026990049751243174 33.40673828125  C 0.021890547263680983 33.47167968749999  0.015298507462685958 33.536376953125  0.011815920398009345 33.60168457031249  C 0.003995758451761045 33.73997968562789  5.562630378482246E-05 33.87845985848206  0 34.01696777343751  L 0 40.029052734375  C 0 43.68762207031251  2.579228855721393 46.8148193359375  6.183208955223881 47.5950927734375  C 7.483582089552239 48.983154296875  9.347761194029852 49.85485839843749  11.416044776119403 49.85485839843749  C 13.390671641791045 49.85485839843749  15.179228855721394 49.06030273437499  16.468905472636816 47  L 36.98445273631841 47  C 37.54042288557214 47.78039550781249  37.99092039800995 47.33813476562499  37.99092039800995 46.7926025390625  C 37.99092039800995 46.2470703125  37.54042288557214 45.80480957031251  36.98445273631841 45.80480957031251  L 35.212189054726366 45.80480957031251  L 35.212189054726366 37.94091796875  L 45.004477611940295 26.172241210937496  C 45.255721393034825 25.941162109375004  47.12512437810946 24.3133544921875  49.65597014925373 24.353271484375  C 51.5747512437811 24.385986328125  53.46256218905474 25.360717773437504  55.26728855721393 27.2510986328125  C 57.28383084577115 29.363159179687496  59.20087064676617 32.36206054687499  60.3950248756219 35.272705078125  C 61.7294776119403 38.52526855468749  62.024004975124384 41.31445312500001  61.223880597014926 43.1263427734375  C 60.620895522388054 44.49182128906249  59.352487562189054 45.340087890625  57.44191542288558 45.659912109375  C 57.44415422885572 45.6549072265625  57.44589552238806 45.64978027343749  57.44825870646766 45.644775390625  C 57.49228855721393 45.5452880859375  57.5337064676617 45.444580078125  57.57300995024875 45.34277343749999  C 57.575 45.33740234375  57.577487562189056 45.33215332031249  57.57947761194029 45.32666015625  C 57.87999081725413 44.543368767405575  58.03370769892128 43.713199291515814  58.033208955223884 42.87622070312499  C 58.033208955223884 39.02819824218749  54.843532338308464 35.8974609375  50.922885572139315 35.8974609375  C 47.002238805970165 35.8974609375  43.81256218905473 39.02807617187499  43.81256218905473 42.87622070312499  C 43.81256218905473 43.00146484374999  43.816293532338314 43.1258544921875  43.82300995024876 43.24938964843749  C 43.82437810945275 43.2734375  43.826990049751245 43.29736328124999  43.82860696517413 43.32141113281249  C 43.83519900497513 43.42260742187499  43.8429104477612 43.52343749999999  43.85385572139303 43.62341308593749  C 43.85621890547264 43.64599609374999  43.85995024875622 43.66821289062499  43.86256218905473 43.69055175781249  C 43.8747512437811 43.792724609374986  43.8884328358209 43.894287109374986  43.905099502487566 43.99523925781249  C 43.908457711442786 44.015258789062486  43.91243781094528 44.03515624999999  43.91592039800995 44.055175781249986  C 43.9339552238806 44.158447265624986  43.95385572139303 44.261230468749986  43.97649253731344 44.36279296874998  C 43.98059701492537 44.381347656249986  43.985323383084584 44.399780273437486  43.98967661691543 44.418334960937486  C 44.0134328358209 44.520996093749986  44.039054726368164 44.622802734374986  44.06741293532339 44.723510742187486  C 44.07276119402985 44.74243164062498  44.07848258706468 44.761352539062486  44.083830845771146 44.78015136718748  C 44.14633821591243 44.99648662141838  44.21964393594207 45.209675234610955  44.303482587064686 45.418945312499986  C 44.312935323383094 45.442504882812486  44.32213930348259 45.465942382812486  44.331840796019904 45.489379882812486  C 44.3681592039801 45.57751464843748  44.406716417910445 45.664672851562486  44.44664179104478 45.75097656249998  C 44.45485074626866 45.768798828124986  44.461815920398024 45.786987304687486  44.470273631840804 45.80468749999998  L 40.29465174129354 45.80468749999998  C 39.7386815920398 45.80468749999998  39.288184079602 46.24694824218748  39.288184079602 46.79248046874997  C 39.288184079602 47.33801269531248  39.73868159203981 47.78027343749998  40.29465174129354 47.78027343749998  L 45.87039800995025 47.78027343749998  C 47.16007462686568 49.06005859374997  48.94875621890547 49.85473632812497  50.923258706467664 49.85473632812497  C 52.90087064676617 49.85473632812497  54.691791044776124 49.05761718749997  55.98196517412935 47.77416992187497  C 60.47251243781095 47.64965820312498  62.31641791044776 45.62170410156248  63.07139303482588 43.91174316406247  Z M 2.013059701492537 34.235839843749986  L 2.0130597014925375 34.016845703125  C 2.0130597014925375 33.9229736328125  2.0157960199004976 33.8294677734375  2.020273631840796 33.73645019531249  C 2.021393034825871 33.71472167968749  2.023258706467662 33.69311523437499  2.0243781094527367 33.67138671874999  C 2.0288557213930356 33.597290039062486  2.0343283582089553 33.523315429687486  2.0415422885572148 33.44982910156249  C 2.043407960199006 33.43115234374999  2.045522388059702 33.41259765624999  2.0476368159203986 33.39379882812499  C 2.0562858522385405 33.31359694013758  2.06665298807304 33.23358249484117  2.0787313432835828 33.15380859374999  L 2.083084577114429 33.125732421875  C 2.1404785290785098 32.76410097236232  2.2331089603996097 32.40871142985586  2.359701492537314 32.064453124999986  L 5.16044776119403 32.064453124999986  C 5.584786361542244 32.064991275832895  5.928624810439032 32.40250451471686  5.92910447761194 32.818969726562486  L 5.929104477611939 33.481567382812486  C 5.928624546003296 33.89799295002643  5.58474612268368 34.235436205358084  5.16044776119403 34.235839843749986  L 2.013059701492537 34.235839843749986  Z M 16.513308457711446 42.87646484374999  C 16.513308457711446 42.95678710937499  16.510945273631844 43.03662109375  16.50721393034826 43.1160888671875  C 16.505597014925375 43.14978027343751  16.502611940298507 43.1832275390625  16.500248756218905 43.216796875  C 16.497139303482587 43.2613525390625  16.494029850746266 43.305908203125  16.48992537313433 43.3502197265625  C 16.48582089552239 43.39318847656249  16.48047263681592 43.435791015625  16.475124378109452 43.47863769531251  C 16.471019900497517 43.511962890625  16.466915422885574 43.54528808593751  16.46206467661692 43.578369140625  C 16.454976505285806 43.627025843783315  16.447139790251654 43.67557467728675  16.438557213930352 43.7239990234375  C 16.42491916786967 43.80299815224601  16.409200807382682 43.881637746117555  16.391417910447768 43.9598388671875  C 16.387189054726374 43.978759765625  16.38258706467662 43.9976806640625  16.37798507462687 44.0166015625  C 16.364303482587065 44.07421875  16.349751243781096 44.1314697265625  16.33407960199005 44.18847656249999  L 16.323756218905476 44.22399902343749  C 16.30611404773331 44.286577254996864  16.287204832065218 44.34880474204091  16.26703980099503 44.41064453125  C 16.266666666666673 44.412109375  16.266044776119408 44.4134521484375  16.265547263681594 44.4149169921875  C 16.179639881272188 44.67412564175516  16.07231838540488 44.92601990715638  15.944651741293535 45.16809082031251  C 15.932587064676618 45.1910400390625  15.921144278606969 45.2142333984375  15.908706467661695 45.23681640625  C 15.889676616915425 45.27172851562501  15.869402985074629 45.3057861328125  15.849378109452738 45.34033203125  C 15.829104477611944 45.37524414062501  15.809079601990051 45.41040039062501  15.78818407960199 45.44482421875  C 15.771517412935324 45.47204589843751  15.754104477611941 45.49877929687501  15.736940298507463 45.52587890625001  C 15.71082089552239 45.56689453125  15.68445273631841 45.6077880859375  15.657089552238807 45.64794921875001  C 15.642288557213933 45.66979980468749  15.626865671641793 45.6912841796875  15.61169154228856 45.712890625  C 15.580472636815921 45.75732421875  15.548756218905474 45.8013916015625  15.516169154228859 45.8447265625  C 15.502611940298511 45.86279296875001  15.488681592039804 45.8804931640625  15.475 45.8984375  C 15.427189004757711 45.9602212772506  15.377921981975248 46.020906594471874  15.32723880597015 46.0804443359375  C 14.391542288557215 47.17883300781249  12.985820895522389 47.87927246093749  11.415920398009952 47.87927246093749  C 9.484825870646768 47.87927246093749  7.800995024875623 46.8197021484375  6.936318407960201 45.26171875  L 6.930970149253733 45.25170898437499  C 6.863179200701859 45.128292519287974  6.800727245399965 45.00212224162439  6.743781094527364 44.87353515624999  C 6.729601990049753 44.8414306640625  6.715298507462687 44.80908203125  6.701741293532339 44.77673339843749  C 6.6881840796019905 44.7445068359375  6.675497512437811 44.71191406249999  6.662562189054727 44.67932128906249  C 6.646144278606966 44.63781738281249  6.629850746268658 44.596435546875  6.614676616915424 44.5545654296875  C 6.607711442786071 44.53527832031249  6.6013681592039815 44.51586914062499  6.594651741293533 44.4964599609375  C 6.532523627562055 44.31853827473059  6.480576936517739 44.13734747477296  6.43905472636816 43.95373535156249  L 6.433208955223882 43.92858886718749  C 6.42198240595407 43.87685278505011  6.411698840245161 43.824923920564736  6.402363184079604 43.772827148437486  C 6.3977611940298535 43.74816894531249  6.393159203980102 43.72351074218749  6.388805970149256 43.698852539062486  C 6.375352646555444 43.619640537690685  6.363947655822341 43.540106522591444  6.354601990049753 43.46032714843748  C 6.349763853209325 43.42033616602707  6.345368900235545 43.38029473679255  6.341417910447763 43.3402099609375  C 6.337431352331571 43.29553071810177  6.3339485521460075 43.250809557027615  6.330970149253733 43.20605468749999  C 6.328855721393036 43.17456054687499  6.3262437810945285 43.14306640625  6.324751243781096 43.11157226562499  C 6.320846034862965 43.03330142781352  6.318813965711331 42.95495138431703  6.318656716417912 42.87658691406249  C 6.318656716417912 40.11779785156249  8.605348258706469 37.87341308593749  11.415920398009952 37.87341308593749  C 14.22661691542289 37.87341308593749  16.513308457711446 40.1177978515625  16.513308457711446 42.87646484374999  Z M 24.8157960199005 29.963989257812486  L 25 29.963989257812496  L 25 45.80517578124999  L 17.869029850746273 45.80517578124999  C 17.878233830845776 45.785522460937486  17.885945273631844 45.76550292968749  17.89490049751244 45.74597167968749  C 17.933582089552242 45.66223144531249  17.97077114427861 45.577880859374986  18.00609452736319 45.49243164062499  C 18.016666666666673 45.46691894531249  18.026865671641797 45.441162109374986  18.037064676616925 45.41552734374999  C 18.082095685405474 45.30266539925727  18.12419059393819 45.18869615605851  18.163308457711445 45.073730468749986  C 18.19577114427861 44.977783203124986  18.226119402985077 44.88098144531249  18.254477611940302 44.783325195312486  C 18.26032338308458 44.762939453124986  18.26654228855722 44.742553710937486  18.27226368159204 44.721923828124986  C 18.299996997962168 44.622264808273265  18.32550063884986 44.52202099341696  18.34875621890548 44.421264648437486  C 18.35335820895523 44.401489257812486  18.358333333333334 44.381713867187486  18.362686567164182 44.36181640624998  C 18.385074626865674 44.261108398437486  18.404726368159206 44.15954589843748  18.422512437810948 44.05712890624998  C 18.426119402985076 44.03637695312498  18.43047263681592 44.015747070312486  18.433955223880602 43.99499511718748  C 18.450347575981855 43.894568733817465  18.464447293546613 43.79379479311839  18.47624378109453 43.692749023437486  C 18.479104477611944 43.66955566406248  18.482711442786073 43.64648437499998  18.48519900497513 43.623291015624986  C 18.495713739101255 43.52353997794296  18.50409038286787 43.42358299370208  18.510323383084582 43.323486328124986  C 18.51194029850747 43.298706054687486  18.51480099502488 43.27416992187498  18.516044776119408 43.249511718749986  C 18.522761194029854 43.12597656249998  18.526368159203983 43.00158691406247  18.526368159203983 42.876464843749986  C 18.526368159203983 39.02844238281248  15.33669154228856 35.89770507812497  11.416044776119405 35.89770507812497  C 7.495398009950251 35.89770507812497  4.305845771144282 39.02832031249998  4.305845771144282 42.876464843749986  C 4.3062330213700974 43.014015036070816  4.310712542163489 43.15152480482695  4.319278606965177 43.28881835937498  C 4.323880597014928 43.36437988281248  4.329726368159207 43.439941406249986  4.3368159203980134 43.51525878906248  C 4.340174129353237 43.55065917968749  4.3430348258706495 43.586425781249986  4.346766169154232 43.621704101562486  C 4.366773871681253 43.80241651448914  4.394033851237855 43.98228441300694  4.4284825870646785 44.16088867187498  C 4.4666713478827 44.36132059867076  4.513856580840168 44.56000031897911  4.56990049751244 44.75634765624997  C 4.5747512437810975 44.773071289062486  4.578855721393038 44.79003906249998  4.583706467661693 44.80676269531248  C 2.9723200459062875 43.73137992730206  2.009281462157171 41.941644000724445  2.0129353233830862 40.029174804687486  L 2.0129353233830862 36.21191406249998  L 5.16044776119403 36.21191406249998  C 6.694278606965175 36.21191406249998  7.942164179104478 34.98730468749998  7.942164179104478 33.481933593749986  L 7.942164179104478 32.819335937499986  C 7.942164179104478 31.313842773437482  6.694402985074628 30.089111328124986  5.160447761194031 30.089111328124986  L 3.5889303482587063 30.089111328124986  C 4.664303482587065 28.95361328124998  6.197636815920397 28.241455078124982  7.89813432835821 28  L 24.047014925373134 28  C 24.471381978952063 28.241858716656854  24.815316088144414 28.579356624620587  24.8157960199005 28.995849609374986  L 24.8157960199005 29.963989257812486  Z M 14 26.265624999999996  L 13 26.265624999999993  L 13 9.26953125  L 14 9.26953125  L 14 26.265624999999996  Z M 20 26.265624999999993  L 18 26.265624999999993  L 18 14.960449218749993  C 18.051916484032738 14.543984088525427  18.39581057021899 14.20652545459841  18.82014925373135 14.206054687499995  L 18.918781094527372 14.206054687499995  C 19.343099576255764 14.206525589767788  19.68695800604755 14.544003833850544  20 14.960449218749993  L 20 26.265624999999993  Z M 33.199129353233836 38.695068359375  L 33.199129353233836 45.80493164062499  L 26.82898009950249 45.80493164062499  L 26.82898009950249 38.695068359375  L 33.199129353233836 38.695068359375  Z M 26.82898009950249 34.53295898437499  L 29.451368159203987 34.53295898437499  L 29.451368159203987 36.719482421874986  L 26.82898009950249 36.719482421874986  L 26.82898009950249 34.53295898437499  Z M 26.82898009950249 32.55737304687499  L 26.82898009950249 30.951538085937493  L 30.404850746268657 30.951538085937493  C 30.829149035648836 30.952009112565115  31.17297181521064 31.28950697920204  31.17338308457712 31.705932617187493  L 31.173383084577125 31.8028564453125  C 31.172903417594302 32.219254239642275  30.829120654527603 32.55671282592162  30.40485074626866 32.55725097656249  L 26.82898009950249 32.55725097656249  Z M 42 26.263916015625  L 42.3292288557214 26.263916015624993  L 41.323134328358215 27.473144531249993  L 34.95970149253733 21.289794921874993  L 37.784950248756225 18.45861816406249  C 37.9634830804003 18.2748576609699  38.0630814807003 18.0306939750136  38.0630814807003 17.776784454218966  C 38.0630814807003 17.231106626444255  37.61235918780608 16.78874734484397  37.05636506278985 16.78874734484397  C 36.790410713210186 16.78874734484397  36.53526165782485 16.89203401185535  36.34664179104478 17.076049804687493  L 29.295024875621895 24.14221191406249  C 29.11674442049759 24.325910820585868  29.01730234824217 24.569881825435953  29.01730234824217 24.82357587337646  C 29.01730234824217 25.36918628357917  29.46796895516 25.811490912438963  30.023894388043164 25.811490912438963  C 30.289598398366792 25.811490912438963  30.54452546098033 25.708385396917592  30.733084577114433 25.524658203124993  L 33.55087064676617 22.701049804687493  L 40.04378109452736 29.010131835937493  L 33.629228855721394 36.71923828124999  L 31.464179104477612 36.71923828124999  L 31.464179104477612 34.3258056640625  C 32.473631840796024 33.91589355468749  33.186194029850746 32.93981933593749  33.186194029850746 31.802734374999996  L 33.186194029850746 31.705810546874996  C 33.186194029850746 30.200439453124993  31.93830845771144 28.975708007812496  30.404601990049752 28.975708007812496  L 26.82773631840796 28.975708007812496  C 26.816666666666666 27.4796142578125  25.574004975124375 26.265502929687496  24.04689054726368 26.265502929687496  L 22 26.265502929687496  L 22 14.960327148437496  C 21.700373134328355 13.454956054687498  20.45248756218906 12.230224609374996  18.91865671641791 12.230224609374996  L 18.82002487562189 12.230224609374996  C 17.28606965174129 12.230224609374996  16.03818407960199 13.454833984374998  16 14.960327148437496  L 16 26.265502929687496  L 16 10  L 42 10  L 42 26.263916015625  Z M 45 9.26953125  L 45 23.540649414062493  C 44.96562829458056 23.726038774289613  44.64747306057901 23.930035781874285  44 24.151611328124993  L 44 9.26953125  L 45 9.26953125  Z M 52.796766169154225 7.293823242187491  L 43.335696517412934 8  L 4.793781094527364 8  C 4.530783695831405 7.2935542382252265  4.317631305577569 7.084411430439657  4.317288557213931 6.826293945312492  C 4.317562890839509 6.568148596391694  4.530755323121075 6.35896649980388  4.793781094527364 7  L 39.93582089552239 7  C 39.93582086724277 6.358764648437494  39.93582088138257 6.358764648437494  39.935820853102946 6.358764648437494  C 40.49167759385304 6.358764648437494  40.94228851479449 5.916514672318203  40.94228851479449 5.370971679687493  C 40.94228851479449 4.825428687056781  40.49167759385304 4.383178710937492  39.935820853102946 4.383178710937492  C 39.93582088138257 4.383178710937492  39.93582086724277 4.383178710937492  39.93582089552238 5  L 6.22773631840796 5  C 7.00547263681592 3.0222167968749925  8.496517412935324 2.120849609374993  10.143905472636815 3  L 47.44614427860697 3  C 49.09378109452737 2.120849609374993  50.58507462686568 3.022094726562492  51.362686567164175 4.383178710937492  L 43.37997512437812 4.383178710937492  C 42.82406268996447 4.383178703392974  42.373507454999434 4.825374026771765  42.373507454999434 5.370849601830474  C 42.373507454999434 5.9165693326032205  42.82406268996447 6.358764655982012  43.37985073858151 6.358764655982012  L 52.78644278606966 6.358764648437494  L 52.80062189054727 6.359130859374992  C 53.062003597638224 6.361339908173753  53.272802955349185 6.5697527891512815  53.27313432835821 6.826293945312492  C 53.272791723586884 7.084363839338223  53.05971499649985 7.293486994340633  52.796766169154225 7.293823242187491  Z M 56.019776119403 42.876464843749986  C 56.01993058154622 42.95629277053007  56.018022837582215 43.03611171038601  56.014054726368165 43.1158447265625  C 56.01243781094528 43.1495361328125  56.009452736318416 43.18310546875  56.00708955223882 43.2166748046875  C 56.0039800995025 43.26123046875  56.000995024875635 43.3055419921875  55.99676616915424 43.349853515625  C 55.992661691542295 43.3929443359375  55.98718905472637 43.4356689453125  55.98196517412935 43.478515625  C 55.96924776429965 43.58630352570883  55.952486802094626 43.69359477601651  55.93171641791046 43.80017089843749  C 55.92151741293532 43.85363769531249  55.91057213930348 43.9068603515625  55.89838308457712 43.9599609375  C 55.89427860696518 43.97863769531251  55.88967661691542 43.9971923828125  55.88519900497513 44.015869140625  C 55.87139303482588 44.07373046875001  55.85684079601991 44.13134765625  55.84104477611941 44.1885986328125  L 55.83109452736318 44.22265625  C 55.81324487576072 44.28580481257324  55.79412839155564 44.348601846034946  55.77375621890548 44.41101074218751  C 55.68694429950581 44.67353182886229  55.57836706694487 44.928220563820474  55.44900497512439 45.17285156250001  C 55.437935323383094 45.19360351562501  55.42748756218906 45.21496582031251  55.41629353233832 45.2357177734375  C 55.39639303482588 45.27197265625  55.37537313432837 45.3076171875  55.354601990049765 45.343505859375  C 55.33519900497513 45.376953125  55.31604477611942 45.4105224609375  55.29589552238807 45.443603515625  C 55.27860696517415 45.4720458984375  55.26019900497514 45.50012207031251  55.24216417910449 45.5283203125  C 55.21679104477613 45.5679931640625  55.19129353233832 45.60766601562499  55.164925373134345 45.6466064453125  C 55.149378109452755 45.6695556640625  55.133084577114445 45.692138671875  55.1171641791045 45.7149658203125  C 55.086873161289056 45.758230071680664  55.055857336900665 45.80100118473912  55.02412935323384 45.84326171874999  C 55.00982587064678 45.8623046875  54.99514925373136 45.88122558593749  54.98047263681593 45.90014648437501  C 54.93257876306506 45.96189954030062  54.88327101935324 46.02258393493348  54.83258706467663 46.0821533203125  C 53.896641791044786 47.17993164062499  52.49141791044778 47.879638671875  50.92251243781096 47.879638671875  C 49.35360696517413 47.879638671875  47.94850746268657 47.1798095703125  47.012686567164195 46.0821533203125  C 46.99863184079603 46.06555175781249  46.984452736318424 46.04895019531251  46.970646766169175 46.032348632812514  C 46.88554099377465 45.92986966478188  46.80467126470396 45.82407119145307  46.72823383084578 45.71520996093749  C 46.71218905472637 45.6923828125  46.69589552238807 45.669677734375  46.68034825870647 45.6466064453125  C 46.65417706995101 45.607688367074395  46.62855275383749 45.56841869933509  46.60348258706468 45.52880859375  C 46.585323383084585 45.50048828124999  46.566915422885586 45.47229003906249  46.549502487562194 45.443603515625  C 46.5294776119403 45.410888671875  46.51057213930349 45.37744140625001  46.49129353233831 45.34423828125  C 46.47039800995025 45.30810546874999  46.449129353233836 45.2723388671875  46.42910447761194 45.2357177734375  C 46.4179104477612 45.21545410156249  46.40771144278607 45.19458007812499  46.39689054726368 45.174072265625  C 46.23645240769187 44.870508877327985  46.10820894316245 44.551574462084695  46.01417910447761 44.22229003906249  C 46.01094527363185 44.211181640625  46.00758706467661 44.20019531249999  46.0044776119403 44.188964843749986  C 45.98855721393035 44.13159179687499  45.97400497512439 44.07360839843749  45.96019900497513 44.01562499999998  C 45.936832596160514 43.9192979656786  45.91671383695076 43.82223986007735  45.89987562189056 43.72460937499999  C 45.891241958763224 43.675901684255244  45.88336376702246 43.62706790938183  45.87624378109453 43.57812499999999  C 45.871517412935326 43.545166015624986  45.86741293532339 43.511962890624986  45.86330845771144 43.47875976562497  C 45.85781539963492 43.435936161956676  45.852881330086866 43.3930452755812  45.84850746268657 43.350097656249986  C 45.844154228855714 43.306030273437486  45.84129353233831 43.261474609374986  45.838184079601994 43.216918945312486  C 45.835945273631836 43.183349609374986  45.83296019900498 43.149780273437486  45.83121890547263 43.116088867187486  C 45.827208535705154 43.03627395206108  45.82513497966056 42.9563766382308  45.825 42.876464843749986  C 45.825 40.11779785156248  48.111691542288554 37.87341308593747  50.92238805970149 37.87341308593747  C 53.73308457711443 37.87341308593747  56.019776119402984 40.11779785156248  56.019776119403 42.876464843749986  Z " fill-rule="nonzero" fill="#7f7f7f" stroke="none" transform="matrix(1 0 0 1 255 313 )" />
  </g>
</svg>