<?xml version="1.0" encoding="utf-8"?>
<svg version="1.1" xmlns:xlink="http://www.w3.org/1999/xlink" width="14px" height="14px" xmlns="http://www.w3.org/2000/svg">
  <g transform="matrix(1 0 0 1 -128 -273 )">
    <path d="M 13.985312500000001 6.984463778409091  C 13.985312500000001 3.1532315340909087  10.861875 0.04598721590909063  7.007187499999999 0.04598721590909105  C 3.1540624999999993 0.04598721590909105  0.02906249999999929 3.1532315340909087  0.02906249999999929 6.984463778409091  C 0.02906249999999929 10.815696022727273  3.152499999999999 13.922940340909092  7.007187499999999 13.922940340909092  C 10.861875 13.922940340909092  13.985312500000001 10.817249644886363  13.985312500000001 6.984463778409091  Z M 9.5446875 6.986017400568182  C 9.5446875 7.374422940340909  9.227500000000001 7.688254616477272  8.836875000000001 7.688254616477272  L 6.890000000000001 7.688254616477272  C 6.499375 7.688254616477272  6.1821874999999995 7.372869318181818  6.1821874999999995 6.98446377840909  L 6.1821874999999995 3.307040127840909  C 6.1821874999999995 2.9186345880681817  6.499375 2.603249289772727  6.890000000000001 2.603249289772727  C 7.280624999999999 2.603249289772727  7.597812499999998 2.9186345880681817  7.597812499999998 3.307040127840909  L 7.597812499999998 6.2822265625  L 8.836875000000001 6.2822265625  C 9.227500000000001 6.2822265625  9.5446875 6.597611860795454  9.5446875 6.986017400568182  Z " fill-rule="nonzero" fill="#555555" stroke="none" transform="matrix(1 0 0 1 128 273 )" />
  </g>
</svg>