<?xml version="1.0" encoding="utf-8"?>
<svg version="1.1" xmlns:xlink="http://www.w3.org/1999/xlink" width="80px" height="80px" xmlns="http://www.w3.org/2000/svg">
  <defs>
    <linearGradient gradientUnits="userSpaceOnUse" x1="1925" y1="761" x2="1925" y2="840.2" id="LinearGradient262">
      <stop id="Stop263" stop-color="#00bfbf" offset="0" />
      <stop id="Stop264" stop-color="#95f204" offset="1" />
    </linearGradient>
  </defs>
  <g transform="matrix(1 0 0 1 -1885 -761 )">
    <path d="M 1925 766  C 1944.6 766  1960 781.4  1960 801  C 1960 820.6  1944.6 836  1925 836  C 1905.4 836  1890 820.6  1890 801  C 1890 781.4  1905.4 766  1925 766  Z " fill-rule="nonzero" fill="#ffffff" stroke="none" />
    <path d="M 1925 764  C 1945.72 764  1962 780.28  1962 801  C 1962 821.72  1945.72 838  1925 838  C 1904.28 838  1888 821.72  1888 801  C 1888 780.28  1904.28 764  1925 764  Z " stroke-width="6" stroke="url(#LinearGradient262)" fill="none" />
  </g>
</svg>