<?xml version="1.0" encoding="utf-8"?>
<svg version="1.1" xmlns:xlink="http://www.w3.org/1999/xlink" width="19px" height="25px" xmlns="http://www.w3.org/2000/svg">
  <g transform="matrix(1 0 0 1 -1916 -788 )">
    <path d="M 19 11.718779590504425  C 18.99997884765625 10.424837161306742  17.936179139322917 9.375034819538755  16.624984141927083 9.375034819538755  L 4.947926809895832 9.375034819538755  C 4.839072890624999 9.375034819538755  4.750010588541667 9.287144390017188  4.750010563802084 9.179722759360624  L 4.750010563802084 6.2500417834465045  C 4.750010563802084 4.9976031627642135  5.2448011171875 3.82084798920466  6.1403720546875 2.934619475252845  C 7.0384169505208325 2.0508323919604843  8.230862195312499 1.5625522171010997  9.5 1.5625522171010997  C 10.7691378046875 1.5625522171010997  11.961583049479167 2.050832367546422  12.8596279453125 2.934619475252845  C 13.755198858072916 3.82084798920466  14.249989436197918 4.9976031627642135  14.249989436197918 6.2500417834465045  L 14.249989436197918 6.2988698106980685  C 14.249989436197918 6.704142344112607  14.581499110677086 7.031290048573082  14.992175278645837 7.031290048573082  L 15.09113338932292 7.031290048573082  C 15.501809557291669 7.031290048573082  15.833319231770837 6.704142344112607  15.833319231770837 6.2988698106980685  C 15.833319231770837 4.577682240705456  15.12082081510417 3.002978728053472  13.972906696614585 1.8579617380277458  C 12.820044686197916 0.7080619355112389  11.229293015625 -0.007268483060103386  9.475260466145834 5.571126200614848E-05  C 5.989460942708334 0.01226271807489701  3.1666807682291656 2.8052252372158892  3.1666807682291656 6.2500417834465045  L 3.1666807682291656 9.179722759360624  C 3.1666807682291656 9.287144390017188  3.0776184661458332 9.375034819538755  2.9687645468749997 9.375034819538755  L 2.3750158580729166 9.375034819538755  C 1.0638208606770843 9.375034819538755  2.1152343750259208E-05 10.424837161306742  0 11.718779590504425  L 0 22.65625522903433  C 2.1152343750259208E-05 23.950197658232007  1.0638208606770843 25  2.3750158580729166 25  L 16.624984141927083 25  C 17.936179139322917 25  18.99997884765625 23.950197658232007  19 22.65625522903433  L 19 11.718779590504425  Z M 11.874994705729165 16.40626915684983  C 11.874994705729165 17.17042760267273  11.503901772135418 17.851578431464855  10.927470791666668 18.27882357225979  C 10.531638348958335 18.574233068772372  10.291664910156252 19.028333629438478  10.291664910156252 19.519055186129187  L 10.291664910156252 21.093758698781173  C 10.291664910156252 21.521003839576103  9.940363618489584 21.870124151416967  9.509895808593752 21.875006963907747  C 9.069532214843752 21.879889776398528  8.708335089843752 21.513679645253994  8.708335089843752 21.07666890389156  L 8.708335089843752 19.531262192942076  C 8.708335089843752 19.038099230005976  8.470835609375001 18.57667447501776  8.070055274739586 18.27882357225979  C 7.496098203124999 17.851578431464855  7.125005294270835 17.17042760267273  7.125005294270835 16.40626915684983  C 7.125005294270835 15.131857928787145  8.173961302083335 14.079614180773767  9.465364657552083 14.062524361470095  C 10.793877313802085 14.042993160335095  11.874994705729165 15.100119696425192  11.874994705729165 16.40626915684983  Z " fill-rule="nonzero" fill="#000000" stroke="none" transform="matrix(1 0 0 1 1916 788 )" />
  </g>
</svg>