<?xml version="1.0" encoding="utf-8"?>
<svg version="1.1" xmlns:xlink="http://www.w3.org/1999/xlink" width="169px" height="102px" xmlns="http://www.w3.org/2000/svg">
  <g transform="matrix(1 0 0 1 -1850 -88 )">
    <path d="M 1851 91  A 2 2 0 0 1 1853 89 L 2016 89  A 2 2 0 0 1 2018 91 L 2018 187  A 2 2 0 0 1 2016 189 L 1853 189  A 2 2 0 0 1 1851 187 L 1851 91  Z " fill-rule="nonzero" fill="#d7d7d7" stroke="none" fill-opacity="0.25882352941176473" />
    <path d="M 1850.5 91  A 2.5 2.5 0 0 1 1853 88.5 L 2016 88.5  A 2.5 2.5 0 0 1 2018.5 91 L 2018.5 187  A 2.5 2.5 0 0 1 2016 189.5 L 1853 189.5  A 2.5 2.5 0 0 1 1850.5 187 L 1850.5 91  Z " stroke-width="1" stroke-dasharray="3,1" stroke="#000000" fill="none" stroke-dashoffset="0.5" />
  </g>
</svg>