<?xml version="1.0" encoding="utf-8"?>
<svg version="1.1" xmlns:xlink="http://www.w3.org/1999/xlink" width="80px" height="80px" xmlns="http://www.w3.org/2000/svg">
  <g transform="matrix(1 0 0 1 -1311 -363 )">
    <path d="M 1351 365  C 1372.28 365  1389 381.72  1389 403  C 1389 424.28  1372.28 441  1351 441  C 1329.72 441  1313 424.28  1313 403  C 1313 381.72  1329.72 365  1351 365  Z " fill-rule="nonzero" fill="#ffffff" stroke="none" />
    <path d="M 1351 364.5  C 1372.56 364.5  1389.5 381.44  1389.5 403  C 1389.5 424.56  1372.56 441.5  1351 441.5  C 1329.44 441.5  1312.5 424.56  1312.5 403  C 1312.5 381.44  1329.44 364.5  1351 364.5  Z " stroke-width="3" stroke="#f59a23" fill="none" />
  </g>
</svg>