<?xml version="1.0" encoding="utf-8"?>
<svg version="1.1" xmlns:xlink="http://www.w3.org/1999/xlink" width="20px" height="20px" xmlns="http://www.w3.org/2000/svg">
  <g transform="matrix(1 0 0 1 -822 -1029 )">
    <path d="M 13.28369140625 5.903320312499998  L 9.95361328125 9.11865234375  L 6.73828125 5.78857421875  C 6.484375 5.52734375  6.0693359375 5.5224609375  5.808105468749998 5.7763671875  C 5.68115234375 5.89599609375  5.60791015625 6.06201171875  5.605468749999998 6.23779296875  C 5.600585937499998 6.41357421875  5.6689453125 6.58203125  5.788574218749998 6.70654296875  L 9.003906249999998 10.03662109375  L 5.673828124999998 13.251953125000002  C 5.412597656249999 13.505859375  5.407714843749999 13.9208984375  5.661621093749998 14.18212890625  C 5.781249999999998 14.309082031250004  5.947265624999998 14.382324218750004  6.123046874999998 14.384765625  C 6.298828124999998 14.3896484375  6.467285156249998 14.3212890625  6.591796874999998 14.20166015625  L 9.921874999999998 10.986328125000002  L 13.13720703125 14.31640625  C 13.39111328125 14.577636718750004  13.80615234375 14.58251953125  14.0673828125 14.32861328125  C 14.1943359375 14.208984375000004  14.267578125 14.04296875  14.27001953125 13.867187500000004  C 14.27490234375 13.69140625  14.20654296875 13.52294921875  14.0869140625 13.398437500000002  L 10.871582031250002 10.068359374999998  L 14.20166015625 6.85302734375  C 14.462890625 6.59912109375  14.4677734375 6.18408203125  14.2138671875 5.922851562499998  C 14.09423828125 5.795898437499998  13.92822265625 5.722656249999998  13.75244140625 5.720214843749998  C 13.57666015625 5.715332031249998  13.408203125 5.783691406249998  13.28369140625 5.903320312499998  Z M 16.89453125 17.109375  C 12.956542968749998 20.910644531250004  6.6845703125 20.80322265625  2.880859375 16.865234375  C -0.9204101562499996 12.927246093750002  -0.8105468749999996 6.655273437500002  3.125 2.851562500000001  C 7.062988281250002 -0.9497070312499987  13.3349609375 -0.8398437499999987  17.138671875 3.095703125000001  C 20.939941406249996 7.033691406250002  20.83251953125 13.305664062500002  16.89453125 17.109375  Z " fill-rule="nonzero" fill="#f59a23" stroke="none" transform="matrix(1 0 0 1 822 1029 )" />
  </g>
</svg>