<?xml version="1.0" encoding="utf-8"?>
<svg version="1.1" xmlns:xlink="http://www.w3.org/1999/xlink" width="22px" height="15px" xmlns="http://www.w3.org/2000/svg">
  <g transform="matrix(1 0 0 1 -29 -20 )">
    <path d="M 21.402459995659726 7.438888164569801  C 22.084095763888886 8.289708756087661  21.993758502604162 9.336872590300324  21.246422894965274 9.971715668120943  C 21.615984461805553 10.619648285308443  21.402459995659726 11.372297293526787  20.704399279513886 11.732259854403408  L 15.152763302951392 14.625049918831168  C 14.462915060763892 14.978467710024354  13.543117356770832 14.847572240259744  12.943606375868058 14.343624632203735  C 12.820419171006943 14.395982827719159  12.689019539930554 14.448341023234578  12.557619861111112 14.474520101968347  C 12.19627076822917 14.644684227881493  11.7445844140625 14.697042423396917  11.284685585937503 14.59887080204952  L 3.0886313237847234 12.871050502232142  C 2.1031338281250003 12.661617720170455  1.4297105338541691 11.843521015117698  1.5857476345486146 11.03851381138393  C 1.7417847352430604 10.233506607650163  2.6697949131944494 9.749193346692373  3.655292361111111 9.958626128754062  L 7.375545499131949 10.743998985389611  L 7.244145820312507 10.586924398843346  L 6.611784895833337 9.821185851258122  L 0.4277880425347304 2.2946958832183486  C -0.16351046440971562 1.5813155311485423  0.01716405815973082 0.6585023970170497  0.8301995052083397 0.23309213930601075  C 1.635022478298616 -0.18577338676947866  2.768344600694456 0.04983847402597925  3.359643107638895 0.7632187880478913  L 7.203083402777787 5.449276925223215  C 6.619997369791676 4.735896573153409  6.792459418402787 3.813083439021918  7.60549491319445 3.387673143262991  C 8.418530360243063 2.9688076171875015  9.543640008680558 3.2044194779829596  10.134938515625013 3.9177998300527603  L 10.496287608506957 4.356299665178572  C 9.913201575520846 3.6429193131087687  10.085663624131953 2.720106178977276  10.898699071180566 2.2946958832183486  C 11.70352204427084 1.875830357142859  12.836844166666674 2.111442217938317  13.428142673611122 2.8248225700081178  L 13.871616553819454 3.374583603896109  C 13.288530520833344 2.661203251826303  13.460992569444457 1.7383901176948104  14.274028016493062 1.3129798219358801  C 15.087063463541675 0.8941142958603934  16.212173111979173 1.1297261566558459  16.803471618923624 1.8431065087256522  L 18.330992777777784 3.7018222783076276  L 19.702476788194446 5.370739612926136  L 21.402459995659726 7.438888164569801  Z " fill-rule="nonzero" fill="#13227a" stroke="none" transform="matrix(1 0 0 1 29 20 )" />
  </g>
</svg>