<?xml version="1.0" encoding="utf-8"?>
<svg version="1.1" xmlns:xlink="http://www.w3.org/1999/xlink" width="30px" height="30px" xmlns="http://www.w3.org/2000/svg">
  <g transform="matrix(1 0 0 1 -1122 -477 )">
    <path d="M 30 14.999999999999998  C 30 6.716666666666665  23.283333333333335 0  15 0  C 6.716666666666666 0  0 6.716666666666666  0 15  C 0 23.28333333333333  6.716666666666666 30  15 30  C 23.28333333333333 30  30 23.28333333333333  30 14.999999999999998  Z M 16.07125 22.232083333333335  C 16.07125 22.379583333333333  15.950833333333334 22.500000000000004  15.803750000000003 22.500000000000004  L 14.195833333333333 22.500000000000004  C 14.048219711873644 22.49931412232042  13.928789461494128 22.379697843513526  13.928333333333333 22.232083333333335  L 13.928333333333333 13.125  C 13.928333333333333 12.9775  14.04875 12.857083333333334  14.195833333333333 12.857083333333334  L 15.803333333333335 12.857083333333334  C 15.950416666666667 12.857083333333334  16.070833333333333 12.977916666666665  16.070833333333333 13.125  L 16.070833333333333 22.23208333333333  Z M 16.570902053032675 9.107083333333334  C 16.570902053032675 9.980620914990482  15.87331115926688 10.694278839551613  15 10.714166666666667  C 14.126688840733118 10.694278839551613  13.429097946967321 9.980620914990482  13.429097946967321 9.107083333333334  C 13.429097946967321 8.233545751676186  14.126688840733122 7.519887827115055  15 7.500000000000002  C 15.87331115926688 7.519887827115055  16.570902053032675 8.233545751676186  16.570902053032675 9.107083333333334  Z " fill-rule="nonzero" fill="#181c86" stroke="none" transform="matrix(1 0 0 1 1122 477 )" />
  </g>
</svg>