<?xml version="1.0" encoding="utf-8"?>
<svg version="1.1" xmlns:xlink="http://www.w3.org/1999/xlink" width="35px" height="9px" xmlns="http://www.w3.org/2000/svg">
  <g transform="matrix(1 0 0 1 -1114 -13 )">
    <path d="M 30.275607638888893 8.990411931818187  L 34.76453993055555 0.00958806818181818  L 25.55881076388889 0.00958806818181818  L 21.06987847222222 8.990411931818187  L 30.275607638888893 8.990411931818187  Z M 7.116970486111108 0.00958806818181818  L 4.838324652777775 0.00958806818181818  C 2.3014322916666643 0.00958806818181818  0.24305555555555278 1.807350852272727  0.24305555555555278 4.0285866477272725  L 0.24305555555555278 4.9714133522727275  C 0.24305555555555278 6.561434659090904  1.2988281249999973 7.935724431818182  2.833116319444442 8.582919034090908  L 7.116970486111108 0.00958806818181818  Z M 15.479600694444445 0.017578125  C 15.479600694444445 0.009588068181812367  8.263888888888891 0.009588068181812367  8.263888888888886 0.00958806818181818  L 3.828125 8.89453125  C 4.154730902777778 8.958451704545448  4.488932291666667 8.998401988636358  4.838324652777778 8.998401988636358  L 10.990668402777777 8.998401988636358  L 15.479600694444445 0.017578125  Z M 24.41189236111111 0.00958806818181818  L 16.62651909722222 0.00958806818181818  L 12.137586805555554 8.990411931818187  L 19.922960069444446 8.990411931818187  L 24.41189236111111 0.00958806818181818  Z " fill-rule="nonzero" fill="#181c86" stroke="none" transform="matrix(1 0 0 1 1114 13 )" />
  </g>
</svg>