<?xml version="1.0" encoding="utf-8"?>
<svg version="1.1" xmlns:xlink="http://www.w3.org/1999/xlink" width="60px" height="11px" xmlns="http://www.w3.org/2000/svg">
  <g transform="matrix(1 0 0 1 -1112 -11 )">
    <path d="M 59.70322646103896 4.924525669642858  C 59.70322646103896 2.2236328125  57.534496753246756 0.029157366071428572  54.848315746753244 0  L 27.7734375 0  L 27.17228084415585 1.1877790178571428  L 53.54707792207792 1.1877790178571428  C 56.08867694805195 1.1877790178571428  58.150872564935064 2.914202008928571  58.150872564935064 5.047293526785714  L 58.150872564935064 5.952706473214286  C 58.150872564935064 8.085797991071423  56.08867694805195 9.81222098214285  53.54707792207792 9.81222098214285  L 22.66741071428571 9.81222098214285  L 22.066254058441558 11  L 54.84831574675326 11  C 57.52688717532468 10.970842633928566  59.70322646103896 8.776367187499995  59.70322646103896 6.075474330357142  L 59.70322646103896 4.924525669642858  Z M 21.518364448051948 9.812220982142863  L 13.718547077922075 9.812220982142863  L 13.117390422077921 10.970842633928577  L 20.91720779220779 10.970842633928577  L 21.518364448051948 9.812220982142863  Z M 18.21580762987013 1.1877790178571428  L 26.015625 1.1877790178571428  L 26.616781655844157 0.029157366071428572  L 18.81696428571429 0.029157366071428572  L 18.21580762987013 1.1877790178571428  Z M 4.746854707792208 10.947823660714285  C 4.8838271103896105 10.96316964285715  5.028409090909091 10.970842633928566  5.1653814935064934 10.970842633928566  L 11.960734577922079 10.970842633928566  L 12.561891233766234 9.81222098214285  L 6.466619318181818 9.81222098214285  C 6.09375 9.81222098214285  5.736099837662338 9.773856026785708  5.393668831168831 9.70479910714285  L 4.746854707792208 10.947823660714285  Z M 4.404423701298699 9.405552455357142  C 2.9053368506493507 8.761021205357142  1.870434253246752 7.464285714285714  1.870434253246752 5.952706473214286  L 1.870434253246752 5.047293526785714  C 1.870434253246752 2.914202008928566  3.93262987012987 1.1877790178571372  6.474228896103896 1.1877790178571372  L 8.688616071428571 1.1877790178571372  L 9.289772727272727 0.029157366071422986  L 5.1653814935064934 0.029157366071422986  C 2.4792004870129873 0.029157366071422986  0.3104707792207778 2.2236328124999947  0.3104707792207778 4.924525669642851  L 0.3104707792207778 6.075474330357142  C 0.3104707792207778 8.269949776785715  1.7410714285714286 10.119140625000005  3.7043425324675323 10.748325892857142  L 4.404423701298699 9.405552455357142  Z M 9.837662337662335 1.1877790178571372  L 17.066761363636363 1.1877790178571372  L 17.667918019480513 0.029157366071422986  L 10.43881899350649 0.029157366071422986  L 9.837662337662335 1.1877790178571372  Z " fill-rule="nonzero" fill="#181c86" stroke="none" transform="matrix(1 0 0 1 1112 11 )" />
  </g>
</svg>