<?xml version="1.0" encoding="utf-8"?>
<svg version="1.1" xmlns:xlink="http://www.w3.org/1999/xlink" width="16px" height="15px" xmlns="http://www.w3.org/2000/svg">
  <g transform="matrix(1 0 0 1 -226 -482 )">
    <path d="M 15.959665697674419 6.243411144578313  C 15.96329941860465 5.929263930722891  15.725290697674419 5.66453313253012  15.405523255813954 5.622176204819278  L 14.366279069767442 5.480986445783133  C 14.135537790697674 5.44921875  13.948401162790697 5.297439759036146  13.857558139534884 5.090949736445784  C 13.652252906976743 4.619728915662651  13.390625 4.178510918674699  13.078125 3.776120105421687  C 12.938226744186046 3.5961031626506026  12.896438953488373 3.361375188253012  12.983648255813954 3.1531202936746987  L 13.377906976744185 2.208913780120482  C 13.499636627906977 1.9194747740963853  13.381540697674419 1.5859139683734933  13.101744186046512 1.430605233433735  L 10.854287790697674 0.16872176204819275  C 10.574491279069768 0.011648155120481608  10.220203488372094 0.0787132906626506  10.02216569767442 0.3257953689759036  L 9.378997093023257 1.1252823795180726  C 9.235465116279073 1.3052993222891567  9.002906976744187 1.3882483057228916  8.770348837209303 1.3600103539156634  C 8.515988372093025 1.3282426581325304  8.256177325581397 1.3105939382530125  7.9927325581395365 1.3105939382530125  C 7.729287790697676 1.3105939382530125  7.469476744186048 1.3282426581325304  7.215116279069769 1.3600103539156634  C 6.982558139534885 1.3882483057228916  6.750000000000001 1.3052993222891573  6.6064680232558155 1.1252823795180726  L 5.963299418604652 0.32579536897590394  C 5.7652616279069795 0.07871329066265091  5.410973837209305 0.011648155120482248  5.131177325581397 0.16872176204819275  L 2.883720930232558 1.4288403614457832  C 2.603924418604651 1.585913968373494  2.4876453488372094 1.9177099021084336  2.6075581395348837 2.20714890813253  L 3.0018168604651163 3.1513554216867474  C 3.089026162790698 3.361375188253012  3.047238372093023 3.5943382906626513  2.90734011627907 3.7743552334337354  C 2.5948401162790704 4.176746046686748  2.33139534883721 4.6179640436747  2.127906976744186 5.089184864457832  C 2.037063953488372 5.297439759036146  1.8499273255813953 5.44921875  1.6191860465116283 5.479221573795182  L 0.5799418604651163 5.620411332831327  C 0.2601744186046512 5.66453313253012  0.02216569767441877 5.929263930722891  0.02216569767441877 6.243411144578313  L 0.02216569767441877 8.765413215361447  C 0.02216569767441877 9.077795557228917  0.2601744186046512 9.342526355421688  0.578125 9.386648155120485  L 1.6173691860465114 9.527837914156628  C 1.8481104651162783 9.55960560993976  2.035247093023256 9.711384600903616  2.12609011627907 9.917874623493978  C 2.3313953488372094 10.389095444277112  2.5930232558139528 10.830313441265062  2.9055232558139537 11.232704254518074  C 3.045421511627907 11.412721197289159  3.0872093023255816 11.64744917168675  3 11.85570406626506  L 2.6057412790697674 12.799910579819278  C 2.484011627906977 13.089349585843374  2.6021075581395348 13.422910391566266  2.881904069767442 13.578219126506028  L 5.129360465116279 14.838337725903614  C 5.409156976744186 14.995411332831324  5.76344476744186 14.928346197289157  5.961482558139535 14.681264118975903  L 6.604651162790698 13.881777108433734  C 6.748183139534884 13.701760165662652  6.980741279069767 13.618811182228916  7.2132994186046515 13.647049134036143  C 7.4676598837209305 13.678816829819278  7.727470930232558 13.696465549698795  7.990915697674419 13.696465549698795  C 8.25436046511628 13.696465549698795  8.514171511627906 13.678816829819278  8.768531976744185 13.647049134036143  C 9.001090116279068 13.618811182228916  9.233648255813954 13.701760165662654  9.377180232558139 13.881777108433734  L 10.020348837209301 14.681264118975903  C 10.218386627906975 14.928346197289157  10.57267441860465 14.995411332831324  10.852470930232556 14.838337725903614  L 13.099927325581396 13.578219126506024  C 13.3797238372093 13.421145519578314  13.496002906976742 13.089349585843374  13.37609011627907 12.799910579819278  L 12.981831395348838 11.85570406626506  C 12.894622093023257 11.647449171686747  12.93640988372093 11.412721197289157  13.076308139534884 11.232704254518072  C 13.388808139534884 10.83031344126506  13.652252906976743 10.389095444277109  13.855741279069768 9.917874623493976  C 13.946584302325581 9.709619728915664  14.133720930232556 9.557840737951807  14.364462209302326 9.527837914156626  L 15.403706395348838 9.386648155120483  C 15.723473837209303 9.342526355421686  15.959665697674419 9.077795557228916  15.959665697674419 8.765413215361445  L 15.959665697674419 6.243411144578313  Z M 10.516351744186046 7.503529743975905  C 10.516351744186046 8.857186558734941  9.38626453488372 9.954936935240964  7.992732558139535 9.954936935240964  C 6.5992005813953485 9.954936935240964  5.469113372093025 8.85718655873494  5.469113372093025 7.503529743975905  C 5.469113372093025 6.14987292921687  6.5992005813953485 5.052122552710844  7.992732558139535 5.052122552710844  C 9.38626453488372 5.052122552710844  10.516351744186046 6.149872929216869  10.516351744186046 7.503529743975905  Z " fill-rule="nonzero" fill="#d7d7d7" stroke="none" transform="matrix(1 0 0 1 226 482 )" />
  </g>
</svg>