<?xml version="1.0" encoding="utf-8"?>
<svg version="1.1" xmlns:xlink="http://www.w3.org/1999/xlink" width="50px" height="50px" xmlns="http://www.w3.org/2000/svg">
  <g transform="matrix(1 0 0 1 -261 -179 )">
    <path d="M 49.77751578691709 24.904317114637305  C 49.77751578691709 11.168889653497407  38.642476926813465 0.033850793393782434  24.907049465673573 0.033850793393782434  C 11.171622004533676 0.033850793393782434  0.03658314443005052 11.16888965349741  0.03658314443005052 24.904317114637305  C 0.03658314443005052 38.6397445757772  11.171622004533678 49.77478343588083  24.907049465673573 49.77478343588083  C 38.642476926813465 49.77478343588083  49.77751578691709 38.6397445757772  49.77751578691709 24.904317114637305  Z M 39.376163779145074 17.108818409974095  C 39.376163779145074 17.108818409974095  21.180679242227978 34.178928513601036  21.17511334196891 34.18378602655441  C 20.766829258419687 34.581747895077726  20.107776068652846 34.573399044689126  19.70981420012953 34.1651149611399  L 10.417948510362693 24.995547279792746  C 10.019986641839376 24.587263196243523  10.028335492227978 23.928210006476682  10.436619575777199 23.530248137953365  C 10.844903659326421 23.13228626943005  11.503956849093262 23.14063511981865  11.90191871761658 23.548919203367873  L 20.45807359132124 31.975186204663213  L 37.92887791450777 15.624898801813472  C 38.337161998057 15.226936933290158  38.996215187823836 15.235285783678759  39.394177056347154 15.643569867227983  C 39.7927967130829 16.051853950777208  39.78449846178757 16.710907140544045  39.376214378238345 17.10886900906736  Z " fill-rule="nonzero" fill="#3c3d3d" stroke="none" transform="matrix(1 0 0 1 261 179 )" />
  </g>
</svg>