<?xml version="1.0" encoding="utf-8"?>
<svg version="1.1" xmlns:xlink="http://www.w3.org/1999/xlink" width="25px" height="20px" xmlns="http://www.w3.org/2000/svg">
  <g transform="matrix(1 0 0 1 -19 -14 )">
    <path d="M 14.306580465468441 15.461699867197874  C 14.306580465468441 12.197961487383797  16.983290818625946 9.568837096060202  20.30610138630996 9.568837096060202  C 20.85991418939626 9.568837096060202  21.367572244956822 9.659505533421866  21.87520821690613 9.79548649845064  C 21.644456562888717 9.342187693669764  21.32141749743109 8.93422310756972  20.85991418939626 8.662239486498448  C 21.552169151448503 8.616905267817618  22.105959870923545 8.027625498007966  22.105959870923545 7.3023430721558205  C 22.105959870923545 6.531748118636563  21.50601440392277 5.942446657813189  20.72144994681906 5.942446657813189  L 19.198497863748624 5.942446657813189  L 18.183203836238757 2.0894285081894646  C 17.998584846135817 1.454792828685259  17.53708153810099 0.9561814962372737  16.89098132357448 0.7748663125276679  C 13.049552315031745 -0.22240378371417674  9.010252808366062 -0.22240378371417752  5.168823799823332 0.7748663125276679  C 4.568878332822556 0.9561814962372739  4.0612202772619925 1.4547928286852598  3.876623370770312 2.0894285081894646  L 2.9074620071749204 5.942446657813193  L 1.8460132321393163 5.942446657813193  C 1.061448775035604 5.942446657813193  0.4615033080348289 6.531748118636564  0.4615033080348289 7.302343072155821  C 0.4615033080348289 7.8916228419654715  0.8306971210181898 8.390255865427182  1.384509924104487 8.571571049136788  C 0.5538128030862972 9.024891544931386  0 9.931467463479416  0 10.928733510402836  L 0 14.555102257636122  C 0 15.416387339530766  0.5999454670007752 16.096335546702083  1.384509924104487 16.322984949092522  L 1.384509924104487 17.274895086321383  C 1.384509924104487 17.773528109783093  1.7998584846135819 18.18149269588314  2.307516540174145 18.18149269588314  L 5.076536388383119 18.18149269588314  C 5.584172360332426 18.18149269588314  5.99952092084152 17.773528109783093  5.99952092084152 17.274895086321383  L 5.99952092084152 16.36829747675963  L 14.398867876908655 16.36829747675963  C 14.352713129382922 16.051001328021247  14.30655838185719 15.779017706949976  14.30655838185719 15.461699867197874  Z M 5.538039696417947 12.288629924745463  C 5.538039696417947 13.285895971668879  4.707320491788501 14.101825143868968  3.6920264642786313 14.101825143868968  C 2.6767103531575054 14.101825143868968  1.8460132321393152 13.285874280655158  1.8460132321393152 12.288629924745463  C 1.8460132321393152 11.291385568835768  2.6767103531575054 10.475434705621955  3.6920264642786313 10.475434705621955  C 4.707342575399758 10.475434705621955  5.538039696417947 11.291363877822045  5.538039696417947 12.288629924745463  Z M 5.676459771772637 2.542727312970341  C 7.430185592471742 2.0894285081894646  9.230044077085322 1.8627791057990257  11.07605730922464 1.8627791057990257  C 12.922070541363956 1.8627791057990257  14.721929025977538 2.0894285081894646  16.475632763065384 2.542727312970341  L 17.49094887418651 7.302343072155821  L 4.661165744262767 7.302343072155821  L 5.676481855383893 2.542727312970341  Z M 24.921134466658255 15.461699867197874  C 24.921134466658255 12.96853474988933  22.844369580501525 10.92871181938911  20.30610138630996 10.92871181938911  C 17.767833192118403 10.92871181938911  15.691068305961672 12.96853474988933  15.691068305961672 15.461699867197874  C 15.691068305961672 17.954864984506422  17.76785527572966 19.99468791500664  20.30610138630996 19.99468791500664  C 22.844347496890265 19.99468791500664  24.921134466658255 17.954864984506422  24.921134466658255 15.461699867197874  Z M 16.844848659660002 14.781751660026558  C 16.844848659660002 14.419099601593627  17.167887725117627 14.101825143868968  17.53708153810099 14.101825143868968  L 21.690611310414447 14.101825143868968  L 21.136820590939408 13.376542718016822  C 20.906046853310734 13.059224878264718  20.952201600836474 12.651260292164675  21.275262749905355 12.424610889774236  C 21.598323898974236 12.1979614873838  22.01367245948333 12.243274015050908  22.244424113500745 12.560613545816734  L 23.62893403760523 14.373787073926517  C 23.76737619657118 14.600458167330679  23.81353094409691 14.872420097388229  23.675088785130967 15.099069499778665  C 23.536646626165016 15.325718902169104  23.352005552450823 15.461699867197874  23.075121234518935 15.461699867197874  L 17.53708153810099 15.461699867197874  C 17.167887725117627 15.461699867197874  16.844848659660002 15.144403718459493  16.844848659660002 14.781751660026558  Z M 23.76737619657118 16.594946879150065  C 23.76737619657118 16.957577246569272  23.444315047502304 17.274895086321376  23.075121234518935 17.27489508632138  L 18.921591462205477 17.27489508632138  L 19.475404265291772 17.954843293492694  C 19.660023255394712 18.226826914563965  19.706155919309186 18.589457281983176  19.475404265291772 18.816106684373615  C 19.336940022714572 18.997443559096943  19.10621045230841 19.08811199645861  18.921591462205477 19.08811199645861  C 18.690839808188066 19.08811199645861  18.506242901696382 18.997443559096943  18.367800742730434 18.816106684373615  L 16.98329081862595 17.00291146525011  C 16.844826576048746 16.776262062859672  16.798671828523013 16.504300132802122  16.937136071100216 16.277650730411683  C 17.075600313677416 16.051001328021247  17.2601972201691 15.914998671978749  17.537081538100992 15.914998671978749  L 23.075121234518942 15.914998671978749  C 23.444315047502304 15.914998671978749  23.76737619657118 16.23231651173085  23.76737619657118 16.594946879150065  Z " fill-rule="nonzero" fill="#ffffff" stroke="none" transform="matrix(1 0 0 1 19 14 )" />
  </g>
</svg>