<?xml version="1.0" encoding="utf-8"?>
<svg version="1.1" xmlns:xlink="http://www.w3.org/1999/xlink" width="21px" height="11px" xmlns="http://www.w3.org/2000/svg">
  <g transform="matrix(1 0 0 1 -899 -110 )">
    <path d="M 0.066650390625 5.3794899425287355  C 0.066650390625 5.658539870689655  0.22045898437499978 5.912895114942528  0.45816317471590884 6.031429597701149  L 10.222678444602273 10.824667744252874  C 10.313565340909092 10.869118175287355  10.409113103693182 10.8913433908046  10.50699129971591 10.8913433908046  C 10.600208629261365 10.8913433908046  10.69342595880682 10.871587643678163  10.779651988636369 10.829606681034484  L 20.544167258522727 6.26849856321839  C 20.78653231534091 6.154903017241379  20.945001775568183 5.900547772988506  20.947332208806817 5.619028376436782  C 20.949662642045453 5.337508979885057  20.793523615056817 5.080684267241379  20.553488991477273 4.962149784482758  L 10.572243430397727 0.13186961206896552  C 10.395130504261363 0.0454382183908046  10.190052379261365 0.0454382183908046  10.012939453125 0.13186961206896552  L 8.465531782670457 0.877649066091954  C 8.125288529829545 1.040633979885058  7.976140802556819 1.4653825431034484  8.12994939630682 1.8259249281609196  C 8.28375799005682 2.1864673132183907  8.684592507102275 2.344513290229885  9.024835759943183 2.1815283764367814  L 10.292591441761363 1.5715696839080464  L 16.08138760653409 4.3744163074712645  L 18.623890269886363 5.601742097701149  L 10.513982599431817 9.389906609195402  L 8.111305930397727 8.209500718390805  L 2.362127130681819 5.386898347701148  L 4.804421164772728 4.208961925287356  C 5.144664417613638 4.045977011494252  5.293812144886364 3.621228448275861  5.140003551136363 3.26068606321839  C 4.986194957386362 2.9001436781609184  4.585360440340909 2.742097701149424  4.2451171875 2.9050826149425277  L 0.46282404119318177 4.730019755747127  C 0.22278941761363635 4.846084770114942  0.066650390625 5.100440014367816  0.066650390625 5.3794899425287355  Z " fill-rule="nonzero" fill="#ffffff" stroke="none" transform="matrix(1 0 0 1 899 110 )" />
  </g>
</svg>