<?xml version="1.0" encoding="utf-8"?>
<svg version="1.1" xmlns:xlink="http://www.w3.org/1999/xlink" width="21px" height="15px" xmlns="http://www.w3.org/2000/svg">
  <g transform="matrix(1 0 0 1 -898 -111 )">
    <path d="M 5.964976917613638 1.2284825211864405  C 6.0768377130681825 1.4941406249999991  6.321533203125001 1.6505561440677967  6.580211292613637 1.6505561440677967  C 6.673428622159092 1.6505561440677967  6.768976384943182 1.6306938559322024  6.85986328125 1.5860037076271187  L 7.090576171875 1.4742783368644068  C 7.430819424715908 1.3104144597457628  7.579967151988637 0.8833752648305084  7.426158558238637 0.5208885063559322  C 7.272349964488634 0.15840174788135591  6.871515447443181 -0.0004965572033902822  6.531272194602273 0.16336731991525424  L 6.300559303977273 0.2750926906779661  C 5.960316051136363 0.43895656779660924  5.811168323863637 0.8659957627118644  5.964976917613638 1.2284825211864405  Z M 20.88907137784091 9.16843220338983  C 20.730601917613637 8.803462658898304  20.329767400568183 8.644564353813559  19.99185458096591 8.810911016949152  L 10.513982599431817 13.433858580508476  L 1.0361106178977273 8.58249470338983  C 0.7005282315340908 8.411182468220339  0.29736328125 8.560149629237289  0.13423295454545456 8.920153601694915  C -0.026566938920454544 9.277674788135592  0.11325905539772727 9.707196769067798  0.451171875 9.880991790254239  L 10.215687144886363 14.87884004237288  C 10.308904474431818 14.926012976694915  10.409113103693182 14.950840836864408  10.509321732954547 14.950840836864408  C 10.604869495738637 14.950840836864408  10.700417258522727 14.928495762711865  10.791304154829547 14.886288400423728  L 20.55581942471591 10.121822033898306  C 20.896062677556817 9.95547537076271  21.045210404829547 9.528436175847459  20.88907137784091 9.16843220338983  Z " fill-rule="nonzero" fill="#ffffff" stroke="none" transform="matrix(1 0 0 1 898 111 )" />
  </g>
</svg>