<?xml version="1.0" encoding="utf-8"?>
<svg version="1.1" xmlns:xlink="http://www.w3.org/1999/xlink" width="21px" height="7px" xmlns="http://www.w3.org/2000/svg">
  <g transform="matrix(1 0 0 1 -898 -123 )">
    <path d="M 20.88907137784091 0.7645733173076962  C 20.730601917613637 0.38070913461538847  20.329767400568183 0.21243990384615768  19.99185458096591 0.3859675480769231  L 10.513982599431817 5.2841796875  L 1.0361106178977273 0.14408052884615385  C 0.7005282315340908 -0.03733473557692308  0.29736328125 0.12041766826923078  0.13423295454545456 0.5016526442307693  C -0.026566938920454544 0.8802584134615385  0.11325905539772727 1.3351111778846192  0.451171875 1.5191556490384654  L 10.215687144886363 6.811748798076927  C 10.308904474431818 6.861703725961542  10.409113103693182 6.887995793269235  10.509321732954547 6.887995793269235  C 10.604869495738637 6.887995793269235  10.700417258522727 6.864332932692312  10.791304154829547 6.819636418269235  L 20.55581942471591 1.7741887019230809  C 20.896062677556817 1.5980318509615423  21.045210404829547 1.1458082932692346  20.88907137784091 0.7645733173076962  Z " fill-rule="nonzero" fill="#ffffff" stroke="none" transform="matrix(1 0 0 1 898 123 )" />
  </g>
</svg>