<?xml version="1.0" encoding="utf-8"?>
<svg version="1.1" xmlns:xlink="http://www.w3.org/1999/xlink" width="16px" height="18px" xmlns="http://www.w3.org/2000/svg">
  <g transform="matrix(1 0 0 1 -392 -113 )">
    <path d="M 15.980839506172838 12.753511363636363  C 15.793283950617282 13.336261363636364  14.924049382716046 13.233988636363636  15.022814814814815 14.134090909090908  C 15.12158024691358 14.829545454545455  15.694518518518517 14.727272727272728  15.793283950617282 15.034090909090908  C 15.793283950617282 15.228306818181819  15.694518518518517 15.934090909090909  15.408098765432099 16.026136363636365  C 15.121679012345679 16.026136363636365  14.736493827160492 15.923863636363638  14.450074074074076 16.026136363636365  C 14.262518518518517 16.12840909090909  14.064987654320987 16.220454545454544  13.966222222222221 16.425  C 13.778567901234569 16.92603409090909  14.153777777777776 17.324897727272727  13.966222222222221 17.519215909090907  C 13.679802469135803 17.71353409090909  13.096987654320987 18.020352272727273  12.909432098765432 17.815806818181816  C 12.623012345679012 17.519215909090907  12.623012345679012 17.12025  12.040296296296296 17.12025  C 11.269827160493827 17.12025  11.269827160493827 17.918079545454543  10.88474074074074 17.918079545454543  C 10.499555555555554 17.918079545454543  9.82795061728395 17.621488636363633  9.82795061728395 17.324795454545455  C 9.926716049382716 16.92603409090909  10.114370370370368 16.629443181818182  9.729185185185186 16.230579545454546  C 9.245234567901235 15.83171590909091  8.672395061728395 16.230579545454546  8.474864197530863 16.036261363636363  C 8.18854320987654 15.841943181818186  8.089777777777776 15.340806818181818  8.18854320987654 15.044318181818184  C 8.287308641975306 14.747727272727275  8.958913580246913 14.747727272727275  8.958913580246913 13.949897727272727  C 8.958913580246913 13.356818181818184  8.287308641975306 13.254545454545456  8.18854320987654 12.855681818181822  C 8.089777777777776 12.559090909090914  8.287308641975306 12.057852272727274  8.573629629629629 11.95557954545455  C 9.057580246913579 11.761363636363638  9.344000000000001 12.149897727272732  9.82795061728395 11.761363636363638  C 10.114370370370368 11.464875000000001  10.015604938271604 10.769318181818186  10.015604938271604 10.564772727272729  C 10.114370370370368 10.268181818181821  10.499456790123455 10.165909090909093  10.785975308641975 10.165909090909093  C 11.358814814814814 10.165909090909093  11.171061728395062 10.861465909090912  11.94153086419753 10.96373863636364  C 12.7119012345679 10.96373863636364  12.613135802469136 10.66714772727273  12.99822222222222 10.165909090909093  C 13.48217283950617 10.165909090909093  13.867456790123454 10.360227272727276  13.956246913580246 10.564772727272729  C 14.143901234567897 10.963636363636367  13.768691358024688 11.556818181818185  14.341432098765429 11.955681818181818  C 14.82528395061728 12.252272727272729  15.299456790123452 11.853409090909093  15.595753086419752 11.955681818181818  C 15.783308641975307 12.057954545454546  15.882074074074072 12.354545454545455  15.980839506172838 12.753511363636363  Z M 12.326617283950617 15.831818181818178  C 14.548839506172841 15.330579545454544  14.252543209876546 11.638636363636364  11.556246913580244 12.139772727272724  C 9.245135802469134 12.732954545454545  10.11427160493827 16.220454545454544  12.326617283950617 15.831818181818178  Z M 11.753679012345676 4.3671477272727275  C 11.753777777777778 6.6580568181818185  9.926617283950616 8.652375  7.615506172839504 8.652375  C 5.304395061728394 8.652375  3.4772345679012324 6.760329545454545  3.4772345679012324 4.3671477272727275  C 3.4772345679012324 1.9739659090909092  5.304395061728394 0.08192045454545474  7.615506172839504 0.08192045454545474  C 9.926518518518515 0.08192045454545474  11.753679012345676 1.9739659090909092  11.753679012345676 4.3671477272727275  Z M 5.88711111111111 9.45  L 10.983407407407407 9.644318181818182  C 10.983407407407407 9.644318181818182  9.442567901234566 9.644318181818182  9.54133333333333 10.738636363636363  C 9.640098765432098 11.935227272727271  8.099358024691359 11.035124999999999  7.813037037037035 12.0375  C 7.42785185185185 13.233988636363634  8.000592592592593 13.02944318181818  8.296888888888889 13.827272727272724  C 8.484543209876543 14.32840909090909  7.526518518518519 14.625  7.625283950617283 15.524999999999999  C 7.812938271604938 16.72159090909091  8.780839506172839 16.11828409090909  9.067259259259258 16.823863636363637  C 9.25491358024691 17.417045454545452  8.583407407407405 17.81590909090909  7.042567901234566 17.81590909090909  C 5.788345679012345 17.81590909090909  3.3882469135802453 17.81590909090909  2.5191111111111097 17.71363636363636  C 2.5191111111111097 17.71363636363636  0.020345679012344228 17.611363636363635  0.020345679012344228 15.923863636363636  C 0.020345679012344228 15.923863636363636  -0.07841975308642156 13.42840909090909  1.4623209876543193 11.638636363636362  C 1.4623209876543193 11.638636363636362  3.1018271604938255 9.45  5.88711111111111 9.45  Z " fill-rule="nonzero" fill="#ffffff" stroke="none" transform="matrix(1 0 0 1 392 113 )" />
  </g>
</svg>