<?xml version="1.0" encoding="utf-8"?>
<svg version="1.1" xmlns:xlink="http://www.w3.org/1999/xlink" width="17px" height="15px" xmlns="http://www.w3.org/2000/svg">
  <g transform="matrix(1 0 0 1 -196 -237 )">
    <path d="M 7.488008123966941 13.980133071900827  C 7.475152752066116 14.380026446280993  7.205709776859504 14.693388429752066  6.875432090909091 14.693388429752066  L 0.5354718867768594 14.693388429752066  C 0.38277859496872363 14.692869379895185  0.23843028881061107 14.623644109309215  0.14243471074380168 14.504899173553717  C 0.017561983471074405 14.352826446280993  -0.02742479338842973 14.132641336363637  0.01885454545454549 13.901328939669419  L 2.649077629752066 0.754484564462808  C 2.7028455376035296 0.49672719711230334  2.9281175706885727 0.31068518557310787  3.1913916793388433 0.30661185123966894  L 7.418392421487604 0.30661185123966894  C 7.699415790739402 0.3066115500427873  7.926781869039662 0.5339776283430477  7.926781869039662 0.8144478996295641  C 7.926781869039662 0.8206641721191474  7.926667731748914 0.8268799206444233  7.926439514876033 0.8330920024793385  L 7.488008123966941 13.980133071900827  Z M 3.300416458677686 0.9920068785123958  L 0.6952578371900827 14.00799340247934  L 6.795110617355372 14.00799340247934  C 6.799746183976161 13.991440289681865  6.802406012095967 13.974396639282968  6.803034584297522 13.957218195867767  L 7.23548085123967 0.9920068785123958  L 3.300416458677686 0.9920068785123958  Z M 15.05739144049587 5.237426628925619  C 14.963441592586356 5.351918413570036  14.822966974612818 5.418066911134486  14.674863355371905 5.417556380991735  L 9.76439236528926 5.417556380991735  C 9.472020464462814 5.417556380991735  9.225703123140498 5.166096876859503  9.215208081818183 4.8568233371900815  L 9.08155436280992 0.833092002479338  C 9.081326152894938 0.8268800152386149  9.0812120190849 0.8206643614752229  9.0812120190849 0.8144481837715047  C 9.0812120190849 0.5339779124849882  9.308578097385158 0.3066118341847277  9.589048368671676 0.3066118341847277  L 13.816602212396697 0.30661185123966894  C 14.079717442180538 0.3108804831496603  14.30476179327679 0.4968790256749523  14.358494760330583 0.7544845644628095  L 15.164491440495874 4.778215899173555  C 15.19957299279234 4.93960267269425  15.160249125184068 5.1082109074381234  15.05739144049587 5.237426628925619  Z M 9.772091538842977 0.9920209280991729  L 9.896978315702482 4.7321613537190075  L 14.455746000000003 4.7321613537190075  L 13.708027005785127 0.9920209280991729  L 9.772091538842977 0.9920209280991729  Z M 16.473182321487606 14.350690909090908  L 10.13108658016529 14.350690909090908  C 9.98971963801653 14.350690909090908  9.868275009917355 14.177838842975206  9.861194018181816 13.96857026198347  L 9.654735354545455 7.774262123966942  C 9.649593205785123 7.625406752066117  9.74212378429752 7.504397661157024  9.859929555371902 7.504397661157024  L 15.145875738016528 7.504397661157024  C 15.263681523140495 7.504397661157024  15.38426912644628 7.625406752066119  15.414040200826445 7.774262123966942  L 16.653747610743803 13.96858431157025  C 16.69572777603306 14.177838857024796  16.614549263636363 14.350690909090911  16.47319637107438 14.350690909090911  Z " fill-rule="nonzero" fill="#000000" stroke="none" transform="matrix(1 0 0 1 196 237 )" />
  </g>
</svg>