<?xml version="1.0" encoding="utf-8"?>
<svg version="1.1" xmlns:xlink="http://www.w3.org/1999/xlink" width="9px" height="8px" xmlns="http://www.w3.org/2000/svg">
  <g transform="matrix(1 0 0 1 -205 -244 )">
    <path d="M 7.866219511570247 7.504899173553721  C 7.770223930399975 7.623644113118683  7.625875618223684 7.692869384116253  7.473182321487606 7.693388429752066  L 1.1310865801652898 7.693388429752066  C 0.8010196380165286 7.693388429752066  0.5313518834710731 7.3800264462809935  0.5187213049586781 6.9801471214876045  L 0.3122345280991752 0.7858249338842977  C 0.30449845812856324 0.6154414108592601  0.3659021046703117 0.4491550670644404  0.48251551983470975 0.32468939669421637  C 0.5807371687477936 0.2210396436627189  0.717119978323538 0.16213437169476919  0.8599155057851231 0.16168609090909136  L 6.145861688429752 0.16168609090909136  C 6.428160035537191 0.16168609090909136  6.687754236363636 0.3962298925619834  6.750078203305785 0.7070067520661159  L 7.989799662809919 6.901328939669423  C 8.036064952066113 7.132641336363637  7.99107817520661 7.352826446280993  7.866219511570247 7.504899173553721  Z M 1.204551869421488 6.9572181958677675  C 1.2051804416230443 6.974396639282968  1.2078402697428494 6.991440289681865  1.2124758363636392 7.0079934024793396  L 7.312103809090914 7.0079934024793396  L 6.078817060330582 0.8470951818181831  L 1.000860960330579 0.8470951818181831  L 1.204551869421488 6.9572181958677675  Z " fill-rule="nonzero" fill="#000000" stroke="none" transform="matrix(1 0 0 1 205 244 )" />
  </g>
</svg>