<?xml version="1.0" encoding="utf-8"?>
<svg version="1.1" xmlns:xlink="http://www.w3.org/1999/xlink" width="17px" height="17px" xmlns="http://www.w3.org/2000/svg">
  <g transform="matrix(1 0 0 1 -201 -1177 )">
    <path d="M 0.17708333333333331 8.391335227272727  C 0.17708333333333331 12.969341856060607  3.8998579545454546 16.692116477272727  8.477864583333334 16.692116477272727  C 13.055871212121211 16.692116477272727  16.778645833333332 12.969341856060607  16.778645833333332 8.391335227272727  C 16.778645833333332 3.813328598484848  13.055871212121211 0.09055397727272727  8.477864583333334 0.09055397727272727  C 3.8998579545454546 0.09055397727272727  0.17708333333333331 3.813328598484848  0.17708333333333331 8.391335227272727  Z M 1.6863162878787878 8.391335227272727  C 1.6863162878787878 4.6484375  4.724905303030318 1.5997869318181817  8.477864583333334 1.5997869318181817  C 12.220762310606077 1.5997869318181817  15.269412878787879 4.6484375  15.269412878787879 8.391335227272727  C 15.269412878787879 12.134232954545453  12.220762310606077 15.182883522727272  8.477864583333334 15.182883522727272  C 4.7349668560606055 15.182883522727272  1.6863162878787878 12.134232954545453  1.6863162878787878 8.391335227272727  Z " fill-rule="nonzero" fill="#ffffff" stroke="none" transform="matrix(1 0 0 1 201 1177 )" />
  </g>
</svg>