<?xml version="1.0" encoding="utf-8"?>
<svg version="1.1" xmlns:xlink="http://www.w3.org/1999/xlink" width="61px" height="61px" xmlns="http://www.w3.org/2000/svg">
  <g transform="matrix(1 0 0 1 -164 -1194 )">
    <path d="M 8.19041313559322 49.011850052521005  C 8.624569650423728 48.00065651260505  8.129833156779661 46.829273897058826  7.099973516949152 46.408777573529406  C 6.070113877118644 45.98828125  4.888804290254238 46.468848476890756  4.464744438559323 47.49005383403362  L 3.0310182733050848 50.91409532563025  C 2.6069584216101696 51.935300682773104  3.091598252118644 53.106683298319325  4.121457891949152 53.527179621848745  C 4.373874470338983 53.627297794117645  4.6363877118644075 53.6773568802521  4.888804290254238 53.6773568802521  C 5.676344014830508 53.6773568802521  6.43359375 53.21681328781513  6.756686970338983 52.435891544117645  L 8.19041313559322 49.011850052521005  Z M 14.510924258474576 33.82392331932773  C 14.945080773305092 32.81272977941176  14.46044094279661 31.641347163865547  13.430581302966102 31.220850840336134  C 12.400721663135593 30.800354516806717  11.219412076271185 31.280921743697476  10.795352224576272 32.30212710084032  L 7.099973516949152 41.12253807773109  C 6.675913665254238 42.14374343487395  7.160553495762712 43.31512605042017  8.19041313559322 43.73562237394958  C 8.44282971398305 43.83574054621848  8.705342955508476 43.88579963235294  8.957759533898304 43.88579963235294  C 9.745299258474583 43.88579963235294  10.502548993644075 43.42525603991597  10.82564221398305 42.64433429621848  L 14.510924258474576 33.82392331932773  Z M 4.727257680084746 57.30163471638655  C 5.161414194915254 56.300452993697476  4.666677701271187 55.129070378151255  3.636818061440678 54.69856223739495  C 2.6069584216101696 54.27806591386555  1.4256488347457628 54.7586331407563  1.0015889830508475 55.779838497899156  L 0.16356594279660283 57.792213760504204  C -0.26049390889830876 58.81341911764706  0.2241459216101695 59.98480173319328  1.254005561440678 60.40529805672269  C 1.5064221398305084 60.5054162289916  1.768935381355932 60.55547531512605  2.0213519597457625 60.55547531512605  C 2.8088916843220337 60.55547531512605  3.5661414194915255 60.094931722689076  3.889234639830508 59.3140099789916  L 4.727257680084746 57.30163471638655  Z M 30.443458686440685 47.38993566176472  C 31.4632216631356 46.959427521008415  31.95795815677967 45.7880449054622  31.52380164194915 44.766839548319325  L 29.41359904661017 39.690848214285715  C 28.989539194915245 38.669642857142854  27.808229608050848 38.17906381302521  26.77836996822034 38.60957195378152  C 25.748510328389823 39.03006827731094  25.253773834745754 40.201450892857146  25.68793034957627 41.22265625  L 27.808229608050848 46.29864758403363  C 28.131322828389838 47.06955751050422  28.878475900423734 47.540112920168085  29.67611228813559 47.540112920168085  C 29.928528866525426 47.540112920168085  30.191042108050855 47.49005383403363  30.443458686440685 47.38993566176472  Z M 26.13218352754237 37.11781118697479  C 27.16204316737289 36.6873030462185  27.646682997881356 35.51592043067227  27.222623146186432 34.494715073529406  L 26.313923463983045 32.332162552521005  C 25.889863612288128 31.310957195378144  24.70855402542373 30.830389968487395  23.678694385593214 31.250886292016812  C 22.6488347457627 31.67138261554623  22.154098252118636 32.842765231092436  22.588254766949152 33.8639705882353  L 23.496954449152543 36.02652310924371  C 23.820047669491526 36.797433035714306  24.567200741525426 37.26798844537815  25.36483712923729 37.26798844537815  C 25.617253707627118 37.26798844537815  25.879766949152543 37.2179293592437  26.13218352754237 37.11781118697479  Z M 36.975999735169495 57.82224921218487  L 34.270094014830505 51.33459164915967  C 33.84603416313559 50.313386292016794  32.66472457627119 49.822807247899156  31.634864936440678 50.25331538865546  C 30.605005296610166 50.67381171218487  30.1102688029661 51.84519432773109  30.54442531779662 52.86639968487395  L 33.25033103813559 59.34404543067227  C 33.57342425847458 60.11495535714287  34.32057733050847 60.58551076680672  35.11821371822034 60.58551076680672  C 35.37063029661017 60.58551076680672  35.63314353813559 60.53545168067227  35.88556011652542 60.43533350840336  C 36.91541975635594 60.01483718487395  37.41015625 58.84345456932773  36.975999735169495 57.82224921218487  Z M 51.05074814618644 7.653033088235294  C 52.08060778601695 7.222524947478991  52.57534427966102 6.051142331932772  52.141187764830505 5.029936974789916  C 51.71712791313559 4.008731617647059  50.53581832627118 3.518152573529412  49.50595868644068 3.948660714285715  L 31.81660487288135 11.217240021008404  C 30.786745233050844 11.637736344537814  30.29200873940677 12.809118960084033  30.726165254237287 13.830324317226898  C 31.049258474576277 14.60123424369748  31.796411546610173 15.071789653361344  32.594047934322035 15.071789653361344  C 32.84646451271186 15.071789653361344  33.10897775423729 15.021730567226891  33.36139433262712 14.921612394957982  L 51.05074814618644 7.653033088235294  Z M 54.645160222457626 1.8461790966386555  C 53.61530058262712 2.2666754201680672  53.12056408898305 3.428046218487395  53.544623940677965 4.459263392857143  C 53.86771716101695 5.230173319327731  54.61487023305085 5.700728728991597  55.41250662076271 5.700728728991597  C 55.66492319915254 5.700728728991597  55.927436440677965 5.650669642857143  56.1798530190678 5.550551470588235  L 59.23914194915254 4.309086134453781  C 60.26900158898305 3.8885898109243695  60.76373808262712 2.7172071953781587  60.3396782309322 1.696001838235294  C 59.91561837923727 0.6747964810924371  58.73430879237288 0.18421743697478626  57.704449152542374 0.6047137605042017  L 54.645160222457626 1.8461790966386555  Z M 57.79531912076271 46.36873030462185  C 57.79531912076271 40.43172268907564  52.92872748940678 35.606026785714285  46.94140625 35.606026785714285  C 40.943988347457626 35.606026785714285  36.08749337923729 40.421710871848745  36.08749337923729 46.36873030462185  C 36.08749337923729 52.31574973739495  40.943988347457626 57.131433823529406  46.94140625 57.131433823529406  C 52.938824152542374 57.131433823529406  57.79531912076271 52.30573792016807  57.79531912076271 46.36873030462185  Z M 54.3826469809322 43.50535057773111  C 54.3826469809322 45.28745404411766  53.08017743644069 46.789226628151276  51.14161811440678 47.23975840336136  C 50.59639830508474 47.369912027310924  50.05117849576273 47.02951024159664  49.93001853813559 46.49888392857144  C 49.80885858050847 45.968257615546236  50.14204846398305 45.41760766806724  50.677171610169495 45.297465861344556  C 51.51519465042373 45.097229516806735  52.36331435381356 44.46648503151262  52.36331435381356 43.50535057773111  C 52.36331435381356 42.414062500000014  51.313261387711876 41.48296349789918  50.0713718220339 41.48296349789918  C 48.890062235169495 41.48296349789918  47.96116922669491 42.374015231092436  47.96116922669491 43.50535057773111  L 47.96116922669491 48.78157825630254  C 47.96116922669491 51.034237132352956  46.14376986228814 52.80632878151264  43.83163400423729 52.80632878151264  C 41.48920815677966 52.80632878151264  39.52035884533898 50.96415441176474  39.52035884533898 48.78157825630254  C 39.52035884533898 46.99947478991599  40.822828389830505 45.497702205882376  42.76138771186441 45.047170430672296  C 43.30660752118644 44.91701680672272  43.85182733050847 45.257418592437  43.97298728813559 45.7880449054622  C 44.104243908898304 46.328683035714306  43.76095736228814 46.869321165966404  43.225834216101696 46.98946297268909  C 42.38781117584747 47.1896993172269  41.539691472457626 47.82044380252102  41.539691472457626 48.78157825630254  C 41.539691472457626 49.87286633403363  42.58974443855932 50.80396533613448  43.83163400423729 50.80396533613448  C 45.01294359110171 50.80396533613448  45.94183659957627 49.9129136029412  45.94183659957627 48.78157825630254  L 45.94183659957627 43.50535057773111  C 45.94183659957627 41.25269170168069  47.75923596398305 39.48060005252102  50.0713718220339 39.48060005252102  C 52.41379766949153 39.48060005252102  54.3826469809322 41.32277442226891  54.3826469809322 43.50535057773111  Z " fill-rule="nonzero" fill="#ffffff" stroke="none" transform="matrix(1 0 0 1 164 1194 )" />
  </g>
</svg>