<?xml version="1.0" encoding="utf-8"?>
<svg version="1.1" xmlns:xlink="http://www.w3.org/1999/xlink" width="23px" height="11px" xmlns="http://www.w3.org/2000/svg">
  <g transform="matrix(1 0 0 1 -193 -1216 )">
    <path d="M 21.444069602272727 7.216881793478261  L 17.97283380681818 5.909137228260869  C 16.931463068181802 5.516813858695652  15.736949573863637 5.96518342391305  15.308149857954545 6.91796875  C 14.87935014204544 7.870754076086956  15.369406960227272 8.96365489130434  16.410777698863622 9.355978260869565  L 19.88201349431817 10.673063858695652  C 20.137251420454533 10.76647418478261  20.40269886363635 10.813179347826086  20.657936789772712 10.813179347826086  C 21.45427911931817 10.813179347826086  22.219992897727256 10.383491847826086  22.546697443181802 9.654891304347833  C 22.97549715909091 8.70210597826087  22.485440340909076 7.609205163043486  21.444069602272727 7.216881793478261  Z M 10.754705255681818 7.22622282608695  C 10.999733664772728 7.328974184782602  11.265181107954545 7.375679347826081  11.530628551136363 7.375679347826081  C 12.32697088068182 7.375679347826081  13.092684659090908 6.945991847826081  13.419389204545455 6.217391304347825  C 13.84818892045456 5.264605978260863  13.358132102272728 4.1717051630434785  12.31676136363638 3.779381793478254  L 3.0261008522727426 0.2578124999999932  C 1.9847301136363713 -0.13451086956523098  0.7902166193181966 0.3138586956521671  0.3614169034090983 1.2666440217391168  C -0.0673828125 2.2194293478260665  0.42267400568182567 3.3123301630434647  1.4640447443181819 3.7046535326086825  L 10.754705255681818 7.22622282608695  Z " fill-rule="nonzero" fill="#ffffff" stroke="none" transform="matrix(1 0 0 1 193 1216 )" />
  </g>
</svg>