<?xml version="1.0" encoding="utf-8"?>
<svg version="1.1" xmlns:xlink="http://www.w3.org/1999/xlink" width="17px" height="17px" xmlns="http://www.w3.org/2000/svg">
  <g transform="matrix(1 0 0 1 -146 -1177 )">
    <path d="M 0.4101562500000018 8.391335227272727  C 0.4101562500000018 12.969341856060607  4.0234375 16.692116477272727  8.466796875 16.692116477272727  C 12.91015625 16.692116477272727  16.5234375 12.969341856060607  16.5234375 8.391335227272727  C 16.5234375 3.813328598484848  12.91015625 0.09055397727272727  8.466796875 0.09055397727272727  C 4.0234375 0.09055397727272727  0.4101562500000018 3.813328598484848  0.4101562500000018 8.391335227272727  Z M 1.875 8.391335227272727  C 1.875 4.6484375  4.8339843750000036 1.5997869318181817  8.466796875 1.5997869318181817  C 12.099609375 1.5997869318181817  15.05859375 4.6484375  15.05859375 8.391335227272727  C 15.05859375 12.134232954545453  12.099609375 15.182883522727272  8.466796875 15.182883522727272  C 4.8339843750000036 15.182883522727272  1.875 12.134232954545453  1.875 8.391335227272727  Z " fill-rule="nonzero" fill="#ffffff" stroke="none" transform="matrix(1 0 0 1 146 1177 )" />
  </g>
</svg>