<?xml version="1.0" encoding="utf-8"?>
<svg version="1.1" xmlns:xlink="http://www.w3.org/1999/xlink" width="100px" height="100px" xmlns="http://www.w3.org/2000/svg">
  <g transform="matrix(1 0 0 1 -550 -815 )">
    <path d="M 600 816  C 627.44 816  649 837.56  649 865  C 649 892.44  627.44 914  600 914  C 572.56 914  551 892.44  551 865  C 551 837.56  572.56 816  600 816  Z " fill-rule="nonzero" fill="#ffffff" stroke="none" fill-opacity="0" />
    <path d="M 600 816  C 627.44 816  649 837.56  649 865  C 649 892.44  627.44 914  600 914  C 572.56 914  551 892.44  551 865  C 551 837.56  572.56 816  600 816  Z " stroke-width="2" stroke="#ffffff" fill="none" />
  </g>
</svg>