<?xml version="1.0" encoding="utf-8"?>
<svg version="1.1" xmlns:xlink="http://www.w3.org/1999/xlink" width="62px" height="38px" xmlns="http://www.w3.org/2000/svg">
  <g transform="matrix(1 0 0 1 -140 -1194 )">
    <path d="M 51.529427083333346 7.558277027027027  C 50.74231770833335 8.35061233108108  50.74231770833335 9.614336993243244  51.53951822916667 10.396642736486488  C 51.93307291666666 10.787795608108109  52.44772135416667 10.988386824324325  52.96236979166667 10.988386824324325  C 53.47701822916667 10.988386824324325  53.991666666666674 10.787795608108109  54.38522135416667 10.396642736486488  L 61.39856770833334 3.426097972972973  C 62.18567708333333 2.64379222972973  62.18567708333333 1.3700380067567568  61.39856770833334 0.5877322635135136  C 60.61145833333334 -0.19457347972972971  59.329882812499996 -0.19457347972972971  58.542773437499996 0.5877322635135136  L 51.529427083333346 7.558277027027027  Z M 24.989713541666667 36.77438766891892  C 25.393359375 37.16554054054054  25.9080078125 37.36613175675676  26.42265625 37.36613175675676  C 26.9373046875 37.36613175675676  27.451953125 37.16554054054054  27.8455078125 36.77438766891892  L 32.951627604166674 31.69942989864865  C 33.738736979166674 30.917124155405414  33.738736979166674 29.643369932432435  32.951627604166674 28.861064189189197  C 32.16451822916667 28.078758445945954  30.88294270833334 28.078758445945954  30.09583333333333 28.861064189189197  L 24.989713541666667 33.93602195945946  C 24.202604166666667 34.7183277027027  24.202604166666667 35.99208192567568  24.989713541666667 36.77438766891892  Z M 33.102994791666674 10.356524493243244  C 33.900195312499996 9.57421875  33.900195312499996 8.300464527027026  33.113085937499996 7.518158783783783  L 29.67200520833333 4.09807854729729  C 28.88489583333333 3.315772804054047  27.6033203125 3.315772804054047  26.8162109375 4.09807854729729  C 26.0291015625 4.88038429054054  26.0291015625 6.154138513513506  26.8162109375 6.936444256756756  L 30.257291666666667 10.356524493243244  C 30.650846354166667 10.747677364864865  31.165494791666667 10.94826858108108  31.680143229166667 10.94826858108108  C 32.194791666666674 10.94826858108108  32.70944010416667 10.747677364864865  33.102994791666674 10.356524493243244  Z M 53.345833333333346 33.314189189189186  L 57.241015624999996 37.17557010135135  C 57.634570312499996 37.566722972972975  58.149218749999996 37.767314189189186  58.663867187499996 37.767314189189186  C 59.178515624999996 37.767314189189186  59.693164062499996 37.566722972972975  60.086718749999996 37.17557010135135  C 60.873828124999996 36.393264358108105  60.873828124999996 35.11951013513513  60.086718749999996 34.337204391891895  L 56.20162760416667 30.475823479729737  C 55.414518229166674 29.6935177364865  54.13294270833334 29.6935177364865  53.345833333333346 30.475823479729737  C 52.55872395833335 31.258129222972975  52.55872395833335 32.53188344594595  53.345833333333346 33.314189189189186  Z M 23.698046875 9.614336993243244  C 22.66875 9.19309543918919  21.488085937500003 9.674514358108109  21.064257812499996 10.69752956081081  C 20.6404296875 11.720544763513512  21.1248046875 12.894003378378379  22.1541015625 13.31524493243244  L 27.58313802083333 15.55183699324325  C 27.835416666666667 15.652132601351358  28.09778645833333 15.702280405405412  28.350065104166667 15.702280405405412  C 29.137174479166667 15.702280405405412  29.894010416666667 15.240920608108109  30.21692708333333 14.458614864864874  C 30.64075520833333 13.435599662162168  30.15638020833333 12.262141047297304  29.12708333333333 11.84089949324325  L 23.698046875 9.614336993243244  Z M 0.5388671875000001 2.2426097972972974  C 0.1150390625 3.275654560810811  0.5994140625000001 4.449113175675675  1.6287109375 4.87035472972973  L 10.145638020833333 8.370671452702704  C 10.397916666666665 8.47096706081081  10.660286458333333 8.521114864864865  10.912565104166665 8.521114864864865  C 11.699674479166665 8.521114864864865  12.456510416666665 8.05975506756756  12.779427083333333 7.277449324324324  C 13.20325520833333 6.254434121621622  12.718880208333333 5.080975506756756  11.68958333333333 4.659733952702703  L 3.1726562499999997 1.1594172297297296  C 2.1433593749999997 0.7381756756756757  0.9626953124999982 1.2195945945945945  0.5388671875000001 2.2426097972972974  Z " fill-rule="nonzero" fill="#ffffff" stroke="none" transform="matrix(1 0 0 1 140 1194 )" />
  </g>
</svg>