<?xml version="1.0" encoding="utf-8"?>
<svg version="1.1" xmlns:xlink="http://www.w3.org/1999/xlink" width="57px" height="81px" xmlns="http://www.w3.org/2000/svg">
  <g transform="matrix(1 0 0 1 -140 -1168 )">
    <path d="M 22.722759955752213 72.31885383702532  C 22.722759955752213 67.76300435126582  19.077502765486724 64.05824762658227  14.594821626106194 64.05824762658227  C 10.112140486725664 64.05824762658227  6.466883296460178 67.76300435126582  6.466883296460178 72.31885383702532  C 6.466883296460178 76.87470332278481  10.112140486725664 80.57946004746836  14.594821626106194 80.57946004746836  C 19.077502765486724 80.57946004746836  22.722759955752213 76.87470332278481  22.722759955752213 72.31885383702532  Z M 21.244952986725664 72.31885383702532  C 21.244952986725664 76.0436362737342  18.269634955752217 79.07753164556962  14.594821626106194 79.07753164556962  C 10.929860342920357 79.07753164556962  7.9446902654867255 76.0436362737342  7.9446902654867255 72.31885383702532  C 7.9446902654867255 68.59407140031647  10.929860342920357 65.56017602848101  14.594821626106194 65.56017602848101  C 18.259782909292035 65.56017602848101  21.244952986725664 68.59407140031647  21.244952986725664 72.31885383702532  Z M 39.32345824115043 30.09464003164557  C 39.32345824115043 31.196054193037973  40.21014242256636 32.097211234177216  41.29386753318584 32.097211234177216  C 42.3775926438053 32.097211234177216  43.26427682522123 31.196054193037973  43.26427682522123 30.09464003164557  L 43.26427682522123 23.556245055379748  C 43.26427682522123 22.454830893987342  42.3775926438053 21.5536738528481  41.29386753318583 21.5536738528481  C 40.21014242256636 21.5536738528481  39.32345824115043 22.454830893987342  39.32345824115043 23.556245055379748  L 39.32345824115043 30.09464003164557  Z M 39.32345824115043 17.979084256329116  C 39.32345824115043 19.080498417721518  40.21014242256636 19.98165545886076  41.29386753318584 19.98165545886076  C 42.3775926438053 19.98165545886076  43.26427682522123 19.080498417721518  43.26427682522123 17.979084256329116  L 43.26427682522123 14.574713212025316  C 43.26427682522123 13.473299050632912  42.3775926438053 12.572142009493671  41.29386753318583 12.572142009493671  C 40.21014242256636 12.572142009493671  39.32345824115043 13.473299050632912  39.32345824115043 14.574713212025316  L 39.32345824115043 17.979084256329116  Z M 39.32345824115043 8.96751384493671  C 39.32345824115043 10.068928006329113  40.21014242256636 10.970085047468356  41.29386753318584 10.970085047468356  C 42.3775926438053 10.970085047468356  43.26427682522123 10.068928006329113  43.26427682522123 8.96751384493671  L 43.26427682522123 2.2288617484177218  C 43.26427682522123 1.1274475870253164  42.3775926438053 0.22629054588607597  41.29386753318583 0.22629054588607597  C 40.21014242256636 0.22629054588607597  39.32345824115043 1.1274475870253164  39.32345824115043 2.2288617484177218  L 39.32345824115043 8.96751384493671  Z M 19.79670215707965 54.175558742088604  C 20.11196764380531 54.93653579905063  20.841019081858413 55.40714003164556  21.619330752212395 55.40714003164556  C 21.875483960176993 55.40714003164556  22.12178512168142 55.357075751582265  22.368086283185846 55.25694719145569  L 28.318722345132745 52.753733188291136  C 29.323631084070794 52.33319323575949  29.806381360619476 51.161689082278485  29.382743362831857 50.140377768987335  C 28.96895741150443 49.11906645569619  27.816267975663724 48.62843651107594  26.811359236725664 49.05898931962025  L 20.860723174778766 51.56220332278481  C 19.85581443584071 51.98274327531646  19.373064159292035 53.15424742879746  19.79670215707965 54.175558742088604  Z M 18.36815542035398 54.77633010284811  C 17.954369469026545 53.74500593354431  16.801680033185843 53.254375988924046  15.796771294247788 53.68492879746835  L 12.703228705752212 54.98660007911392  C 11.698319966814159 55.407140031645575  11.215569690265486 56.57864418512658  11.639207688053096 57.599955498417735  C 11.954473174778759 58.37094541139241  12.683524612831855 58.84154964398734  13.461836283185841 58.84154964398734  C 13.717989491150439 58.84154964398734  13.964290652654864 58.79148536392405  14.210591814159288 58.691356803797476  L 17.304134402654864 57.38968552215189  C 18.309043141592912 56.96914556962025  18.791793418141587 55.79764141613925  18.36815542035398 54.77633010284811  Z M 9.10723174778761 60.83410799050633  C 10.112140486725664 60.40355518196203  10.594890763274336 59.23205102848101  10.171252765486726 58.21073971518987  C 9.757466814159292 57.189428401898724  8.604777378318584 56.69879845727848  7.5998686393805315 57.12935126582279  L 1.4718957411504425 59.712668117088604  C 0.46698700221238937 60.13320806962025  -0.015763274336283186 61.30471222310126  0.4078747234513274 62.326023536392405  C 0.7231402101769911 63.09701344936709  1.4521916482300885 63.56761768196203  2.230503318584071 63.56761768196203  C 2.486656526548672 63.56761768196203  2.7329576880530975 63.51755340189874  2.979258849557522 63.41742484177215  L 9.10723174778761 60.83410799050633  Z M 47.46124861725664 24.747774920886076  C 47.03761061946904 25.779099090189877  47.52036089601771 26.950603243670887  48.52526963495576 27.37114319620253  C 48.77157079646019 27.471271756329113  49.02772400442479 27.521336036392405  49.27402516592921 27.521336036392405  C 50.04248478982301 27.521336036392405  50.78138827433628 27.060744659810126  51.09665376106195 26.279741890822788  L 56.60394773230088 12.772399129746836  C 57.017733683628336 11.751087816455698  56.54483545353982 10.579583662974684  55.53992671460178 10.159043710443038  C 54.53501797566373 9.738503757911394  53.38232853982302 10.219120846518987  52.96854258849558 11.240432159810126  L 47.46124861725664 24.747774920886076  Z " fill-rule="nonzero" fill="#ffffff" stroke="none" transform="matrix(1 0 0 1 140 1168 )" />
  </g>
</svg>