<?xml version="1.0" encoding="utf-8"?>
<svg version="1.1" xmlns:xlink="http://www.w3.org/1999/xlink" width="60px" height="44px" xmlns="http://www.w3.org/2000/svg">
  <g transform="matrix(1 0 0 1 -243 -401 )">
    <path d="M 260.8389316291587 402.5  C 260.8389316291587 402.5  257.56652356774674 403.6998829558511  257.56652356774674 403.6998829558511  C 257.56652356774674 403.6998829558511  244.78332916188182 423  244.78332916188182 423  C 244.78332916188182 423  257.56652356774674 442.300117044149  257.56652356774674 442.300117044149  C 257.56652356774674 442.300117044149  260.8389316291587 443.5  260.8389316291587 443.5  C 260.8389316291587 443.5  301.5 443.5  301.5 443.5  C 301.5 443.5  301.5 402.5  301.5 402.5  C 301.5 402.5  260.8389316291587 402.5  260.8389316291587 402.5  Z " fill-rule="nonzero" fill="#000000" stroke="none" />
    <path d="M 260.7592877527725 402  C 260.7592877527725 402  257.2443490451645 403.28881085945625  257.2443490451645 403.28881085945625  C 257.2443490451645 403.28881085945625  244.18888610792123 423  244.18888610792123 423  C 244.18888610792123 423  257.2443490451645 442.71118914054375  257.2443490451645 442.71118914054375  C 257.2443490451645 442.71118914054375  260.7592877527725 444  260.7592877527725 444  C 260.7592877527725 444  302 444  302 444  C 302 444  302 402  302 402  C 302 402  260.7592877527725 402  260.7592877527725 402  Z " stroke-width="2" stroke="#ffffff" fill="none" />
  </g>
</svg>