<?xml version="1.0" encoding="utf-8"?>
<svg version="1.1" xmlns:xlink="http://www.w3.org/1999/xlink" width="25px" height="25px" xmlns="http://www.w3.org/2000/svg">
  <g transform="matrix(1 0 0 1 -331 -13 )">
    <path d="M 0.36005434782608775 0.6476449275362324  L 0.4913949275362316 0.4913949275362316  C 0.9335369695265103 0.049386392286160936  1.6502492623575484 0.049386392286160936  2.0923913043478253 0.4913949275362316  L 12.497735507246377 10.896739130434781  L 22.907608695652172 0.4913949275362316  C 23.294220211642614 0.10433359436745196  23.90228350485257 0.049055113166543714  24.35235507246377 0.36005434782608775  L 24.510869565217394 0.4913949275362316  C 24.952878100467462 0.9335369695265116  24.952878100467462 1.6502492623575469  24.510869565217394 2.0923913043478253  L 14.098731884057969 12.497735507246377  L 24.506340579710145 22.907608695652172  C 24.893401912878925 23.294220211642614  24.948680394079837 23.90228350485257  24.637681159420293 24.35235507246377  L 24.506340579710145 24.510869565217394  C 24.064198537719868 24.952878100467462  23.347486244888827 24.952878100467462  22.90534420289855 24.510869565217394  L 12.5 14.098731884057969  L 2.0946557971014492 24.506340579710145  C 1.7080442811110097 24.893401912878925  1.0999809879010523 24.948680394079837  0.6499094202898561 24.637681159420293  L 0.49139492753623293 24.506340579710145  C 0.049386392286160936 24.064198537719868  0.049386392286160936 23.347486244888827  0.49139492753623293 22.90534420289855  L 10.899003623188408 12.5  L 0.4913949275362316 2.0923913043478253  C 0.10433359436744875 1.705779788357386  0.049055113166543714 1.0977164951474283  0.36005434782608775 0.6476449275362324  Z " fill-rule="nonzero" fill="#ffffff" stroke="none" transform="matrix(1 0 0 1 331 13 )" />
  </g>
</svg>