<?xml version="1.0" encoding="utf-8"?>
<svg version="1.1" xmlns:xlink="http://www.w3.org/1999/xlink" width="60px" height="60px" xmlns="http://www.w3.org/2000/svg">
  <g transform="matrix(1 0 0 1 -75 -160 )">
    <path d="M 105 161  C 121.24000000000001 161  134 173.76  134 190  C 134 206.24  121.24000000000001 219  105 219  C 88.75999999999999 219  76 206.24  76 190  C 76 173.76  88.75999999999999 161  105 161  Z " fill-rule="nonzero" fill="#000000" stroke="none" />
    <path d="M 105 161  C 121.24000000000001 161  134 173.76  134 190  C 134 206.24  121.24000000000001 219  105 219  C 88.75999999999999 219  76 206.24  76 190  C 76 173.76  88.75999999999999 161  105 161  Z " stroke-width="2" stroke="#ffffff" fill="none" />
  </g>
</svg>