<?xml version="1.0" encoding="utf-8"?>
<svg version="1.1" xmlns:xlink="http://www.w3.org/1999/xlink" width="9px" height="15px" xmlns="http://www.w3.org/2000/svg">
  <g transform="matrix(1 0 0 1 -32 -120 )">
    <path d="M 9 14.330797697368421  C 8.929309475806452 14.673879523026315  8.657132056451612 14.951428865131579  8.32258064516129 14.951428865131579  L 0.6222278225806445 14.951428865131579  C 0.28578629032257996 14.951428865131579  0.013608870967741936 14.673879523026315  0 14.330797697368421  L 0 0.6942588404605263  C 0.013608870967741936 0.3511770148026316  0.28578629032257996 0.07362767269736842  0.6222278225806445 0.07362767269736842  L 8.32258064516129 0.07362767269736842  C 8.659022177419352 0.07362767269736842  8.931199596774194 0.3511770148026316  9 0.6942588404605263  L 9 14.330797697368421  Z M 3.803301411290321 13.608012952302634  C 3.803301411290321 13.985788445723687  4.103830645161289 14.290321751644738  4.472404233870966 14.290321751644738  C 4.840977822580644 14.290321751644738  5.14150705645161 13.985788445723687  5.14150705645161 13.608012952302634  C 5.14150705645161 13.232164884868423  4.842867943548386 12.92570415296053  4.472404233870966 12.92570415296053  C 4.103830645161289 12.92570415296053  3.803301411290321 13.230237458881579  3.803301411290321 13.608012952302634  Z M 3.1549899193548376 1.1298571134868434  C 3.1549899193548376 1.037340666118423  3.0831653225806437 0.9640984786184225  2.992439516129031 0.9640984786184225  C 2.9036038306451597 0.9640984786184225  2.829889112903223 1.037340666118423  2.829889112903223 1.1298571134868434  C 2.829889112903223 1.2204461348684223  2.901713709677417 1.2956157483552646  2.992439516129031 1.2956157483552646  C 3.0812752016129004 1.2956157483552646  3.1549899193548376 1.2223735608552646  3.1549899193548376 1.1298571134868434  Z M 5.385332661290323 1.1298571134868434  C 5.383442540322579 1.0373406661184223  5.311617943548387 0.9640984786184225  5.222782258064515 0.9640984786184225  L 3.7239163306451597 0.9640984786184225  C 3.635080645161289 0.9640984786184225  3.5613659274193536 1.037340666118423  3.5613659274193536 1.1298571134868434  C 3.5613659274193536 1.2204461348684223  3.6331905241935467 1.2956157483552646  3.7239163306451597 1.2956157483552646  L 5.222782258064515 1.2956157483552646  C 5.311617943548387 1.2956157483552646  5.385332661290323 1.2223735608552646  5.385332661290323 1.1298571134868434  Z M 8.32258064516129 12.266524465460527  L 8.32258064516129 2.1417557565789487  L 0.6222278225806445 2.1417557565789487  L 0.6222278225806445 12.266524465460527  L 8.32258064516129 12.266524465460527  Z " fill-rule="nonzero" fill="#ffffff" stroke="none" transform="matrix(1 0 0 1 32 120 )" />
  </g>
</svg>