<?xml version="1.0" encoding="utf-8"?>
<svg version="1.1" xmlns:xlink="http://www.w3.org/1999/xlink" width="20px" height="20px" xmlns="http://www.w3.org/2000/svg">
  <g transform="matrix(1 0 0 1 -269 -413 )">
    <path d="M 0.2880434782608702 0.5181159420289859  L 0.3931159420289853 0.3931159420289853  C 0.7468295756212083 0.03950911382892875  1.3201994098860386 0.03950911382892875  1.6739130434782603 0.3931159420289853  L 9.998188405797102 8.717391304347824  L 18.326086956521735 0.3931159420289853  C 18.635376169314092 0.08346687549396158  19.121826803882055 0.039244090533234965  19.481884057971016 0.2880434782608702  L 19.608695652173914 0.3931159420289853  C 19.96230248037397 0.7468295756212093  19.96230248037397 1.3201994098860377  19.608695652173914 1.6739130434782603  L 11.278985507246375 9.998188405797102  L 19.605072463768117 18.326086956521735  C 19.91472153030314 18.635376169314092  19.95894431526387 19.121826803882055  19.710144927536234 19.481884057971016  L 19.605072463768117 19.608695652173914  C 19.251358830175892 19.96230248037397  18.67798899591106 19.96230248037397  18.32427536231884 19.608695652173914  L 10 11.278985507246375  L 1.6757246376811594 19.605072463768117  C 1.3664354248888078 19.91472153030314  0.8799847903208418 19.95894431526387  0.5199275362318849 19.710144927536234  L 0.39311594202898636 19.605072463768117  C 0.03950911382892875 19.251358830175892  0.03950911382892875 18.67798899591106  0.39311594202898636 18.32427536231884  L 8.719202898550726 10  L 0.3931159420289853 1.6739130434782603  C 0.08346687549395901 1.3646238306859089  0.039244090533234965 0.8781731961179428  0.2880434782608702 0.5181159420289859  Z " fill-rule="nonzero" fill="#ffffff" stroke="none" transform="matrix(1 0 0 1 269 413 )" />
  </g>
</svg>